<?xml version="1.0" encoding="utf-8"?>
<!-- Generator: Adobe Illustrator 18.1.1, SVG Export Plug-In . SVG Version: 6.00 Build 0)  -->
<svg version="1.1" id="Layer_1" xmlns="http://www.w3.org/2000/svg" xmlns:xlink="http://www.w3.org/1999/xlink" x="0px" y="0px"
	 viewBox="0 0 100 100" enable-background="new 0 0 100 100" xml:space="preserve">
<path fill="#E9612C" d="M28.6,9.8C-31,42.3,18,120.1,73.8,89.7S80.4-18.3,28.6,9.8"/>
<g>
	<path fill="#FBFFEB" d="M77.5,59V40.5c-2.6,0-4.8-2.1-4.8-4.8v-0.3H27v0.3c0,2.6-2.1,4.8-4.5,4.8v18.8c2.6,0,4.5,2.1,4.5,4.8h45.8
		C72.8,61.1,74.9,59,77.5,59z"/>
	<g>
		<g>
			<path fill="#E9612C" d="M68.8,42.1v15.9H30.7V42.1H68.8 M70.1,40.7H29.4v18.5h40.7V40.7L70.1,40.7z"/>
		</g>
	</g>
</g>
</svg>
