<?xml version="1.0" encoding="utf-8"?>
<!-- Generator: Adobe Illustrator 18.1.1, SVG Export Plug-In . SVG Version: 6.00 Build 0)  -->
<svg version="1.1" id="Layer_1" xmlns="http://www.w3.org/2000/svg" xmlns:xlink="http://www.w3.org/1999/xlink" x="0px" y="0px"
	 viewBox="0 0 100 100" enable-background="new 0 0 100 100" xml:space="preserve">
<path fill="#E9612C" d="M24.8,9.7c59.6-36.2,103.6,47.6,47.7,81.5S-27,41.2,24.8,9.7"/>
<g>
	<path fill="#E1C51B" d="M18.8,41.8h62.4c2,0,3.5,1.9,2.9,3.9L73.5,79.1c-0.4,1.3-1.5,2.2-2.9,2.2l-40.4,0c-1.3,0-2.4-0.8-2.9-2
		L16,45.8C15.2,43.9,16.7,41.8,18.8,41.8z"/>
	<path fill="#E9612C" d="M35.9,51.2L41,76.1c0.1,0.5,0.4,0.8,0.8,0.8h3.4c0.5,0,0.9-0.7,0.8-1.3l-5-24.9c-0.1-0.5-0.4-0.8-0.8-0.8
		h-3.6C36.1,49.9,35.7,50.5,35.9,51.2z"/>
	<path fill="#E9612C" d="M64.1,51.3L59.4,76c-0.1,0.5-0.4,0.9-0.8,0.9h-2.7c-0.6,0-1-0.7-0.9-1.4l4-24.7c0.1-0.5,0.4-0.9,0.9-0.9
		h3.4C63.8,49.9,64.3,50.6,64.1,51.3z"/>
	<path fill="#E9612C" d="M23.6,51.3l9.8,25.1c0.2,0.4,0.6,0.7,0.9,0.6l4.2,0c0.5-0.1,0.6-0.3,0.3-1l-9.9-25.5
		c-0.2-0.5-0.6-0.7-0.9-0.7l-3.8,0C23.6,50,23.4,50.7,23.6,51.3z"/>
	<path fill="#E9612C" d="M77,51.3l-9.8,25.1c-0.2,0.4-0.6,0.7-0.9,0.6l-4.2,0c-0.5-0.1-0.6-0.3-0.3-1l9.9-25.5
		c0.2-0.5,0.6-0.7,0.9-0.7l3.8,0C77,50,77.2,50.7,77,51.3z"/>
	<path fill="#E9612C" d="M47.7,76l0-24.9c0-0.6,0.4-1.2,0.8-1.2h3.5c0.5,0,0.8,0.5,0.8,1.1l0,25c0,0.6-0.4,1.1-0.8,1.1l-3.5-0.1
		C48.1,77.1,47.8,76.6,47.7,76z"/>
	<g>
		<path fill="#FBFFEB" d="M69.6,44.4c3.7-0.3,4.7,5,0.5,5.4C66,50.2,65.6,44.8,69.6,44.4z"/>
		<path fill="#FBFFEB" d="M31.9,44.4c3.7-0.3,4.7,5,0.5,5.4C28.3,50.2,27.9,44.8,31.9,44.4z"/>
		<path fill="#FBFFEB" d="M31.6,45.1l13.6-25.8c0.3-0.5,0.9-0.7,1.4-0.4l1,0.6c0.5,0.3,0.6,0.9,0.4,1.4L33.5,47.9l-1.7-1.6
			C31.5,46,31.4,45.5,31.6,45.1z"/>
		<path fill="#FBFFEB" d="M70.6,45.1L57,19.2c-0.3-0.5-0.9-0.7-1.4-0.4l-1,0.6c-0.5,0.3-0.6,0.9-0.4,1.4l14.6,27.1l1.7-1.6
			C70.7,46,70.8,45.5,70.6,45.1z"/>
	</g>
</g>
</svg>
