<?xml version="1.0" encoding="utf-8"?>
<!-- Generator: Adobe Illustrator 19.2.1, SVG Export Plug-In . SVG Version: 6.00 Build 0)  -->
<svg version="1.1" id="Layer_1" xmlns="http://www.w3.org/2000/svg" xmlns:xlink="http://www.w3.org/1999/xlink" x="0px" y="0px"
	 width="100px" height="100px" viewBox="0 0 100 100" style="enable-background:new 0 0 100 100;" xml:space="preserve">
<style type="text/css">
	.st0{fill:#E9612C;}
	.st1{fill:#1FCEAC;}
	.st2{enable-background:new    ;}
	.st3{fill:#FBFFEB;}
</style>
<path class="st0" d="M71.6,9.1c59.9,32.7,10.6,111-45.5,80.4S19.4-19.1,71.6,9.1"/>
<g>
	<path class="st1" d="M50.3,25c0,0,8.3,6.9,16.5,0l8.8,7.7c0,0-4.8,3.7-4.8,9.3c0,6.9,4.3,10.4,4.5,14.1c0,1.9-0.3,14.9-16,15.2
		c-2.1,0-5.9,0.5-9,3.5c0,0-2.9-2.7-6.1-3.2c-3.2-0.5-12.8-0.5-16.5-6.4c-4-6.1-2.7-11.2-1.6-13.3c1.1-1.9,3.2-6.1,3.2-9.6
		c0-4.8-4.8-10.1-4.8-10.1l9-7.7C33.2,24.5,39.1,31.7,50.3,25z"/>
	<g class="st2">
		<path class="st3" d="M45.1,59.1h-4V44.6c-0.7,0.6-1.2,0.9-2.2,1.3v-3.3c1.7-0.7,4-2.2,4.9-3.4h1.2V59.1z"/>
		<path class="st3" d="M56.9,51.9c-0.7,0.2-1,0.3-1.5,0.3c-2.4,0-4-2.5-4-6.1c0-4.5,2.2-7.2,6-7.2c3.4,0,5.3,2.5,5.3,6.7
			c0,3-0.7,5.1-2.8,8.3l-3.3,5.2H52L56.9,51.9z M55.3,45.6c0,2.1,0.6,3.5,1.7,3.5c1,0,1.7-1.3,1.7-3.4c0-2.1-0.7-3.4-1.7-3.4
			C55.9,42.2,55.3,43.5,55.3,45.6z"/>
	</g>
</g>
</svg>
