<?xml version="1.0" encoding="utf-8"?>
<!-- Generator: Adobe Illustrator 19.2.1, SVG Export Plug-In . SVG Version: 6.00 Build 0)  -->
<svg version="1.1" id="Layer_1" xmlns="http://www.w3.org/2000/svg" xmlns:xlink="http://www.w3.org/1999/xlink" x="0px" y="0px"
	 width="100px" height="100px" viewBox="0 0 100 100" style="enable-background:new 0 0 100 100;" xml:space="preserve">
<style type="text/css">
	.st0{fill:#1FCEAC;}
	.st1{fill:#FBFFEB;}
</style>
<path class="st0" d="M28.6,11.1C-31,43.7,18,121.4,73.8,91S80.4-17.2,28.6,11.1"/>
<path class="st1" d="M74.3,24.6L74,32.5c0,0-15.6,0.5-24.1,10.6c-8.5-10.3-24.1-10.6-24.1-10.6l-0.3-7.9c0,0-13.5,10.6-13.5,11.9
	S25.5,50,26.8,49.7L26.7,41c0,0,8.7-1.3,17.5,11.1v31.7H55V52.4C63.8,39.9,73,41,73,41l-0.3,8.7C74,50,87.5,38.1,87.5,36.5
	C87.8,34.9,74.3,24.6,74.3,24.6z"/>
</svg>
