<?xml version="1.0" encoding="utf-8"?>
<!-- Generator: Adobe Illustrator 18.1.1, SVG Export Plug-In . SVG Version: 6.00 Build 0)  -->
<svg version="1.1" id="Layer_1" xmlns="http://www.w3.org/2000/svg" xmlns:xlink="http://www.w3.org/1999/xlink" x="0px" y="0px"
	 viewBox="0 0 100 100" enable-background="new 0 0 100 100" xml:space="preserve">
<path fill="#E9612C" d="M24.4,10.1c59.8-36.3,104.7,49.1,47.9,81.7C18.2,122.8-27.6,41.7,24.4,10.1"/>
<g>
	<path fill="#FBFFEB" d="M25.2,45.9c0,0-1.7,32.4,25.6,31.7c27.3-0.7,23.1-34.5,23.1-34.5L25.2,45.9z"/>
	<path fill="#754532" d="M25.2,45.9c0,0,23.5,10.4,48.6-2.8c1-0.5-5.2-4.8-23.4-3.2C43.1,40.5,29.9,40.8,25.2,45.9z"/>
	<path fill="#FBFFEB" d="M72.3,49.8c0,0,9.2-2.5,9.6,6.2S66.5,67.9,66.5,67.9l2-5.5c0,0,8.1-1,8.7-4.6S72,54.5,72,54.5L72.3,49.8z"
		/>
	<path fill="#FBFFEB" d="M43.1,39.2c1.6-5.6,9.2-4.2,10.6-6.8c1.4-2.6,0.9-4.6-0.9-6.6c-1.7-2-5.3-3.5-5.3-3.5s6.4-0.2,8.1,5
		c3.5,10.2-8.4,8.6-9.6,12.5c-2.3,7.5,7.6,6,8.3,7.5C55,48.9,40.7,47.8,43.1,39.2z"/>
</g>
</svg>
