<?xml version="1.0" encoding="utf-8"?>
<!-- Generator: Adobe Illustrator 18.1.1, SVG Export Plug-In . SVG Version: 6.00 Build 0)  -->
<svg version="1.1" id="Layer_1" xmlns="http://www.w3.org/2000/svg" xmlns:xlink="http://www.w3.org/1999/xlink" x="0px" y="0px"
	 viewBox="0 0 100 100" enable-background="new 0 0 100 100" xml:space="preserve">
<g>
	<g>
		<path id="palm1_135_" fill="#754532" d="M22.7,31.6c0,3.2-0.1,6.8-0.8,12c-0.7,5.8,0.6,13.3,0.8,19c0.1,4.6-1.5,25.6-2.1,33.2
			c-0.1,1.7-0.9,2.7-0.9,2.7h4.5c0,0,0,0-0.9-2.5c-0.4-1.2,1.9-28.1,2-30.5c0.3-6-1.1-15.8-1.3-17.9c-0.2-2,0.9-15.8,1.1-17.4
			L22.7,31.6z"/>
		<path id="palm1_134_" fill="#754532" d="M30.1,24.5c0.2,1.2-0.8,2.4-0.8,2.4l-1.1-1.4c0,0-1.1,4.2-1.3,4.2c0,0-2.4,3.8-3.9,3
			c-1.4-0.7-3.4-4.3-3.4-4.3s-1-1.9-1.2-3c0,0,2.1-5,4.8-4.7S30.1,24.5,30.1,24.5z"/>
		<path id="palm1_132_" fill="#1FCEAC" d="M31,29.3c0.3-0.1,0.7-3.1,1.2-3.2c0.4-0.1,2,4.6,2.6,6s6.9,7,7.2,6.9
			c0.4-0.1,0.5-7.2-0.1-9.1s-4.4-5.2-4.7-5.5c-0.3-0.3,0.5-0.5,0.9-0.9c0.4-0.3-5.5-4.9-5.5-4.9s3.3,1.6,4.1,1.5
			c0.9-0.1,0.1-1,0.1-1s1,0.5,2.9,0.5c3.4,0.1,10.3,3.9,11.2,3.3c0.5-0.4-3.1-5.8-5.7-7c-1.8-0.9-7.8-1.9-8.3-2.1
			c-0.5-0.2,0.4-0.5,0.4-1.2c0-0.6-3.8,0.9-5.2,1.2c-1.5,0.3-4.7,2.5-6,1.9c-1.3-0.5,5.2-5.4,5.5-5.7c0.2-0.3-2.2-0.9-2.3-1.3
			c-0.1-0.4,8.1-3.8,8-4.2c-0.1-0.2-2.1-1-3.5-1.5c-1.5-0.4-5,0.1-5,0.1s0-1.4,0-1.7s-2.4,0.7-3.6,1.6s-3.5,4.1-3.8,4.5
			c-0.3,0.4-1.7-1-1.9-1c-0.2,0,0.4,2.9,0.6,4.3c0.2,1.4,0.7,4.1,0.7,4.1s0,0-2.2-1.9s-5.2-2.9-5.2-2.9c-0.3,0.2,0.5,1.4,0.5,1.4
			s-3.9,0-6.2,0.7c-2.3,0.7-4.5,5-4.3,5.2c0.1,0.1,2.2-0.6,3.5-0.9c2.3-0.5,5.9,0,5.9,0s-1.7,0.9-3.2,1.2c-1.5,0.2-5,2.6-5,2.9
			c0.1,0.5,2,0.8,2,0.8S3.4,24.2,2.8,26c-0.7,2.4-0.6,6.1-0.6,7.1C2.2,34,9,25.7,9,25.7s0.5,0.5,0.9,0.6c0.2,0.1,0.5-0.9,1.2-2.4
			c0.6-1.5,3.4-2.2,3.4-2.2s-2.2,3.5-3.5,5.2s-2,5.6-2,6s0.7-0.9,1-0.9c0.3,0.1,2.6,10.2,3.4,11.2c0.9,1,3.1-10.5,3.1-10.5l1.3,0.1
			c0,0,2.1-3,1.8-4.3c0,0-0.5-5.1,2.9-6.1C22.4,22.4,27.5,30.3,31,29.3z"/>
	</g>
	<g>
		<path id="palm1_131_" fill="#754532" d="M69.5,31.6c0,3.2-0.1,6.8-0.8,12c-0.7,5.8,0.6,13.3,0.8,19c0.1,4.6-1.5,25.6-2.1,33.2
			c-0.1,1.7-0.9,2.7-0.9,2.7h4.5c0,0,0,0-0.9-2.5c-0.4-1.2,1.9-28.1,2-30.5c0.3-6-1.1-15.8-1.3-17.9c-0.2-2,0.9-15.8,1.1-17.4
			L69.5,31.6z"/>
		<path id="palm1_130_" fill="#754532" d="M76.8,24.5c0.2,1.2-0.8,2.4-0.8,2.4L75,25.5c0,0-1.1,4.2-1.3,4.2c0,0-2.4,3.8-3.9,3
			c-1.4-0.7-3.4-4.3-3.4-4.3s-1-1.9-1.2-3c0,0,2.1-5,4.8-4.7C72.7,21,76.8,24.5,76.8,24.5z"/>
		<path id="palm1_128_" fill="#1FCEAC" d="M77.8,29.3c0.3-0.1,0.7-3.1,1.2-3.2c0.4-0.1,2,4.6,2.6,6c0.5,1.4,6.9,7,7.2,6.9
			c0.4-0.1,0.5-7.2-0.1-9.1c-0.7-1.9-4.4-5.2-4.7-5.5c-0.3-0.3,0.5-0.5,0.9-0.9c0.4-0.3-5.5-4.9-5.5-4.9s3.3,1.6,4.1,1.5
			s0.1-1,0.1-1s1,0.5,2.9,0.5c3.4,0.1,10.3,3.9,11.2,3.3c0.5-0.4-3.1-5.8-5.7-7c-1.8-0.9-7.8-1.9-8.3-2.1c-0.5-0.2,0.4-0.5,0.4-1.2
			c0-0.6-3.8,0.9-5.2,1.2s-4.7,2.5-6,1.9c-1.3-0.5,5.2-5.4,5.5-5.7c0.2-0.3-2.2-0.9-2.3-1.3c-0.1-0.4,8.1-3.8,8-4.2
			c-0.1-0.2-2.1-1-3.5-1.5c-1.5-0.4-5,0.1-5,0.1s0-1.4,0-1.7s-2.4,0.7-3.6,1.6s-3.5,4.1-3.8,4.5c-0.3,0.4-1.7-1-1.9-1
			c-0.2,0,0.4,2.9,0.6,4.3c0.2,1.4,0.7,4.1,0.7,4.1s0,0-2.2-1.9C63,11.2,60,10.2,60,10.2c-0.3,0.2,0.5,1.4,0.5,1.4s-3.9,0-6.2,0.7
			c-2.3,0.7-4.5,5-4.3,5.2c0.1,0.1,2.2-0.6,3.5-0.9c2.3-0.5,5.9,0,5.9,0s-1.7,0.9-3.2,1.2c-1.5,0.2-5,2.6-5,2.9c0.1,0.5,2,0.8,2,0.8
			s-3.2,2.8-3.7,4.7c-0.7,2.4-0.6,6.1-0.6,7.1c0,0.9,6.7-7.4,6.7-7.4s0.5,0.5,0.9,0.6c0.2,0.1,0.5-0.9,1.2-2.4
			c0.6-1.5,3.4-2.2,3.4-2.2s-2.2,3.5-3.5,5.2s-2,5.6-2,6c0,0.4,0.7-0.9,1-0.9c0.3,0.1,2.6,10.2,3.4,11.2c0.9,1,3.1-10.5,3.1-10.5
			l1.3,0.1c0,0,2.1-3,1.8-4.3c0,0-0.5-5.1,2.9-6.1C69.2,22.4,74.3,30.3,77.8,29.3z"/>
	</g>
</g>
</svg>
