<?xml version="1.0" encoding="utf-8"?>
<!-- Generator: Adobe Illustrator 18.1.1, SVG Export Plug-In . SVG Version: 6.00 Build 0)  -->
<svg version="1.1" id="Layer_1" xmlns="http://www.w3.org/2000/svg" xmlns:xlink="http://www.w3.org/1999/xlink" x="0px" y="0px"
	 viewBox="0 0 100 100" enable-background="new 0 0 100 100" xml:space="preserve">
<g>
	<g>
		<path fill="#E9612C" d="M64.4,6.5C128.9,30.2,93,115.2,32.6,93S8.5-14,64.4,6.5z"/>
	</g>
	<g>
		<path fill="#754532" d="M70.1,60.4c0,0-0.4,6.9,0,7.5c0.4,0.6,5.1,0.6,5.7,0c0.6-0.6,0.3-25.3,0-26.3c-0.1-0.4-4.7-1-5.1,0
			s-0.4,9-0.4,9s-45.1,0.6-45.9-0.2c-0.8-0.8,1-16.5,0-17.1c-1-0.6-5.1-0.6-5.5,0c-0.4,0.5-0.9,26-1,33.2c0,1,0.8,1.9,1.9,1.9h2.3
			c1,0,1.9-0.8,1.9-1.9v-6.9L70.1,60.4z"/>
		<path fill="#F9C79E" d="M32.3,35.9c9.2,0.2,8,12,1,12C23.6,47.9,24.8,35.7,32.3,35.9z"/>
		<path fill="#FBFFEB" d="M66.8,47.9H38.9c0,0-0.4-7.3,5.1-7.5c5.5-0.2,18.9-0.4,21.4,0.4C69,41.9,66.8,47.9,66.8,47.9z"/>
	</g>
</g>
</svg>
