<?xml version="1.0" encoding="utf-8"?>
<!-- Generator: Adobe Illustrator 19.2.1, SVG Export Plug-In . SVG Version: 6.00 Build 0)  -->
<svg version="1.1" id="Layer_1" xmlns="http://www.w3.org/2000/svg" xmlns:xlink="http://www.w3.org/1999/xlink" x="0px" y="0px"
	 width="100px" height="100px" viewBox="0 0 100 100" style="enable-background:new 0 0 100 100;" xml:space="preserve">
<style type="text/css">
	.st0{fill:#E9612C;}
	.st1{fill:#1FCEAC;}
	.st2{fill:#FAFBEB;}
	.st3{fill:#FBFFEB;}
</style>
<path class="st0" d="M28.2,9.3c-60.6,33.1-10.8,112.3,46,81.3S80.9-19.3,28.2,9.3"/>
<g>
	<polygon class="st1" points="14.4,32.4 14.4,67.1 85.2,67.1 85.2,32.4 	"/>
	<g>
		<g>
			<g>
				<path class="st2" d="M60.2,41.6c0,0,0-7.5-8.6-10.2C47,30,39.7,31.6,38.1,39.7c-3.2,17.5,17,10.8,17,17.8s-4.8,8.1-14.3,2.2
					l-0.5,7.5c0,0,21.5,8.9,21.8-11c0-11.6-16.2-5.7-17.2-10.8c-1.3-6.7,1.9-10,5.4-8.3c3,1.3,2.7,4.8,2.7,4.8L60.2,41.6z"/>
			</g>
			<g>
				<polygon class="st3" points="45.9,26.2 46.7,74.7 51.6,74.4 50.5,26.2 				"/>
			</g>
		</g>
	</g>
</g>
</svg>
