<svg id="Layer_1" data-name="Layer 1" xmlns="http://www.w3.org/2000/svg" viewBox="0 0 465.06 509.93"><defs><style>.cls-1{fill:#ec612e;}.cls-2{fill:#efede4;}.cls-3{fill:#d4d0bf;}.cls-4{fill:#999484;}.cls-5{fill:#e5e1cf;}.cls-6{fill:#a9a493;}.cls-7{fill:#1eabf1;}.cls-8{fill:#e2c51b;}.cls-9{fill:#1197cc;}.cls-10{fill:#c4a614;}.cls-11{fill:#dbf0f5;}.cls-12,.cls-31{fill:none;stroke-miterlimit:10;}.cls-12{stroke:#b986bc;}.cls-13{fill:#f9c79e;}.cls-14{fill:#754532;}.cls-15{fill:#f9f6fa;}.cls-16{fill:#11607f;}.cls-17{fill:#1598cd;}.cls-18{fill:#20ceac;}.cls-19{fill:#0faa8c;}.cls-20{fill:#edece3;}.cls-21{fill:#12aa8c;}.cls-22{fill:#1a3f3d;}.cls-23{fill:#3bb6f3;fill-rule:evenodd;}.cls-24{fill:#856836;}.cls-25{fill:#917439;}.cls-26{fill:#ccad6e;}.cls-27{fill:#a5a4a4;}.cls-28{fill:#898886;}.cls-29{fill:#67502b;}.cls-30{fill:#1e1e1e;}.cls-31{stroke:#20ceac;stroke-width:0.43px;}</style></defs><title>cosmic-surfing</title><path class="cls-1" d="M256.15,466.18s11.5,17.37,24.13,15c9.43-1.75,11.87-7.95,9.37-9.46-3.28-2-19.9,5.85-13.86-16.64Z" transform="translate(-8.46 -13.07)"/><path class="cls-2" d="M200.53,443.93S76.12,466.15,31.07,488.47c0,0-23.86,8.8-22.56,23.75,1.92,22.16,96.49,9.23,213.62-30.37s78.25-51.08,78.25-51.08S257.17,430.77,200.53,443.93Z" transform="translate(-8.46 -13.07)"/><path class="cls-3" d="M139,111.93" transform="translate(-8.46 -13.07)"/><path class="cls-3" d="M133.86,111.69s-9.32-2-8.58-19.85c0,0-22.06-18.06-27.93-24.07,0,0-13.59-1.36-19.21-6A82.55,82.55,0,0,0,64.91,53.3s-6.36-4.44-7.34-7.62-3.81-16.44-.39-13.5,6.28,5.25,13.25,5.95c5.34,0.53,23,6.65,29.5,14.08,0,0-2-.2,2.43.49,2.94,0.46,1.95.47,2.27,0.35,2.24-.85,10.17.35,12.59,3.22,1,1.14,2.71,1.2,3.87,1.7,14,6,25.57,20.9,27.81,23.84,2.8,3.67,16.5,30,14.54,34.39S143.52,121.3,133.86,111.69Z" transform="translate(-8.46 -13.07)"/><path class="cls-4" d="M148.79,82.95c-4.94,8.9-23.49,13.29-23.49,13.29-1-3.49-.5-4.78-0.5-4.78,13.31-1,21.28-13.15,21.28-13.15A5.24,5.24,0,0,1,148.79,82.95Z" transform="translate(-8.46 -13.07)"/><path class="cls-5" d="M140.45,88.75s-16.37,8.78-7.81,20.28,24.22,3.67,24.22,3.67,16,6.4,32.76,6.31a52.32,52.32,0,0,1,5.23-.13c4.28,0.45,7.91-1.36,8.94-3.86,0,0,3.38-5.12-2.17-13.33a3.66,3.66,0,0,1-1-2.94c-0.09-11-4.83-25.59-5.81-27.49-1.2-2.31-8.63-30.72-9.61-27.79s-8.32,20.3-6.85,22.26-0.51,7-.51,8.44-0.83,14.93,6,25a15.27,15.27,0,0,1-5.14-2.64C172.54,91.89,151.45,84.6,140.45,88.75Z" transform="translate(-8.46 -13.07)"/><path class="cls-6" d="M152.82,114.2c-8.23-6-11-25.91-11-25.91,3.25-1.87,5.28-.73,5.28-0.73-0.66,13.33,10.23,25.28,10.23,25.28C154.07,114.63,152.84,114.24,152.82,114.2Z" transform="translate(-8.46 -13.07)"/><path class="cls-7" d="M179.18,96.75c1.43,12.72,9.55,22.21,9.55,22.21a16.71,16.71,0,0,0,6.67,0c-7.26-7.75-11.5-19.81-11.5-19.81A7.2,7.2,0,0,0,179.18,96.75Z" transform="translate(-8.46 -13.07)"/><path class="cls-7" d="M183.69,98.65c7.5-1,19.11,5,19.11,5,1.13-3.15-3.14-5.64-3.14-5.64-7.57-4.88-17.78-2.31-17.78-2.31C181.54,97.09,183.72,98.67,183.69,98.65Z" transform="translate(-8.46 -13.07)"/><path class="cls-6" d="M175.13,62.88c-0.85-1.85-3-6-3.06-8-0.09-7,30-14.31,30.59-14.35s2.7,3.88,3.52,5.57c0.64,1.25.86,4.83-.91,5.81-1.46.83-9.17,5.45-11.27,8.66s1,9.12,1,9.12c-1.7,1.84-17.14,4.47-17.14,4.47C177.38,74.34,176,64.73,175.13,62.88Z" transform="translate(-8.46 -13.07)"/><path class="cls-5" d="M204.9,43.63s-2.48-2.62-8.71-.31c-3,1.12-24.07,11.56-24.07,11.56a10.81,10.81,0,0,1-1.2-5.67c0.15-2,7.92-4.67,16.16-7.9,4.95-1.92,11.62-5.3,13.43-3.52C204.71,42,204.9,43.63,204.9,43.63Z" transform="translate(-8.46 -13.07)"/><path class="cls-7" d="M176,65.92s18-5.74,17.59-4.56a7.93,7.93,0,0,0-.32,2.42L176.47,68.1Z" transform="translate(-8.46 -13.07)"/><path class="cls-8" d="M177.22,71.85s16.63-4.26,17-3.91a4.67,4.67,0,0,1,1.12,2.42s-17.56,4.48-17.63,4.21C177.48,73.55,177.22,71.85,177.22,71.85Z" transform="translate(-8.46 -13.07)"/><path class="cls-4" d="M54.64,48.82c-2-.51-6.56-1.47-8.12-2.67-5.46-4.33,7.88-32.31,8.21-32.78s4.71,0.36,6.54.8c1.37,0.29,4.28,2.39,3.93,4.37-0.28,1.66-1.58,10.55-.41,14.21s7.7,5,7.7,5c0.35,2.48-7.37,16.11-7.37,16.11C64.95,54.31,56.61,49.32,54.64,48.82Z" transform="translate(-8.46 -13.07)"/><path class="cls-5" d="M58.54,13.58s-3.6.26-5.74,6.55c-1,3-6.26,26-6.26,26a10.81,10.81,0,0,1-5.15-2.65c-1.47-1.4,1.38-9.09,4.09-17.52,1.64-5,3.24-12.36,5.76-12.63C57.13,12.67,58.54,13.58,58.54,13.58Z" transform="translate(-8.46 -13.07)"/><path class="cls-9" d="M57.57,50s6.93-17.57,7.59-16.51a7.93,7.93,0,0,0,1.68,1.78l-7.3,15.78Z" transform="translate(-8.46 -13.07)"/><path class="cls-10" d="M62.92,52.87s7.21-15.58,7.74-15.67a4.67,4.67,0,0,1,2.59.66S65.62,54.3,65.37,54.19C64.4,53.73,62.92,52.87,62.92,52.87Z" transform="translate(-8.46 -13.07)"/><path class="cls-9" d="M116.91,56C110.09,57,99.36,69.91,99.36,69.91c0.45,1.82,3.18,2.7,3.18,2.7,16.73-15.19,19.78-14.08,19.78-14.08S118.56,55.71,116.91,56Z" transform="translate(-8.46 -13.07)"/><path class="cls-9" d="M98.42,68.84c-0.93-7.5,6.2-15.78,6.2-15.78a10.77,10.77,0,0,0-5.08-.8,31.54,31.54,0,0,0-5,15.07A8.16,8.16,0,0,0,98.42,68.84Z" transform="translate(-8.46 -13.07)"/><path class="cls-8" d="M132.32,115.18c-4.17-2.19-13.95-1.19-19-.77s-12.1,42.39-11.73,43.73c0.24,0.83,4.69,5.26,5.86,5.48,1.66,0.31,13.08-1.15,13.08-1.15S136.55,117.37,132.32,115.18Z" transform="translate(-8.46 -13.07)"/><path class="cls-11" d="M120.13,182.29L141,170.37s6.05,0.87,7.16,6.54a28.92,28.92,0,0,1-.48,12.47,31.79,31.79,0,0,1-6.82,13.38c-5.29,6-8.82-1.41-10-2.44Z" transform="translate(-8.46 -13.07)"/><path class="cls-5" d="M133.85,111.57l29.57,4.63c-1,7.52-2,13.88-2.86,17.44l-6.81,24.62c-2,3.52-9.53,10-9.53,10s7.16,7,3.08,6.13c-6.51-1.39-26.89,7.34-26.89,7.34l17.34,23.93a19.28,19.28,0,0,1-17.38,3.89c-12-3.12-18.24-14.5-15.46-24.46,2.89-10.6,15-19.86,15-21a26.54,26.54,0,0,0-.93-4.43c-3.75-7.79-1.43-14.06-.4-20S129.83,119,131.32,117a17.13,17.13,0,0,0,2.59-5.41" transform="translate(-8.46 -13.07)"/><path class="cls-6" d="M164,114.28" transform="translate(-8.46 -13.07)"/><path class="cls-7" d="M120.83,135.52c19.65-24.9,31.14-17.73,31.14-17.73l7.12,0.95c-15.78,47.88-25.2,45.85-25.2,45.85l-14.08-1.3S111.79,146.87,120.83,135.52Z" transform="translate(-8.46 -13.07)"/><path class="cls-7" d="M133.85,111.57c6,0.42,29.24,7.12,29.24,7.12,0.8,4.84-1.52,10.6-1.52,10.6-11-8.54-31.52-10.51-31.52-10.51C132,115.45,133.94,111.54,133.85,111.57Z" transform="translate(-8.46 -13.07)"/><path class="cls-5" d="M151.23,116.87c1.07,0.47.24,2.14-1,1.5A0.91,0.91,0,0,1,151.23,116.87Z" transform="translate(-8.46 -13.07)"/><path class="cls-5" d="M155.4,118.21c1.13,0.53.25,2.26-1.1,1.6a1,1,0,0,1,1.1-1.6" transform="translate(-8.46 -13.07)"/><path class="cls-5" d="M160,119.61c1.48,0.65.33,3-1.43,2-0.85-.4-0.55-3,1.43-2" transform="translate(-8.46 -13.07)"/><path class="cls-5" d="M110.89,150.91c2.77,0.08,2.76,4.15-.68,4.06C107.44,154.9,108.12,150.84,110.89,150.91Z" transform="translate(-8.46 -13.07)"/><path class="cls-5" d="M111.8,143.25c3.07,0.05,1.91,4.54-.8,4.53S108.76,143.22,111.8,143.25Z" transform="translate(-8.46 -13.07)"/><path class="cls-7" d="M114.32,140.15c0.38-.18,2.48-15.44,2.42-16.68,0-.48-1.4-0.48-1.94-0.32s-2.8,16.46-2.8,16.46C111.92,140.17,113.87,140.27,114.32,140.15Z" transform="translate(-8.46 -13.07)"/><path class="cls-12" d="M146.58,148.75" transform="translate(-8.46 -13.07)"/><path class="cls-7" d="M159.11,140.42c0.06,0.85-17.65,26-17.65,26l5.35,0.83s11.89-10.52,12.76-15.78a18.61,18.61,0,0,0-.13-7.38l3.77-22-2.11-.12Z" transform="translate(-8.46 -13.07)"/><path class="cls-13" d="M142.37,176.66c1.62,3.56-1.09,6.89-1.06,6.92a5.69,5.69,0,0,1,2.07,1.8,12.2,12.2,0,0,0-3,7.88c-0.24,3-4.33,6.57-4.33,6.57s-7.32-5.43-9.2-9.22,4.91-12.54,4.91-12.54c2.56-2.49,10.63-1.4,10.63-1.4" transform="translate(-8.46 -13.07)"/><path class="cls-9" d="M123,183.61l6,8.36c-3.15-4.94,4-14.15,4-14.15l-9.37,3.28Z" transform="translate(-8.46 -13.07)"/><path class="cls-5" d="M137.38,162.91s8.65-4.88,10.16-22.8c0.24-2.63,12.22-5.68,12.22-5.68s-4.45,3.85-2.26,8.13A13.16,13.16,0,0,1,158,152c-1.47,3.6-4.28,6.05-6.48,8.4a35,35,0,0,1-8.4,6.68Z" transform="translate(-8.46 -13.07)"/><path class="cls-4" d="M154.83,125.89c3-.15,5.68,2.62,5.68,2.62,0.64,6.85-1.87,14.7-2.44,15.56a4.21,4.21,0,0,0-1.37-1.24,49.32,49.32,0,0,0-9.16-2.72S151.21,126.08,154.83,125.89Z" transform="translate(-8.46 -13.07)"/><g id="eye"><path class="cls-14" d="M133.48,191.7a10.41,10.41,0,0,1-1.51-2.78s1.78,1.94,2.28,2.54,2.13,0.94,2.77,1.38a1.11,1.11,0,0,1,.47,1.09A9.91,9.91,0,0,1,133.48,191.7Z" transform="translate(-8.46 -13.07)"/><path class="cls-15" d="M134.78,188.63a12.52,12.52,0,0,0,2.47-.75s0.06,2.55-.21,2.14A3.86,3.86,0,0,0,134.78,188.63Z" transform="translate(-8.46 -13.07)"/><path class="cls-16" d="M136.16,188.35a8,8,0,0,1-.89.25c-0.27,0-.46-0.06-0.82,0l-0.05-.33a1.82,1.82,0,0,1,.62.2c0.16,0.08.14,0.23,0.33,0.34a6.56,6.56,0,0,1,1.14.59,5.23,5.23,0,0,1,.88.76l0.79,0.86c-0.67-.41-1.28-0.88-1.92-1.32-0.35-.19-0.73-0.46-1-0.57s-0.28-.13-0.47-0.24l-0.17-.26-0.29-.19-1.16,0,1.18-.11c0.3,0,.57-0.07.9-0.13l0.93-.16,0.93-.16,0.93-.16A14.26,14.26,0,0,1,136.16,188.35Z" transform="translate(-8.46 -13.07)"/><path class="cls-16" d="M134.84,188.56l-0.31.36a1.68,1.68,0,0,0-.27,0,1.77,1.77,0,0,0-.6.16,1.9,1.9,0,0,0-.52.4,1,1,0,0,0-.16.25,1.07,1.07,0,0,1,.1-0.31,2.3,2.3,0,0,1,.51-0.58,3.25,3.25,0,0,1,.64-0.35,1.07,1.07,0,0,1,.29-0.14Z" transform="translate(-8.46 -13.07)"/><path class="cls-16" d="M134.48,188.71a0.15,0.15,0,0,1-.09,0,0.47,0.47,0,0,0-.19-0.11,1.42,1.42,0,0,0-.73-0.07,1.22,1.22,0,0,0-.7.35,0.74,0.74,0,0,0-.19.35l0-.09c-0.06-.06,0-0.15.07-0.28a1.47,1.47,0,0,1,.75-0.54,1.59,1.59,0,0,1,.9-0.13,1.43,1.43,0,0,0,.28.07,0.13,0.13,0,0,1,.09,0Z" transform="translate(-8.46 -13.07)"/><path class="cls-16" d="M135,188.95a1.91,1.91,0,0,0-.39.12,1.1,1.1,0,0,0-.56.31,2.07,2.07,0,0,0-.48.55c-0.08.16-.13,0.28-0.13,0.28a1.07,1.07,0,0,1,.1-0.31,2.48,2.48,0,0,1,.38-0.64,3.62,3.62,0,0,1,.6-0.56,0.86,0.86,0,0,1,.23-0.14h0.06a0.33,0.33,0,0,1,.15,0h0Z" transform="translate(-8.46 -13.07)"/><path class="cls-16" d="M137.5,188c1.29,0.15.62,2.36-.31,2.06A1,1,0,0,1,137.5,188Z" transform="translate(-8.46 -13.07)"/></g><path class="cls-9" d="M138.91,179.21a7.06,7.06,0,0,1,4.07-.44,1.32,1.32,0,0,1-.23,1.51c0.45,0.39-.12.92-0.31,1.15s-2-.92-3.5-0.93a20.49,20.49,0,0,0-3,.67C136.32,180.37,136.93,180.05,138.91,179.21Z" transform="translate(-8.46 -13.07)"/><path class="cls-7" d="M123.5,179.25c9.08-6.09,25.74-7.37,25.74-7.37,2.07,3,.44,4.86.44,4.86-7.64-1.85-25.47,4.32-25.47,4.32Z" transform="translate(-8.46 -13.07)"/><path class="cls-7" d="M123.15,182.07c3.61,9.2,17.84,21.64,17.84,21.64-1.34,3.83-5.72,5.43-5.72,5.43C132,206.31,121.16,184,121.16,184l2-1.91" transform="translate(-8.46 -13.07)"/><path class="cls-4" d="M119,180.61c-3.73.91-15.13,6.46-15.13,6.46-0.91.46-.1,4.57-0.1,4.57,2.44-3.21,15-9.52,15-9.52Z" transform="translate(-8.46 -13.07)"/><path class="cls-7" d="M122.12,176.13c5.89-.06,4,10.23-2.34,8.86C116.29,184.24,116.23,176.19,122.12,176.13Z" transform="translate(-8.46 -13.07)"/><path class="cls-8" d="M121.94,179.09c2.65,0.08,1.31,3.4-.91,3C119.83,181.92,119.23,179,121.94,179.09Z" transform="translate(-8.46 -13.07)"/><path class="cls-7" d="M119,165.2C136.72,166,145.91,170,145.91,170c2,0,2.37-2.6,2.37-2.6-9.24-3.35-28.47-4.13-28.47-4.13C119,163,118.48,165.2,119,165.2Z" transform="translate(-8.46 -13.07)"/><g id="caito_arm" data-name="caito arm"><path class="cls-2" d="M161.6,214.27s-0.62,6.19-.81,6.92c0,0-.94,1.42-2.62.16-0.21-.32-0.85-3.72-0.09-10.23,0,0-1.36,1.71-2.56,1.57-0.74-.08-1-2.6-0.92-3,0.08-.75,1.67-1,1.75-2.72,0.05-1.21,1.39-13.5.3-24.17-0.42-4.25,1-9.07.37-10.62-0.55-1.36-.36-3.08-1-3.42a12.46,12.46,0,0,1-2.95-1.84c-1-1-2.49-2.47-2.49-2.47s-6.46-3.13-7.55-5.53c0,0-9.41-6-10.56-9.24-0.64-1.8-3.14-5.37,1-9.82s9.95-4.22,12-3,15.1,9.87,15.52,15.41c0,0,8.33,2.81,9.37,10.63,0,0,3.85,7.66,2.28,13.83a107.24,107.24,0,0,1-.24,12.38c-0.51,4.06-1.52,5.9-2.06,7.87s-0.14,7.29-.14,7.29,1.69,11.78-1.5,11.35c-1.22.09-.87-3.05-0.9-3.26s0.57,4.4-1.3,4.44c-0.84,0-1.78.25-1.74-1.77,0,0,.44,2.26-2.35,1.92C161.36,216.77,161.6,214.27,161.6,214.27Z" transform="translate(-8.46 -13.07)"/><path class="cls-8" d="M173.26,169.85c-5.79,6.62-16.45,3.4-16.45,3.4-1.34-1.12-.59-4.3-0.59-4.3,7.81,1.48,16-2.79,16-2.79A3.77,3.77,0,0,1,173.26,169.85Z" transform="translate(-8.46 -13.07)"/><path class="cls-7" d="M173.26,169.85c-5.58,6-16.45,3.4-16.45,3.4-1.14,1,0,3.92,0,3.92,11.32,3.89,16.1-1.77,16.1-1.77A10.68,10.68,0,0,0,173.26,169.85Z" transform="translate(-8.46 -13.07)"/><path class="cls-7" d="M156.76,201.57c12.53,4.19,13.59-2,13.59-2l1.4-6.88c-5.67,3.65-14.5.38-14.5,0.38C156.1,195.84,156.72,201.54,156.76,201.57Z" transform="translate(-8.46 -13.07)"/><path class="cls-8" d="M149,152.85c-4.85,4.48-12.69-2.8-7.89-7.61S155.1,147.23,149,152.85Z" transform="translate(-8.46 -13.07)"/><polygon class="cls-17" points="136.89 140.18 138.23 138.72 137.1 136.39 139.52 137.34 141 135.72 140.69 135.64 135.03 134.22 134.36 132.54 133.99 132.68 134.52 134.07 133.44 133.79 133.36 134.19 134.69 134.56 136.53 139.09 136.89 140.18"/></g><path class="cls-5" d="M146.42,117.18a0.91,0.91,0,0,1,1-1.5c1,0.44.21,2.11-1,1.5" transform="translate(-8.46 -13.07)"/><path class="cls-3" d="M156,368.5s11.38,28,9.37,43.71c-0.34,2.66,2.22,4,3.43,4.84,0.67,0.48,1.37,1.3,2.21,2,7.93,6.48,17.36,24.9,17.86,27.37S190,471.19,190,471.19s-16.65-19.13-17.15-20-14-14.4-15.62-23.59a28,28,0,0,1-8.76-9.83c-1.62-3-6.75-8.66-10.85-27.1-3.53-15.88-11.48-31-11.48-31Z" transform="translate(-8.46 -13.07)"/><path class="cls-4" d="M157.21,371.66s-18.09,18.74-21.62,15.46l2.26,5.25s20.2-2.36,21.27-15.31A6.94,6.94,0,0,0,157.21,371.66Z" transform="translate(-8.46 -13.07)"/><path class="cls-5" d="M155.74,355.21s7.57,12.51,1.48,22.37c-1.43,2.32-5.86,8.79-11.43,10.29-1.94.52-5.66-.44-6.28,1.29-3.93,10.93-9.32,16.6-12.2,22.3a58,58,0,0,1-2.89,6.3c-1.91,3.37-1.88,6.21-.68,8.15a49,49,0,0,1,6.54,17.21c1.76,8.72-.16,14.48.14,15.58,1.63,6-7.77,22.4-7.77,22.4S116,466.79,114.86,464s-7.43-21.41-7.76-25.3-0.83-13.08-.83-13.08a12.15,12.15,0,0,1-3.31-8.49c0.17-5.13,3.14-6.72,3.14-6.72s1.84-1.26,1.47-5c-0.53-5.3,3.88-23.81,7-29.32,4.47-8,6-19.09,8.44-20.86S155.74,355.21,155.74,355.21Z" transform="translate(-8.46 -13.07)"/><path class="cls-6" d="M145.78,387.87s-24.12-18.94-23.37-32.08c0,0-5.34,6.16-4,11,0,0,12,19,21.08,23.91C139.5,390.66,144.92,390.86,145.78,387.87Z" transform="translate(-8.46 -13.07)"/><path class="cls-18" d="M107.57,405.39s2.84,7.28,16.84,12.37a2,2,0,0,1-1,2.75S112,421,106.11,410.37C106.11,410.33,105.39,409.09,107.57,405.39Z" transform="translate(-8.46 -13.07)"/><path class="cls-18" d="M123.73,425.91s-8.07,4.9-17.18,4.65c0,0-1.3-2.48-.24-4.23,0,0,10.08-.06,16.6-4.1A4.53,4.53,0,0,1,123.73,425.91Z" transform="translate(-8.46 -13.07)"/><path class="cls-6" d="M131.43,458.46s-17.41,1.69-18.78,3.91c0,0,3.25,7.58.79,10.88s-11,7.72-12.7,8.52c-2,1-2,4.75-1.41,6.18,0.76,1.88,2.78,6.23,3.38,6.24s33.41-5.81,33.82-13.28c0.13-2.13-1.92-6.76-2.75-8.81S132,458.36,131.43,458.46Z" transform="translate(-8.46 -13.07)"/><path class="cls-5" d="M104.86,497.3c1.81,2,9.21-1.1,14.65-2.86,9.07-2.92,17.59-5.18,17.92-7.36a11.66,11.66,0,0,0-.89-6.2s-23.34,9.74-26.61,10.71c-6.86,2.06-9.3-.93-9.3-0.93S100.61,492.51,104.86,497.3Z" transform="translate(-8.46 -13.07)"/><path class="cls-8" d="M132,461.16l-18.43,3.73a27.72,27.72,0,0,1-1.09-2.76c-0.37-1.26,19.11-4.14,19.11-4.14Z" transform="translate(-8.46 -13.07)"/><path class="cls-18" d="M132.85,467c0.06,0.3-18.79,4.74-18.79,4.74a8.11,8.11,0,0,0,.19-3.3c0-.25,18.18-4.48,18.18-4.48S132.61,465.89,132.85,467Z" transform="translate(-8.46 -13.07)"/><path class="cls-4" d="M189.39,445.08s-17.15,3.44-18.29,5.79c0,0,4,7.21,1.89,10.75s-10.19,8.8-11.77,9.76c-1.86,1.15-1.49,4.92-.78,6.3,0.95,1.8,3.4,5.92,4,5.87s32.65-9.16,32.3-16.64c-0.09-2.13-2.59-6.53-3.62-8.49S189.93,444.93,189.39,445.08Z" transform="translate(-8.46 -13.07)"/><path class="cls-5" d="M166.89,486.42c2,1.84,9-2,14.28-4.33,8.72-3.82,17-6.94,17.08-9.14a11.66,11.66,0,0,0-1.52-6.08s-22.23,12-25.39,13.35c-6.62,2.74-9.35,0-9.35,0S162.18,482.08,166.89,486.42Z" transform="translate(-8.46 -13.07)"/><path class="cls-10" d="M190.27,447.71l-18,5.57a27.72,27.72,0,0,1-1.37-2.64c-0.49-1.22,18.59-6.06,18.59-6.06Z" transform="translate(-8.46 -13.07)"/><path class="cls-19" d="M191.67,453.44c0.09,0.3-18.22,6.61-18.22,6.61a8.11,8.11,0,0,0-.14-3.31c-0.06-.24,17.63-6.3,17.63-6.3S191.32,452.35,191.67,453.44Z" transform="translate(-8.46 -13.07)"/><path class="cls-19" d="M144.88,411.8s6.62,2.51,20.49.41a3.52,3.52,0,0,1,1.76,3.66s-13.92,3.92-19.71.87C147.42,416.75,144.81,414.59,144.88,411.8Z" transform="translate(-8.46 -13.07)"/><path class="cls-19" d="M170.58,418.67s-6,8.55-13.19,9.75c0,0-4.48-2-3.43-3.76a46.91,46.91,0,0,0,13.66-8.42S170.64,417.17,170.58,418.67Z" transform="translate(-8.46 -13.07)"/><path class="cls-5" d="M141,237.54s3.39-12.61,6.41-10.79c1.27,0.44-.44,3.45-0.51,3.68-0.06.4,1.32-4.69,3.22-3.91,0.86,0.35,1.9.52,1,2.54,0,0,.53-2.47,3.19-0.92,1,0.61-.27,3-0.27,3s3.3-6,3.81-6.62c0,0,1.56-1,2.72,1,0.08,0.41-.75,4.12-4.33,10.35,0,0,2.11-1.14,3.26-.47,0.72,0.4-.15,3-0.37,3.42-0.41.72-2.13,0.32-2.94,2,0,0-3,9-5.8,10.55s-12.5-4-12.5-4Z" transform="translate(-8.46 -13.07)"/><path class="cls-20" d="M83.53,315a46.31,46.31,0,0,0-4-4.84c-1.17-.95-6.95-4.78-5.7-6.29s6.24,2.38,6.37,2.54-2-2.62-.51-3.63c0.66-.46,2.1-1.46,2.84.38,0,0-1.49-1.47.85-2.76,1.82-1,2.89,1.41,2.89,1.41s-1.89-1.88.71-3.09,3.62,4.19,3.87,4.51c0.57,0.7,1-2.06,1.58-3.46,0.9-2.27,2.41-4.36,3.77-3.71,2.16,1-.62,6.85-0.62,8.23,0,0,2.09,6.91,2.74,10C99,317,92.3,322.9,92.3,322.9S86.44,319.29,83.53,315Z" transform="translate(-8.46 -13.07)"/><path class="cls-5" d="M138.84,244.13s-2.25,4.91-3.69,6.4-3.21,2.62-5.64,6a111.22,111.22,0,0,0-6.23,10.84c-4.43,4.69-4.7,13.38-4.7,13.38-2.89,7.47,1.21,14.88,1.21,14.88-2.32,5.11,4.86,18.9,6.1,20.9s8.37,4.61,14.22,2.68,5.34-6.29,5.67-8.23c0.53-3.45-4.88-13.38-4.88-13.38,0.21-2.68-4-8.63-4-8.63s-0.57-2.08-1-3.44a13.51,13.51,0,0,0-1.72-3.07c-0.39-.61.63-2,0.8-3.52,0.21-1.66,5.05-4.27,6.72-8.25,4.22-10,10.21-21.3,10.83-22.31C153.41,246.89,138.84,244.13,138.84,244.13Z" transform="translate(-8.46 -13.07)"/><path class="cls-5" d="M161.85,236.87" transform="translate(-8.46 -13.07)"/><path class="cls-8" d="M118.57,276.9s9.3,0.19,15.51,5.32c0,0,2.2-2.44,1.58-4.13,0,0-7.9-8.08-16.26-5A3.79,3.79,0,0,0,118.57,276.9Z" transform="translate(-8.46 -13.07)"/><path class="cls-18" d="M121.28,268.83S130.33,266,138.5,275c0,0-1.31,2.73-2.81,3.08,0,0-8.4-7.6-16.26-5C119.43,273.09,118.94,271.06,121.28,268.83Z" transform="translate(-8.46 -13.07)"/><path class="cls-18" d="M148.27,256.57s-6-6.89-12.82-6.38l2.91-6.41s5.25-4.45,14.36,5.45C152.7,249.19,150.61,254.66,148.27,256.57Z" transform="translate(-8.46 -13.07)"/><path class="cls-8" d="M135.31,312.12c-6.72,3.66-12.11-7.1-5.73-10.89,8-4.78,12.43,7.2,5.73,10.89" transform="translate(-8.46 -13.07)"/><polygon class="cls-21" points="121.29 292.79 125.1 295.79 125.08 297.18 125.51 297.21 125.56 296.11 126.72 297.04 126.95 296.69 125.58 295.58 125.74 289.72 125.74 289.41 123.79 290.41 124.01 292.98 122.12 291.23 120.35 292.12 121.29 292.79"/><path class="cls-3" d="M151.18,355s2.78-14.12,4.53-18.42,5.92-15.75,5.11-19.76-7.15-14.34-6.75-17,7.8-13.69,6.94-16.82,1.12-15.78-2.59-17.46-16-6.07-18.8-1.89-7.26,15.74-5.25,20.89,4.16,14.27,3.06,16.36-3.6,2-4.86,4.27-2.32,9.88-2.88,10.32a11.26,11.26,0,0,0-3.66,3.43c-2.09,2.79-.74,13.13.36,14.94L151.18,355" transform="translate(-8.46 -13.07)"/><path class="cls-8" d="M158.3,300.91s11-4,12.66-4c1.17,0,6.58,3.33,7,4.12,0.66,1.25,2.92,44.31-1.94,45.84s-14.29,4.68-18.95,3.43S158.3,300.91,158.3,300.91Z" transform="translate(-8.46 -13.07)"/><path class="cls-11" d="M139.78,265.75c-1.4-.76-6.54-7.3-10.47-0.21a32.17,32.17,0,0,0-3.78,14.76,29,29,0,0,0,2.29,12.46c2.35,5.32,8.53,4.9,8.53,4.9l18-16.43Z" transform="translate(-8.46 -13.07)"/><path class="cls-5" d="M121.84,338.24l3.3-25.39c-0.45-2.05,1.2-5.69,3.42-8.46a34.58,34.58,0,0,1,5-3.92s-8.6-5.32-4.38-5.39c6.73-.1,25-13.19,25-13.19L131.71,262A19.56,19.56,0,0,1,148,254.37h0c12.56,0.45,21.23,10.28,20.73,20.84-0.54,11.12-10.44,23-10.16,24.13a30.68,30.68,0,0,0,1.91,4.19c5.41,6.88,4.51,13.58,4.82,19.7s-6.53,22.75-7.58,25.1a16.26,16.26,0,0,0-1.36,5.9l-32.31,1.68Z" transform="translate(-8.46 -13.07)"/><path class="cls-4" d="M137.3,325.55s-9.05,0-13.59-4.39c0,0-2.34,10-1.85,15,0,0,7.32,1.5,10.83.25S137.3,325.55,137.3,325.55Z" transform="translate(-8.46 -13.07)"/><path class="cls-18" d="M158.88,300L142.78,302s-15,11-12.89,50.67l7.23-.61S150,356.67,164,327.69C170.41,314.4,158.88,300,158.88,300Z" transform="translate(-8.46 -13.07)"/><path class="cls-18" d="M122.41,355.79s34.86,2.68,34.19,0c-0.54-2.12.61-6.1,0.61-6.1s-22.48,4.61-35.32-1.36a48.52,48.52,0,0,0,.52,7.42" transform="translate(-8.46 -13.07)"/><path class="cls-5" d="M138.27,353.34c-1.38-.31-1.85,1.47-0.68,1.72A0.93,0.93,0,0,0,138.27,353.34Z" transform="translate(-8.46 -13.07)"/><path class="cls-5" d="M133.2,354.62a1,1,0,0,0,.74-1.84c-1.47-.31-1.95,1.56-0.74,1.84" transform="translate(-8.46 -13.07)"/><path class="cls-5" d="M128.29,354.25c2.16,0.47,1.91-2.16,1-2.35-1.93-.45-2.52,2-1,2.35" transform="translate(-8.46 -13.07)"/><path class="cls-5" d="M123.81,353.32c2,0.47,1.66-1.76.78-2-1.76-.41-2.23,1.66-0.78,2" transform="translate(-8.46 -13.07)"/><path class="cls-5" d="M170.22,306c-3.42.67-2.54,4.72,0.23,4.2S172.95,305.49,170.22,306Z" transform="translate(-8.46 -13.07)"/><path class="cls-5" d="M171,313.34c-2.69.56-2.87,5.28,0.2,4.62S173.68,312.78,171,313.34Z" transform="translate(-8.46 -13.07)"/><path class="cls-18" d="M171.83,321.65s1.39,16.61.9,16.9-1.86.55-2,.1c-0.34-1.23-1.65-16.75-1.27-17S171.77,321.1,171.83,321.65Z" transform="translate(-8.46 -13.07)"/><path class="cls-12" d="M135.59,320.21" transform="translate(-8.46 -13.07)"/><path class="cls-18" d="M125,350l-3.08-.65s-3.85-35.17,7.93-47.23l3.53,0.25s-9.5,7.64-8.74,28.16Z" transform="translate(-8.46 -13.07)"/><path class="cls-13" d="M131.76,293.8s10.1-3.05,12.21-6.17c0,0,5-10.69,1.82-14.41s-12.15-7.79-12.15-7.79-2.21,4.65-1.63,7.87-3.88,8.51-3.39,9.63c0.28,0.67,1.61.24,3.22,0.67,0,0,.34,1.23-0.71,3.58-0.54,1.26-.78,5.23.87,5.2" transform="translate(-8.46 -13.07)"/><path class="cls-19" d="M151.21,283.13l-8.54,5.28s5-10.69.81-14.88l7.73,6.95v2.65Z" transform="translate(-8.46 -13.07)"/><g id="eye-2" data-name="eye"><path class="cls-14" d="M133.81,272.87a1.22,1.22,0,0,0,.49,1c0.65,0.43,2.3.2,2.74,0.48s3.55,2.57,3.55,2.57a5.28,5.28,0,0,0-2.78-3.14C136.56,273.15,134,272.58,133.81,272.87Z" transform="translate(-8.46 -13.07)"/><path class="cls-15" d="M136,276.37c-0.38-.19,0,2.07,0,2.07a5.92,5.92,0,0,1,2.42-.7S136.82,276.8,136,276.37Z" transform="translate(-8.46 -13.07)"/><path class="cls-22" d="M135,279a8.5,8.5,0,0,1,.81-0.55,4.94,4.94,0,0,1,.87-0.38c0.29-.09.61-0.17,0.94-0.24a9.42,9.42,0,0,0,1-.19v0.1c-0.38-.19-0.75-0.33-1.13-0.52a10.54,10.54,0,0,1-1-.62,11.56,11.56,0,0,1-1-.7l-1-.77,0,0a12,12,0,0,1,1.09.6,11.3,11.3,0,0,1,1,.62l1,0.66a11.41,11.41,0,0,0,1,.66l0.15,0.08-0.15,0a4.94,4.94,0,0,0-.92.21,8.59,8.59,0,0,0-.85.34c-0.29.09-.6,0.23-0.88,0.32a3.28,3.28,0,0,1-1,.42h0Z" transform="translate(-8.46 -13.07)"/><path class="cls-22" d="M135.2,276.12c-1.09.07-.86,2.74,0.75,2.31C137.39,278,136.94,276,135.2,276.12Z" transform="translate(-8.46 -13.07)"/></g><path class="cls-19" d="M136.63,287a20.4,20.4,0,0,1-2.3.18c-1-.06-2-0.82-2.76-1-0.31-.06-1,1.2-0.53,1.51a0.69,0.69,0,0,0,.11,1.11c0.82,0.46,2.86.05,3.68-.54C136.63,287,136.38,287.34,136.63,287Z" transform="translate(-8.46 -13.07)"/><path class="cls-18" d="M150.59,283.3s-16.24,10-24.26,9.92c0,0-1.24,2.16,1.51,4.71,0,0,16.17-5,23.83-13Z" transform="translate(-8.46 -13.07)"/><path class="cls-4" d="M168.41,268.34s1.74,3.86.91,4.55c0,0-10.07,8-13.55,9.76l-0.09-1.53s11-9,12.73-12.78" transform="translate(-8.46 -13.07)"/><path class="cls-18" d="M151.39,282.11l1.57-2.33s-15.67-19.72-19.5-21.76c0,0-4,2.55-4.45,6.59,0,0,16.84,9.16,22.38,17.5" transform="translate(-8.46 -13.07)"/><path class="cls-18" d="M154.11,278.45c-6.54,0-6.19,10.61-.34,9.3S157.72,278.45,154.11,278.45Z" transform="translate(-8.46 -13.07)"/><path class="cls-8" d="M153.48,281.59c-2.26.1-2.88,3.69-.23,3.2A1.61,1.61,0,0,0,153.48,281.59Z" transform="translate(-8.46 -13.07)"/><path class="cls-18" d="M158.88,300s-19.18,3.5-29.08,2.18c0,0-.23-2.67,1.76-3.1,0,0,9.94,1.91,27.72-1.19C159.76,297.75,159.77,300,158.88,300Z" transform="translate(-8.46 -13.07)"/><path class="cls-14" d="M133.5,284.78c-0.34-.27-1.53-1.06-1.86-0.41a2.37,2.37,0,0,0-.26,1.36s4.53,2.25,6.42.61C137.83,286.3,134.89,285.82,133.5,284.78Z" transform="translate(-8.46 -13.07)"/><path class="cls-23" d="M337.43,388.32a76.67,76.67,0,0,0,12-20.46,79.69,79.69,0,0,0,3.24-10.35c0.38-1.68.81-3.29,1-4.9s0.45-3.14.62-4.63l0.22-2.19c0-.72.06-1.42,0.07-2.1,0-1.37,0-2.67,0-3.9a28.37,28.37,0,0,0-.9-6.41c-0.94-3.6-2.39-5.75-4.31-6.06s-4.06,1.22-6.19,4.05a58.27,58.27,0,0,0-3.28,5.14q-0.85,1.49-1.68,3.17l-0.83,1.72-0.9,1.77q-0.89,1.81-1.74,3.78c-0.54,1.32-1.23,2.62-1.82,4-1.15,2.77-2.49,5.59-3.7,8.58-2.59,5.88-5.27,12.08-8.11,18.3A105.18,105.18,0,0,1,312.07,394a80.2,80.2,0,0,1-10,12,67.15,67.15,0,0,1-12.78,9.88,62.46,62.46,0,0,1-8.42,4.25,51.86,51.86,0,0,1-10.47,3.21,65.13,65.13,0,0,0,11-1.43,91.28,91.28,0,0,0,9.45-2.49,102.87,102.87,0,0,0,16.05-6.57,94.22,94.22,0,0,0,14.87-9.39A98,98,0,0,0,337.43,388.32Z" transform="translate(-8.46 -13.07)"/><path class="cls-23" d="M409,367.25a110.51,110.51,0,0,0,11.37-23.7c0.65-2,1.32-4,1.84-5.92s1-3.89,1.43-5.77,0.71-3.75,1-5.54,0.54-3.54.66-5.23a64.54,64.54,0,0,0,.29-9.26,37,37,0,0,0-.87-7.24c-1-4.06-2.43-6.44-4.35-6.7-3.93-.52-8.26,7.39-13,18.83s-10.28,26.51-15.72,42c-2.8,8-5.53,14.63-8.21,20.63s-5.38,11.31-8.32,16.56a156.32,156.32,0,0,1-10.23,15.9,127,127,0,0,1-15.51,17.64,214.23,214.23,0,0,0,18.38-15c5.16-4.67,9.67-9,14.05-13.44s8.65-9,13.09-14.39A191.9,191.9,0,0,0,409,367.25Z" transform="translate(-8.46 -13.07)"/><path class="cls-23" d="M395.87,444.39a47,47,0,0,0,6.43-4.71,45.43,45.43,0,0,0,5.49-5.48c0.82-1,1.64-1.89,2.36-2.89s1.38-2,2-3,1.2-2,1.74-3a26.8,26.8,0,0,0,1.35-3,37.55,37.55,0,0,0,1.76-5.52,20.74,20.74,0,0,0,.3-4.8c-0.19-2.81-1.17-4.75-2.9-5.65s-4-.68-6.37.3a20.47,20.47,0,0,0-3.69,2,33.11,33.11,0,0,0-4.11,2.86,95.35,95.35,0,0,0-17.43,18.54c-1.46,2-2.77,3.9-4.12,5.6s-2.51,3.39-3.74,4.9-2.36,3-3.52,4.41l-3.49,4.11a105.28,105.28,0,0,1-18.54,16.77l23.43-9.95,5.15-2.23c1.75-.77,3.51-1.62,5.4-2.5s3.8-1.91,5.89-3S393.52,445.83,395.87,444.39Z" transform="translate(-8.46 -13.07)"/><path class="cls-23" d="M428.68,466.28a107,107,0,0,0,22.69-16A84.48,84.48,0,0,0,467,431.15l1.32-2.35,0.62-1.14,0.54-1.17c0.7-1.54,1.32-3,1.87-4.41a43.1,43.1,0,0,0,2-7.61c0.46-4.5-.21-7.28-2-8.07s-4.43.46-7.44,3a62.79,62.79,0,0,0-5.24,4.56q-1.48,1.3-3,2.8l-0.77.76-0.83.75-1.68,1.56c-4.54,4.27-9.82,9.13-15.69,14.26s-12.3,10.55-18.84,16.11c-6.75,5.73-12.78,10.33-18.37,14.41s-10.82,7.56-16.19,10.92-10.92,6.55-17.32,9.8a206.83,206.83,0,0,1-22.61,9.88c9.29-2.14,17-4.32,24-6.27s13.22-3.82,19.42-5.78,12.35-4,19.13-6.61A216.4,216.4,0,0,0,428.68,466.28Z" transform="translate(-8.46 -13.07)"/><path class="cls-24" d="M195.33,403.71a16.08,16.08,0,0,1,12.56,8.9,33.93,33.93,0,0,1,3.59,16s2.94,14.43,1,18,2.58,19.87-14.46,26.84c-16.84,6.89-21.68,7.76-30.6-.56,0,0-3.25-4.72,0-9.27,0,0,1.78-1.61,2.42-.72s0.2,2.7,2.17,3.23c0,0,2.5-1.53,3.46-.23,0,0,6-10,10.11-10.92,0,0,2.87-10.41,1.64-16.43s-4.66-10.59-4-14.33S195.33,403.71,195.33,403.71Z" transform="translate(-8.46 -13.07)"/><path class="cls-4" d="M176.09,393.89c-15.81,9.46.1,35.37,15.68,25.27C207.55,408.94,193,383.76,176.09,393.89Z" transform="translate(-8.46 -13.07)"/><path class="cls-24" d="M179.94,397.9s8.53-5.45,15.25,3.69c1.78,2.42,2.82,10.76-2.51,12.32,0,0-2.52,5.36-5.9,3.1,0,0-5,2.71-9.06-.38C177.72,416.62,166.14,407.29,179.94,397.9Z" transform="translate(-8.46 -13.07)"/><path class="cls-25" d="M183.51,404.79s3-4.55,7.22-3.15c1.56,0.51,4.91,3.84,4.91,3.84,0.74,2.5-.42,7.08-3.62,8,0,0-2.09,4.55-5.47,2.9,0,0-5.37,2.77-8.64-.52C177.91,415.9,175.28,408.68,183.51,404.79Z" transform="translate(-8.46 -13.07)"/><path class="cls-26" d="M195.64,405.49s-9.49-11.77-13.14-2.11c0,0-10.15-.87-4.59,12.53,0,0-.43-8.49,3.7-7.73a4.22,4.22,0,0,1,.45,2.51c-0.21,1.36,1.51,1.15,1.51,1.15s0.3,2.54,3.5.67,1.43-3.59,1.43-3.59,0.88-2.08-.6-2.6a1.41,1.41,0,0,1-1-1.85S187.49,400.69,195.64,405.49Z" transform="translate(-8.46 -13.07)"/><path class="cls-27" d="M187.39,408s2.31,2.56,0,4c-2.83,1.77-3.78-1.66-3.78-1.66A6.67,6.67,0,0,0,187.39,408Z" transform="translate(-8.46 -13.07)"/><path class="cls-28" d="M184.35,407.54s1.76-2,2.7-.5-0.34,1.75-.34,1.75a1.08,1.08,0,0,1-.61,1.51c-1.12.7-1.39,0.06-1.39,0.06s-1.48.6-1.66-.79A2.11,2.11,0,0,1,184.35,407.54Z" transform="translate(-8.46 -13.07)"/><path class="cls-29" d="M179.05,416.05c-1.51-1.73-.81-8.3,2.27-7.71,0.44,0.08.77,1.51,0.51,2.3s-0.92.13-1.39,1.79-0.72,3.82-.06,4.76A7.25,7.25,0,0,1,179.05,416.05Z" transform="translate(-8.46 -13.07)"/><path class="cls-29" d="M194.82,405.75c-1.12-1.32-7.6-4.61-7.82-.62,0,0-.2.8,1.73,1.29,0.8,0.2.65-.93,2.34-0.65s4,1.1,4.59,2.1A6.23,6.23,0,0,0,194.82,405.75Z" transform="translate(-8.46 -13.07)"/><path class="cls-30" d="M184.15,409.21c-0.54.39-.16,1.05,0.3,0.73S184.56,408.91,184.15,409.21Z" transform="translate(-8.46 -13.07)"/><path class="cls-30" d="M186.24,407.65c-0.54.39-.16,1.05,0.3,0.73s0.11-1-.3-0.73" transform="translate(-8.46 -13.07)"/><path class="cls-30" d="M188.57,408.66a3.17,3.17,0,0,1-.48,1,5.46,5.46,0,0,1-1.72,1.57c-0.18.11-.38,0.2-0.57,0.29a4.39,4.39,0,0,1-.58.22,3.62,3.62,0,0,1-.56.14,2.75,2.75,0,0,1-.51.07,3.32,3.32,0,0,1-.77,0l-0.29,0,0.26-.15,0.66-.34,0.89-.46c0.32-.18.66-0.35,1-0.55,0.66-.38,1.32-0.79,1.82-1.12Z" transform="translate(-8.46 -13.07)"/><path class="cls-30" d="M188.83,403.76c-1.7.7-.54,2.23,0.65,1.71A0.92,0.92,0,1,0,188.83,403.76Z" transform="translate(-8.46 -13.07)"/><path class="cls-30" d="M179.61,409.65c-0.79,1.15.55,2.21,1.49,1.06A0.93,0.93,0,1,0,179.61,409.65Z" transform="translate(-8.46 -13.07)"/><path class="cls-28" d="M190.08,404.78l-0.47-.08a1.49,1.49,0,0,0-.58,0,0.42,0.42,0,0,0-.09,0,1.16,1.16,0,0,1-.13,0l-0.33.13a4,4,0,0,1-.45.18,1,1,0,0,1,0-.15,1,1,0,0,1,0-.37,1,1,0,0,1,.24-0.49,1,1,0,0,1,1.36-.16,1,1,0,0,1,.36.41A0.93,0.93,0,0,1,190.08,404.78Z" transform="translate(-8.46 -13.07)"/><path class="cls-28" d="M181.08,409.38s-0.17.17-.35,0.33a2.08,2.08,0,0,0-.42.46,0.94,0.94,0,0,0-.12.2c0,0.1-.08.21-0.11,0.33s-0.14.47-.14,0.47a1,1,0,0,1-.42-0.32,1,1,0,0,1-.22-0.51,1.07,1.07,0,0,1,.75-1.15,1.07,1.07,0,0,1,.54,0A1,1,0,0,1,181.08,409.38Z" transform="translate(-8.46 -13.07)"/><path class="cls-30" d="M182,411.25c-1.16.72-.5,2.58,0.94,1.79A1,1,0,1,0,182,411.25Z" transform="translate(-8.46 -13.07)"/><path class="cls-30" d="M188.92,407.33c-1.14.71-.49,2.54,0.92,1.76A1,1,0,1,0,188.92,407.33Z" transform="translate(-8.46 -13.07)"/><path class="cls-25" d="M194.82,405.75" transform="translate(-8.46 -13.07)"/><path class="cls-25" d="M176.71,408.68a2.59,2.59,0,0,1-.2-0.92,3.42,3.42,0,0,1,.08-1,3.63,3.63,0,0,1,.42-1.06,4.19,4.19,0,0,1,.37-0.47,2.16,2.16,0,0,1,.45-0.38,1.67,1.67,0,0,1,.48-0.25,1.46,1.46,0,0,1,.46-0.13,2.14,2.14,0,0,1,1,0l-0.22.14a4.45,4.45,0,0,0-.52.34,3.65,3.65,0,0,0-.59.53,3.46,3.46,0,0,0-.28.33,3.56,3.56,0,0,0-.25.37,12.55,12.55,0,0,0-.79,1.59C176.88,408.33,176.71,408.68,176.71,408.68Z" transform="translate(-8.46 -13.07)"/><path class="cls-25" d="M177.54,409.08a2.8,2.8,0,0,1-.17-1,3.71,3.71,0,0,1,.58-2.09,2.73,2.73,0,0,1,.91-0.85,1.68,1.68,0,0,1,.54-0.21,1.44,1.44,0,0,1,.5-0.07,1.74,1.74,0,0,1,.72.11l0.25,0.1-0.25.1a3.6,3.6,0,0,0-.59.25,2.87,2.87,0,0,0-.67.45,3.58,3.58,0,0,0-.31.31,3.8,3.8,0,0,0-.27.37,6.58,6.58,0,0,0-.47.83c-0.14.28-.26,0.56-0.38,0.81C177.71,408.72,177.54,409.08,177.54,409.08Z" transform="translate(-8.46 -13.07)"/><path class="cls-25" d="M188.9,400.61s-0.39,0-.9,0a12.55,12.55,0,0,0-1.77.1,3.56,3.56,0,0,0-.44.09,3.45,3.45,0,0,0-.41.13,3.65,3.65,0,0,0-.72.34,4.45,4.45,0,0,0-.52.34l-0.22.14a2.14,2.14,0,0,1,.33-0.89,1.46,1.46,0,0,1,.3-0.37,1.67,1.67,0,0,1,.42-0.34,2.16,2.16,0,0,1,.52-0.26,4.2,4.2,0,0,1,.58-0.16,3.63,3.63,0,0,1,1.14,0,3.42,3.42,0,0,1,.92.3A2.59,2.59,0,0,1,188.9,400.61Z" transform="translate(-8.46 -13.07)"/><path class="cls-25" d="M188.94,401.53s-0.4,0-.94,0l-0.89,0a6.58,6.58,0,0,0-.95.11,3.8,3.8,0,0,0-.45.11,3.58,3.58,0,0,0-.4.16,2.87,2.87,0,0,0-.68.44,3.6,3.6,0,0,0-.46.45L184,403a2.57,2.57,0,0,1,0-.27,1.74,1.74,0,0,1,.18-0.71,1.44,1.44,0,0,1,.26-0.43,1.68,1.68,0,0,1,.41-0.41,2.73,2.73,0,0,1,1.13-.51,3.71,3.71,0,0,1,2.15.28A2.8,2.8,0,0,1,188.94,401.53Z" transform="translate(-8.46 -13.07)"/><path class="cls-5" d="M197,397.89S174.25,387.28,171.07,413c0,0-8-13.33,5.06-20.88C189,384.71,196.36,397.21,197,397.89Z" transform="translate(-8.46 -13.07)"/><path class="cls-8" d="M197,397.89S174.25,387.28,171.07,413c0,0-4.65-10.42,6.89-17.41C188.87,389,196.36,397.21,197,397.89Z" transform="translate(-8.46 -13.07)"/><path class="cls-5" d="M197,397.93c-0.16-.08,2.63,13.89-6.49,19.37-7.89,4.74-18.23-2.69-18.7-3.14,0,0,8.23,13.1,20.25,5.39C204.35,411.68,197,397.93,197,397.93Z" transform="translate(-8.46 -13.07)"/><path class="cls-8" d="M197,397.89s2.55,13.79-6.58,19.25c-7.9,4.72-18.84-3.63-19.35-4.12,0,0,9.08,11.54,19.88,5.16C202.86,411.15,197,397.89,197,397.89Z" transform="translate(-8.46 -13.07)"/><path class="cls-8" d="M170.15,411.12a2.78,2.78,0,0,1,3.75.79c1.46,2.07-.85,4.09-0.85,4.09S170.08,412.66,170.15,411.12Z" transform="translate(-8.46 -13.07)"/><path class="cls-8" d="M195.47,395.9s-2.75,1.15-1.62,3.53,4.37,1.54,4.37,1.54S197.25,397.25,195.47,395.9Z" transform="translate(-8.46 -13.07)"/><path class="cls-26" d="M170.86,452.63A6.45,6.45,0,0,0,173.7,451a4.89,4.89,0,0,1-3.79.22,12.41,12.41,0,0,1-.21-1.76l-4.38-1.88-0.11-.11a3.56,3.56,0,0,0,.34,3.49C166.48,452.21,167,452,167,452c1,0.91,1.43.56,1.43,0.56,2.67,2.27,5.84-.59,5.72-0.79S171.86,452.68,170.86,452.63Z" transform="translate(-8.46 -13.07)"/><path class="cls-25" d="M197.92,413.79s-0.75-3.26.62-5.23c1.14-1.64,4.28-2.22,5.57-.93,10.79,10.84,6.13,18.47,7.38,21,2.36,4.8,3.74,16.77,1.4,19.1s-10.82,6.36-18.38,3.58-10.1-6.9-14.58-6-6.17,3.57-7.66,3a2.24,2.24,0,0,1-2.06,2c-1.89.12-8.64-1.33-4.44-9,0,0,1.93-3,4.15-3.26,0,0,1.18-3,6.46-4.42a11.35,11.35,0,0,1,9.45-3.14c6.14,0.64,2.63.57,3.69,0,3.59-1.89,8.4.72,9.55-2.27,0.53-1.39-.83-2.49-2.11-8C196.13,416.86,196.8,415.6,197.92,413.79Z" transform="translate(-8.46 -13.07)"/><path class="cls-20" d="M90,322.42s4.6,2.81,5.9,4.39,2.21,3.47,5.22,6.28a106.89,106.89,0,0,0,10,7.44c4.11,4.91,8.17,4.52,8.17,4.52,6,2.49,14-1.88,14-1.88,7.92-.82,12.63-7.78,12.63-7.78,5.57-.27,14.5-12.82,15.74-14.83s0.3-9.49-4.06-13.79-8-1.9-9.85-1.3c-3.28,1.06-9.63,10.35-9.63,10.35-2.48,1-5.83,7.44-5.83,7.44s-1.57,1.42-2.58,2.43a13.12,13.12,0,0,0-1.94,2.89c-0.38.61-2.1,0.36-3.47,0.87a48.27,48.27,0,0,0-3.79-3c-8.8-6.27-22.72-15.52-23.66-16.26Z" transform="translate(-8.46 -13.07)"/><path class="cls-20" d="M79.73,311.43c0-.24,2.08,2.13,2.29,2.21" transform="translate(-8.46 -13.07)"/><path class="cls-8" d="M129.89,344.88s-4-8.31-2.3-16.14c0,0-3.17-.86-4.37.46,0,0-3.58,10.64,2.9,16.65A3.71,3.71,0,0,0,129.89,344.88Z" transform="translate(-8.46 -13.07)"/><path class="cls-8" d="M151.72,313.23c7.33,2,3.78,13.42-3.42,11.75-9-2.08-3.91-13.75,3.42-11.75" transform="translate(-8.46 -13.07)"/><path class="cls-18" d="M103.48,314.61s-7.51,5.12-7.82,11.9L89,321.16s-2.74-4,8.07-11.81C97.11,309.35,101.87,312.06,103.48,314.61Z" transform="translate(-8.46 -13.07)"/><polygon class="cls-18" points="138.76 307.39 141.01 306.16 140.21 308.57 141.71 309.83 142.9 303.91 137.07 306 138.76 307.39"/><line class="cls-31" x1="141.53" y1="309.46" x2="143.4" y2="302.03"/><line class="cls-31" x1="137.41" y1="306.1" x2="144.32" y2="303.3"/><path class="cls-18" d="M120.49,326.43s3,0.92,3.13,2.45c0,0-6,8.11-4.34,16.17,0,0-3.62.77-5.49-1.8,0,0-3.11-9.84,6.69-16.83" transform="translate(-8.46 -13.07)"/></svg>