<svg id="BEER" xmlns="http://www.w3.org/2000/svg" viewBox="0 0 681.68 644.18"><defs><style>.cls-1{fill:#dbf0f5;}.cls-2{fill:#efede4;}.cls-3{fill:#e2c51b;}.cls-4{fill:#c4e1cc;}.cls-5{fill:#20ceac;}.cls-15,.cls-23,.cls-6,.cls-8,.cls-9{fill:none;stroke-miterlimit:10;}.cls-6{stroke:#20ceac;}.cls-7{fill:#0faa8c;}.cls-8,.cls-9{stroke:#0ea98b;}.cls-9{stroke-linecap:round;stroke-width:0.5px;}.cls-10{fill:#d4d0bf;}.cls-11{fill:#999484;}.cls-12{fill:#c4a614;}.cls-13{fill:#e5e1cf;}.cls-14{fill:#a9a493;}.cls-15{stroke:#b885ba;}.cls-16{fill:#f9c79e;}.cls-17{fill:#754532;}.cls-18{fill:#fbf6fa;}.cls-19{fill:#1a3f3d;}.cls-20{fill:#1197cc;}.cls-21{fill:#dbf0f4;}.cls-22{fill:#1eabf1;}.cls-23{stroke:#b785ba;}.cls-24{fill:#f9c79d;}.cls-25{fill:#764633;}.cls-26{fill:#f8f5f9;}.cls-27{fill:#11607f;}</style></defs><title>cosmic-beer</title><path class="cls-1" d="M342.92,309.19c9.27,1.4,24.43,1,29.48-2.3,3.4-2.2.62-53.29-5.13-53.29-8.92,0-15.5-1.78-30.7,3.21C336.56,256.81,337.31,308.34,342.92,309.19Z" transform="translate(-37.17 -6.66)"/><path class="cls-2" d="M369.05,248.62a13.69,13.69,0,0,0-10.15-1.47c-2.11.48-4.26,1.42-6.09,1.56s-4.2-.37-5.79.17c-3,1-2.53,1.85-5,2.24-1.58.25-1.71-1.06-4.07-.34-1.54.47-3.83,1.45-3.83,1.45s3.94,43.22,5.53,45c0.26,0.29,33.34-2.14,33.75-5.68C374.7,280.42,369.05,248.62,369.05,248.62Z" transform="translate(-37.17 -6.66)"/><path class="cls-3" d="M370.51,257.4c0.14,0.8-20.24,10.43-35.42,5.16,0,0,3.37,38.5,4.9,40.33,3.66,4.37,29.37.37,33.17-3.35S370.51,257.4,370.51,257.4Z" transform="translate(-37.17 -6.66)"/><path class="cls-1" d="M363,257.14s2.3,2.09,5.86,17.1c4.4,18.55-3.92,21.89-3.92,21.89l-4.29-4.61s4.13-3,.48-18.23c-2.43-10.11-5.33-15.1-5.33-15.1Z" transform="translate(-37.17 -6.66)"/><path class="cls-1" d="M338.72,253.71c-14.05-7.64-20.84-7.09-29.62-8.69-5.66-1-17.61,48.71-14.67,51.49,4.37,4.12,19.2,7.28,28.58,7.58C328.68,304.26,338.72,253.71,338.72,253.71Z" transform="translate(-37.17 -6.66)"/><path class="cls-2" d="M308.24,239.79a13.69,13.69,0,0,1,10.25.39c2,0.85,3.93,2.17,5.71,2.63s4.2,0.39,5.66,1.21c2.77,1.55,1.91,1.45,4.27,2.29,1.51,0.53,2.12.09,4.31,1.23,1.43,0.74,3.51,2.11,3.51,2.11s-11.69,41.68-13.56,43.27c-0.29.25-32.41-8.12-32.17-11.68C296.95,270,308.24,239.79,308.24,239.79Z" transform="translate(-37.17 -6.66)"/><path class="cls-3" d="M305.23,248.17c-0.28.76,18,13.91,33.91,11.46,0,0-10.26,37.26-12.1,38.79-4.39,3.64-29-4.94-32-9.28S305.23,248.17,305.23,248.17Z" transform="translate(-37.17 -6.66)"/><path class="cls-1" d="M312.69,249.27S310,250.91,303.84,265c-7.67,17.45-.09,22.23-0.09,22.23l5-3.76s-3.51-3.72,2.82-18c4.21-9.51,8-13.89,8-13.89Z" transform="translate(-37.17 -6.66)"/><path class="cls-4" d="M225.62,306.12c-3.42.07-7,2.13-8.32,1.11" transform="translate(-37.17 -6.66)"/><path class="cls-5" d="M363.28,200.56c9.47-1.6-6.46-15.64-6.46-15.64s-10.49,15.19-.52,16c1.79,0.14,3-2.32,3.43-2.37C359.73,198.52,361.47,200.86,363.28,200.56Z" transform="translate(-37.17 -6.66)"/><path class="cls-5" d="M341.79,193.45c2.56,9.25,14.9-8,14.9-8s-16.1-8.76-15.85,1.24c0,1.79,2.52,2.61,2.62,3.05C343.45,189.71,341.3,191.68,341.79,193.45Z" transform="translate(-37.17 -6.66)"/><path class="cls-5" d="M372.88,185c1.9,11-16.89,1-16.89,1s8.87-15.33,13.95-6.71c0.91,1.55-.59,2.94-0.44,3.36C369.5,182.66,372.57,183.15,372.88,185Z" transform="translate(-37.17 -6.66)"/><path class="cls-5" d="M355.72,169.35c9.27-2.51.67,16.91,0.67,16.91s-16-9.43-7.27-14.32c1.57-.88,3.79.88,4.22,0.74C353.34,172.68,353.94,169.83,355.72,169.35Z" transform="translate(-37.17 -6.66)"/><path class="cls-6" d="M355.29,187.27s-7.62,9-6.26,20.78" transform="translate(-37.17 -6.66)"/><path class="cls-5" d="M392.81,119.57c6.47-2.35-6.59-10.2-6.59-10.2s-5.44,12.08,1.7,11.34c1.28-.13,1.8-2,2.11-2.12C390,118.59,391.57,120,392.81,119.57Z" transform="translate(-37.17 -6.66)"/><path class="cls-5" d="M376.94,116.85c3,6.2,9.47-7.6,9.47-7.6s-12.5-4.09-11,2.93c0.26,1.26,2.12,1.52,2.24,1.82C377.63,114,376.37,115.66,376.94,116.85Z" transform="translate(-37.17 -6.66)"/><path class="cls-5" d="M397.79,106.83c2.76,7.49-11.79,2.93-11.79,2.93s4.28-12,9-6.54c0.84,1,0,2.15.13,2.43C395.1,105.65,397.33,105.59,397.79,106.83Z" transform="translate(-37.17 -6.66)"/><path class="cls-5" d="M383.65,98c6.22-3,2.67,11.85,2.67,11.85s-12.52-4.59-7-9.16c1-.82,2.79.13,3.08,0C382.4,100.69,382.46,98.6,383.65,98Z" transform="translate(-37.17 -6.66)"/><path class="cls-6" d="M385.66,110.74s-4.22,7.31-1.73,15.48" transform="translate(-37.17 -6.66)"/><path class="cls-5" d="M270.82,52.13c-8.12-.16,3.49-13.07,3.49-13.07S285,49.81,276.7,51.58c-1.48.32-2.78-1.48-3.16-1.47C273.54,50.11,272.37,52.16,270.82,52.13Z" transform="translate(-37.17 -6.66)"/><path class="cls-5" d="M287.5,43.62C286.49,51.2,274,39,274,39s12.41-8.76,13.43-.85c0.18,1.42-1.79,2.35-1.82,2.71C285.65,40.86,287.69,42.16,287.5,43.62Z" transform="translate(-37.17 -6.66)"/><path class="cls-5" d="M260.43,40.52c-0.24,8.86,14.27-1.13,14.27-1.13s-9.31-11.05-12.5-3.68c-0.57,1.32.86,2.24,0.78,2.6C263,38.31,260.47,39.06,260.43,40.52Z" transform="translate(-37.17 -6.66)"/><path class="cls-5" d="M272.88,26.23c-8.07-.91,1.51,13.4,1.51,13.4s12.24-9.28,4.33-12.12c-1.42-.51-3.07,1.13-3.45,1.07C275.28,28.58,274.43,26.4,272.88,26.23Z" transform="translate(-37.17 -6.66)"/><path class="cls-6" d="M275.44,40.3s7.48,6.18,7.79,15.65" transform="translate(-37.17 -6.66)"/><path class="cls-7" d="M323.76,18c-2.69-5,9.71-2.64,9.71-2.64s-3.34,10.46-7.33,6.05c-0.72-.79,0-2.25-0.13-2.48C326,18.92,324.27,19,323.76,18Z" transform="translate(-37.17 -6.66)"/><path class="cls-7" d="M335,25.1c-5.29,2.16-1.63-9.93-1.63-9.93s10,4.4,5.18,7.91c-0.86.63-2.14-.24-2.39-0.12C336.2,23,336.05,24.68,335,25.1Z" transform="translate(-37.17 -6.66)"/><path class="cls-7" d="M327.74,7.38c-5.85,3.09,5.65,8.33,5.65,8.33s4-9.75-1.91-9c-1.06.13-1.17,1.35-1.42,1.43C330.05,8.13,328.71,6.87,327.74,7.38Z" transform="translate(-37.17 -6.66)"/><path class="cls-7" d="M341.33,9.78c-2.19-5.27-8.21,5.83-8.21,5.83s10.26,4.1,9.38-1.78c-0.16-1.05-1.79-1.47-1.88-1.72C340.63,12.11,341.75,10.79,341.33,9.78Z" transform="translate(-37.17 -6.66)"/><path class="cls-8" d="M333.05,16.5s-1.45,6.84-7.51,10.5" transform="translate(-37.17 -6.66)"/><path class="cls-7" d="M335.56,229.42c-2.69-5,9.71-2.64,9.71-2.64s-3.34,10.46-7.33,6.05c-0.72-.79,0-2.25-0.13-2.48C337.81,230.36,336.07,230.39,335.56,229.42Z" transform="translate(-37.17 -6.66)"/><path class="cls-7" d="M346.84,236.53c-5.29,2.16-1.63-9.93-1.63-9.93s10,4.4,5.18,7.91c-0.86.63-2.14-.24-2.39-0.12C348,234.39,347.85,236.12,346.84,236.53Z" transform="translate(-37.17 -6.66)"/><path class="cls-7" d="M339.54,218.81c-5.85,3.09,5.65,8.33,5.65,8.33s4-9.75-1.91-9c-1.06.13-1.17,1.35-1.42,1.43C341.85,219.57,340.51,218.3,339.54,218.81Z" transform="translate(-37.17 -6.66)"/><path class="cls-7" d="M353.13,221.22c-2.19-5.27-8.21,5.83-8.21,5.83s10.26,4.1,9.38-1.78c-0.16-1.05-1.79-1.47-1.88-1.72C352.43,223.55,353.55,222.23,353.13,221.22Z" transform="translate(-37.17 -6.66)"/><path class="cls-8" d="M344.85,227.93s-1.45,6.84-7.51,10.5" transform="translate(-37.17 -6.66)"/><path class="cls-7" d="M387.39,213.49c4.64-.91-3.38-7.61-3.38-7.61s-5,7.61,0,7.87c0.88,0,1.44-1.18,1.66-1.21C385.61,212.53,386.5,213.66,387.39,213.49Z" transform="translate(-37.17 -6.66)"/><path class="cls-7" d="M376.32,209c0.59,4.69,7.83-2.85,7.83-2.85s-7.22-5.41-7.81-.53c-0.11.88,1,1.45,1.06,1.67C377.39,207.25,376.21,208.06,376.32,209Z" transform="translate(-37.17 -6.66)"/><path class="cls-7" d="M392.06,207c0.14,5.48-8.3-.7-8.3-0.7s5.42-6.83,7.27-2.27c0.33,0.82-.5,1.39-0.45,1.61C390.58,205.68,392,206.14,392.06,207Z" transform="translate(-37.17 -6.66)"/><path class="cls-7" d="M384.82,198.21c4.69-.56-0.88,8.28-0.88,8.28s-7.12-5.74-2.52-7.49c0.82-.31,1.79.7,2,0.66C383.43,199.66,383.92,198.31,384.82,198.21Z" transform="translate(-37.17 -6.66)"/><path class="cls-8" d="M383.33,206.9a14.64,14.64,0,0,0-4.53,9.67" transform="translate(-37.17 -6.66)"/><path class="cls-5" d="M401.49,174.81c6.34,1.55,0-10.86,0-10.86S391,170.1,397,173.18c1.08,0.55,2.46-.58,2.76-0.49C399.79,172.69,400.28,174.51,401.49,174.81Z" transform="translate(-37.17 -6.66)"/><path class="cls-5" d="M390.3,164.77c-0.78,6.09,11.4-.8,11.4-0.8s-7.82-9.35-10.25-3.43c-0.43,1.06.9,2.19,0.85,2.48C392.3,163,390.45,163.6,390.3,164.77Z" transform="translate(-37.17 -6.66)"/><path class="cls-5" d="M411.95,167.94c-1.64,6.93-10.85-3.82-10.85-3.82s9.51-6.66,10.46-.28c0.17,1.14-1.13,1.57-1.14,1.85C410.42,165.71,412.22,166.8,411.95,167.94Z" transform="translate(-37.17 -6.66)"/><path class="cls-5" d="M405.23,154.29c6.45,1-3.94,10.09-3.94,10.09s-7.59-9.73-.87-10.3c1.21-.1,2.15,1.51,2.46,1.54C402.88,155.62,404,154.1,405.23,154.29Z" transform="translate(-37.17 -6.66)"/><path class="cls-6" d="M400.34,164.68s-7.08,3.25-9.27,10.54" transform="translate(-37.17 -6.66)"/><path class="cls-7" d="M361.85,152c4.72-.1-2-8.08-2-8.08s-6.19,6.65-1.39,7.74c0.86,0.2,1.62-.92,1.84-0.91C360.27,150.76,360.95,152,361.85,152Z" transform="translate(-37.17 -6.66)"/><path class="cls-7" d="M352.15,146.75c0.59,4.69,7.83-2.85,7.83-2.85s-7.22-5.41-7.81-.53c-0.11.88,1,1.45,1.06,1.67C353.22,145,352,145.85,352.15,146.75Z" transform="translate(-37.17 -6.66)"/><path class="cls-7" d="M367.89,144.83c0.14,5.48-8.3-.7-8.3-0.7s5.42-6.83,7.27-2.27c0.33,0.82-.5,1.39-0.45,1.61C366.41,143.47,367.87,143.93,367.89,144.83Z" transform="translate(-37.17 -6.66)"/><path class="cls-7" d="M360.65,136c4.69-.56-0.88,8.28-0.88,8.28s-7.12-5.74-2.52-7.49c0.82-.31,1.79.7,2,0.66C359.25,137.45,359.75,136.11,360.65,136Z" transform="translate(-37.17 -6.66)"/><path class="cls-8" d="M359.16,144.7a14.64,14.64,0,0,0-4.53,9.67" transform="translate(-37.17 -6.66)"/><path class="cls-7" d="M272.48,178c-5.69.49,1.4-10,1.4-10s8.3,7.19,2.67,9.12c-1,.35-2.06-0.89-2.33-0.85C274.22,176.25,273.57,177.86,272.48,178Z" transform="translate(-37.17 -6.66)"/><path class="cls-7" d="M283.46,170.38c-0.1,5.71-9.77-2.42-9.77-2.42s8-7.43,9.31-1.64c0.24,1-1.06,1.88-1.05,2.15C281.95,168.47,283.48,169.29,283.46,170.38Z" transform="translate(-37.17 -6.66)"/><path class="cls-7" d="M271.86,158.56c-5.71-.07,2.12,9.84,2.12,9.84s7.82-7.81,2.06-9.32c-1-.27-2.06,1.07-2.32,1.05C273.72,160.13,273,158.58,271.86,158.56Z" transform="translate(-37.17 -6.66)"/><path class="cls-8" d="M274.77,168.82s5.72,4,6.69,11" transform="translate(-37.17 -6.66)"/><path class="cls-7" d="M265.11,165.67c0.47-5.69,9.6,3,9.6,3s-8.43,6.91-9.4,1c-0.17-1.05,1.18-1.81,1.19-2.07C266.5,167.67,265,166.76,265.11,165.67Z" transform="translate(-37.17 -6.66)"/><path class="cls-7" d="M410.83,45.11c4.72-.1-2-8.08-2-8.08s-6.19,6.65-1.39,7.74c0.86,0.2,1.62-.92,1.84-0.91C409.25,43.86,409.93,45.13,410.83,45.11Z" transform="translate(-37.17 -6.66)"/><path class="cls-7" d="M401.13,39.85C401.71,44.53,409,37,409,37s-7.22-5.41-7.81-.53c-0.11.88,1,1.45,1.06,1.67C402.2,38.14,401,38.95,401.13,39.85Z" transform="translate(-37.17 -6.66)"/><path class="cls-7" d="M416.87,37.93c0.14,5.48-8.3-.7-8.3-0.7S414,30.4,415.84,35c0.33,0.82-.5,1.39-0.45,1.61C415.39,36.57,416.85,37,416.87,37.93Z" transform="translate(-37.17 -6.66)"/><path class="cls-7" d="M409.63,29.1c4.69-.56-0.88,8.28-0.88,8.28s-7.12-5.74-2.52-7.49c0.82-.31,1.79.7,2,0.66C408.23,30.55,408.73,29.21,409.63,29.1Z" transform="translate(-37.17 -6.66)"/><path class="cls-8" d="M408.14,37.8a14.64,14.64,0,0,0-4.53,9.67" transform="translate(-37.17 -6.66)"/><path class="cls-7" d="M241.33,94.76c-5.77-.12,2.48-9.87,2.48-9.87s7.57,8.13,1.7,9.46c-1.05.24-2-1.12-2.25-1.11C243.27,93.24,242.43,94.79,241.33,94.76Z" transform="translate(-37.17 -6.66)"/><path class="cls-7" d="M253.19,88.34c-0.72,5.73-9.57-3.48-9.57-3.48s8.82-6.62,9.54-.64c0.13,1.07-1.27,1.77-1.29,2C251.88,86.25,253.33,87.24,253.19,88.34Z" transform="translate(-37.17 -6.66)"/><path class="cls-7" d="M233.95,86c-0.17,6.69,10.15-.85,10.15-0.85s-6.62-8.35-8.89-2.78c-0.41,1,.61,1.7.56,2C235.76,84.33,234,84.89,233.95,86Z" transform="translate(-37.17 -6.66)"/><path class="cls-7" d="M242.8,75.2c-5.73-.68,1.08,10.12,1.08,10.12s8.7-7,3.08-9.15c-1-.38-2.18.85-2.45,0.81C244.5,77,243.9,75.33,242.8,75.2Z" transform="translate(-37.17 -6.66)"/><path class="cls-8" d="M244.62,85.83s5.32,4.67,5.54,11.82" transform="translate(-37.17 -6.66)"/><path class="cls-7" d="M299.62,91.41c-5.68,1,.46-10.17.46-10.17s9,6.45,3.56,8.93c-1,.44-2.16-0.7-2.42-0.64C301.22,89.53,300.71,91.21,299.62,91.41Z" transform="translate(-37.17 -6.66)"/><path class="cls-7" d="M310.18,83c0.44,5.76-10.07-1.51-10.07-1.51s7.32-8.24,9.22-2.53c0.34,1-.89,2-0.86,2.26C308.48,81.18,310.09,81.85,310.18,83Z" transform="translate(-37.17 -6.66)"/><path class="cls-7" d="M290.64,84.29c1.16,6.59,9.77-2.86,9.77-2.86s-8.15-6.86-9.26-.95c-0.2,1.06.93,1.54,0.94,1.81C292.08,82.3,290.44,83.2,290.64,84.29Z" transform="translate(-37.17 -6.66)"/><path class="cls-7" d="M297.16,71.95c-5.76.47,3.07,9.71,3.07,9.71s7.13-8.61,1.19-9.59c-1.06-.18-2,1.27-2.24,1.28C299.18,73.35,298.26,71.86,297.16,71.95Z" transform="translate(-37.17 -6.66)"/><path class="cls-8" d="M301.06,82a25.29,25.29,0,0,1,9.11,9.35" transform="translate(-37.17 -6.66)"/><path class="cls-5" d="M335.77,79.33c-6.14-3,5.26-9,5.26-9s5.81,9.47-.21,9.61c-1.08,0-1.72-1.49-2-1.53C338.84,78.4,337.56,80.2,335.77,79.33Z" transform="translate(-37.17 -6.66)"/><path class="cls-5" d="M350.5,75.12c-2.37,4.42-9.93-4.91-9.93-4.91s6.92-7.32,9.75-2c1.12,2.11-1.47,3.13-1.49,3.41C348.82,71.61,351.56,73.14,350.5,75.12Z" transform="translate(-37.17 -6.66)"/><path class="cls-5" d="M330.5,71.81C330.33,78.5,341,70.5,341,70.5s-8.59-9.68-9.78-3.78c-0.31,1.54,1.51,2.7,1.45,3C332.7,69.69,330.53,70.7,330.5,71.81Z" transform="translate(-37.17 -6.66)"/><path class="cls-5" d="M338.68,60.74c-6.93,2,2.14,9.94,2.14,9.94s8.7-7,3.08-9.15c-1-.38-2.18.85-2.45,0.81C341.45,62.34,340.57,60.2,338.68,60.74Z" transform="translate(-37.17 -6.66)"/><path class="cls-6" d="M341.56,71.19c-0.36.11,4.56,4.91,5.54,11.82" transform="translate(-37.17 -6.66)"/><path class="cls-7" d="M344.18,111.27s0.47,7.3,3.68,6.55,1.35-3,1.35-3,3.26,0.09,2.48-2.6S344.18,111.27,344.18,111.27Z" transform="translate(-37.17 -6.66)"/><path class="cls-7" d="M344.32,111.59s-2.21-6.89-4.81-6c-2.78,1-.52,3.34-0.52,3.34s-3.51-.25-2.45,2.2S344.32,111.59,344.32,111.59Z" transform="translate(-37.17 -6.66)"/><path class="cls-7" d="M343.94,111.46s7.12-1.53,6.35-3.9a2.16,2.16,0,0,0-3.54-1.33s-0.64-3.19-3.13-2.23S343.94,111.46,343.94,111.46Z" transform="translate(-37.17 -6.66)"/><path class="cls-7" d="M343.88,111.4s-7.75,1.12-6.79,4,3.2,0.77,3.2.77-0.66,3.25,1.95,2.68S343.88,111.4,343.88,111.4Z" transform="translate(-37.17 -6.66)"/><path class="cls-9" d="M344.23,111.13s-0.42,7,2.25,11.16" transform="translate(-37.17 -6.66)"/><path class="cls-5" d="M286.67,129.18C285.2,122.51,297,127.7,297,127.7s-3.81,10.43-7.66,5.81c-0.69-.83.1-2.27,0-2.51C289.3,131,287.09,131.13,286.67,129.18Z" transform="translate(-37.17 -6.66)"/><path class="cls-5" d="M299.11,138.11c-4.94.89-2.32-10.84-2.32-10.84s10,0.88,7.62,6.39c-1,2.19-3.37.79-3.6,0.95C300.82,134.62,301.33,137.72,299.11,138.11Z" transform="translate(-37.17 -6.66)"/><path class="cls-5" d="M289.29,120.38c-5.35,4,7.57,7.45,7.57,7.45s2.25-12.74-3.12-10c-1.4.71-1.18,2.86-1.42,3C292.32,120.79,290.17,119.72,289.29,120.38Z" transform="translate(-37.17 -6.66)"/><path class="cls-5" d="M303,119.92c-5.85-4.21-6.47,7.85-6.47,7.85s10.9,2.46,9.09-3.27c-0.32-1-2-1.18-2.15-1.42C303.51,123.08,304.64,121.06,303,119.92Z" transform="translate(-37.17 -6.66)"/><path class="cls-6" d="M296.65,128.67c-0.31-.21-1,6.62-5.82,11.68" transform="translate(-37.17 -6.66)"/><path class="cls-7" d="M420,83.06s-2.62,8.26,1.24,8.81,2.8-2.76,2.8-2.76,3.56,1.5,3.85-1.8S420,83.06,420,83.06Z" transform="translate(-37.17 -6.66)"/><path class="cls-7" d="M420,83.47s0.54-8.56-2.74-8.64c-3.5-.09-2,3.46-2,3.46s-3.76-1.79-3.65,1.37S420,83.47,420,83.47Z" transform="translate(-37.17 -6.66)"/><path class="cls-7" d="M419.66,83.16s8.52,1.38,8.69-1.56c0.23-3.91-3.33-3-3.33-3s0.67-3.8-2.49-3.81S419.66,83.16,419.66,83.16Z" transform="translate(-37.17 -6.66)"/><path class="cls-7" d="M419.62,83.07s-9-2.11-9.2,1.44,3.2,2.23,3.2,2.23-2.13,3.3,1,3.8S419.62,83.07,419.62,83.07Z" transform="translate(-37.17 -6.66)"/><path class="cls-9" d="M420.12,82.92s-3.48,7.53-2.33,13.29" transform="translate(-37.17 -6.66)"/><path class="cls-5" d="M305.45,208.6S300.88,223,307.61,224s4.88-4.81,4.88-4.81,6.2,2.61,6.71-3.14S305.45,208.6,305.45,208.6Z" transform="translate(-37.17 -6.66)"/><path class="cls-5" d="M307,209.31s0.93-14.91-4.78-15.06c-6.09-.16-3.51,6-3.51,6s-6.56-3.12-6.37,2.39S307,209.31,307,209.31Z" transform="translate(-37.17 -6.66)"/><path class="cls-5" d="M306.35,208.78s15.16,3.61,15.14-2.72c0-6.82-5.8-5.22-5.8-5.22s1.17-6.62-4.34-6.64S306.35,208.78,306.35,208.78Z" transform="translate(-37.17 -6.66)"/><path class="cls-5" d="M306.28,208.61s-15.74-3.67-16,2.51C290,217,295.82,215,295.82,215s-3.71,5.75,1.73,6.63S306.28,208.61,306.28,208.61Z" transform="translate(-37.17 -6.66)"/><path class="cls-6" d="M307.15,208.36s-6.06,13.13-4.05,23.16" transform="translate(-37.17 -6.66)"/><path class="cls-7" d="M317.58,189.12c-6.14-3,5.26-9,5.26-9s5.81,9.47-.21,9.61c-1.08,0-1.72-1.49-2-1.53C320.65,188.19,319.38,190,317.58,189.12Z" transform="translate(-37.17 -6.66)"/><path class="cls-7" d="M332.32,184.92c-2.37,4.42-9.93-4.91-9.93-4.91s6.92-7.32,9.75-2c1.13,2.11-1.47,3.13-1.49,3.41C330.64,181.4,333.38,182.94,332.32,184.92Z" transform="translate(-37.17 -6.66)"/><path class="cls-7" d="M312.32,181.6c-0.17,6.69,10.53-1.3,10.53-1.3s-8.59-9.68-9.78-3.78c-0.31,1.54,1.51,2.7,1.45,3C314.52,179.48,312.34,180.5,312.32,181.6Z" transform="translate(-37.17 -6.66)"/><path class="cls-7" d="M320.5,170.53c-6.93,2,2.14,9.94,2.14,9.94s8.7-7,3.08-9.15c-1-.38-2.18.85-2.45,0.81C323.26,172.13,322.38,170,320.5,170.53Z" transform="translate(-37.17 -6.66)"/><path class="cls-8" d="M323.38,181c-0.36.11,4.56,4.91,5.54,11.82" transform="translate(-37.17 -6.66)"/><path class="cls-10" d="M216.29,471.5s4.93-68.12-6.11-99.25l-57.51,45.49,7.58,57Z" transform="translate(-37.17 -6.66)"/><path class="cls-10" d="M203.82,522.7c4.43-4,5-10.51,5-10.51s7.12,0,8.5-17.79-1-22.91-1-22.91c-4.83-2.35-45.92-6.79-45.92-6.79-0.81-3.45,1.39,42.13,1.39,42.13-15.5,14.15-28.08,70.77-25.46,72.3l34.24,4.16s16.68-27.57,19.86-39.36c2-7.23,3.42-21.23,3.42-21.23" transform="translate(-37.17 -6.66)"/><path class="cls-7" d="M168.14,511.27s14.45,13.4,35.68,11.43c0,0,3.81-2,4.89-9.8,0,0-22.37.61-37.11-9.55A18.64,18.64,0,0,0,168.14,511.27Z" transform="translate(-37.17 -6.66)"/><path class="cls-11" d="M149.55,550.4S189,561,191.19,566.66c0,0-10.36,16.19-6,24.75s22.42,22,25.94,24.47c4.17,2.91,2.7,11.71.81,14.74-2.5,4-8.77,13.23-10.14,13S127.2,617.39,129.21,600c0.57-5,7-14.78,9.72-19.15S148.37,549.93,149.55,550.4Z" transform="translate(-37.17 -6.66)"/><path class="cls-10" d="M195.61,650c-4.93,4-20.7-6.12-32.54-12.22-19.72-10.17-38.41-18.74-38.32-23.83A27,27,0,0,1,129.21,600s49.88,31.41,57.09,35c15,7.4,21.76,1.5,21.76,1.5S207.25,640.58,195.61,650Z" transform="translate(-37.17 -6.66)"/><path class="cls-12" d="M147.69,554.63l40,18a61.17,61.17,0,0,0,3.94-5.77c1.51-2.63-41.35-19.27-41.35-19.27Z" transform="translate(-37.17 -6.66)"/><path class="cls-7" d="M143,569.47c-0.25.64,41.35,18.17,41.35,18.17a20.18,20.18,0,0,1,.79-7.67c0.16-.55-40-17.3-40-17.3S144,567,143,569.47Z" transform="translate(-37.17 -6.66)"/><path class="cls-7" d="M169.43,472.91a11.61,11.61,0,0,0,.95,9.13s19.53,2.24,47.14-3.63c0,0,3-2.76,1.43-8.51C218.95,469.9,188.56,472.21,169.43,472.91Z" transform="translate(-37.17 -6.66)"/><path class="cls-13" d="M146,534.87c5.67-2,8.71-7.7,8.71-7.7s3.55,2.35,14.45-9.88c11.39-12.77,11.59-24.23,10.67-21-3.51-4.06-41.77-27.85-41.77-27.85,0.61-3.49-15.29,39.28-15.29,39.28-19.82,6.92-53.66,54-51.85,56.45l29.84,17.3s26.18-18.79,33.75-28.37c4.64-5.88,11.49-18.17,11.49-18.17" transform="translate(-37.17 -6.66)"/><path class="cls-5" d="M117.65,510.32s8,18,28.3,24.55c0,0,4.27-.31,8.35-7.09,0,0-20.81-8.24-30.35-23.38A18.64,18.64,0,0,0,117.65,510.32Z" transform="translate(-37.17 -6.66)"/><path class="cls-14" d="M85.17,539S117.24,564.2,117,570.31c0,0-15.89,10.81-15.25,20.4s12,29.06,14.22,32.7c2.69,4.32-2.13,11.83-5.05,13.87-3.88,2.71-13.27,8.72-14.45,8S38.26,591.78,46.94,576.6c2.47-4.33,12.29-10.82,16.47-13.78S84.26,538.09,85.17,539Z" transform="translate(-37.17 -6.66)"/><path class="cls-13" d="M88.34,648.62c-6.09,1.71-16.63-13.77-25.1-24-14.13-17.11-27.94-32.34-25.86-37a27,27,0,0,1,9.56-11s33.5,48.51,38.72,54.61c10.86,12.7,19.41,9.94,19.41,9.94S102.72,644.59,88.34,648.62Z" transform="translate(-37.17 -6.66)"/><path class="cls-3" d="M81.78,542.14l29.68,32.31a61.17,61.17,0,0,0,5.89-3.76c2.42-1.83-30.43-34-30.43-34Z" transform="translate(-37.17 -6.66)"/><path class="cls-5" d="M71.64,553.93c-0.48.49,30.87,33,30.87,33a20.18,20.18,0,0,1,3.74-6.74c0.36-.45-30-31.65-30-31.65S73.51,552,71.64,553.93Z" transform="translate(-37.17 -6.66)"/><path class="cls-3" d="M150.33,225.48s-23.86-13-27.78-13.78c-2.74-.51-16.39,5.35-17.64,7-2,2.64-22.52,101.14-11.84,106.35s31.31,15.85,42.46,14.66S150.33,225.48,150.33,225.48Z" transform="translate(-37.17 -6.66)"/><path class="cls-1" d="M205.58,151.08c3.49-1.24,17.67-14.45,24.19,3.2,3.81,10.32,5.13,22.43,3.46,35.33a67.54,67.54,0,0,1-9.72,27.85c-7.28,11.47-21.41,8.22-21.41,8.22l-35.73-44.25Z" transform="translate(-37.17 -6.66)"/><path class="cls-13" d="M190.45,121.67c15.37,1.81,27.47,10.59,34.89,23.54L166.58,183s37.42,36.71,52.88,39.29c9.73,1.62-12,10.86-12,10.86s8.19,7.5,10.11,10.85c4.11,7.17,6.67,16.16,4.86,20.73l-7.11,94.74s0.44,5.45-5.12,12.82L200.74,397s-16.67,90.87-20,92.06c0,0-1.84,8.39-3.64,13.45,0,0-7,16.37-24.74,17l-22.12-34.31S132,428,134,423.68s-8.41-17.73-9.07-21.43-8.92-16.68,0-32.17c3-5.25,10.1-13,10.88-21a40.57,40.57,0,0,0-1.07-14.1c-1.57-5.82-11.43-46.74-8.55-60.76s3.16-29.83,18.11-43.72c0,0,4.85-6.38,5.9-9s-17.63-33.4-14.89-59.25c2.6-24.48,26.18-44.05,55.24-40.64" transform="translate(-37.17 -6.66)"/><path class="cls-11" d="M187.84,281.69s22.12,3.64,32.45-6.89c0,0,5,18.86,4.28,30.58,0,0-17,4-25.2,1.34S187.84,281.69,187.84,281.69Z" transform="translate(-37.17 -6.66)"/><path class="cls-5" d="M130.23,485.18s-3.55,4.71-3.1,10.29a241.23,241.23,0,0,1,52.57,4.19,22.47,22.47,0,0,0,1.89-12S149.21,488,130.23,485.18Z" transform="translate(-37.17 -6.66)"/><path class="cls-14" d="M124.43,400.74s69.79-2.22,85.74-28.49c0,0-2.67,17.39-11.55,24.84,0,0-40.95,25.32-64.91,22.79C133.72,419.87,124.5,409.84,124.43,400.74Z" transform="translate(-37.17 -6.66)"/><path class="cls-5" d="M149.33,223.05l36.37,10.49s30.66,30.7,11.63,121.37l-16.47-4s-31.42,5.91-53.29-65.83C117.58,252.31,149.33,223.05,149.33,223.05Z" transform="translate(-37.17 -6.66)"/><path class="cls-5" d="M135.73,341.13s49.83,15.9,81.52,6.62c0,0-.37,9.48-3.87,16.9,0,0-66.63-2.05-80.36-6.38A22.85,22.85,0,0,0,135.73,341.13Z" transform="translate(-37.17 -6.66)"/><path class="cls-13" d="M177.74,353.44c3.33-.27,3.73,4,1,4.19C175,357.85,176.11,353.58,177.74,353.44Z" transform="translate(-37.17 -6.66)"/><path class="cls-13" d="M189,358.2c-4,.23-2.79-4.31-1.06-4.45,3.53-.28,4,4.28,1.06,4.45" transform="translate(-37.17 -6.66)"/><path class="cls-13" d="M200.46,359.14c-5.16.3-3.64-5.62-1.38-5.8,4.61-.37,5.17,5.58,1.38,5.8" transform="translate(-37.17 -6.66)"/><path class="cls-13" d="M211.13,358.6c-4.71.4-3.16-4.65-1.1-4.86,4.22-.44,4.56,4.57,1.1,4.86" transform="translate(-37.17 -6.66)"/><path class="cls-2" d="M121.06,233.08c7.62,2.74,4.18,11.77-2,9.55S114.87,230.86,121.06,233.08Z" transform="translate(-37.17 -6.66)"/><path class="cls-2" d="M116.62,249.62c6,2.3,4.67,13.17-2.12,10.62S110.66,247.33,116.62,249.62Z" transform="translate(-37.17 -6.66)"/><path class="cls-5" d="M111.77,268.44s-9.11,37.78-8.07,38.64,4.07,2,4.52,1c1.22-2.69,9.75-38.05,9-38.77S112.05,267.18,111.77,268.44Z" transform="translate(-37.17 -6.66)"/><path class="cls-15" d="M195.75,278.07" transform="translate(-37.17 -6.66)"/><path class="cls-5" d="M209.67,350.53l7.38-.38s21.45-79.72-1.47-111.71l-8.22-.64s19.17,21,10.17,68Z" transform="translate(-37.17 -6.66)"/><path class="cls-16" d="M214,218.57s-22.2-10.65-26-18.6c0,0-7.69-26.47,1-33.85s30.75-13.61,30.75-13.61,3.47,11.5,1,18.73,5.91,21,4.39,23.43c-0.87,1.4-3.81,0-7.63.36,0,0-1.19,2.73.35,8.52,0.84,3.14-.06,12.29-3.85,11.67" transform="translate(-37.17 -6.66)"/><path class="cls-7" d="M172.95,187l17.83,15.27s-7.72-26.38,3.43-34.59L173.89,181Z" transform="translate(-37.17 -6.66)"/><path class="cls-17" d="M216.74,169.62a2.7,2.7,0,0,1-1.52,2.15c-1.68.72-5.37-.31-6.46,0.11-1.44.56-9.07,4.67-9.07,4.67s1.71-4.23,7.53-6.24C210.29,169.26,216.4,168.83,216.74,169.62Z" transform="translate(-37.17 -6.66)"/><path class="cls-18" d="M210.49,176.88c1-.31-0.72,4.75-0.72,4.75-1.54-1.56-5.3-2.52-5.3-2.52S208.4,177.56,210.49,176.88Z" transform="translate(-37.17 -6.66)"/><path class="cls-19" d="M211.84,183.33c-0.65-.37-1.26-0.77-1.9-1.13s-1.26-.73-1.89-1.1-1.24-.77-1.88-1.12a9,9,0,0,0-2-.85l-0.38-.11,0.38-.14c0.88-.32,1.72-0.78,2.57-1.18l2.57-1.2c0.86-.39,1.74-0.74,2.63-1.08s1.78-.66,2.7-0.94l0,0.07c-0.8.52-1.63,1-2.47,1.44s-1.69.87-2.56,1.24-1.76.72-2.65,1-1.82.58-2.74,0.84v-0.24c0.7,0.25,1.39.52,2.09,0.76a12.31,12.31,0,0,1,3.92,2.1,12.17,12.17,0,0,1,1.64,1.52Z" transform="translate(-37.17 -6.66)"/><path class="cls-19" d="M212.33,176.57c2.46,0.55.95,6.59-2.56,5.06C206.68,180.28,208.42,175.69,212.33,176.57Z" transform="translate(-37.17 -6.66)"/><path class="cls-7" d="M205.21,201.23a50.89,50.89,0,0,0,5.2,1.26c2.32,0.21,4.9-1.18,6.71-1.32,0.69-.05,2,3.14.66,3.66a1.56,1.56,0,0,1-.67,2.49c-2,.81-6.61-0.89-8.28-2.52C205.2,201.23,205.67,202,205.21,201.23Z" transform="translate(-37.17 -6.66)"/><path class="cls-5" d="M174.31,187.69s33.91,28.95,52.39,31.47c0,0,2.07,5.41-5.17,10.34,0,0-35.53-17.17-50.28-38.44Z" transform="translate(-37.17 -6.66)"/><path class="cls-5" d="M138.57,146.88s-5.36,8.32-3.69,10.14c0,0,20.35,22.06,27.76,27.28l0.71-3.52s-22.17-24.69-24.79-33.9" transform="translate(-37.17 -6.66)"/><path class="cls-5" d="M167.93,175.24c15.05,2.36,10.46,26.71-2.51,21.5S159.61,173.93,167.93,175.24Z" transform="translate(-37.17 -6.66)"/><path class="cls-3" d="M168.27,182.64c5.16,1.06,5.35,9.55-.64,7.42S165.41,182.05,168.27,182.64Z" transform="translate(-37.17 -6.66)"/><path class="cls-5" d="M172.89,184.62l-2.74-5.92s43.12-39.83,52.71-43.24c0,0,8.32,7.31,7.93,16.82,0,0-42.09,15.14-57.9,32.34" transform="translate(-37.17 -6.66)"/><path class="cls-2" d="M211.46,304.39c-2.88-1.85-7-2.11-7.53-3.71s-1.21-4.8-3-7.6-4.72-6.84-4.72-6.84-4.51-16.39-9.69-19.95c0,0-10-24.43-17-28.49-4-2.3-11.11-9.61-23.25-1.9s-18,24.41-16.12,29.64,16.15,38.44,28.79,41.8c0,0,7.38,18.28,25.14,24.09,0,0,16.1,13.94,31.13,11.2,0,0,9.11,2.9,21-6.34,0,0,18.25-7.18,26.56-12.15s11.34-8.86,15.09-11.84,15.69-7.16,15.69-7.16,22.54-5.38,27-18.91c0.18-.54-11.46,8.67-12,8.76-0.82.14,10.15-8,12.24-10.39,2.5-2.85,6.69-12.18,3.8-12.67,0,0-8.14,9-11.76,10.78,0,0,7.8-6.86,9.27-8.31,3.9-3.85,4.67-9.47.76-13.91L311,273.77s11.11-12.28,10.53-13.49c0,0,1.29-5.86-6.35-7-0.88-.13-7,12.71-14.3,16.46,0,0,6.86-6.26,5.45-8.75-0.88-1.56-4-1.57-5-1.58-2.05,0-11.26,11.35-14.85,13.1-2.52,1.23-41.56,16.81-64.84,26.85A113.29,113.29,0,0,0,211.46,304.39Z" transform="translate(-37.17 -6.66)"/><path class="cls-3" d="M191,337s13.37-17.07,13.24-35.89c0,0,7.7-.41,9.8,3.22,0,0,3,26.18-14.88,36.76C199.13,341.11,193.57,341.7,191,337Z" transform="translate(-37.17 -6.66)"/><path class="cls-5" d="M149.33,223.05s43,14.88,66.25,15.38c0,0,1.53-6.06-3-7.72,0,0-23.62.88-63.41-12.61C148.08,217.74,147.23,222.94,149.33,223.05Z" transform="translate(-37.17 -6.66)"/><path class="cls-17" d="M213.22,197.11c0.89-.49,3.86-1.9,4.38-0.3a5.73,5.73,0,0,1,.09,3.25s-11.25,3.57-15-.91C202.67,199.15,209.63,199.09,213.22,197.11Z" transform="translate(-37.17 -6.66)"/><path class="cls-3" d="M156.52,253.6c-17.8,1-15.3,28.92,2,28.65,21.65-.33,15.77-29.62-2-28.65" transform="translate(-37.17 -6.66)"/><path class="cls-5" d="M266.54,280.61s14.7,15.47,12.05,31.17l15.56-5.39s11.45-11.27-9.49-34.52C284.66,271.88,271.49,275.54,266.54,280.61Z" transform="translate(-37.17 -6.66)"/><polygon class="cls-7" points="123.89 267.82 121.17 262.45 119.54 268.18 114.94 268.62 120.5 255.59 129.02 267.36 123.89 267.82"/><line class="cls-8" x1="115.79" y1="268.14" x2="122.03" y2="251.27"/><line class="cls-8" x1="128.22" y1="267.11" x2="118.56" y2="252.52"/><path class="cls-5" d="M221.66,299.33s-7.24.65-8.4,4.08c0,0,9.68,21.54,2,39.24,0,0,7.93,3.55,13.49-1.41,0,0,12-21-7-41.91" transform="translate(-37.17 -6.66)"/><path class="cls-10" d="M651.57,413.84s-22,36.14-24.79,40-53,6.65-57.35,6.28S560,451,555.88,446.23s-29-18.14-37-22.48-24.23-49.5-31-57.31-11.17-64.76-14.34-68.53-9.35-27-5.43-33.93,6.23-7.69,7.32-8.88,1.2-18.69,3.36-24.39,7.87-6.11,9.82-11.25-5.72-25.27-11.88-36.37,0.4-38.88,5.64-49.3,34.51-4.14,43.51-1.37,8.26,32.11,11.17,39.1S526.35,205.86,526.26,212s17.39,27.76,20.51,36.75-3,36.31-5.59,46.65-4.7,43.45-4.7,43.45c17.78,0.21,29.83,13.55,33.48,22.85a75.78,75.78,0,0,1,3.93,17s12.79,17,16.8,19.73,19.42-4.4,35-8.23,33.74,0.7,33.74.7Z" transform="translate(-37.17 -6.66)"/><path class="cls-20" d="M595.53,398.91c-6.92,10.64-4.38,33-4.38,33,2.34,0.89,10.28-5.41,10.28-5.41-7.6-18.6,6.56-31.41,6.56-31.41C608,395.84,595.43,398.87,595.53,398.91Z" transform="translate(-37.17 -6.66)"/><path class="cls-20" d="M584,391.54c-1.76,24.68-10.45,29-10.45,29l5.73,6.88c9.61-9,10.57-29.57,10.57-29.57Z" transform="translate(-37.17 -6.66)"/><path class="cls-11" d="M578.17,384.31c-2.93,23.81-19.47,19.78-19.47,19.78l-1-15.77c9,6.32,15.88-12.27,15.88-12.27A29.09,29.09,0,0,0,578.17,384.31Z" transform="translate(-37.17 -6.66)"/><path class="cls-3" d="M548.59,326.37c10.89,1.45,31.49-8.6,42.14-13.55s-7.55-102.53-9.44-105.17c-1.2-1.63-14.5-7.74-17.24-7.28-3.89.67-27.71,13-27.71,13S537.57,325,548.59,326.37Z" transform="translate(-37.17 -6.66)"/><path class="cls-21" d="M521.36,169.65l-36.14,42.88s-13.95,2.95-20.92-8.57a67.45,67.45,0,0,1-9-27.68,74.14,74.14,0,0,1,4.19-34.77c6.78-17.32,20.45-4,23.91-2.7Z" transform="translate(-37.17 -6.66)"/><path class="cls-13" d="M467,249.26c1.61-9.33,12.81-29.58,12.81-29.58s-21.29-9.57-11.68-10.95c15.38-2.19,53-37.67,53-37.67L464,132.6c7.57-12.64,19.75-21.07,34.93-22.48,28.76-2.79,51.59,17.09,53.5,41.13,2.19,25.53-16.87,55.52-15.93,58.13s5.59,9,5.59,9c14.46,14,14.43,29.64,17,43.54s-8.08,54-9.7,59.74A39.94,39.94,0,0,0,548,335.55c0.53,7.9,10.32,26.37,10.32,26.37,3.55,10.11,2.47,16.34,1.72,20s-1.58,18,.24,22.23,21.51,25.37,21.51,25.37a66.81,66.81,0,0,0,12.49-.51c8.26-8.53,54.26-12.8,55.44-10l1.1,31.53S636.78,465,623,466c-7.36.52-21.2,0.63-21.2,0.63-4.52,3.74-10.93,3.45-10.93,3.45s-2.4,4.65-19.9,3.69S547,456.53,547,456.53c-1.63-5-8.28-8.06-8.28-8.06-3.27-1.24-8.55-6.23-19.83-16.82-14-13.1-28-36.17-33.83-50.14-4.43-10.88-5.36-32.4-5.36-32.4-4-17.22-6.81-32-7.76-40.48Z" transform="translate(-37.17 -6.66)"/><path class="cls-22" d="M538.67,448.48c1.55,6.36,8.38,8.09,8.28,8.06,27-6.88,34.83-27,34.83-27-1.07-4.79-7.18-7.86-7.18-7.86-19.47,28.23-35.93,26.81-35.93,26.81" transform="translate(-37.17 -6.66)"/><path class="cls-22" d="M584.53,429.61c8.07,15.68,6.31,40.35,6.31,40.35,7.82,0,10.93-3.45,10.93-3.45,4.66-20.48-7.5-37.49-7.5-37.49C589.88,427.35,584.5,429.7,584.53,429.61Z" transform="translate(-37.17 -6.66)"/><path class="cls-14" d="M559.88,402.94c-23.66,2-74.9-21.33-74.9-21.33-6.61-18.12-4.95-27.86-4.95-27.86,15.21,26.19,79.49,33.76,79.49,33.76C559.32,396.52,560,403,559.88,402.94Z" transform="translate(-37.17 -6.66)"/><path class="cls-22" d="M557.41,272.6c-23,70.31-53.92,63.83-53.92,63.83l-16.35,3.64c-3.91-117.51,18.34-120.63,18.34-120.63L537.34,211S568.08,240.5,557.41,272.6Z" transform="translate(-37.17 -6.66)"/><path class="cls-22" d="M548.12,335.49c-13.58,3.94-69.73,7.9-69.73,7.9-5.64-9.94-5.18-24.42-5.18-24.42,31,9.83,77.44-2.31,77.44-2.31C549.13,325.5,548,335.65,548.12,335.49Z" transform="translate(-37.17 -6.66)"/><path class="cls-13" d="M505.84,337.86c-2.71-.17-2.25-4.49,1-4.1C508.5,334,509.47,338.17,505.84,337.86Z" transform="translate(-37.17 -6.66)"/><path class="cls-13" d="M495.63,338.27c-2.9-.24-2.37-4.75,1.13-4.39,1.73,0.23,2.82,4.7-1.13,4.39" transform="translate(-37.17 -6.66)"/><path class="cls-13" d="M484.37,338.92c-3.76-.25-3.1-6.2,1.49-5.64,2.18,0.18,3.58,6.06-1.49,5.64" transform="translate(-37.17 -6.66)"/><path class="cls-2" d="M566.79,230.92c-6.13,2.06-9.37-6.87-1.77-9.44C571.15,219.42,572.92,228.86,566.79,230.92Z" transform="translate(-37.17 -6.66)"/><path class="cls-2" d="M571,248.44c-6.77,2.35-7.82-8.42-1.88-10.55S577.64,246,571,248.44Z" transform="translate(-37.17 -6.66)"/><path class="cls-22" d="M567.94,257.24c-0.69.7,7,35.79,8.09,38.46,0.46,1,3.45-.08,4.5-0.86s-7.09-38.3-7.09-38.3C573.18,255.27,568.82,256.61,567.94,257.24Z" transform="translate(-37.17 -6.66)"/><path class="cls-23" d="M490.4,264.32" transform="translate(-37.17 -6.66)"/><path class="cls-22" d="M468.14,291.17c-0.81-1.81,19.25-69.7,19.25-69.7L475,223.94s-17.59,32.58-15.27,44.8a43.4,43.4,0,0,0,6.22,16l9.44,51.27,4.71-1.42Z" transform="translate(-37.17 -6.66)"/><path class="cls-24" d="M477.19,199.85c-6.41-6.49-3.15-16-3.24-16a13.26,13.26,0,0,1-6-2.27c2.83-8.87,2.14-13,.29-19.67s4.21-17.87,4.21-17.87,20.39,6,27.55,12.79-0.67,31.4-.67,31.4c-3.6,7.51-22.15,11.6-22.15,11.6" transform="translate(-37.17 -6.66)"/><path class="cls-20" d="M514.1,169l-19.8-13.49c10.87,8.29,2.67,34.16,2.67,34.16L514.84,175Z" transform="translate(-37.17 -6.66)"/><path class="cls-13" d="M499.17,225.94s-14.06,21.3-3,61.75c1.59,6-25.54,20.26-25.54,20.26s9-13.69.8-21.3c-5.58-5.32-8.9-14.6-8.71-20.2,0.34-9.07,4.51-16.69,7.44-23.59a81.64,81.64,0,0,1,13-21.37Z" transform="translate(-37.17 -6.66)"/><path class="cls-11" d="M485.29,306a50.76,50.76,0,0,1-12.5,7.88A47.88,47.88,0,0,1,469,283.8a9.82,9.82,0,0,0,4,1.62,15.2,15.2,0,0,0,13.59-6.51S491.75,300.55,485.29,306Z" transform="translate(-37.17 -6.66)"/><g id="eye"><path class="cls-25" d="M484.57,159.77a24.28,24.28,0,0,1,5.53,4.88s-5.46-2.82-7-3.73-5.43-.35-7.18-0.8a2.6,2.6,0,0,1-1.91-2C475.13,157.58,482.1,158.4,484.57,159.77Z" transform="translate(-37.17 -6.66)"/><path class="cls-26" d="M484.19,167.54a29.2,29.2,0,0,0-4.8,3.63s-2.18-5.53-1.26-4.86C480.34,168.11,484.19,167.54,484.19,167.54Z" transform="translate(-37.17 -6.66)"/><path class="cls-27" d="M481.4,169.26a18.76,18.76,0,0,1,1.76-1.26c0.55-.33,1.05-0.24,1.83-0.59l0.38,0.68a4.24,4.24,0,0,1-1.52.06c-0.41,0-.49-0.4-1-0.48a15.29,15.29,0,0,1-3-.37,12.19,12.19,0,0,1-2.52-1L475,165.11c1.79,0.36,3.51.9,5.26,1.35,0.91,0.13,2,.43,2.61.45,0.41,0,.73.06,1.23,0.14l0.58,0.44,0.78,0.19,2.57-.85L485.5,168c-0.64.29-1.2,0.62-1.88,1l-1.91,1.09-1.91,1.09-1.91,1.09A33.25,33.25,0,0,1,481.4,169.26Z" transform="translate(-37.17 -6.66)"/><path class="cls-27" d="M484.12,167.73l0.39-1a3.91,3.91,0,0,0,.61-0.2,4.13,4.13,0,0,0,1.17-.84,4.43,4.43,0,0,0,.81-1.3,2.44,2.44,0,0,0,.15-0.69,2.49,2.49,0,0,1,0,.76,5.35,5.35,0,0,1-.64,1.68,7.58,7.58,0,0,1-1.13,1.28,2.49,2.49,0,0,1-.53.55Z" transform="translate(-37.17 -6.66)"/><path class="cls-27" d="M484.78,167.12a0.35,0.35,0,0,1,.22,0,1.09,1.09,0,0,0,.5.08,3.32,3.32,0,0,0,1.66-.44,2.84,2.84,0,0,0,1.26-1.34,1.72,1.72,0,0,0,.13-0.91l0,0.22c0.19,0.07.08,0.35,0.07,0.67a3.42,3.42,0,0,1-1.21,1.79,3.71,3.71,0,0,1-1.88,1,3.33,3.33,0,0,0-.67.07,0.31,0.31,0,0,1-.22,0Z" transform="translate(-37.17 -6.66)"/><path class="cls-27" d="M483.42,167a4.45,4.45,0,0,0,.75-0.57,2.57,2.57,0,0,0,1-1.13,4.82,4.82,0,0,0,.6-1.59c0-.41.06-0.73,0.06-0.73a2.49,2.49,0,0,1,0,.76,5.79,5.79,0,0,1-.32,1.7,8.44,8.44,0,0,1-.86,1.71,2,2,0,0,1-.4.49l-0.13.06a0.77,0.77,0,0,1-.29.21h0Z" transform="translate(-37.17 -6.66)"/><path class="cls-27" d="M478.7,171c-2.94.7-3.26-4.66-1-4.76C480.72,165.69,482,170.33,478.7,171Z" transform="translate(-37.17 -6.66)"/></g><path class="cls-20" d="M482.72,191.47a16.47,16.47,0,0,1-8.56,4.24c-1.63-1-.71-3.48-0.71-3.48-1.31-.5-0.48-2.11-0.24-2.76,0.35-.94,5.08.43,8.42-0.77a47.77,47.77,0,0,0,6.08-3.9C487.46,186.85,486.37,188,482.72,191.47Z" transform="translate(-37.17 -6.66)"/><path class="cls-11" d="M655.8,380.68c3.64-2.26,11.89-7.68,16-8.15,14.53-1.66,36.29,59.74,36.49,60.88s-7.54,6.34-10.91,8.48c-2.5,1.51-9.92,2.76-12.35-.72-2.1-2.93-13.35-18.11-20.51-21.78S644.61,424,644.61,424c-4.77-1.81-16.86-34.52-16.86-34.52C627.34,388.61,652.12,383,655.8,380.68Z" transform="translate(-37.17 -6.66)"/><path class="cls-10" d="M702.28,438.62s4.91-5.62-1.22-18.22c-3-6-29.23-47.87-29.23-47.87a23,23,0,0,1,11.67-3.7c4.21-.11,11.39,15.65,19.9,32.14,5.1,10,13.46,23.17,10.19,27.28C705.82,438,702.28,438.62,702.28,438.62Z" transform="translate(-37.17 -6.66)"/><path class="cls-20" d="M647.38,383.7s17.23,40.32,14.47,39.7a16.79,16.79,0,0,0-5.69-.23l-13.9-38.1Z" transform="translate(-37.17 -6.66)"/><path class="cls-12" d="M633,387.55s14.89,37.19,14.18,38.21a10.81,10.81,0,0,1-5.23,3.36S626.18,390,626.82,389.7C629.23,388.69,633,387.55,633,387.55Z" transform="translate(-37.17 -6.66)"/><path class="cls-14" d="M657.2,411.69c4.23-2.14,13.76-7.51,18.36-7.8,16.24-.8,35.86,68.77,36,70.1s-8.81,6.61-12.69,8.66c-2.85,1.59-11.17,2.4-13.61-1.63-2-3.34-13.46-20.93-21.12-25.54s-21.17,3.1-21.17,3.1c-4.43-3.82-11.85-39.57-11.85-39.57C630.68,417.9,653,413.83,657.2,411.69Z" transform="translate(-37.17 -6.66)"/><path class="cls-13" d="M704.55,479.47s5.91-6,0-20.32C701.7,452.3,675.61,404,675.61,404a25.21,25.21,0,0,1,13.11-3.27c4.74,0.19,11.55,18.06,19.77,37,4.89,11.37,13.32,26.65,9.31,31C708.4,478.9,704.55,479.47,704.55,479.47Z" transform="translate(-37.17 -6.66)"/><path class="cls-22" d="M650.2,414.07s14.87,41.46,12.09,40.62a18.5,18.5,0,0,0-5.67-.55l-11.46-38.89Z" transform="translate(-37.17 -6.66)"/><path class="cls-3" d="M636.46,417.31S647.79,455.72,647,456.7a10.9,10.9,0,0,1-5.56,2.81s-11.9-40.55-11.29-40.75C632.54,418.07,636.46,417.31,636.46,417.31Z" transform="translate(-37.17 -6.66)"/><path class="cls-22" d="M516.42,179c-15,20.63-50.42,36.82-50.42,36.82-7-5-4.87-10.29-4.87-10.29,18.22-2.08,52.29-29.91,52.29-29.91Z" transform="translate(-37.17 -6.66)"/><path class="cls-22" d="M514.91,172.55c-15.28-17.23-56.45-33.05-56.45-33.05C458.31,130,466.63,123,466.63,123c9.44,3.58,51.11,43.75,51.11,43.75l-2.83,5.77" transform="translate(-37.17 -6.66)"/><path class="cls-11" d="M525.11,172.46c7.45-5,27.94-26.31,27.94-26.31,1.62-1.74-3.45-10.08-3.45-10.08-2.77,9-25.2,32.91-25.2,32.91Z" transform="translate(-37.17 -6.66)"/><path class="cls-22" d="M522,184.73c-12.86,4.86-16.88-19.23-2-21.29C528.21,162.3,534.81,179.88,522,184.73Z" transform="translate(-37.17 -6.66)"/><path class="cls-3" d="M520,178.1c-5.87,1.95-5.6-6.4-.43-7.33C522.32,170.22,526,176.1,520,178.1Z" transform="translate(-37.17 -6.66)"/><path class="cls-22" d="M537.57,206.16c-39.46,12.42-62.8,11.06-62.8,11.06-4.46,1.62-3.09,7.6-3.09,7.6,22.92-.08,65.66-13.83,65.66-13.83C539.4,210.92,538.7,205.73,537.57,206.16Z" transform="translate(-37.17 -6.66)"/><g id="caito_arm" data-name="caito arm"><path class="cls-2" d="M361.17,284.31c-2.71-.36-15.72-7.84-15.82-7.67-1.86,5.54.91,10.4,5.85,12.48,1.92,0.7,11.54,4.12,11.54,4.12-4.06-.26-14.79-5.52-14.79-5.52-2.41,1.46,4.89,8.49,8.2,10.17,2.8,1.36,15.84,4.76,15,5-0.5,0-14.51-4.06-14.19-3.63,9.14,10.74,31.74,7.32,31.74,7.32s12.44-.6,17,0.77,8.78,3.84,18.22,5.28,28.84,1.33,28.84,1.33c14.29,4,32.38-4.47,32.38-4.47,18.3-1.94,25.37-21.18,25.37-21.18,12.94-.65,34-30.54,36.88-35.24s3.75-18.22-6.36-28.14-18.57-4.32-22.82-2.93C510.6,224.44,496,246,496,246c-5.68,2.39-13.36,17.27-13.36,17.27s-3.56,3.33-5.91,5.65-3.65,5.39-4.48,6.76-4.83.8-8,2c-3.66,1.39-14.8-2.25-24.74-1.52-24.93,1.87-53.51-2-56.32-2.19-3.93-.29-12.87-7.51-13.48-8.24s-3.77,1.56-4,3.29c-0.42,2.79,3.25,7.73,3.25,7.73-8-.77-18.34-10.27-19.1-9.79-6.62,3.93-3.26,8.79-3.26,8.79-0.11,1.34,14.58,8.56,14.58,8.56" transform="translate(-37.17 -6.66)"/><path class="cls-3" d="M468.69,315.67c-15.07-13.89-6.91-38.56-6.91-38.56,2.68-3,10.06-1.12,10.06-1.12-3.92,18.11,5.53,37.36,5.53,37.36C473.89,317.32,468.6,315.62,468.69,315.67Z" transform="translate(-37.17 -6.66)"/><path class="cls-22" d="M468.69,315.67c-13.63-13.37-6.91-38.56-6.91-38.56-2.33-2.71-9.14-.19-9.14-0.19-9.76,26.14,3.13,37.65,3.13,37.65A24.91,24.91,0,0,0,468.69,315.67Z" transform="translate(-37.17 -6.66)"/><path class="cls-22" d="M384.59,272.83c-10.54,29,4.11,35.09,4.11,35.09l16.23-.86c-8.19-13.44-.89-31.72-0.89-31.72C397.68,272.51,384.64,272.75,384.59,272.83Z" transform="translate(-37.17 -6.66)"/><path class="cls-3" d="M509.8,260.28c-10.15-11.59,7.3-29.41,18.22-17.93S522.53,274.74,509.8,260.28Z" transform="translate(-37.17 -6.66)"/><polygon class="cls-20" points="471.93 244.98 475.25 248.18 480.75 245.69 478.39 251.28 482.09 254.82 482.28 254.12 485.95 241.01 489.89 239.56 489.61 238.68 486.32 239.84 487.03 237.34 486.11 237.12 485.17 240.19 474.51 244.22 471.93 244.98"/></g><path class="cls-13" d="M516.12,333.31c1.64,0.19,2.61,4.41-1,4.1-2.62-.14-2.16-4.46,1-4.1" transform="translate(-37.17 -6.66)"/></svg>