<svg id="Layer_1" data-name="Layer 1" xmlns="http://www.w3.org/2000/svg" viewBox="0 0 726 550.33"><defs><style>.cls-1{fill:#d4d0bf;}.cls-2{fill:#1197cc;}.cls-3{fill:#999484;}.cls-4{fill:#e2c51b;}.cls-5{fill:#daf0f5;stroke:#dbf0f5;}.cls-19,.cls-20,.cls-21,.cls-5,.cls-9{stroke-miterlimit:10;}.cls-6{fill:#e5e1cf;}.cls-7{fill:#1eabf1;}.cls-8{fill:#a9a493;}.cls-19,.cls-20,.cls-21,.cls-9{fill:none;}.cls-9{stroke:#b885ba;}.cls-10{fill:#f8c69d;}.cls-11{fill:#c4a614;}.cls-12{fill:#0faa8c;}.cls-13{fill:#20ceac;}.cls-14{fill:#efede4;}.cls-15{fill:#754531;}.cls-16{fill:#fbf6fa;}.cls-17{fill:#1a3f3d;}.cls-18{fill:#193f3d;}.cls-19{stroke:#1eabf1;}.cls-20{stroke:#e2c51b;}.cls-21{stroke:#46bda4;}.cls-22{fill:#764633;}.cls-23{fill:#f8f5f9;}.cls-24{fill:#146180;}</style></defs><title>cosmic-proposal</title><path class="cls-1" d="M393.8,133.91c0-1.37-.28-13.24-3-14.68s-22.27-20.37-26.07-14.83,6.13,33,9.83,43.18S398,197.87,413.2,203.39c13.9,5,48.41-18.78,48.41-18.78s-11-5.75-28.07-3.14c0,0-3.62-7.24-8-9.94,0,0-11.7-18.71-18.32-21.61s-13.48-14.64-13.44-16" transform="translate(-8.12 -9.63)"/><path class="cls-2" d="M365.76,120.09s0.51,8.72,3.14,11c0,0,14.44,4.22,21.29-1,2.65-2,1.37-11.39-2-10.42C385.7,120.38,365.76,120.09,365.76,120.09Z" transform="translate(-8.12 -9.63)"/><path class="cls-2" d="M427.21,168.87s-11.07,15.29-28.45,21.84c0,0,7.21,10.68,12.31,11.6,0,0,14.22-7.09,19.74-20C430.81,182.31,432.44,169.61,427.21,168.87Z" transform="translate(-8.12 -9.63)"/><path class="cls-1" d="M640.09,145.26s-17.06,7.62-26.93,20.3-17.57,27.72-22.39,28.12-25.37-5.07-25.37-5.07a74.63,74.63,0,0,0-13.66-10.92c-8.6-5-26.31-8-40.43,2.79,0,0-18.81-27.24-23.17-37s-16.47-35-24.47-40.13-35.13-11.24-38.9-16.11-10-34.8-16.61-38.46S384,21.62,375.15,25s-35.58,16.65-33.26,28S356.21,90.35,368,95.26s30.25,16,31.89,21.2-2.55,9.1-.72,14.9S411.72,151,411.6,152.62s-1.41,3.63-.19,11.54,20.43,22.27,25.22,23.31,43.57,43,53.74,44.93,50.75,27.37,59.82,25.78,36.86-6.53,43-5.28,15.6,5,19.3,2.52,41.37-35.71,41.15-40.43-5.36-46.8-5.36-46.8Z" transform="translate(-8.12 -9.63)"/><path class="cls-2" d="M602.25,180.3s-3.13,18.84,14.26,28.7c0,0-2.35,9.87-4.74,10.63,0,0-15.81-16-17-28.57C594.75,191.07,602.8,180.91,602.25,180.3Z" transform="translate(-8.12 -9.63)"/><path class="cls-2" d="M589.68,193.69s12,16.81,10,29.76l-8.75-1.85s4.14-8.8-9.71-29.22Z" transform="translate(-8.12 -9.63)"/><path class="cls-3" d="M563.46,186.72s6.17,18.82-4.88,19.44l10.56,11.73s15.51-7.08,3.06-27.56A31,31,0,0,1,563.46,186.72Z" transform="translate(-8.12 -9.63)"/><path class="cls-4" d="M433.45,82.08s11-24.46,13.68-27.37c1.85-2,16.08-5.53,18-5,3.15,0.88,77.86,66.25,72.55,76.71s-15.23,31.1-24.72,36.79S433.45,82.08,433.45,82.08Z" transform="translate(-8.12 -9.63)"/><path class="cls-5" d="M345.71,56.34c-3.48,1.1-22.51-.88-17.15,16.9,3.13,10.39,9.29,20.71,18.28,29.88A66.64,66.64,0,0,0,371,119.27C383.6,124,392.79,113,392.79,113l1.82-56.09Z" transform="translate(-8.12 -9.63)"/><path class="cls-6" d="M377.09,120.64C370.39,127.7,393,122,393,122s-2,10.78-1.51,14.55c1,8.09,21.25,48.64,36.08,49L445,200.84s16.64,14.18,23.24,20.28c0,0,23.64,24.53,28.7,23.89s0.53,0.92.53,0.92S536,262.66,555,264.31c15.43,1.34,22.63,1.95,26,.9,0,0,7.1-1.76,11.53,1.15,0,0,15.21,8.76,29.56-1.36s13.23-15.18,13.23-15.18,5.21-3.72,6.41-9.52c0,0,10.82-8.62,16.29-13.6,10.23-9.31,12.3-29.36,12.3-29.36l-20.39-24.07c-2.62-1.46-36.11,30.35-37.35,42.21a69,69,0,0,1-9.44,8.13s-28.51-4.4-32.56-6.63-12.24-14-13.92-17.3S551.9,190.8,542.9,185c0,0-19.11-8.48-24.45-14.29A40,40,0,0,1,510.91,159c-2.22-5.52-18.79-43.6-29.39-52.93S461.3,84.45,441.27,82.4c0,0-7.62-2.14-10-3.55s-6-36.79-23.5-55.51c-16.6-17.73-46.8-19.13-67.66.84-11,10.56-15.34,24.67-13.48,39.28l68.72-5.21S387.74,109.41,377.09,120.64Z" transform="translate(-8.12 -9.63)"/><path class="cls-7" d="M581,265.21s13.78-9.09,11.58-43.33c0,0,6.69-1.36,10.54,1.73,0,0,6.36,20.64-10.59,42.74,0,0-6.42,2.9-11.53-1.15" transform="translate(-8.12 -9.63)"/><path class="cls-7" d="M612.53,215.48s20.13,5.82,29.16,24.82c0,0-.3,4.66-6.41,9.52,0,0-13.94-20.44-30-27.81C605.3,222,608.08,216.88,612.53,215.48Z" transform="translate(-8.12 -9.63)"/><path class="cls-8" d="M559.58,204.43s-55.66,35.41-83.84,24.21c0,0,8.68,14.39,21.71,17.29,0,0,54.69-13.41,72.05-29.65A125.88,125.88,0,0,1,559.58,204.43Z" transform="translate(-8.12 -9.63)"/><path class="cls-7" d="M432.79,79.58l-22.4,29.88s-8.5,33.91,60.39,94l12.79-7.39s28.66-11.08,3.23-80.58C475.19,83.74,432.79,79.58,432.79,79.58Z" transform="translate(-8.12 -9.63)"/><path class="cls-8" d="M452.69,162.9s-17.93,20.9-32.33,18.75c0,0,14.22,10,21.78,18.75,0,0,11.51-4,16.34-10.93S452.69,162.9,452.69,162.9Z" transform="translate(-8.12 -9.63)"/><path class="cls-7" d="M508.67,153.74s-30.51,42.48-61.8,51.57c0,0,14.49,11.49,21.34,15.81,0,0,40.2-40.34,49.33-51.23A129.83,129.83,0,0,1,508.67,153.74Z" transform="translate(-8.12 -9.63)"/><path class="cls-7" d="M458.7,210.73l-1.28,2.72s-16.86-13.22-33.19-25.56-34-38-34.47-56.81l6.1-5.39s-6.1,38.37,32.44,59.63Z" transform="translate(-8.12 -9.63)"/><path class="cls-6" d="M482.74,189.09c-2.78,1.77-.54,5.39,1.71,3.89C487.51,190.94,484.1,188.22,482.74,189.09Z" transform="translate(-8.12 -9.63)"/><path class="cls-6" d="M476.67,199.56c3.25-2.17-.37-5-1.81-4.13-3,1.88-.58,5.72,1.81,4.13" transform="translate(-8.12 -9.63)"/><path class="cls-6" d="M469.74,206c4.24-2.83-.48-6.59-2.36-5.39-3.85,2.45-.75,7.47,2.36,5.39" transform="translate(-8.12 -9.63)"/><path class="cls-6" d="M461.36,211.75c3.95-2.49-.27-5.54-2-4.48-3.58,2.16-.87,6.31,2,4.48" transform="translate(-8.12 -9.63)"/><path class="cls-6" d="M461,70.67c-4.37,6.68,3.71,11.75,7.26,6.32S464.57,65.24,461,70.67Z" transform="translate(-8.12 -9.63)"/><path class="cls-6" d="M474.34,81.05c-3.33,5.36,4.15,13.15,8,7.1S477.68,75.7,474.34,81.05Z" transform="translate(-8.12 -9.63)"/><path class="cls-7" d="M489.36,93s29.63,24.34,29.33,25.63-2,4-3,3.46c-2.56-1.4-30.3-24.17-30.14-25.18S488.38,92.17,489.36,93Z" transform="translate(-8.12 -9.63)"/><path class="cls-9" d="M429,150.5" transform="translate(-8.12 -9.63)"/><path class="cls-10" d="M378.67,108.09s12-14.73,10.23-22.8c0,0-9.09-24.22-18.94-25.11s-29.54,7-29.54,7,2.2,12.54,7.81,16.66,8.73,6.94,12,15.65a13.35,13.35,0,0,0,6.09-1.92s3.33,9.41,12.38,10.55" transform="translate(-8.12 -9.63)"/><path class="cls-2" d="M392.77,65.25l-5,22.62s-9.61-25.36-23.27-25.2L388.43,61Z" transform="translate(-8.12 -9.63)"/><path class="cls-2" d="M377,89.34s-1.39,5.19-2.4,6.8c-1.91,3.05-10,1.67-6.14,5.82,0.47,0.5,8.09-2.13,9.44-2.51,0,0-9.49,6.19-3.86,8.12,0,0,5.56-3.7,6.37-9.12C381.09,93.5,378,91.09,377,89.34Z" transform="translate(-8.12 -9.63)"/><path class="cls-3" d="M614.39,163.75s29.72,18.19,34.62,16.7c0,0,4.92-14.41,12.82-16s26.13,3.34,29.57,4.38c4.08,1.24,9.11-4.3,10.13-7.11,1.35-3.73,4.17-12.64,3.31-13.43s-56-35.5-66.38-25.17c-3,2.95-6.08,12.3-7.57,16.33S613.47,163.22,614.39,163.75Z" transform="translate(-8.12 -9.63)"/><path class="cls-1" d="M705.77,141c0.05-5.3-14.77-10.46-24.93-15.08-16.93-7.71-32.27-15.57-35.57-12.87a22.63,22.63,0,0,0-6.82,10.13s46.56,16.54,52.64,19.44c12.65,6,12.27,13.55,12.27,13.55S705.64,153.48,705.77,141Z" transform="translate(-8.12 -9.63)"/><path class="cls-2" d="M623,151.21l34.46,21.28a18.49,18.49,0,0,1,4.63-3.39c2.59-1.21-36-22.16-36-22.16Z" transform="translate(-8.12 -9.63)"/><path class="cls-11" d="M613.75,164.47c-0.3.57,36.31,21.61,36.31,21.61s2.17-2.9,2-5.89C652,178.92,617.26,159,617.26,159A61.41,61.41,0,0,0,613.75,164.47Z" transform="translate(-8.12 -9.63)"/><path class="cls-8" d="M635.22,184.8s27.91,23.44,33.8,23.73c0,0,5.85-14.44,14.71-15.6s28.69,5.61,32.42,7c4.43,1.67,10.4-4.1,11.73-7.14,1.77-4,5.54-13.69,4.65-14.63s-59.41-43.4-71.67-32.72c-3.49,3-7.63,13.18-9.57,17.53S634.25,184.14,635.22,184.8Z" transform="translate(-8.12 -9.63)"/><path class="cls-6" d="M734.11,170.11c0.45-5.87-15.59-12.66-26.5-18.52-18.18-9.77-34.59-19.6-38.45-16.85a25.12,25.12,0,0,0-8.29,10.72s50.35,21.72,56.87,25.37c13.56,7.59,12.6,15.9,12.6,15.9S733.05,184,734.11,170.11Z" transform="translate(-8.12 -9.63)"/><path class="cls-7" d="M643.92,173.11L677,196.5a18.49,18.49,0,0,1,4.83-3.09c2.66-1-34.62-24.44-34.62-24.44Z" transform="translate(-8.12 -9.63)"/><path class="cls-4" d="M634.31,185.23c-0.37.52,34.09,25,34.09,25s2.44-2.68,2.59-5.67c0.07-1.26-32.67-24.44-32.67-24.44S635.77,183.2,634.31,185.23Z" transform="translate(-8.12 -9.63)"/><path class="cls-7" d="M392.09,66.58s-8.17,41.53-21.22,54.5c0,0,1.2,5,9.83,4.61,0,0,16.84-32.75,15.81-58.27Z" transform="translate(-8.12 -9.63)"/><path class="cls-8" d="M396.61,54.63S399.4,22,396,13.2c0,0,9.17,3.37,8.93,5.79,0,0-2.91,29.47-5.64,38Z" transform="translate(-8.12 -9.63)"/><path class="cls-7" d="M389.72,53c-10.45,10.81,7.64,27.26,14.76,15.44S395.49,47,389.72,53Z" transform="translate(-8.12 -9.63)"/><path class="cls-4" d="M393.85,59c-3.44,3.9,1.46,10.7,4.92,5.47S395.75,56.85,393.85,59Z" transform="translate(-8.12 -9.63)"/><path class="cls-7" d="M391.39,63.32L390,57s-57.64-5.73-67.21-2.71c0,0-2.2,10.7,3.75,18,0,0,42.14-13.1,64.82-9" transform="translate(-8.12 -9.63)"/><path class="cls-7" d="M432.79,79.58s-25,37.28-43,51.5c0,0-4.81-3.86-2.23-7.86,0,0,19.12-13.35,42.44-47.62C430.62,74.64,434.37,78.24,432.79,79.58Z" transform="translate(-8.12 -9.63)"/><path class="cls-1" d="M199.19,365s31.7-1.65,54.54,4.36c10.54,2.78,19.49,5.47,22.22,12.45,4.7,12-1.61,18.69-4.27,28.48-1.57,5.78-1.45,9.1-3.26,15.52-8.57,30.53-21.35,64.65-27.35,68.58-9.4,6.16-19.94-5.32-19.94-5.32s-11.45-36.49-.87-58.4c5.56-11.51,14.38-17.14,12.86-22.17s-50.38,17.86-50.38,17.86l-13.63-41.07Z" transform="translate(-8.12 -9.63)"/><path class="cls-12" d="M253.74,369.41s-16.51,30.39-28.91,39.29c0,0,5.86.62,8.31-.14,11.54-3.59,33.52-33.8,32.54-35.43C262.84,368.45,253.08,369.92,253.74,369.41Z" transform="translate(-8.12 -9.63)"/><path class="cls-12" d="M231.15,416.15c0.42,0.91,19.61,9,39,1.83,3.15-1.17,4.23-12.27,2.7-11.16-3.33,2.4-38.31,6.21-39.69,1.73C233.14,408.56,230.25,414.21,231.15,416.15Z" transform="translate(-8.12 -9.63)"/><path class="cls-4" d="M127.82,238.7s-25.33-9.9-29.31-10.12c-2.79-.16-15.57,7.4-16.6,9.19-1.65,2.87-9.43,103.18,1.83,107s33.08,11.73,44,9.12S127.82,238.7,127.82,238.7Z" transform="translate(-8.12 -9.63)"/><path class="cls-5" d="M173.12,157.86c3.3-1.67,15.68-16.59,24.4.08,5.1,9.75,8,21.59,7.94,34.6a67.54,67.54,0,0,1-6.08,28.86c-5.76,12.3-20.18,10.89-20.18,10.89L138.12,193Z" transform="translate(-8.12 -9.63)"/><path class="cls-6" d="M154.36,130.62c-29.26.32-50.14,22.74-49.6,47.35,0.57,26,23,54.17,22.33,56.87s-4.71,9.64-4.71,9.64c-13.05,15.68-11.32,31.39-12.38,45.67s13.93,53.6,16.24,59.17a40.57,40.57,0,0,1,2.86,13.84c0.25,8-5.8,16.62-8.11,22.21-6.83,16.49,3,28.32,4.15,31.9s13.08,15.6,11.73,20.09,6.58,53.8,6.58,53.8c-17.42-11.71-75.4-10.56-76.27-7.65l4,34.25s30.73,9.69,42.94,10c7.49,0.19,21.43-1.7,21.43-1.7,5,3.35,11.39,2.35,11.39,2.35s2.78,4.47,20.35,1.62,22.37-20,22.37-20c1.14-5.25-.49-13.46-0.49-13.46,3.16-1.6,10.49-94.2,10.49-94.2l6.2-25.78c4.58-8,4.57-48.63,4.57-48.63l9-7.67S267.72,294,276.2,287.06s26.29-28.91,25.86-35.7-22.22,2.74-25.32,2.59-9.52,10-10.2,11.25S253.1,273.51,246,275.41c-11.84,3.18-26.62,17.31-26.62,17.31-5.05-16.8-15.09-24.33-15.09-24.33,1.22-4.76-2.48-13.35-7.47-19.94-2.33-3.07-11.41-9.47-11.41-9.47S205.83,227,196,226.68c-15.67-.58-57.47-32.22-57.47-32.22L192,149.51c-9-11.9-22.14-19.06-37.61-18.89" transform="translate(-8.12 -9.63)"/><path class="cls-12" d="M250.9,285s0.76-10.18-1.47-10.61c0,0,7.16-8.22,16.69-8.77,3.37-.2,3.55,7.84,1.82,10.93S250.9,285,250.9,285Z" transform="translate(-8.12 -9.63)"/><path class="cls-13" d="M141.68,479.39a76.07,76.07,0,0,0,2.08,12s18.84,14.58,45.47,5.23a17.59,17.59,0,0,0,3-11.25S174,492.3,141.68,479.39Z" transform="translate(-8.12 -9.63)"/><path class="cls-13" d="M138.29,488.7s-9.6,17.2-2.67,37.37c0,0,2.81,3.23,10.68,2.43,0,0-6.3-18.05.09-34.77C146.38,493.73,143.16,488.41,138.29,488.7Z" transform="translate(-8.12 -9.63)"/><path class="cls-8" d="M124.51,415.83s68.94-11.11,81.41-39.2c0,0-.43,17.58-8.29,26.11,0,0-37.38,30.34-61.47,30.88C136.15,433.62,125.73,424.85,124.51,415.83Z" transform="translate(-8.12 -9.63)"/><path class="cls-8" d="M172.2,289.67s20.83-3.29,29.73-15.06c0,0,9,22.15,9.73,33.87,0,0-16.39,6.14-24.82,4.54S172.2,289.67,172.2,289.67Z" transform="translate(-8.12 -9.63)"/><path class="cls-13" d="M126.52,236.42l37.41,5.76s34.33,26.53,27,118.89l-16.84-1.86s-30.41,9.87-61.25-58.49C98.76,269.49,126.52,236.42,126.52,236.42Z" transform="translate(-8.12 -9.63)"/><path class="cls-13" d="M127.39,352.57s52.16,12.11,82.4-1.13c0,0,.84,9.45-1.69,17.26,0,0-66.35,6.47-80.52,3.93C127.59,372.62,129.89,361.3,127.39,352.57Z" transform="translate(-8.12 -9.63)"/><path class="cls-6" d="M171.34,362.12c3.27-.69,4.22,3.52,1.52,4C169.2,366.84,169.74,362.46,171.34,362.12Z" transform="translate(-8.12 -9.63)"/><path class="cls-6" d="M183.16,365.4c-3.89.73-3.31-3.92-1.62-4.27,3.47-.73,4.47,3.74,1.62,4.27" transform="translate(-8.12 -9.63)"/><path class="cls-6" d="M194.6,364.87c-5.08,1-4.32-5.11-2.11-5.58,4.53-1,5.84,4.87,2.11,5.58" transform="translate(-8.12 -9.63)"/><path class="cls-6" d="M205.12,363c-4.63,1-3.73-4.21-1.71-4.68,4.13-1,5.11,4,1.71,4.68" transform="translate(-8.12 -9.63)"/><path class="cls-14" d="M99.76,250c7.9,1.74,5.64,11.14-.78,9.73S93.34,248.56,99.76,250Z" transform="translate(-8.12 -9.63)"/><path class="cls-14" d="M97.47,267c6.21,1.52,6.32,12.47-.75,10.81S91.26,265.43,97.47,267Z" transform="translate(-8.12 -9.63)"/><path class="cls-13" d="M95.06,286.23S90.84,324.87,92,325.59s4.29,1.44,4.61.4c0.86-2.82,4.81-39,4-39.6S95.18,284.95,95.06,286.23Z" transform="translate(-8.12 -9.63)"/><path class="cls-9" d="M179.58,285.07" transform="translate(-8.12 -9.63)"/><path class="cls-13" d="M202.64,355.15l7.28-1.32S221,272,194.2,243.22l-8.24.42s21.7,18.39,18.77,66.18Z" transform="translate(-8.12 -9.63)"/><path class="cls-10" d="M190,223.73s-23.38-7.73-28.12-15.14c0,0-11-25.27-3.37-33.69s28.76-17.43,28.76-17.43,4.91,11,3.35,18.46S199.2,196,198,198.61c-0.69,1.5-3.78.49-7.53,1.33,0,0-.83,2.86,1.44,8.4,1.23,3,1.51,12.2-2.33,12.07" transform="translate(-8.12 -9.63)"/><path class="cls-12" d="M145.35,197.68L165,210.54s-11-25.18-1-34.74l-18.46,15.75Z" transform="translate(-8.12 -9.63)"/><path class="cls-15" d="M186,173.89a2.7,2.7,0,0,1-.95,2.46c-1.45,1.1-5.28,1-6.23,1.68-1.26.89-7.65,6.74-7.65,6.74s0.63-4.52,5.78-7.88C179.65,175.11,185.47,173.2,186,173.89Z" transform="translate(-8.12 -9.63)"/><path class="cls-16" d="M180.71,182.57c0.73-.7,1.41,4.59,1.41,4.59-2.07-.74-5.87,0-5.87,0S179.12,184.08,180.71,182.57Z" transform="translate(-8.12 -9.63)"/><path class="cls-17" d="M184.72,187.8c-0.75,0-1.47-.15-2.2-0.2s-1.45-.12-2.17-0.17-1.45-.16-2.18-0.2a9,9,0,0,0-2.18.1l-0.39.07,0.28-.29c0.66-.67,1.21-1.45,1.81-2.17s1.2-1.47,1.8-2.19,1.25-1.42,1.91-2.11,1.32-1.36,2-2l0.06,0c-0.5.82-1,1.6-1.61,2.36s-1.15,1.52-1.77,2.23-1.27,1.41-1.94,2.09-1.39,1.31-2.11,1.94l-0.11-.22c0.74-.08,1.47-0.13,2.22-0.22a12.31,12.31,0,0,1,4.44.2,12.17,12.17,0,0,1,2.13.66Z" transform="translate(-8.12 -9.63)"/><path class="cls-18" d="M182.24,181.49c2.46-.56,3.7,5.53-0.12,5.66C178.74,187.28,178.33,182.39,182.24,181.49Z" transform="translate(-8.12 -9.63)"/><path class="cls-13" d="M179.16,207.64a50.89,50.89,0,0,0,5.32.58c2.33-.09,4.71-1.8,6.49-2.17,0.68-.14,2.36,2.86,1.12,3.54a1.56,1.56,0,0,1-.35,2.55c-1.89,1.06-6.67,0-8.53-1.44C179.15,207.65,179.71,208.34,179.16,207.64Z" transform="translate(-8.12 -9.63)"/><path class="cls-13" d="M146.79,198.16s37.32,24.38,56,24.53c0,0,2.74,5.1-3.8,10.91,0,0-37.43-12.49-54.77-31.7Z" transform="translate(-8.12 -9.63)"/><path class="cls-8" d="M106.13,162.25s-4.26,8.94-2.36,10.53c0,0,23,19.28,31,23.52l0.26-3.59s-25.14-21.65-28.91-30.46" transform="translate(-8.12 -9.63)"/><path class="cls-13" d="M138.86,186.62c15.23,0.41,13.79,25.16.26,21.64S130.44,186.39,138.86,186.62Z" transform="translate(-8.12 -9.63)"/><g id="caito_arm" data-name="caito arm"><path class="cls-14" d="M468.65,198.94c6.26,3.88,11.43-15.44,11.43-15.44,9.08-16-2.38-33-2.38-33,7-10.87-5-45.45-7.12-50.49S458,86.29,444,88.75s-14.31,12.54-15.67,16.85c-2.4,7.62,6.6,32.05,6.6,32.05-1.41,6,6.22,21,6.22,21s0.57,4.88,1.12,8.12,2.2,6,2.86,7.55-2.15,4.45-3,7.71C441.15,185.72,468.65,198.94,468.65,198.94Z" transform="translate(-8.12 -9.63)"/><path class="cls-4" d="M447.16,158.65s19.3-5.89,36.38,16.17c0,0,.07,8.14-3.46,8.68,0,0-19.39-20-37.9-15.47C442.18,168,441.4,163.21,447.16,158.65Z" transform="translate(-8.12 -9.63)"/><path class="cls-14" d="M482.87,183.15c1,5.37-5.47,21.83-19,14.4-10-5.45-38.65-19.65-57.14-50.79-4.87-8.21-6.9-12.41-9.17-16.55S386,117.68,386,117.68s-24.72-17.6-17.79-24.58c1-1,7.16,8.06,7.61,8.35,0.69,0.44-5.6-7.34-7-10.13-3.49-6.88-2-11.69.82-11,0,0,6.8,10.06,9.41,13.06l-9.51-14c-2.07-5,1.66-11.22,5-9.18,2.44,1.49,7.33,12.63,9.07,14.81,0,0-8.66-15.09-7.67-16,0,0-.83-4.77,6.55-2.89,0.85,0.22,8.46,16.45,13.65,22.66,0,0-3.59-9.49-5.15-14.39-0.75-2.34,4.76-4.49,8.42.18,2.81,3.58,9.51,16.63,12.1,19.6,1.82,2.09,12.93,21.51,31.93,37.78,7.56,6.47,30.82,35.65,33.25,40.66C476.72,172.57,482.53,181.32,482.87,183.15Z" transform="translate(-8.12 -9.63)"/><path class="cls-7" d="M426.73,114.87s-20.47,4.55-27.45,18.62l-11.07-13.83s-4-14.9,26.2-21.33C414.41,98.33,425.72,108,426.73,114.87Z" transform="translate(-8.12 -9.63)"/><path class="cls-4" d="M450.64,109.57c-15.72,2.18-11.42,26.78,3.93,25.26C473.75,132.92,466.36,107.39,450.64,109.57Z" transform="translate(-8.12 -9.63)"/><polygon class="cls-7" points="447.91 119.13 444.75 114.01 443.6 119.85 439.06 120.67 443.51 107.22 452.98 118.24 447.91 119.13"/><line class="cls-19" x1="439.87" y1="120.12" x2="444.68" y2="102.79"/><line class="cls-19" x1="452.17" y1="118.06" x2="441.32" y2="104.32"/><path class="cls-7" d="M468.33,160.77s-4.43,16.91-19.06,28.34c0,0,10.47,9,14.56,8.44,0,0,11.46-11,12.89-25C476.72,172.57,473.55,159.92,468.33,160.77Z" transform="translate(-8.12 -9.63)"/></g><path class="cls-4" d="M140.15,193.92c5.26,0.39,6.53,8.79.31,7.44S137.24,193.7,140.15,193.92Z" transform="translate(-8.12 -9.63)"/><path class="cls-13" d="M145,195.3l-3.47-5.52s37.68-45,46.76-49.61c0,0,9.18,6.19,10,15.67,0,0-39.81,20.38-53.3,39.46" transform="translate(-8.12 -9.63)"/><path class="cls-20" d="M287.4,237.8s3.29-2.12,7.21,1.21c0,0,.66,2.39-3.14,1.87C286.23,240.17,287.4,237.8,287.4,237.8Z" transform="translate(-8.12 -9.63)"/><path class="cls-4" d="M296.21,243.15c-0.37-1.23-.08-2.43-1.29-4.28,0.2,0.31-1.7.8-4,.3a9.36,9.36,0,0,1-3.66-1.49c-1,0-2.27,1.85-3.11,2.67-2.55,2.49-4.81,7.29-2.45,11.76C285.87,260.06,300.21,256.58,296.21,243.15Zm-6.46,10.58c-10.69.23-7.14-13.26-.09-12.84C295.67,241.24,297.36,253.57,289.75,253.73Z" transform="translate(-8.12 -9.63)"/><line class="cls-20" x1="279.17" y1="224.33" x2="276.17" y2="217.42"/><line class="cls-20" x1="276.96" y1="226.27" x2="272.57" y2="222.39"/><line class="cls-20" x1="282.86" y1="224.1" x2="282.86" y2="213.93"/><line class="cls-20" x1="285.75" y1="225.1" x2="290.25" y2="215.44"/><line class="cls-20" x1="289.43" y1="226.73" x2="293.94" y2="221.26"/><line class="cls-20" x1="290.25" y1="229.41" x2="295.02" y2="226.73"/><path class="cls-14" d="M198.53,309.17c-3.09-1.46-7.18-1.2-7.94-2.72s-1.82-4.61-4-7.15-5.55-6.18-5.55-6.18-6.56-15.68-12.16-18.55c0,0-13-23-20.48-26.09-4.23-1.77-12.25-8.11-23.3,1.09s-14.71,26.5-12.21,31.45,20.92,36.06,33.89,37.79c0,0,9.65,17.19,28,20.68,0,0,17.75,11.77,32.3,7.14,0,0,9.41,1.71,20-9,0,0,17.19-9.45,24.79-15.44S262,312,265.37,308.56s14.65-9.1,14.65-9.1,21.67-8.22,24.39-22.2c0.11-.55-10.26,10.06-10.77,10.22-0.8.24,9-9.24,10.82-11.87,2.12-3.14,5.08-12.94,2.15-13,0,0-6.92,10-10.29,12.19,0,0,6.86-7.8,8.14-9.42,3.38-4.31,3.42-10-1-13.9l-10.1,14.66s9.45-13.6,8.72-14.73c0,0,.53-6-7.19-6.16-0.89,0-5.32,13.5-12.08,18.15,0,0,6-7.09,4.29-9.38-1.08-1.43-4.16-1-5.13-.93-2,.23-9.72,12.69-13.06,14.89-2.34,1.54-39.08,22-60.88,34.91A113.29,113.29,0,0,0,198.53,309.17Z" transform="translate(-8.12 -9.63)"/><path class="cls-4" d="M182.37,344.14s11.08-18.64,8.55-37.28c0,0,7.59-1.39,10.13,1.94,0,0,6.28,25.59-10.06,38.36C191,347.15,185.55,348.45,182.37,344.14Z" transform="translate(-8.12 -9.63)"/><path class="cls-13" d="M126.52,236.42s44.53,9.27,67.68,6.8c0,0,.74-6.21-4-7.28,0,0-23.31,3.89-64.5-4.41C124.6,231.31,124.43,236.58,126.52,236.42Z" transform="translate(-8.12 -9.63)"/><path class="cls-15" d="M186.57,202.54c0.82-.6,3.59-2.37,4.31-0.85a5.73,5.73,0,0,1,.5,3.21s-10.71,5-15,1C176.37,205.91,183.26,205,186.57,202.54Z" transform="translate(-8.12 -9.63)"/><path class="cls-4" d="M137.56,265.8C120,269,126.07,296.44,143.23,294c21.43-3.09,11.87-31.39-5.67-28.16" transform="translate(-8.12 -9.63)"/><path class="cls-13" d="M250.12,278.55S266.67,292,266,307.93l14.75-7.33s9.92-12.64-13.82-33C267,267.57,254.38,272.89,250.12,278.55Z" transform="translate(-8.12 -9.63)"/><path class="cls-3" d="M214.86,458.07s38.52-.7,42.15,3.44c0,0-5,20.22,1.36,26.13s25.76,11.76,29.5,12.76c4.43,1.19,5.88,9.09,5.22,12.24-0.88,4.17-3.36,13.9-4.59,14.15s-71.27.69-74.9-14.64c-1-4.37,1.42-14.68,2.35-19.21S213.72,458,214.86,458.07Z" transform="translate(-8.12 -9.63)"/><path class="cls-1" d="M285.18,534c-3,4.87-19.42,1.18-31.32-.35-19.83-2.56-38.3-4.07-39.79-8.41a24.33,24.33,0,0,1-.48-13.12s51.91,11.28,59.11,12.08c15,1.67,18.89-5.42,18.89-5.42S292.16,522.52,285.18,534Z" transform="translate(-8.12 -9.63)"/><path class="cls-11" d="M214.83,465.93l41,1.73a15.2,15.2,0,0,0,1.16-6.14c-0.3-4.38-41.91-4.06-42.15-3.44C214.28,459.58,214.83,465.93,214.83,465.93Z" transform="translate(-8.12 -9.63)"/><path class="cls-12" d="M215.69,479.76c0,0.69,40.38,3.89,40.38,3.89a72.11,72.11,0,0,1-.9-8.31c0-.57-40-3.17-40-3.17A55.78,55.78,0,0,1,215.69,479.76Z" transform="translate(-8.12 -9.63)"/><path class="cls-8" d="M95.88,479.89s-1,40.79-6,44.3c0,0-18.18-6.24-25.47,0s-16.09,27-17.64,31C45,560,36.06,560.6,32.68,559.48c-4.5-1.48-14.93-5.39-15.05-6.78S25.5,474,42.85,471.85c4.95-.61,16,3.34,20.9,4.91S96,478.63,95.88,479.89Z" transform="translate(-8.12 -9.63)"/><path class="cls-6" d="M10,548.17c-5-3.85,1.05-21.56,4.19-34.5,5.22-21.57,9.13-41.75,14.09-42.87a27,27,0,0,1,14.53,1.06s-18.73,55.89-20.49,63.74C18.71,551.9,26,557.08,26,557.08S21.89,557.26,10,548.17Z" transform="translate(-8.12 -9.63)"/><path class="cls-4" d="M89.49,478.92l-5.6,43.51a61.17,61.17,0,0,0,6.67,2.09c3,0.68,6.4-45.17,6.4-45.17Z" transform="translate(-8.12 -9.63)"/><path class="cls-13" d="M75.8,478c-0.68-.09-7.88,44.47-7.88,44.47a20.18,20.18,0,0,1,7.64-1c0.57,0,7.35-43,7.35-43S78.45,478.38,75.8,478Z" transform="translate(-8.12 -9.63)"/><polygon class="cls-13" points="136.6 276.31 133.22 271.33 132.33 277.22 127.83 278.24 131.68 264.61 141.63 275.19 136.6 276.31"/><line class="cls-21" x1="128.61" y1="277.66" x2="132.65" y2="260.13"/><line class="cls-21" x1="140.81" y1="275.06" x2="129.36" y2="261.81"/><path class="cls-14" d="M212.79,309.08c-3.39.51-6.63,3-8.11,2.17" transform="translate(-8.12 -9.63)"/><path class="cls-13" d="M208,302.84s-7.1,1.57-7.81,5.12c0,0,12.35,20.13,7,38.67,0,0,8.32,2.51,13.2-3.12,0,0,9.22-22.39-12.34-40.67" transform="translate(-8.12 -9.63)"/><g id="eye"><path class="cls-22" d="M359.38,71.9a24.28,24.28,0,0,1,7.37.09s-6,1.43-7.77,1.76-4.34,3.28-6,4.08a2.6,2.6,0,0,1-2.76-.27C350.8,76.4,356.61,72.48,359.38,71.9Z" transform="translate(-8.12 -9.63)"/><path class="cls-23" d="M364.16,78a29.2,29.2,0,0,0-1.27,5.89s-5.26-2.77-4.13-2.86C361.61,81,364.16,78,364.16,78Z" transform="translate(-8.12 -9.63)"/><path class="cls-24" d="M363.17,81.17a18.76,18.76,0,0,1,.51-2.1c0.21-.61.64-0.87,1-1.64l0.73,0.27a4.24,4.24,0,0,1-1.11,1c-0.34.23-.63,0-1.07,0.28a15.29,15.29,0,0,1-2.49,1.65,12.19,12.19,0,0,1-2.54.92l-2.64.64c1.59-.9,3.25-1.61,4.87-2.41,0.78-.5,1.78-1,2.27-1.36,0.34-.23.59-0.43,1-0.69l0.73-.05,0.72-.37L366.58,75l-1.1,2.53c-0.3.64-.5,1.25-0.77,2L364,81.62l-0.74,2.08c-0.27.73-.47,1.34-0.74,2.08A33.25,33.25,0,0,1,363.17,81.17Z" transform="translate(-8.12 -9.63)"/><path class="cls-24" d="M364.23,78.23l-0.38-1a3.91,3.91,0,0,0,.33-0.55,4.13,4.13,0,0,0,.34-1.4,4.43,4.43,0,0,0-.23-1.51,2.44,2.44,0,0,0-.33-0.62,2.49,2.49,0,0,1,.52.56,5.35,5.35,0,0,1,.61,1.69,7.58,7.58,0,0,1,0,1.71,2.49,2.49,0,0,1,0,.76Z" transform="translate(-8.12 -9.63)"/><path class="cls-24" d="M364.33,77.34a0.35,0.35,0,0,1,.15-0.16,1.09,1.09,0,0,0,.44-0.26,3.32,3.32,0,0,0,1-1.42,2.84,2.84,0,0,0,.08-1.84,1.72,1.72,0,0,0-.5-0.78L365.64,73c0.19-.07.29,0.21,0.49,0.46a3.42,3.42,0,0,1,.25,2.14,3.71,3.71,0,0,1-.77,2,3.33,3.33,0,0,0-.46.49,0.31,0.31,0,0,1-.15.16Z" transform="translate(-8.12 -9.63)"/><path class="cls-24" d="M363.25,78.16a4.45,4.45,0,0,0,.2-0.92,2.57,2.57,0,0,0,0-1.49,4.82,4.82,0,0,0-.58-1.6c-0.23-.34-0.43-0.59-0.43-0.59a2.49,2.49,0,0,1,.52.56,5.79,5.79,0,0,1,.86,1.5,8.44,8.44,0,0,1,.46,1.85,2,2,0,0,1,0,.63l-0.06.13a0.77,0.77,0,0,1-.09.35h0Z" transform="translate(-8.12 -9.63)"/><path class="cls-24" d="M362.27,84.26c-1.77,2.45-5.51-1.4-3.84-3C360.32,78.9,364.29,81.61,362.27,84.26Z" transform="translate(-8.12 -9.63)"/></g></svg>