<?xml version="1.0" encoding="utf-8"?>
<!-- Generator: Adobe Illustrator 20.0.0, SVG Export Plug-In . SVG Version: 6.00 Build 0)  -->
<svg version="1.1" id="Jesse" xmlns="http://www.w3.org/2000/svg" xmlns:xlink="http://www.w3.org/1999/xlink" x="0px" y="0px"
	 viewBox="0 0 228.7 188.1" style="enable-background:new 0 0 228.7 188.1;" xml:space="preserve">
<style type="text/css">
	.st0{fill:#E9612C;}
	.st1{fill:#D5D1C0;}
	.st2{fill:#E1C51B;}
	.st3{fill:#18C6A5;}
	.st4{fill:#C5E2CD;}
	.st5{fill:#DDDACE;}
	.st6{fill:#12AA8C;}
	.st7{fill:#999484;}
	.st8{fill:#C3A62E;}
	.st9{fill:#E5E1CF;}
	.st10{fill:#A8A493;}
	.st11{fill:#EEEDE4;}
	.st12{fill:none;stroke:#B986BC;stroke-width:0.59;stroke-miterlimit:10;}
	.st13{fill:#DBF0F5;}
	.st14{fill:#082740;}
	.st15{fill:#F9C79E;}
	.st16{fill:#754532;}
	.st17{fill:#FBF7FA;}
	.st18{fill:#1A3F3D;}
	.st19{fill:#D8562E;}
	.st20{fill:none;stroke:#47BEA5;stroke-width:0.53;stroke-miterlimit:10;}
	.st21{fill:#3EA8DF;}
	.st22{fill:#F97E58;}
</style>
<title>cosmopool</title>
<path class="st0" d="M104.5,44.2c109.7,2.8,134.7,96.3,60.3,128.9c-1.6,0.7-2.8-5.7-10.2-2.2c-16.2,7.7-41.7,3.4-44,4.3
	c-14.6,6-31.6,5-47.2-2.1c-4.4-2-8.7,3.5-12.3,2.1C-28.8,143.8-11.1,41.3,104.5,44.2z"/>
<path class="st1" d="M155.9,61.1c-1.6,1.2-4.8-10.7-5.6-9.9c-0.8,0.8,1.4,2.9,0.8,3.5c-1.6,1.8-13.5-5.4-14.4-7.5
	c-0.9-2.1-17.1-1.5-19.2-1.2s-12.6,1.9-15.9,3C98.3,50.1,79.8,59,76,64.9L54.5,50.8c2.4-4.1,5.4-7.8,8.7-11.1
	c3.3-3.4,7.4-5.9,12-7.3c4.7-1.3,15.1-2.9,15.1-2.9c4.9-1.1,9.2-1.7,11.7-1.5c1.3,0.1,3.3,0.2,5.8,0.2c0.9,0,3.9-1.7,12.2-0.4
	c8.8,1.4,12,4.4,13.2,4.8c4.9,1.6,9.1,2.8,11.3,3.4c7.8,2.6,13.2,9.8,13.6,18C158.1,54,158.9,58.9,155.9,61.1z"/>
<path class="st2" d="M94,52.5c0,0,1.7-13.1-3.7-22.8c0,0,3.9-2.4,6-1.1c0,0,7.3,9.7,3.6,21.1C99.9,49.7,96.7,54.2,94,52.5z"/>
<path class="st3" d="M108,28.6c0,0-3.6-2.8-6.8-0.7c0,0,7.1,10.4,2.3,20.7c2.5,0.8,5.2,0.2,7.2-1.5C110.7,47.2,114.4,35.3,108,28.6z
	"/>
<path class="st3" d="M133.3,32.6c0,0-2.1,10.2-6.8,13.3l9.9,2c0,0,3,0.7,6.3-12.4C142.7,35.5,138.3,31.1,133.3,32.6z"/>
<path class="st4" d="M131.4,33.6"/>
<path class="st5" d="M117.2,77.3c0,0,8.6-16.5,18.5-26.3c4.6-4.5,8.6-8.2,12.9-7.5c7.5,1.2,9,6.4,13.1,10.6c2.5,2.5,4.2,3.5,6.9,6.3
	c12.9,13.4,26.4,30,26.6,34.3c0.3,6.6-8.6,8.5-8.6,8.5s-21.9-5.1-29.8-17c-4.2-6.2-4.4-12.4-7.4-13.1s-6,30.8-6,30.8l-24.9-5.3
	L117.2,77.3z"/>
<path class="st6" d="M135.7,51c0,0,10.5,17.4,11.3,26.3c1-1.3,1.8-2.7,2.4-4.2c1.6-6.9-7.2-27.1-8.3-27.1
	C137.9,46.1,135.7,51.4,135.7,51z"/>
<path class="st6" d="M152.6,76.3c0.6,0.1,10.4-7.2,12.5-19.2c0.4-1.9-5-5.8-4.9-4.7c0.2,2.4-8.3,21.2-10.9,20.6
	C149.4,73.1,151.4,76.2,152.6,76.3z"/>
<path class="st7" d="M169,97.1c0,0,11.1-19.7,14.3-20.3c0,0,8.8,8.5,13.6,7.1c4.8-1.4,13.6-9.6,15.2-11.1c1.9-1.9,6.4-0.3,7.8,1
	c1.9,1.7,6,5.8,5.8,6.5c-0.2,0.7-20.9,36.3-29.7,33.6c-2.5-0.8-7-5.1-9-6.9S168.6,97.6,169,97.1z"/>
<path class="st1" d="M228.4,84.1c1.6,2.9-5.2,10.2-9.5,15.8c-7.2,9.3-13.5,18.2-16.1,17.7c-2.6-0.6-4.9-1.8-6.8-3.7
	c0,0,21.2-22.9,23.7-26.3c5.3-7.1,2.9-11.2,2.9-11.2S224.7,77.1,228.4,84.1z"/>
<path class="st8" d="M173,99.4l13.1-20.3c-0.7-1-1.7-1.8-2.8-2.4c-2.3-1.2-14.5,20-14.3,20.3C169.6,97.8,173,99.4,173,99.4z"/>
<path class="st6" d="M180.2,103.1c0.3,0.2,14-19.3,14-19.3c-1.5-0.6-3-1.2-4.5-2c-0.3-0.2-13.5,19.3-13.5,19.3
	C177.6,101.7,178.9,102.4,180.2,103.1z"/>
<path class="st9" d="M111.8,101.5c0,0,14.2-18.9,26.6-25.2c5.7-2.9,10.7-5.2,14.6-3.2c6.8,3.4,6.6,8.8,9.3,14.2
	c1.6,3.2,2.9,4.6,4.6,8.1c8.2,16.7,16,36.7,14.9,40.8c-1.7,6.4-10.8,5.5-10.8,5.5s-19.3-11.5-23.2-25.2c-2.1-7.2,2.2-11.5-0.4-13.1
	c-2.6-1.6-33.2,29.7-33.2,29.7l-6.6-16.4L111.8,101.5z"/>
<path class="st3" d="M138.4,76.3c0,0,4.6,21.1,2.6,29.9c0,0,3.5-1,4.2-2.3c3.6-6.1,0.9-30.3-0.2-30.6
	C142,72.3,138.3,76.8,138.4,76.3z"/>
<path class="st3" d="M147.8,105.4c0.5,0.2,11.1-3.5,16.8-14.2c0.9-1.7-2.9-7-3.2-5.9c-0.5,2.4-14.6,19.6-17,18.2
	C145.5,104.2,146.6,104.8,147.8,105.4z"/>
<path class="st10" d="M156.1,130.4c0,0,16.6-15.4,19.8-15c0,0,5.7,10.8,10.8,10.9c5.1,0.1,15.9-4.9,17.9-6c2.4-1.2,6.1,1.7,7.1,3.3
	c1.2,2.2,4,7.4,3.5,8s-31,28.2-38.6,22.9c-2.2-1.5-5.1-7-6.5-9.3C168.7,142.9,155.6,130.8,156.1,130.4z"/>
<path class="st9" d="M216.6,136.1c0.6,3.3-8,8.1-13.9,12.1c-9.7,6.6-18.4,13.2-20.7,11.9s-4.1-3.3-5.4-5.6c0,0,27.2-15.4,30.6-17.9
	c7.2-5.1,6.1-9.8,6.1-9.8S215.2,128.4,216.6,136.1z"/>
<path class="st2" d="M159.1,133.8l18.6-15.3c-0.4-1.2-1.1-2.2-1.9-3.1c-1.8-1.8-20,14.6-19.8,15
	C156.4,131.3,159.1,133.8,159.1,133.8z"/>
<path class="st3" d="M164.9,139.6c0.2,0.3,19.2-14.1,19.2-14.1c-1.3-1-2.5-2.1-3.6-3.3c-0.2-0.2-18.8,14.3-18.8,14.3
	C162.9,137.4,163.9,138.5,164.9,139.6z"/>
<path class="st9" d="M36.7,61.8c0.6,2,1.3,5.2,1.3,5.2c0.3,12,7.2,18.3,12.2,25s26.9,18.3,30.1,19.9c2.5,1.3,4.7,3,6.6,5
	c3.2,3.4,3.4,5.7,5.5,8.6c5.7,7.9,19.7,8.1,28.4,5c21-7.6,12.6-23.6,12.6-23.6l-7.2-13.8C125,87.7,107,65.7,107,65.7
	S72.8,35.1,69.2,38.6c-1.1,1.1-3.4,1.4-4.6,1.5"/>
<path class="st10" d="M127.2,127.4c0,0,1.4-16.6-23.3-27.8c0,0,6-3,11.6,0.9c0,0,18.2,9.3,18.2,20
	C132,123.2,129.8,125.6,127.2,127.4z"/>
<path class="st3" d="M36.7,61.9l18.8-12c0,0,25.5-1.6,58,42.1l-8.2,5.7c0,0-9.6,16.1-49.7-2.1C37.2,87.2,36.7,61.9,36.7,61.9z"/>
<path class="st3" d="M82.1,112.8c0,0,27.7-14.8,35.9-32.4c2.5,2.4,4.5,5.2,6,8.3c0,0-26.8,28.6-34.1,32.9
	C89.9,121.6,86.5,115.7,82.1,112.8z"/>
<path class="st11" d="M105.2,100c1.2-1.6,3.2-0.1,2.2,1.2C106.1,103,104.6,100.8,105.2,100z"/>
<path class="st11" d="M111.7,96.9c-1.4,1.8-3-0.4-2.4-1.3C110.5,94,112.7,95.6,111.7,96.9"/>
<path class="st11" d="M116.5,92.2c-1.9,2.4-3.9-0.6-3.1-1.7C115.1,88.4,117.9,90.5,116.5,92.2"/>
<path class="st11" d="M120.4,87.3c-1.7,2.2-3.3-0.4-2.6-1.4C119.3,83.9,121.7,85.7,120.4,87.3"/>
<path class="st11" d="M35.7,86.6c3.3-1.7,7.6,3.1,3.9,5.1S32.3,88.3,35.7,86.6z"/>
<path class="st3" d="M42.1,96.1c0,0,13.1,18.7,13.9,18.6s2.5-1,2.2-1.6c-0.7-1.6-13-19.1-13.6-19C44,94.2,41.6,95.4,42.1,96.1z"/>
<path class="st12" d="M79,62.8"/>
<path class="st3" d="M77.5,67.7c0,0,12.7-7,12.1-15.7c0,0,7.8,3.8,12.7,8.7c0,0-4.9,9.1-9.2,11.6C88.8,74.8,77.5,67.7,77.5,67.7z"/>
<path class="st3" d="M116.3,84.8l2.7-3.4c0,0-26.8-40.4-49.8-42.8L65.7,42c0,0,16.7-0.3,33.9,22L116.3,84.8z"/>
<path class="st3" d="M36.7,61.9c0,0,23.3-13.2,32.5-23.2c0,0-2.1-3-4.6-1.7c0,0-8.8,10.8-30.2,23C33.8,60.3,35.8,62.7,36.7,61.9z"/>
<path class="st13" d="M27.5,13.9c0.6-2.1-0.7-13.4,9.9-10.4c6.8,2,12.9,5.7,18,10.6c4.3,4,7.7,8.8,9.8,14.3c2.9,7.4-3.5,13-3.5,13
	L28.4,43L27.5,13.9z"/>
<path class="st9" d="M8.4,10.9C14.3,4.5,23,1.3,31.6,2.5l-2.5,41c0,0,30.4-5,37-11.5c4.1-4,1,9.5,1,9.5L41.7,64.7
	c-0.9-1.4-22-3.2-33.3-13.5C-2.2,41.4-3.3,23.5,8.4,10.9"/>
<path class="st14" d="M41.2,13.3l6.7,5.3c0,0,0-3-0.5-3.9c-1-1.5-3.9-2.9-4.7-2.8C42.1,12.3,41.6,12.8,41.2,13.3z"/>
<path class="st15" d="M62.5,33.3c0,0-12.8,6.8-17.8,5.9c0,0-15.2-5.5-15.7-12.2s4.2-19.3,4.2-19.3s6.7,2.3,9.2,6s12,4.5,12.6,6
	c0.4,0.9-1.3,1.8-2.5,3.8c0,0,0.9,1.5,4.2,2.8c1.8,0.7,5.8,4.3,4.2,5.9"/>
<path class="st6" d="M33.3,41.8l13.4-3.2c0,0-15.2-5.5-15.2-13.6l-0.8,14.2L33.3,41.8z"/>
<path class="st16" d="M40.2,15c0.4,0.4,0.6,0.9,0.5,1.5c-0.2,1-2,2.4-2.2,3.1c-0.2,0.9-0.9,5.9-0.9,5.9c-0.9-1.8-1-3.9-0.3-5.7
	C37.8,18,39.7,14.9,40.2,15z"/>
<path class="st17" d="M41.5,20.5c0.2-0.6,2,2,2,2c-1.1,0.3-2.1,0.9-3,1.6C40.5,24.1,41.1,21.7,41.5,20.5z"/>
<path class="st18" d="M45,22.1c-0.8,0.4-1.6,0.7-2.4,1s-1.6,0.7-2.3,1.2l-0.2,0.2l0.1-0.2c0.2-0.5,0.2-1.1,0.3-1.6l0.3-1.6
	c0.2-1.1,0.5-2.2,0.9-3.2l0,0c-0.1,1.1-0.2,2.2-0.4,3.3c-0.3,1.1-0.6,2.2-1,3.2l-0.1-0.1c0.4-0.2,0.7-0.5,1.1-0.7
	c0.4-0.3,0.7-0.5,1.1-0.7C43.3,22.4,44.1,22.1,45,22.1L45,22.1L45,22.1z"/>
<path class="st18" d="M42,19.5c1.1-1,3.5,1.8,1.5,3C41.8,23.5,40.2,21.1,42,19.5z"/>
<path class="st6" d="M51.2,31.5c0.8-0.6,1.6-1.3,2.4-2c0.9-1,1.1-2.7,1.7-3.6c0.2-0.4,2.2,0.1,2,1c0.5,0,0.9,0.3,1,0.8
	c0,0.1,0,0.2,0,0.3c-0.3,1.2-2.7,2.8-4.1,3C51.2,31.5,51.7,31.5,51.2,31.5z"/>
<path class="st3" d="M34.1,41.4c0,0,25.5-6,33.1-13.9c0,0,3.3,0.9,3.1,6c0,0-20.5,10.9-35.7,10.5L34.1,41.4z"/>
<path class="st7" d="M2.3,44.2c0,0,2.1,5.4,3.5,5.3c0,0,17.5-2,22.6-3.7L27,44.2C27,44.2,7.6,46.2,2.3,44.2"/>
<path class="st3" d="M26,40.1c6.3-6.3,16.3,4.3,9.3,8.6S22.5,43.6,26,40.1z"/>
<path class="st11" d="M29.6,42.5c2.3-2.1,6.4,0.8,3.3,2.9C29.8,47.5,28.3,43.7,29.6,42.5z"/>
<path class="st3" d="M32.1,41l-3.8-0.8c0,0-3.9-34.2-2.2-40c0,0,6.3-1.4,10.7,2.1C36.9,2.3,29.4,27.6,32.1,41"/>
<path class="st16" d="M52,26.2c0.1-0.6,0.4-2.5,1.4-2.2c0.6,0.2,1.2,0.6,1.6,1.1c0,0-2.2,6.6-5.6,6.8C49.3,32,51.7,28.6,52,26.2z"/>
<path class="st0" d="M45,91.4c0,0,48.2,37.7,101.8,14.2c0,0,8.1,23.2-41.8,28.7C20.3,143.6,45,91.4,45,91.4z"/>
<path class="st19" d="M50.4,94c0,0,41.7,33.8,95.3,10.3l2.5,1.1c0.1,5.9-14.5,17.2-44.3,16.2C51,120,50.4,94,50.4,94z"/>
<path class="st11" d="M87.2,121.8c0,0,13.8,4.7,19.4,7.8c5.3,2.9,12.5,10.5,9.5,14c-1.4,1.7-7.9-5.8-7.9-5.8s8.6,10.1,4.5,12.2
	c-2.7,1.4-3.7-3.1-4.2-4.3c-0.3-0.8-4.5-6.5-6.9-8.2c0,0,11,10.8,5.7,13.6c-2.3,1.3-4.3-5.1-4.6-5.7c-0.7-2.2-2.2-4.1-4.2-5.4
	c0,0,6.4,8.4,3.5,9.7c-2.8,1.2-6.4-3.7-8.5-7.1s-9.9-1.5-11-6.9S87.2,121.8,87.2,121.8z"/>
<path class="st11" d="M54.4,108.6c-0.4-1.8-1.8-3.4-1.4-4.2c0.8-1.3,1.3-2.6,1.7-4c0.4-1.7,0.8-4.3,0.8-4.3S60,88.3,59.4,85
	c0,0,5.5-12.9,4.4-17c-0.6-2.3-0.5-7.8-8-9.5s-15.9,2.4-17.2,5S30.2,84,33.6,90c0,0-4.1,9.6,0.3,18.5c0,0,0.8,11.3,7.4,15.9
	c0,0,2.3,4.5,10.2,5.5c0,0,9.5,4.2,14.5,5.4s7.6,1,10.1,1.2s9.8,3.2,9.8,3.2s10.4-14.2,8.4-14.9c-1.4-0.5-21.9-9.3-34.4-14.3
	C58.2,109.8,56.3,109.1,54.4,108.6z"/>
<path class="st2" d="M34.5,113.1c0,0,11.4-1.4,18.5-8.4c0,0,3,2.7,2.5,4.9c0,0-8.7,10.9-19.4,8.2C34.7,116.5,34.1,114.8,34.5,113.1z
	"/>
<path class="st2" d="M53,68.9c-7-6.3-16.6,5.1-10,11.5C51.2,88.4,60,75.2,53,68.9"/>
<path class="st3" d="M84,120.4c0,0-0.3,11.3-7.2,16.2l9,3.1c0,0,7.3,0.8,8.3-15.8C94,123.9,87.7,120.4,84,120.4z"/>
<polygon class="st3" points="48.4,78.5 48.2,75.3 46.2,77.8 43.9,77 49.3,71.8 51,79.3 "/>
<line class="st20" x1="44.4" y1="77" x2="50.9" y2="70"/>
<line class="st20" x1="50.7" y1="79" x2="49" y2="69.9"/>
<path class="st3" d="M60.1,110.5c0,0-3-2.5-4.7-1.6c0,0-4.5,11.7-14,15.4c0,0,1.6,4.3,5.6,4.6C47,128.9,59.4,125.5,60.1,110.5"/>
<path class="st14" d="M40.8,14.6c0,0-3.3,1.1-3.6,7.7c0,0,4.3,2.8,6.8,1.6c1.3-0.6,2.5-4.6,1.6-6.1C44.4,16,42.7,14.9,40.8,14.6z"/>
<path class="st14" d="M35.2,32c0,0,2-8.6,2.4-9.7l2,1.2l-2.9,9.7L35.2,32z"/>
<path class="st14" d="M41,15.3c0.2-0.7,0.7-1.3,1.3-1.7l1,0.8c-0.4,0.1-0.7,0.4-0.7,0.8L41,15.3z"/>
<path class="st21" d="M151.9,173.4c0,0-10,27.4-43.4,3.9c0,0-21.4,24.9-43.6-1.1c0,0-35.9,26.4-47.7-8.6c0,0,21.5,14.7,46.2,2.1
	c0,0,25.6,15.3,44.3,0.9c0,0,30.6,11.4,44.4-4.4c0,0,26.2,14.2,44.5-2.8C196.7,163.3,187.6,196.9,151.9,173.4z"/>
<path class="st22" d="M29.1,130.9c0,0,8.5,47,88.6,27.9C117.7,158.7,60.1,165.9,29.1,130.9z"/>
</svg>
