<?xml version="1.0" encoding="utf-8"?>
<!-- Generator: Adobe Illustrator 20.0.0, SVG Export Plug-In . SVG Version: 6.00 Build 0)  -->
<svg version="1.1" id="Layer_1" xmlns="http://www.w3.org/2000/svg" xmlns:xlink="http://www.w3.org/1999/xlink" x="0px" y="0px"
	 viewBox="0 0 200.5 357.7" style="enable-background:new 0 0 200.5 357.7;" xml:space="preserve">
<style type="text/css">
	.st0{fill:#E9622B;}
	.st1{fill:#EDECE4;}
	.st2{fill:#E1C522;}
	.st3{fill:#3EA8DF;}
	.st4{fill:#EFDFB1;}
	.st5{fill:#D6D2C1;}
	.st6{fill:#1898CD;}
	.st7{fill:#999484;}
	.st8{fill:#DDF1F5;}
	.st9{fill:#E5E1CF;}
	.st10{fill:#A7A393;}
	.st11{fill:none;stroke:#B986BC;stroke-width:0.67;stroke-miterlimit:10;}
	.st12{fill:#FBC99F;}
	.st13{fill:#774734;}
	.st14{fill:#F8F6FA;}
	.st15{fill:#1A6281;}
	.st16{fill:#C3A62F;}
</style>
<title>pingpong</title>
<path class="st0" d="M122.9,25.4c-5.1-0.4-4.4-8,1.6-7.6C128.5,18.1,128.9,25.9,122.9,25.4z"/>
<g id="caito_arm">
	<path class="st1" d="M149.3,44.6c3.9,0,6.5,4,6.5,4c1.4-1.2,4.4,4.9,4.7,7.3c0.3,2.1,0.7,15.3,0.7,15.3s-5.3,14.3-5.4,17.4
		s-0.3,1.1-1.4,7.4c-0.7,3.9-1.7,7.7-3.1,11.4c-0.4,9.9-9.7,19.6-9.7,19.6c-5.1,11.2-18.8,11.6-18.8,11.6
		c-3.1,8.1-26.6,15.2-30.1,16s-12.4-1.5-16.5-10s1.2-12.7,3-15.1c3.2-4.3,19.9-9,19.9-9c2.7-3.1,13.8-4.8,13.8-4.8s2.8-1.6,4.8-2.6
		c1.7-0.7,3.4-1.2,5.2-1.4c1.1-0.2,1.6-2.9,3-4.7c1.7-2-0.5-2.7,2.1-8.9c6.5-15.4,11-28.5,11.5-30.3c0.6-2.5-1.2-10-1.6-10.6
		s10.4-12.2,10.4-12.2"/>
	<path class="st2" d="M141.2,128.5c-3.9-8.3-9-16-14.9-23c-2.5,1.1-2.8,6.2-2.8,6.2c7,4.8,12.6,23,12.6,23
		C139.3,133.2,141.2,128.4,141.2,128.5z"/>
	<path class="st3" d="M147.1,120.2c-5.6-11.5-20.8-14.7-20.8-14.7c-1.2-2,1.8-5.8,1.8-5.8c18.6-0.6,22.3,13.2,22.3,13.2
		C150.5,115.7,149.2,118.4,147.1,120.2z"/>
	<path class="st3" d="M138.7,69c20.6-0.6,23.6,2.8,23.6,2.8l-6.1,17.3c-6.8-8-20.9-8.3-20.9-8.3C134.7,76.2,138.6,69,138.7,69z"/>
</g>
<path class="st2" d="M152.5,42c-5,7-18.1,22.3-18.1,22.3c1.9,2.9,4.7,5.1,7.9,6.3c0,0,12.8-15.9,18.4-22L152.5,42z"/>
<path class="st4" d="M153.9,40c1.7-2.8,2.7-19.3,11.6-30.2c6.6-8.1,16.6-12.5,26.2-8c11.5,5.3,11.8,21.8,0.8,33.2
	c-16.5,17.3-26.9,9.5-31.8,13.7L153.9,40z"/>
<path class="st1" d="M138,58.7c0.3,1.3,2.6,3.4,3.6,1.9c1.3-1.9-0.7-5.7-0.7-5.7s4.4,3,5.8,0.3c1.6-3-5.2-6.3-5.2-6.3s6.1,4.9,8.1,2
	s-5.8-6.7-5.8-6.7s7.8,5,8.5,3c0.7-2-2.2-6.7-4.2-6.7C142.8,40.6,137.2,54.5,138,58.7z"/>
<path class="st1" d="M162.2,71.8c3.7-7.1,4.1-15.4,1.9-20.9c-3.6-8.9-13.4-15.8-15.3-14.5c-4.3,2.9,5.4,12.2,5.3,13.1
	c-0.1,0.9-5.4,6.7-5.9,9.2c-0.7,3.1-0.6,6.2,0.1,9.2L162.2,71.8z"/>
<path class="st5" d="M67.4,300.2c0,0-28.2,2.7-31.4,2.8s-24.8-25.7-26.4-28.2s1.1-8.7,2-12.8s-2-22.8-2.9-28.9s16.8-32.9,18.2-39.6
	s30.1-32,30.9-35.2s10.7-15.8,16-16.5c2.6-0.4,5.2-0.3,7.7,0.4c1.1,0.1,10.4-6.9,14.4-8s6.5,1.7,10,0.7s11.2-13.1,14.7-20.9
	s21-15.5,28.6-16.8C157,96,165.4,114,167.5,120c2.1,6-13.9,17.4-16.5,21.7c-2.5,4.3-22.6,8.1-26,10.5s-7.9,20.4-11.4,25.7
	s-20.6,12.9-27.2,15.7s-25.1,14.9-25.1,14.9c7,9.6,4.7,21.4,1.2,27.1c-2.2,3.3-4.7,6.3-7.5,8.9c0,0-4.1,13.7-3.8,16.9
	s10.1,8.7,18.4,15.4s13.2,18.3,13.2,18.3L67.4,300.2z"/>
<path class="st6" d="M52.9,264.2c-8.5,0.6-19.4,10.9-19.4,10.9c0.4,1.6,7,3.3,7,3.3c6.9-11.5,19.4-9.1,19.4-9.1
	C59.5,269.7,52.9,264.1,52.9,264.2z"/>
<path class="st6" d="M52.2,255.1c-13.9,8.9-19.7,6-19.7,6l-1.4,5.8c8.6,1.5,20.1-6.2,20.1-6.2L52.2,255.1z"/>
<path class="st7" d="M53.8,249.1c-13.9,8-18.4-2.5-18.4-2.5l8-6.9c0.2,7.4,12.9,3.6,12.9,3.6C55.2,245.1,54.3,247,53.8,249.1z"/>
<path class="st2" d="M72.9,210c3.6,6.4,17.2,13.4,24.2,17.1s51.8-45.2,52.5-47.2c0.4-1.3-1.7-10.9-3-12.1c-2-1.8-18.1-9.6-18.1-9.6
	S69.3,203.6,72.9,210z"/>
<path class="st8" d="M145.8,132.6l-37.4-2.1c0,0-7.2-6.3-3.8-14.6c2.6-6.1,6.4-11.5,11.3-15.9c5.7-5.5,12.7-9.5,20.3-11.7
	c12-3.3,10.3,9.3,11,11.7L145.8,132.6z"/>
<path class="st9" d="M81.4,135.4c5.7-2.9,21-5,21-5s-3.4-15.2,1.2-10.6c7.3,7.3,41.4,13.2,41.4,13.2l-2.4-46
	c9.8-1,19.2,2.1,26.1,9.7c13,14.3,11.6,34.5-0.6,45.1c-12.8,11.4-36.5,13.2-37.5,14.8c-1,1.6-2.6,6.6-2.6,6.6
	c-1.7,13.4-10.1,19.6-16.5,26.6s-32.2,17.4-35.8,18.8c-2.9,1.1-5.6,2.8-8,4.9c-4,3.5-10,16.1-10,16.1c-4,5.9-7.7,7.9-10,8.9
	s-10.3,6.3-11.8,9S31,269.1,31,269.1c1.6,2.3,3.3,4.5,5.3,6.5c7.9,1,28.6,23.9,27.6,25.6l-16.4,13.2c0,0-13.4-1.7-19.4-8.7
	c-3.2-3.7-8.8-11.1-8.8-11.1c-2.5-0.8-4.7-2.3-6.2-4.5c0,0-3.5,0.6-10-9.2s-0.4-19.8-0.4-19.8c2-2.9,1-7.7,1-7.7
	c-0.6-2.2,0.2-11.5,1.6-17.7c0.4-2.1,7.6-24.4,12.7-37.9c4.1-6.7,15.2-15.9,15.2-15.9c7.6-9,14.4-16.5,18.5-20.4L81.4,135.4z"/>
<path class="st3" d="M3.6,253.7c-2.8,3.4-1,7.7-1,7.7C17.1,273,31,269.1,31,269.1c2.1-2.5,1.3-7,1.3-7C9.4,263,3.5,253.7,3.6,253.7"
	/>
<path class="st3" d="M32.1,270.6C26.9,281.2,13,290.2,13,290.2c3.1,4.2,6.2,4.5,6.2,4.5c12.8-5.7,17.1-19,17.1-19
	C35.4,272.6,32,270.7,32.1,270.6z"/>
<path class="st10" d="M36.4,246.7c-10.6-11.8-18.6-48.6-18.6-48.6c7-10.8,12.9-13.8,12.9-13.8c-7.9,18.6,13.8,56.1,13.8,56.1
	C39.7,243.9,36.5,246.8,36.4,246.7z"/>
<path class="st3" d="M105.2,193.1c-46.8,15.9-55.8-3.3-55.8-3.3l-4.1-3.5c61.3-49.2,67.5-42.4,67.5-42.4l17.3,13.7
	C130.1,157.7,126.6,186,105.2,193.1z"/>
<path class="st3" d="M67.8,213.4c-7.6-5.7-32.2-34.1-32.2-34.1c3.1-7,11-12.6,11-12.6c7.2,20.5,32.3,40.5,32.3,40.5
	C73.5,209.9,67.7,213.4,67.8,213.4z"/>
<path class="st9" d="M49.6,191.7c-1-1.5,1.5-3,2.6-1.1C52.7,191.6,50.9,193.8,49.6,191.7z"/>
<path class="st9" d="M45.3,186.4c-1-1.7,1.6-3.2,2.8-1.2C48.6,186.3,46.7,188.7,45.3,186.4"/>
<path class="st9" d="M40.4,180.7c-1.4-2.1,2.1-4.2,3.6-1.5C44.8,180.4,42.2,183.6,40.4,180.7"/>
<path class="st1" d="M131.3,181.4c-3.6-2.4-0.1-7.7,4.3-4.7C139.2,179.2,134.8,183.9,131.3,181.4z"/>
<path class="st1" d="M123.5,190.7c-4-2.7,1.4-7.6,4.9-5.2C132,187.8,127.5,193.4,123.5,190.7z"/>
<path class="st3" d="M117.6,192.6c-0.7-0.1-16.3,18.1-17.3,19.8c-0.4,0.7,1.3,1.8,2.3,2.1s17.7-19.2,17.7-19.2
	C120.8,194.6,118.3,192.7,117.6,192.6z"/>
<path class="st11" d="M82.7,154"/>
<path class="st3" d="M59.5,152.8c0.6-1.2,45-17.7,45-17.7l-6.3-5.6c0,0-24.5,3.7-30.1,9.8c-2.7,2.8-4.7,6.1-6.1,9.8l-23.6,25.6
	l2.6,1.9L59.5,152.8z"/>
<path class="st12" d="M111.9,121c0.9-6,7.2-8.1,7.2-8.2c-0.7-1.3-1.1-2.7-1.2-4.1c5.9-2,7.8-4.1,10.6-7.7c2.8-3.6,11.2-4.9,11.2-4.9
	s5,13.3,4.2,19.9S127,128.2,127,128.2C121.6,129.3,111.9,121,111.9,121"/>
<path class="st6" d="M143.3,128.4l-0.7-16c-0.1,9.1-17.2,15.1-17.2,15.1l15,3.7L143.3,128.4z"/>
<path class="st9" d="M106.8,143.3c0,0-17,1-34.2,23.2c-2.6,3.2-21.1-5.5-21.1-5.5s10.9-0.7,11.7-8.1c0.6-5.1,4.2-10.6,7.3-12.8
	c5-3.5,10.7-4.3,15.6-5.5c5.4-1.4,11.1-1.9,16.7-1.6L106.8,143.3z"/>
<path class="st7" d="M62.7,175.2c-5.4,1.6-13.6-10.8-13.6-10.8c3.2-6.2,8.3-11.1,14.6-14.1c0,1,0.3,1.9,0.7,2.8
	c3.2,5.1,14.3,9.1,14.3,9.1S65.7,174.3,62.7,175.2z"/>
<g id="eye">
	<path class="st13" d="M136,110.8c-0.5,1.6-1.3,3-2.3,4.4c0,0,0.9-4,1.3-5.2c0.4-1.2-0.6-3.6-0.6-4.8c0-0.7,0.4-1.3,1-1.6
		C135.9,104.3,136.5,109,136,110.8z"/>
	<path class="st14" d="M130.9,111.8c-1-1-2-1.8-3.1-2.5c0,0,3.3-2.3,3-1.6C129.9,109.4,130.9,111.8,130.9,111.8z"/>
	<path class="st15" d="M129.2,110.3c0.4,0.3,0.8,0.6,1.1,0.9c0.3,0.3,0.3,0.6,0.7,1.1l-0.4,0.4c-0.2-0.3-0.3-0.7-0.3-1
		c0-0.3,0.2-0.4,0.2-0.7c-0.1-0.7-0.2-1.3-0.2-2c0-0.6,0.1-1.2,0.2-1.8l0.4-1.8c0.1,1.2,0,2.4,0,3.6c0.1,0.6,0.1,1.5,0.1,1.8
		s0.1,0.5,0.1,0.8l-0.2,0.4v0.5l1,1.5l-1.2-1.4c-0.3-0.4-0.6-0.7-0.9-1.1l-1-1.1l-1-1.1l-1-1.1C127.7,109,128.5,109.7,129.2,110.3z"
		/>
	<path class="st15" d="M130.7,112.4v-0.6l0.7,0.1c0.1,0.1,0.1,0.2,0.2,0.4c0.2,0.3,0.5,0.5,0.7,0.6c0.3,0.2,0.7,0.3,1,0.3
		c0.2,0,0.3,0,0.5,0c-0.2,0.1-0.3,0.1-0.5,0.1c-0.4,0-0.8,0-1.2-0.2c-0.4-0.1-0.7-0.3-1-0.5C131.1,112.6,130.9,112.5,130.7,112.4
		L130.7,112.4z"/>
	<path class="st15" d="M131.3,112.1c0,0,0,0.1,0.1,0.1c0,0.1,0,0.2,0,0.3c0.1,0.4,0.3,0.7,0.6,1c0.3,0.3,0.7,0.5,1.1,0.6
		c0.2,0,0.4,0,0.6-0.1l-0.1,0c0,0.2-0.2,0.2-0.4,0.2c-0.5,0-1-0.2-1.4-0.5c-0.4-0.3-0.7-0.6-0.9-1.1c0-0.1-0.1-0.3-0.1-0.4
		c0,0-0.1-0.1-0.1-0.1L131.3,112.1z"/>
	<path class="st15" d="M131.1,111.2c0.1,0.2,0.3,0.3,0.5,0.4c0.2,0.2,0.6,0.4,0.9,0.4c0.4,0.1,0.7,0.2,1.1,0.1l0.5-0.1
		c-0.2,0.1-0.3,0.1-0.5,0.1c-0.4,0.1-0.8,0.1-1.1,0.1c-0.4,0-0.8-0.1-1.2-0.3c-0.1,0-0.3-0.1-0.4-0.2l-0.1-0.1
		c-0.1,0-0.1-0.1-0.2-0.2l0,0L131.1,111.2z"/>
	<path class="st15" d="M129.9,109.6c-0.8,0.4-1.8,0-2.2-0.8c-0.9-1.8,2.5-2.9,2.9-1.4C131.1,108.2,130.8,109.2,129.9,109.6z"/>
</g>
<path class="st6" d="M118.6,120.6c-2.1-0.4-4.1-1.4-5.7-2.9c-0.1-1.3,1.6-1.8,1.6-1.8c-0.3-0.9,0.9-1.1,1.4-1.2
	c0.7-0.2,1.8,2.9,3.8,4.2c1.5,0.7,3,1.2,4.5,1.7C123,121.3,121.9,121.2,118.6,120.6z"/>
<path class="st7" d="M86.8,289.1c2.7,1,8.9,3.3,10.8,5.3c6.7,7.1-17.4,43.4-17.9,44s-6.4-1.5-8.9-2.4c-1.8-0.7-5.5-4.2-4.6-6.9
	c0.7-2.3,4.3-14.4,3.4-19.7s-10.5-8.8-10.5-8.8c-0.9-3.3,11.7-22.9,11.7-22.9C71.2,277.1,84.2,288.1,86.8,289.1z"/>
<path class="st5" d="M74.5,337.3c0,0,5,0.3,9.3-8c2-4,13.9-34.8,13.9-34.8c2.6,1,4.9,2.6,6.7,4.8c1.8,2.2-3.8,12.4-9.2,23.5
	c-3.3,6.7-7,16.5-10.5,16.4C76.2,338.9,74.5,337.3,74.5,337.3z"/>
<path class="st6" d="M81.8,285.9c0,0-14.7,25.4-15.4,23.7c-0.5-1.2-1.3-2.2-2.2-3.1l14.8-22.7L81.8,285.9z"/>
<path class="st16" d="M74,279.7c0,0-13.9,22.9-14.8,22.9c-1.4-0.1-2.8-0.6-3.9-1.5c0,0,14.6-24.1,15-23.9
	C71.9,278.1,74,279.7,74,279.7z"/>
<path class="st10" d="M70.8,302.3c2.8,1.4,9.5,4.3,11.5,6.7c6.9,8.4-22.4,46.8-23.1,47.4s-7.1-2.1-9.7-3.3c-2-0.9-5.8-5-4.6-7.9
	c1-2.4,5.8-15.6,5.2-21.5S40,313.5,40,313.5c0.3-3.9,16.4-22.2,16.4-22.2C56.8,290.6,68,300.9,70.8,302.3z"/>
<path class="st9" d="M53.5,354.9c0,0,5.6,0.8,10.9-8.1c2.5-4.3,17.9-37.6,17.9-37.6c2.8,1.2,5.2,3.2,7,5.7c1.8,2.6-5,13.4-11.9,25.4
	c-4.1,7.2-8.9,17.8-12.9,17.4C55.4,356.7,53.5,354.9,53.5,354.9z"/>
<path class="st3" d="M66.7,299.5c0,0-16.2,24.6-16.9,22.8c-0.5-1.2-1.2-2.3-2-3.3l16.2-21.7L66.7,299.5z"/>
<path class="st2" d="M59.5,293.5c0,0-16,21.4-16.9,21.4c-1.4-0.2-2.7-0.9-3.7-1.9c0,0,16.9-22.6,17.3-22.4
	C57.5,291.7,59.5,293.5,59.5,293.5z"/>
<path class="st3" d="M138.8,133.7c-17.1,0.3-39.9-12.2-39.9-12.2c-0.1-5.7,3.6-6.7,3.6-6.7c8.4,8.9,37,16,37,16L138.8,133.7z"/>
<path class="st3" d="M141.7,130.3c3.1-15.1-5-43.5-5-43.5c5-3.9,12.1-2.2,12.1-2.2c1.9,6.5-2.9,44.9-2.9,44.9L141.7,130.3"/>
<path class="st7" d="M145.8,135.7c5.6,2,25.3,4.4,25.3,4.4c1.6,0.2,4-5.9,4-5.9c-5.9,2.1-27.7-0.3-27.7-0.3L145.8,135.7z"/>
<path class="st3" d="M138,138.9c-7.8-4.9,3.5-16.8,10.6-9.6C152.5,133.3,145.7,143.9,138,138.9z"/>
<path class="st2" d="M140.7,135.2c-3.4-2.4,1.2-5.6,3.8-3.2C145.9,133.3,144.1,137.5,140.7,135.2z"/>
<path class="st3" d="M132.8,155.9c-22.5-16.2-31.1-29.2-31.1-29.2c-2.7-1.7-5.3,1.4-5.3,1.4c9.2,12.2,33.7,29.6,33.7,29.6
	C131,158.8,133.5,156.3,132.8,155.9z"/>
<path class="st9" d="M56.1,195.4c0.6,1-1.3,3.2-2.6,1.1C52.6,195.1,55.1,193.6,56.1,195.4"/>
<g id="caito_arm-2">
	<path class="st1" d="M45.6,252.3c-1.5,0.9-10.9,2.6-10.9,2.7c0,0,0,0,0,0c1.2,3.2,4.8,4.9,8,3.7c1.2-0.4,7.4-2.7,7.4-2.7
		c-2.1,1.5-9.5,3.3-9.5,3.3c-0.6,1.7,5.9,2.2,8.2,1.6c1.9-0.5,9.7-4.1,9.4-3.7c-0.2,0.2-8.8,3.9-8.5,4c8.9,1.5,18.6-9.4,18.6-9.4
		s5.9-5.4,8.7-6.6s5.8-1.7,11.1-4.9s14.7-11.1,14.7-11.1c8.7-3.9,14.1-15.5,14.1-15.5c8.2-8.4,3.8-20.8,3.8-20.8
		c6.1-5.6,4.2-28.9,3.7-32.4s-5.6-10.5-14.7-11.2s-10.9,5.5-12.4,7.9c-2.7,4.3-1.1,20.9-1.1,20.9c-1.8,3.5,0.5,14,0.5,14
		s-0.4,3.1-0.6,5.2c-0.1,1.7,0.1,3.5,0.6,5.2c0.1,1-2,2.4-3.1,4.3c-1.2,2.2-8.2,5-12.8,9.4c-11.5,11.1-27.1,20.9-28.6,22
		c-2,1.5-9.4,1.6-10,1.5S41,242,41.6,243c0.9,1.5,4.8,2.5,4.8,2.5c-4.2,2.9-13.2,2.5-13.4,3c-1.6,4.7,2,5.7,2,5.7
		C35.4,254.8,45.6,252.3,45.6,252.3"/>
	<path class="st2" d="M111.4,223.7c-13.1-0.7-19.2-16.1-19.2-16.1c0.1-2.6,4.5-4.7,4.5-4.7c5.5,10.5,18,16.1,18,16.1
		C114.5,222.4,111.3,223.8,111.4,223.7z"/>
	<path class="st3" d="M111.3,223.7c-12.2-1-19.2-16.1-19.2-16.1c-2.2-0.4-4.6,3.6-4.6,3.6c5.9,16.9,17,17.2,17,17.2
		C107.2,227.5,109.5,225.9,111.3,223.7z"/>
	<path class="st3" d="M52.4,237.1c6.7,18.6,16.4,15.6,16.4,15.6l7.6-7.1c-9.5-3.2-13.4-15.2-13.4-15.2
		C58.7,231.6,52.4,237,52.4,237.1z"/>
	<path class="st2" d="M108.9,179.7c-9.7-1.6-8.4-17.4,1.6-16.3C120.5,164.6,121.1,181.6,108.9,179.7z"/>
	<polygon class="st6" points="105,175.7 107.9,175.9 109.6,172.4 110.8,176.1 114,176.4 113.8,176 110.3,168 111.6,165.7 
		111.1,165.4 110,167.3 109.3,165.8 108.8,166 109.6,167.9 106,174.3 	"/>
</g>
</svg>
