<?xml version="1.0" encoding="utf-8"?>
<!-- Generator: Adobe Illustrator 18.1.1, SVG Export Plug-In . SVG Version: 6.00 Build 0)  -->
<svg version="1.1" id="Layer_1" xmlns="http://www.w3.org/2000/svg" xmlns:xlink="http://www.w3.org/1999/xlink" x="0px" y="0px"
	 viewBox="0 0 100 100" enable-background="new 0 0 100 100" xml:space="preserve">
<g>
	<g>
		<path fill="#E9612C" d="M31.8,5.5C97.2-19.8,126.5,71.2,65.2,95S-25.1,27.5,31.8,5.5z"/>
	</g>
	<g>
		<path fill="#D6B839" d="M86,56.1c0,0-4.9-24.4-36-23.6C21.6,33.3,8,66.2,17.1,70.2L86,56.1z"/>
		<path fill="#754532" d="M17.1,70.2c0,0-4.4-5.1-2.7-6.8c0.5-0.5,0.9-1.7,0.9-1.7s-0.2-2.1,0.2-3.5c0.5-1.3,3.2-2.3,3.2-2.3
			s0.3-3.2,2.6-4.5s2.4-1.4,2.4-1.4s-0.5-5.2,2.4-4.3c2.8,0.9,6.1,1.6,6.1,1.6L35,64.8L17.1,70.2z"/>
		<path fill="#1FCEAC" d="M25.9,55.5c0,0-3.7-5.2-4.1-6.2c-0.9-2.6,5.1-4.9,6.5-5.4c1.4-0.5,0.4-3.8,2.1-4.9
			c1.7-1.1,3.8-0.5,4.6-1.4c0.8-0.8,2.8-1.9,5.8-3.1c3-1.2,2.1,0.6,6.2,0s7.9-2.7,10.7-2c2.8,0.7,3.1,2.1,5.3,2
			c2.2-0.1,4.9-1.1,6,1.2s0.5,3.8,3,3.3c2.4-0.5,4.1-1.9,5.4,1.5c0.9,2.4-0.8,5.1-0.8,5.1L25.9,55.5z"/>
		<path fill="#A35941" d="M28.2,50c-1.9-3.2,0.4-8.3,1.8-8.5s3.4-0.4,4.1-1.1c0.7-0.7,2.1-3.1,4.6-3.2c2.6-0.1,10.5-1.1,13.7-1.3
			c3.2-0.3,5.2-1.2,7.2-1.4s0.8-1.1,3.2-0.7c2.4,0.4,4.1,3.1,5,3.5c0.9,0.4,1.7-1.3,3.4-0.3s2.9,1.9,3.5,3.5s0.5,3.4,0.5,3.4
			L28.2,50z"/>
		<path fill="#E8D170" d="M86,56.1L17.1,70.2c0,0,9.5-31.4,33-34.1C79.3,32.8,86,56.1,86,56.1z"/>
	</g>
</g>
</svg>
