<?xml version="1.0" encoding="utf-8"?>
<!-- Generator: Adobe Illustrator 18.1.1, SVG Export Plug-In . SVG Version: 6.00 Build 0)  -->
<svg version="1.1" id="Layer_1" xmlns="http://www.w3.org/2000/svg" xmlns:xlink="http://www.w3.org/1999/xlink" x="0px" y="0px"
	 viewBox="0 0 100 100" enable-background="new 0 0 100 100" xml:space="preserve">
<g>
	<path fill="#E9612C" d="M18.4,15.2c52.1-46.4,109.9,27.7,61.1,71.2S-26.8,55.5,18.4,15.2z"/>
</g>
<g>
	<path fill="#C7E8F0" d="M28.7,25.2c4.2-0.6,20.3-2.5,42.8,0.1c0.5,0.1,0.8,0.5,0.8,1c-0.8,7-6.4,51.9-7.4,52.9
		c-1.2,1.1-6.4,4.4-14.2,4c-7.8-0.4-11.5-0.7-15.5-3.9l-7.3-52.8C27.7,25.8,28.1,25.3,28.7,25.2z"/>
	<path fill="#F2D176" d="M29.4,38.4c0,0,5.6-3.4,20.6-3.3s20.6,3.3,20.6,3.3s-8.2,11.2-19.4,10.5C40,48.2,29.4,38.4,29.4,38.4z"/>
	<path fill="#F2E296" d="M29.4,38.4c0,0,7.4,2,20.3,2.3c15.4,0.4,21-2.3,21-2.3L68.6,55c0,0-3.7,12.1-18.5,12.2S31.6,54.1,31.6,54.1
		L29.4,38.4z"/>
	<path fill="#E1C51B" d="M63.9,42.5c0,0,0.8-0.2,1.7,0c0.9,0.2,4.2,1.6,2.4,6.4c-1.8,4.8-6.3,6.8-6.3,6.8s-12.3,9.5-14,9.8
		c-1.7,0.2-4.1-0.4-4.1-1.2c-0.1-0.8,0.4-0.6,1.2-1c0.8-0.4,2-3,3.2-3.4c1.2-0.4,1.2-0.3,1.2-0.3s0.2-1.3,1.3-2
		c0.9-0.6,2.2-0.4,2.2-0.4s0.2-0.9,1.2-1.7c0.9-0.7,1.6-0.4,1.6-0.4s0.2-1.3,1.4-1.9c0.7-0.4,1.6-0.4,1.6-0.4s-0.1-1,1.1-1.9
		c0.6-0.5,1.6-0.4,1.6-0.4s-0.2-1.2,0.7-1.6c1.1-0.6,1.4-1.4,1.4-1.4s0.5-1.6,0.2-2.4c-0.3-0.7-1.2-2.1-0.8-2.2
		C63.1,42.8,63.9,42.5,63.9,42.5z"/>
	<path fill="#969282" d="M62.5,43.1c0,0.3,0.3,0.9,0.4,1s0.8-1.5,0.7-1.5S62.5,42.8,62.5,43.1z"/>
	<path fill="#969282" d="M64.5,43.3c0.3,0.2,0,0.6-0.2,0.4C64,43.6,64.1,43.2,64.5,43.3z"/>
</g>
</svg>
