<?xml version="1.0" encoding="utf-8"?>
<!-- Generator: Adobe Illustrator 18.1.1, SVG Export Plug-In . SVG Version: 6.00 Build 0)  -->
<svg version="1.1" id="Layer_1" xmlns="http://www.w3.org/2000/svg" xmlns:xlink="http://www.w3.org/1999/xlink" x="0px" y="0px"
	 viewBox="0 0 100 100" enable-background="new 0 0 100 100" xml:space="preserve">
<g>
	<g>
		<path fill="#E9612C" d="M42.5,2.7c69.3-8.8,76.5,86.5,11.6,94.7S-17.7,10.3,42.5,2.7z"/>
	</g>
	<g>
		<path fill="#E1C51B" d="M86.7,37.5c0,0-17.6-19.8-18.8-19c-1.2,0.8-13.6,34.4-13.4,36.1c0.1,0.6,4.4-1.2,9.7-3.9
			C73.5,46,86,39,86.7,37.5z"/>
		<path fill="#969282" d="M18.6,51.8c0,0,23.2,6.5,53.9,0C72.5,51.8,49.4,43.2,18.6,51.8z"/>
		<path fill="#1FCEAC" d="M18.6,51.8c0,0,2.5-1.3,5.8-2.9c1.8-0.9,5.6-1.3,8.2-0.5s3-1.2,6.2-1.4c3.2-0.2,3.4,1.8,7.3,0
			s7.8,0.9,10.6,1c1.4,0.1,4.6-0.5,6.5,0c1.9,0.5,3.8,0.9,4.8,1.1c2,0.5,4.6,2.7,4.6,2.7l0,0l-22.8,8.1l-29.2-6.5"/>
		<path fill="#7F7C70" d="M18.6,51.8c0,0-0.9,26,27.9,25.1c28-0.9,26-23.6,26-25.1c0,0-15.8,4-27,4.2C33.4,56.3,18.6,51.8,18.6,51.8
			z"/>
		<path fill="#7F7C70" d="M29.6,72.3v8.2c0,0,1.5,2.4,4.5,0v-7.2L29.6,72.3z"/>
		<path fill="#7F7C70" d="M63.6,72v8.2c0,0-1.5,2.4-4.5,0V73L63.6,72z"/>
	</g>
</g>
</svg>
