<?xml version="1.0" encoding="utf-8"?>
<!-- Generator: Adobe Illustrator 19.2.1, SVG Export Plug-In . SVG Version: 6.00 Build 0)  -->
<svg version="1.1" id="Layer_1" xmlns="http://www.w3.org/2000/svg" xmlns:xlink="http://www.w3.org/1999/xlink" x="0px" y="0px"
	 viewBox="0 0 100 100" style="enable-background:new 0 0 100 100;" xml:space="preserve">
<style type="text/css">
	.st0{fill:#E9612C;}
	.st1{fill:#C7E8F0;}
	.st2{fill:#B6E2EC;}
	.st3{fill:#713B6B;}
</style>
<g>
	<path class="st0" d="M21.8,13.1C76.6-28,127.4,49.5,76,88.1S-25.9,48.9,21.8,13.1"/>
	<g>
		<g>
			<path class="st1" d="M51.3,33.7c0,0-1.7,13.2-9,17.5C35.7,55,34,54.1,34,54.1l-5.2,16.4c0,0,6.7,2.4,5.7,4.5
				c-1.4,2.8-17.2-3.3-17-5.1c0.3-2.5,7-0.7,7-0.7l5.4-16.9c0,0-0.1-0.9-4.5-7.2c-4.6-6.6,1.1-19.9,1.1-19.9L51.3,33.7z"/>
			<path class="st2" d="M26.4,25.1c1-4.7,24.7,3.4,24.8,8.5C51.4,38.7,25.4,29.8,26.4,25.1z"/>
			<path class="st3" d="M24,33.7c0,0,6.6,5,12.1,6.7c7.6,2.4,12.9,1.6,12.9,1.6s-4.2,15.9-16.7,12.3C17.7,50,24,33.7,24,33.7z"/>
		</g>
		<g>
			<path class="st1" d="M69.8,23.3c0,0,7,11.4,3.9,19.4c-2.7,7.2-4.5,7.5-4.5,7.5l6.2,16c0,0,6.7-2.4,7.1-0.2
				c0.7,3-15.4,8.5-16.4,7.1c-1.4-2.2,5-5,5-5l-6.4-16.6c0,0-0.7-0.7-8-2.6c-7.5-2.2-11.5-16.1-11.5-16.1L69.8,23.3z"/>
			<path class="st2" d="M45.3,32.7c-2.2-4.3,21.3-13.2,24.5-9.4C73.1,27.1,47.5,36.9,45.3,32.7z"/>
			<path class="st3" d="M48.6,40.9c0,0,8.2-0.4,13.5-2.6c7.4-3.1,11-7.1,11-7.1s6.6,15-5.3,20.3C54,57.7,48.6,40.9,48.6,40.9z"/>
		</g>
	</g>
</g>
</svg>
