<?xml version="1.0" encoding="utf-8"?>
<!-- Generator: Adobe Illustrator 19.2.1, SVG Export Plug-In . SVG Version: 6.00 Build 0)  -->
<svg version="1.1" id="Layer_1" xmlns="http://www.w3.org/2000/svg" xmlns:xlink="http://www.w3.org/1999/xlink" x="0px" y="0px"
	 viewBox="0 0 100.1 100.1" style="enable-background:new 0 0 100.1 100.1;" xml:space="preserve">
<style type="text/css">
	.st0{fill:#E9612C;}
	.st1{fill:#1FCEAC;}
	.st2{fill:#754532;}
	.st3{fill:#E8D170;}
</style>
<g>
	<g>
		<g>
			<path class="st0" d="M64.6,5.4c64.9,24.3,28.8,111.5-32,88.7S8.1-15.7,64.6,5.4z"/>
		</g>
	</g>
	<path class="st1" d="M15.8,78.1c0,0,2.6-31.8,34.8-31.8c27.4,0,34.8,30.2,34.8,30.2L15.8,78.1z"/>
	<g>
		<rect x="37.7" y="36.5" class="st2" width="1.9" height="13.3"/>
		<rect x="42.9" y="36.5" class="st2" width="1.9" height="13.3"/>
		<rect x="60.2" y="36.4" class="st2" width="1.9" height="13.3"/>
		<rect x="55.7" y="36.4" class="st2" width="1.9" height="13.3"/>
		<g>
			<path class="st3" d="M47.2,16.6c0,0,0.3-0.7,1.6-0.7c1.4,0,1.7,0.7,1.7,0.7l6.6,7.9c0,0-4.8,1.6-8.7,1.6s-7.9-1.2-7.9-1.2
				L47.2,16.6z"/>
			<path class="st3" d="M45.6,24.7h6.4l16.9,16.1c0,0-1.8,2.5-19.5,3c-12.3,0.4-19.5-1.6-19.5-1.6L45.6,24.7z"/>
			<path class="st3" d="M49.7,17l0.2-2.2c0,0,0-0.3-1.1-0.3c-0.8,0-1.2,0.3-1.1,0.3L48,17H49.7z"/>
		</g>
	</g>
</g>
</svg>
