<?xml version="1.0" encoding="utf-8"?>
<!-- Generator: Adobe Illustrator 18.1.1, SVG Export Plug-In . SVG Version: 6.00 Build 0)  -->
<svg version="1.1" id="Layer_1" xmlns="http://www.w3.org/2000/svg" xmlns:xlink="http://www.w3.org/1999/xlink" x="0px" y="0px"
	 viewBox="0 0 100 100" enable-background="new 0 0 100 100" xml:space="preserve">
<g>
	<g>
		<path fill="#E9612C" d="M64.4,5.8c64.3,24.1,28.5,110.5-31.7,87.9S8.5-15.1,64.4,5.8z"/>
	</g>
</g>
<g>
	<path fill="#F2DD83" d="M30.8,72.3c0,0-7.6-0.7-10.7-8s4.1-11.7,4.1-11.7s1.8,8.5,3.5,11.9c1.7,3.4,6.5,2.4,6.5,2.4L30.8,72.3z"/>
	<g>
		<path fill="#E5E4E3" d="M80.1,13.7c0,0-11,6.7-14.3,14.9s-6.6,12.3-9.9,15S39.6,55.2,22.1,62c0,0-0.3,0.9,0.5,1.2l26.3-12.6
			c0,0,0.9,0.1,0.9,0.4c0,0.7-25.8,12.6-25.8,12.6s-0.2,0.5,0.5,0.8c0.7,0.3,27.6-12.7,27.6-12.7s0.8-0.1,0.8,0.7S26.6,65,26.6,65
			s0.1,0.8,0.7,0.9c0.6,0.1,27.6-13,27.6-13s0.8,0,0.7,0.7C55.5,54.6,29,66.3,29,66.3s-0.2,0.6,0.7,0.6S62,57.5,64.2,48.7
			c0.8-2.9,0.6-7.4,1.7-12c1.7-7.3,16-20.9,16-20.9L80.1,13.7z"/>
		<path fill="#F6E8A8" d="M29.7,62.2c4.3,8,0.7,10.1,0.7,10.1c1.6,0.1,2.7-0.2,2.7-0.2s-2.8,3.5,2.1,13.9l1.1-0.4
			c0,0-4.3-10.6-1.3-14.9c0,0,6,1.7,7.9-1.1c0,0,7.9-1.3,6.8-10.7c0,0,3.7,6.3,2.1,17.7l2.1,1c0,0,2.1-16.1-2.1-21.7
			c-3.4-4.5-8.5-10-16.8-7.7c0,0-0.9-1.1-2.2,0.5c0,0-6.9-0.5-7.5,3.3c0,0-3.9,2-3.9,3.5C21.1,55.6,28.3,59.6,29.7,62.2z M47,63.7
			c0.5-2.9-6.2-9.4-6.2-9.4C49.6,56.3,47,63.7,47,63.7z"/>
	</g>
</g>
</svg>
