<?xml version="1.0" encoding="utf-8"?>
<!-- Generator: Adobe Illustrator 19.2.1, SVG Export Plug-In . SVG Version: 6.00 Build 0)  -->
<svg version="1.1" id="Layer_1" xmlns="http://www.w3.org/2000/svg" xmlns:xlink="http://www.w3.org/1999/xlink" x="0px" y="0px"
	 viewBox="0 0 100.1 100.1" style="enable-background:new 0 0 100.1 100.1;" xml:space="preserve">
<style type="text/css">
	.st0{fill:#E9612C;}
	.st1{fill:#D7B93B;}
	.st2{fill:#EFDFB1;}
	.st3{fill:#1FCEAC;}
	.st4{fill:#A35942;}
	.st5{fill:#E8D170;}
	.st6{fill:#E1C51B;}
	.st7{fill:#FBFFEB;}
	.st8{fill:#979383;}
</style>
<g>
	<path class="st0" d="M64.4,5.9C128.7,30,92.9,116.3,32.7,93.7S8.6-15,64.4,5.9z"/>
	<path class="st1" d="M85.4,76.1c0,0-0.7-23.2-29.8-27.5c-26.6-3.9-44.6,24-36.8,29.1L85.4,76.1z"/>
	<path class="st2" d="M18.9,77.7c0,0-4.1-4.7-2-8.4c0.5-0.4,1.9-1.8,2.5-2.8c0.7-1.1,3.3-1.5,3.3-1.5s1.7-2.4,4.2-3.1
		c2.5-0.8,1.5-1.3,1.5-1.3s0.4-4.9,3-3.5c2.6,1.4,5.5,2.4,5.5,2.4l0,16.4L18.9,77.7z"/>
	<path class="st3" d="M29.4,65.7c0,0-2.6-5.4-2.9-6.4c-0.5-2.4,5.6-3.7,6.8-4c1.5-0.2,1-3.3,2.8-4.2s3.7,0.2,4.6-0.6
		c0.8-0.6,3.1-1.4,6-2c2.9-0.7,1.7,0.8,5.7,1c4,0.2,7.7-1.2,10.4-0.1c2.4,1.1,2.6,2.6,4.7,2.7s4.8-0.3,5.5,2.1
		c0.8,2.3-0.1,3.5,2.2,3.4c2.4-0.1,4.2-0.9,4.8,2.2c0.6,2.2-1.5,4.7-1.5,4.7L29.4,65.7z"/>
	<path class="st4" d="M32.4,61c-1.3-3.3,1.8-7.7,3.2-7.4c1.4,0,3.3,0.1,4-0.2c0.8-0.6,2.3-2.4,4.8-2.2c2.3,0.2,10,0.8,13,1.1
		c3,0.3,5-0.3,7.1-0.2s0.8-0.8,3.1-0.2c2.2,0.6,3.4,3.6,4,4c0.6,0.3,1.8-0.9,3.2,0.3c1.4,1.2,2.4,2.3,2.6,3.8
		c0.2,1.5-0.1,3.3-0.1,3.3L32.4,61z"/>
	<path class="st5" d="M85.4,76.1l-66.6,1.8c0,0,13.9-27.2,36.2-25.9C83,53.6,85.4,76.1,85.4,76.1z"/>
	<path class="st6" d="M55,23.7c0-1.4,2.1-4.2,2.1-4.2c-4.7-2.9-15.5-3.5-15.5-3.5l-2.1,6.3L55,23.7z"/>
	<path class="st6" d="M65.5,26.6c1-1.6,2.7-2.7,2.7-2.7l-4.9-3.3c-2,0.8-4.1,3.5-4.1,3.5L65.5,26.6z"/>
	<path class="st6" d="M57.9,37.6c3.2,2.3,8.9,2.8,8.9,2.8s0,0,0-0.2c-0.4-1.4-0.1-4.8-0.1-4.8L57.9,37.6z"/>
	<path class="st6" d="M50.9,39c1,1.2,3.3,2.5,3.3,2.5c-0.8,1-3.2,1.1-3.2,1.1c-1.8-0.6-3.9-2.5-3.9-2.5L50.9,39z"/>
	<path class="st7" d="M75.4,30.4l-3.2,2.1c0,0-15.5,8.1-27.3,8.2c-11.8,0.2-15.7-3.3-15.7-3.3s-8-0.8-9.3-3.8
		c-0.4-0.8,2.8,0.3,2.8,0.3s-2.9-2.1-2.9-2.5c0-0.4,1-1.2,2-0.8c0,0,14.7-13.5,33.7-7.9s16.6,6.1,16.6,6.1L75.4,30.4z"/>
	<path class="st6" d="M35.5,36.1c0,0,1.2,2,3.9,3.1c2.6,1.1,4.8-2.1,4.5-3.3c0-1.2-7.2-0.7-7.2-0.7L35.5,36.1z"/>
	<path class="st6" d="M28.5,31.2c-2,0-3.1-3.7-0.1-3.6C30.9,27.8,30.8,31.4,28.5,31.2z"/>
	<path class="st8" d="M28.5,30c-0.8,0-1.4-1.4,0-1.4C29.3,28.6,29.3,30,28.5,30z"/>
	<path class="st8" d="M36.6,32.9c-0.9,4.2-6.9,4.4-6.9,4.4s4.2-1.7,5.3-4.1c1.1-2.4-3.2-7.2-3.2-7.2S37.5,28.6,36.6,32.9z"/>
	<path class="st6" d="M73.3,27.9c2.6-2.1,8.1-6.4,8.3-6.4c2,0.4-1.6,9-1.6,9s3.5,5.9,1,8.2l-7.5-5.2c0,0-3.1-2.3-2.9-3.2
		C70.8,29.5,73.3,27.9,73.3,27.9"/>
</g>
</svg>
