<?xml version="1.0" encoding="utf-8"?>
<!-- Generator: Adobe Illustrator 19.2.1, SVG Export Plug-In . SVG Version: 6.00 Build 0)  -->
<svg version="1.1" id="Layer_1" xmlns="http://www.w3.org/2000/svg" xmlns:xlink="http://www.w3.org/1999/xlink" x="0px" y="0px"
	 viewBox="0 0 100.1 100.1" style="enable-background:new 0 0 100.1 100.1;" xml:space="preserve">
<style type="text/css">
	.st0{fill:#E9612C;}
	.st1{fill:#764633;}
	.st2{fill:#FAC89D;}
	.st3{fill:#E4E3E2;}
</style>
<g>
	<g>
		<g>
			<path class="st0" d="M64.6,5.4c64.9,24.3,28.8,111.6-32,88.7S8.1-15.7,64.6,5.4z"/>
		</g>
	</g>
	<g>
		<path class="st1" d="M78,64c0,0-0.6,8.5,0,9.4c0.6,0.9,6.1,0.9,7,0s0.3-31,0-32.2c-0.3-0.6-5.9-1.2-6.1,0
			c-0.6,1.2-0.6,10.8-0.6,10.8s-55,0.9-56.1-0.3c-0.9-0.9,1.2-20.2,0-21c-1.2-0.9-6.1-0.9-6.7,0c-0.3,0.6-1.2,31.9-1.2,40.6
			c0,1.2,0.9,2.3,2.3,2.3h2.9c1.2,0,2.3-1.2,2.3-2.3v-8.5L78,64z"/>
		<path class="st2" d="M31.8,34.2c11.1,0.3,9.6,14.6,1.2,14.6C21,48.8,22.5,33.9,31.8,34.2z"/>
		<path class="st3" d="M73.9,48.8H39.7c0,0-0.6-9.1,6.1-9.4c6.7-0.3,23.1-0.6,26,0.6C76.5,41.5,73.9,48.8,73.9,48.8z"/>
	</g>
</g>
</svg>
