<svg id="Layer_1" data-name="Layer 1" xmlns="http://www.w3.org/2000/svg" viewBox="0 0 94.64 97.17"><defs><style>.cls-1{fill:#e9612c;}.cls-2{fill:#fbffeb;}.cls-3{fill:#a35941;}</style></defs><title>map-la-esquina</title><path class="cls-1" d="M21.8,13.1C76.6-28,127.4,49.5,76,88.1s-101.9-39.2-54.2-75" transform="translate(-2.69 -1.41)"/><path class="cls-2" d="M24.88,52S23.14,84.64,50.65,83.92,73.86,49.2,73.86,49.2Z" transform="translate(-2.69 -1.41)"/><path class="cls-3" d="M24.94,52s23.69,10.46,49-2.83c1.05-.55-5.28-4.81-23.53-3.27C42.91,46.56,29.66,46.9,24.94,52Z" transform="translate(-2.69 -1.41)"/><path class="cls-2" d="M72.33,56s9.31-2.52,9.69,6.2S66.53,74.15,66.53,74.15l2-5.55s8.18-1,8.75-4.65S72,60.72,72,60.72Z" transform="translate(-2.69 -1.41)"/><path class="cls-2" d="M35.82,45.28c1.59-5.6,9.29-4.23,10.72-6.8s0.86-4.63-.9-6.6a18.06,18.06,0,0,0-5.31-3.49s6.41-.19,8.2,5C52.08,43.63,40,42,38.83,45.94c-2.34,7.59,7.7,6.08,8.34,7.59S33.36,53.92,35.82,45.28Z" transform="translate(-2.69 -1.41)"/><path class="cls-2" d="M51,19.61c-3.69,11.9,6.24,11.93,6.84,17.17C59,46.93,50.74,44.23,50,46.17s11.6,1.5,10.45-10c-0.75-7.48-5.84-4.86-7.71-9.87a10.5,10.5,0,0,1,1-9.43" transform="translate(-2.69 -1.41)"/></svg>