<?xml version="1.0" encoding="utf-8"?>
<!-- Generator: Adobe Illustrator 19.2.1, SVG Export Plug-In . SVG Version: 6.00 Build 0)  -->
<svg version="1.1" id="Layer_1" xmlns="http://www.w3.org/2000/svg" xmlns:xlink="http://www.w3.org/1999/xlink" x="0px" y="0px"
	 viewBox="0 0 100 100" style="enable-background:new 0 0 100 100;" xml:space="preserve">
<style type="text/css">
	.st0{fill:#E9612C;}
	.st1{fill:#754532;}
	.st2{fill:#FBFFEB;}
	.st3{fill:#F39337;}
</style>
<g>
	<g>
		<path class="st0" d="M29.1,7.1c63.3-29.6,98.3,58.7,39,86.5S-25.9,32.8,29.1,7.1z"/>
	</g>
	<polygon class="st1" points="41.8,72.2 59.8,1.6 65.7,2.7 46.6,74 	"/>
	<path class="st2" d="M73.1,62.1c-32.2-23.6-54.5,6.4-54.5,6.4v5.4l54.5-5.4V62.1z"/>
	<path class="st3" d="M73.1,68.5c0,0,4.7-10.1,0-15.5s-35.5-24.9-56.6,5.9c-3.3,4.8,2.1,15,2.1,15S43.5,43.9,73.1,68.5z"/>
	<path class="st2" d="M67.1,49.9c0,0,8.1,9.1,0,12.1C67.1,62.1,71,57.5,67.1,49.9z"/>
	<path class="st2" d="M59.2,47.2c0,0,8.1,8.7,0,11.6C59.2,58.8,63.1,54.4,59.2,47.2z"/>
	<path class="st2" d="M52.2,43.3c0,0,8.1,10.9,0,14.6C52.2,57.9,56.1,52.4,52.2,43.3z"/>
	<path class="st2" d="M43,43.3c0,0,9.6,9.9,2.1,14.8C45.1,58.1,48.2,52,43,43.3z"/>
	<path class="st2" d="M33.4,45.2c0,0,10.9,8.5,4.1,14.3C37.4,59.6,39.6,53.1,33.4,45.2z"/>
	<path class="st2" d="M23.5,52.4c0,0,11.3,4.5,5.5,11C29,63.4,30.4,57.5,23.5,52.4z"/>
	<path class="st2" d="M16.3,59.5c0,0,9.9,3.6,3.1,8.6C19.4,68.1,21.9,63.5,16.3,59.5z"/>
	<polygon class="st1" points="50.1,76.9 79.9,9.7 84.3,13.6 54.5,79.5 	"/>
</g>
</svg>
