<?xml version="1.0" encoding="utf-8"?>
<!-- Generator: Adobe Illustrator 18.1.1, SVG Export Plug-In . SVG Version: 6.00 Build 0)  -->
<svg version="1.1" id="Layer_1" xmlns="http://www.w3.org/2000/svg" xmlns:xlink="http://www.w3.org/1999/xlink" x="0px" y="0px"
	 viewBox="0 0 100 100" enable-background="new 0 0 100 100" xml:space="preserve">
<g>
	<path fill="#E9612C" d="M58.8,3.8C126.2,19.6,101.2,110.7,38,96S0.2-9.9,58.8,3.8z"/>
</g>
<g>
	<path fill="#B6E2EC" d="M28.7,24c0,0,43.4,2.7,42.6-0.7C70.4,19.9,28.3,19.8,28.7,24z"/>
	<polygon fill="#C7E8F0" points="51,53.4 71.3,23.3 28.7,24 	"/>
	<path fill="#C7E8F0" d="M52.4,50.7l-0.6,27.5c0,0,7,0.8,6.6,2C58,82.1,43.1,83,43.6,81.6c0.5-1.5,6-3.4,6-3.4l-0.3-27.3L52.4,50.7z
		"/>
	<path fill="#E4E3E1" d="M32.9,29.6c0,0,20.4,3.8,34.3-0.3c0,0-14.9,22.4-16.3,22.6C49.5,52.1,32.9,29.6,32.9,29.6z"/>
	<polygon fill="#754532" points="49.9,42.8 67.6,18.2 68.9,18.9 	"/>
	<path fill="#1FCEAC" d="M57.2,31.8c5.9,3.3-2.4,10.6-5.7,7.8C48.3,36.8,53.8,29.9,57.2,31.8z"/>
	<path fill="#A35941" d="M57.1,33.3c1.6,1.5,0.2,4.2-1.6,2.8C53.7,34.7,55.4,31.8,57.1,33.3z"/>
</g>
</svg>
