<?xml version="1.0" encoding="utf-8"?>
<!-- Generator: Adobe Illustrator 18.1.1, SVG Export Plug-In . SVG Version: 6.00 Build 0)  -->
<svg version="1.1" id="Layer_1" xmlns="http://www.w3.org/2000/svg" xmlns:xlink="http://www.w3.org/1999/xlink" x="0px" y="0px"
	 viewBox="0 0 100 100" enable-background="new 0 0 100 100" xml:space="preserve">
<g>
	<g>
		<path fill="#E9612C" d="M51.4,2.6c69.3,4.7,58.8,99.2-6.2,94.8S-8.9-1.5,51.4,2.6z"/>
	</g>
	<g>
		<path fill="#E1C51B" d="M63.1,39.8l-2.6-7.7c0,0-13,0.9-18.7,4.7c0,0,2.6,3.4,2.7,5.1L63.1,39.8z"/>
		<path fill="#E1C51B" d="M39.6,42.8c0,0-2.7-3.2-5-4.1l-5.9,4.1c0,0,2.2,1.1,3.4,3.1L39.6,42.8z"/>
		<path fill="#E1C51B" d="M30.8,56.8c0,0,0.4,4.1,0.1,6c0,0.1,0,0.3-0.1,0.4c0,0,6.8-0.7,10.6-3.8L30.8,56.8z"/>
		<path fill="#E1C51B" d="M54.5,62.1c0,0-2.4,2.5-4.5,3.1c0,0-2.9-0.1-3.9-1.3c0,0,2.7-1.7,3.8-3.3L54.5,62.1z"/>
		<path fill="#FBFFEB" d="M23.8,48.9c0,0-2.9-0.4,19.8-7.8s40.9,8.8,40.9,8.8c1.3-0.5,2.5,0.4,2.5,0.9c0,0.6-3.4,3.3-3.4,3.3
			s3.8-1.5,3.4-0.5c-1.5,3.6-11.1,5-11.1,5s-4.6,4.4-18.8,4.5s-33.3-9.3-33.3-9.3l-3.9-2.5L23.8,48.9z"/>
		<path fill="#E1C51B" d="M67.1,55.8c0,0-8.7-0.5-8.8,1c-0.1,1.4,2.5,5.4,5.6,3.9c3.1-1.4,4.7-3.9,4.7-3.9L67.1,55.8z"/>
		<path fill="#E1C51B" d="M76.6,46.3c3.6-0.2,2.4,4.4,0,4.5C74.2,50.9,73.8,46.4,76.6,46.3z"/>
		<path fill="#969282" d="M76.8,48c1.4,0.2,0.7,1.1,0,1.1S76.2,47.9,76.8,48z"/>
		<path fill="#969282" d="M72.7,44.4c0,0-5.1,5.9-3.6,8.9c1.6,3,6.5,4.9,6.5,4.9s-7.2,0-8.5-5.3C66,47.6,72.7,44.4,72.7,44.4z"/>
		<path fill="#E1C51B" d="M22.5,47.8c0,0,3.2,1.9,3.4,3c0.2,1.1-3.3,4-3.3,4l-8.9,6.7c-3.2-2.7,0.9-10.1,0.9-10.1S10,40.9,12.4,40.2
			c0.2-0.1,6.8,5,9.9,7.4"/>
	</g>
</g>
</svg>
