<?xml version="1.0" encoding="utf-8"?>
<!-- Generator: Adobe Illustrator 18.1.1, SVG Export Plug-In . SVG Version: 6.00 Build 0)  -->
<svg version="1.1" id="Layer_1" xmlns="http://www.w3.org/2000/svg" xmlns:xlink="http://www.w3.org/1999/xlink" x="0px" y="0px"
	 viewBox="0 0 100 100" enable-background="new 0 0 100 100" xml:space="preserve">
<g>
	<g>
		<path fill="#E9612C" d="M4.5,39.4C21.6-28.6,112.2,0.9,95,64S-10.3,98.2,4.5,39.4z"/>
	</g>
	<g>
		<path fill="#C7E8F0" d="M53.9,50c-0.8,1-1.5,2-1.8,2.7c-0.7,1.8-2.6,16.5-0.1,22.3c1.3,3,9.7,4,8.3,5.9c-1.4,1.8-6.1,3.1-10.9,3
			c-4.8-0.1-10.9-1.3-11.4-2.6c-0.6-1.3,7.3-2.9,8.4-5.9c1.1-3,2-17.4,0.2-21.9C46,52,45.5,51,45,50.2l-2.3-2.8l13.1,0.2L53.9,50z"
			/>
		<path fill="#CDE1A5" d="M30.1,26.6l-1-0.8l0-1.8c0,0,10.3-3,20.8-3c12,0,17.8,3.8,17.8,3.8s-6.4,8.5-18.9,7.3S30.1,26.6,30.1,26.6
			z"/>
		<path fill="#CDE1A5" d="M44.1,49c-0.9-1.1-1.7-1.8-2.4-2.8c-1-1.4-1.7-8.4-2.3-9.5s-7.5-2.3-9.3-10c0,0,26.7,5.8,37.7-1.8
			c0,0-1,7.1-3.4,9.1c-1.3,1.1-6,3.3-6,3.3s-0.7,7.8-1.7,9.2C56.3,47,55.5,48,54.7,49c0,0-3.2,1.5-5.3,1.5
			C46.5,50.5,44.1,49,44.1,49z"/>
		<path fill="#FBFFEB" d="M29.1,26.3l0-2.3C30.1,25.4,39,27,50,27c11,0,17.8-2.5,17.8-2.5l-0.3,2c0,0-11.6,2.5-17.7,2.3
			C43.7,28.5,31.5,27.9,29.1,26.3z"/>
		<path fill="#FBFFEB" d="M29.1,25.5c0,0,18.9-6.8,38.5,0.1l0.2-1.2c0,0-8.3-3.8-17.8-3.8c-10.5,0-20.8,3.3-20.8,3.3L29.1,25.5z"/>
		<path fill="#1FCEAC" d="M67.2,15.9c11.2,0,12.4,17.1,1.3,17.7c-1.4,0.1-4.5,0.3-3.7-0.6l3-8.2l-8.2,1.7
			C58.6,21.5,60.9,15.9,67.2,15.9z"/>
		<path fill="#CDE1A5" d="M67.3,17.5c9.5,0,10.5,14,1.1,14.5c-1.2,0.1-2.2-0.1-3.1-0.5l2.5-6.8l-6.9,1.4
			C60,22.1,61.9,17.5,67.3,17.5z"/>
	</g>
</g>
</svg>
