<?xml version="1.0" encoding="utf-8"?>
<!-- Generator: Adobe Illustrator 19.2.1, SVG Export Plug-In . SVG Version: 6.00 Build 0)  -->
<svg version="1.1" id="Layer_1" xmlns="http://www.w3.org/2000/svg" xmlns:xlink="http://www.w3.org/1999/xlink" x="0px" y="0px"
	 viewBox="0 0 100 100" style="enable-background:new 0 0 100 100;" xml:space="preserve">
<style type="text/css">
	.st0{fill:#E9612C;}
	.st1{fill:#F9FAEB;}
	.st2{fill:#FAC89D;}
	.st3{fill:#7CCCE5;}
</style>
<g>
	<g>
		<path class="st0" d="M64.4,5.8c64.3,24.1,28.5,110.5-31.7,87.9S8.5-15.1,64.4,5.8z"/>
	</g>
	<g>
		<path class="st1" d="M70,60.5c0,0-0.4,7,0,7.7c0.4,0.6,5.1,0.6,5.7,0s0.3-25.7,0-26.7c-0.1-0.4-4.7-1-5.1,0s-0.4,9.1-0.4,9.1
			s-45,0.6-45.8-0.2s1-16.8,0-17.4s-5.1-0.6-5.5,0c-0.3,0.5-0.8,26.5-1,33.8c0,1.1,0.8,1.9,1.9,1.9h2.3c1,0,1.9-0.9,1.9-1.9v-7.1
			L70,60.5z"/>
		<path class="st2" d="M32.4,35.7c9.2,0.3,7.9,12.2,1,12.2C23.6,47.9,24.9,35.5,32.4,35.7z"/>
		<path class="st3" d="M66.8,47.9H38.9c0,0-0.4-7.5,5.1-7.7s18.8-0.4,21.4,0.4C69,41.8,66.8,47.9,66.8,47.9z"/>
	</g>
</g>
</svg>
