<?xml version="1.0" encoding="utf-8"?>
<!-- Generator: Adobe Illustrator 18.1.1, SVG Export Plug-In . SVG Version: 6.00 Build 0)  -->
<svg version="1.1" id="Layer_1" xmlns="http://www.w3.org/2000/svg" xmlns:xlink="http://www.w3.org/1999/xlink" x="0px" y="0px"
	 viewBox="0 0 100 100" enable-background="new 0 0 100 100" xml:space="preserve">
<g>
	<path fill="#E9612C" d="M21.2,12.3c56-42,107.8,37.2,55.3,76.6S-27.5,48.8,21.2,12.3"/>
	<g>
		<g>
			<path fill="#C7E8F0" d="M51.3,33.3c0,0-1.7,13.5-9.2,17.9c-6.7,3.9-8.4,3-8.4,3l-5.3,16.7c0,0,6.8,2.5,5.8,4.6
				c-1.4,2.9-17.6-3.4-17.4-5.2c0.3-2.6,7.1-0.7,7.1-0.7l5.5-17.3c0,0-0.1-0.9-4.6-7.4c-4.7-6.7,1.1-20.3,1.1-20.3L51.3,33.3z"/>
			<path fill="#B6E2EC" d="M25.9,24.6c1-4.8,25.2,3.5,25.3,8.7C51.4,38.4,24.9,29.3,25.9,24.6z"/>
			<path fill="#713B6B" d="M23.4,33.3c0,0,6.7,5.1,12.4,6.8c7.8,2.4,13.2,1.6,13.2,1.6s-4.3,16.2-17,12.6C17,50,23.4,33.3,23.4,33.3
				z"/>
		</g>
		<g>
			<path fill="#C7E8F0" d="M70.2,22.7c0,0,7.1,11.6,4,19.8c-2.8,7.4-4.6,7.7-4.6,7.7l6.3,16.3c0,0,6.8-2.5,7.3-0.2
				c0.7,3.1-15.7,8.7-16.7,7.2c-1.4-2.2,5.1-5.1,5.1-5.1l-6.5-16.9c0,0-0.7-0.7-8.2-2.7c-7.7-2.2-11.7-16.4-11.7-16.4L70.2,22.7z"/>
			<path fill="#B6E2EC" d="M45.2,32.3c-2.2-4.4,21.7-13.5,25-9.6C73.6,26.6,47.4,36.6,45.2,32.3z"/>
			<path fill="#713B6B" d="M48.6,40.7c0,0,8.4-0.4,13.8-2.7c7.6-3.2,11.2-7.3,11.2-7.3s6.7,15.3-5.4,20.7
				C54.1,57.8,48.6,40.7,48.6,40.7z"/>
		</g>
	</g>
</g>
</svg>
