<?xml version="1.0" encoding="utf-8"?>
<!-- Generator: Adobe Illustrator 19.2.1, SVG Export Plug-In . SVG Version: 6.00 Build 0)  -->
<svg version="1.1" id="Layer_1" xmlns="http://www.w3.org/2000/svg" xmlns:xlink="http://www.w3.org/1999/xlink" x="0px" y="0px"
	 viewBox="0 0 100.1 100.1" style="enable-background:new 0 0 100.1 100.1;" xml:space="preserve">
<style type="text/css">
	.st0{fill:#E9612C;}
	.st1{fill:#E1C51B;}
	.st2{fill:#EFDFB1;}
	.st3{fill:#A35942;}
</style>
<g>
	<g>
		<g>
			<path class="st0" d="M64.6,5.3c65.1,24.4,28.9,111.9-32.1,89S8-15.9,64.6,5.3z"/>
		</g>
	</g>
	<g>
		<polygon class="st1" points="22.2,30 72.2,23.6 69.3,86.6 		"/>
		<path class="st2" d="M53.1,17.5c3.1-1.5,5.6-0.8,8.9-0.8c3.4,0,4.9,1.7,7.7,1.1c2.8-0.6,5.3,1.1,5.3,3.9c0,2.8-2.9,4.9-8.2,5.2
			c-5.3,0.3-7.9-0.8-12.7,0s-6.4,2-10.9,2.5c-4.5,0.6-11.1-0.5-14.1-0.1s-3.9,3.7-8.3,3.2c-2.5-0.3-8.5-8.2-1.2-8.8
			c7.2-0.6,5.5,0.6,8.6-1.4c1.7-1.1,2.8-2.3,8.1-3.9c4.3-1.3,6.7,0.3,9.2,0.3C48,18.6,50,18.9,53.1,17.5z"/>
		<ellipse class="st3" cx="45.1" cy="41.8" rx="4.9" ry="4.2"/>
		<ellipse class="st3" cx="64.7" cy="46" rx="4.9" ry="4.2"/>
		<ellipse class="st3" cx="52.9" cy="53" rx="4.9" ry="4.2"/>
		<ellipse class="st3" cx="62.8" cy="67.5" rx="4.9" ry="4.2"/>
		<ellipse class="st3" cx="52.9" cy="33.5" rx="4.9" ry="4.2"/>
	</g>
</g>
</svg>
