<?xml version="1.0" encoding="utf-8"?>
<!-- Generator: Adobe Illustrator 19.1.0, SVG Export Plug-In . SVG Version: 6.00 Build 0)  -->
<svg version="1.1" id="Layer_1" xmlns="http://www.w3.org/2000/svg" xmlns:xlink="http://www.w3.org/1999/xlink" x="0px" y="0px"
	 viewBox="0 0 20.8 37.5" style="enable-background:new 0 0 20.8 37.5;" xml:space="preserve">
<style type="text/css">
	.st0{fill-rule:evenodd;clip-rule:evenodd;fill:#FFFFFF;}
</style>
<path class="st0" d="M7.2,37.5c0,0,0-2.8,0-5.9C7.2,28.6,0,28,0,20.5c0-2.9,0-1.6,0-4.2c0-4.2,4.8-4.3,4.8,0c0,2.9,0,1.2,0,3.3
	s2.5,4.7,2.5,2.6c0-2.3,0-15,0-18.1c0-5.3,6.4-5.5,6.4,0c0,4.6,0,8.5,0,10.9c0,2.4,2.5-0.9,2.5-3.2c0-2.2,0-1.5,0-3.2
	c0-4.2,4.5-4.1,4.5,0c0,4.1,0,2.1,0,3.8c0,7.3-6.9,9.5-6.9,11.4s0,13.5,0,13.5"/>
</svg>
