<?xml version="1.0" encoding="utf-8"?>
<!-- Generator: Adobe Illustrator 19.2.1, SVG Export Plug-In . SVG Version: 6.00 Build 0)  -->
<svg version="1.1" id="Layer_1" xmlns="http://www.w3.org/2000/svg" xmlns:xlink="http://www.w3.org/1999/xlink" x="0px" y="0px"
	 width="770px" height="330px" viewBox="0 0 770 330" style="enable-background:new 0 0 770 330;" xml:space="preserve">
<style type="text/css">
	.st0{fill:#D4D0BF;}
	.st1{fill:#1197CC;}
	.st2{fill:#999484;}
	.st3{fill:#E2C51B;}
	.st4{fill:#DBF0F5;}
	.st5{fill:#E5E1CF;}
	.st6{fill:#1EABF1;}
	.st7{fill:#A9A493;}
	.st8{fill:#EFEDE4;}
	.st9{fill:none;stroke:#B986BC;stroke-miterlimit:10;}
	.st10{fill:#F9C79E;}
	.st11{fill:#754532;}
	.st12{fill:#FBF7FA;}
	.st13{fill:#11607F;}
	.st14{fill:#C4A614;}
	.st15{fill:#0FAA8C;}
	.st16{fill:#20CEAC;}
	.st17{fill:#1A3F3D;}
</style>
<title>cosmonauts</title>
<path class="st0" d="M91.8,212.2c0,0,18.6,2.1,31.8,11.3s25.1,21.1,29.8,20.1s22.7-12.5,22.7-12.5c2.7-5.2,5.9-10.1,9.7-14.5
	c6.7-7.4,22.7-15.6,39.4-9.5c0,0,9.7-31.6,11-42.3s5.2-38.3,11.3-45.6c6.1-7.3,30.1-21.3,32.2-27.1s-0.9-36.2,4.3-41.7
	s14.9-33.2,24.3-32.6s38.9,5.2,40.2,16.7s-2.4,39.9-12.2,48.1s-24,24.3-24,29.8s5.2,7.9,5.2,14c0,6.1-6.1,22.5-5.5,24
	s2.4,3,3.7,10.9s1.8,18,2.7,20.4s36.8,26.8,34.4,35s-49.9-28-54.2-25.6s-28.6,54.2-37.7,59c-9.1,4.8-40.2,41.4-49.3,42.6
	s-37.1,4.9-42.6,7.9s-13.4,9.4-17.6,8.2s-50.2-21.6-51.4-26.2s-9-46.2-9-46.2L91.8,212.2z"/>
<path class="st1" d="M138.4,234.3c0,0,8.7,17-5,31.7c0,0,5.2,8.7,7.7,8.7c0,0,10.3-20,7.6-32.4C148.8,242.3,138.1,235,138.4,234.3z"
	/>
<path class="st1" d="M154.4,243.3c0,0-6.4,19.6-0.6,31.4l7.8-4.4c0,0-6.6-7.1,0.5-30.8L154.4,243.3z"/>
<path class="st2" d="M177.3,228.7c0,0-0.2,19.8,10.5,17.1l-6.5,14.4c0,0-16.9-2.1-11.2-25.4C172.8,233.1,175.2,231.1,177.3,228.7z"
	/>
<path class="st3" d="M269.8,89.8c0,0-17.9-20-21.3-22c-2.4-1.4-17-0.4-18.7,0.7c-2.7,1.8-54.3,86.6-46.1,95s23.9,25.1,34.6,27.6
	S269.8,89.8,269.8,89.8z"/>
<path class="st4" d="M345.7,38.8c3.7,0,21.2-7.6,21.4,11c0,11.8-2.9,23.5-8.4,34c-4.3,8.8-10.6,16.5-18.2,22.7
	c-10.6,8.3-22.6,0.6-22.6,0.6l-18.6-52.9L345.7,38.8z"/>
<path class="st5" d="M296.3,201.7c-3.9,7.6-11.8,20.4-21.6,35.1c0,0-8.5,19.8-16.5,28.4c-10.4,11-31.7,27.6-49.4,34.9
	c-14.3,5.9-21,8.7-24.5,8.7c0,0-7.3,0.5-10.6,4.6c0,0-11.9,12.9-28.6,7.6s-17.3-10.5-17.3-10.5s-6.1-2-9-7.1c0,0-12.9-5-19.6-8.1
	C86.7,289.5,78.7,271,78.7,271l12.2-29.1c2.1-2.2,43.6,18.1,48.3,29c3.7,2,7.5,3.6,11.5,4.9c0,0,25.9-12.8,29.1-16.1
	s7.5-17,8.1-20.7s1.8-9.9,8.7-18.1c0,0,15.7-13.8,19-21c2-4.2,3.3-8.8,3.7-13.5c0.5-5.9,4.8-47.2,12.1-59.3s12.8-26.7,31.3-34.7
	c0,0,6.6-4.3,8.4-6.4s-5.4-36.9,5.7-60c10.3-21.8,38.7-32.3,64.6-19.5c13.7,6.7,22.1,18.9,24.7,33.4L299,55.6c0,0,22.6,46.5,36.2,54
	c8.5,4.7-14.8,6.1-14.8,6.1s3.3,22.9,1.5,32.2L296.3,201.7z"/>
<path class="st0" d="M315.7,132c0.4,5.6,9.8,20.8,6.7,26.9c0,0,7,2.2,3.9,19.2c0,0,7.1,3.8,9.7,8.2c0,0,18.4,12.2,21.1,18.9
	s14.3,13.8,15.7,13.8s13.2,0.6,14.6,3.3s20.1,16.9,14.5,20.5s-33.2-1.1-43.2-5c-8.8-3.5-45.2-26-54.1-31.5L315.7,132z"/>
<path class="st1" d="M349.3,212.7c0,0,9.1-4.3,8.4-6.4c0,0,12.3,3.3,14.9,11.5c1,3.2-6.7,4.3-10.2,4.3S349.3,212.7,349.3,212.7z"/>
<path class="st6" d="M184.3,308.8c0,0-15.9-4.5-24.1-37.8c0,0-6.8,0.7-9.5,4.8c0,0,0.2,21.6,23,37.6
	C173.6,313.4,180.6,314.2,184.3,308.8"/>
<path class="st6" d="M139.2,270.9c0,0-17.4,11.6-20.3,32.4c0,0,1.7,4.3,9,7.1c0,0,7.1-23.7,20.2-35.5
	C148.1,275,143.9,270.9,139.2,270.9z"/>
<path class="st7" d="M186.4,244.4c0,0,62.8,15.7,86.3-3.4c0,0-1.9,9.7-14.5,24.3c0,0-56.2,3.7-77.6-6.6
	C180.5,258.7,183.4,252.9,186.4,244.4z"/>
<path class="st6" d="M269.7,87.2l26.8,19.2c0,0,19.7,10.8-25.6,119.3l-14-9.2c0,0-31.2-4.9-27.8-78.8
	C230.5,103.9,269.7,87.2,269.7,87.2z"/>
<path class="st6" d="M219.8,181.3c0,0,39.1,27.8,71.6,29.6c0,0-4.7,13.7-13.5,21c0,0-51.1-23.6-62.4-32.1
	C215.6,200,218.1,190.1,219.8,181.3z"/>
<path class="st5" d="M254.7,212.8c3.2,0.8,2.1,5-0.5,4.2C250.7,216,253.1,212.4,254.7,212.8z"/>
<path class="st5" d="M263.6,221c-3.8-1.1-1.2-4.9,0.5-4.5C267.5,217.4,266.4,221.8,263.6,221"/>
<path class="st5" d="M273.9,225.6c-4.9-1.4-1.5-6.4,0.6-5.8C279,220.9,277.5,226.7,273.9,225.6"/>
<path class="st8" d="M240.1,87.2c6.2,5.1,0,12.3-5,8.2S235.1,83.1,240.1,87.2z"/>
<path class="st8" d="M230.5,101.1c4.8,4.1,0,13.8-5.5,9.2S225.7,97,230.5,101.1z"/>
<path class="st6" d="M219.8,117c0,0-20.9,32.1-20.2,33.3s3.1,3.2,3.9,2.4c2-2.1,21.6-32.2,21.2-33.1
	C224.1,118.7,220.5,115.9,219.8,117z"/>
<path class="st9" d="M294.7,153.7"/>
<path class="st6" d="M279.4,223.1l3.9,3l27-44.6c4.6-3.5,8.6-7.8,11.5-12.8c6.5-10.6,1.6-47.3,1.6-47.3l-10.7-6.7
	c0,0-5.3,70.6-6.7,72L279.4,223.1z"/>
<path class="st10" d="M329.9,98.1c0,0-15.9-10.4-16.6-18.7c0,0,1.4-25.8,10.5-29.6s30.3-2.2,30.3-2.2s1.7,12.6-2.4,18.2
	s-6.2,9.2-6.7,18.5c-2.1,0.5-4.3,0.5-6.4,0C338.5,84.3,338.2,94.3,329.9,98.1"/>
<path class="st1" d="M303.5,61.5L315,81.6c0,0,1.5-27.1,14.6-31l-23.3,5.6L303.5,61.5z"/>
<path class="st5" d="M316.6,116.2c2.8,7.9,4.3,16.2,4.6,24.6c0.3,7.5,1.5,16.1-1.4,24.7c-1.8,5.3-8.2,12.8-15.3,15.8
	c-10.4,4.2-6.8,20.2-6.8,20.2s-20.3-23-16.7-28c24.7-33.9,19.1-58.8,19.1-58.8L316.6,116.2z"/>
<path class="st2" d="M293.1,168.7c1.3,5.2,5.2,9.4,10.4,10.9c1.4,0.3,2.9,0.3,4.3-0.1c-1.7,10.2-6.7,19.6-14.2,26.8
	c-3.5-3.5-6.5-7.5-8.9-11.8C280.6,187.1,293.1,168.7,293.1,168.7z"/>
<g id="eye">
	<path class="st11" d="M347.7,60.2c-0.5,0.8-1.5,1.3-2.5,1.2c-1.8-0.2-5.2-2.1-7-1.8s-7.9,1-7.9,1c2.2-1.2,4.5-2.1,6.9-2.6
		C340,57.6,346.8,59.3,347.7,60.2z"/>
	<path class="st12" d="M340.9,66.4c1.1-0.3-2.9,4.1-2.9,4.1c-0.9-1.8-2-3.5-3.2-5.1C334.8,65.4,338.2,67.3,340.9,66.4z"/>
	<path class="st13" d="M339,72.1l-1.4-1.7l-1.4-1.7l-1.4-1.7c-0.5-0.6-0.9-1.1-1.4-1.6l-1.9-2l2.1,1.7l0.8,0.1l0.7-0.2
		c0.5,0.1,0.8,0.2,1.2,0.3c0.6,0.2,1.7,0.3,2.6,0.5c1.8,0.2,3.6,0.3,5.4,0.6l-2.7,0.3c-0.9,0.1-1.8,0.1-2.7,0c-1-0.1-2-0.4-2.9-0.7
		c-0.5-0.1-0.7,0.2-1.1,0.1c-0.5-0.1-1-0.3-1.4-0.6l0.6-0.5c0.6,0.6,1.1,0.7,1.5,1.2c0.4,0.6,0.8,1.2,1.2,1.8
		C337.6,69.3,338.3,70.6,339,72.1z"/>
	<path class="st13" d="M333.9,65.5c-0.1-0.2-0.2-0.5-0.3-0.7c-0.3-0.5-0.5-1-0.6-1.6c-0.1-0.6-0.1-1.2,0-1.8
		c0.1-0.2,0.2-0.5,0.3-0.7c-0.1,0.2-0.1,0.5-0.1,0.7c0,0.5,0.1,1,0.3,1.5c0.2,0.4,0.5,0.9,0.8,1.2c0.2,0.1,0.3,0.3,0.5,0.4v1.1
		L333.9,65.5z"/>
	<path class="st13" d="M334.1,65.9c-0.1,0-0.1,0-0.2-0.1c-0.2-0.1-0.4-0.2-0.6-0.3c-0.6-0.4-1.1-0.9-1.4-1.6
		c-0.4-0.6-0.6-1.4-0.5-2.1c0.1-0.3,0.1-0.6,0.3-0.6l0.1-0.2c-0.1,0.3-0.2,0.6-0.2,0.9c0,0.6,0.3,1.2,0.7,1.7c0.4,0.5,0.9,0.8,1.4,1
		c0.2,0.1,0.3,0.1,0.5,0.1c0.1,0,0.1,0,0.2,0.1L334.1,65.9z"/>
	<path class="st13" d="M335,65.9L335,65.9c-0.1-0.1-0.2-0.2-0.2-0.3l-0.1-0.1c-0.1-0.2-0.2-0.4-0.2-0.6c-0.1-0.6-0.2-1.3-0.2-1.9
		c0-0.6,0.1-1.2,0.3-1.7c0.1-0.2,0.2-0.5,0.3-0.7c0,0-0.1,0.3-0.2,0.7c-0.1,0.6-0.1,1.1,0,1.7c0,0.5,0.2,1,0.5,1.4
		c0.1,0.3,0.3,0.6,0.5,0.8L335,65.9z"/>
	<path class="st13" d="M341.3,66.5c2.1,0.9-0.1,5.8-2.6,4.1C335.9,68.8,338.7,64.9,341.3,66.5z"/>
</g>
<path class="st1" d="M325.4,80.3c1.3,2,2.7,4,4.3,5.8c2.7,2.3,7.6,2.7,7.6,3.7c0,0.7,0.2,2.5-1.2,2.5c0,0,0,2.6-1.9,3
	c-2.8-1.6-5.1-4.1-6.5-7C325.5,83.8,324.9,82.3,325.4,80.3z"/>
<path class="st2" d="M121.9,222.1c0,0-22.9,26.3-28,26.3c0,0-9-12.3-17-11.4S53,248.1,50,250.1c-3.5,2.4-10-1.4-11.8-3.7
	c-2.4-3.2-7.8-10.8-7.2-11.8s42.7-50.7,55.7-44c3.7,1.9,9.5,9.9,12.1,13.3S122.6,221.4,121.9,222.1z"/>
<path class="st0" d="M27.9,227.9c-1.6-5,10.9-14.4,19.2-21.9c13.8-12.4,26.1-24.6,30-23c3.8,1.6,7.1,4.2,9.6,7.6
	c0,0-39.4,29.8-44.3,34.4c-10.2,9.6-7.6,16.6-7.6,16.6S31.7,239.8,27.9,227.9z"/>
<path class="st1" d="M109.9,212.8l-26.5,30.7c-1.7-0.9-3.5-1.5-5.4-1.8c-2.8-0.4,27.6-32,27.6-32L109.9,212.8z"/>
<path class="st14" d="M122.7,222.6c0.5,0.5-28.1,31.5-28.1,31.5c-1.7-1.3-3-3-3.7-5c-0.3-1.2,26.8-30.7,26.8-30.7
	S120.8,220.8,122.7,222.6z"/>
<path class="st7" d="M108.3,248.5c0,0-19.6,30.8-25.1,32.8c0,0-9.9-12-18.7-10.4s-25.7,14-28.8,16.4c-3.7,2.9-11.2-0.8-13.3-3.3
	c-2.9-3.3-9.4-11.4-8.8-12.6s43.6-59.3,58.5-52.8c4.2,1.9,11.2,10.3,14.4,13.8S109.1,247.6,108.3,248.5z"/>
<path class="st5" d="M9.6,264.3c-2.2-5.5,11.1-16.8,19.7-25.7c14.4-14.8,27.1-29.1,31.6-27.6c4.3,1.5,8.2,4.2,11.1,7.7
	c0,0-41.5,35.9-46.6,41.3c-10.6,11.3-7.2,19-7.2,19S14.8,277.1,9.6,264.3z"/>
<path class="st6" d="M96.5,240L72,272.3c-1.7-0.8-3.6-1.3-5.5-1.5c-2.9-0.2,25.7-33.7,25.7-33.7L96.5,240z"/>
<path class="st3" d="M109.3,248.6c0.5,0.4-25,34.1-25,34.1c-1.8-1.1-3.3-2.7-4.2-4.6c-0.4-1.2,23.8-33.1,23.8-33.1
	S107.3,247.1,109.3,248.6z"/>
<path class="st6" d="M304.6,62.6c0,0,22,38.1,38.3,46.5c0,0,0.1,5.7-8.2,7.9c0,0-27.4-27.7-34.1-52.3L304.6,62.6z"/>
<path class="st6" d="M304.3,59.2l-0.6-6.4c0,0,53.2-22.8,63.3-22.8c0,0,5.3,9.5,1.8,18.3C368.8,48.3,324.7,48.5,304.3,59.2"/>
<path class="st2" d="M296.7,52.5c0,0-12.5-30.3-11.9-39.7c0,0-7.7,6-6.8,8.2c0,0,11.6,27.2,16.8,34.5L296.7,52.5z"/>
<path class="st6" d="M302.8,48.9c13.2,7.2,0.9,28.3-9.4,19.2S295.5,44.9,302.8,48.9z"/>
<path class="st3" d="M300.6,55.9c4.5,2.7,1.8,10.6-3,6.7S298.2,54.4,300.6,55.9z"/>
<path class="st6" d="M269.7,87.2c0,0,35.1,28,56.5,36.2c0,0,3.4-5.1-0.2-8.2c0,0-22.3-7-54.8-32.6C270.3,81.8,267.8,86.4,269.7,87.2
	z"/>
<g id="Layer_1-2">
	<path class="st0" d="M675,219.9c0,0-18.9,1.7-32.5,10.6s-26,20.8-30.7,19.6s-22.6-13.2-22.6-13.2s-1-8.9-6.5-15.2
		c-6.6-7.6-25.6-16.1-42.7-10.4c0,0-9.1-32.3-10-43.1s-4.3-39-10.2-46.5s-30-22.3-32-28.3s1.8-36.7-3.3-42.3s-14.3-34-23.8-33.6
		s-39.6,4.2-41.1,15.9s1.5,40.4,11.1,49s23.7,25.3,23.6,30.8s-5.4,7.9-5.6,14c-0.2,6.1,5.6,23,4.9,24.5s-2.5,3-4,11
		s-2.3,18.1-3.3,20.6s-38,26.2-35.7,34.6s51.3-27.1,55.5-24.5s27.6,55.6,36.7,60.8c9.1,5.2,39.6,42.9,48.8,44.4s37.5,5.9,43,9.1
		s13.3,9.9,17.7,8.8s51.4-20.6,52.8-25.2s10.3-46.6,10.3-46.6L675,219.9z"/>
	<path class="st15" d="M627.2,241c0,0-9.2,17,4.2,32.2c0,0-5.5,8.7-8,8.6c0,0-9.9-20.5-6.9-33C616.5,248.9,627.6,241.8,627.2,241z"
		/>
	<path class="st15" d="M610.8,249.7c0,0,6,20.1-0.2,31.8l-7.8-4.7c0,0,6.9-7.1,0.3-31.2L610.8,249.7z"/>
	<path class="st2" d="M587.9,234.4c0,0-0.3,20.1-11.1,17l6.3,14.7c0,0,17.2-1.7,12-25.4C592.3,239,589.9,236.8,587.9,234.4z"/>
	<path class="st3" d="M497.8,91.3c0,0,18.6-19.8,22.1-21.7c2.4-1.3,17.2,0,18.9,1.2c2.7,1.9,52.8,89.1,44.3,97.4
		s-24.8,24.8-35.8,27.1S497.8,91.3,497.8,91.3z"/>
	<path class="st4" d="M422.2,37.7c-3.7-0.1-21.3-8.3-22,10.6c-0.4,11,2.1,22.9,7.7,34.7c4.2,9.1,10.3,17.1,17.9,23.5
		c10.5,8.6,22.9,1.2,22.9,1.2l20.2-53.2L422.2,37.7z"/>
	<path class="st5" d="M618.3,328.7c-17.1,5-28.8-8.4-28.8-8.4c-3.3-4.2-10.7-4.9-10.7-4.9c-3.5-0.1-13.6-1.2-28-7.6
		C533.1,300,503,270,503,270l-16.7-20.6c-7.6-5.3-25-42-25-42s-47.3,28-57.5,31.7s-38.3,7.8-43.9,4s13.7-17.7,15.2-20.4
		s13.5-3.1,14.9-3s13.3-6.9,16.2-13.6s19.4-20.7,19.4-20.7c2.7-4.4,12.6-5.9,12.6-5.9c-2.6-17.3,3.2-28.4,3.2-28.4
		c-3.1-3.8-3.5-13.1-1.8-21.2c0.8-3.8,6.2-13.4,6.2-13.4s-23.5-2-14.8-6.6c13.9-7.3,38.1-53.8,38.1-53.8l-67.6-17.6
		c3-14.6,11.8-26.7,25.9-33.2l0,0c26.6-12.3,55-1,65.1,21.5c10.6,23.7,2.5,58.8,4.3,60.9s8.4,6.7,8.4,6.7
		c18.5,8.6,23.7,23.5,30.8,35.9s10.4,54.2,10.7,60.2c0.3,4.7,1.4,9.4,3.4,13.7c3.2,7.3,15,10.2,19.5,14.3c13.2,12,7.6,25,8.1,28.7
		c0.5,3.7,3.9,15,7.1,18.4s29,17.1,29,17.1c4-1.2,8-2.8,11.7-4.7c10.7-18.1,61.3-36.7,63.3-34.4l11,32.7c0,0-23.6,21.9-34.5,27.5
		c-6.7,3.4-20.1,7.7-20.1,7.7c-3.1,5.2-9.3,7-9.3,7S635.4,323.8,618.3,328.7L618.3,328.7L618.3,328.7z"/>
	<path class="st15" d="M414.1,213.8c0,0-9.1-4.5-8.4-6.7c0,0-12.5,3-15.3,11.3c-1.1,3.2,6.7,4.6,10.2,4.7S414.1,213.8,414.1,213.8z"
		/>
	<path class="st16" d="M578.9,315.4c0,0,16.2-4.2,25.4-37.7c0,0,6.9,0.9,9.5,5.1c0,0-0.7,21.9-24.2,37.5
		C589.5,320.3,582.4,321,578.9,315.4"/>
	<path class="st16" d="M625.5,278.1c0,0,17.4,12.2,19.8,33.4c0,0-1.8,4.4-9.3,7c0,0-6.6-24.2-19.6-36.5
		C616.4,282,620.8,278,625.5,278.1z"/>
	<path class="st2" d="M480.1,164.7c0,0-18.8,9.6-32.9,5.2c0,0,5.7,23.3,12,33.2c0,0,16.8-4.6,22.8-10.9
		C487.8,186,480.1,164.7,480.1,164.7z"/>
	<path class="st7" d="M578.4,250.1c0,0-68.6,19.3-91.9-0.7c0,0,7.9,15.7,18.7,20c0,0,56.8,5.2,78.8-4.7
		C581.8,259.9,579.9,255.1,578.4,250.1z"/>
	<path class="st16" d="M498,88.7L466.7,110c0,0-19.6,38.7,26.6,119l14.4-8.9c0,0,31.7-4.1,30.2-79.1C537.2,106.6,498,88.7,498,88.7z
		"/>
	<path class="st16" d="M547,194c0,0-41.9,33.3-74.9,34.4c0,0,3.3,8.9,8.9,14.9c0,0,62.7-22.6,74.4-31
		C555.5,212.2,548.5,202.9,547,194z"/>
	<path class="st5" d="M511.4,221.5c-3.2,0.8-2.3,5,0.4,4.3C515.4,224.8,513,221.1,511.4,221.5z"/>
	<path class="st5" d="M502.2,229.5c3.8-1,1.3-5-0.4-4.6C498.4,225.8,499.4,230.2,502.2,229.5"/>
	<path class="st5" d="M491.6,233.9c5-1.3,1.7-6.5-0.5-5.9C486.6,229.1,488,234.9,491.6,233.9"/>
	<path class="st5" d="M481.3,236.7c4.6-1.1,1.6-5.4-0.5-5C476.7,232.7,477.9,237.5,481.3,236.7"/>
	<path class="st8" d="M528,89.4c-6.4,5-0.3,12.5,4.9,8.5S533.1,85.4,528,89.4z"/>
	<path class="st8" d="M537.3,103.8c-5,4-0.4,14,5.3,9.4S542.3,99.8,537.3,103.8z"/>
	<path class="st16" d="M547.8,120.2c0,0,20.4,33.1,19.7,34.2s-3.3,3.1-4,2.3c-2-2.2-21.1-33.1-20.6-34.1S547.1,119.1,547.8,120.2z"
		/>
	<path class="st9" d="M470.9,155.4"/>
	<path class="st16" d="M480.2,228.6l-7.1,1.9c0,0-45.1-69.1-33.3-106.6l7.6-3.2c0,0-11.7,25.9,11.5,67.8L480.2,228.6z"/>
	<path class="st10" d="M435.1,104.5c0,0,17.8-17,18.9-25.7c0,0-0.9-27.5-11.4-31.9s-33.5-3.4-33.5-3.4s0.3,12,4.9,18.1
		s0.9,21.8,3.1,23.6c1.3,1.1,3.6-1.2,7.4-2c0,0,2,2.2,2.3,8.2c0.2,3.2,3.9,11.7,7.3,9.9"/>
	<path class="st15" d="M464.3,61.8l-12.2,20c0,0-0.9-27.5-14-31.8l23.4,6.3L464.3,61.8z"/>
	<g id="eye-2">
		<path class="st11" d="M417.3,58.8c0.4,0.8,1.2,1.4,2.1,1.6c1.8,0.2,5-2,6.2-1.9c1.5,0.1,10.1,1.6,10.1,1.6s-2.9-3.5-9.1-3.6
			C423.3,56.5,417.4,58,417.3,58.8z"/>
		<path class="st12" d="M425.5,63.8c-1,0,2.2,4.3,2.2,4.3c1-2,4.3-4,4.3-4S427.7,63.8,425.5,63.8z"/>
		<path class="st17" d="M426.1,70.3c0.3-0.7,0.7-1.4,1.1-2c0.4-0.6,0.9-1.2,1.4-1.7c0.5-0.5,1.1-1,1.7-1.5c0.6-0.4,1.2-0.9,1.8-1.4
			l0.1,0.2c-1,0-1.9,0.1-2.9,0.1c-0.9,0-1.9-0.1-2.8-0.2c-0.9-0.1-1.9-0.2-2.8-0.4l-2.8-0.6v-0.1c1,0,1.9,0,2.9,0.1
			c0.9,0,1.9,0.1,2.8,0.2l2.8,0.3c0.9,0.1,1.9,0.2,2.8,0.3h0.4l-0.3,0.2c-0.6,0.4-1.2,0.9-1.7,1.4c-0.5,0.5-1,1-1.4,1.6
			c-0.5,0.5-1,1.1-1.5,1.6C427.2,69.1,426.7,69.7,426.1,70.3L426.1,70.3z"/>
		<path class="st17" d="M423.6,64.1c-2.2,1.3,1.1,6.6,4,4C430.2,65.8,427.1,62,423.6,64.1z"/>
	</g>
	<path class="st15" d="M438.1,85.3c-1.5,1-3,2-4.6,2.8c-2.1,0.9-5,0.4-6.8,0.8c-0.7,0.2-0.9,3.6,0.5,3.7c-0.3,0.8,0.1,1.8,0.9,2.1
		c0.2,0.1,0.3,0.1,0.5,0.1c2.2,0.1,6-2.9,7.1-5C438.1,85.3,437.9,86.2,438.1,85.3z"/>
	<path class="st16" d="M463.2,62.8c0,0-23.2,38-40,46.2c0,0-0.3,5.8,8.1,8.2c0,0,28.4-27.4,35.9-52.1L463.2,62.8z"/>
	<path class="st2" d="M484.5,12.9c0,0,7.7,6.2,6.7,8.5c0,0-12.5,27.3-17.9,34.6l-1.8-3.1C471.5,52.9,484.9,22.5,484.5,12.9"/>
	<path class="st16" d="M463.6,59.5l0.8-6.5c0,0-53.4-24.5-63.5-24.7c0,0-5.6,9.5-2.3,18.4C398.6,46.7,443.3,48,463.6,59.5"/>
	<path class="st16" d="M465.4,49c-13.6,6.9-1.7,28.6,9.1,19.7S472.9,45.2,465.4,49z"/>
	<g id="caito_arm">
		<path class="st8" d="M385.1,242.7c0,0,16.3,1.5,16.9,0.3c0,0,5.4-2.4,1.8-9.2c-0.4-0.8-14.2,1.9-21.4-1.6c0,0,5.7-2.3,6.8-4.9
			c0.7-1.6-0.8-5.2-1.7-4.9s-12.3,1.8-15.8,0c-2.5-1.3-28.9-12.9-49.2-27.5c-8.1-5.8-19.5-8.5-21.9-11.6c-2.1-2.7-5.8-4.3-5.8-5.9
			s0.5-4.9-0.3-8.1s-2.1-7.9-2.1-7.9s1.2-16.7-2.4-21.7c0,0-1.2-26-6.4-32.1c-2.9-3.4-7.2-12.6-21-9.4s-20.1,15.2-20.1,20.7
			s2.4,42,13.1,49.3c0,0-4,20.1,10.6,31.3c0,0,11,16.7,25.3,20.7c0,0,16.4,10.2,25.3,13.9s13.7,3.8,18.3,5s14.9,8.2,14.9,8.2
			s17.5,14.7,30.9,10.3c0.5-0.2-13.6-4-14-4.3c-0.6-0.6,12.3,3.3,15.4,3.6c3.7,0.3,13.6-1.9,12.3-4.4c0,0-11.9-1.1-15.5-3
			c0,0,10,2.1,12,2.5c5.3,0.8,10.2-1.9,11.5-7.6C402.6,244.2,387.6,243.8,385.1,242.7"/>
		<path class="st3" d="M270.8,206.9c0,0,18.1-11.5,24.2-29c0,0,7.3,2.2,8,6.2c0,0-5.9,25.3-26,29.3
			C277.1,213.4,271.7,212.1,270.8,206.9z"/>
		<path class="st6" d="M288.6,219.2c0,0,17-3.1,22.3-30.5c0,0-4.5-5.7-7.9-4.6c0,0-7.4,25-26,29.3
			C280.3,216.3,284.3,218.3,288.6,219.2z"/>
		<path class="st6" d="M353.2,212.7c0,0-3.3,19.4-17.3,26.6l13.4,9.2c0,0,15.7,2.4,21.8-27.8C371.1,220.6,360.1,213.6,353.2,212.7z"
			/>
		<path class="st3" d="M264.6,119.9c15.3-4.1,20.9,20.2,6.2,24.8C252.4,150.4,249.3,124,264.6,119.9z"/>
		<polygon class="st1" points="274.1,135.7 267.1,126.7 267.9,123.6 267,123.3 266.3,125.8 264.1,123.1 263.4,123.7 266,127 
			262.3,140.1 262.1,140.8 267.1,139.7 268,133.7 271.4,138.7 275.9,137.7 		"/>
	</g>
	<path class="st3" d="M467.4,56.2c-4.6,2.6-2.1,10.7,2.9,6.9C475.3,59.3,469.9,54.7,467.4,56.2z"/>
	<path class="st8" d="M377.1,243.3c0,0-16.5,1.1-17.1-0.1c0,0-5.4-2.6-1.6-9.3c0.4-0.8,14.3,2.3,21.8-1.1c0,0-5.7-2.5-6.8-5.1
		c-0.7-1.7,0.9-5.2,1.8-4.9s12.4,2.1,16,0.4c2.5-1.2,28.5-15.8,49.4-30.1c8.3-5.7,21.1-4.7,23.6-7.7c2.2-2.7,6-4.2,6-5.9
		c-0.2-2.7,0-5.5,0.5-8.2c0.9-3.2,2.4-8,2.4-8s-0.8-17,3-22c0,0,1.9-26.3,7.3-32.4c3.1-3.4,7.6-12.6,21.5-9
		c13.9,3.6,24.7,17.6,24.5,23.2s-3.4,41.6-14.4,48.7c0,0-1.3,19.7-16.4,30.7c0,0-11.5,16.7-26.1,20.3c0,0-16.9,9.9-25.9,13.4
		s-14,3.5-18.6,4.6s-15.3,7.9-15.3,7.9s-18.1,14.4-31.5,9.6c-0.5-0.2,13.9-3.7,14.3-4c0.6-0.6-12.6,3.1-15.7,3.2
		c-3.8,0.2-13.7-2.2-12.3-4.8c0,0,12.1-0.9,15.7-2.6c0,0-10.2,1.9-12.3,2.2c-5.4,0.7-10.3-2.2-11.4-8
		C359.4,244.4,374.5,244.4,377.1,243.3"/>
	<path class="st3" d="M493.8,210c0,0-18-12.1-23.7-30c0,0-7.4,2-8.3,6.1c0,0,5.3,25.8,25.6,30.3C487.3,216.4,492.8,215.2,493.8,210z
		"/>
	<path class="st16" d="M478.3,222.4c0,0-21.3-5.9-26-33.8c0,0,6-3.7,9.4-2.5c0,0,6.9,25.5,25.6,30.3
		C487.3,216.4,485.7,221,478.3,222.4z"/>
	<path class="st16" d="M409.9,212.4c0,0,3.1,21.1,17.1,28.7l-13.8,8.9c0,0-15.9,2.1-21.3-28.8C391.9,221.3,402.9,213.2,409.9,212.4z
		"/>
	<path class="st16" d="M498,88.7c0,0-36.2,27.5-58.2,35.2c0,0-3.3-5.3,0.4-8.3c0,0,22.7-6.5,56.4-31.7
		C497.5,83.2,499.9,87.9,498,88.7z"/>
	<path class="st11" d="M429.2,83.9c-1-0.2-4.3-0.6-4.3,1.1c0,1.1,0.3,2.2,0.9,3.1c0,0,11.8-0.1,14-5.5
		C439.8,82.5,433.2,84.6,429.2,83.9z"/>
	<path class="st3" d="M505.4,119.8c17.8,1.3,14.8,29.2-2.5,28.6C481.2,147.7,487.6,118.6,505.4,119.8"/>
	<path class="st2" d="M644,227.7c0,0,24.6,29.7,30.1,29.7c0,0,12.1-17,20.7-16s25.7,11.9,28.9,14.1c3.8,2.6,10.7-1.5,12.7-4
		c2.6-3.4,8.4-11.6,7.7-12.7s-45.9-54.5-59.9-47.3c-4,2.1-10.2,10.6-13,14.3S643.2,226.8,644,227.7z"/>
	<path class="st0" d="M747.4,231.5c1.8-5.4-11.8-15.5-20.7-23.5c-14.9-13.4-28-26.4-32.3-24.7c-4.1,1.7-7.7,4.6-10.3,8.2
		c0,0,42.4,32,47.7,37c11,10.3,8.2,17.9,8.2,17.9S743.2,244.3,747.4,231.5z"/>
	<path class="st14" d="M649.9,222.5l29.8,32.4c-1.3,1.9-2.7,3.8-4.2,5.6c-2,2.3-31.9-32.3-31.6-32.9
		C644.7,226.2,649.9,222.5,649.9,222.5z"/>
	<path class="st15" d="M660.9,214.2c0.5-0.5,31.8,31.5,31.8,31.5c-2.5,0.8-4.8,2-6.8,3.6c-0.5,0.4-31.1-30.6-31.1-30.6
		C656.9,217.3,658.9,215.8,660.9,214.2z"/>
	<path class="st7" d="M661.1,252.4c0,0,19,36.1,25,37.1c0,0,13.5-13.7,22.8-11.3s26.4,17,29.6,19.9c3.8,3.4,12,0.1,14.6-2.4
		c3.4-3.3,11-11.5,10.5-12.8s-42-67-58.5-61.3c-4.7,1.6-12.9,10.1-16.6,13.7S660.4,251.3,661.1,252.4z"/>
	<path class="st5" d="M768.4,275.5c2.8-5.7-10.5-18.9-19.1-29.1c-14.3-17-26.7-33.4-31.7-32.2c-4.8,1.3-9.2,3.8-12.6,7.4
		c0,0,41.6,41.8,46.6,48c10.5,13,6.2,20.9,6.2,20.9S761.8,288.9,768.4,275.5z"/>
	<path class="st3" d="M666.4,248.7l24.3,36.5c-1.6,1.7-3.2,3.3-5,4.8c-2.4,1.9-25.8-37.6-25.8-37.6L666.4,248.7z"/>
	<path class="st16" d="M678.3,241.8c0.6-0.4,26.8,36.4,26.8,36.4c-2.6,0.3-5.1,1.2-7.3,2.5c-0.5,0.3-25.7-35.3-25.7-35.3
		S676.1,243.3,678.3,241.8z"/>
	<polygon class="st15" points="508.4,139.1 504.7,128.4 506.5,125.7 505.7,125.1 504.2,127.2 503.1,123.9 502.2,124.3 503.5,128.2 
		495.8,139.5 495.4,140.1 500.5,140.6 503.3,135.3 504.8,141.1 509.4,141.6 	"/>
</g>
<path class="st5" d="M246.2,209.1c3.1,0.8,2,5-0.5,4.2C242.2,212.3,244.6,208.7,246.2,209.1"/>
</svg>
