<?xml version="1.0" encoding="utf-8"?>
<!-- Generator: Adobe Illustrator 19.2.0, SVG Export Plug-In . SVG Version: 6.00 Build 0)  -->
<svg version="1.1" xmlns="http://www.w3.org/2000/svg" xmlns:xlink="http://www.w3.org/1999/xlink" x="0px" y="0px" width="792px"
	 height="339px" viewBox="0 0 792 339" style="enable-background:new 0 0 792 339;" xml:space="preserve">
<style type="text/css">
	.st0{fill:#D4D0BF;}
	.st1{fill:#6C2C74;}
	.st2{fill:#999484;}
	.st3{fill:#DBF0F5;}
	.st4{fill:#E5E1CF;}
	.st5{fill:#823A89;}
	.st6{fill:#A9A493;}
	.st7{fill:#EFEDE4;}
	.st8{fill:none;stroke:#B986BC;stroke-miterlimit:10;}
	.st9{fill:#F9C79E;}
	.st10{fill:#20180D;}
	.st11{fill:#FBF7FA;}
	.st12{fill:#77297C;}
	.st13{fill:#412344;}
	.st14{fill:#9C6EA0;}
	.st15{fill:#B986BC;}
	.st16{fill:#276865;}
	.st17{fill:#2F7C7A;}
	.st18{fill:#754532;}
	.st19{fill:#1A3F3D;}
	.st20{display:none;}
	.st21{display:inline;fill:#77297C;}
	.st22{fill:#7EC78D;}
	.st23{fill:#6AAF76;}
</style>
<g id="Layer_2">
	<path class="st0" d="M93.1,216.7c0,0,18.6,2.1,31.8,11.3c13.2,9.1,25.1,21.1,29.8,20.1c4.7-1.1,22.7-12.5,22.7-12.5
		s4.2-8.4,9.7-14.5c6.7-7.4,22.7-15.6,39.4-9.5c0,0,9.7-31.6,11-42.3c1.2-10.6,5.2-38.3,11.3-45.6s30.1-21.3,32.2-27.1
		s-0.9-36.2,4.3-41.7c5.2-5.5,14.9-33.2,24.3-32.6c9.4,0.6,38.9,5.2,40.2,16.7c1.2,11.6-2.4,39.9-12.2,48.1
		c-9.7,8.2-24,24.3-24,29.8c0,5.5,5.2,7.9,5.2,14s-6.1,22.5-5.5,24c0.6,1.5,2.4,3,3.7,10.9c1.2,7.9,1.8,18,2.7,20.4
		c0.9,2.4,36.8,26.8,34.4,35c-2.4,8.2-49.9-28-54.2-25.6s-28.6,54.2-37.7,59c-9.1,4.9-40.2,41.4-49.3,42.6
		c-9.1,1.2-37.1,4.9-42.6,7.9c-5.5,3-13.4,9.4-17.6,8.2s-50.2-21.6-51.4-26.2s-9-46.2-9-46.2L93.1,216.7z"/>
	<path class="st1" d="M139.7,238.8c0,0,8.7,17-5,31.7c0,0,5.2,8.7,7.7,8.7c0,0,10.3-20,7.6-32.4
		C150.1,246.8,139.4,239.5,139.7,238.8z"/>
	<path class="st1" d="M155.7,247.8c0,0-6.4,19.6-0.6,31.4l7.8-4.4c0,0-6.6-7.1,0.5-30.8L155.7,247.8z"/>
	<path class="st2" d="M178.6,233.2c0,0-0.2,19.8,10.5,17.1l-6.5,14.4c0,0-16.9-2.1-11.2-25.4C171.4,239.3,175.2,237.2,178.6,233.2z"
		/>
	<path class="st2" d="M271.1,94.3c0,0-17.9-20-21.3-22c-2.4-1.4-17-0.4-18.7,0.7c-2.7,1.8-54.3,86.6-46.1,95
		c8.2,8.4,23.9,25.1,34.6,27.6C230.4,198.2,271.1,94.3,271.1,94.3z"/>
	<path class="st3" d="M347,43.3c3.7,0,21.2-7.6,21.4,11c0.1,10.9-2.6,22.5-8.4,34c-5.4,10.6-12,17.8-18.2,22.7
		c-10.6,8.3-22.6,0.6-22.6,0.6l-18.6-52.9L347,43.3z"/>
	<path class="st4" d="M336.5,114.1c8.5,4.7-14.8,6.1-14.8,6.1s5.1,9.7,5.8,13.4c1.5,8,0.9,17.2-2.3,20.9c0,0,5.5,11.1,2.4,28.1
		c0,0,7.1,3.8,9.7,8.2c0,0,18.4,12.2,21.1,18.9c2.7,6.7,14.3,13.8,15.7,13.8s13.2,0.6,14.6,3.3c1.4,2.7,20.1,16.9,14.5,20.5
		c-5.6,3.7-33.2-1.1-43.2-5c-10-4-56-32.7-56-32.7s-18.1,35.7-25.7,40.8c0,0-13.7,17.3-18.7,18.3c-5,0.9-0.2,1-0.2,1
		s-31.7,27.6-49.4,34.9c-14.3,5.9-21,8.7-24.5,8.7c0,0-7.3,0.5-10.6,4.6c0,0-11.9,12.9-28.6,7.6S129.1,315,129.1,315s-6.1-2-9-7.1
		c0,0-12.9-5-19.6-8.1C88,294,80,275.5,80,275.5l12.2-29.1c2.1-2.2,43.6,18.1,48.3,29c0,0,6.2,3.4,11.5,4.9c0,0,25.9-12.8,29.1-16.1
		c3.2-3.3,7.5-17,8.1-20.7c0.6-3.7,1.8-9.9,8.7-18.1c0,0,15.7-13.8,19-21c1.2-2.5,3.2-7.5,3.7-13.5c0.5-5.9,4.8-47.2,12.1-59.3
		s12.8-26.7,31.3-34.7c0,0,6.6-4.3,8.4-6.4s-5.4-36.9,5.7-60C288.4,8.7,316.8-1.8,342.7,11c13.7,6.7,22.1,18.9,24.7,33.4l-67.1,15.7
		C300.3,60.1,322.9,106.6,336.5,114.1z"/>
	<path class="st1" d="M350.6,217.2c0,0,9.1-4.3,8.4-6.4c0,0,12.3,3.3,14.9,11.5c1,3.2-6.7,4.3-10.2,4.3S350.6,217.2,350.6,217.2z"/>
	<path class="st2" d="M287.5,158.9c0,0,19.8,6.4,32.9,0c0,0-2,23.5-6.5,34.1c0,0-17.2-1.9-23.9-7.1S287.5,158.9,287.5,158.9z"/>
	<path class="st5" d="M185.6,313.3c0,0-15.9-4.5-24.1-37.8c0,0-6.8,0.7-9.5,4.8c0,0,0.2,21.6,23,37.6
		C174.9,317.9,181.9,318.7,185.6,313.3"/>
	<path class="st5" d="M140.5,275.4c0,0-17.4,11.6-20.3,32.4c0,0,1.7,4.3,9,7.1c0,0,7.1-23.7,20.2-35.5
		C149.4,279.5,145.2,275.4,140.5,275.4z"/>
	<path class="st6" d="M187.7,248.9c0,0,67.2,20.7,90.7,1.6c0,0-8.2,15.3-18.9,19.3c0,0-56.2,3.7-77.6-6.6
		C181.8,263.2,184.7,257.4,187.7,248.9z"/>
	<path class="st5" d="M271,91.7l30.4,21.8c0,0,18.4,38.7-29.2,116.7l-14-9.2c0,0-31.2-4.9-27.8-78.8C231.8,108.4,271,91.7,271,91.7z
		"/>
	<path class="st5" d="M220,194.3c0,0,40.5,33.9,73,35.7c0,0-3.5,8.7-9.2,14.4c0,0-61.3-23.9-72.6-32.4
		C211.2,212.1,218.3,203.1,220,194.3z"/>
	<path class="st4" d="M254.4,222.3c3.2,0.8,2.1,5-0.5,4.2C250.4,225.5,252.8,221.9,254.4,222.3z"/>
	<path class="st4" d="M263.3,230.5c-3.8-1.1-1.2-4.9,0.5-4.5C267.2,226.9,266.1,231.3,263.3,230.5"/>
	<path class="st4" d="M273.6,235.1c-4.9-1.4-1.5-6.4,0.6-5.8C278.7,230.4,277.2,236.2,273.6,235.1"/>
	<path class="st4" d="M283.7,238.1c-4.5-1.2-1.4-5.4,0.6-4.9C288.4,234.2,287.1,239,283.7,238.1"/>
	<path class="st7" d="M241.4,91.7c6.2,5.1,0,12.3-5,8.2C231.4,95.8,236.4,87.6,241.4,91.7z"/>
	<path class="st7" d="M231.8,105.6c4.8,4.1,0,13.8-5.5,9.2C220.9,110.2,227,101.5,231.8,105.6z"/>
	<path class="st0" d="M221.1,121.5c0,0-20.9,32.1-20.2,33.3c0.7,1.1,3.1,3.2,3.9,2.4c2-2.1,21.6-32.2,21.2-33.1
		C225.4,123.2,221.8,120.4,221.1,121.5z"/>
	<path class="st8" d="M296,158.2"/>
	<path class="st5" d="M285.1,230.2l7,2.1c0,0,46.2-67.1,35.5-104.4l-7.4-3.3c0,0,10.9,25.9-13,66.6L285.1,230.2z"/>
	<path class="st9" d="M331.2,102.6c0,0-15.9-10.4-16.6-18.7c0,0,1.4-25.8,10.5-29.6s30.3-2.2,30.3-2.2s1.7,12.6-2.4,18.2
		c-4.1,5.6-6.2,9.2-6.7,18.5c0,0-3.2,0.9-6.4,0C339.8,88.8,339.5,98.8,331.2,102.6"/>
	<path class="st1" d="M304.8,66l11.5,20.1c0,0,1.5-27.1,14.6-31l-23.3,5.6L304.8,66z"/>
	<g id="eye">
		<path class="st10" d="M349,65c0,0-0.7,1.7-2.2,1.4c-1.5-0.3-4.4-2.7-5.9-2.4s-9.1,1.5-9.1,1.5s5.8-3.2,8.3-3.5
			C342.6,61.6,348.3,63.9,349,65z"/>
		<path class="st11" d="M341.8,70.6c1-0.3-2.6,3.6-2.6,3.6c-0.9-2-2.8-4.5-2.8-4.5S339.4,71.4,341.8,70.6z"/>
		<g>
			<path class="st12" d="M340.1,75.7c-0.4-0.5-0.8-1-1.2-1.5l-1.2-1.5l-1.2-1.5c-0.4-0.5-0.8-1-1.2-1.4l-1.7-1.8l2.2,1l0.5,0.2
				l0.5,0.2c0.4,0.1,0.7,0.2,1.1,0.3c0.8,0.1,1.5,0.3,2.3,0.4c1.6,0.2,3.2,0.3,4.8,0.5c-0.8,0.1-1.6,0.2-2.4,0.3
				c-0.8,0.1-1.6,0.1-2.4,0c-0.8,0-1.6-0.1-2.4-0.2c-0.4-0.1-0.8-0.2-1.2-0.3c-0.4-0.1-0.8-0.3-1.2-0.5l0.6-0.8
				c0.5,0.5,0.9,1,1.2,1.5c0.4,0.5,0.7,1.1,1.1,1.6C339,73.3,339.6,74.5,340.1,75.7z"/>
		</g>
		<g>
			<path class="st12" d="M336,69.8c0,0-0.2-0.2-0.3-0.5c-0.2-0.3-0.4-0.8-0.5-1.2c-0.1-0.5-0.1-1,0-1.3c0.1-0.3,0.3-0.5,0.3-0.5
				c0,0-0.1,0.2-0.1,0.5c0,0.3,0.1,0.7,0.3,1.1c0.2,0.4,0.5,0.7,0.7,0.9c0.2,0.2,0.4,0.3,0.4,0.3L336,69.8z"/>
		</g>
		<g>
			<path class="st12" d="M335.7,70.1c0,0-0.1,0-0.2-0.1c-0.1-0.1-0.3-0.2-0.5-0.3c-0.4-0.3-0.8-0.8-1-1.3c-0.3-0.5-0.3-1.2-0.2-1.6
				c0.1-0.2,0.2-0.4,0.3-0.4c0.1-0.1,0.1-0.1,0.1-0.1c0,0-0.2,0.2-0.3,0.6c-0.1,0.4,0.1,0.9,0.4,1.3c0.3,0.4,0.7,0.7,1.1,0.9
				c0.2,0.1,0.3,0.1,0.4,0.1c0.1,0,0.2,0.1,0.2,0.1L335.7,70.1z"/>
		</g>
		<g>
			<path class="st12" d="M336.9,70.2C336.8,70.2,336.9,70.2,336.9,70.2c-0.1-0.1-0.1-0.1-0.2-0.2c0,0,0,0-0.1-0.1
				c-0.1-0.1-0.1-0.2-0.2-0.4c-0.1-0.3-0.2-0.8-0.2-1.3c0-0.5,0.2-0.9,0.3-1.2c0.1-0.3,0.3-0.5,0.3-0.5s-0.1,0.2-0.2,0.5
				c-0.1,0.3-0.1,0.8,0,1.2c0.1,0.4,0.2,0.8,0.4,1c0.1,0.1,0.2,0.2,0.2,0.3c0,0,0,0,0,0c0,0,0,0-0.1,0c0,0,0,0,0,0L336.9,70.2z"/>
		</g>
		<path class="st13" d="M342.1,70.7c1.9,0.8,0.3,5.4-2.3,3.6C337.4,72.7,339,69.4,342.1,70.7z"/>
	</g>
	<path class="st12" d="M326.7,84.8c0,0,2.9,4.5,4.3,5.8c2.7,2.3,7.6,2.7,7.6,3.7c0,0.7,0.2,2.5-1.2,2.5c0,0,0,2.6-1.9,3
		c0,0-4.1-2.1-6.5-7C326.8,88.3,326.2,86.8,326.7,84.8z"/>
	<path class="st2" d="M123.2,226.6c0,0-22.9,26.3-28,26.3c0,0-9-12.3-17-11.4c-8,0.9-23.9,11.1-26.9,13.1c-3.5,2.4-10-1.4-11.8-3.7
		c-2.4-3.2-7.8-10.8-7.2-11.8c0.6-1,42.7-50.7,55.7-44c3.7,1.9,9.5,9.9,12.1,13.3C102.7,211.9,123.9,225.9,123.2,226.6z"/>
	<path class="st0" d="M29.2,232.4c-1.6-5,10.9-14.4,19.2-21.9c13.8-12.4,26.1-24.6,30-23c1.2,0.5,5.7,2.4,9.6,7.6
		c0,0-39.4,29.8-44.3,34.4c-10.2,9.6-7.6,16.6-7.6,16.6S33,244.3,29.2,232.4z"/>
	<path class="st5" d="M111.2,217.3l-26.5,30.7c0,0-2.7-1.5-5.4-1.8c-2.8-0.4,27.6-32,27.6-32L111.2,217.3z"/>
	<path class="st14" d="M124,227.1c0.5,0.5-28.1,31.5-28.1,31.5s-2.9-2.1-3.7-5c-0.3-1.2,26.8-30.7,26.8-30.7S122.1,225.3,124,227.1z
		"/>
	<path class="st6" d="M109.6,253c0,0-19.6,30.8-25.1,32.8c0,0-9.9-12-18.7-10.4c-8.8,1.6-25.7,14-28.8,16.4
		c-3.7,2.9-11.2-0.8-13.3-3.3c-2.9-3.3-9.4-11.4-8.8-12.6c0.6-1.2,43.6-59.3,58.5-52.8c4.2,1.9,11.2,10.3,14.4,13.8
		S110.4,252.1,109.6,253z"/>
	<path class="st4" d="M10.9,268.8C8.7,263.3,22,252,30.6,243.1C45,228.3,57.7,214,62.2,215.5c1.3,0.4,6.5,2.3,11.1,7.7
		c0,0-41.5,35.9-46.6,41.3c-10.6,11.3-7.2,19-7.2,19S16.1,281.6,10.9,268.8z"/>
	<path class="st5" d="M97.8,244.5l-24.5,32.3c0,0-2.8-1.3-5.5-1.5c-2.9-0.2,25.7-33.7,25.7-33.7L97.8,244.5z"/>
	<path class="st15" d="M110.6,253.1c0.5,0.4-25,34.1-25,34.1s-3.1-1.8-4.2-4.6c-0.4-1.2,23.8-33.1,23.8-33.1
		S108.6,251.6,110.6,253.1z"/>
	<path class="st15" d="M305.9,67.1c0,0,22,38.1,38.3,46.5c0,0,0.1,5.7-8.2,7.9c0,0-27.4-27.7-34.1-52.3L305.9,67.1z"/>
	<path class="st5" d="M305.6,63.7l-0.6-6.4c0,0,53.2-22.8,63.3-22.8c0,0,5.3,9.5,1.8,18.3C370.1,52.8,326,53,305.6,63.7"/>
	<path class="st2" d="M298,57c0,0-12.5-30.3-11.9-39.7c0,0-7.7,6-6.8,8.2c0,0,11.6,27.2,16.8,34.5L298,57z"/>
	<path class="st15" d="M304.1,53.4c13.2,7.2,0.9,28.3-9.4,19.2S296.8,49.4,304.1,53.4z"/>
	<path class="st1" d="M301.9,60.4c4.5,2.7,1.8,10.6-3,6.7C294,63.1,299.5,58.9,301.9,60.4z"/>
	<path class="st5" d="M271,91.7c0,0,35.1,28,56.5,36.2c0,0,3.4-5.1-0.2-8.2c0,0-22.3-7-54.8-32.6C271.6,86.3,269.1,90.9,271,91.7z"
		/>
</g>
<g id="Layer_1">
	<path class="st0" d="M676.3,224.4c0,0-18.9,1.7-32.5,10.6c-13.6,8.9-26,20.8-30.7,19.6c-4.8-1.2-22.6-13.2-22.6-13.2
		s-1-8.9-6.5-15.2c-6.6-7.6-25.6-16.1-42.7-10.4c0,0-9.1-32.3-10-43.1s-4.3-39-10.2-46.5c-6-7.6-30-22.3-32-28.3
		c-2-5.9,1.8-36.7-3.3-42.3c-5.1-5.7-14.3-34-23.8-33.6c-9.6,0.4-39.6,4.2-41.1,15.9s1.5,40.4,11.1,49c9.7,8.6,23.7,25.3,23.6,30.8
		s-5.4,7.9-5.6,14c-0.2,6.2,5.6,23,4.9,24.5c-0.7,1.5-2.5,3-4,11c-1.4,8-2.3,18.1-3.3,20.6s-38,26.2-35.7,34.6
		c2.3,8.4,51.3-27.1,55.5-24.5c4.3,2.6,27.6,55.6,36.7,60.8c9.1,5.2,39.6,42.9,48.8,44.4c9.2,1.5,37.5,5.9,43,9.1
		c5.5,3.2,13.3,9.9,17.7,8.8c4.3-1.1,51.4-20.6,52.8-25.2c1.3-4.6,10.3-46.6,10.3-46.6L676.3,224.4z"/>
	<path class="st16" d="M628.5,245.5c0,0-9.2,17,4.2,32.2c0,0-5.5,8.7-8,8.6c0,0-9.9-20.5-6.9-33
		C617.8,253.4,628.9,246.3,628.5,245.5z"/>
	<path class="st16" d="M612.1,254.2c0,0,6,20.1-0.2,31.8l-7.8-4.7c0,0,6.9-7.1,0.3-31.2L612.1,254.2z"/>
	<path class="st2" d="M589.2,238.9c0,0-0.3,20.1-11.1,17l6.3,14.7c0,0,17.2-1.7,12-25.4C596.4,245.3,592.7,243,589.2,238.9z"/>
	<path class="st2" d="M499.1,95.8c0,0,18.6-19.8,22.1-21.7c2.4-1.3,17.2,0,18.9,1.2c2.7,1.9,52.8,89.1,44.3,97.4
		c-8.5,8.3-24.8,24.8-35.8,27.1C537.6,202.1,499.1,95.8,499.1,95.8z"/>
	<path class="st3" d="M423.5,42.2c-3.7-0.1-21.3-8.3-22,10.6c-0.4,11,2.1,22.9,7.7,34.7c5.2,10.9,11.7,18.4,17.9,23.5
		c10.5,8.6,22.9,1.2,22.9,1.2l20.2-53.2L423.5,42.2z"/>
	<path class="st4" d="M619.6,333.2c-17.1,5-28.8-8.4-28.8-8.4c-3.3-4.2-10.7-4.9-10.7-4.9c-3.5-0.1-13.6-1.2-28-7.6
		c-17.7-7.8-47.8-37.8-47.8-37.8l-16.7-20.6c-7.6-5.3-25-42-25-42s-47.3,28-57.5,31.7s-38.3,7.8-43.9,4s13.7-17.7,15.2-20.4
		c1.5-2.7,13.5-3.1,14.9-3c1.4,0,13.3-6.9,16.2-13.6c2.9-6.7,19.4-20.7,19.4-20.7c2.7-4.4,12.6-5.9,12.6-5.9
		c-2.6-17.3,3.2-28.4,3.2-28.4c-3.1-3.8-3.5-13.1-1.8-21.2c0.8-3.8,6.2-13.4,6.2-13.4s-23.5-2-14.8-6.6
		c13.9-7.3,38.1-53.8,38.1-53.8l-67.6-17.6c3-14.6,11.8-26.7,25.9-33.2l0,0c26.6-12.3,55-1,65.1,21.5c10.6,23.7,2.5,58.8,4.3,60.9
		s8.4,6.7,8.4,6.7c18.5,8.6,23.7,23.5,30.8,35.9S547.7,189,548,195c0.3,6,2.2,11.2,3.4,13.7c3.2,7.3,15,10.2,19.5,14.3
		c13.2,12,7.6,25,8.1,28.7s3.9,15,7.1,18.4c3.2,3.5,29,17.1,29,17.1c5.4-1.4,11.7-4.7,11.7-4.7c10.7-18.1,61.3-36.7,63.3-34.4
		l11,32.7c0,0-23.6,21.9-34.5,27.5c-6.7,3.4-20.1,7.7-20.1,7.7c-3.1,5.2-9.3,7-9.3,7S636.7,328.3,619.6,333.2L619.6,333.2z"/>
	<path class="st16" d="M415.4,218.3c0,0-9.1-4.5-8.4-6.7c0,0-12.5,3-15.3,11.3c-1.1,3.2,6.7,4.6,10.2,4.7
		C405.4,227.6,415.4,218.3,415.4,218.3z"/>
	<path class="st17" d="M580.2,319.9c0,0,16.2-4.2,25.4-37.7c0,0,6.9,0.9,9.5,5.1c0,0-0.7,21.9-24.2,37.5
		C590.8,324.8,583.7,325.5,580.2,319.9"/>
	<path class="st17" d="M626.8,282.6c0,0,17.4,12.2,19.8,33.4c0,0-1.8,4.4-9.3,7c0,0-6.6-24.2-19.6-36.5
		C617.7,286.5,622.1,282.5,626.8,282.6z"/>
	<path class="st2" d="M480.9,160.9c0,0-20.2,6-33.3-0.8c0,0,1.4,23.9,5.8,34.8c0,0,17.4-1.5,24.4-6.6
		C484.6,183.2,480.9,160.9,480.9,160.9z"/>
	<path class="st6" d="M579.7,254.6c0,0-68.6,19.3-91.9-0.7c0,0,7.9,15.7,18.7,20c0,0,56.8,5.2,78.8-4.7
		C585.3,269.2,582.4,263.3,579.7,254.6z"/>
	<path class="st17" d="M499.3,93.2L468,114.5c0,0-19.6,38.7,26.6,119l14.4-8.9c0,0,31.7-4.1,30.2-79.1
		C538.5,111.1,499.3,93.2,499.3,93.2z"/>
	<path class="st17" d="M548.3,198.5c0,0-41.9,33.3-74.9,34.4c0,0,3.3,8.9,8.9,14.9c0,0,62.7-22.6,74.4-31
		C556.8,216.7,549.8,207.4,548.3,198.5z"/>
	<path class="st4" d="M512.7,226c-3.2,0.8-2.3,5,0.4,4.3C516.7,229.3,514.3,225.6,512.7,226z"/>
	<path class="st4" d="M503.5,234c3.8-1,1.3-5-0.4-4.6C499.7,230.3,500.7,234.7,503.5,234"/>
	<path class="st4" d="M492.9,238.4c5-1.3,1.7-6.5-0.5-5.9C487.9,233.6,489.3,239.4,492.9,238.4"/>
	<path class="st4" d="M482.6,241.2c4.6-1.1,1.6-5.4-0.5-5C478,237.2,479.2,242,482.6,241.2"/>
	<path class="st7" d="M529.3,93.9c-6.4,5-0.3,12.5,4.9,8.5C539.3,98.4,534.4,89.9,529.3,93.9z"/>
	<path class="st7" d="M538.6,108.3c-5,4-0.4,14,5.3,9.4C549.6,113.2,543.6,104.3,538.6,108.3z"/>
	<path class="st0" d="M549.1,124.7c0,0,20.4,33.1,19.7,34.2s-3.3,3.1-4,2.3c-2-2.2-21.1-33.1-20.6-34.1S548.4,123.6,549.1,124.7z"/>
	<path class="st8" d="M472.2,159.9"/>
	<path class="st17" d="M481.5,233.1l-7.1,1.9c0,0-45.1-69.1-33.3-106.6l7.6-3.2c0,0-11.7,25.9,11.5,67.8L481.5,233.1z"/>
	<path class="st9" d="M436.4,109c0,0,17.8-17,18.9-25.7c0,0-0.9-27.5-11.4-31.9c-10.5-4.3-33.5-3.4-33.5-3.4s0.3,12,4.9,18.1
		c4.6,6.1,0.9,21.8,3.1,23.6c1.3,1.1,3.6-1.2,7.4-2c0,0,2,2.2,2.3,8.2c0.2,3.2,3.9,11.7,7.3,9.9"/>
	<path class="st16" d="M465.6,66.3l-12.2,20c0,0-0.9-27.5-14-31.8l23.4,6.3L465.6,66.3z"/>
	<g id="eye_2_">
		<path class="st18" d="M418.6,63.3c0,0,0.6,1.4,2.1,1.6c1.8,0.2,5-2,6.2-1.9c1.5,0.1,10.1,1.6,10.1,1.6s-2.9-3.5-9.1-3.6
			C424.6,61,418.7,62.5,418.6,63.3z"/>
		<path class="st11" d="M426.8,68.3c-1,0,2.2,4.3,2.2,4.3c1-2,4.3-4,4.3-4S429,68.3,426.8,68.3z"/>
		<g>
			<path class="st19" d="M427.4,74.8c0.3-0.7,0.7-1.3,1.1-2c0.4-0.6,0.9-1.2,1.4-1.7c0.5-0.5,1.1-1,1.7-1.5c0.6-0.4,1.2-0.9,1.8-1.4
				l0.1,0.2c-1,0-1.9,0.1-2.9,0.1c-1,0-1.9-0.1-2.8-0.2c-0.9-0.1-1.9-0.2-2.8-0.4c-0.9-0.2-1.9-0.4-2.8-0.6l0-0.1c1,0,1.9,0,2.9,0.1
				c0.9,0,1.9,0.1,2.8,0.2c0.9,0.1,1.9,0.2,2.8,0.3c0.9,0.1,1.9,0.3,2.8,0.3l0.4,0l-0.3,0.2c-0.6,0.4-1.2,0.9-1.7,1.4
				c-0.5,0.5-1,1.1-1.4,1.6c-0.5,0.5-1,1.1-1.5,1.6C428.5,73.7,428,74.3,427.4,74.8L427.4,74.8z"/>
		</g>
		<g class="st20">
			<path class="st21" d="M524.5,157.1c0,0,0,0,0.1,0.1c0,0.1,0.1,0.2,0.2,0.3c0.2,0.2,0.5,0.5,0.9,0.7c0.2,0.1,0.4,0.1,0.6,0.1
				c0.2,0,0.4,0,0.5-0.1c0.3-0.1,0.5-0.3,0.5-0.3c0,0-0.1,0.2-0.4,0.4c-0.1,0.1-0.3,0.2-0.6,0.3c-0.2,0.1-0.5,0.1-0.7,0
				c-0.5-0.1-1-0.3-1.3-0.5c-0.2-0.1-0.3-0.2-0.4-0.3c-0.1-0.1-0.1-0.1-0.1-0.1L524.5,157.1z"/>
		</g>
		<g class="st20">
			<path class="st21" d="M524.3,157.6c0,0,0,0.1,0.1,0.2c0.1,0.1,0.1,0.2,0.2,0.4c0.2,0.3,0.6,0.6,1.1,0.7c0.5,0.2,1,0.2,1.4,0.2
				c0.4,0,0.7-0.1,0.7-0.1s-0.3,0.1-0.7,0.2c-0.4,0.1-1,0.2-1.6,0.2c-0.3,0-0.6-0.1-0.9-0.2c-0.3-0.1-0.5-0.3-0.7-0.4
				c-0.2-0.2-0.3-0.3-0.4-0.4c-0.1-0.1-0.1-0.1-0.1-0.1L524.3,157.6z"/>
		</g>
		<g class="st20">
			<path class="st21" d="M524,156.3C524,156.3,524,156.3,524,156.3c0.1,0,0.1,0,0.2,0.1c0.2,0.1,0.3,0.2,0.4,0.3
				c0.3,0.2,0.6,0.5,1,0.7c0.2,0.1,0.4,0.1,0.6,0.2c0.2,0,0.4,0,0.5-0.1c0.3-0.1,0.5-0.3,0.5-0.3c0,0-0.1,0.2-0.4,0.4
				c-0.1,0.1-0.3,0.2-0.6,0.2c-0.2,0-0.5,0-0.7,0c-0.5-0.1-0.9-0.4-1.2-0.5c-0.1-0.1-0.3-0.2-0.3-0.1c0,0-0.1,0-0.1,0c0,0,0,0,0,0
				L524,156.3z"/>
		</g>
		<path class="st19" d="M424.9,68.6c-2.2,1.3,1.1,6.6,4,4C431.5,70.3,428.4,66.5,424.9,68.6z"/>
	</g>
	<path class="st17" d="M439.4,89.8c0,0-3.4,2.3-4.6,2.8c-2.1,0.9-5,0.4-6.8,0.8c-0.7,0.2-0.9,3.6,0.5,3.7c0,0-0.6,2,1.4,2.2
		c2.2,0.1,6-2.9,7.1-5C439.4,89.8,439.2,90.7,439.4,89.8z"/>
	<path class="st22" d="M464.5,67.3c0,0-23.2,38-40,46.2c0,0-0.3,5.8,8.1,8.2c0,0,28.4-27.4,35.9-52.1L464.5,67.3z"/>
	<path class="st2" d="M485.8,17.4c0,0,7.7,6.2,6.7,8.5c0,0-12.5,27.3-17.9,34.6l-1.8-3.1C472.8,57.4,486.2,27,485.8,17.4"/>
	<path class="st17" d="M464.9,64l0.8-6.5c0,0-53.4-24.5-63.5-24.7c0,0-5.6,9.5-2.3,18.4C399.9,51.2,444.6,52.5,464.9,64"/>
	<path class="st22" d="M466.7,53.5c-13.6,6.9-1.7,28.6,9.1,19.7S474.2,49.7,466.7,53.5z"/>
	<g id="caito_arm_2_">
		<path class="st7" d="M386.4,247.2c0,0,16.3,1.5,16.9,0.3c0,0,5.4-2.4,1.8-9.2c-0.4-0.8-14.2,1.9-21.4-1.6c0,0,5.7-2.3,6.8-4.9
			c0.7-1.6-0.8-5.2-1.7-4.9c-0.9,0.3-12.3,1.8-15.8,0c-2.5-1.3-28.9-12.9-49.2-27.5c-8.1-5.8-19.5-8.5-21.9-11.6
			c-2.1-2.7-5.8-4.3-5.8-5.9s0.5-4.9-0.3-8.1s-2.1-7.9-2.1-7.9s1.2-16.7-2.4-21.7c0,0-1.2-26-6.4-32.1c-2.9-3.4-7.2-12.6-21-9.4
			c-13.8,3.2-20.1,15.2-20.1,20.7c0,5.5,2.4,42,13.1,49.3c0,0-4,20.1,10.6,31.3c0,0,11,16.7,25.3,20.7c0,0,16.4,10.2,25.3,13.9
			c8.8,3.7,13.7,3.8,18.3,5s14.9,8.2,14.9,8.2s17.5,14.7,30.9,10.3c0.5-0.2-13.6-4-14-4.3c-0.6-0.6,12.3,3.3,15.4,3.6
			c3.7,0.3,13.6-1.9,12.3-4.4c0,0-11.9-1.1-15.5-3c0,0,10,2.1,12,2.5c5.3,0.8,10.2-1.9,11.5-7.6
			C403.9,248.7,388.9,248.3,386.4,247.2"/>
		<path class="st15" d="M272.1,211.4c0,0,18.1-11.5,24.2-29c0,0,7.3,2.2,8,6.2c0,0-5.9,25.3-26,29.3
			C278.4,217.9,273,216.6,272.1,211.4z"/>
		<path class="st5" d="M287,224c0,0,19.9-3.4,25.2-30.8c0,0-4.5-5.7-7.9-4.6c0,0-7.4,25-26,29.3C278.4,217.9,279.8,222.6,287,224z"
			/>
		<path class="st5" d="M354.5,217.2c0,0-3.3,19.4-17.3,26.6l13.4,9.2c0,0,15.7,2.4,21.8-27.8C372.4,225.1,361.4,218.1,354.5,217.2z"
			/>
		<path class="st6" d="M265.9,124.4c15.3-4.1,20.9,20.2,6.2,24.8C253.7,154.9,250.6,128.5,265.9,124.4z"/>
		<polygon class="st7" points="275.4,140.2 268.4,131.2 269.2,128.1 268.3,127.8 267.6,130.3 265.4,127.6 264.7,128.2 267.3,131.5 
			263.6,144.6 263.4,145.3 268.4,144.2 269.3,138.2 272.7,143.2 277.2,142.2 		"/>
	</g>
	<path class="st16" d="M468.7,60.7c-4.6,2.6-2.1,10.7,2.9,6.9S471.2,59.2,468.7,60.7z"/>
	<path class="st7" d="M378.4,247.8c0,0-16.5,1.1-17.1-0.1c0,0-5.4-2.6-1.6-9.3c0.4-0.8,14.3,2.3,21.8-1.1c0,0-5.7-2.5-6.8-5.1
		c-0.7-1.7,0.9-5.2,1.8-4.9s12.4,2.1,16,0.4c2.5-1.2,28.5-15.8,49.4-30.1c8.3-5.7,21.1-4.7,23.6-7.7c2.2-2.7,6-4.2,6-5.9
		c0-1.7-0.3-4.9,0.5-8.2c0.9-3.2,2.4-8,2.4-8s-0.8-17,3-22c0,0,1.9-26.3,7.3-32.4c3.1-3.4,7.6-12.6,21.5-9
		c13.9,3.6,24.7,17.6,24.5,23.2c-0.1,5.5-3.4,41.6-14.4,48.7c0,0-1.3,19.7-16.4,30.7c0,0-11.5,16.7-26.1,20.3
		c0,0-16.9,9.9-25.9,13.4c-9,3.5-14,3.5-18.6,4.6c-4.7,1.1-15.3,7.9-15.3,7.9s-18.1,14.4-31.5,9.6c-0.5-0.2,13.9-3.7,14.3-4
		c0.6-0.6-12.6,3.1-15.7,3.2c-3.8,0.2-13.7-2.2-12.3-4.8c0,0,12.1-0.9,15.7-2.6c0,0-10.2,1.9-12.3,2.2c-5.4,0.7-10.3-2.2-11.4-8
		C360.7,248.9,375.8,248.9,378.4,247.8"/>
	<path class="st22" d="M495.1,214.5c0,0-18-12.1-23.7-30c0,0-7.4,2-8.3,6.1c0,0,5.3,25.8,25.6,30.3
		C488.6,220.9,494.1,219.7,495.1,214.5z"/>
	<path class="st17" d="M479.6,226.9c0,0-21.3-5.9-26-33.8c0,0,6-3.7,9.4-2.5c0,0,6.9,25.5,25.6,30.3
		C488.6,220.9,487,225.5,479.6,226.9z"/>
	<path class="st17" d="M411.2,216.9c0,0,3.1,21.1,17.1,28.7l-13.8,8.9c0,0-15.9,2.1-21.3-28.8C393.2,225.8,404.2,217.7,411.2,216.9z
		"/>
	<path class="st17" d="M499.3,93.2c0,0-36.2,27.5-58.2,35.2c0,0-3.3-5.3,0.4-8.3c0,0,22.7-6.5,56.4-31.7
		C498.8,87.7,501.2,92.4,499.3,93.2z"/>
	<path class="st18" d="M430.5,88.4c-1-0.2-4.3-0.6-4.3,1.1c0,1.9,0.9,3.1,0.9,3.1s11.8-0.1,14-5.5C441.1,87,434.5,89.1,430.5,88.4z"
		/>
	<path class="st6" d="M506.7,124.3c17.8,1.3,14.8,29.2-2.5,28.6C482.5,152.2,488.9,123.1,506.7,124.3"/>
	<path class="st2" d="M645.3,232.2c0,0,24.6,29.7,30.1,29.7c0,0,12.1-17,20.7-16c8.6,1,25.7,11.9,28.9,14.1c3.8,2.6,10.7-1.5,12.7-4
		c2.6-3.4,8.4-11.6,7.7-12.7c-0.6-1.1-45.9-54.5-59.9-47.3c-4,2.1-10.2,10.6-13,14.3S644.5,231.3,645.3,232.2z"/>
	<path class="st0" d="M748.7,236c1.8-5.4-11.8-15.5-20.7-23.5c-14.9-13.4-28-26.4-32.3-24.7c-1.3,0.5-6.2,2.6-10.3,8.2
		c0,0,42.4,32,47.7,37c11,10.3,8.2,17.9,8.2,17.9S744.5,248.8,748.7,236z"/>
	<path class="st23" d="M651.2,227l29.8,32.4c0,0-2.2,3.3-4.2,5.6c-2,2.3-31.9-32.3-31.6-32.9C646,230.7,651.2,227,651.2,227z"/>
	<path class="st16" d="M662.2,218.7c0.5-0.5,31.8,31.5,31.8,31.5s-3.1,0.8-6.8,3.6c-0.5,0.4-31.1-30.6-31.1-30.6
		S660.3,220.5,662.2,218.7z"/>
	<path class="st6" d="M662.4,256.9c0,0,19,36.1,25,37.1c0,0,13.5-13.7,22.8-11.3s26.4,17,29.6,19.9c3.8,3.4,12,0.1,14.6-2.4
		c3.4-3.3,11-11.5,10.5-12.8c-0.5-1.3-42-67-58.5-61.3c-4.7,1.6-12.9,10.1-16.6,13.7S661.7,255.8,662.4,256.9z"/>
	<path class="st4" d="M769.7,280c2.8-5.7-10.5-18.9-19.1-29.1c-14.3-17-26.7-33.4-31.7-32.2c-1.5,0.4-7.2,1.9-12.6,7.4
		c0,0,41.6,41.8,46.6,48c10.5,13,6.2,20.9,6.2,20.9S763.1,293.4,769.7,280z"/>
	<path class="st22" d="M667.7,253.2l24.3,36.5c0,0-2.7,2.9-5,4.8c-2.4,1.9-25.8-37.6-25.8-37.6L667.7,253.2z"/>
	<path class="st17" d="M679.6,246.3c0.6-0.4,26.8,36.4,26.8,36.4s-3.2,0.2-7.3,2.5c-0.5,0.3-25.7-35.3-25.7-35.3
		S677.4,247.8,679.6,246.3z"/>
	<polygon class="st7" points="509.7,143.6 506,132.9 507.8,130.2 507,129.6 505.5,131.7 504.4,128.4 503.5,128.8 504.8,132.7 
		497.1,144 496.7,144.6 501.8,145.1 504.6,139.8 506.1,145.6 510.7,146.1 	"/>
</g>
</svg>
