<?xml version="1.0" encoding="utf-8"?>
<!-- Generator: Adobe Illustrator 19.2.0, SVG Export Plug-In . SVG Version: 6.00 Build 0)  -->
<svg version="1.1" id="Layer_1" xmlns="http://www.w3.org/2000/svg" xmlns:xlink="http://www.w3.org/1999/xlink" x="0px" y="0px"
	 width="792px" height="339px" viewBox="0 0 792 339" style="enable-background:new 0 0 792 339;" xml:space="preserve">
<style type="text/css">
	.st0{fill:#CB9DC8;}
	.st1{fill:#6C2C74;}
	.st2{fill:#DBF0F5;}
	.st3{fill:#E0B3D3;}
	.st4{fill:#7A307F;}
	.st5{fill:#BC7646;}
	.st6{fill:none;stroke:#B986BC;stroke-miterlimit:10;}
	.st7{fill:#F9C79E;}
	.st8{fill:#77297C;}
	.st9{fill:#FBF7FA;}
	.st10{fill:#412344;}
	.st11{fill:#B986BC;}
	.st12{fill:#B16D44;}
	.st13{fill:#8FCE9F;}
	.st14{fill:#276865;}
	.st15{fill:#ADDABA;}
	.st16{fill:#2F7C7A;}
	.st17{fill:#754532;}
	.st18{fill:#1A3F3D;}
	.st19{display:none;}
	.st20{display:inline;fill:#77297C;}
	.st21{fill:#7EC78D;}
	.st22{fill:#E6C9E1;}
	.st23{fill:none;stroke:#7A307F;stroke-miterlimit:10;}
	.st24{fill:#C5E2CD;}
	.st25{fill:none;stroke:#2F7C7A;stroke-miterlimit:10;}
</style>
<path class="st0" d="M93.2,217.7c0,0,18.6,2.1,31.8,11.3c13.2,9.1,25.1,21.1,29.8,20.1c4.7-1.1,22.7-12.5,22.7-12.5
	s4.2-8.4,9.7-14.5c6.7-7.4,22.7-15.6,39.4-9.5c0,0,9.7-31.6,11-42.3c1.2-10.6,5.2-38.3,11.3-45.6c6.1-7.3,30.1-21.3,32.2-27.1
	s-0.9-36.2,4.3-41.7c5.2-5.5,14.9-33.2,24.3-32.6c9.4,0.6,38.9,5.2,40.2,16.7c1.2,11.6-2.4,39.9-12.2,48.1c-9.7,8.2-24,24.3-24,29.8
	c0,5.5,5.2,7.9,5.2,14c0,6.1-6.1,22.5-5.5,24c0.6,1.5,2.4,3,3.7,10.9c1.2,7.9,1.8,18,2.7,20.4c0.9,2.4,36.8,26.8,34.4,35
	c-2.4,8.2-49.9-28-54.2-25.6c-4.3,2.4-28.6,54.2-37.7,59c-9.1,4.9-40.2,41.4-49.3,42.6c-9.1,1.2-37.1,4.9-42.6,7.9
	c-5.5,3-13.4,9.4-17.6,8.2c-4.3-1.2-50.2-21.6-51.4-26.2c-1.2-4.6-9-46.2-9-46.2L93.2,217.7z"/>
<path class="st1" d="M139.8,239.7c0,0,8.7,17-5,31.7c0,0,5.2,8.7,7.7,8.7c0,0,10.3-20,7.6-32.4C150.2,247.8,139.5,240.5,139.8,239.7
	z"/>
<path class="st1" d="M155.8,248.7c0,0-6.4,19.6-0.6,31.4l7.8-4.4c0,0-6.6-7.1,0.5-30.8L155.8,248.7z"/>
<path class="st1" d="M178.8,234.2c0,0-0.2,19.8,10.5,17.1l-6.5,14.4c0,0-16.9-2.1-11.2-25.4C171.5,240.3,175.3,238.2,178.8,234.2z"
	/>
<path class="st1" d="M271.2,95.3c0,0-17.9-20-21.3-22c-2.4-1.4-17-0.4-18.7,0.7c-2.7,1.8-54.3,86.6-46.1,95s23.9,25.1,34.6,27.6
	C230.6,199.2,271.2,95.3,271.2,95.3z"/>
<path class="st2" d="M347.2,44.3c3.7,0,21.2-7.6,21.4,11c0.1,10.9-2.6,22.5-8.4,34c-5.4,10.6-12,17.8-18.2,22.7
	c-10.6,8.3-22.6,0.6-22.6,0.6l-18.6-52.9L347.2,44.3z"/>
<path class="st3" d="M336.6,115.1c8.5,4.7-14.8,6.1-14.8,6.1s5.1,9.7,5.8,13.4c1.5,8,0.9,17.2-2.3,20.9c0,0,5.5,11.1,2.4,28.1
	c0,0,7.1,3.8,9.7,8.2c0,0,18.4,12.2,21.1,18.9c2.7,6.7,14.3,13.8,15.7,13.8s13.2,0.6,14.6,3.3c1.4,2.7,20.1,16.9,14.5,20.5
	c-5.6,3.7-33.2-1.1-43.2-5c-10-4-56-32.7-56-32.7s-18.1,35.7-25.7,40.8c0,0-13.7,17.3-18.7,18.3c-5,0.9-0.2,1-0.2,1
	s-31.7,27.6-49.4,34.9c-14.3,5.9-21,8.7-24.5,8.7c0,0-7.3,0.5-10.6,4.6c0,0-11.9,12.9-28.6,7.6S129.3,316,129.3,316s-6.1-2-9-7.1
	c0,0-12.9-5-19.6-8.1c-12.6-5.8-20.6-24.3-20.6-24.3l12.2-29.1c2.1-2.2,43.6,18.1,48.3,29c0,0,6.2,3.4,11.5,4.9
	c0,0,25.9-12.8,29.1-16.1c3.2-3.3,7.5-17,8.1-20.7c0.6-3.7,1.8-9.9,8.7-18.1c0,0,15.7-13.8,19-21c1.2-2.5,3.2-7.5,3.7-13.5
	c0.5-5.9,4.8-47.2,12.1-59.3c7.3-12.1,12.8-26.7,31.3-34.7c0,0,6.6-4.3,8.4-6.4c1.8-2.1-5.4-36.9,5.7-60
	C288.5,9.6,316.9-0.8,342.8,12c13.7,6.7,22.1,18.9,24.7,33.4l-67.1,15.7C300.4,61.1,323.1,107.6,336.6,115.1z"/>
<path class="st1" d="M350.7,218.2c0,0,9.1-4.3,8.4-6.4c0,0,12.3,3.3,14.9,11.5c1,3.2-6.7,4.3-10.2,4.3
	C360.3,227.6,350.7,218.2,350.7,218.2z"/>
<path class="st4" d="M185.7,314.3c0,0-15.9-4.5-24.1-37.8c0,0-6.8,0.7-9.5,4.8c0,0,0.2,21.6,23,37.6
	C175,318.9,182,319.7,185.7,314.3"/>
<path class="st4" d="M140.6,276.4c0,0-17.4,11.6-20.3,32.4c0,0,1.7,4.3,9,7.1c0,0,7.1-23.7,20.2-35.5
	C149.5,280.4,145.3,276.4,140.6,276.4z"/>
<path class="st4" d="M187.8,249.9c0,0,67.2,20.7,90.7,1.6c0,0-8.2,15.3-18.9,19.3c0,0-56.2,3.7-77.6-6.6
	C181.9,264.2,184.8,258.4,187.8,249.9z"/>
<path class="st4" d="M271.1,92.7l30.4,21.8c0,0,18.4,38.7-29.2,116.7l-14-9.2c0,0-31.2-4.9-27.8-78.8
	C231.9,109.4,271.1,92.7,271.1,92.7z"/>
<path class="st4" d="M220.1,195.3c0,0,40.5,33.9,73,35.7c0,0-3.5,8.7-9.2,14.4c0,0-61.3-23.9-72.6-32.4
	C211.3,213,218.4,204.1,220.1,195.3z"/>
<path class="st5" d="M254.5,223.3c3.2,0.8,2.1,5-0.5,4.2C250.5,226.5,253,222.9,254.5,223.3z"/>
<path class="st5" d="M263.5,231.5c-3.8-1.1-1.2-4.9,0.5-4.5C267.3,227.9,266.2,232.3,263.5,231.5"/>
<path class="st5" d="M273.8,236.1c-4.9-1.4-1.5-6.4,0.6-5.8C278.8,231.4,277.4,237.1,273.8,236.1"/>
<path class="st5" d="M283.9,239.1c-4.5-1.2-1.4-5.4,0.6-4.9C288.5,235.2,287.2,240,283.9,239.1"/>
<path class="st5" d="M241.5,92.7c6.2,5.1,0,12.3-5,8.2C231.5,96.8,236.5,88.6,241.5,92.7z"/>
<path class="st5" d="M231.9,106.6c4.8,4.1,0,13.8-5.5,9.2C221,111.2,227.1,102.5,231.9,106.6z"/>
<path class="st5" d="M221.2,122.5c0,0-20.9,32.1-20.2,33.3c0.7,1.1,3.1,3.2,3.9,2.4c2-2.1,21.6-32.2,21.2-33.1
	S221.9,121.4,221.2,122.5z"/>
<path class="st6" d="M296.1,159.1"/>
<path class="st4" d="M287.6,159.9c0,0,19.8,6.4,32.9,0c0,0-2,23.5-6.5,34.1c0,0-17.2-1.9-23.9-7.1S287.6,159.9,287.6,159.9z"/>
<path class="st4" d="M285.2,231.1l7,2.1c0,0,46.2-67.1,35.5-104.4l-7.4-3.3c0,0,10.9,25.9-13,66.6L285.2,231.1z"/>
<path class="st7" d="M331.3,103.6c0,0-15.9-10.4-16.6-18.7c0,0,1.4-25.8,10.5-29.6c9.1-3.8,30.3-2.2,30.3-2.2s1.7,12.6-2.4,18.2
	c-4.1,5.6-6.2,9.2-6.7,18.5c0,0-3.2,0.9-6.4,0C339.9,89.8,339.6,99.8,331.3,103.6"/>
<path class="st8" d="M305,67L316.5,87c0,0,1.5-27.1,14.6-31l-23.3,5.6L305,67z"/>
<g id="eye_3_">
	<path class="st5" d="M349.1,66c0,0-0.7,1.7-2.2,1.4c-1.5-0.3-4.4-2.7-5.9-2.4c-1.5,0.3-9.1,1.5-9.1,1.5s5.8-3.2,8.3-3.5
		C342.7,62.6,348.4,64.9,349.1,66z"/>
	<path class="st9" d="M341.9,71.6c1-0.3-2.6,3.6-2.6,3.6c-0.9-2-2.8-4.5-2.8-4.5S339.6,72.3,341.9,71.6z"/>
	<g>
		<path class="st8" d="M340.2,76.7c-0.4-0.5-0.8-1-1.2-1.5l-1.2-1.5l-1.2-1.5c-0.4-0.5-0.8-1-1.2-1.4l-1.7-1.8l2.2,1l0.5,0.2
			l0.5,0.2c0.4,0.1,0.7,0.2,1.1,0.3c0.8,0.1,1.5,0.3,2.3,0.4c1.6,0.2,3.2,0.3,4.8,0.5c-0.8,0.1-1.6,0.2-2.4,0.3
			c-0.8,0.1-1.6,0.1-2.4,0c-0.8,0-1.6-0.1-2.4-0.2c-0.4-0.1-0.8-0.2-1.2-0.3c-0.4-0.1-0.8-0.3-1.2-0.5l0.6-0.8
			c0.5,0.5,0.9,1,1.2,1.5c0.4,0.5,0.7,1.1,1.1,1.6C339.1,74.3,339.7,75.5,340.2,76.7z"/>
	</g>
	<g>
		<path class="st8" d="M336.1,70.8c0,0-0.2-0.2-0.3-0.5c-0.2-0.3-0.4-0.8-0.5-1.2c-0.1-0.5-0.1-1,0-1.3c0.1-0.3,0.3-0.5,0.3-0.5
			c0,0-0.1,0.2-0.1,0.5c0,0.3,0.1,0.7,0.3,1.1c0.2,0.4,0.5,0.7,0.7,0.9c0.2,0.2,0.4,0.3,0.4,0.3L336.1,70.8z"/>
	</g>
	<g>
		<path class="st8" d="M335.8,71.1c0,0-0.1,0-0.2-0.1c-0.1-0.1-0.3-0.2-0.5-0.3c-0.4-0.3-0.8-0.8-1-1.3c-0.3-0.5-0.3-1.2-0.2-1.6
			c0.1-0.2,0.2-0.4,0.3-0.4c0.1-0.1,0.1-0.1,0.1-0.1c0,0-0.2,0.2-0.3,0.6c-0.1,0.4,0.1,0.9,0.4,1.3c0.3,0.4,0.7,0.7,1.1,0.9
			c0.2,0.1,0.3,0.1,0.4,0.1c0.1,0,0.2,0.1,0.2,0.1L335.8,71.1z"/>
	</g>
	<g>
		<path class="st8" d="M337,71.1C337,71.1,337,71.1,337,71.1c-0.1-0.1-0.1-0.1-0.2-0.2c0,0,0,0-0.1-0.1c-0.1-0.1-0.1-0.2-0.2-0.4
			c-0.1-0.3-0.2-0.8-0.2-1.3c0-0.5,0.2-0.9,0.3-1.2c0.1-0.3,0.3-0.5,0.3-0.5s-0.1,0.2-0.2,0.5c-0.1,0.3-0.1,0.8,0,1.2
			c0.1,0.4,0.2,0.8,0.4,1c0.1,0.1,0.2,0.2,0.2,0.3c0,0,0,0,0,0c0,0,0,0-0.1,0c0,0,0,0,0,0L337,71.1z"/>
	</g>
	<path class="st10" d="M342.2,71.7c1.9,0.8,0.3,5.4-2.3,3.6C337.5,73.6,339.1,70.4,342.2,71.7z"/>
</g>
<path class="st8" d="M326.8,85.8c0,0,2.9,4.5,4.3,5.8c2.7,2.3,7.6,2.7,7.6,3.7c0,0.7,0.2,2.5-1.2,2.5c0,0,0,2.6-1.9,3
	c0,0-4.1-2.1-6.5-7C326.9,89.3,326.3,87.8,326.8,85.8z"/>
<path class="st1" d="M123.3,227.6c0,0-22.9,26.3-28,26.3c0,0-9-12.3-17-11.4s-23.9,11.1-26.9,13.1c-3.5,2.4-10-1.4-11.8-3.7
	c-2.4-3.2-7.8-10.8-7.2-11.8c0.6-1,42.7-50.7,55.7-44c3.7,1.9,9.5,9.9,12.1,13.3C102.9,212.8,124,226.8,123.3,227.6z"/>
<path class="st11" d="M29.3,233.4c-1.6-5,10.9-14.4,19.2-21.9c13.8-12.4,26.1-24.6,30-23c1.2,0.5,5.7,2.4,9.6,7.6
	c0,0-39.4,29.8-44.3,34.4c-10.2,9.6-7.6,16.6-7.6,16.6S33.2,245.3,29.3,233.4z"/>
<path class="st12" d="M111.3,218.2l-26.5,30.7c0,0-2.7-1.5-5.4-1.8c-2.8-0.4,27.6-32,27.6-32L111.3,218.2z"/>
<path class="st12" d="M124.1,228.1c0.5,0.5-28.1,31.5-28.1,31.5s-2.9-2.1-3.7-5c-0.3-1.2,26.8-30.7,26.8-30.7
	S122.2,226.2,124.1,228.1z"/>
<path class="st4" d="M109.7,254c0,0-19.6,30.8-25.1,32.8c0,0-9.9-12-18.7-10.4c-8.8,1.6-25.7,14-28.8,16.4
	c-3.7,2.9-11.2-0.8-13.3-3.3c-2.9-3.3-9.4-11.4-8.8-12.6s43.6-59.3,58.5-52.8c4.2,1.9,11.2,10.3,14.4,13.8S110.5,253,109.7,254z"/>
<path class="st0" d="M11,269.7c-2.2-5.5,11.1-16.8,19.7-25.6c14.4-14.8,27.1-29.1,31.6-27.6c1.3,0.4,6.5,2.3,11.1,7.7
	c0,0-41.5,35.9-46.6,41.3c-10.6,11.3-7.2,19-7.2,19S16.2,282.6,11,269.7z"/>
<path class="st5" d="M97.9,245.4l-24.5,32.3c0,0-2.8-1.3-5.5-1.5c-2.9-0.2,25.7-33.7,25.7-33.7L97.9,245.4z"/>
<path class="st5" d="M110.7,254.1c0.5,0.4-25,34.1-25,34.1s-3.1-1.8-4.2-4.6c-0.4-1.2,23.8-33.1,23.8-33.1S108.7,252.6,110.7,254.1z
	"/>
<path class="st11" d="M306,68c0,0,22,38.1,38.3,46.5c0,0,0.1,5.7-8.2,7.9c0,0-27.4-27.7-34.1-52.3L306,68z"/>
<path class="st11" d="M298.1,58c0,0-12.5-30.3-11.9-39.7c0,0-7.7,6-6.8,8.2c0,0,11.6,27.2,16.8,34.5L298.1,58z"/>
<path class="st11" d="M304.2,54.3c13.2,7.2,0.9,28.3-9.4,19.2S296.9,50.4,304.2,54.3z"/>
<path class="st5" d="M302.1,61.3c4.5,2.7,1.8,10.6-3,6.7C294.1,64.1,299.6,59.9,302.1,61.3z"/>
<path class="st11" d="M305.7,64.7l-0.6-6.4c0,0,53.2-22.8,63.3-22.8c0,0,5.3,9.5,1.8,18.3C370.2,53.7,326.1,53.9,305.7,64.7"/>
<path class="st4" d="M271.1,92.7c0,0,35.1,28,56.5,36.2c0,0,3.4-5.1-0.2-8.2c0,0-22.3-7-54.8-32.6C271.7,87.3,269.2,91.9,271.1,92.7
	z"/>
<path class="st13" d="M676.4,225.4c0,0-18.9,1.7-32.5,10.6c-13.6,8.9-26,20.8-30.7,19.6c-4.8-1.2-22.6-13.2-22.6-13.2
	s-1-8.9-6.5-15.2c-6.6-7.6-25.6-16.1-42.7-10.4c0,0-9.1-32.3-10-43.1c-1-10.8-4.3-39-10.2-46.5s-30-22.3-32-28.3s1.8-36.7-3.3-42.3
	s-14.3-34-23.8-33.6c-9.6,0.4-39.6,4.2-41.1,15.9c-1.5,11.7,1.5,40.4,11.1,49s23.7,25.3,23.6,30.8s-5.4,7.9-5.6,14
	c-0.2,6.2,5.6,23,4.9,24.5c-0.7,1.5-2.5,3-4,11c-1.4,8-2.3,18.1-3.3,20.6c-1,2.4-38,26.2-35.7,34.6c2.3,8.4,51.3-27.1,55.5-24.5
	c4.3,2.6,27.6,55.6,36.7,60.8c9.1,5.2,39.6,42.9,48.8,44.4c9.2,1.5,37.5,5.9,43,9.1c5.5,3.2,13.3,9.9,17.7,8.8
	c4.3-1.1,51.4-20.6,52.8-25.2s10.3-46.6,10.3-46.6L676.4,225.4z"/>
<path class="st14" d="M628.6,246.5c0,0-9.2,17,4.2,32.2c0,0-5.5,8.7-8,8.6c0,0-9.9-20.5-6.9-33C617.9,254.4,629,247.3,628.6,246.5z"
	/>
<path class="st14" d="M612.2,255.2c0,0,6,20.1-0.2,31.8l-7.8-4.7c0,0,6.9-7.1,0.3-31.2L612.2,255.2z"/>
<path class="st14" d="M589.3,239.9c0,0-0.3,20.1-11.1,17l6.3,14.7c0,0,17.2-1.7,12-25.4C596.5,246.2,592.8,244,589.3,239.9z"/>
<path class="st14" d="M499.2,96.8c0,0,18.6-19.8,22.1-21.7c2.4-1.3,17.2,0,18.9,1.2c2.7,1.9,52.8,89.1,44.3,97.4
	s-24.8,24.8-35.8,27.1C537.8,203.1,499.2,96.8,499.2,96.8z"/>
<path class="st2" d="M423.6,43.2c-3.7-0.1-21.3-8.3-22,10.6c-0.4,11,2.1,22.9,7.7,34.7c5.2,10.9,11.7,18.4,17.9,23.5
	c10.5,8.6,22.9,1.2,22.9,1.2l20.2-53.2L423.6,43.2z"/>
<path class="st15" d="M428.8,10.6C414.8,17,406,29.2,403,43.8l67.6,17.6c0,0-24.2,46.5-38.1,53.8c-8.7,4.6,14.8,6.6,14.8,6.6
	s-5.5,9.7-6.2,13.4c-1.7,8.1-1.3,17.4,1.8,21.2c0,0-5.8,11.1-3.2,28.4c0,0-9.8,1.5-12.6,5.9c0,0-16.5,14-19.4,20.7
	s-14.8,13.7-16.2,13.6c-1.4,0-13.4,0.3-14.9,3s-20.8,16.6-15.2,20.4c5.6,3.8,33.6-0.2,43.9-4c10.3-3.8,57.5-31.7,57.5-31.7
	s17.4,36.7,25,42l16.7,20.6c0,0,30.1,29.9,47.8,37.8c14.4,6.4,24.4,7.5,28,7.6c0,0,7.4,0.6,10.7,4.9c0,0,11.7,13.4,28.8,8.4"/>
<path class="st15" d="M619.7,334.2c17.1-5,17.7-10.2,17.7-10.2s6.2-1.8,9.3-7c0,0,13.4-4.3,20.1-7.7c10.9-5.5,34.5-27.5,34.5-27.5
	l-11-32.7c-2-2.3-52.6,16.4-63.3,34.4c0,0-6.4,3.3-11.7,4.7c0,0-25.9-13.6-29-17.1c-3.2-3.5-6.6-14.7-7.1-18.4s5.2-16.8-8.1-28.7
	c-4.5-4.1-16.3-7-19.5-14.3c-1.1-2.6-3-7.7-3.4-13.7c-0.3-6-3.7-48-10.7-60.4s-12.3-27.4-30.8-35.9c0,0-6.6-4.6-8.4-6.7
	c-1.8-2.1,6.4-37.2-4.3-60.9c-10.1-22.5-38.6-33.7-65.1-21.5"/>
<path class="st14" d="M415.5,219.3c0,0-9.1-4.5-8.4-6.7c0,0-12.5,3-15.3,11.3c-1.1,3.2,6.7,4.6,10.2,4.7
	C405.6,228.6,415.5,219.3,415.5,219.3z"/>
<path class="st16" d="M580.3,320.9c0,0,16.2-4.2,25.4-37.7c0,0,6.9,0.9,9.5,5.1c0,0-0.7,21.9-24.2,37.5
	C591,325.8,583.8,326.4,580.3,320.9"/>
<path class="st16" d="M626.9,283.6c0,0,17.4,12.2,19.8,33.4c0,0-1.8,4.4-9.3,7c0,0-6.6-24.2-19.6-36.5
	C617.8,287.5,622.2,283.5,626.9,283.6z"/>
<path class="st16" d="M579.8,255.6c0,0-68.6,19.3-91.9-0.7c0,0,7.9,15.7,18.7,20c0,0,56.8,5.2,78.8-4.7
	C585.4,270.2,582.6,264.3,579.8,255.6z"/>
<path class="st16" d="M499.4,94.2l-31.3,21.3c0,0-19.6,38.7,26.6,119l14.4-8.9c0,0,31.7-4.1,30.2-79.1
	C538.7,112.1,499.4,94.2,499.4,94.2z"/>
<path class="st16" d="M548.5,199.4c0,0-41.9,33.3-74.9,34.4c0,0,3.3,8.9,8.9,14.9c0,0,62.7-22.6,74.4-31
	C556.9,217.6,550,208.4,548.5,199.4z"/>
<path class="st5" d="M512.9,226.9c-3.2,0.8-2.3,5,0.4,4.3C516.8,230.3,514.5,226.5,512.9,226.9z"/>
<path class="st5" d="M503.6,235c3.8-1,1.3-5-0.4-4.6C499.8,231.2,500.8,235.7,503.6,235"/>
<path class="st5" d="M493,239.4c5-1.3,1.7-6.5-0.5-5.9C488.1,234.5,489.4,240.4,493,239.4"/>
<path class="st5" d="M482.7,242.2c4.6-1.1,1.6-5.4-0.5-5C478.1,238.1,479.3,243,482.7,242.2"/>
<path class="st5" d="M529.4,94.9c-6.4,5-0.3,12.5,4.9,8.5C539.4,99.3,534.6,90.9,529.4,94.9z"/>
<path class="st5" d="M538.7,109.3c-5,4-0.4,14,5.3,9.4C549.7,114.2,543.7,105.2,538.7,109.3z"/>
<path class="st5" d="M549.2,125.6c0,0,20.4,33.1,19.7,34.2c-0.7,1.1-3.3,3.1-4,2.3c-2-2.2-21.1-33.1-20.6-34.1
	C544.7,127.2,548.5,124.5,549.2,125.6z"/>
<path class="st6" d="M472.3,160.9"/>
<path class="st16" d="M481,161.9c0,0-20.2,6-33.3-0.8c0,0,1.4,23.9,5.8,34.8c0,0,17.4-1.5,24.4-6.6S481,161.9,481,161.9z"/>
<path class="st16" d="M481.6,234.1l-7.1,1.9c0,0-45.1-69.1-33.3-106.6l7.6-3.2c0,0-11.7,25.9,11.5,67.8L481.6,234.1z"/>
<path class="st7" d="M436.6,110c0,0,17.8-17,18.9-25.7c0,0-0.9-27.5-11.4-31.9C433.5,48,410.6,49,410.6,49s0.3,12,4.9,18.1
	c4.6,6.1,0.9,21.8,3.1,23.6c1.3,1.1,3.6-1.2,7.4-2c0,0,2,2.2,2.3,8.2c0.2,3.2,3.9,11.7,7.3,9.9"/>
<path class="st16" d="M465.7,67.2l-12.2,20c0,0-0.9-27.5-14-31.8l23.4,6.3L465.7,67.2z"/>
<g id="eye_1_">
	<path class="st17" d="M418.7,64.3c0,0,0.6,1.4,2.1,1.6c1.8,0.2,5-2,6.2-1.9c1.5,0.1,10.1,1.6,10.1,1.6s-2.9-3.5-9.1-3.6
		C424.7,62,418.8,63.4,418.7,64.3z"/>
	<path class="st9" d="M426.9,69.3c-1,0,2.2,4.3,2.2,4.3c1-2,4.3-4,4.3-4S429.1,69.3,426.9,69.3z"/>
	<g>
		<path class="st18" d="M427.6,75.8c0.3-0.7,0.7-1.3,1.1-2c0.4-0.6,0.9-1.2,1.4-1.7c0.5-0.5,1.1-1,1.7-1.5c0.6-0.4,1.2-0.9,1.8-1.4
			l0.1,0.2c-1,0-1.9,0.1-2.9,0.1c-1,0-1.9-0.1-2.8-0.2c-0.9-0.1-1.9-0.2-2.8-0.4c-0.9-0.2-1.9-0.4-2.8-0.6l0-0.1c1,0,1.9,0,2.9,0.1
			c0.9,0,1.9,0.1,2.8,0.2c0.9,0.1,1.9,0.2,2.8,0.3c0.9,0.1,1.9,0.3,2.8,0.3l0.4,0l-0.3,0.2c-0.6,0.4-1.2,0.9-1.7,1.4
			c-0.5,0.5-1,1.1-1.4,1.6c-0.5,0.5-1,1.1-1.5,1.6C428.6,74.7,428.1,75.3,427.6,75.8L427.6,75.8z"/>
	</g>
	<g class="st19">
		<path class="st20" d="M524.6,158.1c0,0,0,0,0.1,0.1c0,0.1,0.1,0.2,0.2,0.3c0.2,0.2,0.5,0.5,0.9,0.7c0.2,0.1,0.4,0.1,0.6,0.1
			c0.2,0,0.4,0,0.5-0.1c0.3-0.1,0.5-0.3,0.5-0.3c0,0-0.1,0.2-0.4,0.4c-0.1,0.1-0.3,0.2-0.6,0.3c-0.2,0.1-0.5,0.1-0.7,0
			c-0.5-0.1-1-0.3-1.3-0.5c-0.2-0.1-0.3-0.2-0.4-0.3c-0.1-0.1-0.1-0.1-0.1-0.1L524.6,158.1z"/>
	</g>
	<g class="st19">
		<path class="st20" d="M524.5,158.6c0,0,0,0.1,0.1,0.2c0.1,0.1,0.1,0.2,0.2,0.4c0.2,0.3,0.6,0.6,1.1,0.7c0.5,0.2,1,0.2,1.4,0.2
			c0.4,0,0.7-0.1,0.7-0.1s-0.3,0.1-0.7,0.2c-0.4,0.1-1,0.2-1.6,0.2c-0.3,0-0.6-0.1-0.9-0.2c-0.3-0.1-0.5-0.3-0.7-0.4
			c-0.2-0.2-0.3-0.3-0.4-0.4c-0.1-0.1-0.1-0.1-0.1-0.1L524.5,158.6z"/>
	</g>
	<g class="st19">
		<path class="st20" d="M524.1,157.2C524.1,157.2,524.2,157.2,524.1,157.2c0.1,0,0.1,0,0.2,0.1c0.2,0.1,0.3,0.2,0.4,0.3
			c0.3,0.2,0.6,0.5,1,0.7c0.2,0.1,0.4,0.1,0.6,0.2c0.2,0,0.4,0,0.5-0.1c0.3-0.1,0.5-0.3,0.5-0.3c0,0-0.1,0.2-0.4,0.4
			c-0.1,0.1-0.3,0.2-0.6,0.2c-0.2,0-0.5,0-0.7,0c-0.5-0.1-0.9-0.4-1.2-0.5c-0.1-0.1-0.3-0.2-0.3-0.1c0,0-0.1,0-0.1,0c0,0,0,0,0,0
			L524.1,157.2z"/>
	</g>
	<path class="st18" d="M425.1,69.5c-2.2,1.3,1.1,6.6,4,4C431.6,71.3,428.5,67.5,425.1,69.5z"/>
</g>
<path class="st16" d="M439.5,90.8c0,0-3.4,2.3-4.6,2.8c-2.1,0.9-5,0.4-6.8,0.8c-0.7,0.2-0.9,3.6,0.5,3.7c0,0-0.6,2,1.4,2.2
	c2.2,0.1,6-2.9,7.1-5C439.5,90.8,439.3,91.6,439.5,90.8z"/>
<path class="st21" d="M464.7,68.3c0,0-23.2,38-40,46.2c0,0-0.3,5.8,8.1,8.2c0,0,28.4-27.4,35.9-52.1L464.7,68.3z"/>
<path class="st21" d="M486,18.4c0,0,7.7,6.2,6.7,8.5c0,0-12.5,27.3-17.9,34.6l-1.8-3.1C472.9,58.3,486.3,28,486,18.4"/>
<path class="st21" d="M466.9,54.5c-13.6,6.9-1.7,28.6,9.1,19.7S474.4,50.7,466.9,54.5z"/>
<g id="caito_arm_1_">
	<path class="st22" d="M386.5,248.1c0,0,16.3,1.5,16.9,0.3c0,0,5.4-2.4,1.8-9.2c-0.4-0.8-14.2,1.9-21.4-1.6c0,0,5.7-2.3,6.8-4.9
		c0.7-1.6-0.8-5.2-1.7-4.9c-0.9,0.3-12.3,1.8-15.8,0c-2.5-1.3-28.9-12.9-49.2-27.5c-8.1-5.8-19.5-8.5-21.9-11.6
		c-2.1-2.7-5.8-4.3-5.8-5.9c0-1.7,0.5-4.9-0.3-8.1c-0.8-3.2-2.1-7.9-2.1-7.9s1.2-16.7-2.4-21.7c0,0-1.2-26-6.4-32.1
		c-2.9-3.4-7.2-12.6-21-9.4c-13.8,3.2-20.1,15.2-20.1,20.7s2.4,42,13.1,49.3c0,0-4,20.1,10.6,31.3c0,0,11,16.7,25.3,20.7
		c0,0,16.4,10.2,25.3,13.9c8.8,3.7,13.7,3.8,18.3,5c4.6,1.2,14.9,8.2,14.9,8.2s17.5,14.7,30.9,10.3c0.5-0.2-13.6-4-14-4.3
		c-0.6-0.6,12.3,3.3,15.4,3.6c3.7,0.3,13.6-1.9,12.3-4.4c0,0-11.9-1.1-15.5-3c0,0,10,2.1,12,2.5c5.3,0.8,10.2-1.9,11.5-7.6
		C404,249.7,389,249.3,386.5,248.1"/>
	<path class="st11" d="M272.2,212.4c0,0,18.1-11.5,24.2-29c0,0,7.3,2.2,8,6.2c0,0-5.9,25.3-26,29.3
		C278.5,218.9,273.1,217.6,272.2,212.4z"/>
	<path class="st4" d="M287.1,225c0,0,19.9-3.4,25.2-30.8c0,0-4.5-5.7-7.9-4.6c0,0-7.4,25-26,29.3C278.5,218.9,279.9,223.5,287.1,225
		z"/>
	<path class="st4" d="M354.6,218.2c0,0-3.3,19.4-17.3,26.6l13.4,9.2c0,0,15.7,2.4,21.8-27.8C372.5,226.1,361.5,219.1,354.6,218.2z"
		/>
	<path class="st5" d="M266,125.4c15.3-4.1,20.9,20.2,6.2,24.8C253.8,155.9,250.7,129.5,266,125.4z"/>
	<polygon class="st4" points="268.5,145.1 269.5,139.2 272.8,144.1 277.3,143.1 268,132.5 263.5,146.3 	"/>
	<line class="st23" x1="276.3" y1="142.9" x2="265.2" y2="128.8"/>
	<line class="st23" x1="264.2" y1="145.8" x2="268.9" y2="128.9"/>
</g>
<path class="st5" d="M468.8,61.6c-4.6,2.6-2.1,10.7,2.9,6.9S471.4,60.2,468.8,61.6z"/>
<path class="st21" d="M465.1,64.9l0.8-6.5c0,0-53.4-24.5-63.5-24.7c0,0-5.6,9.5-2.3,18.4C400,52.2,444.7,53.5,465.1,64.9"/>
<path class="st24" d="M378.5,248.7c0,0-16.5,1.1-17.1-0.1c0,0-5.4-2.6-1.6-9.3c0.4-0.8,14.3,2.3,21.8-1.1c0,0-5.7-2.5-6.8-5.1
	c-0.7-1.7,0.9-5.2,1.8-4.9c0.9,0.3,12.4,2.1,16,0.4c2.5-1.2,28.5-15.8,49.4-30.1c8.3-5.7,21.1-4.7,23.6-7.7c2.2-2.7,6-4.2,6-5.9
	s-0.3-4.9,0.5-8.2c0.9-3.2,2.4-8,2.4-8s-0.8-17,3-22c0,0,1.9-26.3,7.3-32.4c3.1-3.4,7.6-12.6,21.5-9c13.9,3.6,24.7,17.6,24.5,23.2
	c-0.1,5.5-3.4,41.6-14.4,48.7c0,0-1.3,19.7-16.4,30.7c0,0-11.5,16.7-26.1,20.3c0,0-16.9,9.9-25.9,13.4c-9,3.5-14,3.5-18.6,4.6
	c-4.7,1.1-15.3,7.9-15.3,7.9s-18.1,14.4-31.5,9.6c-0.5-0.2,13.9-3.7,14.3-4c0.6-0.6-12.6,3.1-15.7,3.2c-3.8,0.2-13.7-2.2-12.3-4.8
	c0,0,12.1-0.9,15.7-2.6c0,0-10.2,1.9-12.3,2.2c-5.4,0.7-10.3-2.2-11.4-8C360.8,249.8,375.9,249.9,378.5,248.7"/>
<path class="st21" d="M495.2,215.4c0,0-18-12.1-23.7-30c0,0-7.4,2-8.3,6.1c0,0,5.3,25.8,25.6,30.3
	C488.7,221.8,494.2,220.7,495.2,215.4z"/>
<path class="st16" d="M479.8,227.8c0,0-21.3-5.9-26-33.8c0,0,6-3.7,9.4-2.5c0,0,6.9,25.5,25.6,30.3
	C488.7,221.8,487.1,226.5,479.8,227.8z"/>
<path class="st16" d="M411.3,217.9c0,0,3.1,21.1,17.1,28.7l-13.8,8.9c0,0-15.9,2.1-21.3-28.8C393.3,226.7,404.3,218.6,411.3,217.9z"
	/>
<path class="st16" d="M499.4,94.2c0,0-36.2,27.5-58.2,35.2c0,0-3.3-5.3,0.4-8.3c0,0,22.7-6.5,56.4-31.7
	C498.9,88.7,501.3,93.4,499.4,94.2z"/>
<path class="st17" d="M430.6,89.3c-1-0.2-4.3-0.6-4.3,1.1c0,1.9,0.9,3.1,0.9,3.1s11.8-0.1,14-5.5C441.3,88,434.6,90.1,430.6,89.3z"
	/>
<path class="st5" d="M502,125.4c17.2-4.6,23.5,22.7,7,27.9C488.3,159.7,484.8,130,502,125.4"/>
<path class="st14" d="M645.4,233.1c0,0,24.6,29.7,30.1,29.7c0,0,12.1-17,20.7-16c8.6,1,25.7,11.9,28.9,14.1c3.8,2.6,10.7-1.5,12.7-4
	c2.6-3.4,8.4-11.6,7.7-12.7s-45.9-54.5-59.9-47.3c-4,2.1-10.2,10.6-13,14.3C669.7,214.9,644.6,232.3,645.4,233.1z"/>
<path class="st21" d="M748.8,237c1.8-5.4-11.8-15.5-20.7-23.5c-14.9-13.4-28-26.4-32.3-24.7c-1.3,0.5-6.2,2.6-10.3,8.2
	c0,0,42.4,32,47.7,37c11,10.3,8.2,17.9,8.2,17.9S744.6,249.8,748.8,237z"/>
<path class="st12" d="M651.3,228l29.8,32.4c0,0-2.2,3.3-4.2,5.6c-2,2.3-31.9-32.3-31.6-32.9C646.1,231.7,651.3,228,651.3,228z"/>
<path class="st12" d="M662.4,219.6c0.5-0.5,31.8,31.5,31.8,31.5s-3.1,0.8-6.8,3.6c-0.5,0.4-31.1-30.6-31.1-30.6
	S660.4,221.5,662.4,219.6z"/>
<path class="st16" d="M662.5,257.8c0,0,19,36.1,25,37.1c0,0,13.5-13.7,22.8-11.3c9.3,2.4,26.4,17,29.6,19.9c3.8,3.4,12,0.1,14.6-2.4
	c3.4-3.3,11-11.5,10.5-12.8c-0.5-1.3-42-67-58.5-61.3c-4.7,1.6-12.9,10.1-16.6,13.7C686.3,244.3,661.8,256.8,662.5,257.8z"/>
<path class="st13" d="M769.8,280.9c2.8-5.7-10.5-18.9-19.1-29.1c-14.3-17-26.7-33.4-31.7-32.2c-1.5,0.4-7.2,1.9-12.6,7.4
	c0,0,41.6,41.8,46.6,48c10.5,13,6.2,20.9,6.2,20.9S763.2,294.3,769.8,280.9z"/>
<path class="st5" d="M667.8,254.1l24.3,36.5c0,0-2.7,2.9-5,4.8c-2.4,1.9-25.8-37.6-25.8-37.6L667.8,254.1z"/>
<path class="st5" d="M679.7,247.2c0.6-0.4,26.8,36.4,26.8,36.4s-3.2,0.2-7.3,2.5c-0.5,0.3-25.7-35.3-25.7-35.3
	S677.5,248.7,679.7,247.2z"/>
<polygon class="st16" points="504.2,146.7 505.1,140.7 508.5,145.7 513,144.7 503.6,134 499.2,147.8 "/>
<line class="st25" x1="512" y1="144.5" x2="500.8" y2="130.4"/>
<line class="st25" x1="499.9" y1="147.4" x2="504.5" y2="130.5"/>
</svg>
