<svg id="Layer_1" data-name="Layer 1" xmlns="http://www.w3.org/2000/svg" viewBox="0 0 759.42 329.57"><defs><style>.cls-1{fill:#d4d0bf;}.cls-2{fill:#1197cc;}.cls-3{fill:#999484;}.cls-4{fill:#e2c51b;}.cls-5{fill:#dbf0f5;}.cls-6{fill:#e5e1cf;}.cls-7{fill:#1eabf1;}.cls-8{fill:#a9a493;}.cls-9{fill:#efede4;}.cls-10{fill:none;stroke:#b986bc;stroke-miterlimit:10;}.cls-11{fill:#f9c79e;}.cls-12{fill:#754532;}.cls-13{fill:#fbf7fa;}.cls-14{fill:#11607f;}.cls-15{fill:#c4a614;}.cls-16{fill:#0faa8c;}.cls-17{fill:#20ceac;}.cls-18{fill:#1a3f3d;}</style></defs><title>cosmonauts</title><path class="cls-1" d="M103.3,217.5s18.6,2.1,31.8,11.3,25.1,21.1,29.8,20.1,22.7-12.5,22.7-12.5a75.78,75.78,0,0,1,9.7-14.5c6.7-7.4,22.7-15.6,39.4-9.5,0,0,9.7-31.6,11-42.3s5.2-38.3,11.3-45.6,30.1-21.3,32.2-27.1-0.9-36.2,4.3-41.7,14.9-33.2,24.3-32.6,38.9,5.2,40.2,16.7-2.4,39.9-12.2,48.1-24,24.3-24,29.8,5.2,7.9,5.2,14-6.1,22.5-5.5,24,2.4,3,3.7,10.9,1.8,18,2.7,20.4,36.8,26.8,34.4,35-49.9-28-54.2-25.6-28.6,54.2-37.7,59-40.2,41.4-49.3,42.6-37.1,4.9-42.6,7.9-13.4,9.4-17.6,8.2-50.2-21.6-51.4-26.2-9-46.2-9-46.2Z" transform="translate(-20.86 -5.55)"/><path class="cls-2" d="M149.9,239.6s8.7,17-5,31.7c0,0,5.2,8.7,7.7,8.7,0,0,10.3-20,7.6-32.4C160.3,247.6,149.6,240.3,149.9,239.6Z" transform="translate(-20.86 -5.55)"/><path class="cls-2" d="M165.9,248.6s-6.4,19.6-.6,31.4l7.8-4.4s-6.6-7.1.5-30.8Z" transform="translate(-20.86 -5.55)"/><path class="cls-3" d="M188.8,234s-0.2,19.8,10.5,17.1l-6.5,14.4s-16.9-2.1-11.2-25.4A29.09,29.09,0,0,0,188.8,234Z" transform="translate(-20.86 -5.55)"/><path class="cls-4" d="M281.3,95.1s-17.9-20-21.3-22c-2.4-1.4-17-.4-18.7.7-2.7,1.8-54.3,86.6-46.1,95s23.9,25.1,34.6,27.6S281.3,95.1,281.3,95.1Z" transform="translate(-20.86 -5.55)"/><path class="cls-5" d="M357.2,44.1c3.7,0,21.2-7.6,21.4,11a74.14,74.14,0,0,1-8.4,34A67.45,67.45,0,0,1,352,111.8c-10.6,8.3-22.6.6-22.6,0.6L310.8,59.5Z" transform="translate(-20.86 -5.55)"/><path class="cls-6" d="M307.8,207c-3.9,7.6-11.8,20.4-21.6,35.1,0,0-8.5,19.8-16.5,28.4-10.4,11-31.7,27.6-49.4,34.9-14.3,5.9-21,8.7-24.5,8.7,0,0-7.3.5-10.6,4.6,0,0-11.9,12.9-28.6,7.6s-17.3-10.5-17.3-10.5-6.1-2-9-7.1c0,0-12.9-5-19.6-8.1-12.5-5.8-20.5-24.3-20.5-24.3l12.2-29.1c2.1-2.2,43.6,18.1,48.3,29a66.81,66.81,0,0,0,11.5,4.9s25.9-12.8,29.1-16.1,7.5-17,8.1-20.7,1.8-9.9,8.7-18.1c0,0,15.7-13.8,19-21a39.94,39.94,0,0,0,3.7-13.5c0.5-5.9,4.8-47.2,12.1-59.3s12.8-26.7,31.3-34.7c0,0,6.6-4.3,8.4-6.4s-5.4-36.9,5.7-60C298.6,9.5,327-1,352.9,11.8c13.7,6.7,22.1,18.9,24.7,33.4L310.5,60.9s22.6,46.5,36.2,54c8.5,4.7-14.8,6.1-14.8,6.1s3.3,22.9,1.5,32.2Z" transform="translate(-20.86 -5.55)"/><path class="cls-1" d="M327.2,137.3c0.4,5.6,9.8,20.8,6.7,26.9,0,0,7,2.2,3.9,19.2,0,0,7.1,3.8,9.7,8.2,0,0,18.4,12.2,21.1,18.9s14.3,13.8,15.7,13.8,13.2,0.6,14.6,3.3,20.1,16.9,14.5,20.5-33.2-1.1-43.2-5c-8.8-3.5-45.2-26-54.1-31.5Z" transform="translate(-20.86 -5.55)"/><path class="cls-2" d="M360.8,218s9.1-4.3,8.4-6.4c0,0,12.3,3.3,14.9,11.5,1,3.2-6.7,4.3-10.2,4.3S360.8,218,360.8,218Z" transform="translate(-20.86 -5.55)"/><path class="cls-7" d="M195.8,314.1s-15.9-4.5-24.1-37.8c0,0-6.8.7-9.5,4.8,0,0,.2,21.6,23,37.6-0.1,0,6.9.8,10.6-4.6" transform="translate(-20.86 -5.55)"/><path class="cls-7" d="M150.7,276.2s-17.4,11.6-20.3,32.4c0,0,1.7,4.3,9,7.1,0,0,7.1-23.7,20.2-35.5C159.6,280.3,155.4,276.2,150.7,276.2Z" transform="translate(-20.86 -5.55)"/><path class="cls-8" d="M197.9,249.7s62.8,15.7,86.3-3.4c0,0-1.9,9.7-14.5,24.3,0,0-56.2,3.7-77.6-6.6C192,264,194.9,258.2,197.9,249.7Z" transform="translate(-20.86 -5.55)"/><path class="cls-7" d="M281.2,92.5L308,111.7s19.7,10.8-25.6,119.3l-14-9.2s-31.2-4.9-27.8-78.8C242,109.2,281.2,92.5,281.2,92.5Z" transform="translate(-20.86 -5.55)"/><path class="cls-7" d="M231.3,186.6s39.1,27.8,71.6,29.6c0,0-4.7,13.7-13.5,21,0,0-51.1-23.6-62.4-32.1C227.1,205.3,229.6,195.4,231.3,186.6Z" transform="translate(-20.86 -5.55)"/><path class="cls-6" d="M266.2,218.1c3.2,0.8,2.1,5-.5,4.2C262.2,221.3,264.6,217.7,266.2,218.1Z" transform="translate(-20.86 -5.55)"/><path class="cls-6" d="M275.1,226.3c-3.8-1.1-1.2-4.9.5-4.5,3.4,0.9,2.3,5.3-.5,4.5" transform="translate(-20.86 -5.55)"/><path class="cls-6" d="M285.4,230.9c-4.9-1.4-1.5-6.4.6-5.8,4.5,1.1,3,6.9-.6,5.8" transform="translate(-20.86 -5.55)"/><path class="cls-9" d="M251.6,92.5c6.2,5.1,0,12.3-5,8.2S246.6,88.4,251.6,92.5Z" transform="translate(-20.86 -5.55)"/><path class="cls-9" d="M242,106.4c4.8,4.1,0,13.8-5.5,9.2S237.2,102.3,242,106.4Z" transform="translate(-20.86 -5.55)"/><path class="cls-7" d="M231.3,122.3s-20.9,32.1-20.2,33.3,3.1,3.2,3.9,2.4c2-2.1,21.6-32.2,21.2-33.1C235.6,124,232,121.2,231.3,122.3Z" transform="translate(-20.86 -5.55)"/><path class="cls-10" d="M306.2,159" transform="translate(-20.86 -5.55)"/><path class="cls-7" d="M290.9,228.4l3.9,3,27-44.6A43.4,43.4,0,0,0,333.3,174c6.5-10.6,1.6-47.3,1.6-47.3L324.2,120s-5.3,70.6-6.7,72Z" transform="translate(-20.86 -5.55)"/><path class="cls-11" d="M341.4,103.4S325.5,93,324.8,84.7c0,0,1.4-25.8,10.5-29.6s30.3-2.2,30.3-2.2,1.7,12.6-2.4,18.2-6.2,9.2-6.7,18.5a13.26,13.26,0,0,1-6.4,0c-0.1,0-.4,10-8.7,13.8" transform="translate(-20.86 -5.55)"/><path class="cls-2" d="M315,66.8l11.5,20.1s1.5-27.1,14.6-31l-23.3,5.6Z" transform="translate(-20.86 -5.55)"/><path class="cls-6" d="M328.1,121.5a81.64,81.64,0,0,1,4.6,24.6c0.3,7.5,1.5,16.1-1.4,24.7-1.8,5.3-8.2,12.8-15.3,15.8-10.4,4.2-6.8,20.2-6.8,20.2s-20.3-23-16.7-28c24.7-33.9,19.1-58.8,19.1-58.8Z" transform="translate(-20.86 -5.55)"/><path class="cls-3" d="M304.6,174A15.2,15.2,0,0,0,315,184.9a9.82,9.82,0,0,0,4.3-.1,47.88,47.88,0,0,1-14.2,26.8,50.76,50.76,0,0,1-8.9-11.8C292.1,192.4,304.6,174,304.6,174Z" transform="translate(-20.86 -5.55)"/><g id="eye"><path class="cls-12" d="M359.2,65.5a2.6,2.6,0,0,1-2.5,1.2c-1.8-.2-5.2-2.1-7-1.8s-7.9,1-7.9,1a24.28,24.28,0,0,1,6.9-2.6C351.5,62.9,358.3,64.6,359.2,65.5Z" transform="translate(-20.86 -5.55)"/><path class="cls-13" d="M352.4,71.7c1.1-.3-2.9,4.1-2.9,4.1a29.2,29.2,0,0,0-3.2-5.1S349.7,72.6,352.4,71.7Z" transform="translate(-20.86 -5.55)"/><path class="cls-14" d="M350.5,77.4l-1.4-1.7L347.7,74l-1.4-1.7c-0.5-.6-0.9-1.1-1.4-1.6l-1.9-2,2.1,1.7,0.8,0.1,0.7-.2c0.5,0.1.8,0.2,1.2,0.3,0.6,0.2,1.7.3,2.6,0.5,1.8,0.2,3.6.3,5.4,0.6l-2.7.3a12.19,12.19,0,0,1-2.7,0,15.29,15.29,0,0,1-2.9-.7c-0.5-.1-0.7.2-1.1,0.1a4.24,4.24,0,0,1-1.4-.6l0.6-.5c0.6,0.6,1.1.7,1.5,1.2a18.76,18.76,0,0,1,1.2,1.8A33.25,33.25,0,0,1,350.5,77.4Z" transform="translate(-20.86 -5.55)"/><path class="cls-14" d="M345.4,70.8a2.49,2.49,0,0,1-.3-0.7,7.58,7.58,0,0,1-.6-1.6,5.35,5.35,0,0,1,0-1.8,2.49,2.49,0,0,1,.3-0.7,2.44,2.44,0,0,0-.1.7,4.43,4.43,0,0,0,.3,1.5,4.13,4.13,0,0,0,.8,1.2,3.91,3.91,0,0,0,.5.4v1.1Z" transform="translate(-20.86 -5.55)"/><path class="cls-14" d="M345.6,71.2a0.31,0.31,0,0,1-.2-0.1,3.33,3.33,0,0,0-.6-0.3,3.71,3.71,0,0,1-1.4-1.6,3.42,3.42,0,0,1-.5-2.1c0.1-.3.1-0.6,0.3-0.6l0.1-.2a1.72,1.72,0,0,0-.2.9,2.84,2.84,0,0,0,.7,1.7,3.32,3.32,0,0,0,1.4,1,1.09,1.09,0,0,0,.5.1,0.35,0.35,0,0,1,.2.1Z" transform="translate(-20.86 -5.55)"/><path class="cls-14" d="M346.5,71.2h0a0.77,0.77,0,0,1-.2-0.3l-0.1-.1a2,2,0,0,1-.2-0.6,8.44,8.44,0,0,1-.2-1.9,5.79,5.79,0,0,1,.3-1.7,2.49,2.49,0,0,1,.3-0.7s-0.1.3-.2,0.7a4.82,4.82,0,0,0,0,1.7,2.57,2.57,0,0,0,.5,1.4,4.45,4.45,0,0,0,.5.8Z" transform="translate(-20.86 -5.55)"/><path class="cls-14" d="M352.8,71.8c2.1,0.9-.1,5.8-2.6,4.1C347.4,74.1,350.2,70.2,352.8,71.8Z" transform="translate(-20.86 -5.55)"/></g><path class="cls-2" d="M336.9,85.6a47.77,47.77,0,0,0,4.3,5.8c2.7,2.3,7.6,2.7,7.6,3.7,0,0.7.2,2.5-1.2,2.5,0,0,0,2.6-1.9,3a16.47,16.47,0,0,1-6.5-7C337,89.1,336.4,87.6,336.9,85.6Z" transform="translate(-20.86 -5.55)"/><path class="cls-3" d="M133.4,227.4s-22.9,26.3-28,26.3c0,0-9-12.3-17-11.4s-23.9,11.1-26.9,13.1c-3.5,2.4-10-1.4-11.8-3.7-2.4-3.2-7.8-10.8-7.2-11.8s42.7-50.7,55.7-44c3.7,1.9,9.5,9.9,12.1,13.3S134.1,226.7,133.4,227.4Z" transform="translate(-20.86 -5.55)"/><path class="cls-1" d="M39.4,233.2c-1.6-5,10.9-14.4,19.2-21.9,13.8-12.4,26.1-24.6,30-23a23,23,0,0,1,9.6,7.6s-39.4,29.8-44.3,34.4c-10.2,9.6-7.6,16.6-7.6,16.6S43.2,245.1,39.4,233.2Z" transform="translate(-20.86 -5.55)"/><path class="cls-2" d="M121.4,218.1L94.9,248.8a16.79,16.79,0,0,0-5.4-1.8c-2.8-.4,27.6-32,27.6-32Z" transform="translate(-20.86 -5.55)"/><path class="cls-15" d="M134.2,227.9c0.5,0.5-28.1,31.5-28.1,31.5a10.81,10.81,0,0,1-3.7-5c-0.3-1.2,26.8-30.7,26.8-30.7S132.3,226.1,134.2,227.9Z" transform="translate(-20.86 -5.55)"/><path class="cls-8" d="M119.8,253.8s-19.6,30.8-25.1,32.8c0,0-9.9-12-18.7-10.4s-25.7,14-28.8,16.4c-3.7,2.9-11.2-.8-13.3-3.3-2.9-3.3-9.4-11.4-8.8-12.6s43.6-59.3,58.5-52.8c4.2,1.9,11.2,10.3,14.4,13.8S120.6,252.9,119.8,253.8Z" transform="translate(-20.86 -5.55)"/><path class="cls-6" d="M21.1,269.6c-2.2-5.5,11.1-16.8,19.7-25.7,14.4-14.8,27.1-29.1,31.6-27.6A25.21,25.21,0,0,1,83.5,224S42,259.9,36.9,265.3c-10.6,11.3-7.2,19-7.2,19S26.3,282.4,21.1,269.6Z" transform="translate(-20.86 -5.55)"/><path class="cls-7" d="M108,245.3L83.5,277.6a18.5,18.5,0,0,0-5.5-1.5c-2.9-.2,25.7-33.7,25.7-33.7Z" transform="translate(-20.86 -5.55)"/><path class="cls-4" d="M120.8,253.9c0.5,0.4-25,34.1-25,34.1a10.9,10.9,0,0,1-4.2-4.6c-0.4-1.2,23.8-33.1,23.8-33.1S118.8,252.4,120.8,253.9Z" transform="translate(-20.86 -5.55)"/><path class="cls-7" d="M316.1,67.9s22,38.1,38.3,46.5c0,0,.1,5.7-8.2,7.9,0,0-27.4-27.7-34.1-52.3Z" transform="translate(-20.86 -5.55)"/><path class="cls-7" d="M315.8,64.5l-0.6-6.4s53.2-22.8,63.3-22.8c0,0,5.3,9.5,1.8,18.3,0,0-44.1.2-64.5,10.9" transform="translate(-20.86 -5.55)"/><path class="cls-3" d="M308.2,57.8s-12.5-30.3-11.9-39.7c0,0-7.7,6-6.8,8.2,0,0,11.6,27.2,16.8,34.5Z" transform="translate(-20.86 -5.55)"/><path class="cls-7" d="M314.3,54.2c13.2,7.2.9,28.3-9.4,19.2S307,50.2,314.3,54.2Z" transform="translate(-20.86 -5.55)"/><path class="cls-4" d="M312.1,61.2c4.5,2.7,1.8,10.6-3,6.7S309.7,59.7,312.1,61.2Z" transform="translate(-20.86 -5.55)"/><path class="cls-7" d="M281.2,92.5s35.1,28,56.5,36.2c0,0,3.4-5.1-.2-8.2,0,0-22.3-7-54.8-32.6C281.8,87.1,279.3,91.7,281.2,92.5Z" transform="translate(-20.86 -5.55)"/><g id="Layer_1-2" data-name="Layer 1"><path class="cls-1" d="M686.5,225.2s-18.9,1.7-32.5,10.6-26,20.8-30.7,19.6-22.6-13.2-22.6-13.2-1-8.9-6.5-15.2c-6.6-7.6-25.6-16.1-42.7-10.4,0,0-9.1-32.3-10-43.1s-4.3-39-10.2-46.5-30-22.3-32-28.3S501.1,62,496,56.4s-14.3-34-23.8-33.6S432.6,27,431.1,38.7s1.5,40.4,11.1,49,23.7,25.3,23.6,30.8-5.4,7.9-5.6,14,5.6,23,4.9,24.5-2.5,3-4,11-2.3,18.1-3.3,20.6-38,26.2-35.7,34.6,51.3-27.1,55.5-24.5,27.6,55.6,36.7,60.8,39.6,42.9,48.8,44.4,37.5,5.9,43,9.1,13.3,9.9,17.7,8.8,51.4-20.6,52.8-25.2S686.9,250,686.9,250Z" transform="translate(-20.86 -5.55)"/><path class="cls-16" d="M638.7,246.3s-9.2,17,4.2,32.2c0,0-5.5,8.7-8,8.6,0,0-9.9-20.5-6.9-33C628,254.2,639.1,247.1,638.7,246.3Z" transform="translate(-20.86 -5.55)"/><path class="cls-16" d="M622.3,255s6,20.1-.2,31.8l-7.8-4.7s6.9-7.1.3-31.2Z" transform="translate(-20.86 -5.55)"/><path class="cls-3" d="M599.4,239.7s-0.3,20.1-11.1,17l6.3,14.7s17.2-1.7,12-25.4A29.48,29.48,0,0,1,599.4,239.7Z" transform="translate(-20.86 -5.55)"/><path class="cls-4" d="M509.3,96.6s18.6-19.8,22.1-21.7c2.4-1.3,17.2,0,18.9,1.2,2.7,1.9,52.8,89.1,44.3,97.4s-24.8,24.8-35.8,27.1S509.3,96.6,509.3,96.6Z" transform="translate(-20.86 -5.55)"/><path class="cls-5" d="M433.7,43c-3.7-.1-21.3-8.3-22,10.6-0.4,11,2.1,22.9,7.7,34.7a67.62,67.62,0,0,0,17.9,23.5c10.5,8.6,22.9,1.2,22.9,1.2l20.2-53.2Z" transform="translate(-20.86 -5.55)"/><path class="cls-6" d="M629.8,334c-17.1,5-28.8-8.4-28.8-8.4-3.3-4.2-10.7-4.9-10.7-4.9-3.5-.1-13.6-1.2-28-7.6-17.7-7.8-47.8-37.8-47.8-37.8l-16.7-20.6c-7.6-5.3-25-42-25-42s-47.3,28-57.5,31.7-38.3,7.8-43.9,4,13.7-17.7,15.2-20.4,13.5-3.1,14.9-3,13.3-6.9,16.2-13.6,19.4-20.7,19.4-20.7c2.7-4.4,12.6-5.9,12.6-5.9-2.6-17.3,3.2-28.4,3.2-28.4-3.1-3.8-3.5-13.1-1.8-21.2,0.8-3.8,6.2-13.4,6.2-13.4s-23.5-2-14.8-6.6c13.9-7.3,38.1-53.8,38.1-53.8L413,43.8c3-14.6,11.8-26.7,25.9-33.2h0c26.6-12.3,55-1,65.1,21.5,10.6,23.7,2.5,58.8,4.3,60.9s8.4,6.7,8.4,6.7c18.5,8.6,23.7,23.5,30.8,35.9s10.4,54.2,10.7,60.2a37.93,37.93,0,0,0,3.4,13.7c3.2,7.3,15,10.2,19.5,14.3,13.2,12,7.6,25,8.1,28.7s3.9,15,7.1,18.4,29,17.1,29,17.1a66.37,66.37,0,0,0,11.7-4.7c10.7-18.1,61.3-36.7,63.3-34.4l11,32.7s-23.6,21.9-34.5,27.5c-6.7,3.4-20.1,7.7-20.1,7.7-3.1,5.2-9.3,7-9.3,7s-0.5,5.3-17.6,10.2h0Z" transform="translate(-20.86 -5.55)"/><path class="cls-16" d="M425.6,219.1s-9.1-4.5-8.4-6.7c0,0-12.5,3-15.3,11.3-1.1,3.2,6.7,4.6,10.2,4.7S425.6,219.1,425.6,219.1Z" transform="translate(-20.86 -5.55)"/><path class="cls-17" d="M590.4,320.7s16.2-4.2,25.4-37.7c0,0,6.9.9,9.5,5.1,0,0-.7,21.9-24.2,37.5-0.1,0-7.2.7-10.7-4.9" transform="translate(-20.86 -5.55)"/><path class="cls-17" d="M637,283.4s17.4,12.2,19.8,33.4c0,0-1.8,4.4-9.3,7,0,0-6.6-24.2-19.6-36.5C627.9,287.3,632.3,283.3,637,283.4Z" transform="translate(-20.86 -5.55)"/><path class="cls-3" d="M491.6,170s-18.8,9.6-32.9,5.2c0,0,5.7,23.3,12,33.2,0,0,16.8-4.6,22.8-10.9C499.3,191.3,491.6,170,491.6,170Z" transform="translate(-20.86 -5.55)"/><path class="cls-8" d="M589.9,255.4s-68.6,19.3-91.9-.7c0,0,7.9,15.7,18.7,20,0,0,56.8,5.2,78.8-4.7A111.15,111.15,0,0,1,589.9,255.4Z" transform="translate(-20.86 -5.55)"/><path class="cls-17" d="M509.5,94l-31.3,21.3s-19.6,38.7,26.6,119l14.4-8.9s31.7-4.1,30.2-79.1C548.7,111.9,509.5,94,509.5,94Z" transform="translate(-20.86 -5.55)"/><path class="cls-17" d="M558.5,199.3s-41.9,33.3-74.9,34.4c0,0,3.3,8.9,8.9,14.9,0,0,62.7-22.6,74.4-31C567,217.5,560,208.2,558.5,199.3Z" transform="translate(-20.86 -5.55)"/><path class="cls-6" d="M522.9,226.8c-3.2.8-2.3,5,.4,4.3C526.9,230.1,524.5,226.4,522.9,226.8Z" transform="translate(-20.86 -5.55)"/><path class="cls-6" d="M513.7,234.8c3.8-1,1.3-5-.4-4.6-3.4.9-2.4,5.3,0.4,4.6" transform="translate(-20.86 -5.55)"/><path class="cls-6" d="M503.1,239.2c5-1.3,1.7-6.5-.5-5.9-4.5,1.1-3.1,6.9.5,5.9" transform="translate(-20.86 -5.55)"/><path class="cls-6" d="M492.8,242c4.6-1.1,1.6-5.4-.5-5-4.1,1-2.9,5.8.5,5" transform="translate(-20.86 -5.55)"/><path class="cls-9" d="M539.5,94.7c-6.4,5-.3,12.5,4.9,8.5S544.6,90.7,539.5,94.7Z" transform="translate(-20.86 -5.55)"/><path class="cls-9" d="M548.8,109.1c-5,4-.4,14,5.3,9.4S553.8,105.1,548.8,109.1Z" transform="translate(-20.86 -5.55)"/><path class="cls-17" d="M559.3,125.5s20.4,33.1,19.7,34.2-3.3,3.1-4,2.3c-2-2.2-21.1-33.1-20.6-34.1S558.6,124.4,559.3,125.5Z" transform="translate(-20.86 -5.55)"/><path class="cls-10" d="M482.4,160.7" transform="translate(-20.86 -5.55)"/><path class="cls-17" d="M491.7,233.9l-7.1,1.9s-45.1-69.1-33.3-106.6l7.6-3.2s-11.7,25.9,11.5,67.8Z" transform="translate(-20.86 -5.55)"/><path class="cls-11" d="M446.6,109.8s17.8-17,18.9-25.7c0,0-.9-27.5-11.4-31.9s-33.5-3.4-33.5-3.4,0.3,12,4.9,18.1,0.9,21.8,3.1,23.6c1.3,1.1,3.6-1.2,7.4-2,0,0,2,2.2,2.3,8.2,0.2,3.2,3.9,11.7,7.3,9.9" transform="translate(-20.86 -5.55)"/><path class="cls-16" d="M475.8,67.1l-12.2,20s-0.9-27.5-14-31.8L473,61.6Z" transform="translate(-20.86 -5.55)"/><g id="eye-2" data-name="eye"><path class="cls-12" d="M428.8,64.1a2.85,2.85,0,0,0,2.1,1.6c1.8,0.2,5-2,6.2-1.9,1.5,0.1,10.1,1.6,10.1,1.6s-2.9-3.5-9.1-3.6C434.8,61.8,428.9,63.3,428.8,64.1Z" transform="translate(-20.86 -5.55)"/><path class="cls-13" d="M437,69.1c-1,0,2.2,4.3,2.2,4.3,1-2,4.3-4,4.3-4S439.2,69.1,437,69.1Z" transform="translate(-20.86 -5.55)"/><path class="cls-18" d="M437.6,75.6a19.83,19.83,0,0,1,1.1-2,11.51,11.51,0,0,1,1.4-1.7c0.5-.5,1.1-1,1.7-1.5a22,22,0,0,0,1.8-1.4l0.1,0.2c-1,0-1.9.1-2.9,0.1a24.58,24.58,0,0,1-2.8-.2,27,27,0,0,1-2.8-.4l-2.8-.6V68a28.1,28.1,0,0,1,2.9.1,26.35,26.35,0,0,1,2.8.2l2.8,0.3a26.6,26.6,0,0,0,2.8.3h0.4l-0.3.2a11.51,11.51,0,0,0-1.7,1.4,20,20,0,0,0-1.4,1.6c-0.5.5-1,1.1-1.5,1.6a7.66,7.66,0,0,1-1.6,1.9h0Z" transform="translate(-20.86 -5.55)"/><path class="cls-18" d="M435.1,69.4c-2.2,1.3,1.1,6.6,4,4C441.7,71.1,438.6,67.3,435.1,69.4Z" transform="translate(-20.86 -5.55)"/></g><path class="cls-16" d="M449.6,90.6a47.58,47.58,0,0,1-4.6,2.8c-2.1.9-5,.4-6.8,0.8-0.7.2-.9,3.6,0.5,3.7a1.62,1.62,0,0,0,1.4,2.2c2.2,0.1,6-2.9,7.1-5C449.6,90.6,449.4,91.5,449.6,90.6Z" transform="translate(-20.86 -5.55)"/><path class="cls-17" d="M474.7,68.1s-23.2,38-40,46.2c0,0-.3,5.8,8.1,8.2,0,0,28.4-27.4,35.9-52.1Z" transform="translate(-20.86 -5.55)"/><path class="cls-3" d="M496,18.2s7.7,6.2,6.7,8.5c0,0-12.5,27.3-17.9,34.6L483,58.2s13.4-30.4,13-40" transform="translate(-20.86 -5.55)"/><path class="cls-17" d="M475.1,64.8l0.8-6.5s-53.4-24.5-63.5-24.7c0,0-5.6,9.5-2.3,18.4,0,0,44.7,1.3,65,12.8" transform="translate(-20.86 -5.55)"/><path class="cls-17" d="M476.9,54.3c-13.6,6.9-1.7,28.6,9.1,19.7S484.4,50.5,476.9,54.3Z" transform="translate(-20.86 -5.55)"/><g id="caito_arm" data-name="caito arm"><path class="cls-9" d="M396.6,248s16.3,1.5,16.9.3c0,0,5.4-2.4,1.8-9.2-0.4-.8-14.2,1.9-21.4-1.6,0,0,5.7-2.3,6.8-4.9,0.7-1.6-.8-5.2-1.7-4.9s-12.3,1.8-15.8,0c-2.5-1.3-28.9-12.9-49.2-27.5-8.1-5.8-19.5-8.5-21.9-11.6-2.1-2.7-5.8-4.3-5.8-5.9s0.5-4.9-.3-8.1-2.1-7.9-2.1-7.9,1.2-16.7-2.4-21.7c0,0-1.2-26-6.4-32.1-2.9-3.4-7.2-12.6-21-9.4S254,118.7,254,124.2s2.4,42,13.1,49.3c0,0-4,20.1,10.6,31.3,0,0,11,16.7,25.3,20.7,0,0,16.4,10.2,25.3,13.9s13.7,3.8,18.3,5,14.9,8.2,14.9,8.2,17.5,14.7,30.9,10.3c0.5-.2-13.6-4-14-4.3-0.6-.6,12.3,3.3,15.4,3.6,3.7,0.3,13.6-1.9,12.3-4.4,0,0-11.9-1.1-15.5-3,0,0,10,2.1,12,2.5,5.3,0.8,10.2-1.9,11.5-7.6,0-.2-15-0.6-17.5-1.7" transform="translate(-20.86 -5.55)"/><path class="cls-4" d="M282.3,212.2s18.1-11.5,24.2-29c0,0,7.3,2.2,8,6.2,0,0-5.9,25.3-26,29.3C288.6,218.7,283.2,217.4,282.3,212.2Z" transform="translate(-20.86 -5.55)"/><path class="cls-7" d="M300.1,224.5s17-3.1,22.3-30.5c0,0-4.5-5.7-7.9-4.6,0,0-7.4,25-26,29.3A24.91,24.91,0,0,0,300.1,224.5Z" transform="translate(-20.86 -5.55)"/><path class="cls-7" d="M364.7,218s-3.3,19.4-17.3,26.6l13.4,9.2s15.7,2.4,21.8-27.8C382.6,225.9,371.6,218.9,364.7,218Z" transform="translate(-20.86 -5.55)"/><path class="cls-4" d="M276.1,125.2c15.3-4.1,20.9,20.2,6.2,24.8C263.9,155.7,260.8,129.3,276.1,125.2Z" transform="translate(-20.86 -5.55)"/><polygon class="cls-2" points="264.74 135.45 257.74 126.45 258.54 123.35 257.64 123.05 256.94 125.55 254.74 122.85 254.04 123.45 256.64 126.75 252.94 139.85 252.74 140.55 257.74 139.45 258.64 133.45 262.04 138.45 266.54 137.45 264.74 135.45"/></g><path class="cls-4" d="M478.9,61.5c-4.6,2.6-2.1,10.7,2.9,6.9S481.4,60,478.9,61.5Z" transform="translate(-20.86 -5.55)"/><path class="cls-9" d="M388.6,248.6s-16.5,1.1-17.1-.1c0,0-5.4-2.6-1.6-9.3,0.4-.8,14.3,2.3,21.8-1.1,0,0-5.7-2.5-6.8-5.1-0.7-1.7.9-5.2,1.8-4.9s12.4,2.1,16,.4c2.5-1.2,28.5-15.8,49.4-30.1,8.3-5.7,21.1-4.7,23.6-7.7,2.2-2.7,6-4.2,6-5.9a31.5,31.5,0,0,1,.5-8.2c0.9-3.2,2.4-8,2.4-8s-0.8-17,3-22c0,0,1.9-26.3,7.3-32.4,3.1-3.4,7.6-12.6,21.5-9s24.7,17.6,24.5,23.2-3.4,41.6-14.4,48.7c0,0-1.3,19.7-16.4,30.7,0,0-11.5,16.7-26.1,20.3,0,0-16.9,9.9-25.9,13.4s-14,3.5-18.6,4.6-15.3,7.9-15.3,7.9-18.1,14.4-31.5,9.6c-0.5-.2,13.9-3.7,14.3-4,0.6-.6-12.6,3.1-15.7,3.2-3.8.2-13.7-2.2-12.3-4.8,0,0,12.1-.9,15.7-2.6,0,0-10.2,1.9-12.3,2.2-5.4.7-10.3-2.2-11.4-8-0.1.1,15,.1,17.6-1" transform="translate(-20.86 -5.55)"/><path class="cls-4" d="M505.3,215.3s-18-12.1-23.7-30c0,0-7.4,2-8.3,6.1,0,0,5.3,25.8,25.6,30.3C498.8,221.7,504.3,220.5,505.3,215.3Z" transform="translate(-20.86 -5.55)"/><path class="cls-17" d="M489.8,227.7s-21.3-5.9-26-33.8c0,0,6-3.7,9.4-2.5,0,0,6.9,25.5,25.6,30.3C498.8,221.7,497.2,226.3,489.8,227.7Z" transform="translate(-20.86 -5.55)"/><path class="cls-17" d="M421.4,217.7s3.1,21.1,17.1,28.7l-13.8,8.9s-15.9,2.1-21.3-28.8C403.4,226.6,414.4,218.5,421.4,217.7Z" transform="translate(-20.86 -5.55)"/><path class="cls-17" d="M509.5,94s-36.2,27.5-58.2,35.2c0,0-3.3-5.3.4-8.3,0,0,22.7-6.5,56.4-31.7C509,88.5,511.4,93.2,509.5,94Z" transform="translate(-20.86 -5.55)"/><path class="cls-12" d="M440.7,89.2c-1-.2-4.3-0.6-4.3,1.1a5.52,5.52,0,0,0,.9,3.1s11.8-.1,14-5.5C451.3,87.8,444.7,89.9,440.7,89.2Z" transform="translate(-20.86 -5.55)"/><path class="cls-4" d="M516.9,125.1c17.8,1.3,14.8,29.2-2.5,28.6-21.7-.7-15.3-29.8,2.5-28.6" transform="translate(-20.86 -5.55)"/><path class="cls-3" d="M655.5,233s24.6,29.7,30.1,29.7c0,0,12.1-17,20.7-16s25.7,11.9,28.9,14.1c3.8,2.6,10.7-1.5,12.7-4,2.6-3.4,8.4-11.6,7.7-12.7s-45.9-54.5-59.9-47.3c-4,2.1-10.2,10.6-13,14.3S654.7,232.1,655.5,233Z" transform="translate(-20.86 -5.55)"/><path class="cls-1" d="M758.9,236.8c1.8-5.4-11.8-15.5-20.7-23.5-14.9-13.4-28-26.4-32.3-24.7a23.83,23.83,0,0,0-10.3,8.2s42.4,32,47.7,37c11,10.3,8.2,17.9,8.2,17.9S754.7,249.6,758.9,236.8Z" transform="translate(-20.86 -5.55)"/><path class="cls-15" d="M661.4,227.8l29.8,32.4a66.42,66.42,0,0,1-4.2,5.6c-2,2.3-31.9-32.3-31.6-32.9C656.2,231.5,661.4,227.8,661.4,227.8Z" transform="translate(-20.86 -5.55)"/><path class="cls-16" d="M672.4,219.5c0.5-.5,31.8,31.5,31.8,31.5a21.46,21.46,0,0,0-6.8,3.6c-0.5.4-31.1-30.6-31.1-30.6A55.87,55.87,0,0,0,672.4,219.5Z" transform="translate(-20.86 -5.55)"/><path class="cls-8" d="M672.6,257.7s19,36.1,25,37.1c0,0,13.5-13.7,22.8-11.3s26.4,17,29.6,19.9c3.8,3.4,12,.1,14.6-2.4,3.4-3.3,11-11.5,10.5-12.8s-42-67-58.5-61.3c-4.7,1.6-12.9,10.1-16.6,13.7S671.9,256.6,672.6,257.7Z" transform="translate(-20.86 -5.55)"/><path class="cls-6" d="M779.9,280.8c2.8-5.7-10.5-18.9-19.1-29.1-14.3-17-26.7-33.4-31.7-32.2a27.19,27.19,0,0,0-12.6,7.4s41.6,41.8,46.6,48c10.5,13,6.2,20.9,6.2,20.9S773.3,294.2,779.9,280.8Z" transform="translate(-20.86 -5.55)"/><path class="cls-4" d="M677.9,254l24.3,36.5a64.66,64.66,0,0,1-5,4.8c-2.4,1.9-25.8-37.6-25.8-37.6Z" transform="translate(-20.86 -5.55)"/><path class="cls-17" d="M689.8,247.1c0.6-.4,26.8,36.4,26.8,36.4a18.92,18.92,0,0,0-7.3,2.5c-0.5.3-25.7-35.3-25.7-35.3S687.6,248.6,689.8,247.1Z" transform="translate(-20.86 -5.55)"/><polygon class="cls-16" points="499.04 138.85 495.34 128.15 497.14 125.45 496.34 124.85 494.84 126.95 493.74 123.65 492.84 124.05 494.14 127.95 486.44 139.25 486.04 139.85 491.14 140.35 493.94 135.05 495.44 140.85 500.04 141.35 499.04 138.85"/></g><path class="cls-6" d="M257.7,214.4c3.1,0.8,2,5-.5,4.2-3.5-1-1.1-4.6.5-4.2" transform="translate(-20.86 -5.55)"/></svg>