<?xml version="1.0" encoding="utf-8"?>
<!-- Generator: Adobe Illustrator 19.2.1, SVG Export Plug-In . SVG Version: 6.00 Build 0)  -->
<svg version="1.1" id="sand" xmlns="http://www.w3.org/2000/svg" xmlns:xlink="http://www.w3.org/1999/xlink" x="0px" y="0px"
	 width="1788px" height="714.7px" viewBox="0 0 1788 714.7" style="enable-background:new 0 0 1788 714.7;" xml:space="preserve">
<style type="text/css">
	.st0{fill:#EFEDE4;}
	.st1{fill:#EFDFB1;}
	.st2{fill:#E5E1CF;stroke:#E5E1CF;stroke-miterlimit:10;}
	.st3{fill:none;stroke:#A9A493;stroke-width:10;stroke-linejoin:round;}
	.st4{fill:none;stroke:#A9A493;stroke-width:10;stroke-linecap:round;stroke-miterlimit:10;}
	.st5{fill:#EC612E;}
	.st6{fill:#1EABF0;}
	.st7{fill:#999484;stroke:#999484;stroke-miterlimit:10;}
	.st8{fill:#A9A493;stroke:#A9A493;stroke-miterlimit:10;}
	.st9{fill:#E2C51B;}
	.st10{fill:#B38557;}
	.st11{fill:#E5E1CF;stroke:#E5E1CF;stroke-width:1.04;stroke-miterlimit:10;}
	.st12{fill:#999484;}
	.st13{fill:none;}
	.st14{fill:#1EABF1;}
	.st15{fill:#20CEAC;}
	.st16{fill:#F9C79E;}
	.st17{fill:#F8F8F7;}
	.st18{fill:#754532;}
	.st19{fill:#11607F;}
	.st20{fill:#DCA568;}
	.st21{fill:none;stroke:#11607F;stroke-width:0.5;stroke-miterlimit:10;}
	.st22{fill:none;stroke:#DCA568;stroke-miterlimit:10;}
	.st23{fill:#12AA8C;stroke:#0FAA8C;stroke-miterlimit:10;}
	.st24{fill:#1B403E;}
	.st25{fill:none;stroke:#1A3F3D;stroke-width:0.75;stroke-miterlimit:10;}
	.st26{fill:#0FAA8C;}
</style>
<path class="st0" d="M990,398.1c0,0-53.9-0.5-55.4,11.2c-1.2,9.4,19.3,37.9,36.7,52.1C988.7,475.6,990,398.1,990,398.1"/>
<path class="st0" d="M809.2,465.3c14.4-1.9,64.1-40.7,56.9-64.7c-5.3-17.5-77.5-1.5-77.5-1.5l24.1,68.3"/>
<title>footer</title>
<path class="st1" d="M0,557.8c0,0,32.6,15.8,78.5,9c80.8-11.9,144.6-38.8,225.4-18.2c72.9,18.5,222.2-17.8,281.9-10.4
	c34.4,4.3,190.2,22.1,228.9,8.1c19-6.9,219.6-48,410.4-27.3c189.7,20.5,196.2-54.7,357,11.4c36.4,15,113.8,14,160.5,16
	s45.4,12.1,45.4,12.1v156.2H0V557.8z"/>
<path class="st2" d="M261.4,155.6c0,0,4.6-159.6,132.4-155c136.8,5,122.1,153,122.1,153s71.5,142,51.5,221.2
	c-8.7,34.6-355.6,44.5-365.1,5C184.5,305.5,261.4,155.6,261.4,155.6z"/>
<path class="st2" d="M279,394.5c0,0-12.6,46.4,0,54.3s229.1,12.9,233.7-4.5c4.6-17.4,0-66.7,0-66.7L279,394.5z"/>
<polyline class="st3" points="115.3,573.9 229.1,364.3 395.1,392.5 397.4,647.6 "/>
<polyline class="st3" points="636.8,570.9 552,353 395.1,392.5 "/>
<line class="st4" x1="164.5" y1="483.4" x2="283.3" y2="440.9"/>
<line class="st4" x1="602.7" y1="483.4" x2="505.6" y2="440.9"/>
<path class="st5" d="M389.9,139.4c14.3,0,14,19.2,0,18.3S378.1,139.4,389.9,139.4z"/>
<path class="st6" d="M432,152.7c-14-0.9-11.8-18.3,0-18.3C446.3,134.4,446,153.6,432,152.7"/>
<path class="st6" d="M346,152.7c-14-0.9-11.8-18.3,0-18.3C360.3,134.4,360,153.6,346,152.7"/>
<path class="st7" d="M340,370.2c-4.2-1.3-3-144.5-1.5-147.6s99.5-3.7,102-0.1c2,2.9,8.4,143.4,3.7,146.4
	C437.9,372.9,344.1,371.4,340,370.2z"/>
<path class="st5" d="M468,146.6c-14-0.9-11.8-18.3,0-18.3C482.3,128.3,482,147.5,468,146.6"/>
<path class="st5" d="M307.6,146.6c-14-0.9-11.8-18.3,0-18.3C321.9,128.3,321.6,147.5,307.6,146.6"/>
<path class="st8" d="M118.7,560.7c55.9-3.1,73.4,24.3,7.2,26.9S62.8,563.9,118.7,560.7z"/>
<path class="st8" d="M394.3,634.2c55.9-3.1,73.4,24.3,7.2,26.9S338.4,637.3,394.3,634.2z"/>
<path class="st8" d="M631,564.7c55.9-3.1,73.4,24.3,7.2,26.9S575.1,567.7,631,564.7z"/>
<path class="st9" d="M261.4,155.6c0,0,136,21,254.5-2l8,17c0,0-151.8,26.1-269.9,0L261.4,155.6z"/>
<path class="st9" d="M386.8,46.3c47.5,0,46.4,63.8,0,60.9S347.5,46.3,386.8,46.3z"/>
<path class="st2" d="M388.8,251.9c31.3,0,30.5,42,0,40.1S362.9,251.9,388.8,251.9z"/>
<polygon class="st10" points="1383.4,94.5 1405.8,2.5 1393.7,96.4 "/>
<polygon class="st10" points="1383.4,96.2 1375.1,2.5 1393.7,94.7 "/>
<polygon class="st10" points="1384.9,99.2 1329.2,36.2 1392.2,91.8 "/>
<polygon class="st10" points="1387.3,88.4 1441.6,36.2 1395.1,95.4 "/>
<polygon class="st10" points="1383.9,97.8 1346.2,10.3 1393.2,93.2 "/>
<polygon class="st10" points="1386.5,89.6 1431.7,10.3 1395.9,94.2 "/>
<polygon class="st11" points="1380.2,87.8 1143.3,588.9 1618.9,588.9 1394.3,87.9 "/>
<path class="st10" d="M1468.7,589.9c0,0-75.4-299.5-80.4-296.5c-9.9,6-85.3,295.9-85.3,295.9L1468.7,589.9z"/>
<path class="st9" d="M1384.9,194.5c39.5,0,38.1,55.2,2.3,55.2C1345.2,249.7,1353.8,194.5,1384.9,194.5z"/>
<path class="st12" d="M1297.3,581.4l0.7-3c0.4-2,1.1-4.8,2-8.5c1.7-7.3,4.2-17.7,7.3-30.2c1.6-6.2,3.2-13,5.1-20.1
	s3.8-14.7,5.8-22.4s4.1-15.8,6.4-23.9l6.7-24.7l6.9-24.6c2.2-8.1,4.6-16.1,6.8-23.8s4.4-15.2,6.5-22.2s4.1-13.7,6-19.9
	c3.7-12.3,6.9-22.5,9.2-29.7c1.1-3.6,2.1-6.4,2.7-8.3l1-2.9l-0.7,3c-0.4,2-1.1,4.8-2,8.5c-1.7,7.3-4.2,17.7-7.3,30.2
	c-1.6,6.2-3.2,13-5.1,20.1s-3.8,14.6-5.8,22.4s-4.1,15.8-6.4,23.9l-6.7,24.7l-6.9,24.6c-2.2,8.1-4.6,16.1-6.8,23.8
	c-2.2,7.7-4.4,15.2-6.5,22.2s-4.1,13.7-6,19.9c-3.7,12.3-6.9,22.5-9.2,29.7c-1.1,3.6-2.1,6.4-2.7,8.3L1297.3,581.4z"/>
<path class="st12" d="M1476,581.4l-0.9-2.9c-0.6-1.9-1.5-4.7-2.6-8.3c-2.2-7.2-5.4-17.4-9-29.7c-1.8-6.2-3.8-12.8-5.8-19.9
	s-4.2-14.5-6.4-22.2s-4.4-15.7-6.7-23.8l-6.7-24.6l-6.6-24.7c-2.2-8.1-4.2-16.2-6.2-23.9s-3.9-15.3-5.7-22.4s-3.4-13.9-5-20.1
	c-3-12.5-5.5-22.9-7.1-30.2c-0.8-3.6-1.5-6.5-1.9-8.5l-0.7-3l0.9,2.9c0.6,1.9,1.5,4.7,2.6,8.3c2.2,7.1,5.4,17.4,9,29.7
	c1.8,6.1,3.8,12.8,5.8,19.9s4.2,14.5,6.4,22.2s4.5,15.7,6.7,23.8l6.7,24.6l6.6,24.7c2.2,8.1,4.2,16.2,6.2,23.9s3.9,15.3,5.7,22.4
	s3.4,13.9,5,20.1c3,12.5,5.5,22.9,7.1,30.2c0.8,3.7,1.5,6.5,1.9,8.5L1476,581.4z"/>
<path class="st13" d="M1333,406.2"/>
<path class="st13" d="M1336.3,460.8"/>
<path class="st13" d="M1418.2,409"/>
<path class="st5" d="M1385.4,186c-9.3-0.6-7.8-12.2,0-12.2C1394.9,173.9,1394.7,186.6,1385.4,186"/>
<path class="st14" d="M1354.7,198.2c-9.3-0.6-7.8-12.2,0-12.2C1364.2,186.1,1364,198.8,1354.7,198.2"/>
<path class="st14" d="M1417.1,198.2c-9.3-0.6-7.8-12.2,0-12.2C1426.6,186.1,1426.4,198.8,1417.1,198.2"/>
<path class="st5" d="M1341.7,228.2c-9.3-0.6-7.8-12.2,0-12.2C1351.2,216,1351,228.8,1341.7,228.2"/>
<path class="st5" d="M1429.3,228.2c-9.3-0.6-7.8-12.2,0-12.2C1438.8,216,1438.6,228.8,1429.3,228.2"/>
<path class="st14" d="M1356.2,259.2c-9.3-0.6-7.8-12.2,0-12.2C1365.7,247,1365.5,259.7,1356.2,259.2"/>
<path class="st14" d="M1417.1,259.2c-9.3-0.6-7.8-12.2,0-12.2C1426.6,247,1426.4,259.7,1417.1,259.2"/>
<path class="st5" d="M1387.5,271.4c-9.3-0.6-7.8-12.2,0-12.2C1397,259.2,1396.8,271.9,1387.5,271.4"/>
<path class="st15" d="M1138,366.8c0,0,22.7,16.8,34.6,8.8s13.3-49.3,28-49.3c28.7,0,13.2,63.9-13.3,76.6
	c-29.3,13.9-38.7,6.7-38.7,6.7L1138,366.8z"/>
<path class="st15" d="M1126,609.6c0,0-10.8-186-11.2-289.8c-0.2-42.2-2.8-72.5,16.5-72.5c18.7,0,18.6,26.7,21.8,66.9
	c8.3,104,12.9,295.4,12.9,295.4H1126z"/>
<path class="st15" d="M1123.3,402.2c0,0-13.5,7.2-28.3,0c-17-8.2,0-53-25-55.6c-18-1.9-22.9,65.4,3.7,78
	c31,14.7,54.7,16.3,54.7,16.3L1123.3,402.2z"/>
<path class="st9" d="M1210,332.9c-5.6-3.2,3.6-22.2,10.5-17.2C1232,324.2,1215.5,336.1,1210,332.9z"/>
<path class="st9" d="M1061.8,361.8c-4.8,4.3-20.1-10.2-13.2-15.2C1060.1,338.2,1066.5,357.5,1061.8,361.8z"/>
<path class="st5" d="M702.5,357.7c-5.6-3.2,3.6-22.2,10.5-17.2C724.5,348.9,708,360.9,702.5,357.7z"/>
<path class="st5" d="M553.6,345.3c-4.3,4.8-21-8.2-14.6-13.9C549.6,321.9,557.9,340.6,553.6,345.3z"/>
<path class="st15" d="M650.6,607.6c0,0,0.6-186.3-4.6-290c-2.1-42.2-1.1-72.5-20.4-71.5c-18.7,1-17.1,27.7-18.2,68
	c-2.7,104.3,3.2,295.6,3.2,295.6L650.6,607.6z"/>
<path class="st15" d="M617.2,379.3c0-2.3-1.8-4.1-4.1-4.1c-0.7,0-1.4,0.2-2,0.5c-5.1,2.7-12.7,5.1-19.9,0.8
	c-12.4-7.3-16-48.5-30.6-47.7c-28.6,1.6-9.8,64.6,17.5,75.8c19.6,8.1,30.2,7.5,35.2,6.2c2.2-0.6,3.8-2.6,3.8-4.9L617.2,379.3z"/>
<path class="st15" d="M641.9,400.4c0,0,13.9,6.4,28.3-1.5c16.5-9.1-2.9-52.9,21.9-56.9c17.9-2.9,26.5,64,0.6,78
	c-30.2,16.3-53.7,19.3-53.7,19.3L641.9,400.4z"/>
<path class="st0" d="M989.4,397.6c0,0,99.3,62.4,93,72.3s-82.2,5.2-93.7-5.8L989.4,397.6z"/>
<path class="st16" d="M977.6,368.6c0.4-1.1,0.6-2.3,0.6-3.5c0-2.2-4.1-2.7-6.1-5.5c-1.3-1.9-2.4-3.9-3.3-6.1c0,0-2.4-1-2.9-2
	s-4.9-11.8-3.1-13.5s2.8,1,2.8,1s-1.4-19.2,15.9-18.6s20,19.2,20,22.2s-3.1,14.9-6.5,17.9s-4.2,3.8-4.2,3.8s-1.3,2.5,0.1,4.4
	C990.7,368.6,981.3,369.9,977.6,368.6z"/>
<path class="st16" d="M962.8,474.2c0,0-1.6,26.1,1.1,46.4c0.3,2.4-1.7,4.8,0,9.7c0.6,1.7,2.4,4,2.4,6.9s1.3,26.3,1.5,33.4
	s3.9,23.5,2.6,26.2s-20.6,19.3-19.4,22.2c0.8,2,18.3-9.2,24.9-8.9s0.8-10.8,1.3-14.7c0,0,5.4-30.9,4.1-42.6s-3.7-12-2.6-24.8
	s3.9-45.5,9-48.7c0,0,6.3,40.6,6.8,49.5s-2.4,19.8-0.6,28.8s8.3,34,8.7,37.3c0.6,6-5.8,11.2,0,13.9s4.7-1.3,12.3,3.1
	s10.4,6.6,12.7,5.8s-11.9-17-16.1-21.5s-4-30.3-4.2-41.6s-1.6-22.2-1.6-22.2c1-2.6,1.6-5.3,1.7-8.1c0-4.2,0.1-6.4,0.1-6.4
	s4.7-24.6-1.3-44.7L962.8,474.2z"/>
<path class="st16" d="M907.7,455.5c-2.4,1.8-5.1,3.2-8,3.9c-4.1,0.8-16.3,2.9-16.3,4.7s3.9,13.4,13.5,9.2s17-13.1,17-13.1
	L907.7,455.5z"/>
<path class="st14" d="M1006.2,473.4c-1.7-8.8-4.4-17.3-8.2-25.3c-6.1-12.6,1-30.8,1-30.8s3.3-3.5,3.3-11.6l21,14.1
	c0,0-8-31.4-12.7-36.5c-4.1-4.4-13.7-5.5-16.1-8.2s-3.3-8.2-3.3-8.2s-9.8,2.5-13.8,0.2c-1.5-0.9-1.1,2.9-2.3,4.9s-11.5,5.5-16.2,8
	c-6.7,3.5-8.8,28.1-17.4,42.3c-6.2,4.5-11.7,9.8-16.5,15.7c-7.1,9-11.3,14.8-18.1,16.5c-3.9,1,2.8,3.4,1.8,8
	c-0.2,1.2-3.3,5.5,4.1,2.4s23.7-21.6,32.7-29.2c14-11.8,14.3-28.2,18.3-31.1c0,0-1.6-3.9-1.4,5.3c0.1,4.9,3.3,7.3,3.7,13.6
	s0.8,23.5-1.6,31.4s-1.9,19.5-1.9,19.5c8.3,2.1,15.8,6.6,21.5,13l4.6,0.4c0,0,10.8-11.9,17.3-13.3"/>
<path class="st9" d="M978.9,321.9c0,0-6,7.9-9.9,8.8s-1.8,14.1-1.8,14.1s-2.3-8-3.8-7.2s-1-10.7,2.5-13.1s8.5-10.9,8.5-10.9
	S978.6,320.5,978.9,321.9z"/>
<path class="st9" d="M993,313.6c6.5,2.6,8,8.9,10.1,11.3s4.8,4.7,4.8,14.1s-6.5,14.3-9.3,14.5c0,0,5.2-13.6-3.6-18.9
	s-14.7-2.1-18.2-5.5s-2.4-6-2.9-6.6s-6-1-3.2-6.3C972.6,312.6,986.7,311.1,993,313.6z"/>
<path class="st14" d="M976.8,354.4c0,0,4.1-1.2,5.5-0.8c0.6,0.2,1.1,0.5,1.5,1c0.7-0.5,1.5-0.9,2.4-1c1.8,0.1,3.6,0.4,5.4,0.7
	c0,0-3.4,4.9-7.4,4.9C979.3,359.2,976.8,354.4,976.8,354.4z"/>
<path class="st17" d="M978,355.1c4.2,1.1,8.6,1,12.7-0.3C990.7,354.8,984.6,359.4,978,355.1z"/>
<path class="st18" d="M993.5,337.3c1.5,0.6,3,1.5,4.3,2.5c0,0-4-1.3-5.2-1.7s-3.7,0.1-4.9-0.1c-0.6,0-1.2-0.4-1.5-1
	C986.9,336.6,991.7,336.7,993.5,337.3z"/>
<path class="st18" d="M980.4,337.2c-0.3,0.6-0.9,1-1.5,1c-1.2,0.1-3.7-0.5-4.9-0.1s-5.2,1.6-5.2,1.6c1.3-1,2.8-1.8,4.3-2.4
	C974.9,336.7,979.7,336.7,980.4,337.2z"/>
<path class="st17" d="M987.7,341.9c0,0,3.5-4,7.2,0C994.9,341.9,991.9,344.6,987.7,341.9z"/>
<path class="st19" d="M991.3,340c2.3,0,2.4,2.9,0.4,2.9C988.8,342.9,988.9,340,991.3,340z"/>
<path class="st20" d="M982.5,341.7c0.2,0.7,0.5,1.3,0.6,2c0.2,0.7,0.3,1.4,0.4,2.1c0.1,0.8,0.1,1.7-0.1,2.5
	c-0.1,0.2-0.2,0.5-0.3,0.7c-0.1,0.2-0.3,0.4-0.5,0.5c-0.2,0.1-0.4,0.4-0.4,0.7c0.1,0.3,0.3,0.5,0.6,0.7c0.2,0.2,0.5,0.3,0.8,0.5
	c0.4,0.2,0.9,0.1,1.3-0.2c0.2-0.1,0.3-0.2,0.4-0.4c-0.1,0.2-0.2,0.3-0.3,0.5c-0.2,0.2-0.3,0.3-0.6,0.4c-0.3,0.1-0.6,0.2-0.9,0.1
	c-0.4-0.1-0.7-0.2-1-0.4c-0.4-0.2-0.7-0.6-0.9-1c-0.1-0.3-0.1-0.6,0.1-0.8c0.1-0.2,0.3-0.4,0.5-0.6c0.3-0.2,0.5-0.5,0.6-0.8
	c0.2-0.8,0.2-1.5,0.2-2.3c0-0.8-0.1-1.5-0.2-2.1C982.6,342.5,982.5,341.7,982.5,341.7z"/>
<path class="st19" d="M994.8,341.5c0.1,0,0.2,0,0.4-0.1c0.3-0.1,0.6-0.2,0.8-0.3c0.3-0.1,0.5-0.3,0.7-0.5c0.1-0.1,0.2-0.2,0.3-0.3
	c-0.2,0.4-0.5,0.8-0.8,1.1c-0.2,0.2-0.5,0.4-0.8,0.6c-0.1,0.1-0.3,0.1-0.4,0.2L994.8,341.5z"/>
<path class="st19" d="M994.1,340.8h0.3c0.2,0,0.4-0.1,0.7-0.1c0.2-0.1,0.4-0.2,0.6-0.3c0.1-0.1,0.2-0.1,0.2-0.2
	c0,0.1-0.1,0.2-0.2,0.3c-0.2,0.2-0.3,0.4-0.5,0.5c-0.3,0.2-0.6,0.3-1,0.4L994.1,340.8z"/>
<path class="st19" d="M993.4,340.3c0.3-0.1,0.5-0.2,0.7-0.4c0.2-0.2,0.5-0.3,0.7-0.5c-0.2,0.2-0.3,0.5-0.5,0.7
	c-0.2,0.2-0.4,0.4-0.7,0.6L993.4,340.3z"/>
<path class="st17" d="M979.8,342c0,0-3.5-4-7.2,0C972.6,342,975.5,344.7,979.8,342z"/>
<path class="st19" d="M976.2,340.1c-2.3,0-2,2.8,0,2.9C978.9,343.2,978.6,340.1,976.2,340.1z"/>
<path class="st19" d="M972.7,342.2c-0.2,0-0.3-0.1-0.4-0.2c-0.3-0.1-0.6-0.3-0.9-0.5c-0.3-0.2-0.5-0.4-0.7-0.7
	c-0.1-0.1-0.2-0.2-0.2-0.4c0.1,0.1,0.2,0.2,0.3,0.3c0.2,0.2,0.5,0.3,0.8,0.5c0.3,0.1,0.6,0.2,0.8,0.2c0.1,0,0.3,0,0.4,0L972.7,342.2
	z"/>
<path class="st19" d="M973.3,341.5h-0.1l-0.3-0.1c-0.2-0.1-0.5-0.2-0.7-0.4c-0.3-0.2-0.5-0.5-0.7-0.8c0.3,0.2,0.5,0.4,0.8,0.6
	c0.2,0.1,0.4,0.2,0.6,0.2h0.2L973.3,341.5z"/>
<path class="st19" d="M973.8,340.9c-0.1,0-0.2-0.1-0.3-0.1c-0.2-0.1-0.4-0.2-0.6-0.4c-0.2-0.2-0.4-0.5-0.5-0.8
	c0.2,0.3,0.4,0.5,0.7,0.6c0.2,0.1,0.4,0.2,0.5,0.2c0.1,0,0.2,0,0.2,0L973.8,340.9z"/>
<path class="st21" d="M987.7,341.9c0,0,3.4-4.9,7.5,0.2"/>
<path class="st21" d="M972.5,342.2c0,0,3.3-5,7.5,0"/>
<path class="st0" d="M787.3,396.6c0,0-108.1,65.4-103.9,76.9s117.1-1.3,128.6-6.8L787.3,396.6z"/>
<path class="st20" d="M794.2,394.3c2.5,0,1.8,2.7,0,2.9c-0.8,0.1-1.5-0.5-1.6-1.3c-0.1-0.8,0.5-1.5,1.3-1.6
	C793.9,394.3,794,394.3,794.2,394.3z"/>
<path class="st20" d="M820.3,396.6c-0.8,0.1-1.5-0.5-1.6-1.3c-0.1-0.8,0.5-1.5,1.3-1.6c0.1,0,0.2,0,0.3,0
	C822.8,393.8,822.1,396.5,820.3,396.6"/>
<path class="st22" d="M807,439.2c-0.5,0.1-1.1-0.2-1.2-0.7c-0.1-0.5,0.2-1.1,0.7-1.2c0.2,0,0.3,0,0.5,0
	C808.7,437.3,808.2,439.1,807,439.2"/>
<path class="st16" d="M893.8,471.4c0,0,5.2-1.1,5-2.9s-6.6-1-6.6-1s6.5-1.9,5.9-3.3s-6.7-1.1-6.7-1.1s7.2-1.2,6.7-3.8
	c-0.2-0.9-4.1-0.7-10.2-2s-13.3-4.5-21.9-14.3s-11.7-17.7-11.7-17.7c-1.7-3.4-6.8-21.2-7.6-33.8c-0.6-9.4-3-16.7-8-23.2
	c-4.6-6-19-9.7-22.2-14c-2.7-3.7-1.7-5.7-1.7-5.7c4.9-3.6,5.2-6,5.6-7.5c0.6-2.6,1-5.3,1-8c0,0,1.6,1.5,2.6,1.4s2.5-15.2,1.3-15.2
	s-1.3,2.9-1.3,2.9s-1.5-23.8-20.8-23.3S789,322.2,789,322.2s-2-1.7-3.7-1.2s1.2,14.1,1.9,15c0.4,0.5,2.3-0.2,2.3-0.2
	c0.7,1.5,1.2,3.1,1.6,4.7c0.9,4.2,7.2,8,7.2,8c0,1.7-0.4,3.4-1.1,5c-4.2,5.6-14.5-0.4-24.1,6.3s-21.9,59.5-21.9,59.5l21.5-13.8
	c0,0,3.1-6.7,3.9-9c1.9-4.9,4.8-12.5,4.8-12.5s0.3,8.6,0.7,13.7s3.8,31.9,3.8,35.6s-2,16.4-2,22.2s2.8,50.9,2.8,54s3,10.3,2.2,14.3
	s2.8,8.3,2.8,8.3c0.8,8.3,0.8,16.7,0,25c-1.4,13,0.1,41.9-0.5,45.3s-5.9,9.8-12.3,13c-8.1,4.1-8.9,10.8-7.7,11.5s6.1-1.2,13.9-6.3
	s14.9-4.9,16.7-7.8s-1-7.7-1.6-12s7.1-33,7.5-44.8s-1.4-18.6-1.8-26.4s4.8-49.2,4.8-49.2l6.8,4c-2.4,8.6,2.2,42.8,2.2,44.8
	s-0.1,8.4-0.1,8.4s-1.9,13.4-1.8,17.3c0.4,11.6,4.1,33.1,3.1,39.8c-0.3,1.9-1,11.7-1.8,14.2s2.7,5,7.3,6.2c12,3,21,15.3,21.2,12.2
	s0.3-8-3-11.1c-7.2-6.8-14.2-9.2-14.6-14.6c-0.2-2.8,1.5-18.2,1.7-27.3s0.4-36.5,0.4-36.5s2.2-2.2,2.9-7.7c0.5-3.2-0.1-6.5-1.6-9.4
	c2.9-6.9,4.3-14.4,4.2-21.9c-0.1-5.7-5.6-12.9-5.2-18.8c1.9-28.1-4.2-30.8-4.2-40.6c0-7.4,1.3-34,1.9-46.6
	c1,10.7,6.6,28.9,10.7,36.4c2,3.6,14.9,22.6,31.9,30.9c11.3,5.6,14.5,19.1,26.2,12.5C900.5,471.8,893.8,471.4,893.8,471.4z"/>
<path class="st18" d="M795.9,298.7c0,0-7.3,15.5-6.1,25.4l-3.4-3.9c0,0-0.5-11.1,2.4-15.2C790.8,302.4,793.2,300.3,795.9,298.7z"/>
<path class="st18" d="M791.7,298.7c1.2-6.2,8.3-7.4,20.4-4.2c5.8,1.5,8.3,9.6,11,18.4c0.9,2.6,2.7,4.7,5.1,6.1c0,0-3.3,4.7-6.6,3
	s-4.4-8.7-6.2-9.1c-6.2-1.5-5.1-7.4-7.9-8.1s-8.2,0.9-12.7-1.5C791.4,301.5,791.5,300.2,791.7,298.7z"/>
<path class="st23" d="M797.9,338.7c0,0,5.4-2,6.8-1.5s2.8,1,2.8,1c0.8-0.6,1.7-1.1,2.7-1.4c2,0,3.9,0.2,5.8,0.8c0,0-1,4.5-8.2,5
	C801,343,797.9,338.7,797.9,338.7z"/>
<path class="st17" d="M799.4,339.1c0,0,7.9,4.8,15.5-0.4C814.9,338.7,806.8,340.7,799.4,339.1z"/>
<path class="st18" d="M807.5,336.5c-1.5-0.6-3-0.9-4.6-0.9c-3,0.3-3.5,1.7-5.4,1.6c-1.7-0.2-3.4-0.6-5-1.2c0,0,2.8,4,7.5,4
	c5.7,0,7.7-2,7.7-2s0.9,1.5,5.5,1.4c5.3-0.1,6.5-4.4,6.5-4.4c-1.1,0.6-2.3,1.1-3.6,1.2c-1.5,0-2.8-1.3-4.6-1
	C810,335.6,808.7,336,807.5,336.5z"/>
<path class="st18" d="M815.9,318.5c1.4,0.5,2.6,1.2,3.6,2.3l-4.4-1.3c-1.2-0.4-3.7,0.7-4.9,0.7c-0.7,0-1.3-0.4-1.6-1
	C809.3,318.6,814,318,815.9,318.5z"/>
<path class="st18" d="M803,319.1c-0.3,0.6-0.9,1-1.6,1c-1.2,0-3.7-1-4.9-0.7l-4.4,1.3c1-1.1,2.2-1.9,3.6-2.3
	C797.6,318,802.3,318.6,803,319.1z"/>
<path class="st17" d="M817.4,323.2c0,0-2.9,2.7-7.2,0"/>
<path class="st17" d="M810.2,323.2c0,0,3.5-4,7.2,0"/>
<path class="st24" d="M813.8,321.3c2.3,0,2.4,2.9,0.4,2.9C811.3,324.2,811.4,321.3,813.8,321.3z"/>
<path class="st17" d="M802.3,323.3c0,0-3.5-4-7.2,0C795.1,323.3,798.1,326,802.3,323.3z"/>
<path class="st24" d="M798.7,321.4c-2.3,0-2,2.7,0,2.9C801.5,324.5,801.1,321.4,798.7,321.4z"/>
<path class="st25" d="M795,323.5c0,0,3.2-5,7.5,0"/>
<path class="st25" d="M810.2,323.4c0,0,3.2-5,7.5,0"/>
<path class="st20" d="M805.5,323.6c0.2,0.7,0.3,1.4,0.4,2.2c0.2,1.6,0.1,3.3-0.2,4.9c-0.1,0.4-0.2,0.8-0.2,1.2c0,0.4,0,0.7,0.1,1.1
	c0.1,0.3,0.3,0.7,0.5,1c0.2,0.3,0.4,0.5,0.7,0.7c0.4,0.2,0.9,0.3,1.4,0c0.2-0.1,0.4-0.2,0.5-0.2c-0.1,0.1-0.3,0.3-0.5,0.4
	c-0.2,0.1-0.4,0.2-0.7,0.3c-0.3,0.1-0.7,0-1-0.1c-0.4-0.2-0.7-0.4-0.9-0.7c-0.3-0.3-0.5-0.7-0.7-1.1c-0.2-0.4-0.2-0.9-0.2-1.4
	c0-0.4,0.1-0.9,0.2-1.3c0.3-1.5,0.5-3.1,0.5-4.7C805.5,324.5,805.5,323.6,805.5,323.6z"/>
<path class="st15" d="M784.1,455.6c0,0,25.8,8.8,47-2.4c0,0,6.5,31.1,7.9,37.1c0.8,3.5,0.5,5,0.8,8.4c0.3,2.9,1.8,8.1,0.8,8.9
	s-23.8,3.4-25.7,2.9S813,483.2,812,483s-0.3,28.5-2.2,28.8s-22.2,2.6-24.6-1.3s-1.5-18.4-1.5-22.8S781.2,459,784.1,455.6z"/>
<path class="st26" d="M1646.4,603.6c-10.9-2.7-46.8-42.4-22.3-51.3c24.6-9,36.9,35.5,32.1,48.1C1656.2,600.5,1648,604,1646.4,603.6z
	"/>
<path class="st26" d="M1691.8,504.8c0,0,24-41.1,3.6-41.1C1673.2,463.7,1691.8,504.8,1691.8,504.8z"/>
<path class="st26" d="M1669,555.2c0,0,16.5-78.7-14-70.3S1669,555.2,1669,555.2z"/>
<path class="st15" d="M1646.4,603.9c-5.2-19-11.5-72.5,18.4-60.2c28.9,11.8,1.4,47-11.3,61.2
	C1653.5,604.8,1646.7,605.1,1646.4,603.9z"/>
<path class="st15" d="M1667.2,548.2c0,0,2.7-24.9,11-37.5c4.7-7.2,14.6-15,23.5-7.1c8.4,7.4,4.2,19-0.8,25
	C1691.4,540.2,1667.2,548.2,1667.2,548.2z"/>
<path class="st15" d="M1698.6,528.7c0,0,12.2-19.3,22.4-24.7c5-2.7,13.6-2.4,15.9,5.5c2,6.9-4,11.8-7.8,14.7
	C1719.6,531.4,1698.6,528.7,1698.6,528.7z"/>
<path class="st26" d="M1629.4,560.1c0,0,13-60.2-22.5-50.7S1629.4,560.1,1629.4,560.1z"/>
<path class="st26" d="M1613.5,515.5c0,0,7.2-52.6-18.2-42.5C1569.1,483.5,1613.5,515.5,1613.5,515.5z"/>
<path class="st15" d="M1600.5,530.9c1.4-1,1.7-2.8,0.7-4.2c-0.3-0.4-0.7-0.7-1.1-1c-5.2-2.6-14.3-6.8-21.2-7.6
	c-7.1-0.9-14.9,1.4-12.9,12.8c1.3,7.3,11.4,8.7,16.7,8C1589.1,538.2,1596.2,533.9,1600.5,530.9z"/>
<path class="st5" d="M1706,465.8c-0.5-3.2,10.2-7.6,11.2-2.2C1718.4,470.4,1706.5,469,1706,465.8z"/>
<path class="st5" d="M1652.4,491.5c0.1-3-9.8-7.6-10.5-2.3C1640.5,498.6,1652.3,494.5,1652.4,491.5z"/>
<path class="st5" d="M1573.6,520.1c-2.4,1.3-12.6-1.6-8-7.6S1575.8,518.9,1573.6,520.1z"/>
<path class="st5" d="M1731.7,500.7c-2.3,0.1-7.7-7.9-1.7-9.3S1734.4,500.6,1731.7,500.7z"/>
<path class="st5" d="M1607.3,475c0,0,1.8-13.6,6.3-9.6S1609.8,478.3,1607.3,475z"/>
<path class="st26" d="M84.1,601.5c0,0,33.6-49.3,18.2-89.3c-8.8-22.8-7.3-34.7,1.9-47.2c0,0-1.2,19,2.1,25.4c0,0,6.7,15.7,12.6,27.3
	c15.1,29.7,3.5,77.3-12.4,82.3L84.1,601.5z"/>
<path class="st26" d="M104,471.5c0,0-0.3,1.3,2.6-2.3c0,0-1.1,6.6-3.5,8L104,471.5z"/>
<path class="st26" d="M104,479c0,0-0.3,1.3,2.6-2.3c0,0-1.1,6.6-3.5,8L104,479z"/>
<path class="st26" d="M105.6,488.5c0,0,0.2,1.3,1.5-3.1c0,0,1.5,6.5-0.2,8.8L105.6,488.5z"/>
<path class="st26" d="M109.4,498c0,0,0.3,1.3,1.2-3.3c0,0,2.2,6.3,0.7,8.7L109.4,498z"/>
<path class="st26" d="M113.9,508.6c0,0,0.5,1.4,0.9-3.9c0,0,3.3,6.4,2,9.5L113.9,508.6z"/>
<path class="st26" d="M118.9,518.2c0,0,0.3,1.4,1.3-3.6c0,0,2.3,7,0.7,9.6L118.9,518.2z"/>
<path class="st26" d="M122.5,528.7c0,0,0.1,1.5,1.8-3.3c0,0,1.3,7.2-0.6,9.7L122.5,528.7z"/>
<path class="st26" d="M124.9,538.6c0,0-0.3,1.5,2.6-2.8c0,0-0.6,7.3-3.1,9.2L124.9,538.6z"/>
<path class="st26" d="M125.5,548.2c0,0-0.2,1.7,3-3.5c0,0-0.1,8.3-3.1,10.8L125.5,548.2z"/>
<path class="st26" d="M124.9,560.5c0,0-0.4,1.7,3.3-3.2c0,0-0.9,8.3-4.2,10.4L124.9,560.5z"/>
<path class="st26" d="M99.4,474c0,0-0.2,1.3-1.4-3.1c0,0-1.6,6.5,0.1,8.8L99.4,474z"/>
<path class="st26" d="M97.2,482c0,0,0,1.3-2-2.9c0,0-0.5,6.6,1.5,8.6L97.2,482z"/>
<path class="st26" d="M97.7,493.7c0,0,0.5,1.5-3.6-2.6c0,0,1.8,7.7,5.1,9.3L97.7,493.7z"/>
<path class="st26" d="M100.3,505c0,0,0.9,1.2-4.1-1.4c0,0,3.9,6.6,7.5,7.1L100.3,505z"/>
<path class="st26" d="M103.8,514.2c0,0,0.8,1.4-4-1.9c0,0,3.2,7.2,6.8,8.1L103.8,514.2z"/>
<path class="st26" d="M106,524.6c0,0,0.5,1.5-3.6-2.6c0,0,1.8,7.7,5.1,9.3L106,524.6z"/>
<path class="st26" d="M106.8,534.7c0,0,0.3,2.1-3.7-4.2c0,0,0.4,10.5,4.1,13.2L106.8,534.7z"/>
<path class="st26" d="M106.3,546.9c0,0,0,1.6-2.4-3.7c0,0-1,7.8,1.7,10.5L106.3,546.9z"/>
<path class="st26" d="M104.2,557.9c0,0-0.3,2-2.6-5.1c0,0-2.4,9.3,0.5,13.2L104.2,557.9z"/>
<path class="st26" d="M107.5,588.6c0,0-31.3-21.8-51.7-70.4c0,0-9.4,73,52.5,86.8L107.5,588.6z"/>
<path class="st26" d="M58.2,524.2c0,0,0.2,1.2,1.2-2.7c0,0,1.4,5.8,0.1,7.7L58.2,524.2z"/>
<path class="st26" d="M62.5,533.4c0,0,0.4,1.2,0.9-3.1c-0.1-0.4,2.4,5.6,1.2,8.2L62.5,533.4z"/>
<path class="st26" d="M66.8,540.7c0,0,0.4,1.4,1.3-3.8c0,0,2.6,6.7,1,9.6L66.8,540.7z"/>
<path class="st26" d="M70.9,547.7c0,0,0.6,1.6,1.2-4.9c0,0,3.6,4.1,2.2,11.3L70.9,547.7z"/>
<path class="st26" d="M114.6,595.7c0,0,41.3-37.5,59.7-80.2c0,0-10.9,84.3-55,91.6L114.6,595.7z"/>
<path class="st26" d="M171.1,523c0,0-0.5,1.3-0.7-3.6c0,0-3.3,6.2-2.2,9L171.1,523z"/>
<path class="st26" d="M166.2,532.5c0,0-0.7,1.5-0.7-4.4c0,0-4.1,6.8-2.8,10.3L166.2,532.5z"/>
<path class="st26" d="M159.9,542.8c0,0-0.7,1.5-0.7-4.4c0,0-4.1,6.7-2.9,10.2L159.9,542.8z"/>
<path class="st26" d="M153.7,552c0,0-1,1.9-0.7-5.9c0,0-5.8,8.8-4.3,13.5L153.7,552z"/>
<path class="st15" d="M89.6,605c-1.8-0.7,47.2-38.4,44.5-81.2c-1.5-24.3,3.4-35.3,16-44.4c0,0-6.8,17.7-5.6,24.8
	c0,0,1.7,17,3.9,29.9c5.5,32.8-28.6,72-33,73.7C106.7,609.2,97.8,608.3,89.6,605z"/>
<path class="st15" d="M147.9,485.5c0,0-0.7,1.1,3.1-1.4c0,0-3,6-5.8,6.6L147.9,485.5z"/>
<path class="st15" d="M145.7,492.6c0,0-0.7,1.1,3.1-1.4c0,0-3,6-5.8,6.6L145.7,492.6z"/>
<path class="st15" d="M144.4,502.2c0,0-0.2,1.3,2.4-2.5c0,0-0.5,6.6-2.8,8.3L144.4,502.2z"/>
<path class="st15" d="M145.2,512.4c0,0-0.1,1.3,2.1-2.8c0,0,0.2,6.7-2,8.5L145.2,512.4z"/>
<path class="st15" d="M146.2,523.9c0,0,0.1,1.5,2-3.4c0,0,1.3,7.1-0.9,9.6L146.2,523.9z"/>
<path class="st15" d="M148.2,534.6c0,0-0.1,1.5,2.3-3c0,0,0.1,7.4-2.2,9.4L148.2,534.6z"/>
<path class="st15" d="M148.4,545.7c0,0-0.3,1.4,2.7-2.7c0,0-0.9,7.3-3.5,9L148.4,545.7z"/>
<path class="st15" d="M146.9,555.7c0,0-0.7,1.3,3.3-1.9c0,0-2.8,6.8-5.7,7.8L146.9,555.7z"/>
<path class="st15" d="M143.1,565.1c0,0-0.7,1.5,3.9-2.4c0,0-2.6,7.9-6.2,9.3L143.1,565.1z"/>
<path class="st15" d="M137.7,576.7c0,0-0.9,1.5,4.1-2c0,0-3.4,7.6-7.1,8.7L137.7,576.7z"/>
<path class="st15" d="M142.8,486.5c0,0-0.6,1.2-0.4-3.4c0,0-3.5,5.7-2.6,8.4L142.8,486.5z"/>
<path class="st15" d="M138.3,493.5c0,0-0.4,1.3-1-3.3c0,0-2.5,6.2-1.1,8.7L138.3,493.5z"/>
<path class="st15" d="M135.3,504.8c0,0,0.1,1.6-2.6-3.6c0,0-0.6,7.9,2.1,10.4L135.3,504.8z"/>
<path class="st15" d="M134.3,516.4c0,0,0.5,1.5-3.5-2.5c0,0,1.8,7.5,5,9L134.3,516.4z"/>
<path class="st15" d="M134.9,526.2c0,0,0.4,1.6-3.2-3c0,0,0.9,7.8,4.1,9.8L134.9,526.2z"/>
<path class="st15" d="M134,536.8c0,0,0.1,1.6-2.6-3.6c0,0-0.6,7.9,2.1,10.4L134,536.8z"/>
<path class="st15" d="M131.7,546.7c0,0-0.3,2.1-2.2-5.1c0,0-2.8,10.1-0.1,13.9L131.7,546.7z"/>
<path class="st15" d="M127.5,558.1c0,0-0.5,1.5-1.2-4.2c0,0-3.3,7.2-1.6,10.5L127.5,558.1z"/>
<path class="st15" d="M122.2,568c0,0-0.8,1.8-0.9-5.6c0,0-5.1,8.2-3.5,12.8L122.2,568z"/>
<path class="st15" d="M134.6,602.5c0,0-46.8-37-44.1-79.7c1.5-24.3-3.4-35.3-16-44.4c0,0,6.8,17.7,5.6,24.8c0,0-1.7,17-3.8,29.9
	c-5.5,32.8,18.1,72,34.8,72L134.6,602.5z"/>
<path class="st15" d="M76.6,484.5c0,0,0.7,1.1-3.2-1.4c0,0,3,6,5.8,6.6L76.6,484.5z"/>
<path class="st15" d="M78.9,491.6c0,0,0.7,1.1-3.2-1.4c0,0,3,6,5.8,6.6L78.9,491.6z"/>
<path class="st15" d="M80.2,501.1c0,0,0.2,1.3-2.4-2.5c0,0,0.5,6.6,2.8,8.3L80.2,501.1z"/>
<path class="st15" d="M79.4,511.4c0,0,0.1,1.3-2.1-2.8c0,0-0.2,6.7,2,8.5L79.4,511.4z"/>
<path class="st15" d="M78.3,522.8c0,0-0.1,1.5-2-3.4c0,0-1.3,7.1,0.9,9.6L78.3,522.8z"/>
<path class="st15" d="M76.4,533.5c0,0,0.1,1.5-2.3-3c0,0-0.1,7.4,2.2,9.4L76.4,533.5z"/>
<path class="st15" d="M76.1,544.7c0,0,0.3,1.4-2.7-2.7c0,0,0.9,7.3,3.5,9L76.1,544.7z"/>
<path class="st15" d="M76.8,554.7c0,0,0.7,1.3-3.3-1.9c0,0,2.8,6.8,5.7,7.8L76.8,554.7z"/>
<path class="st15" d="M79.1,564.1c0,0,0.7,1.5-3.9-2.4c0,0,2.6,7.9,6.2,9.3L79.1,564.1z"/>
<path class="st15" d="M83.4,575.7c0,0,0.8,1.5-4.1-2c0,0,3.4,7.6,7.1,8.7L83.4,575.7z"/>
<path class="st15" d="M81.8,485.5c0,0,0.6,1.2,0.4-3.4c0,0,3.5,5.7,2.6,8.4L81.8,485.5z"/>
<path class="st15" d="M86.2,492.4c0,0,0.4,1.3,1-3.3c0,0,2.5,6.2,1.1,8.7L86.2,492.4z"/>
<path class="st15" d="M89.3,503.7c0,0-0.1,1.6,2.6-3.6c0,0,0.6,7.9-2.1,10.4L89.3,503.7z"/>
<path class="st15" d="M90.3,515.3c0,0-0.5,1.5,3.5-2.5c0,0-1.8,7.5-5,9L90.3,515.3z"/>
<path class="st15" d="M89.6,525.1c0,0-0.4,1.6,3.2-3c0,0-0.9,7.8-4.1,9.8L89.6,525.1z"/>
<path class="st15" d="M90.6,535.7c0,0-0.1,1.6,2.6-3.6c0,0,0.6,7.9-2.1,10.4L90.6,535.7z"/>
<path class="st15" d="M92.9,545.7c0,0,0.3,2.1,2.2-5.1c0,0,2.8,10.1,0.1,13.9L92.9,545.7z"/>
<path class="st15" d="M97.1,557c0,0,0.5,1.5,1.2-4.2c0,0,3.3,7.2,1.6,10.5L97.1,557z"/>
<path class="st15" d="M102.4,566.9c0,0,0.8,1.8,0.9-5.6c0,0,5.1,8.2,3.5,12.8L102.4,566.9z"/>
<path class="st15" d="M114.6,594.4c0,0,53.3-14.2,69.7-26.8c0,0-23.5,41.1-69,40.1C115.3,607.7,114.8,605.7,114.6,594.4z"/>
<path class="st15" d="M178.6,571.7c0,0-1.3,1,1.3-3.9c0,0-6.8,4.3-7.2,7.6L178.6,571.7z"/>
<path class="st15" d="M170.1,575.9c0,0-1.4,1.2,1.3-4.8c0,0-7.6,5-7.8,9.2L170.1,575.9z"/>
<path class="st15" d="M159.8,580c0,0-1.5,1.1,1.7-4.6c0,0-7.9,4.5-8.6,8.6L159.8,580z"/>
<path class="st15" d="M149,584c0,0-2.2,1.2,3.1-6.3c0,0-11.4,4.7-13,10.5L149,584z"/>
<path class="st15" d="M114.8,596c0,0-52.2-13.3-68.2-25c0,0,18.9,36.9,63.1,36.8C109.7,607.7,114.7,606.5,114.8,596z"/>
<path class="st15" d="M52.2,574.7c0,0,1.2,0.9-1.3-3.6c0,0,6.7,4,7.1,7.1L52.2,574.7z"/>
<path class="st15" d="M60.5,578.7c0,0,1.4,1.1-1.3-4.4c0,0,7.4,4.7,7.7,8.6L60.5,578.7z"/>
<path class="st15" d="M70.5,582.5c0,0,1.5,1-1.6-4.3c0,0,7.8,4.2,8.4,8L70.5,582.5z"/>
<path class="st15" d="M81.1,586.2c0,0,2.1,1.1-3.1-5.9c0,0,11.1,4.4,12.7,9.8L81.1,586.2z"/>
<path class="st15" d="M106.7,482c0.9-2.6,1.1-5.4,0.7-8.1c1.2-2.8,1.5-5.9,0.7-8.8c0,0,1.9-1.4,0.7-7.5c0,0,2.4-3,1.1-9.4
	c0,0,2.6-2,1.2-7.6c0,0,3-2.1,1.1-8.1c0,0,3.1-2.8,1.5-8.2c0,0-3.2-8.5-6,0.3c0,0-2.2,2.8-0.7,5.8c0,0-3.4,4.6-1.1,7.3
	c0,0-3.7,7.5-1.4,10.7c0,0-3.3,4.5-0.8,8.5c0,0-2.8,5.4-0.6,8.5c0,0-3.8,8,0.2,10.8c0,0-3.2,3.3-0.9,7.1c-1.4,2.5-1.3,5.6,0.2,8.1
	c0,0-3.5,4.5,0,8.9c0,0-3.1,5.5,0.3,10.1c0,0-2.4,5.9,0.4,10c0,0-3,2.3,0.7,6.6c0,0-2.8,5.1,0.9,7.3c-1.4,3-1.1,6.6,0.8,9.3
	c0,0-1.8,6.6,1.1,8.4c0,0-1.9,4.2,1.1,7.5c-1.3,3.1-0.5,6.7,1.9,9.1c0,0-2,6,1.4,8.2c0,0-1.5,5.4,2.2,8.3c0,0-3.6,6.8,4.3,6.5
	c0,0,4.4-3.8,0.9-7.8c0,0,0.7-6-3.5-8.1c0,0,0.9-4.1-1.1-7c0,0,1.2-5.4-1.8-9.1c0.7-2.5,0.4-5.2-0.8-7.5c1-3.1,0.3-6.4-1.7-8.9
	c0.7-3,0.3-6.1-1-8.8c0,0,1.8-1.6-0.7-6.9c0,0,2.2-4.7-1-8c0,0,2.3-2.7,0.1-7.8c0,0,1.5-3.5-0.4-8.9c0,0,2.5-4.4,0.6-8.6"/>
<path class="st9" d="M117.2,382.7c0,0,4.9-11.7,1.3-11.7s-6.8,7.2-4.7,11.7c0,0-2.1-8.1-6.2-5.8s2.1,6.9,2.1,6.9s-7.9-3.6-8.7,0
	s5.4,3.4,5.4,3.4s-7.3-1.9-7.5,1.7s5.9,2.5,5.9,2.5s-6-0.2-6,2.5s4.7,3.1,4.7,3.1s-5.1-2.7-4.7,1.1s3.6,3,3.6,3s-5.1,0.4-5.1,2.8
	s4.9,2.1,4.9,2.1s-5.3,0-4.9,3.4c0,1.5,1.3,2.7,2.8,2.7c0.3,0,0.5,0,0.7-0.1c0,0-4-0.4-2.7,3.2s4.5,1.7,4.5,1.7s-3.5,0.4-1.8,4
	s5.4-2.1,5.4-2.1s-3.5,4,0,5.5s5.7-5.5,5.7-5.5s-3.5,6.6,0.6,5.7s3.2-5.7,3.2-5.7s-0.6,3.6,2.6,3s1.3-6,1.3-6s0.8,4.2,2.2,1.5
	s-2-6.4-2-6.4s2.6,4,3.8,0s-4.2-3.8-4.2-3.8s4.2,1.1,4.4-3s-5.5-3.4-5.5-3.4s5.3,0.3,5.5-2.9s-5.5-3.4-5.5-3.4s4.7,1.1,5.5-2.3
	s-5.5-2.3-5.5-2.3s6.5,1.5,5.6-2.1s-5.6-1.7-5.6-1.7s7.7-2,5.7-4.2C119.4,376.4,117.2,382.7,117.2,382.7z"/>
<path class="st15" d="M107.1,493.4c0,0,2.2-5.6-0.5-10"/>
</svg>
