<svg id="sand" xmlns="http://www.w3.org/2000/svg" viewBox="0 0 1788 714.74"><defs><style>.cls-1{fill:#efdfb1;}.cls-11,.cls-2{fill:#e5e1cf;stroke:#e5e1cf;}.cls-11,.cls-2,.cls-22,.cls-23,.cls-24,.cls-26,.cls-4,.cls-7,.cls-8{stroke-miterlimit:10;}.cls-13,.cls-22,.cls-23,.cls-26,.cls-3,.cls-4{fill:none;}.cls-3,.cls-4,.cls-8{stroke:#a9a493;}.cls-3{stroke-linejoin:round;}.cls-3,.cls-4{stroke-width:10px;}.cls-4{stroke-linecap:round;}.cls-5{fill:#ec612e;}.cls-6{fill:#1eabf0;}.cls-12,.cls-7{fill:#999484;}.cls-7{stroke:#999484;}.cls-8{fill:#a9a493;}.cls-9{fill:#e2c51b;}.cls-10{fill:#b38557;}.cls-11{stroke-width:1.04px;}.cls-14{fill:#1eabf1;}.cls-15{fill:#20ceac;}.cls-16{fill:#efede4;}.cls-17{fill:#f9c79e;}.cls-18{fill:#f8f8f7;}.cls-19{fill:#754532;}.cls-20{fill:#11607f;}.cls-21{fill:#dca568;}.cls-22{stroke:#11607f;stroke-width:0.5px;}.cls-23{stroke:#dca568;}.cls-24{fill:#12aa8c;stroke:#0faa8c;}.cls-25{fill:#1b403e;}.cls-26{stroke:#1a3f3d;stroke-width:0.75px;}.cls-27{fill:#0faa8c;}</style></defs><title>footer</title><path class="cls-1" d="M0,570.07s32.6,15.83,78.54,9c80.81-11.94,144.65-38.79,225.37-18.23,72.85,18.55,222.24-17.83,281.9-10.36,34.43,4.31,190.2,22.08,228.92,8.08,19-6.88,219.63-48,410.4-27.35,189.7,20.51,196.25-54.7,357,11.4,36.43,15,113.83,14,160.49,16S1788,570.76,1788,570.76V727H0V570.07Z" transform="translate(0 -12.26)"/><path class="cls-2" d="M261.38,167.87S266,8.22,393.82,12.86c136.78,5,122.11,153,122.11,153s71.53,142,51.52,221.21c-8.74,34.6-355.59,44.53-365.07,5C184.52,317.77,261.38,167.87,261.38,167.87Z" transform="translate(0 -12.26)"/><path class="cls-2" d="M279.05,406.81s-12.65,46.42,0,54.3,229.15,12.92,233.7-4.48,0-66.71,0-66.71Z" transform="translate(0 -12.26)"/><polyline class="cls-3" points="115.35 573.94 229.14 364.26 395.07 392.46 397.39 647.61"/><polyline class="cls-3" points="636.79 570.87 551.97 353.02 395.07 392.46"/><line class="cls-4" x1="164.48" y1="483.41" x2="283.29" y2="440.89"/><line class="cls-4" x1="602.73" y1="483.41" x2="505.58" y2="440.89"/><path class="cls-5" d="M389.92,151.66c14.29,0,14,19.21,0,18.34S378.11,151.66,389.92,151.66Z" transform="translate(0 -12.26)"/><path class="cls-6" d="M432,165c-14-.87-11.8-18.34,0-18.34,14.29,0,14,19.21,0,18.34" transform="translate(0 -12.26)"/><path class="cls-6" d="M346,165c-14-.87-11.8-18.34,0-18.34,14.29,0,14,19.21,0,18.34" transform="translate(0 -12.26)"/><path class="cls-7" d="M340,382.44c-4.2-1.26-3-144.52-1.54-147.58s99.46-3.69,102-.12c2.05,2.88,8.39,143.37,3.68,146.42C437.92,385.18,344.12,383.68,340,382.44Z" transform="translate(0 -12.26)"/><path class="cls-5" d="M468,158.86c-14-.87-11.8-18.34,0-18.34,14.29,0,14,19.21,0,18.34" transform="translate(0 -12.26)"/><path class="cls-5" d="M307.57,158.86c-14-.87-11.8-18.34,0-18.34,14.29,0,14,19.21,0,18.34" transform="translate(0 -12.26)"/><path class="cls-8" d="M118.74,573c55.91-3.11,73.4,24.34,7.16,26.94S62.83,576.15,118.74,573Z" transform="translate(0 -12.26)"/><path class="cls-8" d="M394.29,646.43c55.91-3.11,73.4,24.34,7.16,26.94S338.38,649.55,394.29,646.43Z" transform="translate(0 -12.26)"/><path class="cls-8" d="M631,576.93c55.91-3.11,73.4,24.34,7.16,26.94S575.07,580,631,576.93Z" transform="translate(0 -12.26)"/><path class="cls-9" d="M261.38,167.87s136,21,254.55-2l8,17s-151.83,26.12-269.89,0Z" transform="translate(0 -12.26)"/><path class="cls-9" d="M386.76,58.61c47.49,0,46.35,63.82,0,60.94S347.53,58.61,386.76,58.61Z" transform="translate(0 -12.26)"/><path class="cls-2" d="M388.77,264.18c31.27,0,30.52,42,0,40.12S362.94,264.18,388.77,264.18Z" transform="translate(0 -12.26)"/><polygon class="cls-10" points="1383.42 94.53 1405.77 2.5 1393.67 96.43 1383.42 94.53"/><polygon class="cls-10" points="1383.38 96.22 1375.09 2.5 1393.7 94.73 1383.38 96.22"/><polygon class="cls-10" points="1384.86 99.17 1329.15 36.21 1392.22 91.79 1384.86 99.17"/><polygon class="cls-10" points="1387.33 88.43 1441.56 36.21 1395.06 95.42 1387.33 88.43"/><polygon class="cls-10" points="1383.88 97.8 1346.2 10.28 1393.21 93.16 1383.88 97.8"/><polygon class="cls-10" points="1386.53 89.61 1431.69 10.28 1395.86 94.25 1386.53 89.61"/><polygon class="cls-11" points="1380.21 87.75 1143.26 588.86 1618.89 588.86 1394.32 87.86 1380.21 87.75"/><path class="cls-10" d="M1468.71,602.15s-75.45-299.51-80.45-296.45c-9.87,6-85.34,295.87-85.34,295.87Z" transform="translate(0 -12.26)"/><path class="cls-9" d="M1384.92,206.74c39.48,0,38.09,55.25,2.3,55.25C1345.17,262,1353.78,206.74,1384.92,206.74Z" transform="translate(0 -12.26)"/><path class="cls-12" d="M1297.26,593.67l0.68-3c0.45-2,1.08-4.84,2-8.48,1.72-7.3,4.2-17.72,7.33-30.19,1.55-6.23,3.24-13,5.09-20.11s3.75-14.65,5.83-22.41,4.14-15.79,6.37-23.92l6.72-24.66,6.89-24.61c2.25-8.13,4.6-16.08,6.8-23.81s4.41-15.16,6.5-22.22,4.09-13.73,6-19.87c3.72-12.3,6.93-22.52,9.21-29.67,1.12-3.58,2.06-6.37,2.68-8.28l1-2.93-0.68,3c-0.45,2-1.08,4.84-2,8.49-1.71,7.3-4.2,17.72-7.32,30.19-1.55,6.24-3.24,13-5.09,20.11s-3.75,14.65-5.83,22.41-4.13,15.8-6.38,23.92l-6.72,24.66-6.89,24.61c-2.25,8.12-4.6,16.08-6.81,23.8s-4.42,15.16-6.5,22.22-4.09,13.73-6,19.87c-3.72,12.3-6.93,22.52-9.2,29.67-1.12,3.58-2.06,6.37-2.68,8.28Z" transform="translate(0 -12.26)"/><path class="cls-12" d="M1476,593.67l-0.94-2.93c-0.6-1.91-1.52-4.71-2.62-8.29-2.23-7.15-5.38-17.37-9-29.67-1.83-6.15-3.81-12.81-5.83-19.88s-4.21-14.5-6.36-22.22-4.45-15.68-6.66-23.81l-6.74-24.61-6.56-24.66c-2.19-8.13-4.2-16.16-6.23-23.92s-3.9-15.28-5.68-22.41-3.45-13.88-5-20.11c-3-12.46-5.46-22.88-7.13-30.18-0.85-3.65-1.46-6.53-1.9-8.48l-0.66-3,0.94,2.93c0.6,1.91,1.53,4.71,2.63,8.29,2.23,7.15,5.38,17.37,9,29.67,1.83,6.15,3.81,12.81,5.83,19.88s4.21,14.5,6.36,22.23,4.46,15.68,6.65,23.81l6.73,24.62,6.56,24.66c2.18,8.13,4.2,16.17,6.22,23.92s3.89,15.28,5.68,22.41,3.45,13.88,5,20.11c3,12.46,5.47,22.88,7.14,30.18,0.85,3.65,1.46,6.53,1.9,8.48Z" transform="translate(0 -12.26)"/><path class="cls-13" d="M1333,418.49" transform="translate(0 -12.26)"/><path class="cls-13" d="M1336.26,473.09" transform="translate(0 -12.26)"/><path class="cls-13" d="M1418.23,421.25" transform="translate(0 -12.26)"/><path class="cls-5" d="M1385.44,198.3c-9.27-.58-7.83-12.18,0-12.18,9.49,0,9.26,12.76,0,12.18" transform="translate(0 -12.26)"/><path class="cls-14" d="M1354.71,210.5c-9.27-.58-7.83-12.18,0-12.18,9.49,0,9.26,12.76,0,12.18" transform="translate(0 -12.26)"/><path class="cls-14" d="M1417.11,210.5c-9.27-.58-7.83-12.18,0-12.18,9.49,0,9.26,12.76,0,12.18" transform="translate(0 -12.26)"/><path class="cls-5" d="M1341.72,240.44c-9.27-.58-7.83-12.18,0-12.18,9.49,0,9.26,12.76,0,12.18" transform="translate(0 -12.26)"/><path class="cls-5" d="M1429.3,240.44c-9.27-.58-7.83-12.18,0-12.18,9.49,0,9.26,12.76,0,12.18" transform="translate(0 -12.26)"/><path class="cls-14" d="M1356.23,271.42c-9.27-.58-7.83-12.18,0-12.18,9.49,0,9.26,12.76,0,12.18" transform="translate(0 -12.26)"/><path class="cls-14" d="M1417.11,271.42c-9.27-.58-7.83-12.18,0-12.18,9.49,0,9.26,12.76,0,12.18" transform="translate(0 -12.26)"/><path class="cls-5" d="M1387.53,283.62c-9.27-.58-7.83-12.18,0-12.18,9.49,0,9.26,12.76,0,12.18" transform="translate(0 -12.26)"/><path class="cls-15" d="M1138,379.06s22.67,16.79,34.63,8.79,13.33-49.27,28-49.27c28.66,0,13.24,63.94-13.33,76.6-29.26,13.94-38.67,6.67-38.67,6.67Z" transform="translate(0 -12.26)"/><path class="cls-15" d="M1126,621.85s-10.77-186-11.18-289.83c-0.16-42.24-2.82-72.51,16.49-72.51,18.68,0,18.62,26.71,21.84,66.92,8.33,104,12.93,295.42,12.93,295.42H1126Z" transform="translate(0 -12.26)"/><path class="cls-15" d="M1123.33,414.51s-13.54,7.17-28.33,0c-17-8.23,0-53-25-55.62-18-1.87-22.95,65.36,3.67,78,31,14.67,54.67,16.33,54.67,16.33Z" transform="translate(0 -12.26)"/><path class="cls-9" d="M1210,345.2c-5.56-3.23,3.63-22.22,10.5-17.19C1232,336.43,1215.5,348.39,1210,345.2Z" transform="translate(0 -12.26)"/><path class="cls-9" d="M1061.79,374.05c-4.76,4.32-20.07-10.2-13.19-15.22C1060.1,350.43,1066.5,369.78,1061.79,374.05Z" transform="translate(0 -12.26)"/><path class="cls-5" d="M702.5,370c-5.56-3.23,3.63-22.22,10.5-17.19C724.5,361.21,708,373.17,702.5,370Z" transform="translate(0 -12.26)"/><path class="cls-5" d="M553.61,357.56c-4.32,4.77-21-8.2-14.61-13.87C549.63,334.21,557.88,352.85,553.61,357.56Z" transform="translate(0 -12.26)"/><path class="cls-15" d="M650.56,619.87s0.63-186.31-4.61-290c-2.13-42.19-1.12-72.55-20.41-71.5-18.65,1-17.14,27.69-18.17,68C604.71,430.71,610.53,622,610.53,622Z" transform="translate(0 -12.26)"/><path class="cls-15" d="M617.16,391.57a4.11,4.11,0,0,0-6.05-3.65c-5.1,2.73-12.69,5.09-19.88.84-12.38-7.34-16-48.47-30.64-47.67-28.62,1.56-9.75,64.56,17.48,75.76,19.59,8.06,30.22,7.53,35.24,6.19a5,5,0,0,0,3.75-4.86Z" transform="translate(0 -12.26)"/><path class="cls-15" d="M641.94,412.69s13.91,6.42,28.29-1.54c16.53-9.15-2.88-52.94,21.94-56.9,17.87-2.85,26.47,64,.58,78-30.16,16.33-53.7,19.28-53.7,19.28Z" transform="translate(0 -12.26)"/><path class="cls-16" d="M989.41,409.84s99.26,62.41,93,72.29-82.2,5.17-93.7-5.82Z" transform="translate(0 -12.26)"/><path class="cls-17" d="M977.59,380.82a9.42,9.42,0,0,0,.58-3.49c0-2.16-4.12-2.72-6.08-5.47a35,35,0,0,1-3.34-6.08s-2.36-1-2.94-2-4.91-11.78-3.14-13.54,2.75,1,2.75,1S964,332,981.32,332.62s20,19.23,20,22.18-3.14,14.92-6.48,17.86-4.21,3.76-4.21,3.76-1.29,2.45.09,4.41C990.74,380.82,981.32,382.2,977.59,380.82Z" transform="translate(0 -12.26)"/><path class="cls-17" d="M962.75,486.51s-1.62,26.13,1.1,46.42c0.32,2.4-1.73,4.83,0,9.68,0.59,1.67,2.4,4,2.4,6.9s1.26,26.33,1.53,33.4,3.93,23.55,2.62,26.17S949.83,628.35,951,631.33c0.8,2,18.32-9.16,24.86-8.9s0.78-10.75,1.31-14.65c0,0,5.37-30.86,4.06-42.63s-3.68-12-2.63-24.83,3.88-45.55,9-48.73c0,0,6.28,40.56,6.8,49.46s-2.44,19.85-.61,28.75,8.34,34,8.69,37.35c0.62,6-5.76,11.25,0,13.87s4.71-1.31,12.3,3.14,10.36,6.62,12.72,5.83-11.87-17-16.06-21.47-3.95-30.31-4.21-41.56-1.57-22.18-1.57-22.18a22.88,22.88,0,0,0,1.69-8.06c0-4.19.14-6.39,0.14-6.39s4.71-24.6-1.31-44.68Z" transform="translate(0 -12.26)"/><path class="cls-17" d="M907.72,467.77a21.73,21.73,0,0,1-8,3.93c-4.12.79-16.29,2.94-16.29,4.71s3.93,13.35,13.54,9.22S914,472.48,914,472.48Z" transform="translate(0 -12.26)"/><path class="cls-14" d="M1006.24,485.63A106.18,106.18,0,0,0,998,460.31c-6.08-12.56,1-30.81,1-30.81s3.34-3.53,3.34-11.58l21,14.08s-8-31.35-12.73-36.46c-4.06-4.4-13.74-5.5-16.09-8.24s-3.34-8.24-3.34-8.24-9.81,2.55-13.78.18c-1.53-.91-1.1,2.94-2.28,4.91s-11.53,5.53-16.2,8c-6.67,3.53-8.77,28.13-17.4,42.26A89.7,89.7,0,0,0,925,450.11c-7.07,9-11.31,14.8-18.06,16.49-3.93,1,2.75,3.37,1.77,8-0.24,1.17-3.34,5.5,4.12,2.36s23.7-21.6,32.72-29.18c14-11.78,14.29-28.2,18.31-31.08,0,0-1.6-3.89-1.38,5.27,0.12,4.92,3.34,7.29,3.73,13.57s0.79,23.55-1.57,31.4-1.89,19.53-1.89,19.53a43,43,0,0,1,21.54,13l4.64,0.41s10.83-11.93,17.31-13.3" transform="translate(0 -12.26)"/><path class="cls-9" d="M978.9,334.12s-6,7.86-9.94,8.78S967.12,357,967.12,357s-2.34-8-3.85-7.19-1-10.74,2.54-13.09,8.5-10.86,8.5-10.86S978.64,332.81,978.9,334.12Z" transform="translate(0 -12.26)"/><path class="cls-9" d="M993,325.88c6.51,2.64,8,8.9,10.12,11.26s4.84,4.71,4.84,14.13-6.45,14.28-9.31,14.53c0,0,5.25-13.61-3.64-18.85s-14.68-2.14-18.24-5.5-2.38-6-2.92-6.6-6-1-3.15-6.33C972.62,324.85,986.69,323.33,993,325.88Z" transform="translate(0 -12.26)"/><path class="cls-14" d="M976.75,366.71s4.12-1.2,5.53-.8a3.12,3.12,0,0,1,1.53,1,5.13,5.13,0,0,1,2.43-1,51.74,51.74,0,0,1,5.38.72s-3.37,4.92-7.43,4.92C979.27,371.51,976.75,366.71,976.75,366.71Z" transform="translate(0 -12.26)"/><path class="cls-18" d="M978,367.4a22.71,22.71,0,0,0,12.67-.34S984.59,371.63,978,367.4Z" transform="translate(0 -12.26)"/><path class="cls-19" d="M993.49,349.57a18.84,18.84,0,0,1,4.29,2.48s-4-1.31-5.16-1.74-3.68.1-4.91-.06a1.88,1.88,0,0,1-1.52-1C986.91,348.85,991.67,348.93,993.49,349.57Z" transform="translate(0 -12.26)"/><path class="cls-19" d="M980.41,349.43a1.85,1.85,0,0,1-1.54,1c-1.23.12-3.74-.53-4.91-0.12s-5.2,1.63-5.2,1.63a18.28,18.28,0,0,1,4.34-2.42C974.94,348.94,979.71,349,980.41,349.43Z" transform="translate(0 -12.26)"/><path class="cls-18" d="M987.7,354.14s3.55-4,7.18,0C994.88,354.14,991.94,356.85,987.7,354.14Z" transform="translate(0 -12.26)"/><path class="cls-20" d="M991.29,352.24c2.34,0,2.42,2.89.42,2.9C988.81,355.15,988.92,352.26,991.29,352.24Z" transform="translate(0 -12.26)"/><path class="cls-21" d="M982.5,353.95a18.52,18.52,0,0,1,.62,2,17.27,17.27,0,0,1,.39,2.12,7.14,7.14,0,0,1-.09,2.55,2.16,2.16,0,0,1-.3.68,3,3,0,0,1-.47.5,0.8,0.8,0,0,0-.39.67,1.56,1.56,0,0,0,.58.67,2.81,2.81,0,0,0,.78.45,1.4,1.4,0,0,0,1.29-.19,3.7,3.7,0,0,0,.44-0.36,2,2,0,0,1-.33.48,1.83,1.83,0,0,1-.56.42,1.55,1.55,0,0,1-.94.11,2.91,2.91,0,0,1-1-.41,2,2,0,0,1-.9-1,1,1,0,0,1,.09-0.84,2.45,2.45,0,0,1,.45-0.56,1.59,1.59,0,0,0,.59-0.84,7.85,7.85,0,0,0,.17-2.29c0-.76-0.09-1.48-0.15-2.1C982.61,354.78,982.5,353.95,982.5,353.95Z" transform="translate(0 -12.26)"/><path class="cls-20" d="M994.78,353.78a2.34,2.34,0,0,0,.37-0.06,3.85,3.85,0,0,0,.82-0.29,3.21,3.21,0,0,0,.74-0.49,2.27,2.27,0,0,0,.29-0.3,3.34,3.34,0,0,1-.82,1.1,4.36,4.36,0,0,1-.8.56,3.19,3.19,0,0,1-.42.2Z" transform="translate(0 -12.26)"/><path class="cls-20" d="M994.14,353.07l0.3,0a3.42,3.42,0,0,0,.66-0.14,2,2,0,0,0,.61-0.32,1.29,1.29,0,0,0,.23-0.23,1.3,1.3,0,0,1-.17.28,2.15,2.15,0,0,1-.55.49,3.94,3.94,0,0,1-1,.43Z" transform="translate(0 -12.26)"/><path class="cls-20" d="M993.41,352.56a3.26,3.26,0,0,0,.73-0.36,7.07,7.07,0,0,0,.7-0.5,7.11,7.11,0,0,1-.54.69,3.67,3.67,0,0,1-.68.62Z" transform="translate(0 -12.26)"/><path class="cls-18" d="M979.79,354.23s-3.55-4-7.18,0C972.62,354.23,975.55,356.94,979.79,354.23Z" transform="translate(0 -12.26)"/><path class="cls-20" d="M976.21,352.35c-2.34,0-2,2.75,0,2.9C978.93,355.45,978.57,352.36,976.21,352.35Z" transform="translate(0 -12.26)"/><path class="cls-20" d="M972.68,354.47a3.14,3.14,0,0,1-.44-0.16,4.06,4.06,0,0,1-.86-0.5,3,3,0,0,1-.67-0.7,2,2,0,0,1-.21-0.37,1.92,1.92,0,0,0,.3.3,2.76,2.76,0,0,0,.77.45,3.55,3.55,0,0,0,.85.21,2.3,2.3,0,0,0,.38,0Z" transform="translate(0 -12.26)"/><path class="cls-20" d="M973.31,353.73l-0.12,0-0.26-.08a2.53,2.53,0,0,1-.65-0.4,4.36,4.36,0,0,1-.72-0.77,4.33,4.33,0,0,0,.85.56,2.19,2.19,0,0,0,.63.21h0.25Z" transform="translate(0 -12.26)"/><path class="cls-20" d="M973.78,353.21a1.8,1.8,0,0,1-.3-0.13,2.35,2.35,0,0,1-.56-0.41,2,2,0,0,1-.5-0.82,1.94,1.94,0,0,0,.65.62,2,2,0,0,0,.55.21,1.23,1.23,0,0,0,.25,0Z" transform="translate(0 -12.26)"/><path class="cls-22" d="M987.7,354.14s3.43-4.88,7.47.25" transform="translate(0 -12.26)"/><path class="cls-22" d="M972.47,354.44s3.26-5,7.47,0" transform="translate(0 -12.26)"/><path class="cls-16" d="M787.33,408.88S679.25,474.3,683.44,485.82s117.14-1.3,128.63-6.8Z" transform="translate(0 -12.26)"/><path class="cls-21" d="M794.16,406.6c2.51,0,1.83,2.73,0,2.86A1.44,1.44,0,1,1,794.16,406.6Z" transform="translate(0 -12.26)"/><path class="cls-21" d="M820.26,408.88a1.44,1.44,0,1,1,0-2.86c2.51,0,1.83,2.73,0,2.86" transform="translate(0 -12.26)"/><path class="cls-23" d="M807,451.5a1,1,0,1,1,0-1.94c1.7,0,1.24,1.85,0,1.94" transform="translate(0 -12.26)"/><path class="cls-17" d="M893.79,483.66s5.24-1.15,5-2.92-6.57-1-6.57-1,6.48-1.86,5.89-3.34-6.67-1.13-6.67-1.13,7.21-1.18,6.67-3.8c-0.18-.87-4.12-0.67-10.21-2S874.64,465,866,455.18s-11.67-17.67-11.67-17.67c-1.67-3.39-6.83-21.21-7.58-33.75-0.57-9.36-3-16.66-8-23.25-4.61-6-19.05-9.67-22.19-14-2.7-3.72-1.65-5.69-1.65-5.69,4.87-3.62,5.2-6,5.64-7.51a34.08,34.08,0,0,0,1-8s1.56,1.52,2.57,1.35,2.53-15.21,1.35-15.21-1.35,2.87-1.35,2.87-1.5-23.82-20.77-23.32S789,334.49,789,334.49s-2-1.69-3.72-1.18,1.15,14.14,1.9,15c0.43,0.52,2.32-.17,2.32-0.17a21.75,21.75,0,0,1,1.6,4.68c0.93,4.17,7.18,8,7.18,8a11.2,11.2,0,0,1-1.1,5c-4.16,5.6-14.47-.39-24.09,6.28s-21.92,59.54-21.92,59.54l21.53-13.76s3.06-6.71,3.93-9c1.86-4.87,4.79-12.54,4.79-12.54s0.32,8.57.71,13.67,3.85,31.9,3.85,35.63-2,16.36-2,22.24,2.75,50.9,2.75,54,3,10.34,2.22,14.26,2.75,8.31,2.75,8.31a129.84,129.84,0,0,1,0,25.05c-1.37,13,.07,41.94-0.52,45.27s-5.86,9.76-12.35,13.05c-8.06,4.09-8.91,10.76-7.73,11.55s6.08-1.18,13.93-6.28,14.92-4.91,16.68-7.85-1-7.65-1.57-12,7.06-33,7.45-44.81-1.37-18.58-1.76-26.44,4.76-49.23,4.76-49.23l6.76,4c-2.36,8.64,2.22,42.79,2.22,44.75s-0.13,8.37-.13,8.37-1.88,13.44-1.75,17.27c0.4,11.62,4.1,33.1,3.06,39.84-0.3,1.94-1,11.68-1.8,14.24s2.65,5,7.28,6.15c12,3,21,15.31,21.2,12.17s0.29-8-3-11.08c-7.16-6.8-14.22-9.24-14.58-14.61-0.18-2.75,1.5-18.25,1.69-27.27s0.39-36.51.39-36.51,2.16-2.16,2.94-7.65a15.44,15.44,0,0,0-1.57-9.42,53.27,53.27,0,0,0,4.16-21.92c-0.12-5.7-5.6-12.85-5.2-18.77,1.9-28.12-4.19-30.75-4.19-40.56,0-7.39,1.3-34,1.94-46.6,1,10.74,6.63,28.85,10.71,36.39,2,3.63,14.86,22.59,31.86,30.92,11.35,5.56,14.5,19.15,26.18,12.55C900.54,484.11,893.79,483.66,893.79,483.66Z" transform="translate(0 -12.26)"/><path class="cls-19" d="M795.94,311s-7.26,15.47-6.07,25.35l-3.38-3.89s-0.51-11.15,2.37-15.21A22.64,22.64,0,0,1,795.94,311Z" transform="translate(0 -12.26)"/><path class="cls-19" d="M791.73,311c1.2-6.19,8.27-7.35,20.43-4.22,5.75,1.48,8.3,9.63,11,18.42a11.39,11.39,0,0,0,5.07,6.08s-3.29,4.73-6.63,3-4.43-8.69-6.2-9.12c-6.25-1.52-5.07-7.43-7.94-8.11s-8.22.91-12.67-1.52C791.44,313.75,791.45,312.47,791.73,311Z" transform="translate(0 -12.26)"/><path class="cls-24" d="M797.92,350.93s5.43-2,6.79-1.53,2.85,1,2.85,1a9.83,9.83,0,0,1,2.67-1.39,20,20,0,0,1,5.85.78s-1,4.52-8.17,5C801,355.26,797.92,350.93,797.92,350.93Z" transform="translate(0 -12.26)"/><path class="cls-18" d="M799.41,351.33s7.86,4.76,15.5-.4C814.91,350.93,806.76,353,799.41,351.33Z" transform="translate(0 -12.26)"/><path class="cls-19" d="M807.5,348.8a11.51,11.51,0,0,0-4.6-.92c-3,.27-3.45,1.68-5.42,1.61a20.52,20.52,0,0,1-5-1.2s2.83,4,7.53,4c5.67,0,7.68-2.05,7.68-2.05s0.91,1.55,5.45,1.43c5.31-.14,6.46-4.35,6.46-4.35a9.84,9.84,0,0,1-3.62,1.24c-1.52,0-2.78-1.31-4.59-1A17.06,17.06,0,0,0,807.5,348.8Z" transform="translate(0 -12.26)"/><path class="cls-19" d="M815.91,330.74a8.5,8.5,0,0,1,3.62,2.32l-4.43-1.31c-1.2-.35-3.66.67-4.9,0.66a1.78,1.78,0,0,1-1.6-1C809.28,330.85,814,330.24,815.91,330.74Z" transform="translate(0 -12.26)"/><path class="cls-19" d="M803,331.39a1.78,1.78,0,0,1-1.6,1c-1.24,0-3.7-1-4.9-.66l-4.43,1.31a8.5,8.5,0,0,1,3.62-2.32C797.56,330.24,802.31,330.85,803,331.39Z" transform="translate(0 -12.26)"/><path class="cls-18" d="M817.36,335.43s-2.93,2.7-7.16,0" transform="translate(0 -12.26)"/><path class="cls-18" d="M810.2,335.43s3.55-4,7.16,0" transform="translate(0 -12.26)"/><path class="cls-25" d="M813.78,333.54c2.33,0,2.42,2.89.42,2.89C811.31,336.44,811.42,333.55,813.78,333.54Z" transform="translate(0 -12.26)"/><path class="cls-18" d="M802.31,335.52s-3.55-4-7.16,0C795.14,335.52,798.07,338.23,802.31,335.52Z" transform="translate(0 -12.26)"/><path class="cls-25" d="M798.72,333.64c-2.33,0-2,2.74,0,2.89C801.45,336.74,801.08,333.66,798.72,333.64Z" transform="translate(0 -12.26)"/><path class="cls-26" d="M795,335.73s3.25-5,7.46,0" transform="translate(0 -12.26)"/><path class="cls-26" d="M810.2,335.65s3.25-5,7.46,0" transform="translate(0 -12.26)"/><path class="cls-21" d="M805.47,335.84a13.91,13.91,0,0,1,.39,2.17,16.33,16.33,0,0,1-.22,4.86,8.62,8.62,0,0,0-.24,1.23,3,3,0,0,0,.09,1.11,4.47,4.47,0,0,0,.51.95,2.3,2.3,0,0,0,.66.67,1.52,1.52,0,0,0,1.39.05,3.64,3.64,0,0,0,.54-0.25,3.57,3.57,0,0,1-.48.38,2.25,2.25,0,0,1-.66.29,1.58,1.58,0,0,1-1-.09,2.46,2.46,0,0,1-.91-0.71,4.08,4.08,0,0,1-.69-1.07,3.33,3.33,0,0,1-.18-1.38,9,9,0,0,1,.23-1.33,28.62,28.62,0,0,0,.52-4.7C805.49,336.72,805.47,335.84,805.47,335.84Z" transform="translate(0 -12.26)"/><path class="cls-15" d="M784.06,467.89s25.75,8.79,47-2.38c0,0,6.54,31.13,7.86,37.06,0.79,3.53.48,5,.79,8.37,0.26,2.88,1.83,8.11.79,8.9s-23.81,3.4-25.65,2.88S813,495.5,812,495.24s-0.35,28.53-2.18,28.79-22.24,2.62-24.6-1.31-1.48-18.35-1.48-22.8S781.18,471.29,784.06,467.89Z" transform="translate(0 -12.26)"/><path class="cls-27" d="M1646.43,615.91c-10.86-2.73-46.76-42.38-22.32-51.31,24.59-9,36.92,35.46,32.09,48.13C1656.19,612.72,1648,616.31,1646.43,615.91Z" transform="translate(0 -12.26)"/><path class="cls-27" d="M1691.77,517.11s24-41.15,3.6-41.15C1673.22,476,1691.77,517.11,1691.77,517.11Z" transform="translate(0 -12.26)"/><path class="cls-27" d="M1669,567.45s16.5-78.66-14-70.33S1669,567.45,1669,567.45Z" transform="translate(0 -12.26)"/><path class="cls-15" d="M1646.37,616.12c-5.22-19-11.5-72.47,18.43-60.2,28.91,11.85,1.45,47-11.27,61.2C1653.53,617.11,1646.7,617.32,1646.37,616.12Z" transform="translate(0 -12.26)"/><path class="cls-15" d="M1667.22,560.49s2.67-24.93,11-37.53c4.74-7.21,14.56-15,23.53-7.11,8.44,7.39,4.21,19-.76,25C1691.4,552.51,1667.22,560.49,1667.22,560.49Z" transform="translate(0 -12.26)"/><path class="cls-15" d="M1698.56,541s12.22-19.27,22.41-24.67c5-2.65,13.58-2.4,15.92,5.52,2,6.9-4,11.82-7.8,14.7C1719.6,543.7,1698.56,541,1698.56,541Z" transform="translate(0 -12.26)"/><path class="cls-27" d="M1629.36,572.38s13-60.16-22.5-50.66S1629.36,572.38,1629.36,572.38Z" transform="translate(0 -12.26)"/><path class="cls-27" d="M1613.52,527.72s7.2-52.63-18.16-42.49C1569.13,495.72,1613.52,527.72,1613.52,527.72Z" transform="translate(0 -12.26)"/><path class="cls-15" d="M1600.51,543.12a3,3,0,0,0-.38-5.14c-5.22-2.63-14.28-6.75-21.25-7.61-7.14-.88-14.94,1.41-12.86,12.85,1.33,7.33,11.37,8.65,16.65,8C1589.09,550.46,1596.24,546.12,1600.51,543.12Z" transform="translate(0 -12.26)"/><path class="cls-5" d="M1706,478.06c-0.46-3.19,10.22-7.65,11.17-2.17C1718.36,482.67,1706.49,481.25,1706,478.06Z" transform="translate(0 -12.26)"/><path class="cls-5" d="M1652.36,503.72c0.07-3-9.75-7.62-10.5-2.33C1640.53,510.86,1652.29,506.72,1652.36,503.72Z" transform="translate(0 -12.26)"/><path class="cls-5" d="M1573.58,532.37c-2.43,1.27-12.64-1.56-8-7.56S1575.81,531.2,1573.58,532.37Z" transform="translate(0 -12.26)"/><path class="cls-5" d="M1731.7,513c-2.35.11-7.67-7.93-1.67-9.26S1734.36,512.87,1731.7,513Z" transform="translate(0 -12.26)"/><path class="cls-5" d="M1607.26,487.31s1.75-13.59,6.26-9.59S1609.83,490.56,1607.26,487.31Z" transform="translate(0 -12.26)"/><path class="cls-27" d="M84.13,613.72s33.56-49.32,18.18-89.31c-8.75-22.76-7.35-34.71,1.91-47.17,0,0-1.16,19,2.08,25.39,0,0,6.73,15.69,12.63,27.33,15.06,29.66,3.5,77.33-12.41,82.33Z" transform="translate(0 -12.26)"/><path class="cls-27" d="M104,483.75s-0.35,1.29,2.58-2.32c0,0-1.08,6.57-3.54,8Z" transform="translate(0 -12.26)"/><path class="cls-27" d="M104,491.22s-0.35,1.29,2.58-2.32c0,0-1.08,6.57-3.54,8Z" transform="translate(0 -12.26)"/><path class="cls-27" d="M105.59,500.74s0.17,1.33,1.49-3.13c0,0,1.53,6.48-.18,8.77Z" transform="translate(0 -12.26)"/><path class="cls-27" d="M109.44,510.25s0.3,1.3,1.18-3.26c0,0,2.15,6.3.67,8.74Z" transform="translate(0 -12.26)"/><path class="cls-27" d="M113.89,520.88s0.53,1.36.86-3.88c0,0,3.34,6.42,2,9.47Z" transform="translate(0 -12.26)"/><path class="cls-27" d="M118.94,530.48s0.33,1.44,1.29-3.56c0,0,2.35,7,.73,9.64Z" transform="translate(0 -12.26)"/><path class="cls-27" d="M122.52,541s0.12,1.48,1.78-3.34c0,0,1.34,7.25-.64,9.65Z" transform="translate(0 -12.26)"/><path class="cls-27" d="M124.88,550.83s-0.27,1.46,2.58-2.77c0,0-.59,7.35-3.12,9.16Z" transform="translate(0 -12.26)"/><path class="cls-27" d="M125.51,560.43s-0.2,1.68,3-3.5c0,0-.07,8.35-3.09,10.75Z" transform="translate(0 -12.26)"/><path class="cls-27" d="M124.87,572.81s-0.37,1.65,3.34-3.17c0,0-.92,8.29-4.18,10.38Z" transform="translate(0 -12.26)"/><path class="cls-27" d="M99.38,486.27s-0.19,1.32-1.44-3.15c0,0-1.63,6.46.05,8.77Z" transform="translate(0 -12.26)"/><path class="cls-27" d="M97.21,494.22s0,1.34-2-2.86c0,0-.51,6.64,1.54,8.63Z" transform="translate(0 -12.26)"/><path class="cls-27" d="M97.71,505.94s0.54,1.51-3.55-2.64c0,0,1.78,7.7,5.14,9.32Z" transform="translate(0 -12.26)"/><path class="cls-27" d="M100.26,517.3s0.94,1.23-4.06-1.39c0,0,3.92,6.59,7.5,7.1Z" transform="translate(0 -12.26)"/><path class="cls-27" d="M103.79,526.45s0.82,1.37-4-1.9c0,0,3.25,7.2,6.85,8.14Z" transform="translate(0 -12.26)"/><path class="cls-27" d="M106,536.86s0.54,1.51-3.55-2.64c0,0,1.78,7.7,5.14,9.32Z" transform="translate(0 -12.26)"/><path class="cls-27" d="M106.85,547s0.3,2.09-3.66-4.15c0,0,.41,10.47,4.05,13.25Z" transform="translate(0 -12.26)"/><path class="cls-27" d="M106.28,559.13s0,1.6-2.44-3.69c0,0-1,7.85,1.65,10.52Z" transform="translate(0 -12.26)"/><path class="cls-27" d="M104.16,570.12s-0.26,1.95-2.55-5.09c0,0-2.44,9.33.47,13.22Z" transform="translate(0 -12.26)"/><path class="cls-27" d="M107.52,600.91S76.2,579.16,55.77,530.5c0,0-9.43,73,52.54,86.77Z" transform="translate(0 -12.26)"/><path class="cls-27" d="M58.2,536.43s0.18,1.17,1.15-2.68c0,0,1.44,5.76.09,7.69Z" transform="translate(0 -12.26)"/><path class="cls-27" d="M62.48,545.63s0.37,1.22.88-3.14c-0.14-.43,2.38,5.6,1.24,8.24Z" transform="translate(0 -12.26)"/><path class="cls-27" d="M66.77,552.94s0.38,1.41,1.27-3.76c0,0,2.63,6.74,1,9.63Z" transform="translate(0 -12.26)"/><path class="cls-27" d="M70.93,560s0.61,1.6,1.16-4.9c0,0,3.61,4.09,2.24,11.33Z" transform="translate(0 -12.26)"/><path class="cls-27" d="M114.62,607.93s41.32-37.54,59.68-80.23c0,0-10.95,84.28-55,91.61Z" transform="translate(0 -12.26)"/><path class="cls-27" d="M171.14,535.3s-0.54,1.3-.68-3.63c0,0-3.33,6.16-2.19,9Z" transform="translate(0 -12.26)"/><path class="cls-27" d="M166.18,544.71s-0.66,1.46-.72-4.37c0,0-4.07,6.78-2.79,10.27Z" transform="translate(0 -12.26)"/><path class="cls-27" d="M159.85,555.1s-0.68,1.45-.68-4.37c0,0-4.13,6.74-2.88,10.25Z" transform="translate(0 -12.26)"/><path class="cls-27" d="M153.66,564.22s-1,1.9-.71-5.88c0,0-5.82,8.77-4.32,13.53Z" transform="translate(0 -12.26)"/><path class="cls-15" d="M89.64,617.27c-1.84-.71,47.16-38.44,44.49-81.2-1.52-24.34,3.41-35.31,16-44.42,0,0-6.79,17.73-5.64,24.84,0,0,1.71,17,3.85,29.86,5.46,32.82-28.61,72-33,73.67A48.18,48.18,0,0,1,89.64,617.27Z" transform="translate(0 -12.26)"/><path class="cls-15" d="M147.94,497.79s-0.72,1.13,3.15-1.43c0,0-3,5.95-5.78,6.59Z" transform="translate(0 -12.26)"/><path class="cls-15" d="M145.69,504.91s-0.72,1.13,3.15-1.43c0,0-3,5.95-5.78,6.59Z" transform="translate(0 -12.26)"/><path class="cls-15" d="M144.36,514.47s-0.23,1.32,2.36-2.54c0,0-.48,6.64-2.81,8.31Z" transform="translate(0 -12.26)"/><path class="cls-15" d="M145.18,524.7s-0.11,1.33,2.1-2.75c0,0,.16,6.66-2,8.54Z" transform="translate(0 -12.26)"/><path class="cls-15" d="M146.23,536.18s0.09,1.46,2-3.44c0,0,1.26,7.13-.91,9.64Z" transform="translate(0 -12.26)"/><path class="cls-15" d="M148.16,546.85s-0.12,1.47,2.3-3c0,0,.14,7.37-2.2,9.42Z" transform="translate(0 -12.26)"/><path class="cls-15" d="M148.42,558s-0.33,1.44,2.7-2.66c0,0-.9,7.32-3.51,9Z" transform="translate(0 -12.26)"/><path class="cls-15" d="M146.85,568s-0.69,1.31,3.29-1.87c0,0-2.76,6.84-5.72,7.8Z" transform="translate(0 -12.26)"/><path class="cls-15" d="M143.09,577.39s-0.7,1.54,3.91-2.44c0,0-2.57,7.94-6.18,9.33Z" transform="translate(0 -12.26)"/><path class="cls-15" d="M137.73,589s-0.85,1.46,4.14-2c0,0-3.37,7.63-7.1,8.65Z" transform="translate(0 -12.26)"/><path class="cls-15" d="M142.77,498.8s-0.58,1.21-.43-3.44c0,0-3.49,5.67-2.58,8.38Z" transform="translate(0 -12.26)"/><path class="cls-15" d="M138.32,505.74s-0.37,1.29-1-3.31c0,0-2.48,6.18-1.12,8.7Z" transform="translate(0 -12.26)"/><path class="cls-15" d="M135.28,517.07s0.06,1.6-2.6-3.58c0,0-.61,7.88,2.1,10.43Z" transform="translate(0 -12.26)"/><path class="cls-15" d="M134.3,528.67s0.53,1.46-3.46-2.54c0,0,1.76,7.46,5,9Z" transform="translate(0 -12.26)"/><path class="cls-15" d="M134.93,538.45s0.37,1.56-3.25-3c0,0,.94,7.85,4.09,9.83Z" transform="translate(0 -12.26)"/><path class="cls-15" d="M134,549.06s0.06,1.6-2.6-3.58c0,0-.61,7.88,2.1,10.43Z" transform="translate(0 -12.26)"/><path class="cls-15" d="M131.68,559s-0.34,2.08-2.24-5.06c0,0-2.75,10.11-.11,13.86Z" transform="translate(0 -12.26)"/><path class="cls-15" d="M127.49,570.38s-0.49,1.52-1.22-4.25c0,0-3.26,7.2-1.59,10.53Z" transform="translate(0 -12.26)"/><path class="cls-15" d="M122.17,580.23s-0.84,1.78-.91-5.62c0,0-5.13,8.17-3.52,12.75Z" transform="translate(0 -12.26)"/><path class="cls-15" d="M134.57,614.74s-46.81-37-44.14-79.74c1.52-24.34-3.41-35.31-16-44.42,0,0,6.79,17.73,5.64,24.84,0,0-1.71,17-3.85,29.86-5.46,32.82,18.08,72,34.75,72Z" transform="translate(0 -12.26)"/><path class="cls-15" d="M76.62,496.73s0.72,1.13-3.15-1.43c0,0,3,5.95,5.78,6.59Z" transform="translate(0 -12.26)"/><path class="cls-15" d="M78.87,503.85s0.72,1.13-3.15-1.43c0,0,3,5.95,5.78,6.59Z" transform="translate(0 -12.26)"/><path class="cls-15" d="M80.2,513.41s0.23,1.32-2.36-2.54c0,0,.48,6.64,2.81,8.31Z" transform="translate(0 -12.26)"/><path class="cls-15" d="M79.38,523.63s0.11,1.33-2.1-2.75c0,0-.16,6.66,2,8.54Z" transform="translate(0 -12.26)"/><path class="cls-15" d="M78.33,535.11s-0.09,1.46-2-3.44c0,0-1.26,7.13.91,9.64Z" transform="translate(0 -12.26)"/><path class="cls-15" d="M76.4,545.79s0.12,1.47-2.3-3c0,0-.14,7.37,2.2,9.42Z" transform="translate(0 -12.26)"/><path class="cls-15" d="M76.14,556.94s0.33,1.44-2.7-2.66c0,0,.9,7.32,3.51,9Z" transform="translate(0 -12.26)"/><path class="cls-15" d="M76.83,567s0.69,1.31-3.29-1.87c0,0,2.76,6.84,5.72,7.8Z" transform="translate(0 -12.26)"/><path class="cls-15" d="M79.11,576.32s0.7,1.54-3.91-2.44c0,0,2.57,7.94,6.18,9.33Z" transform="translate(0 -12.26)"/><path class="cls-15" d="M83.44,587.95s0.85,1.46-4.14-2c0,0,3.37,7.63,7.1,8.65Z" transform="translate(0 -12.26)"/><path class="cls-15" d="M81.79,497.74s0.58,1.21.43-3.44c0,0,3.49,5.67,2.58,8.38Z" transform="translate(0 -12.26)"/><path class="cls-15" d="M86.24,504.67s0.37,1.29,1-3.31c0,0,2.48,6.18,1.12,8.7Z" transform="translate(0 -12.26)"/><path class="cls-15" d="M89.28,516s-0.06,1.6,2.6-3.58c0,0,.61,7.88-2.1,10.43Z" transform="translate(0 -12.26)"/><path class="cls-15" d="M90.26,527.6s-0.53,1.46,3.46-2.54c0,0-1.76,7.46-5,9Z" transform="translate(0 -12.26)"/><path class="cls-15" d="M89.63,537.39s-0.37,1.56,3.25-3c0,0-.94,7.85-4.09,9.83Z" transform="translate(0 -12.26)"/><path class="cls-15" d="M90.6,548s-0.06,1.6,2.6-3.58c0,0,.61,7.88-2.1,10.43Z" transform="translate(0 -12.26)"/><path class="cls-15" d="M92.88,557.92s0.34,2.08,2.24-5.06c0,0,2.75,10.11.11,13.86Z" transform="translate(0 -12.26)"/><path class="cls-15" d="M97.06,569.31s0.49,1.52,1.22-4.25c0,0,3.26,7.2,1.59,10.53Z" transform="translate(0 -12.26)"/><path class="cls-15" d="M102.39,579.16s0.84,1.78.91-5.62c0,0,5.13,8.17,3.52,12.75Z" transform="translate(0 -12.26)"/><path class="cls-15" d="M114.62,606.7s53.32-14.25,69.68-26.78c0,0-23.47,41.12-69,40.11C115.35,620,114.76,618,114.62,606.7Z" transform="translate(0 -12.26)"/><path class="cls-15" d="M178.55,583.95s-1.27,1,1.31-3.9c0,0-6.84,4.26-7.24,7.62Z" transform="translate(0 -12.26)"/><path class="cls-15" d="M170.05,588.2s-1.4,1.18,1.29-4.75c0,0-7.55,5-7.83,9.17Z" transform="translate(0 -12.26)"/><path class="cls-15" d="M159.83,592.22s-1.49,1.08,1.67-4.64c0,0-7.93,4.48-8.55,8.57Z" transform="translate(0 -12.26)"/><path class="cls-15" d="M149,596.29s-2.18,1.22,3.14-6.34c0,0-11.36,4.67-13,10.46Z" transform="translate(0 -12.26)"/><path class="cls-15" d="M114.79,608.23s-52.21-13.31-68.23-25c0,0,18.93,36.86,63.11,36.81C109.67,620,114.66,618.8,114.79,608.23Z" transform="translate(0 -12.26)"/><path class="cls-15" d="M52.2,587s1.25,0.92-1.28-3.64c0,0,6.7,4,7.09,7.12Z" transform="translate(0 -12.26)"/><path class="cls-15" d="M60.52,591s1.37,1.1-1.27-4.44c0,0,7.39,4.71,7.67,8.57Z" transform="translate(0 -12.26)"/><path class="cls-15" d="M70.53,594.71s1.46,1-1.64-4.34c0,0,7.77,4.19,8.37,8Z" transform="translate(0 -12.26)"/><path class="cls-15" d="M81.08,598.51s2.13,1.14-3.07-5.92c0,0,11.13,4.37,12.72,9.77Z" transform="translate(0 -12.26)"/><path class="cls-15" d="M106.65,494.3a16.4,16.4,0,0,0,.66-8.08,13.27,13.27,0,0,0,.66-8.84s1.92-1.4.72-7.55c0,0,2.38-3,1.09-9.35,0,0,2.58-2,1.23-7.64,0,0,3-2.12,1.13-8.06,0,0,3.07-2.78,1.54-8.21,0,0-3.22-8.54-6,.28,0,0-2.19,2.83-.71,5.83,0,0-3.39,4.63-1.12,7.32,0,0-3.65,7.46-1.36,10.74,0,0-3.31,4.48-.84,8.54,0,0-2.75,5.42-.64,8.49,0,0-3.78,8,.16,10.79,0,0-3.21,3.29-.88,7.12a8.06,8.06,0,0,0,.18,8.07s-3.48,4.51,0,8.89c0,0-3.11,5.52.27,10.12,0,0-2.41,5.87.43,10,0,0-3,2.3.7,6.56,0,0-2.77,5.11.9,7.3a9.44,9.44,0,0,0,.79,9.32s-1.77,6.63,1.06,8.44c0,0-1.87,4.21,1.06,7.51a8.37,8.37,0,0,0,1.93,9.11s-2,6,1.36,8.19c0,0-1.48,5.43,2.17,8.3,0,0-3.57,6.8,4.27,6.5,0,0,4.37-3.84.87-7.82,0,0,.67-6-3.52-8.12,0,0,.87-4.07-1.14-7.05,0,0,1.18-5.41-1.83-9.11a10.47,10.47,0,0,0-.83-7.51,9.62,9.62,0,0,0-1.73-8.92,13.73,13.73,0,0,0-1-8.84s1.81-1.57-.68-6.92c0,0,2.19-4.67-1-8,0,0,2.34-2.66.09-7.75,0,0,1.52-3.54-.45-8.9,0,0,2.54-4.43.62-8.65" transform="translate(0 -12.26)"/><path class="cls-9" d="M117.23,395s4.88-11.68,1.27-11.68-6.79,7.22-4.67,11.68c0,0-2.12-8.07-6.16-5.84s2.09,6.9,2.09,6.9-7.95-3.61-8.74,0,5.45,3.4,5.45,3.4-7.3-1.91-7.52,1.7,5.95,2.55,5.95,2.55-6-.21-6,2.55,4.69,3.11,4.69,3.11-5.12-2.69-4.69,1.13,3.61,3,3.61,3-5.1.42-5.1,2.76,4.88,2.12,4.88,2.12-5.31,0-4.88,3.4a2.74,2.74,0,0,0,3.55,2.55s-4-.42-2.7,3.18,4.46,1.7,4.46,1.7-3.52.42-1.76,4,5.45-2.12,5.45-2.12-3.53,4,0,5.52,5.65-5.52,5.65-5.52-3.46,6.57.6,5.73,3.21-5.73,3.21-5.73-0.63,3.61,2.56,3,1.33-5.95,1.33-5.95,0.77,4.25,2.16,1.49-2-6.41-2-6.41,2.55,4,3.82,0-4.25-3.78-4.25-3.78,4.2,1.06,4.44-3-5.5-3.4-5.5-3.4,5.28,0.28,5.51-2.94-5.51-3.43-5.51-3.43,4.66,1.06,5.51-2.34-5.51-2.34-5.51-2.34,6.51,1.49,5.59-2.12-5.59-1.7-5.59-1.7,7.72-2,5.68-4.25C119.36,388.68,117.23,395,117.23,395Z" transform="translate(0 -12.26)"/><path class="cls-15" d="M107.12,505.71s2.17-5.57-.48-10" transform="translate(0 -12.26)"/></svg>