<svg id="Layer_1" data-name="Layer 1" xmlns="http://www.w3.org/2000/svg" viewBox="0 0 477.97 405.24"><defs><style>.cls-1{fill:#152c3f;}.cls-2{fill:#1eabf0;}.cls-3{fill:#ed6130;}.cls-4{fill:#e1c51b;}.cls-5{fill:#e4e0cf;}.cls-6{fill:#fcffec;}</style></defs><title>nav-select</title><path id="Rectangle_2_copy_4" data-name="Rectangle 2 copy 4" class="cls-1" d="M272.89,329.16l16.94,17.26,3.44,58.82-26.43-52.66ZM205.07,76.08L188.13,58.82,184.69,0l26.43,52.71ZM112.44,236.53L95.18,253.47l-58.82,3.45L89,230.49Zm253.08-67.82,17.26-16.94,58.82-3.44-52.66,26.38Zm-192,147.35-0.23,24.19-39.16,44,18.55-55.93Zm131-226.91L304.76,65l39.16-44-18.55,55.9Zm-179,48-24.16-.27-44-39.17,55.93,18.55Zm226.91,131,24.19,0.23,44,39.16L364.7,289Z"/><polygon class="cls-2" points="294.81 233.21 386.49 224.67 299.05 195.81 386.38 90.53 264.56 151.89 256.1 60.9 227.28 148.21 121.53 60.48 183.16 182.84 92.33 191.3 178.96 219.89 91.48 325.33 214.19 263.53 222.72 355.07 251.37 268.29 356.33 355.38 294.81 233.21"/><polygon class="cls-3" points="279.94 254 414.38 276.93 300.01 201.89 375.14 148.65 284.99 167.38 307.98 32.54 233.16 146.58 180.34 72.03 199.03 162.04 63.59 138.94 178.15 214.09 103.7 266.84 193.03 248.28 170 383.33 245.37 268.45 298.51 343.46 279.94 254"/><polygon class="cls-4" points="293.94 235.97 427.46 208.1 293.56 180.14 343.99 103.09 266.94 153.52 238.99 19.62 211.1 153.13 134.65 103.09 185 180.01 50.51 208.1 184.62 236.1 134.65 312.43 210.99 262.47 238.99 396.57 267.06 262.08 343.99 312.43 293.94 235.97"/><rect id="Rounded_Rectangle_1" data-name="Rounded Rectangle 1" class="cls-5" x="10.01" y="166.74" width="457.94" height="78.41" rx="10" ry="10"/><rect id="Rounded_Rectangle_1_copy" data-name="Rounded Rectangle 1 copy" class="cls-6" y="176.74" width="477.97" height="58.41" rx="10" ry="10"/></svg>