<?xml version="1.0" encoding="utf-8"?>
<!-- Generator: Adobe Illustrator 19.2.1, SVG Export Plug-In . SVG Version: 6.00 Build 0)  -->
<svg version="1.1" id="Layer_1" xmlns="http://www.w3.org/2000/svg" xmlns:xlink="http://www.w3.org/1999/xlink" x="0px" y="0px"
	 width="405.2px" height="405.2px" viewBox="0 0 405.2 405.2" style="enable-background:new 0 0 405.2 405.2;" xml:space="preserve"
	>
<style type="text/css">
	.st0{fill:#152C3F;}
	.st1{fill:#1EABF0;}
	.st2{fill:#ED6130;}
	.st3{fill:#E1C51B;}
</style>
<title>nav-select</title>
<path id="Rectangle_2_copy_4" class="st0" d="M236.5,329.2l16.9,17.3l3.4,58.8l-26.4-52.7L236.5,329.2z M168.7,76.1l-16.9-17.3
	L148.3,0l26.4,52.7L168.7,76.1z M76.1,236.5l-17.3,16.9L0,256.9l52.6-26.4L76.1,236.5z M329.2,168.7l17.3-16.9l58.8-3.4l-52.7,26.4
	L329.2,168.7z M137.2,316.1l-0.2,24.2l-39.2,44l18.6-55.9L137.2,316.1z M268.2,89.1l0.2-24.1l39.2-44L289,76.9L268.2,89.1z
	 M89.2,137.1L65,136.9L21,97.7l55.9,18.6L89.2,137.1z M316.1,268.1l24.2,0.2l44,39.2L328.3,289L316.1,268.1z"/>
<polygon class="st1" points="258.4,233.2 350.1,224.7 262.7,195.8 350,90.5 228.2,151.9 219.7,60.9 190.9,148.2 85.2,60.5 
	146.8,182.8 56,191.3 142.6,219.9 55.1,325.3 177.8,263.5 186.4,355.1 215,268.3 320,355.4 "/>
<polygon class="st2" points="243.6,254 378,276.9 263.6,201.9 338.8,148.6 248.6,167.4 271.6,32.5 196.8,146.6 144,72 162.7,162 
	27.2,138.9 141.8,214.1 67.3,266.8 156.7,248.3 133.6,383.3 209,268.5 262.1,343.5 "/>
<polygon class="st3" points="257.6,236 391.1,208.1 257.2,180.1 307.6,103.1 230.6,153.5 202.6,19.6 174.7,153.1 98.3,103.1 
	148.6,180 14.1,208.1 148.3,236.1 98.3,312.4 174.6,262.5 202.6,396.6 230.7,262.1 307.6,312.4 "/>
</svg>
