<?xml version="1.0" encoding="utf-8"?>
<!-- Generator: Adobe Illustrator 19.2.1, SVG Export Plug-In . SVG Version: 6.00 Build 0)  -->
<svg version="1.1" id="Layer_3_copy" xmlns="http://www.w3.org/2000/svg" xmlns:xlink="http://www.w3.org/1999/xlink" x="0px"
	 y="0px" width="1562px" height="446px" viewBox="0 0 1562 446" style="enable-background:new 0 0 1562 446;" xml:space="preserve">
<style type="text/css">
	.st0{fill:#E1C51B;}
	.st1{fill:#1FCEAC;}
	.st2{fill:#EC612E;}
	.st3{fill:#FCFFEC;}
	.st4{fill:#1EABF0;}
	.st5{fill:#F7D631;}
	.st6{fill:#EA4E2F;}
	.st7{fill:#171B23;}
	.st8{fill:#181C22;}
	.st9{fill:#0F769E;}
	.st10{fill:#3AA7DE;}
</style>
<title>ochapo-wedding-logo</title>
<g id="NOV_5">
	<path class="st0" d="M309.2,409.8l5.1,17.9v-17.9h5.3v29.4h-5.9l-5.2-16.8v16.8h-5.3v-29.4H309.2z"/>
	<path class="st0" d="M347.6,411.8c2.1,2.8,2.8,6.2,2.8,13c0,6.2-0.8,9.7-2.8,12.4c-1.4,1.8-3.6,2.8-5.9,2.7
		c-2.3,0.1-4.6-0.9-6.1-2.7c-2.1-2.8-2.8-6.2-2.8-12.7s0.8-10,2.8-12.7c2.9-3.3,8-3.7,11.3-0.7C347.1,411.3,347.4,411.5,347.6,411.8
		z M338.6,424.4c0,8,0.7,10.4,3,10.4s3-2.5,3-10.3c0-8.2-0.7-10.6-3-10.6S338.6,416.4,338.6,424.4L338.6,424.4z"/>
	<path class="st0" d="M367.6,409.8l2.3,20.1l3-20.1h5.6l-5.6,29.4h-5.9l-5.5-29.4H367.6L367.6,409.8z"/>
	<path class="st0" d="M403.2,409.8v4.8h-6.6v7h6.6v4.8h-6.6v7.9h6.6v4.8h-12.4v-29.4H403.2z"/>
	<path class="st0" d="M423.2,409.8l4.7,18.6l4.8-18.6h6.3v29.4h-5.3v-17.9l-3.6,14.4h-4.5l-3.5-14.4v17.9h-5.3v-29.4H423.2z"/>
	<path class="st0" d="M460.9,409.8c5.5,0,8.6,2.5,8.6,7.1c0,3.6-1.8,5.7-5.2,6.4c4,1.1,5.7,3.3,5.7,7.3c0,5.5-3.5,8.5-10,8.5h-6.9
		v-29.4H460.9L460.9,409.8z M460,421.5c2,0.1,3.8-1.5,3.9-3.5c0.1-2-1.5-3.8-3.5-3.9c-0.1,0-0.3,0-0.4,0h-1.2v7.4H460z M460,434.6
		c2.5,0,4.1-1.6,4.1-4.4s-1.5-4.3-4.1-4.3h-1.2v8.7L460,434.6L460,434.6z"/>
	<path class="st0" d="M495.5,409.8v4.8h-6.6v7h6.6v4.8h-6.6v7.9h6.6v4.8h-12.4v-29.4H495.5L495.5,409.8z"/>
	<path class="st0" d="M516.2,409.8c6.4,0,9.5,2.8,9.5,8.5c0,3.7-1.8,6.4-4.8,7.4l5.5,13.5h-6.5l-5.1-13.5v13.5h-5.7v-29.4H516.2z
		 M515.8,422.4c2.7,0,4-1.3,4-4s-1.3-3.9-4-3.9h-1v7.9L515.8,422.4L515.8,422.4z"/>
	<path class="st0" d="M571.8,416.2h-8.5v5.3c1-1.1,2.4-1.6,3.9-1.5c3.7,0,5.9,3.3,5.9,9.1c0,6.9-2.9,10.6-8.2,10.6
		c-2.9,0-5.2-1.1-6.2-3.1c-0.7-1.3-1.1-2.8-1.1-4.4l5.4-1.2c0,2.8,0.6,3.9,2,3.9c1.7,0,2.4-1.7,2.4-5.7c0-3-0.8-4.4-2.6-4.4
		c-0.9,0-1.7,0.7-1.8,1.5h-4.3v-15.2h13.2L571.8,416.2L571.8,416.2z"/>
	<path class="st0" d="M593,433.8l-3.4,9.2h-4.5l2.7-9.2H593L593,433.8z"/>
	<path class="st0" d="M639.5,439.1H624l8.1-14.7c1.7-3.2,2.3-4.8,2.3-6.5c0-1.5-0.7-2.4-1.9-2.4s-2,1.1-2,3.3v1.1h-5.5v-1.1
		c0-3.1,0.5-4.7,2-6.1c1.5-1.4,3.5-2.2,5.6-2.2c4.6,0,7.6,2.9,7.6,7.4c0,2.7-1,5.4-3.3,9.2l-4.1,6.9h6.5L639.5,439.1L639.5,439.1z"
		/>
	<path class="st0" d="M667.1,414.8c1.1,2.5,1.6,5.7,1.6,10.3s-0.5,7.7-1.6,10.2c-1.4,3.5-5.5,5.3-9,3.8c-1.7-0.7-3.1-2.1-3.8-3.8
		c-1.1-2.6-1.6-5.6-1.6-10.5c0-9.6,2.7-14.4,8-14.4C663.5,410.5,666,412.2,667.1,414.8z M658.2,425.1c0,7.4,0.6,9.6,2.5,9.6
		s2.5-2.2,2.5-9.5c0-7.5-0.6-9.7-2.5-9.7S658.2,417.7,658.2,425.1L658.2,425.1z"/>
	<path class="st0" d="M691.6,439.1H686v-20.6c-0.9,0.8-2,1.4-3.1,1.9v-4.7c2.6-1.1,5-2.8,7-4.8h1.8L691.6,439.1L691.6,439.1z"/>
	<path class="st0" d="M716.6,421.3c0.7-0.3,1.4-0.4,2.1-0.4c3.4,0,5.7,3.5,5.7,8.6c0,6.3-3.2,10.2-8.4,10.2c-4.8,0-7.5-3.5-7.5-9.5
		c0-4.2,1-7.3,3.9-11.8l4.7-7.4h6.3L716.6,421.3z M714.1,430.2c0,3,0.9,4.8,2.4,4.8s2.4-1.9,2.4-4.8s-0.9-4.9-2.4-4.9
		S714.1,427.2,714.1,430.2z"/>
</g>
<path id="CACTUS" class="st1" d="M785.9,444.7v-13.9c0-2.1,7.7-4.5,7.7-12.6v-4.2c0-4.5-5-4.7-5,0c0,1.9,0,1,0,3.5s-2.8,6.2-2.8,3.5
	v-12c0-6.1-7.1-5.9-7.1,0v20.1c0,2.4-2.8-0.6-2.8-2.9v-3.7c0-4.7-5.4-4.7-5.4,0v4.6c0,8.3,8,8.9,8,12.3v5.2c-0.1,0.5,0.3,1,0.9,1.1
	c0.1,0,0.2,0,0.3,0h5.1C785.4,445.8,785.9,445.4,785.9,444.7C785.9,444.8,785.9,444.7,785.9,444.7z"/>
<g id="TODOS">
	<path class="st2" d="M849.5,414.6h-4.6v24.5h-5.7v-24.5h-4.5v-4.8h14.8V414.6z"/>
	<path class="st2" d="M875.7,411.8c2.1,2.8,2.8,6.2,2.8,13c0,6.2-0.8,9.7-2.8,12.4c-1.4,1.8-3.6,2.8-5.9,2.7
		c-2.3,0.1-4.6-0.9-6.1-2.7c-2.1-2.8-2.8-6.2-2.8-12.7s0.8-10,2.8-12.7c2.9-3.3,8-3.7,11.3-0.7C875.3,411.3,875.5,411.5,875.7,411.8
		z M866.7,424.4c0,8,0.7,10.4,3,10.4s3-2.5,3-10.3c0-8.2-0.7-10.6-3-10.6S866.7,416.4,866.7,424.4L866.7,424.4z"/>
	<path class="st2" d="M898.2,409.8c3.8,0,6.2,1,7.8,3.3c1.7,2.5,2.5,5.9,2.5,10.9c0,10.2-3.1,15.1-9.7,15.1h-7.1v-29.4H898.2z
		 M898,434.6c1.2,0,2.4-0.5,3.2-1.5c1-1.2,1.5-3.8,1.5-8.7c0-5.1-0.4-7.7-1.6-8.9c-0.8-0.8-1.9-1.3-3-1.2h-0.6v20.3L898,434.6
		L898,434.6z"/>
	<path class="st2" d="M935.7,411.8c2.1,2.8,2.8,6.2,2.8,13c0,6.2-0.8,9.7-2.8,12.4c-1.4,1.8-3.6,2.8-5.9,2.7
		c-2.3,0.1-4.6-0.9-6.1-2.7c-2.1-2.8-2.8-6.2-2.8-12.7s0.8-10,2.8-12.7c2.9-3.3,8-3.7,11.3-0.7C935.2,411.3,935.5,411.5,935.7,411.8
		z M926.7,424.4c0,8,0.7,10.4,3,10.4s3-2.5,3-10.3c0-8.2-0.7-10.6-3-10.6S926.7,416.4,926.7,424.4L926.7,424.4z"/>
	<path class="st2" d="M961.7,417.6c-0.3-2.5-1.2-3.8-2.8-3.8c-1.4,0-2.5,1.1-2.5,2.4c0,0.1,0,0.2,0,0.2c0,1.5,0.7,2.5,3.1,4.6
		l2.7,2.3c3.2,2.7,4.4,4.9,4.4,7.9c0,5.1-3.4,8.5-8.5,8.5c-4.5,0-7.5-2.7-8.2-7.5l5.3-1.3c0.4,2.5,1.5,3.7,3.2,3.7
		c1.5-0.1,2.6-1.3,2.6-2.7c0,0,0-0.1,0-0.1c0-1.5-0.8-2.7-3.1-4.6l-2.9-2.4c-1.1-0.9-2-1.9-2.9-3.1c-1.1-1.4-1.6-3.2-1.5-5
		c0-4.8,3.2-8,8.1-8c4.3,0,6.9,2.2,7.9,6.9L961.7,417.6z"/>
	<path class="st2" d="M1009.4,417.6c-0.3-2.5-1.2-3.8-2.8-3.8c-1.4,0-2.5,1.1-2.5,2.4c0,0.1,0,0.1,0,0.2c0,1.5,0.7,2.5,3.1,4.6
		l2.7,2.3c3.2,2.7,4.4,4.9,4.4,7.9c0,5.1-3.4,8.5-8.5,8.5c-4.5,0-7.5-2.7-8.2-7.5l5.3-1.3c0.4,2.5,1.5,3.7,3.2,3.7
		c1.5-0.1,2.6-1.3,2.6-2.7c0,0,0-0.1,0-0.1c0-1.5-0.8-2.7-3.1-4.6l-2.9-2.4c-1.1-0.9-2-1.9-2.9-3.1c-1.1-1.4-1.6-3.2-1.5-5
		c0-4.8,3.2-8,8.1-8c4.3,0,6.9,2.2,7.9,6.9L1009.4,417.6z"/>
	<path class="st2" d="M1032.1,434.6l-0.9,4.5h-5.8l6.7-29.5h6.3l6.4,29.5h-6l-0.8-4.5H1032.1L1032.1,434.6z M1035.2,416.5l-2.3,13.4
		h4.3L1035.2,416.5z"/>
	<path class="st2" d="M1063.2,409.8l5.2,17.9v-17.9h5.3v29.4h-5.9l-5.2-16.8v16.8h-5.2v-29.4H1063.2L1063.2,409.8z"/>
	<path class="st2" d="M1100.9,414.6h-4.6v24.5h-5.7v-24.5h-4.5v-4.8h14.8V414.6z"/>
	<path class="st2" d="M1127.2,411.8c2.1,2.8,2.8,6.2,2.8,13c0,6.2-0.8,9.7-2.8,12.4c-1.4,1.8-3.6,2.8-5.9,2.7
		c-2.3,0.1-4.6-0.9-6.1-2.7c-2.1-2.8-2.8-6.2-2.8-12.7s0.8-10,2.8-12.7c2.9-3.3,8-3.7,11.3-0.7
		C1126.7,411.3,1126.9,411.5,1127.2,411.8z M1118.2,424.4c0,8,0.7,10.4,3,10.4s2.9-2.5,2.9-10.3c0-8.2-0.7-10.6-3-10.6
		S1118.2,416.4,1118.2,424.4L1118.2,424.4z"/>
	<path class="st2" d="M1153.2,417.6c-0.3-2.5-1.2-3.8-2.8-3.8c-1.4,0-2.5,1.1-2.5,2.4c0,0.1,0,0.1,0,0.2c0,1.5,0.7,2.5,3.1,4.6
		l2.7,2.3c3.2,2.7,4.4,4.9,4.4,7.9c0,5.1-3.4,8.5-8.5,8.5c-4.5,0-7.5-2.7-8.2-7.5l5.3-1.3c0.4,2.5,1.5,3.7,3.2,3.7
		c1.5-0.1,2.6-1.3,2.6-2.7c0,0,0-0.1,0-0.1c0-1.5-0.8-2.7-3.1-4.6l-2.9-2.4c-1.1-0.9-2-1.9-2.9-3.1c-1.1-1.4-1.6-3.2-1.5-5
		c0-4.8,3.2-8,8.1-8c4.3,0,6.9,2.2,7.9,6.9L1153.2,417.6z"/>
	<path class="st2" d="M1177.3,433.8l-3.4,9.2h-4.5l2.7-9.2H1177.3L1177.3,433.8z"/>
	<path class="st2" d="M1218,409.8c5.5,0,8.6,2.5,8.6,7.1c0,3.6-1.8,5.7-5.2,6.4c4,1.1,5.7,3.3,5.7,7.3c0,5.5-3.5,8.5-9.9,8.5h-6.9
		v-29.4H1218L1218,409.8z M1217.1,421.5c2,0.1,3.8-1.5,3.9-3.5c0.1-2-1.5-3.8-3.5-3.9c-0.1,0-0.3,0-0.4,0h-1.2v7.4H1217.1z
		 M1217.1,434.6c2.6,0,4.1-1.6,4.1-4.4s-1.5-4.3-4.1-4.3h-1.2v8.7L1217.1,434.6L1217.1,434.6z"/>
	<path class="st2" d="M1250.2,418.3c-0.3-2.9-1.1-4.4-2.3-4.4c-2,0-2.8,3.1-2.8,11.1c0,7.4,0.7,10.1,2.6,10.1c1.5,0,2.2-1.5,2.6-5.3
		l5,1.9c-0.6,5.1-3.7,8.3-7.8,8.3c-2.8,0.1-5.3-1.6-6.5-4.1c-1.2-2.6-1.6-5.5-1.6-10.9c0-5.1,0.3-8.2,1.3-10.7
		c1.1-3.1,4-5.2,7.3-5.2c2.8-0.1,5.4,1.5,6.5,4.1c0.5,1.2,0.8,2.5,0.9,3.7L1250.2,418.3z"/>
	<path class="st2" d="M1278.4,417.6c-0.3-2.5-1.2-3.8-2.8-3.8c-1.4,0-2.5,1.1-2.5,2.4c0,0.1,0,0.1,0,0.2c0,1.5,0.7,2.5,3.1,4.6
		l2.7,2.3c3.2,2.7,4.4,4.9,4.4,7.9c0,5.1-3.4,8.5-8.5,8.5c-4.5,0-7.5-2.7-8.2-7.5l5.3-1.3c0.4,2.5,1.5,3.7,3.2,3.7
		c1.5-0.1,2.6-1.3,2.6-2.7c0,0,0-0.1,0-0.1c0-1.5-0.8-2.7-3.1-4.6l-2.9-2.4c-1.1-0.9-2-1.9-2.9-3.1c-1.1-1.4-1.6-3.2-1.5-5
		c0-4.8,3.2-8,8.1-8c4.3,0,6.9,2.2,7.9,6.9L1278.4,417.6z"/>
</g>
<g id="O_CHAPO_WEDDING">
	<g id="TEXT">
		<path class="st3" d="M0,307.2c0-6.4,1.3-12.8,3.8-18.7C8.6,277,17.8,267.8,29.4,263c11.9-5,25.4-5,37.3,0
			c11.5,4.9,20.7,14.1,25.6,25.6c5,11.9,5,25.4,0,37.3c-4.9,11.6-14.1,20.7-25.6,25.6c-5.9,2.5-12.3,3.8-18.7,3.8
			c-6.4,0-12.8-1.2-18.7-3.8c-11.5-4.9-20.7-14.1-25.6-25.6C1.2,320,0,313.6,0,307.2z M28.8,307.2c0,2.6,0.5,5.1,1.5,7.5
			c2,4.6,5.6,8.3,10.2,10.2c4.8,2,10.2,2,15,0c4.6-2,8.2-5.6,10.2-10.2c2-4.8,2-10.2,0-15c-2-4.6-5.6-8.3-10.2-10.2
			c-4.8-2-10.2-2-15,0c-4.6,2-8.3,5.6-10.2,10.2C29.3,302.1,28.8,304.7,28.8,307.2L28.8,307.2z"/>
		<path class="st3" d="M138.2,261.4h26.1l-14.7,37.1h-23.4L138.2,261.4z"/>
		<path class="st3" d="M194.5,307.2c-0.1-6.8,1.2-13.6,3.8-19.8c2.4-5.7,6-10.9,10.4-15.2c4.4-4.2,9.7-7.5,15.4-9.7
			c6-2.3,12.3-3.4,18.7-3.4c4.7-0.1,9.4,0.4,13.9,1.5c3.6,0.8,7.1,2,10.5,3.4c3.1,1.3,6,2.9,8.8,4.8l-14.4,25.4
			c-1.5-1.1-3.1-2.2-4.8-3.2c-1.8-0.8-3.7-1.5-5.6-2.1c-2.4-0.7-4.9-1-7.3-1c-2.7,0-5.3,0.5-7.8,1.5c-2.3,1-4.4,2.4-6.2,4.1
			c-1.8,1.7-3.2,3.8-4.2,6.1c-1,2.4-1.5,4.9-1.5,7.5c0,2.6,0.5,5.1,1.6,7.5c1,2.3,2.5,4.4,4.3,6.1c1.9,1.8,4.1,3.2,6.4,4.1
			c2.6,1,5.3,1.5,8.1,1.5c2.6,0,5.3-0.3,7.8-1.1c2-0.6,3.9-1.4,5.8-2.5c1.8-1,3.4-2.2,4.8-3.6l14.4,25.4c-2.7,2.1-5.6,3.9-8.8,5.4
			c-3.4,1.5-7,2.6-10.6,3.6c-4.6,1.2-9.4,1.7-14.1,1.6c-6.8,0.1-13.5-1.1-19.8-3.5c-5.8-2.2-11.1-5.5-15.6-9.8
			c-4.4-4.3-7.9-9.5-10.3-15.2C195.7,320.6,194.4,313.9,194.5,307.2z"/>
		<path class="st3" d="M308.3,261.4h29.2v31.1h16.3v-31.1h29.4v91.6h-29.4V319h-16.3v33.9h-29.2V261.4z"/>
		<path class="st3" d="M447.5,261.4h22l34.7,91.6h-28.9l-3-8.2h-27.8l-3,8.2h-28.8L447.5,261.4z M464.7,324.5l-6.2-16l-6.2,16H464.7
			L464.7,324.5z"/>
		<path class="st3" d="M605,296.2c0.2,5.6-1,11.1-3.3,16.1c-2.1,4.3-5.2,8-9,10.8c-4,2.8-8.5,4.9-13.3,6c-5.4,1.3-10.9,2-16.4,1.9
			v21.8h-29.2v-91.5h29.2c5.5,0,11,0.6,16.4,1.9c4.8,1.1,9.3,3.2,13.3,6c3.8,2.8,6.9,6.5,9,10.8C604,285.1,605.1,290.7,605,296.2z
			 M563,306.4h1.2c3.8,0,6.6-0.9,8.3-2.7c1.7-1.8,2.5-4.3,2.5-7.5c0-3.2-0.8-5.7-2.5-7.5s-4.5-2.7-8.3-2.7H563V306.4z"/>
		<path class="st3" d="M637.2,307.2c0-6.4,1.3-12.8,3.8-18.7c4.9-11.5,14.1-20.7,25.6-25.6c11.9-5,25.4-5,37.3,0
			c11.5,4.9,20.7,14.1,25.6,25.6c5,11.9,5,25.4,0,37.3c-4.9,11.5-14.1,20.7-25.6,25.6c-11.9,5-25.4,5-37.3,0
			c-11.5-4.9-20.7-14.1-25.6-25.6C638.5,320,637.2,313.6,637.2,307.2z M666.1,307.2c0,2.6,0.5,5.1,1.5,7.5c2,4.6,5.6,8.3,10.2,10.2
			c4.8,2,10.2,2,15,0c4.6-2,8.3-5.6,10.2-10.2c2-4.8,2-10.2,0-15c-2-4.6-5.7-8.3-10.3-10.2c-4.8-2-10.2-2-15,0
			c-4.6,2-8.3,5.6-10.2,10.2C666.5,302.1,666,304.7,666.1,307.2L666.1,307.2z"/>
		<path class="st3" d="M815.7,261.4h31l10.6,32l10.6-32h20l10.6,32l10.6-32h31l-30.2,91.6H887l-9.2-27.7l-9.2,27.7h-22.8
			L815.7,261.4z"/>
		<path class="st3" d="M969.5,261.4h53.9v24h-24.7v10.2h24.3v22.8h-24.3v10.6h25.7v24h-54.9V261.4z"/>
		<path class="st3" d="M1060.1,352.9v-91.6h25.4c7.8-0.1,15.5,0.9,23,2.9c6.2,1.7,12,4.6,17,8.6c4.6,3.9,8.3,8.8,10.6,14.4
			c4.8,12.8,4.8,26.9,0,39.7c-2.3,5.6-5.9,10.5-10.6,14.3c-5,4-10.8,7-17,8.7c-7.5,2.1-15.2,3.1-23,3L1060.1,352.9L1060.1,352.9z
			 M1089.4,326.9c6.9,0,12.2-1.6,15.9-4.9c3.7-3.2,5.6-8.2,5.6-14.9c0-6.7-1.9-11.6-5.6-14.8s-9.1-4.8-15.9-4.8V326.9L1089.4,326.9z
			"/>
		<path class="st3" d="M1174.8,352.9v-91.6h25.4c7.8-0.1,15.5,0.9,23,2.9c6.2,1.7,12,4.6,17,8.6c4.6,3.9,8.3,8.8,10.6,14.4
			c4.8,12.8,4.8,26.9,0,39.7c-2.3,5.6-5.9,10.5-10.6,14.3c-5,4-10.8,7-17,8.7c-7.5,2.1-15.2,3.1-23,3L1174.8,352.9L1174.8,352.9z
			 M1204,326.9c6.9,0,12.2-1.6,15.9-4.9c3.7-3.2,5.6-8.2,5.6-14.9c0-6.7-1.9-11.6-5.6-14.8c-3.8-3.2-9.1-4.8-15.9-4.8V326.9
			L1204,326.9z"/>
		<path class="st3" d="M1289.4,261.4h31v91.6h-31V261.4z"/>
		<path class="st3" d="M1357.5,261.4h24l25.3,35.3v-35.3h28.7v91.6h-24.2l-25.1-35.1v35.1h-28.7L1357.5,261.4L1357.5,261.4z"/>
		<path class="st3" d="M1530.8,292.5c-1.8-1.5-3.9-2.7-6.2-3.4c-2.4-0.8-4.8-1.2-7.3-1.2c-2.5,0-5,0.5-7.3,1.4
			c-2.2,0.9-4.1,2.3-5.7,4c-1.6,1.8-2.9,3.8-3.8,6.1c-0.9,2.5-1.4,5.1-1.4,7.7c0,2.6,0.5,5.3,1.5,7.7c0.9,2.3,2.3,4.4,4.1,6.1
			c1.8,1.7,3.8,3.1,6.1,4c2.4,1,4.9,1.5,7.5,1.4c3,0,5.9-0.7,8.5-2c2.6-1.3,4.8-3.2,6.6-5.4h-8.2v-19.2h35.3v30.5
			c-2.1,3.7-4.6,7.2-7.6,10.2c-2.9,3-6.2,5.7-9.8,7.9c-3.7,2.2-7.6,3.9-11.7,5.1c-25.4,7.3-51.9-7.3-59.2-32.7
			c-1.3-4.4-1.9-9-1.9-13.6c0-6.4,1.2-12.7,3.6-18.7c2.3-5.7,5.6-10.9,9.8-15.3c4.2-4.4,9.3-7.9,14.8-10.3
			c5.8-2.5,12.1-3.8,18.5-3.8c4.5-0.1,9,0.4,13.3,1.5c3.3,0.8,6.4,2,9.5,3.4c2.7,1.3,5.3,2.9,7.6,4.8L1530.8,292.5z"/>
	</g>
	<g id="INLINE">
		<path class="st4" d="M12.9,307.2c0,4.7,0.9,9.3,2.8,13.7c3.6,8.4,10.3,15.2,18.7,18.7c8.7,3.7,18.6,3.7,27.3,0
			c8.4-3.6,15.2-10.3,18.7-18.7c3.7-8.7,3.7-18.6,0-27.3c-3.6-8.4-10.3-15.2-18.7-18.7c-8.7-3.7-18.6-3.7-27.3,0
			c-8.4,3.6-15.2,10.3-18.7,18.7C13.8,297.9,12.9,302.5,12.9,307.2z M48,338.8c-4.2,0-8.4-0.8-12.3-2.5c-7.5-3.3-13.6-9.3-16.8-16.8
			c-3.3-7.9-3.3-16.7,0-24.6c3.2-7.6,9.3-13.6,16.8-16.8c7.9-3.3,16.7-3.3,24.6,0c7.6,3.2,13.6,9.3,16.8,16.8
			c3.3,7.9,3.3,16.7,0,24.6c-3.2,7.6-9.3,13.6-16.8,16.8C56.4,338,52.3,338.8,48,338.8z"/>
		<path class="st4" d="M137.7,293h3.4l10.3-26.1H148L137.7,293z"/>
		<path class="st4" d="M211.8,307.2c0-4.2,0.7-8.4,2.3-12.4c2.9-7.6,8.8-13.7,16.4-16.8c4.2-1.7,8.7-2.5,13.2-2.5
			c2.1,0,4.3,0.1,6.4,0.5c1.6,0.3,3.2,0.6,4.7,1.2c1.4,0.4,2.7,0.9,4,1.6l1.9-3.3c-1.5-0.7-3-1.3-4.7-1.8c-1.8-0.5-3.5-0.9-5.4-1.2
			c-2.3-0.4-4.7-0.6-7-0.5c-4.6,0-9.1,0.8-13.4,2.4c-4.2,1.6-8,4-11.3,7.1c-7,6.7-10.9,16-10.7,25.6c-0.1,5,0.9,9.9,2.8,14.5
			c1.8,4.2,4.4,7.9,7.8,11c3.3,3.1,7.3,5.5,11.5,7.1c4.5,1.7,9.2,2.5,14,2.5c2.5,0,5-0.2,7.4-0.7c1.9-0.4,3.8-0.9,5.6-1.5
			c1.6-0.6,3.2-1.3,4.7-2.2l-1.9-3.3c-1.3,0.9-2.7,1.6-4.1,2.1c-1.6,0.6-3.3,1.1-4.9,1.4c-2.2,0.4-4.5,0.6-6.7,0.6
			c-4.6,0.1-9.3-0.8-13.6-2.5c-3.8-1.5-7.3-3.8-10.2-6.7c-2.8-2.9-5-6.3-6.4-10C212.5,315.7,211.8,311.5,211.8,307.2z"/>
		<path class="st4" d="M325.6,342v-34.7H366V342h3.6v-69.6H366v31.6h-40.4v-31.6H322V342H325.6z"/>
		<path class="st4" d="M433.2,342l2.6-6.9h45.3l2.6,6.9h3.8l-26.5-69.6h-5.2L429.4,342H433.2z M458.5,275.7l21.4,56.1h-42.9
			L458.5,275.7z"/>
		<path class="st4" d="M591.6,296.2c0.1-3.7-0.6-7.4-2.1-10.7c-1.4-2.9-3.4-5.5-6-7.4c-2.7-2-5.8-3.5-9.1-4.3
			c-3.7-1-7.6-1.5-11.5-1.4h-15.5v69.6h3.6v-21.8h11.9c3.9,0,7.7-0.5,11.5-1.4c3.3-0.8,6.4-2.3,9.1-4.3c2.6-1.9,4.6-4.5,6-7.4
			C591,303.6,591.7,299.9,591.6,296.2z M587.8,296.2c0.1,3.4-0.6,6.8-2.1,9.9c-1.3,2.5-3.2,4.7-5.5,6.3c-2.4,1.6-5.1,2.7-7.9,3.4
			c-3.1,0.7-6.2,1-9.4,1H551v-41.1h11.9c3.2,0,6.3,0.3,9.4,1c2.8,0.6,5.5,1.8,7.9,3.4c2.3,1.6,4.2,3.8,5.5,6.3
			C587.2,289.4,587.9,292.8,587.8,296.2z"/>
		<path class="st4" d="M650.1,307.2c0,4.7,0.9,9.3,2.8,13.7c3.6,8.4,10.3,15.2,18.7,18.7c8.7,3.7,18.6,3.7,27.3,0
			c8.4-3.6,15.2-10.3,18.7-18.7c3.7-8.7,3.7-18.6,0-27.3c-3.6-8.4-10.3-15.2-18.7-18.7c-8.7-3.7-18.6-3.7-27.3,0
			c-8.4,3.6-15.2,10.3-18.7,18.7C651,297.9,650.1,302.5,650.1,307.2z M685.2,338.8c-4.2,0-8.4-0.8-12.3-2.5
			c-7.5-3.3-13.6-9.3-16.8-16.8c-3.3-7.9-3.3-16.7,0-24.6c3.2-7.6,9.3-13.6,16.8-16.8c7.9-3.3,16.7-3.3,24.6,0
			c7.6,3.2,13.6,9.3,16.8,16.8c3.3,7.9,3.3,16.7,0,24.6c-3.2,7.6-9.3,13.6-16.8,16.8C693.7,338,689.5,338.8,685.2,338.8z"/>
		<path class="st4" d="M859.6,342l18.3-57.5l18.3,57.5h3.4l22.9-69.6h-3.7l-20.9,63.3l-20-63.3l-20,63.3L837,272.4h-3.8l22.9,69.6
			H859.6L859.6,342z"/>
		<path class="st4" d="M1014.2,342v-3.3h-27.4v-30.1h26.1v-3.3h-26.1v-29.6h27.4v-3.3h-31V342L1014.2,342L1014.2,342z"/>
		<path class="st4" d="M1073.9,342h11.7c13.3,0,23.4-3,30.3-9.1s10.3-14.7,10.2-25.7c0-11.1-3.4-19.6-10.2-25.7
			c-6.8-6-16.9-9.1-30.3-9.1h-11.7V342z M1077.4,338.7v-63h8.1c11.6,0,20.7,2.6,27.1,7.9s9.7,13.1,9.7,23.5
			c0,10.4-3.2,18.3-9.7,23.6s-15.5,8-27.1,8L1077.4,338.7L1077.4,338.7z"/>
		<path class="st4" d="M1188.5,342h11.7c13.3,0,23.4-3,30.3-9.1s10.3-14.7,10.2-25.7c0-11.1-3.4-19.6-10.2-25.7
			c-6.8-6-16.9-9.1-30.3-9.1h-11.7V342z M1192,338.7v-63h8.1c11.6,0,20.7,2.6,27.1,7.9c6.5,5.3,9.7,13.1,9.7,23.5
			c0,10.4-3.2,18.3-9.7,23.6s-15.5,8-27.1,8L1192,338.7L1192,338.7z"/>
		<path class="st4" d="M1306.7,342v-69.6h-3.6V342H1306.7z"/>
		<path class="st4" d="M1373.8,342v-63.5l45.3,63.4h3.6v-69.6h-3.6v63.4l-45.3-63.4h-3.5v69.6L1373.8,342L1373.8,342z"/>
		<path class="st4" d="M1532.2,274.8c-1.3-0.6-2.6-1-4-1.4c-1.5-0.4-3-0.8-4.5-1c-1.9-0.3-3.8-0.4-5.8-0.4c-4.7,0-9.3,0.9-13.6,2.6
			c-4.1,1.7-7.8,4.1-11,7.2c-3.2,3.2-5.7,6.9-7.3,11c-1.8,4.5-2.7,9.4-2.7,14.3c-0.1,4.9,0.9,9.8,2.8,14.3c1.7,4.2,4.3,7.9,7.6,11
			c3.2,3.1,7,5.5,11.2,7.2c4.3,1.8,9,2.6,13.7,2.6c6,0.1,11.9-1.5,17.2-4.5c5.1-2.9,9.3-7,12.5-11.9v-18h-14.6v3.3h11V325
			c-5.8,8.7-15.6,13.8-26.1,13.7c-4.2,0-8.4-0.7-12.3-2.3c-7.6-3-13.7-8.9-16.8-16.5c-1.7-4.1-2.5-8.4-2.5-12.8
			c-0.1-4.4,0.8-8.8,2.4-12.8c1.5-3.7,3.7-7.1,6.6-10c2.8-2.8,6.1-5,9.8-6.5c3.9-1.5,8-2.3,12.2-2.3c1.6,0,3.1,0.1,4.7,0.4
			c1.5,0.3,2.7,0.5,3.8,0.8c1.3,0.4,2.5,0.7,3.6,1.1L1532.2,274.8z"/>
	</g>
</g>
<g id="SUNSET">
	<path class="st5" d="M775.2,40.4c4.1,1.2,8.5,1.2,12.7,0l11.5-3.2c2-0.6,3.2-2.6,2.6-4.6c-0.1-0.3-0.2-0.6-0.3-0.8L785.2,2.3
		c-1.1-2-3.7-2.8-5.7-1.6c-0.7,0.4-1.3,0.9-1.6,1.6l-16.3,29.4c-1,1.8-0.4,4.1,1.5,5.1c0.3,0.1,0.5,0.3,0.8,0.3L775.2,40.4z"/>
	<path class="st5" d="M863.8,77.1l10.3,5.8c1.8,1,4.1,0.4,5.1-1.4c0.1-0.3,0.3-0.5,0.3-0.8l9.2-32.3c0.6-2.2-0.7-4.6-2.9-5.2
		c-0.8-0.2-1.5-0.2-2.3,0l-32.3,9.2c-2,0.6-3.2,2.7-2.6,4.7c0.1,0.3,0.2,0.6,0.3,0.8l5.8,10.4C857,71.8,860.1,74.9,863.8,77.1z"/>
	<path class="st5" d="M689,82.9l10.3-5.8c3.7-2.1,6.8-5.2,9-8.9l5.8-10.3c1-1.8,0.4-4.1-1.4-5.1c-0.3-0.1-0.5-0.3-0.8-0.3l-32.3-9.2
		c-2.2-0.6-4.6,0.7-5.2,2.9c-0.2,0.8-0.2,1.5,0,2.3l9.2,32.3c0.6,2,2.6,3.2,4.6,2.6C688.5,83.1,688.8,83,689,82.9z"/>
	<path class="st5" d="M929.6,146.7l-29.4-16.4c-1.8-1-4.1-0.4-5.1,1.5c-0.1,0.3-0.3,0.5-0.3,0.8l-3.2,11.4c-1.2,4.1-1.2,8.5,0,12.7
		l2.7,9.6c4.2-2.2,8.2-4.8,12.1-7.6c4.6-3.4,10.8-3.5,15.5-0.3l7.8-4.4c2-1.1,2.8-3.7,1.6-5.7C930.9,147.6,930.3,147,929.6,146.7z"
		/>
	<path class="st5" d="M671.6,156.7c1.2-4.1,1.2-8.5,0-12.7l-3.2-11.5c-0.6-2-2.6-3.2-4.6-2.6c-0.3,0.1-0.6,0.2-0.8,0.3l-29.4,16.4
		c-2,1.1-2.8,3.7-1.6,5.7c0.4,0.7,0.9,1.3,1.6,1.6l7.2,4c4.7-2.9,10.6-2.7,15,0.6c4.1,3,8.5,5.8,13,8.1L671.6,156.7z"/>
	<path class="st6" d="M881.2,144l9.6-34.3c0.9-3.1-0.5-6.3-3.3-7.9l-31-17.5c-3.7-2.1-6.8-5.2-9-8.9l-17.5-31
		c-1.6-2.8-4.8-4.1-7.9-3.3L788,50.7c-4.1,1.2-8.5,1.2-12.7,0L741,41.1c-3.1-0.9-6.3,0.5-7.9,3.3l-17.5,31c-2.1,3.7-5.2,6.8-9,8.9
		l-31,17.5c-2.8,1.6-4.1,4.8-3.3,7.9L682,144c1.2,4.1,1.2,8.5,0,12.7l-3.9,13.9c4.6,1.5,9.4,2.3,14.2,2.3c2.7,0,5.4-0.3,8-0.8
		c-12.1-44.9,14.6-91.1,59.5-103.2c44.9-12.1,91.1,14.6,103.2,59.5c3.9,14.4,3.8,29.5,0,43.9c2.3,0.4,4.7,0.6,7,0.6
		c5.2,0,10.3-0.9,15.2-2.6l-3.9-13.6C880.1,152.5,880.1,148.1,881.2,144z"/>
	<path class="st5" d="M781.6,66.1c-46.5,0-84.2,37.7-84.2,84.3c0,7.3,1,14.7,2.9,21.7c9-1.7,18.4-6.1,28.5-13.5
		c4.7-3.5,11.2-3.5,15.9,0c13.1,9.6,25,14.3,36.5,14.3s23.3-4.7,36.5-14.3c4.7-3.5,11.2-3.5,15.9,0c10.5,7.7,20.2,12.2,29.5,13.7
		C875,127.4,848.4,81.2,803.5,69C796.4,67.1,789,66.1,781.6,66.1z M752.1,132c-2.2,0-4-1.8-4-4c0-4-3.2-7.2-7.2-7.2
		c-4,0-7.2,3.2-7.2,7.2c0,2.2-1.8,4-4,4s-4-1.8-4-4c0-8.4,6.8-15.2,15.2-15.2c8.4,0,15.2,6.8,15.2,15.2l0,0
		C756.1,130.2,754.3,132,752.1,132L752.1,132z M801,138.4c-2.8,10.7-13.8,17.1-24.5,14.3c-7-1.8-12.5-7.3-14.3-14.3
		c-0.6-2.1,0.7-4.3,2.9-4.9c0.3-0.1,0.7-0.1,1-0.1h31.1c2.2,0,4,1.8,4,4C801.2,137.7,801.1,138,801,138.4L801,138.4z M833.4,132
		c-2.2,0-4-1.8-4-4c0-4-3.2-7.2-7.2-7.2c-4,0-7.2,3.2-7.2,7.2c0,2.2-1.8,4-4,4s-4-1.8-4-4c0-8.4,6.8-15.2,15.2-15.2
		c8.4,0,15.2,6.8,15.2,15.2l0,0C837.4,130.2,835.6,132,833.4,132L833.4,132L833.4,132z"/>
	<path class="st7" d="M797.2,133.3H766c-2.2,0-4,1.8-4,4c0,0.3,0,0.7,0.1,1c2.8,10.7,13.8,17.1,24.5,14.3c7-1.8,12.5-7.3,14.3-14.3
		c0.6-2.1-0.7-4.3-2.9-4.9C797.8,133.4,797.5,133.3,797.2,133.3z"/>
	<path class="st8" d="M740.9,112.8c-8.4,0-15.1,6.8-15.2,15.2c0,2.2,1.8,4,4,4s4-1.8,4-4c0-4,3.2-7.2,7.2-7.2c4,0,7.2,3.2,7.2,7.2
		l0,0c0,2.2,1.8,4,4,4s4-1.8,4-4C756.1,119.6,749.3,112.8,740.9,112.8z"/>
	<path class="st8" d="M822.2,112.8c-8.4,0-15.1,6.8-15.2,15.2c0,2.2,1.8,4,4,4s4-1.8,4-4c0-4,3.2-7.2,7.2-7.2c4,0,7.2,3.2,7.2,7.2
		l0,0c0,2.2,1.8,4,4,4s4-1.8,4-4C837.4,119.6,830.6,112.8,822.2,112.8z"/>
	<path class="st9" d="M1047.5,220.4c-16.6,0-32-4.6-44.3-13.4c0,0-0.1,0-0.1,0c-12.4,8.7-27.7,13.4-44.3,13.4s-32-4.6-44.3-13.4
		c0,0-0.1,0-0.1,0c-12.4,8.7-27.7,13.4-44.3,13.4s-32-4.6-44.3-13.4c0,0-0.1,0-0.1,0c-12.4,8.7-27.7,13.4-44.3,13.4
		s-32-4.6-44.3-13.4c0,0-0.1,0-0.1,0c-12.4,8.7-27.7,13.4-44.3,13.4s-32-4.6-44.3-13.4c0,0-0.1,0-0.1,0
		c-12.4,8.7-27.7,13.4-44.3,13.4s-32-4.6-44.3-13.4c0,0-0.1,0-0.1,0c-12.4,8.7-27.7,13.4-44.3,13.4c-3.3,0-6-2.7-6-6s2.7-6,6-6
		c14.1,0,27.1-3.9,37.4-11.2c4.2-3,9.8-3,14,0c10.3,7.3,23.3,11.2,37.4,11.2s27.1-3.9,37.4-11.2c4.2-3,9.8-3,14,0
		c10.3,7.3,23.3,11.2,37.4,11.2s27.1-3.9,37.4-11.2c4.2-3,9.8-3,14,0c10.3,7.3,23.3,11.2,37.4,11.2s27.1-3.9,37.4-11.2
		c4.2-3,9.8-3,14,0c10.3,7.3,23.3,11.2,37.4,11.2s27-3.9,37.3-11.2c4.2-3,9.8-3,14,0c10.3,7.3,23.3,11.2,37.4,11.2
		s27.1-3.9,37.4-11.2c4.2-3,9.8-3,14,0c10.3,7.3,23.3,11.2,37.4,11.2c3.3,0,6,2.7,6,6S1050.8,220.4,1047.5,220.4z"/>
	<path class="st10" d="M1047.5,196.9c-14.8,0-30.1-5.5-44.2-15.9c-0.1-0.1-0.2-0.1-0.3,0c-14.1,10.4-29.4,15.9-44.2,15.9
		s-30.1-5.5-44.2-15.9c-0.1-0.1-0.2-0.1-0.3,0c-14.1,10.4-29.4,15.9-44.2,15.9s-30.1-5.5-44.2-15.9c-0.1-0.1-0.2-0.1-0.3,0
		c-14.1,10.4-29.4,15.9-44.2,15.9s-30.1-5.5-44.2-15.9c-0.1-0.1-0.2-0.1-0.3,0c-14.1,10.4-29.4,15.9-44.2,15.9s-30.1-5.5-44.2-15.9
		c-0.1-0.1-0.2-0.1-0.3,0c-14.1,10.4-29.4,15.9-44.2,15.9s-30.1-5.5-44.2-15.9c-0.1-0.1-0.2-0.1-0.3,0
		c-14.1,10.4-29.4,15.9-44.2,15.9c-3.3,0-6-2.7-6-6s2.7-6,6-6c15.5,0,28.7-7.4,37.1-13.6c4.3-3.2,10.3-3.2,14.6,0
		c8.4,6.2,21.6,13.6,37.1,13.6s28.7-7.4,37.1-13.6c4.3-3.2,10.3-3.2,14.6,0c8.4,6.2,21.6,13.6,37.1,13.6s28.7-7.4,37.1-13.6
		c4.3-3.2,10.3-3.2,14.6,0c8.4,6.2,21.6,13.6,37.1,13.6s28.7-7.4,37.1-13.6c4.3-3.2,10.3-3.2,14.6,0c8.4,6.2,21.6,13.6,37.1,13.6
		s28.7-7.4,37.1-13.6c4.3-3.2,10.3-3.2,14.6,0c8.4,6.2,21.6,13.6,37.1,13.6s28.7-7.4,37.1-13.6c4.3-3.2,10.3-3.2,14.6,0
		c8.4,6.2,21.6,13.6,37.1,13.6c3.3,0,6,2.7,6,6S1050.8,196.9,1047.5,196.9z"/>
</g>
</svg>
