<svg id="Layer_1" data-name="Layer 1" xmlns="http://www.w3.org/2000/svg" viewBox="0 0 1560.5 96.31"><defs><style>.cls-1{fill:#fbfced;}.cls-2{fill:#3ba8df;}</style></defs><title>ochapo-wedding-type</title><g id="O_CHAPO_WEDDING" data-name="O CHAPO WEDDING"><g id="TEXT"><path class="cls-1" d="M0,48.21a48.09,48.09,0,0,1,3.8-18.7A47.38,47.38,0,0,1,29.4,4,48,48,0,1,1,48,96.31a46.34,46.34,0,0,1-18.7-3.8A48.56,48.56,0,0,1,3.7,66.91,48,48,0,0,1,0,48.21Zm28.8,0a19.2,19.2,0,0,0,26.7,17.7,19.22,19.22,0,0,0,10.2-25.2,19.21,19.21,0,0,0-10.2-10.2,19.5,19.5,0,0,0-15,0,19.21,19.21,0,0,0-10.2,10.2,19.68,19.68,0,0,0-1.5,7.5h0Z"/><path class="cls-1" d="M138.2,2.41h26.1l-14.7,37.1H126.2Z"/><path class="cls-1" d="M194.5,48.21a49.53,49.53,0,0,1,3.8-19.8,45.12,45.12,0,0,1,25.8-24.9A52,52,0,0,1,242.8.11a53.87,53.87,0,0,1,13.9,1.5A64.32,64.32,0,0,1,267.2,5a50.09,50.09,0,0,1,8.8,4.8l-14.4,25.4a57.17,57.17,0,0,0-4.8-3.2,53.66,53.66,0,0,0-5.6-2.1,26.22,26.22,0,0,0-7.3-1,20.81,20.81,0,0,0-7.8,1.5,21.58,21.58,0,0,0-6.2,4.1,18.49,18.49,0,0,0-4.2,6.1,19.31,19.31,0,0,0-1.5,7.5,17.75,17.75,0,0,0,1.6,7.5,18.76,18.76,0,0,0,4.3,6.1,20,20,0,0,0,6.4,4.1,22.37,22.37,0,0,0,8.1,1.5,25.81,25.81,0,0,0,7.8-1.1,26.75,26.75,0,0,0,5.8-2.5,21.53,21.53,0,0,0,4.8-3.6l14.4,25.4a46.12,46.12,0,0,1-8.8,5.4,77.78,77.78,0,0,1-10.6,3.6,51.76,51.76,0,0,1-14.1,1.6,53.35,53.35,0,0,1-19.8-3.5,44.71,44.71,0,0,1-25.9-25A48.92,48.92,0,0,1,194.5,48.21Z"/><path class="cls-1" d="M308.3,2.41h29.2v31.1h16.3V2.41h29.4V94H353.8V60H337.5v33.9H308.3V2.41Z"/><path class="cls-1" d="M447.5,2.41h22L504.2,94H475.3l-3-8.2H444.5l-3,8.2H412.7Zm17.2,63.1-6.2-16-6.2,16h12.4Z"/><path class="cls-1" d="M605,37.21a35.52,35.52,0,0,1-3.3,16.1,29.49,29.49,0,0,1-9,10.8,38.13,38.13,0,0,1-13.3,6A65.06,65.06,0,0,1,563,72v21.8H533.8V2.31H563a70,70,0,0,1,16.4,1.9,38.13,38.13,0,0,1,13.3,6,29.49,29.49,0,0,1,9,10.8A37.93,37.93,0,0,1,605,37.21Zm-42,10.2h1.2c3.8,0,6.6-.9,8.3-2.7s2.5-4.3,2.5-7.5-0.8-5.7-2.5-7.5S568,27,564.2,27H563v20.4Z"/><path class="cls-1" d="M637.2,48.21a48,48,0,1,1,92.3,18.6,48,48,0,0,1-88.5,0A47.23,47.23,0,0,1,637.2,48.21Zm28.9,0a18.72,18.72,0,1,0,1.4-7.5,17.85,17.85,0,0,0-1.4,7.5h0Z"/><path class="cls-1" d="M815.7,2.41h31l10.6,32,10.6-32h20l10.6,32,10.6-32h31L909.9,94H887l-9.2-27.7L868.6,94H845.8Z"/><path class="cls-1" d="M969.5,2.41h53.9v24H998.7v10.2H1023v22.8H998.7V70h25.7V94H969.5V2.41Z"/><path class="cls-1" d="M1060.1,93.91V2.31h25.4a84.85,84.85,0,0,1,23,2.9,47.13,47.13,0,0,1,17,8.6,37.8,37.8,0,0,1,10.6,14.4,56.52,56.52,0,0,1,0,39.7,35.77,35.77,0,0,1-10.6,14.3,47.35,47.35,0,0,1-17,8.7,81.18,81.18,0,0,1-23,3h-25.4Zm29.3-26c6.9,0,12.2-1.6,15.9-4.9s5.6-8.2,5.6-14.9-1.9-11.6-5.6-14.8-9.1-4.8-15.9-4.8v39.4h0Z"/><path class="cls-1" d="M1174.8,93.91V2.31h25.4a84.85,84.85,0,0,1,23,2.9,47.13,47.13,0,0,1,17,8.6,37.8,37.8,0,0,1,10.6,14.4,56.52,56.52,0,0,1,0,39.7,35.77,35.77,0,0,1-10.6,14.3,47.35,47.35,0,0,1-17,8.7,81.18,81.18,0,0,1-23,3h-25.4Zm29.2-26c6.9,0,12.2-1.6,15.9-4.9s5.6-8.2,5.6-14.9-1.9-11.6-5.6-14.8-9.1-4.8-15.9-4.8v39.4h0Z"/><path class="cls-1" d="M1289.4,2.41h31V94h-31V2.41Z"/><path class="cls-1" d="M1357.5,2.41h24l25.3,35.3V2.41h28.7V94h-24.2l-25.1-35.1V94h-28.7V2.41h0Z"/><path class="cls-1" d="M1530.8,33.51a17.87,17.87,0,0,0-6.2-3.4,22.8,22.8,0,0,0-7.3-1.2,20.16,20.16,0,0,0-7.3,1.4,16.36,16.36,0,0,0-5.7,4,20.21,20.21,0,0,0-3.8,6.1,22.77,22.77,0,0,0-1.4,7.7,20.31,20.31,0,0,0,1.5,7.7,16.85,16.85,0,0,0,4.1,6.1,19,19,0,0,0,6.1,4,17.56,17.56,0,0,0,7.5,1.4,19,19,0,0,0,8.5-2,20.37,20.37,0,0,0,6.6-5.4h-8.2V40.71h35.3v30.5a47.53,47.53,0,0,1-7.6,10.2,49.92,49.92,0,0,1-9.8,7.9,50.64,50.64,0,0,1-11.7,5.1,47.91,47.91,0,0,1-61.1-46.3,50.15,50.15,0,0,1,3.6-18.7,48.25,48.25,0,0,1,9.8-15.3,45.9,45.9,0,0,1,14.8-10.3A46.75,46.75,0,0,1,1517,0a49.38,49.38,0,0,1,13.3,1.5,53.79,53.79,0,0,1,9.5,3.4,37.5,37.5,0,0,1,7.6,4.8Z"/></g><g id="INLINE"><path class="cls-2" d="M12.9,48.21a34.28,34.28,0,0,0,2.8,13.7,35.11,35.11,0,1,0,0-27.3A33.46,33.46,0,0,0,12.9,48.21ZM48,79.81a30.75,30.75,0,0,1-12.3-2.5,32.43,32.43,0,0,1-16.8-16.8,31.59,31.59,0,1,1,41.4,16.8A30.41,30.41,0,0,1,48,79.81Z"/><path class="cls-2" d="M137.7,34h3.4l10.3-26.1H148Z"/><path class="cls-2" d="M211.8,48.21a33.24,33.24,0,0,1,2.3-12.4A29.46,29.46,0,0,1,230.5,19a35.18,35.18,0,0,1,13.2-2.5,34.52,34.52,0,0,1,6.4.5,24.92,24.92,0,0,1,4.7,1.2,19.66,19.66,0,0,1,4,1.6l1.9-3.3a32.73,32.73,0,0,0-4.7-1.8,47.06,47.06,0,0,0-5.4-1.2,33,33,0,0,0-7-.5,38.25,38.25,0,0,0-13.4,2.4,34.21,34.21,0,0,0-22,32.7,36,36,0,0,0,2.8,14.5,31.58,31.58,0,0,0,7.8,11,35.14,35.14,0,0,0,11.5,7.1,39.38,39.38,0,0,0,14,2.5,36.4,36.4,0,0,0,7.4-.7,51.18,51.18,0,0,0,5.6-1.5,28.64,28.64,0,0,0,4.7-2.2l-1.9-3.3a17.68,17.68,0,0,1-4.1,2.1,30.06,30.06,0,0,1-4.9,1.4,37.93,37.93,0,0,1-6.7.6,35.27,35.27,0,0,1-13.6-2.5,30.14,30.14,0,0,1-10.2-6.7,29.48,29.48,0,0,1-6.4-10A29.22,29.22,0,0,1,211.8,48.21Z"/><path class="cls-2" d="M325.6,83V48.31H366V83h3.6V13.41H366V45H325.6V13.41H322V83h3.6Z"/><path class="cls-2" d="M433.2,83l2.6-6.9h45.3l2.6,6.9h3.8L461,13.41h-5.2L429.4,83h3.8Zm25.3-66.3,21.4,56.1H437Z"/><path class="cls-2" d="M591.6,37.21a24.37,24.37,0,0,0-2.1-10.7,19.66,19.66,0,0,0-6-7.4,25.43,25.43,0,0,0-9.1-4.3,40.29,40.29,0,0,0-11.5-1.4H547.4V83H551V61.21h11.9a49.58,49.58,0,0,0,11.5-1.4,25.43,25.43,0,0,0,9.1-4.3,19.66,19.66,0,0,0,6-7.4A25.83,25.83,0,0,0,591.6,37.21Zm-3.8,0a21.28,21.28,0,0,1-2.1,9.9,17.58,17.58,0,0,1-5.5,6.3,25.22,25.22,0,0,1-7.9,3.4,42.28,42.28,0,0,1-9.4,1H551V16.71h11.9a42.28,42.28,0,0,1,9.4,1,23.1,23.1,0,0,1,7.9,3.4,17.58,17.58,0,0,1,5.5,6.3A20.62,20.62,0,0,1,587.8,37.21Z"/><path class="cls-2" d="M650.1,48.21a34.28,34.28,0,0,0,2.8,13.7,35.11,35.11,0,1,0,0-27.3A33.46,33.46,0,0,0,650.1,48.21Zm35.1,31.6a30.75,30.75,0,0,1-12.3-2.5,32.43,32.43,0,0,1-16.8-16.8,31.59,31.59,0,1,1,41.4,16.8A30.07,30.07,0,0,1,685.2,79.81Z"/><path class="cls-2" d="M859.6,83l18.3-57.5L896.2,83h3.4l22.9-69.6h-3.7l-20.9,63.3-20-63.3-20,63.3L837,13.41h-3.8L856.1,83h3.5Z"/><path class="cls-2" d="M1014.2,83v-3.3H986.8V49.61h26.1v-3.3H986.8V16.71h27.4v-3.3h-31V83h31Z"/><path class="cls-2" d="M1073.9,83h11.7c13.3,0,23.4-3,30.3-9.1s10.3-14.7,10.2-25.7-3.4-19.6-10.2-25.7-16.9-9.1-30.3-9.1h-11.7V83Zm3.5-3.3v-63h8.1c11.6,0,20.7,2.6,27.1,7.9s9.7,13.1,9.7,23.5-3.2,18.3-9.7,23.6-15.5,8-27.1,8h-8.1Z"/><path class="cls-2" d="M1188.5,83h11.7c13.3,0,23.4-3,30.3-9.1s10.3-14.7,10.2-25.7-3.4-19.6-10.2-25.7-16.9-9.1-30.3-9.1h-11.7V83Zm3.5-3.3v-63h8.1c11.6,0,20.7,2.6,27.1,7.9s9.7,13.1,9.7,23.5-3.2,18.3-9.7,23.6-15.5,8-27.1,8H1192Z"/><path class="cls-2" d="M1306.7,83V13.41h-3.6V83h3.6Z"/><path class="cls-2" d="M1373.8,83V19.51l45.3,63.4h3.6V13.31h-3.6v63.4l-45.3-63.4h-3.5v69.6l3.5,0.1h0Z"/><path class="cls-2" d="M1532.2,15.81a27,27,0,0,0-4-1.4,36.32,36.32,0,0,0-4.5-1,38.3,38.3,0,0,0-19.4,2.2,34.93,34.93,0,0,0-11,7.2,32.08,32.08,0,0,0-7.3,11,38.65,38.65,0,0,0-2.7,14.3,35.08,35.08,0,0,0,2.8,14.3,31.05,31.05,0,0,0,7.6,11,34.71,34.71,0,0,0,11.2,7.2,35.51,35.51,0,0,0,13.7,2.6,33.77,33.77,0,0,0,17.2-4.5,36.51,36.51,0,0,0,12.5-11.9v-18h-14.6v3.3h11V66a30.9,30.9,0,0,1-26.1,13.7,32.37,32.37,0,0,1-12.3-2.3,29.93,29.93,0,0,1-16.8-16.5,33.17,33.17,0,0,1-2.5-12.8,32.73,32.73,0,0,1,2.4-12.8,30,30,0,0,1,6.6-10,29.46,29.46,0,0,1,9.8-6.5,33.87,33.87,0,0,1,12.2-2.3,24.87,24.87,0,0,1,4.7.4c1.5,0.3,2.7.5,3.8,0.8,1.3,0.4,2.5.7,3.6,1.1Z"/></g></g></svg>