<?xml version="1.0" encoding="utf-8"?>
<!-- Generator: Adobe Illustrator 19.2.1, SVG Export Plug-In . SVG Version: 6.00 Build 0)  -->
<svg version="1.1" id="Layer_1" xmlns="http://www.w3.org/2000/svg" xmlns:xlink="http://www.w3.org/1999/xlink" x="0px" y="0px"
	 width="21.6px" height="21.6px" viewBox="0 0 21.6 21.6" style="enable-background:new 0 0 21.6 21.6;" xml:space="preserve">
<style type="text/css">
	.st0{fill:#FDFFED;}
</style>
<path class="st0" d="M11.6,3.4l1.3,2.2c0.7,1.2,1.8,2.3,3,3L18,9.8c0.9,0.5,0.9,1.8,0,2.3l-2.2,1.3c-1.2,0.7-2.3,1.8-3,3l-1.3,2.2
	c-0.5,0.9-1.8,0.9-2.3,0L8,16.4c-0.7-1.2-1.8-2.3-3-3l-2.2-1.3C2,11.6,2,10.3,2.9,9.8L5,8.5c1.2-0.7,2.3-1.8,3-3l1.3-2.2
	C9.8,2.5,11.1,2.5,11.6,3.4z"/>
</svg>
