<svg xmlns="http://www.w3.org/2000/svg" width="276.92" height="9.035" viewBox="0 0 553.84 18.07">
  <defs>
    <style>
      .cls-1 {
        fill: none;
        stroke: #1eabf0;
        stroke-linecap: round;
        stroke-width: 6px;
        fill-rule: evenodd;
      }
    </style>
  </defs>
  <path id="Shape_14_copy_6" data-name="Shape 14 copy 6" class="cls-1" d="M2418.94,2750.91a62.916,62.916,0,0,0,26.69-5.94l12.44-5.82,12.44,5.82a62.933,62.933,0,0,0,53.38,0l12.43-5.82,12.43,5.82a62.991,62.991,0,0,0,53.39,0l12.43-5.82,12.44,5.82a62.933,62.933,0,0,0,53.38,0l12.44-5.82,12.44,5.82a62.933,62.933,0,0,0,53.38,0l12.44-5.82,12.45,5.82a62.933,62.933,0,0,0,53.38,0l12.44-5.82,12.45,5.82a62.946,62.946,0,0,0,53.37.01l12.46-5.83,12.46,5.83a63.044,63.044,0,0,0,26.68,5.93" transform="translate(-2415.94 -2735.84)"/>
</svg>
