<svg id="Layer_1" data-name="Layer 1" xmlns="http://www.w3.org/2000/svg" viewBox="0 0 619.03 382.7"><defs><style>.cls-1{fill:#adb1b2;}.cls-2{fill:#c4c8c8;}.cls-3{fill:#edece3;}.cls-4{fill:#5c5952;}.cls-5{fill:#f6f9fa;}</style></defs><title>bull-shark</title><path class="cls-1" d="M155.36,213.46s-5.83,20.72-20,22.05a85.93,85.93,0,0,1-26.28-1.76s13.27-8.55,14.17-19.07-5.53-13.27-5.77-17.2S120,186.88,120,186.88Z" transform="translate(-11.19 -13.82)"/><path class="cls-1" d="M215.85,247s-16,2.46-24.54,4.06-32.13,14.62-39.4,15c0,0,1-17.73,11.26-22a11.27,11.27,0,0,1,2.19-13.86c6.68-6.66,8.44-3.18,8.44-3.18Z" transform="translate(-11.19 -13.82)"/><path class="cls-2" d="M389,146.5s101.91,29.78,153.3,56.07,90.16,45,87.79,55.25c-3.73,16.07-53.67,29.3-98.72,33.23,0,0-220.43,2.38-296.14-30.32-76.51-33-95.89-46.86-128.17-75.9,0,0-4.43,16.93-28.5,31.81-25.26,15.61-47,19.46-50.7,17.58,0,0,26.19-28.83,33-71.4,0,0-12.92-46.11-38.45-77.69,0,0,8.86-20.53,5.19-22.41s-15.27,5.36-15.27,5.36L12,46.09C11.88,42,10.11,18.63,12.21,14s72.84,88.74,88,121c0,0,13.78,11.41,29.23,6.77s-1.33-20.84.48-28.63,39.84,31.82,62.93,34.09,54.64,3.43,80.88-7.94c0,0,19-33.05,20.13-60.25s-5-31.7,6.58-37.24,40.44,38.12,52.93,59.49S381.12,144.13,389,146.5Z" transform="translate(-11.19 -13.82)"/><path class="cls-1" d="M194.5,204.06S121.44,180.45,92.2,151.6C92.2,151.6,112.22,187,194.5,204.06Z" transform="translate(-11.19 -13.82)"/><path class="cls-1" d="M385.37,261.24s-10.47-22.81,7.34-42.46C391.36,217.35,386.65,240.35,385.37,261.24Z" transform="translate(-11.19 -13.82)"/><path class="cls-1" d="M398.62,264.16s-9-21.28,6.85-43.19C405.46,221,400,244.67,398.62,264.16Z" transform="translate(-11.19 -13.82)"/><path class="cls-1" d="M411.86,267.08s-4.94-27,7.07-46.92C418.93,220.15,415.8,249,411.86,267.08Z" transform="translate(-11.19 -13.82)"/><path class="cls-1" d="M425.11,270s-6.41-25.69,9.9-46.11C435,223.88,427.86,249.94,425.11,270Z" transform="translate(-11.19 -13.82)"/><path class="cls-1" d="M438.36,272.91s-4.93-26.8,10.64-48.86C449,224.06,440.09,254.31,438.36,272.91Z" transform="translate(-11.19 -13.82)"/><path class="cls-3" d="M575.14,252.16s-15.52-3.43-18.74-1.06C556.4,251.1,567.27,268.71,575.14,252.16Z" transform="translate(-11.19 -13.82)"/><path class="cls-4" d="M565.66,248.82c-4.92.18-6.82,9.1,0.39,7.85S569.28,248.69,565.66,248.82Z" transform="translate(-11.19 -13.82)"/><path class="cls-1" d="M575.14,252.16l-19.61-1.51S564.38,239.3,575.14,252.16Z" transform="translate(-11.19 -13.82)"/><path class="cls-5" d="M630.11,257.81s-124,39-214.81,27.71c-32.3-4-75.9-2.08-121.86-12.32C221,257.07,142.13,216.84,107.08,184.82c0,0,95,86,245.08,117.72,74,15.62,122,16,154.06,15.87,32.43-.16,52-4.59,54.07-16.62,2.59-15.24-31.79-9.36-31.79-9.36s60.54-8,78.34-16.14C629.32,266,630.11,257.81,630.11,257.81Z" transform="translate(-11.19 -13.82)"/><path class="cls-1" d="M420.25,290.95C417.82,312.52,277,397.18,245.35,396.51s-35.56-8.24-35.56-8.24,46.76-31.25,56.33-46,18.73-32.1,18.73-32.1l16.19-3.43-15.21-3s0.39-12.74-2.94-16.08-8.42-5.18-7.48-9.51S302.24,271,323.54,274C363.81,279.66,422.06,274.94,420.25,290.95Z" transform="translate(-11.19 -13.82)"/><path class="cls-1" d="M609.26,269.7s-3.58-7.79-8,.75C601.26,270.45,607.64,269,609.26,269.7Z" transform="translate(-11.19 -13.82)"/></svg>