<svg id="rover" xmlns="http://www.w3.org/2000/svg" viewBox="0 0 441.09 188.72"><defs><style>.cls-1,.cls-26{fill:#e5e1cf;}.cls-2{fill:#a9a493;}.cls-3{fill:#999484;}.cls-4{fill:#c6c3b9;}.cls-5{fill:#4d4b43;}.cls-6{fill:#ec612e;}.cls-7{fill:#e2c51b;}.cls-8{fill:#d4d0bf;}.cls-9{fill:#1197cc;}.cls-10{fill:#c4a614;}.cls-11{fill:#1eabf1;}.cls-12{fill:#20ceac;}.cls-13{fill:#eeede4;}.cls-14{fill:#1b403e;}.cls-15{fill:#fac89e;}.cls-16{fill:#f8f8f7;}.cls-17{fill:#764633;}.cls-18{fill:#dca568;}.cls-19{fill:#166180;}.cls-20,.cls-21,.cls-27{fill:none;}.cls-21{stroke:#166180;stroke-width:0.5px;}.cls-21,.cls-26,.cls-27{stroke-miterlimit:10;}.cls-22{fill:#d4d2c9;}.cls-23{fill:#754532;}.cls-24{fill:#0faa8c;}.cls-25{fill:#12aa8c;}.cls-26{stroke:#e5e1cf;}.cls-27{stroke:#a8a493;stroke-linecap:round;stroke-width:10px;}</style></defs><title>moon-rover</title><path class="cls-1" d="M441.09,58.81C189.08,23.58,0,48.11,0,48.11V188.22H441.09V58.81Z" transform="translate(0 0.5)"/><path class="cls-2" d="M250.34,149.11L46.36,68.2l7.06-.89,200.83,70.56C254,139.14,250.34,149.11,250.34,149.11Z" transform="translate(0 0.5)"/><polygon class="cls-2" points="324.13 106.6 70.99 63.45 66.01 64.49 318.65 121.23 324.13 106.6"/><path class="cls-3" d="M137.46,55.83V11.52s1.33-2,3.67,0V55.69S140.06,56.9,137.46,55.83Z" transform="translate(0 0.5)"/><path class="cls-4" d="M209,46.2s-0.26-14.93-.46-14.93H205V30.35s3.37,0.26,3.37,0-0.13-1.06-.13-1.06H210v1.06h0.76v0.86H210l0.46,14.66Z" transform="translate(0 0.5)"/><path class="cls-2" d="M336,89.53s9.15,13.09,3.87,23.79-16,7.84-16,7.84L327,89.53h9Z" transform="translate(0 0.5)"/><path class="cls-5" d="M335.62,113.44c-2.3,7.15-10,7.76-13.34,7.78-17,.09-24-31.76-3.43-33.8C336.12,85.7,337.92,106.29,335.62,113.44Z" transform="translate(0 0.5)"/><path class="cls-6" d="M331,101.29s11.1-1.32,12.95-2.51S337.73,79.1,323.07,80s-18,15.85-17.3,19.55S331,101.29,331,101.29Z" transform="translate(0 0.5)"/><path class="cls-4" d="M316,108.19s2.25,7.12,9,5.65,5.71-8.82,5.58-9.61c-0.08-.46-1.28-8.52-9.2-8.52C314.68,95.71,314.88,105.05,316,108.19Z" transform="translate(0 0.5)"/><path class="cls-2" d="M194.94,64.57V50.3s-4-5.55.73-5.55c4.42,0,1,5.55,1,5.55V64.57S196.26,65.36,194.94,64.57Z" transform="translate(0 0.5)"/><path class="cls-4" d="M253.55,42.15l-0.36-11.34-1.94,0L251,27.3a15.06,15.06,0,0,1,2.13-.12V20.37h1.94L255.4,27h1.87s0.15,1.11.22,3.62l-2,.12v14Z" transform="translate(0 0.5)"/><path class="cls-7" d="M201.32,62.45s-1.23-12.42-.83-13.21a10.74,10.74,0,0,1,3.7-2.64c0.4,0,14.13-2.77,14.93-2.51s6.68,1.45,6.68,2.24,3.39,11.56,2.2,12.22S201.32,62.45,201.32,62.45Z" transform="translate(0 0.5)"/><path class="cls-7" d="M233.61,54.5s-1.23-12.42-.83-13.21a10.74,10.74,0,0,1,3.7-2.64c0.4,0,14.13-2.77,14.93-2.51s6.15,1,6.15,1.77,2.5,12.25,1.31,12.91S233.61,54.5,233.61,54.5Z" transform="translate(0 0.5)"/><path class="cls-4" d="M185.26,90.9s1.88-18.28,1-18.81-5.72-1.45-5.63-2.25-0.22-3.83,0-4S249,51.22,249.1,51.75s29.72,37.25,33.29,42c1.14,1.52,3.2-2.32,10,0,8.72,3,22.69,11.11,22.69,11.11,5.64,2.08,7.26,5.47,7,5.6-0.79.46-51.85,18.64-53.47,18.23S242,117.54,242,117.54s-56.19-12.68-57.25-14.36S185.26,90.9,185.26,90.9Z" transform="translate(0 0.5)"/><path class="cls-2" d="M223.87,56.77s-14.66,2.77-16.38,2.77-7-1.19-7.93,1.32,2,30.51,5.68,32.95,22.77,6.88,24.1,6.56,19.69-7,18.61-8S231,84.45,228.84,80,223.87,56.77,223.87,56.77Z" transform="translate(0 0.5)"/><path class="cls-2" d="M259,48.23S242.26,51,240.4,51s-7.57-1.19-8.57,1.32S234,82.83,238,85.27s9.93,11.56,24,4.36c1.3-.67,17.57-7.68,16.39-8.74s-12.5-5-14.87-9.45S259,48.23,259,48.23Z" transform="translate(0 0.5)"/><path class="cls-8" d="M258.93,77.17s7-2.41,11.26-1.25c1.61,0.44,3,.48,3.86,1.25,1.47,1.32,1.09,1.59,1.4,3.11,0.18,0.9.43,1.34,0.62,2.34,0.93,4.75,1.52,10.29,1,11.24-0.86,1.49-3.09.64-3.09,0.64s-4.74-4.44-4.8-8.16c0-2,.71-1.9.15-2.49s-5.88.44-7.74-.1a8.69,8.69,0,0,1-4-3.88A2.16,2.16,0,0,1,258.93,77.17Z" transform="translate(0 0.5)"/><path class="cls-9" d="M270.19,75.92s-0.52,6-1.6,8.07a0.8,0.8,0,0,0,.73-0.14c1.33-1.28,3-7.52,2.73-7.67A4.8,4.8,0,0,0,270.19,75.92Z" transform="translate(0 0.5)"/><path class="cls-9" d="M269.2,84.89c0.11-.1,4.41-1.15,6.56-3.46,0.35-.38-0.26-2-0.4-1.71-0.29.56-5.55,4.65-6,4.14Z" transform="translate(0 0.5)"/><path class="cls-2" d="M271,90.69s5.21-2.74,6-2.42c0,0,.71,3.1,2,3.47s4.32-.16,4.9-0.28,1.43,0.84,1.55,1.31a7.11,7.11,0,0,1,.34,2.25c-0.15.12-9.68,5-11.23,3.14a9.93,9.93,0,0,1-1-2.78C273.32,94.7,270.81,90.76,271,90.69Z" transform="translate(0 0.5)"/><path class="cls-1" d="M285.78,96.23c-0.07.87-2.57,1.49-4.3,2.1-2.88,1-5.51,2.07-6,1.58a3.72,3.72,0,0,1-1-1.76s7.86-2,8.9-2.41c2.16-.8,2.21-2,2.21-2S285.94,94.18,285.78,96.23Z" transform="translate(0 0.5)"/><path class="cls-10" d="M271.5,91.76l5.72-2.58a2.32,2.32,0,0,0-.26-0.92c-0.34-.58-6,2.32-6,2.42A5.33,5.33,0,0,0,271.5,91.76Z" transform="translate(0 0.5)"/><path class="cls-9" d="M272.57,93.59c0,0.1,5.78-2.24,5.78-2.24a11,11,0,0,1-.69-1.07c0-.08-5.68,2.31-5.68,2.31A8.52,8.52,0,0,1,272.57,93.59Z" transform="translate(0 0.5)"/><path class="cls-1" d="M247.21,81.67s7.29,0,11.65-.42c1.66-.15,3-0.61,4-0.2,1.84,0.72,1.58,1.1,2.41,2.41,0.49,0.77.87,1.1,1.41,2,2.55,4.12,5.06,9.09,4.88,10.17C271.33,97.3,269,97.3,269,97.3s-6-2.48-7.37-5.93c-0.72-1.81,0-2-.74-2.38s-5.35,2.5-7.28,2.64a8.69,8.69,0,0,1-5.15-2.2C247.12,87.74,247.21,81.67,247.21,81.67Z" transform="translate(0 0.5)"/><path class="cls-9" d="M258.86,81.25s1.66,5.47,1.38,7.79c0,0,.44.3,0.61-0.05,0.79-1.67,0-8.63-.33-8.69C259.7,80.13,258.85,81.38,258.86,81.25Z" transform="translate(0 0.5)"/><path class="cls-9" d="M261.1,90c0-.15,3.72-2.64,4.92-5.56,0.19-.47-0.94-1.74-1-1.46-0.07.62-3.55,6.32-4.2,6A3.43,3.43,0,0,1,261.1,90Z" transform="translate(0 0.5)"/><path class="cls-7" d="M265.69,95.61l4.44-4.43a2.32,2.32,0,0,0-.57-0.76c-0.52-.42-4.79,4.29-4.75,4.38A5.33,5.33,0,0,0,265.69,95.61Z" transform="translate(0 0.5)"/><path class="cls-9" d="M267.34,96.94c0.07,0.07,4.61-4.14,4.61-4.14a11,11,0,0,1-1-.76c-0.07-.06-4.5,4.17-4.5,4.17A8.52,8.52,0,0,1,267.34,96.94Z" transform="translate(0 0.5)"/><path class="cls-1" d="M246.59,57.61a12.77,12.77,0,0,1-3,6.34c-1.32,1.3,2.36,6.92,2.69,12.16,0.36,5.81.91,8.79,1.18,9.07,0.51,0.52,16.47-8.28,16.47-8.28s-2.22-3.44-3.13-5,1-13.08-.4-13.55a46.18,46.18,0,0,1-5.93-3.5s2.53,6-1.41,7.09S245.75,58.16,246.59,57.61Z" transform="translate(0 0.5)"/><path class="cls-11" d="M246.46,78.41s7,0.51,15.79-5l1.67,3.44s-7.44,5.72-17,6.13C246.95,83,245.78,82,246.46,78.41Z" transform="translate(0 0.5)"/><path class="cls-11" d="M245.94,60.14l2.6,1.45c3.53,13.19,1.74,15.13.6,20.46l-2.32.1s1-16.13-1.76-21.52" transform="translate(0 0.5)"/><path class="cls-11" d="M248.32,69.54c0.22,0.65,5.44,3.13,9.41-1.34l1.15,3.23s-6.21,3.29-10.46,2.36Z" transform="translate(0 0.5)"/><path class="cls-1" d="M251.09,75.82a4.78,4.78,0,0,1-.78-1,5.34,5.34,0,0,0,0-1.28c-0.09-.52-0.25-1.29-0.25-1.29s-0.65-7.45-1.35-8.51c-0.39-.6-1.65-3.34-3.66-3.07s-2.47,3.27-2.51,4.14,0,6.55,1.51,7.89a8,8,0,0,0,2,5.13s1.35,3.07,3.47,3.71a3.29,3.29,0,0,0,3.09.53,32,32,0,0,0,4.13.09,11.88,11.88,0,0,0,2.61-.65,10.57,10.57,0,0,1,2.44.06s4.22,0.92,5.06-.09c0.15-.18.12-0.84-0.17-0.78,0.05-.06-1,0.15-1,0.13s0.85-.16,1.05-0.26,0.24-1.4-.24-1.21a1.06,1.06,0,0,1-.55.22,2.66,2.66,0,0,0,.56-0.28,1.09,1.09,0,0,0-.08-1.49l-0.61.51a2.35,2.35,0,0,0,.66-0.77s0.23-.32-0.47-1.17c-0.17-.21-0.19.34-1.3,0.67a5.86,5.86,0,0,0,.62-1.77,0.68,0.68,0,0,0-.74-0.54c-0.28.09-1.35,1.72-1.91,1.72-0.4,0-6.34-.45-9.93-0.61A14.33,14.33,0,0,0,251.09,75.82Z" transform="translate(0 0.5)"/><path class="cls-7" d="M246,77.79s3.26-.33,4.26-3a1.59,1.59,0,0,1,.78,1s-1.38,3.14-4.28,3.42A2.58,2.58,0,0,1,246,77.79Z" transform="translate(0 0.5)"/><path class="cls-7" d="M246.65,64.87c-2.38-1.08-3.56,3.06-1.28,4.2,2.85,1.43,3.66-3.12,1.28-4.2" transform="translate(0 0.5)"/><path class="cls-12" d="M259.58,76.2s1.09,3.19-.11,5.24l2.33,0.3s2.11-.82.62-5.54A6.74,6.74,0,0,0,259.58,76.2Z" transform="translate(0 0.5)"/><polygon class="cls-11" points="246.51 68.81 246.13 67.94 245.9 68.83 245.25 68.85 246.04 66.86 247.24 68.79 246.51 68.81"/><polygon class="cls-11" points="245.4 68.82 246.45 65.93 246.26 65.82 245.14 68.85 245.4 68.82"/><polygon class="cls-11" points="245.55 66 247.16 68.78 247.36 68.81 245.66 65.88 245.55 66"/><path class="cls-9" d="M251.09,75.82s0.05,3.57-1.91,5.55a1.63,1.63,0,0,0,1.69.74s2.85-2.06,1.49-6.32A1.37,1.37,0,0,0,251.09,75.82Z" transform="translate(0 0.5)"/><path class="cls-12" d="M258.91,76.19s2.24,1.77,4.46,1.46l-0.72,1.86s-1.56,1.36-4.92-1.16A5.72,5.72,0,0,1,258.91,76.19Z" transform="translate(0 0.5)"/><path class="cls-1" d="M264.46,74.87c1.19-2-.06-5.55-0.12-5.8a4.92,4.92,0,0,0-.3-1.2c-0.21-.45-0.55-1.12-0.55-1.12s-0.36-2.54-1-3.18c0,0-.57-4.28-1.88-5.27-0.54-.41-1.45-1-3.3-0.12s-0.59,4.54-.41,5.36a37.73,37.73,0,0,0,1.42,5.82s0,3.79,2.38,5" transform="translate(0 0.5)"/><path class="cls-13" d="M264.47,72.11l-4.38-.55a12.4,12.4,0,0,0-.78,1.16c-1.55,2.67-4,7.17-4.17,7.46S253,80.8,252.84,81a0.49,0.49,0,0,0,.09.73,6.23,6.23,0,0,0,1.74.18c-0.8.68-1.25,0.51-1.16,0.71,0.37,0.81.74,0.76,0.74,0.76a2.63,2.63,0,0,0,.94-0.21l-0.7.26c0,0.43.86,0.74,1.19,0.59a2.78,2.78,0,0,0,.49-0.31,1.11,1.11,0,0,1-.44.32c-0.38.29,0.63,0.77,0.88,0.61s0.73-.77.71-0.67-0.67.73-.59,0.72c-0.18.19,0.35,0.44,0.56,0.4,1.22-.25,2.45-3.66,2.45-3.66a8.91,8.91,0,0,1,1.1-1.8,11.46,11.46,0,0,0,1.76-1.67,27,27,0,0,0,1.87-3c0.44-2.78,0-2.76,0-2.76" transform="translate(0 0.5)"/><path class="cls-7" d="M258.4,70.52c0.47,0.7,5.35-.48,5.85-2a4.4,4.4,0,0,1,.42,2,8.81,8.81,0,0,1-5.95,1.57A2.19,2.19,0,0,1,258.4,70.52Z" transform="translate(0 0.5)"/><path class="cls-7" d="M260.49,60.65a1.07,1.07,0,0,1,1.42,0,14.2,14.2,0,0,1,.93,3.21,0.55,0.55,0,0,1-.39.36c-2.18,1.41-3.81-2.5-2-3.57" transform="translate(0 0.5)"/><polygon class="cls-11" points="261.51 64.13 261.66 63.35 262.05 64.11 262.61 64.09 261.52 62.41 260.88 64.15 261.51 64.13"/><polygon class="cls-11" points="262.47 64.07 260.98 61.62 261.12 61.51 262.7 64.08 262.47 64.07"/><polygon class="cls-11" points="261.77 61.63 260.94 64.14 260.77 64.18 261.65 61.53 261.77 61.63"/><path class="cls-9" d="M258.8,73.64c2.12,2.66,5.71,1,5.71,1a1.79,1.79,0,0,0,.46-1.69,4.7,4.7,0,0,1-5.87-.15A2,2,0,0,0,258.8,73.64Z" transform="translate(0 0.5)"/><path class="cls-1" d="M244.74,58.82s-5.1-11.77,3.75-13.37,9.23,10.25,9.23,10.25,0,5-4.81,6.41S244.74,58.82,244.74,58.82Z" transform="translate(0 0.5)"/><path class="cls-11" d="M254.73,61.2s3,2.12,4.13,17.38l1.77-1.4S261,65.68,256.78,59Z" transform="translate(0 0.5)"/><path class="cls-14" d="M252.25,51.37" transform="translate(0 0.5)"/><path class="cls-14" d="M248.93,51.79" transform="translate(0 0.5)"/><path class="cls-14" d="M248.17,52.35" transform="translate(0 0.5)"/><path class="cls-5" d="M250.34,48.23c3.86-.21,6.11,3.6,6.12,5s-1,5.4-4.88,5.72-6.91-2.2-6.88-4.7S247.18,48.4,250.34,48.23Z" transform="translate(0 0.5)"/><path class="cls-15" d="M250.32,59.43a2.15,2.15,0,0,0,0-.81c-0.06-.49-1-0.5-1.53-1.07a8,8,0,0,1-.92-1.29,1.87,1.87,0,0,1-.72-0.36c-0.16-.21-1.43-2.53-1.08-3s0.65,0.15.65,0.15-0.84-4.32,3.09-4.66,5.06,3.81,5.14,4.47-0.3,3.46-1,4.22l-0.85,1a1,1,0,0,0,.14,1" transform="translate(0 0.5)"/><path class="cls-11" d="M249.75,56.26a3.86,3.86,0,0,1,1.23-.33,0.71,0.71,0,0,1,.37.18,1.17,1.17,0,0,1,.52-0.29,11.8,11.8,0,0,1,1.24,0,2.59,2.59,0,0,1-1.55,1.32A2.1,2.1,0,0,1,249.75,56.26Z" transform="translate(0 0.5)"/><path class="cls-16" d="M250,56.38A5.18,5.18,0,0,0,252.9,56,2.61,2.61,0,0,1,250,56.38Z" transform="translate(0 0.5)"/><path class="cls-17" d="M253.07,51.92a4.3,4.3,0,0,1,1,.44l-1.22-.25a6.61,6.61,0,0,0-1.11.12,0.43,0.43,0,0,1-.37-0.19A4.26,4.26,0,0,1,253.07,51.92Z" transform="translate(0 0.5)"/><path class="cls-17" d="M250.1,52.24a0.42,0.42,0,0,1-.32.27,6.37,6.37,0,0,0-1.12.11c-0.26.13-1.13,0.51-1.13,0.51a4.17,4.17,0,0,1,.92-0.67A4.1,4.1,0,0,1,250.1,52.24Z" transform="translate(0 0.5)"/><path class="cls-18" d="M251.59,55.18a0.4,0.4,0,0,1-.64.13c-0.33-.19-0.07-0.37,0-0.48a3.13,3.13,0,0,0-.25-1.62,5.32,5.32,0,0,1,.4,1.61c-0.1.32-.28,0.27-0.08,0.43A0.59,0.59,0,0,0,251.59,55.18Z" transform="translate(0 0.5)"/><path class="cls-16" d="M250.09,53.35a1.06,1.06,0,0,0-1.63.2A1.33,1.33,0,0,0,250.09,53.35Z" transform="translate(0 0.5)"/><path class="cls-19" d="M249.23,53c-0.53.06-.38,0.68,0.08,0.66C249.93,53.65,249.77,53,249.23,53Z" transform="translate(0 0.5)"/><path class="cls-20" d="M247.95,53.26" transform="translate(0 0.5)"/><path class="cls-20" d="M248.49,53.51" transform="translate(0 0.5)"/><path class="cls-19" d="M248.33,53a0.8,0.8,0,0,0,.31.28,0.63,0.63,0,0,0,.08-0.1A0.66,0.66,0,0,1,248.33,53Z" transform="translate(0 0.5)"/><path class="cls-19" d="M248.14,53.07a0.54,0.54,0,0,0,.41.36,1.27,1.27,0,0,0,.1-0.12A0.6,0.6,0,0,1,248.14,53.07Z" transform="translate(0 0.5)"/><path class="cls-19" d="M248,53.2a0.59,0.59,0,0,0,.47.36l0.1-.12A0.85,0.85,0,0,1,248,53.2Z" transform="translate(0 0.5)"/><path class="cls-21" d="M253.58,53" transform="translate(0 0.5)"/><path class="cls-21" d="M251.88,53.11" transform="translate(0 0.5)"/><path class="cls-19" d="M248.45,53.55s0.53-1.28,1.68-.17A1.08,1.08,0,0,0,248.45,53.55Z" transform="translate(0 0.5)"/><path class="cls-16" d="M251.83,53.21a1.06,1.06,0,0,1,1.63-.2A1.33,1.33,0,0,1,251.83,53.21Z" transform="translate(0 0.5)"/><path class="cls-19" d="M252.59,52.68c0.53-.07.53,0.57,0.08,0.66C252.05,53.46,252.05,52.75,252.59,52.68Z" transform="translate(0 0.5)"/><path class="cls-20" d="M253.89,52.61" transform="translate(0 0.5)"/><path class="cls-20" d="M253.42,53" transform="translate(0 0.5)"/><path class="cls-19" d="M253.46,52.46a0.8,0.8,0,0,1-.24.34,0.63,0.63,0,0,1-.1-0.08A0.66,0.66,0,0,0,253.46,52.46Z" transform="translate(0 0.5)"/><path class="cls-19" d="M253.65,52.47a0.54,0.54,0,0,1-.31.45l-0.12-.1A0.6,0.6,0,0,0,253.65,52.47Z" transform="translate(0 0.5)"/><path class="cls-19" d="M253.84,52.56a0.59,0.59,0,0,1-.37.46l-0.12-.1A0.85,0.85,0,0,0,253.84,52.56Z" transform="translate(0 0.5)"/><path class="cls-19" d="M253.47,53s-0.82-1.12-1.67.24A1.08,1.08,0,0,1,253.47,53Z" transform="translate(0 0.5)"/><path class="cls-11" d="M244.07,53.86s2.64,4.51,6.87,4.24,5.53-4.86,5.53-4.86,0.82,6-5.24,6.63S244.07,53.86,244.07,53.86Z" transform="translate(0 0.5)"/><path class="cls-11" d="M243.73,52.83c2.32-.22,2.56,3.56.44,3.28L243.85,56a5.07,5.07,0,0,1-.62-3C243.24,52.85,243.54,52.85,243.73,52.83Z" transform="translate(0 0.5)"/><path class="cls-11" d="M256.46,50.73a0.43,0.43,0,0,1,.32,0c0.45,0.45.78,1.44,0.78,3.22a2.4,2.4,0,0,1-.66.06C254.78,53.73,255.18,50.85,256.46,50.73Z" transform="translate(0 0.5)"/><path class="cls-2" d="M247.91,56.27s-3-6.22,2.56-6.81c4.31-.45,4.33,5.37,4.24,5.86,0,0,1.61-1,.18-4.54-0.77-1.9-2.17-3.32-4.78-2.92-3,.47-4.23,2.32-4.26,4.17C245.79,56,247.91,56.27,247.91,56.27Z" transform="translate(0 0.5)"/><path class="cls-11" d="M244.25,55.43S245.87,50,250,49.29s6.41,3.8,6.41,3.8-0.68-6.53-6.7-5.66S244.25,55.43,244.25,55.43Z" transform="translate(0 0.5)"/><path class="cls-7" d="M244.06,53.91c0.8,0,1.15,1.21.19,1.12A0.57,0.57,0,0,1,244.06,53.91Z" transform="translate(0 0.5)"/><path class="cls-2" d="M262.51,81.5s3.35,3.11,3.35,5.26a51.36,51.36,0,0,1-1.1,7.17l3.13,0.6a72,72,0,0,0,.94-7.65c0-3.59-3.07-6.81-3.07-6.81Z" transform="translate(0 0.5)"/><path class="cls-7" d="M256.61,51.79c0.8,0,1.15,1.21.19,1.12A0.57,0.57,0,0,1,256.61,51.79Z" transform="translate(0 0.5)"/><path class="cls-7" d="M251.76,71.94s-2.6,10.64-2.5,10.88,5.6,2.15,6.2,1.79,7.05-3.47,7.05-3.47v-5Z" transform="translate(0 0.5)"/><path class="cls-10" d="M251.76,71.94s8-2.39,8.84-2.39,6.1,4.9,6.69,5.5-0.12,5.08-.6,5.47-7.82,2.3-7.82,2.3,1.24-4.52.76-5.74C259.48,76.68,251.76,71.94,251.76,71.94Z" transform="translate(0 0.5)"/><path class="cls-5" d="M260.3,94.59c1.7,0.18,1.7,2.24,0,2.24A1.13,1.13,0,1,1,260.3,94.59Z" transform="translate(0 0.5)"/><path class="cls-3" d="M261,102.64s-1.51,8.62,0,8.82,28.46,9.21,30.14,8.92,15.26-4.85,15.26-4.85l12.94-8.42s-0.51-7.63-.66-8c-0.35-.9-22.09-5.85-23.08-5.75S261,102.64,261,102.64Z" transform="translate(0 0.5)"/><path class="cls-2" d="M203.66,102.44s-1.72-7.57,0-7.27,29.59,6,29.59,7.27,0.4,8.87-.53,8.75S203.94,103.83,203.66,102.44Z" transform="translate(0 0.5)"/><path class="cls-2" d="M261,102.64s29.1,7.42,29.72,7.32,28.3-10.77,28-10.89c-6.89-2.43-22-6-23.08-5.75S261.93,101.75,261,102.64Z" transform="translate(0 0.5)"/><path class="cls-10" d="M307.09,118.59c0.59,0,18.76-7.4,18.76-8.06s-0.4-7.32-1.19-7.36S311,100,309.78,100.4s-19.08,6.84-19.08,7.1-0.13,8.45.4,8.85S306.56,118.6,307.09,118.59Z" transform="translate(0 0.5)"/><path class="cls-3" d="M283.18,95.16s-0.4,6,0,6.39,5.28,2.57,6.74,2.34,7-1.81,7.79-2.87,0-6.34,0-6.34-6.56-2.25-7.18-2.25S283.22,94.47,283.18,95.16Z" transform="translate(0 0.5)"/><path class="cls-7" d="M294.27,95.16a8.21,8.21,0,0,1-8.19,1.11s1.85-12.42,1.06-15.19l-9.78-4.62s-0.53-2.64,2.64-6.08l24.57,7.89S306,83.72,301,86l-8.59-3S291.76,92.21,294.27,95.16Z" transform="translate(0 0.5)"/><path class="cls-22" d="M318.3,102.48l-2.63-63s4.23-4,5.68-6.87c0,0-10.17,1.19-14.4.79,0,0,3.7,4.89,5.42,6.08l3.17,63h2.76Z" transform="translate(0 0.5)"/><path class="cls-1" d="M313.16,35.31l-0.51-20.14h-0.79l0.2-3.57s-1.55.37-1.8,0c-0.06-.09-0.52-1.33.26-1.45,2.12-.33.95-3.3,2.41-3.3s0.57,3.24,2.5,3.05c0.9-.09.39,1.73,0.27,1.73l-1.54,0,0.33,3.57h-0.66l0.76,19.52Z" transform="translate(0 0.5)"/><path class="cls-7" d="M340.38,22.29S329.54,34.2,314.62,34.12C300.84,34,286,26.26,286,26.26s7,0.59,12.11-2c0,0,8.23,4.16,13.85-.4,0,0,7.93,4.37,13.94,0C325.85,23.88,331.72,26.46,340.38,22.29Z" transform="translate(0 0.5)"/><path class="cls-4" d="M204.65,107.1s-8.45,1.39-7.93,2.68c0.36,0.88,9.22-1.65,9.22-1.65Z" transform="translate(0 0.5)"/><path class="cls-3" d="M259.3,91.35c0.4,0,9.11-1.19,9.71-1.09s8.32,7.23,8.42,7.63,0.79,6.34.5,6.84-7.93,2.38-8.42,2.38-10.2-2.38-10.2-2.67V91.35Z" transform="translate(0 0.5)"/><path class="cls-2" d="M257,82.8s2.48,2.35,2.48,4.46-1.18,17.42-1.18,17.42l4.06,1.8S263,88,262.7,85.77s-3.35-6.41-3.35-6.41Z" transform="translate(0 0.5)"/><path class="cls-4" d="M234.65,114.89s-6.43,2.65-5.77,3.7,7.57-3,7.57-3Z" transform="translate(0 0.5)"/><path class="cls-2" d="M178.56,118.79s12.09,4.26,14.56-10.11-3.57-17.35-3.57-17.35Z" transform="translate(0 0.5)"/><path class="cls-23" d="M168.06,102.31s-3.57,1.48-3.67,1S163.31,95.55,164,93s3.57-10.4,9.91-9.11S168.06,102.31,168.06,102.31Z" transform="translate(0 0.5)"/><path class="cls-5" d="M175.58,85.11c11.65-.79,20.28,34.6,3.37,34.48C165.74,119.49,161.74,86,175.58,85.11Z" transform="translate(0 0.5)"/><path class="cls-6" d="M186.88,109.48s7.13,1,10.3-2.67c0,0-2.58-24.27-16.25-25.46-11.08-1-15.06,3.47-16.94,11.69,0,0,3.07-11.1,11.89-6.84S186.88,109.48,186.88,109.48Z" transform="translate(0 0.5)"/><path class="cls-1" d="M174,91.45c8.93-1.94,14.53,22.86,4.16,23.78C168.52,116.08,165.18,93.36,174,91.45Z" transform="translate(0 0.5)"/><path class="cls-2" d="M176.32,99.67a7.08,7.08,0,0,1,2.93,7.83s-4,.3-4.56,0-1.68-3.07-1.68-4.66Z" transform="translate(0 0.5)"/><path class="cls-7" d="M307.55,110.67s18.21-7.31,17.66-7.4-14.59-3.16-15.42-2.87-19.87,6.71-19.08,7.1S306,110.67,307.55,110.67Z" transform="translate(0 0.5)"/><path class="cls-1" d="M286,72.29s-3.18,2.82-3,6.83l-2.84-1.34s-0.53-4.51,2.9-6.42Z" transform="translate(0 0.5)"/><path class="cls-8" d="M228.75,85.26s8-1.72,12.52.12c1.7,0.7,3.23.92,4.07,1.88,1.44,1.64,1,1.89,1.13,3.6,0.08,1,.29,1.53.37,2.65,0.39,5.34.31,11.49-.41,12.46-1.14,1.52-3.47.3-3.47,0.3s-4.61-5.5-4.19-9.58c0.22-2.15,1-2,.5-2.71s-6.51-.29-8.48-1.13a9.61,9.61,0,0,1-3.93-4.79A2.38,2.38,0,0,1,228.75,85.26Z" transform="translate(0 0.5)"/><path class="cls-24" d="M241.27,85.38s-1.36,6.52-2.82,8.64a0.89,0.89,0,0,0,.82-0.05c1.63-1.23,4.26-7.86,4-8.06C242.55,85.33,241.19,85.5,241.27,85.38Z" transform="translate(0 0.5)"/><path class="cls-24" d="M239,95.09c0.14-.1,5-0.68,7.66-2.93,0.43-.37,0-2.19-0.21-1.93-0.39.57-6.71,4.38-7.18,3.74Z" transform="translate(0 0.5)"/><path class="cls-2" d="M240.18,101.69s6.08-2.32,6.89-1.87c0,0,.37,3.5,1.71,4.07s4.76,0.39,5.42.34,1.46,1.11,1.53,1.64a7.86,7.86,0,0,1,.08,2.51c-0.18.11-11.28,4.2-12.73,2a11,11,0,0,1-.73-3.18C242.24,106.39,240,101.75,240.18,101.69Z" transform="translate(0 0.5)"/><path class="cls-1" d="M255.7,109.72c-0.19.94-3,1.3-5,1.74-3.3.73-6.32,1.55-6.8,0.95a4.11,4.11,0,0,1-.83-2.06s8.89-1.18,10.08-1.47c2.47-.59,2.69-1.94,2.69-1.94S256.15,107.49,255.7,109.72Z" transform="translate(0 0.5)"/><path class="cls-10" d="M240.62,102.94l6.61-2.08a2.57,2.57,0,0,0-.17-1c-0.3-.68-6.89,1.76-6.89,1.87A5.9,5.9,0,0,0,240.62,102.94Z" transform="translate(0 0.5)"/><path class="cls-24" d="M241.55,105.08c0,0.11,6.63-1.7,6.63-1.7a12.17,12.17,0,0,1-.62-1.27c0-.09-6.54,1.79-6.54,1.79A9.42,9.42,0,0,1,241.55,105.08Z" transform="translate(0 0.5)"/><path class="cls-1" d="M216.38,87.6s7.9,1.59,12.71,2.11c1.83,0.2,3.36,0,4.43.68,1.83,1.18,1.47,1.54,2.08,3.14,0.36,0.95.7,1.39,1.09,2.44,1.85,5,3.48,11,3,12.09-0.68,1.77-3.25,1.25-3.25,1.25s-6-4-6.67-8c-0.38-2.12.43-2.2-.27-2.74s-6.34,1.52-8.46,1.26a9.61,9.61,0,0,1-5.1-3.52C214.95,94.16,216.38,87.6,216.38,87.6Z" transform="translate(0 0.5)"/><path class="cls-12" d="M229.09,89.72s0.59,6.29-.22,8.74c0,0,.41.42,0.67,0.08,1.22-1.63,1.85-9.36,1.55-9.48C230.24,88.68,229.05,89.85,229.09,89.72Z" transform="translate(0 0.5)"/><path class="cls-12" d="M229.59,99.67c0-.17,4.61-2,6.55-4.93,0.32-.47-0.64-2.1-0.74-1.79-0.22.66-5.23,6.06-5.87,5.58A3.79,3.79,0,0,1,229.59,99.67Z" transform="translate(0 0.5)"/><path class="cls-2" d="M232.55,105.69s5.2-3.91,6.11-3.7c0,0,1.32,3.26,2.77,3.44s4.69-.94,5.3-1.17,1.7,0.66,1.92,1.16a7.86,7.86,0,0,1,.77,2.39c-0.14.16-9.68,7.15-11.69,5.41a11,11,0,0,1-1.58-2.86C235.83,109.64,232.39,105.8,232.55,105.69Z" transform="translate(0 0.5)"/><path class="cls-1" d="M249.69,109.12c0.08,1-2.54,2.08-4.32,3.05-3,1.61-5.64,3.23-6.27,2.79a4.11,4.11,0,0,1-1.36-1.75s8.22-3.6,9.28-4.2c2.21-1.25,2-2.61,2-2.61S249.5,106.85,249.69,109.12Z" transform="translate(0 0.5)"/><path class="cls-7" d="M233.32,106.77l5.78-3.83a2.57,2.57,0,0,0-.45-1c-0.47-.57-6.13,3.59-6.11,3.7A5.9,5.9,0,0,0,233.32,106.77Z" transform="translate(0 0.5)"/><path class="cls-12" d="M234.81,108.57c0.06,0.1,5.91-3.46,5.91-3.46a12.17,12.17,0,0,1-.95-1c-0.06-.08-5.79,3.53-5.79,3.53A9.42,9.42,0,0,1,234.81,108.57Z" transform="translate(0 0.5)"/><path class="cls-1" d="M219,60.54s-5.7-.74-7,3.45c-0.6,2,4.54,11,4.21,16.8-0.36,6.42-.16,9.77.11,10.11,0.5,0.64,19.16-6.92,19.16-6.92s-2-4.07-2.78-5.89,3.36-14,3.17-15.56c-0.37-3.11-7.87-4-7.87-4s2,7-2.48,7.6S218,61,219,60.54Z" transform="translate(0 0.5)"/><path class="cls-12" d="M216.71,83.25s7,1.59,17.37-3.27l1.38,4s-8.92,5.29-19.44,4.49C216,88.48,215.49,87.14,216.71,83.25Z" transform="translate(0 0.5)"/><path class="cls-12" d="M217.61,63l3.78,2.18s3.25,15.61,1.21,22.47l-4,.52s1.41-18.24-.88-24.51" transform="translate(0 0.5)"/><path class="cls-12" d="M229.64,62.45l-3.06,3.12s1.07,14.18,4.88,20.24L235.29,84s-6.08-14.22-5.56-20.88" transform="translate(0 0.5)"/><path class="cls-12" d="M220.7,73.24s2.64,1.81,8.12,0l0,5.25a9,9,0,0,1-7.9.89Z" transform="translate(0 0.5)"/><path class="cls-3" d="M215.84,101.3s1.83-11.07,7.27-13.67,6.84-4,6.84-4l1.33,3.64s-4.7,2.66-6.51,4.8-4.08,10.27-4.08,10.27Z" transform="translate(0 0.5)"/><path class="cls-1" d="M217.72,79.72c-0.16-.57-1-2.08-0.94-2.66s0.11-1.45.11-1.45,1.08-2.72.81-3.78c0,0,.66-4.36.23-5.69-0.25-.75.88-4.1-2.92-5-2.17-.52-3.67,3.44-4,4.35s-1.87,7-.69,8.85a8.84,8.84,0,0,0,.62,6s0.55,3.67,2.61,5a3.63,3.63,0,0,0,3.13,1.47,35.34,35.34,0,0,0,4.38,1.3,13.13,13.13,0,0,0,3,.07,11.68,11.68,0,0,1,2.58.77s4.23,2.21,5.42,1.38c0.21-.15.38-0.86,0-0.88,0.07-.05-1.08-0.12-1.15-0.17s1,0.08,1.2,0,0.67-1.42.09-1.36a1.18,1.18,0,0,1-.65.07,2.94,2.94,0,0,0,.68-0.14,1.2,1.2,0,0,0,.35-1.62l-0.8.37a2.6,2.6,0,0,0,.93-0.63s0.34-.27-0.16-1.38c-0.12-.27-0.3.3-1.58,0.34a6.48,6.48,0,0,0,1.18-1.71,0.75,0.75,0,0,0-.63-0.79c-0.32,0-1.94,1.44-2.54,1.28-0.42-.11-6.63-2.33-10.41-3.55A1.34,1.34,0,0,1,217.72,79.72Z" transform="translate(0 0.5)"/><path class="cls-7" d="M211.15,81.23s4-.79,5.81-3.36a2.26,2.26,0,0,1,.63,1.51s-2.65,4.18-5.83,3.64A2.53,2.53,0,0,1,211.15,81.23Z" transform="translate(0 0.5)"/><path class="cls-7" d="M215.38,66.8c-2.22-1.84-4.69,2.22-2.59,4.1,2.62,2.35,4.81-2.26,2.59-4.1" transform="translate(0 0.5)"/><path class="cls-12" d="M225.86,82.64s0.23,3.72-1.64,5.56l2.39,1s2.48-.26,2.28-5.73A7.45,7.45,0,0,0,225.86,82.64Z" transform="translate(0 0.5)"/><polygon class="cls-12" points="214.23 70.92 214.07 69.89 213.57 70.76 212.87 70.6 214.29 68.7 215.01 71.11 214.23 70.92"/><polygon class="cls-12" points="213.04 70.61 215 67.83 214.83 67.66 212.76 70.56 213.04 70.61"/><polygon class="cls-12" points="214.03 67.65 214.93 71.08 215.14 71.17 214.18 67.55 214.03 67.65"/><path class="cls-12" d="M217.6,79.39s-1.8,4.07-4.47,5.61c0,0,.6,1.48,1.76,1.42a6,6,0,0,0,3.76-6.22S218.07,79.06,217.6,79.39Z" transform="translate(0 0.5)"/><path class="cls-1" d="M239.09,79.63c1.42-2.11.21-6.13,0.16-6.41a5.44,5.44,0,0,0-.27-1.34c-0.21-.51-0.55-1.26-0.55-1.26s-0.27-2.82-1-3.56c0,0-.83-5-1.8-5.91-0.55-.5-1.55-1.18-3.63-0.29s-1.87,5-1.72,5.91,0.4,5.54,2.27,6.48c0,0-.23,4.18,2.37,5.68" transform="translate(0 0.5)"/><path class="cls-1" d="M239.23,76.58l-4.8-.82a13.7,13.7,0,0,0-.91,1.25c-1.85,2.87-4.75,7.72-5,8s-2.36.57-2.59,0.75a0.54,0.54,0,0,0,.07.81,6.88,6.88,0,0,0,1.92.28c-0.91.72-1.41,0.5-1.32,0.72,0.36,0.92.78,0.87,0.78,0.87a2.9,2.9,0,0,0,1-.18l-0.79.25c-0.07.47,0.91,0.86,1.28,0.71a3.07,3.07,0,0,0,.56-0.32,1.22,1.22,0,0,1-.5.33c-0.43.3,0.65,0.88,0.94,0.71s0.85-.82.81-0.71S230,90,230,90c-0.21.2,0.36,0.51,0.6,0.47,1.36-.21,2.89-3.91,2.89-3.91a9.84,9.84,0,0,1,1.31-1.93,12.66,12.66,0,0,0,2-1.76,29.84,29.84,0,0,0,2.22-3.27c0.63-3.05.15-3.05,0.15-3.05" transform="translate(0 0.5)"/><path class="cls-12" d="M230.05,82.55s2.22,2.24,4.7,2.19l-1,1.95s-1.89,1.29-5.25-1.92A6.32,6.32,0,0,1,230.05,82.55Z" transform="translate(0 0.5)"/><path class="cls-7" d="M232.61,74.52c0.48,0.8,5.93-.27,6.56-1.89a4.87,4.87,0,0,1,.36,2.27,9.74,9.74,0,0,1-6.65,1.44A2.42,2.42,0,0,1,232.61,74.52Z" transform="translate(0 0.5)"/><path class="cls-7" d="M235.12,63.52c0.56-.29,1.32-0.41,1.57.07a15.69,15.69,0,0,1,.87,3.6,0.6,0.6,0,0,1-.45.38c-2.47,1.45-4.08-2.95-2-4" transform="translate(0 0.5)"/><polygon class="cls-12" points="235.87 67.35 236.09 66.5 236.47 67.35 237.1 67.37 235.98 65.45 235.17 67.34 235.87 67.35"/><polygon class="cls-12" points="236.94 67.34 235.41 64.55 235.57 64.44 237.19 67.36 236.94 67.34"/><polygon class="cls-12" points="236.29 64.61 235.25 67.33 235.06 67.37 236.16 64.49 236.29 64.61"/><path class="cls-12" d="M232.89,78c2.21,3,6.26,1.35,6.26,1.35a2,2,0,0,0,.6-1.84,5.19,5.19,0,0,1-6.47-.46A2.23,2.23,0,0,0,232.89,78Z" transform="translate(0 0.5)"/><path class="cls-1" d="M216.79,61.63S212.74,48,222.66,47.45s8.78,12.47,8.78,12.47a7.62,7.62,0,0,1-6.2,6.26C219.76,67.11,216.79,61.63,216.79,61.63Z" transform="translate(0 0.5)"/><path class="cls-5" d="M224.22,51.37c4.26-.4,5.67,3.36,5.89,4.78s0,5.77-5.71,6.39a6.11,6.11,0,0,1-7.12-6.07C217.37,54.82,220.1,51.76,224.22,51.37Z" transform="translate(0 0.5)"/><path class="cls-15" d="M226.7,62.54a1.1,1.1,0,0,1-.4-1.4,2.94,2.94,0,0,0,1.39-1.84,8.37,8.37,0,0,0,.25-2,1.1,1.1,0,0,0,.63.33c0.25,0,.62-3.73.33-3.73s-0.33.71-.33,0.71-0.11-3.93-4.84-3.8-3.78,3.84-3.78,3.84a1.21,1.21,0,0,0-.91-0.29c-0.41.12,0.28,3.47,0.47,3.69a0.82,0.82,0,0,0,.57,0,5.34,5.34,0,0,1,.39,1.15,4.3,4.3,0,0,0,1.76,2,9.66,9.66,0,0,0-.27,1.22" transform="translate(0 0.5)"/><path class="cls-18" d="M224.75,57.66a0.49,0.49,0,0,1-.8-0.24,0.89,0.89,0,0,1,0-.6A5.4,5.4,0,0,0,224,55s0.16,1.57.33,2.31A0.81,0.81,0,0,0,224.75,57.66Z" transform="translate(0 0.5)"/><path class="cls-25" d="M222.12,58.71a5.23,5.23,0,0,1,1.67-.38l0.7,0.25a2.41,2.41,0,0,1,.66-0.34,4.92,4.92,0,0,1,1.44.19s-0.23,1.11-2,1.23A2.79,2.79,0,0,1,222.12,58.71Z" transform="translate(0 0.5)"/><path class="cls-16" d="M222.49,58.81a3.7,3.7,0,0,0,3.81-.1A9.38,9.38,0,0,1,222.49,58.81Z" transform="translate(0 0.5)"/><path class="cls-17" d="M224.48,58.18a2.83,2.83,0,0,0-1.13-.23c-0.75.07-.85,0.41-1.33,0.4a5,5,0,0,1-1.22-.29,2.48,2.48,0,0,0,1.85,1,2.67,2.67,0,0,0,1.89-.5,1.47,1.47,0,0,0,1.34.35,1.6,1.6,0,0,0,1.59-1.07,2.42,2.42,0,0,1-.89.31,6.12,6.12,0,0,0-1.13-.25A4.19,4.19,0,0,0,224.48,58.18Z" transform="translate(0 0.5)"/><path class="cls-17" d="M226.54,53.75a2.09,2.09,0,0,1,.89.57L226.34,54a6.06,6.06,0,0,0-1.2.16,0.44,0.44,0,0,1-.39-0.25A3.89,3.89,0,0,1,226.54,53.75Z" transform="translate(0 0.5)"/><path class="cls-17" d="M223.37,53.91a0.44,0.44,0,0,1-.39.25,6.06,6.06,0,0,0-1.2-.16l-1.09.32a2.09,2.09,0,0,1,.89-0.57A3.89,3.89,0,0,1,223.37,53.91Z" transform="translate(0 0.5)"/><path class="cls-16" d="M226.9,54.9a1.43,1.43,0,0,1-1.76,0" transform="translate(0 0.5)"/><path class="cls-16" d="M225.14,54.9a1.14,1.14,0,0,1,1.76,0" transform="translate(0 0.5)"/><path class="cls-14" d="M226,54.44c0.57,0,.59.71,0.1,0.71C225.41,55.15,225.44,54.44,226,54.44Z" transform="translate(0 0.5)"/><path class="cls-16" d="M223.2,54.93a1.14,1.14,0,0,0-1.76,0A1.43,1.43,0,0,0,223.2,54.93Z" transform="translate(0 0.5)"/><path class="cls-14" d="M222.32,54.46c-0.57,0-.49.67,0,0.71C223,55.22,222.9,54.47,222.32,54.46Z" transform="translate(0 0.5)"/><path class="cls-14" d="M221.41,55s0.76-1.41,1.83,0A1.25,1.25,0,0,0,221.41,55Z" transform="translate(0 0.5)"/><path class="cls-14" d="M225.14,55A1,1,0,0,1,227,55,1.35,1.35,0,0,0,225.14,55Z" transform="translate(0 0.5)"/><path class="cls-2" d="M220.4,59s-2.32-6.95,3.91-6.85c4.79,0.07,3.71,5.81,3.55,6.33,0,0,1.7-.61,1.13-4.31a4.35,4.35,0,0,0-4.86-3.83c-3.34.12-4.91,2-5.22,4C218.36,57.82,220.4,59,220.4,59Z" transform="translate(0 0.5)"/><path class="cls-12" d="M216.71,57.84s2.3-5.55,7-5.81,6.71,4.86,6.71,4.86,0.1-7-6.62-6.84S216.71,57.84,216.71,57.84Z" transform="translate(0 0.5)"/><path class="cls-12" d="M216.71,56.1s2.3,5.29,7,5.56,6.71-4.6,6.71-4.6,0.11,6.74-6.62,6.59S216.71,56.1,216.71,56.1Z" transform="translate(0 0.5)"/><path class="cls-12" d="M216.47,54.92c2.57,0.06,2.34,4.24.05,3.65a2.34,2.34,0,0,1-.35-0.12s-0.61-.72-0.2-3.41C216,54.87,216.29,54.91,216.47,54.92Z" transform="translate(0 0.5)"/><path class="cls-7" d="M216.69,56.15c0.89,0.06,1.11,1.48.06,1.26A0.63,0.63,0,0,1,216.69,56.15Z" transform="translate(0 0.5)"/><path class="cls-12" d="M230.71,54.29l0.32,0A6.53,6.53,0,0,1,231.5,58a2.65,2.65,0,0,1-.73,0C228.48,57.36,229.29,54.26,230.71,54.29Z" transform="translate(0 0.5)"/><path class="cls-7" d="M230.67,55.46c0.89,0.06,1.11,1.48.06,1.26A0.63,0.63,0,0,1,230.67,55.46Z" transform="translate(0 0.5)"/><path class="cls-2" d="M251.87,148.12s15.85,6.54,18.43-13.87-9.21-26-9.21-26Z" transform="translate(0 0.5)"/><path class="cls-5" d="M248.17,107.5c17.57,0,27.28,47.43,3.7,41.19C229.36,142.73,230.81,107.54,248.17,107.5Z" transform="translate(0 0.5)"/><path class="cls-1" d="M247.64,115.69c12-1.25,19.38,25.18,6.11,27.38S235.56,117,247.64,115.69Z" transform="translate(0 0.5)"/><path class="cls-2" d="M250.45,124.64s5.12,3.2,2.61,8l-4.23.92s-2.25-1.72-2.25-5.81A17.57,17.57,0,0,1,250.45,124.64Z" transform="translate(0 0.5)"/><path class="cls-6" d="M264.82,128.37s6.6,0.52,10.17-4.23c0,0-5.58-18.92-20.13-20.11-11.23-.92-23.69,2.38-19.3,24.36,0,0-1.82-19,10.37-19.83C258.58,107.7,264.82,128.37,264.82,128.37Z" transform="translate(0 0.5)"/><path class="cls-13" d="M235.84,42.22c2.87,0.06,2.73,3.46.41,3.41S233.52,42.17,235.84,42.22Z" transform="translate(0 0.5)"/><path class="cls-13" d="M236.22,46.49c2.26,0.09,3.06,3.88.49,3.81S234,46.4,236.22,46.49Z" transform="translate(0 0.5)"/><path class="cls-13" d="M204.58,49.37c2.87,0.06,2.73,3.46.41,3.41S202.26,49.33,204.58,49.37Z" transform="translate(0 0.5)"/><path class="cls-13" d="M205,55.41c2.26,0.09,3.06,3.88.49,3.81S202.7,55.32,205,55.41Z" transform="translate(0 0.5)"/><path class="cls-26" d="M33.77,13.75S33.12,0.13,45.52,0C57.07-.12,56.36,13.57,56.36,13.57s6.35,12.6,4.57,19.62c-0.78,3.07-31.54,4-32.39.45C27,27.05,33.77,13.75,33.77,13.75Z" transform="translate(0 0.5)"/><path class="cls-26" d="M35.34,34.95s-1.12,4.12,0,4.82,20.33,1.15,20.73-.4,0-5.92,0-5.92Z" transform="translate(0 0.5)"/><path class="cls-27" d="M35.72,39.06" transform="translate(0 0.5)"/><path class="cls-27" d="M25.18,42.83" transform="translate(0 0.5)"/><path class="cls-3" d="M45.18,12.31a0.82,0.82,0,1,1,0,1.63A0.82,0.82,0,1,1,45.18,12.31Z" transform="translate(0 0.5)"/><path class="cls-3" d="M48.91,13.5a0.81,0.81,0,1,1,0-1.63,0.81,0.81,0,1,1,0,1.63" transform="translate(0 0.5)"/><path class="cls-3" d="M41.28,13.5a0.81,0.81,0,1,1,0-1.63,0.81,0.81,0,1,1,0,1.63" transform="translate(0 0.5)"/><path class="cls-3" d="M40.75,32.79C40.38,32.68,40.48,20,40.61,19.7s8.82-.33,9,0,0.74,12.72.33,13S41.11,32.9,40.75,32.79Z" transform="translate(0 0.5)"/><path class="cls-3" d="M52.11,13a0.81,0.81,0,1,1,0-1.63,0.81,0.81,0,1,1,0,1.63" transform="translate(0 0.5)"/><path class="cls-3" d="M37.87,13a0.81,0.81,0,1,1,0-1.63,0.81,0.81,0,1,1,0,1.63" transform="translate(0 0.5)"/><path class="cls-7" d="M33.77,13.75s12.07,1.86,22.58-.18l0.71,1.51s-13.47,2.32-23.94,0Z" transform="translate(0 0.5)"/><path class="cls-7" d="M44.9,4.06c4.21,0,4.11,5.66,0,5.41A2.71,2.71,0,1,1,44.9,4.06Z" transform="translate(0 0.5)"/><path class="cls-26" d="M45.07,22.3c2.77,0,2.71,3.73,0,3.56A1.78,1.78,0,1,1,45.07,22.3Z" transform="translate(0 0.5)"/><path class="cls-2" d="M59.55,31.26l7.16,19.42,1.33-.1s-7.15-20.44-7.84-20.75-14.57,3.61-14.57,3.61S31,30.6,30.45,31.06s-8.66,19.47-8.66,19.47l1.75,0.11,7.89-18.11L45,34.73,45.31,57.4h1.5L46.5,34.58Z" transform="translate(0 0.5)"/><path class="cls-2" d="M55.44,39.06l8.62,3.77V41.44s-8-3.54-8.19-3.39A1.49,1.49,0,0,0,55.44,39.06Z" transform="translate(0 0.5)"/><path class="cls-2" d="M22.53,49.7c5-.28,6.51,2.16.64,2.39S17.57,50,22.53,49.7Z" transform="translate(0 0.5)"/><path class="cls-2" d="M45.72,56.19c5-.28,6.51,2.16.64,2.39S40.76,56.46,45.72,56.19Z" transform="translate(0 0.5)"/><path class="cls-2" d="M66.56,50c5-.28,6.51,2.16.64,2.39S61.6,50.32,66.56,50Z" transform="translate(0 0.5)"/><path class="cls-2" d="M35.29,39.33L26.68,43.1V41.71s8-3.54,8.19-3.39A1.49,1.49,0,0,1,35.29,39.33Z" transform="translate(0 0.5)"/><path class="cls-5" d="M130.34,23.75s17.78-.07,18.16-0.32,0-7.14-.13-7.47-17.83.21-18.16,0.32S129.84,23.5,130.34,23.75Z" transform="translate(0 0.5)"/><path class="cls-7" d="M132.76,21.05L143,20.87l0,1.81a14.38,14.38,0,0,0,3.76-2.88c0-.31-3.67-2.37-3.67-2.37l0,1.69s-10.19.24-10.25,0.36A2.56,2.56,0,0,0,132.76,21.05Z" transform="translate(0 0.5)"/></svg>