<?xml version="1.0" encoding="utf-8"?>
<!-- Generator: Adobe Illustrator 18.1.1, SVG Export Plug-In . SVG Version: 6.00 Build 0)  -->
<svg version="1.1" id="Layer_1" xmlns="http://www.w3.org/2000/svg" xmlns:xlink="http://www.w3.org/1999/xlink" x="0px" y="0px"
	 viewBox="0 0 322.5 751.8" enable-background="new 0 0 322.5 751.8" xml:space="preserve">
<g>
	<defs>
		<polygon id="SVGID_1_" points="303.9,753.6 17,755.3 14.9,0 303.9,-0.2 		"/>
	</defs>
	<clipPath id="SVGID_2_">
		<use xlink:href="#SVGID_1_"  overflow="visible"/>
	</clipPath>
	<g clip-path="url(#SVGID_2_)">
		<g>
			<path fill="#E9612C" d="M31.4,452.5c34.9-20.8,60.6,27.3,27.9,46.8S1.1,470.6,31.4,452.5z"/>
			<polygon fill="#E9612C" points="47.7,496.6 62.8,487.6 68.8,515.2 			"/>
		</g>
		<g>
			<path fill="#E1C51B" d="M31,476.6c0,0-1,18.5,14.9,18.1c15.9-0.4,13.5-19.7,13.5-19.7L31,476.6z"/>
			<path fill="#A35942" d="M31,476.6c0,0,13.7,6,28.4-1.6c0.6-0.3-3.1-2.7-13.6-1.9C41.4,473.5,33.7,473.7,31,476.6z"/>
			<path fill="#E1C51B" d="M58.8,478.8c0,0,5.4-1.4,5.6,3.5c0.2,5-9,6.8-9,6.8l1.2-3.2c0,0,4.7-0.6,5.1-2.6c0.3-2.1-3-1.8-3-1.8
				L58.8,478.8z"/>
			<path fill="#E1C51B" d="M37.3,472.7c0.9-3.2,5.4-2.4,6.2-3.9s0.5-2.6-0.5-3.8c-1-1.1-3.1-2-3.1-2s3.7-0.1,4.8,2.8
				c2.1,5.8-4.9,4.9-5.6,7.1c-1.4,4.3,4.5,3.5,4.8,4.3C44.3,478.3,35.9,477.7,37.3,472.7z"/>
			<path fill="#E1C51B" d="M51.3,466.7c-0.4-4.3-3.4-2.8-4.5-5.6c-0.7-1.9-0.4-4,0.6-5.4c1-1.4,2-1.6,2-1.6s-2.4-0.6-3.6,3.1
				c-2.1,6.8,3.6,6.8,4,9.8c0.7,5.8-4.1,4.2-4.5,5.3C44.8,473.5,52,473.3,51.3,466.7z"/>
		</g>
	</g>
	<polygon clip-path="url(#SVGID_2_)" fill="#EDDDAF" points="304.4,750.6 17.5,752.3 15.4,-3 304.4,-3.2 	"/>
	<path clip-path="url(#SVGID_2_)" fill="#F6EBD0" d="M239,180.2c0,0-31-1.9-34.9-1c-3.1,0.7-23.6-0.8-24.4-2.7
		c-0.7-1.5,0.4-9.4,0.4-9.4s21.5,1.3,27.9,0.8c6.4-0.5,30.5-1.4,39.1,0L239,180.2z"/>
	<path clip-path="url(#SVGID_2_)" fill="#FBFFEB" d="M236.8,239.6c-0.5,10.6,2.1,27.9-0.5,35.4c-2.7,7.5-22.2,10.5-23.9,12.7
		c0,0-15.8,12.5-25.5,31.5c-9.9,19.6-13.4,41.4-25.9,55.8c-4.6,5.3-11.4,1.6-14.3,3.6c-2.9,2-62.6,53.7-64.8,70.1
		c-1.4,10.7,13.9,16.2,13.9,27.6S82,522.5,88,529.8s13.3,9.3,15,13.6c1.3,3.3-15.7,5.7-15.7,5.7s-22-12.9-18.4-25
		c3.6-12.1,16.2-40.7,12.7-53.5s-16.1-15.9-7-34.3c6.1-12.1,57.3-64.8,66.2-69.3c5.9-2.9,8,2.1,13.6-5c5.4-6.8,11.1-28.7,22.4-48.5
		c10-17.6,23.6-33.1,28.3-35.8c10-5.7,20-5.1,20.7-12.2c0.5-5.1-0.1-13.1-0.1-25.3L236.8,239.6z"/>
	<path clip-path="url(#SVGID_2_)" fill="#F6EBD0" d="M236.8,240.2c0,0,0.5-32,11.9-56.4c7.3-15.7,26.9-27.1,27.9-28.8
		c4.9-8.6,1.6-24.7,2.5-40c0.9-15.6,13.9-50.3,16.6-64.2c2.1-10.9-8.1-43.1-15.5-50.9h-10.2c0,0,18.7,30.2,17.6,50.8
		c-0.4,8-12.1,43.8-14.5,57.3c-3.2,17.9,2.8,40.4-4.9,44.1c-50.7,24.7-42.5,88.2-42.5,88.2H236.8z"/>
	<path clip-path="url(#SVGID_2_)" fill="#F6EBD0" d="M283.9,72.2c0,0-8.2-4.1-10.2-4.8c-4.4-1.6-17.6-1.7-22.4-1.7
		c-4.8,0-30,5.2-33.5,6.5c-3.5,1.3-18.7,3.5-18.7,3.5L209.2,50c0,0,18.9,4.4,24.5,5.5s18.4,2.1,24.8,2.9c6.4,0.8,13.1,0.4,15-0.2
		s14.9-5.1,14.9-5.1l-0.7,6.4l-13.8,2.7l10.5,5.6L283.9,72.2z"/>
	<path clip-path="url(#SVGID_2_)" fill="#F6EBD0" d="M227.4-0.2c0,0-23.1,73.2-27.2,77.2c-4.1,4-8.9,11.5-10.8,17.3
		c-1.9,5.8-27.6,46.6-31.3,51.2c-3.7,4.6-19,13.8-25,22.4s-38,49.5-43.6,55.2c-5.6,5.8-13.4,5.2-23.8,24.7S53.4,269.7,43,279
		c-10.4,9.2-18.7,15.3-27.6,24.5l-0.5-77.2l176.9-226L227.4-0.2z"/>
	<path clip-path="url(#SVGID_2_)" fill="#1EABF0" d="M14.9,287.5c6.6-8,14.3-30.1,21.6-34.1s28.4-22.8,37.9-34.2
		s19.7-32.5,28.8-39.3c9.1-6.8,41.9-34.2,46.6-44.5c4.7-10.3,5.5-24,10.2-32.5s25.3-29.6,28.9-39.3c3.6-9.7,6.1-25.6,10.5-35.1
		s13.1-20.4,13.1-23.1c0-2.7-0.7-5.5-0.7-5.5L14.9,0V287.5z"/>
	<g clip-path="url(#SVGID_2_)">
		<g>
			<path fill="#1EABF0" d="M243.4,86.1c39.8,25.2,3.5,77-33.8,53.4S208.8,64.2,243.4,86.1z"/>
			<polygon fill="#1EABF0" points="206.3,125.9 223.6,136.9 198.2,157.5 			"/>
		</g>
		<path fill="#969282" d="M235.7,128.1c-0.2,0.1-0.5,0.4-0.6,0.5c-0.1,0.1,1.2,0.3,1.2,0.2C236.3,128.7,235.9,128,235.7,128.1z"/>
		<path fill="#969282" d="M236,129.5c0,0.3-0.4,0.1-0.4-0.1C235.6,129.2,236,129.2,236,129.5z"/>
	</g>
	<g clip-path="url(#SVGID_2_)">
		<g>
			<path fill="#E9612C" d="M248.8,16.7c26.1,26.7-11.4,60-35.9,35S226.2-6.5,248.8,16.7z"/>
			<polygon fill="#E9612C" points="212.9,40.6 224.2,52.2 200.8,63.5 			"/>
		</g>
		<path fill="#969282" d="M236.5,42.3c-0.2,0-0.5,0.2-0.6,0.2c-0.1,0,0.9,0.4,0.9,0.4C236.8,42.9,236.6,42.3,236.5,42.3z"/>
		<path fill="#969282" d="M236.4,43.4c-0.1,0.2-0.3,0-0.3-0.1C236.2,43.2,236.5,43.2,236.4,43.4z"/>
	</g>
	<path clip-path="url(#SVGID_2_)" fill="#7CCCE5" d="M243.5,43.5c0,0-1.2-9-4.9-15.3C234.9,21.9,226,17,218.4,29
		c0,0,7.9-4.8,9.7,3.2c1.2,5.3-13,11.3-13,11.3H243.5z"/>
	<polygon clip-path="url(#SVGID_2_)" fill="#FBFFEB" points="242.7,124.7 242.9,124.5 227.2,100.9 230.2,92.9 227.8,92 225.5,98.3 
		222.9,94.3 220.8,95.7 224.4,101.2 214.9,126.9 214.9,126.9 214.3,128.4 223.8,127.5 227.2,115.6 232.8,126.7 243.5,125.7 	"/>
	<g clip-path="url(#SVGID_2_)">
		<g>
			<path fill="#E9612C" d="M33.2,401.9c32.1-19.1,55.7,25.1,25.7,43C28.8,462.8,5.4,418.5,33.2,401.9z"/>
			<polygon fill="#E9612C" points="48.2,442.4 62.1,434.1 67.6,459.5 			"/>
		</g>
		<g>
			<path fill="#E9612C" d="M100.2,302.4c32.1-19.1,55.7,25.1,25.7,43S72.3,319,100.2,302.4z"/>
			<polygon fill="#E9612C" points="115.1,342.9 129,334.6 134.5,360 			"/>
		</g>
		<g>
			<path fill="#FBFFEB" d="M32.8,424c0,0-0.9,17,13.7,16.7c14.6-0.4,12.4-18.1,12.4-18.1L32.8,424z"/>
			<path fill="#A35941" d="M32.8,424c0,0,12.6,5.5,26.1-1.5c0.6-0.3-2.8-2.5-12.5-1.7C42.4,421.1,35.3,421.3,32.8,424z"/>
			<path fill="#FBFFEB" d="M58.4,426.1c0,0,5-1.3,5.2,3.2c0.2,4.6-8.2,6.2-8.2,6.2l1.1-2.9c0,0,4.4-0.5,4.7-2.4
				c0.3-1.9-2.8-1.7-2.8-1.7L58.4,426.1z"/>
			<path fill="#FBFFEB" d="M38.7,420.5c0.8-2.9,4.9-2.2,5.7-3.6c0.8-1.3,0.5-2.4-0.5-3.4c-0.9-1-2.8-1.8-2.8-1.8s3.4-0.1,4.4,2.6
				c1.9,5.3-4.5,4.5-5.2,6.6c-1.2,4,4.1,3.2,4.4,4C45,425.6,37.3,425,38.7,420.5z"/>
			<path fill="#FBFFEB" d="M51.5,414.9c-0.4-3.9-3.1-2.5-4.1-5.2c-0.7-1.7-0.3-3.6,0.6-4.9c0.9-1.3,1.8-1.4,1.8-1.4
				s-2.2-0.6-3.3,2.9c-2,6.2,3.3,6.2,3.6,9c0.6,5.3-3.8,3.9-4.2,4.9C45.5,421.2,52.1,421,51.5,414.9z"/>
		</g>
	</g>
	<g clip-path="url(#SVGID_2_)">
		<path fill="#4C4A43" d="M113.2,552.5l1.2,0.3l0.7-3.1l1.6,0.4l-1.8,8l-1.6-0.4l0.8-3.6l-1.2-0.3l-0.8,3.6l-1.6-0.4l1.8-8l1.6,0.4
			L113.2,552.5z"/>
		<path fill="#4C4A43" d="M121.1,556.4c-0.4,1.9-1.5,2.9-2.9,2.6c-1.4-0.3-1.9-1.6-1.4-3.6c0.5-2,1.5-2.9,2.9-2.6
			C121,553,121.6,554.3,121.1,556.4z M118.3,555.7c-0.3,1.4-0.3,1.9,0.2,2c0.4,0.1,0.8-0.4,1.1-1.7c0.3-1.4,0.3-2-0.2-2.1
			C118.9,553.8,118.6,554.4,118.3,555.7z"/>
		<path fill="#4C4A43" d="M124.4,553.9l-0.3,1.2c0.5-0.8,1.2-1.2,1.9-1l-0.4,1.6c-0.2-0.1-0.3-0.1-0.4-0.1c-0.8-0.2-1.3,0.2-1.5,1.1
			l-0.7,3.1l-1.5-0.3l1.3-5.9L124.4,553.9z"/>
		<path fill="#4C4A43" d="M128.4,554.9l-1.3,5.9l-1.5-0.3l1.3-5.9L128.4,554.9z M128.8,553.4c-0.1,0.5-0.5,0.7-1,0.6
			c-0.4-0.1-0.7-0.5-0.6-1c0.1-0.4,0.6-0.7,1-0.6C128.6,552.5,128.9,553,128.8,553.4z"/>
		<path fill="#4C4A43" d="M133.2,556l-3.1,4.3l1.8,0.4l-0.3,1.2l-3.8-0.9l0-0.2l3-4.1l-1.7-0.4l0.3-1.2L133.2,556z"/>
		<path fill="#4C4A43" d="M136.8,563l-1.4-0.3l0.2-1.1c-0.5,0.8-0.9,1.1-1.5,1c-1-0.2-1.3-1.5-0.8-3.5c0.2-1,0.6-1.9,1-2.3
			c0.4-0.4,0.8-0.6,1.2-0.5c0.5,0.1,0.9,0.6,1,1.5l0.2-1.1l1.4,0.3L136.8,563z M134.8,559.5c-0.3,1.2-0.2,1.8,0.2,1.9
			c0.4,0.1,0.8-0.4,1-1.6c0.3-1.2,0.2-1.8-0.2-1.9C135.4,557.8,135.1,558.3,134.8,559.5z"/>
		<path fill="#4C4A43" d="M140.6,558.5c0.6-0.6,1.1-0.8,1.6-0.7c0.7,0.2,1,0.8,0.8,1.7l-1.1,4.6l-1.5-0.3l0.9-3.9
			c0.1-0.6,0-0.8-0.3-0.9c-0.3-0.1-0.5,0.1-0.7,0.7l-0.9,3.9l-1.5-0.3l1.3-5.9l1.4,0.3L140.6,558.5z"/>
		<path fill="#4C4A43" d="M146.6,560.3l-0.6-0.1l-0.7,2.9c-0.1,0.5-0.1,0.6,0.3,0.7l0.1,0l-0.3,1.2c-0.3,0-0.4-0.1-0.7-0.1
			c-1.1-0.3-1.3-0.6-1-1.9l0.7-3.2l-0.6-0.1l0.3-1.2l0.6,0.1l0.3-1.4l1.5,0.3l-0.3,1.4l0.6,0.1L146.6,560.3z"/>
		<path fill="#4C4A43" d="M148.5,562.9c-0.3,1.1-0.2,1.7,0.3,1.8c0.4,0.1,0.6-0.1,0.9-0.7l1.2,0.6c-0.5,1.1-1.4,1.5-2.4,1.3
			c-1.4-0.3-1.9-1.5-1.4-3.5c0.5-2.1,1.5-3,2.9-2.7c0.9,0.2,1.5,0.8,1.6,1.6c0.1,0.5,0,1.2-0.2,1.9l-0.1,0.3L148.5,562.9z
			 M150.1,562.2c0.2-0.9,0.1-1.3-0.4-1.4c-0.5-0.1-0.8,0.2-1,1.1L150.1,562.2z"/>
	</g>
	<path clip-path="url(#SVGID_2_)" fill="#FBFFEB" d="M101.9,541.6c0,0,37.8,12.4,54.2,15.1c16.4,2.7,90.3,12.6,147.8-7.6l0.4,12
		c0,0-75.6,19.5-150.8,6.9c-58.9-9.9-58.6-18.1-58.6-18.1L101.9,541.6z"/>
	<g clip-path="url(#SVGID_2_)">
		<polygon fill="#E2CDB4" points="47.5,515.2 57.3,493.3 68.4,493.3 68.4,493.3 61.6,515.4 		"/>
		<polygon fill="#E2CDB4" points="64,541.3 68.1,502.5 68.4,493.3 61.6,515.4 		"/>
		<polyline fill="#A4735F" points="64,541.3 65.6,527.1 65.6,505.5 64.6,511 65.6,505.5 47.5,505.5 44.2,511 		"/>
		<polygon fill="#A35942" points="64,541.3 42.9,541.3 44.2,511 64.6,511 		"/>
	</g>
	<g clip-path="url(#SVGID_2_)">
		<g>
			<path fill="#A4735F" d="M67.8,503.8c0,0-0.8-25,0.7-30.5c1.5-5.5,3.9-11.5,3.9-11.5s0.3,21.7,0,22.5S67.8,503.8,67.8,503.8z"/>
			<g>
				<path fill="#A4735F" d="M32.1,472.5c0,0,3.9-10.6,5.3-11.2c0.6-0.3,35,0.6,35,0.6l-3.9,11.5L32.1,472.5z"/>
				<polygon fill="#A35942" points="67.8,503.8 33.2,502.3 32.1,472.5 68.5,473.3 				"/>
				<path fill="#754532" d="M57.5,484.2c0,0-1.3-5.7,3.1-5.6c4.4,0.1,2.9,5.8,2.9,5.8L57.5,484.2z"/>
				<path fill="#754532" d="M58.6,497.2c0,0-1.3-5.7,3.1-5.6c4.4,0.1,2.9,5.8,2.9,5.8L58.6,497.2z"/>
				<path fill="#754532" d="M53.3,484c0,0,0.8-5.7-3.7-5.9s-3.1,5.6-3.1,5.6L53.3,484z"/>
				<path fill="#754532" d="M42.7,483.6c0,0,1.5-5.4-3.1-5.9c-4.7-0.5-3.7,5.6-3.7,5.6L42.7,483.6z"/>
			</g>
		</g>
		<rect x="35.8" y="491.8" fill="#754532" width="18" height="5.5"/>
	</g>
	<g clip-path="url(#SVGID_2_)">
		<path id="palm1_161_" fill="#754532" d="M26.6,476.2c0,1.8-0.1,3.7-0.4,6.5c-0.4,3.1,0.4,7.3,0.4,10.4c0.1,2.5-0.8,14-1.2,18.1
			c-0.1,0.9-0.5,1.5-0.5,1.5h2.5c0,0,0,0-0.5-1.3c-0.2-0.6,1-15.3,1.1-16.7c0.2-3.3-0.6-8.6-0.7-9.7c-0.1-1.1,0.5-8.6,0.6-9.5
			L26.6,476.2z"/>
		<path id="palm1_160_" fill="#754532" d="M30.6,472.3c0.1,0.6-0.4,1.3-0.4,1.3l-0.6-0.8c0,0-0.6,2.3-0.7,2.3c0,0-1.3,2.1-2.1,1.7
			c-0.8-0.4-1.9-2.3-1.9-2.3s-0.6-1.1-0.6-1.7c0,0,1.1-2.7,2.6-2.6C28.3,470.4,30.6,472.3,30.6,472.3z"/>
		<path id="palm1_158_" fill="#6CC399" d="M31.1,474.9c0.1,0,0.4-1.7,0.6-1.8s1.1,2.5,1.4,3.3c0.3,0.8,3.8,3.8,3.9,3.8
			c0.2-0.1,0.3-3.9-0.1-4.9c-0.4-1-2.4-2.8-2.6-3c-0.2-0.2,0.3-0.3,0.5-0.5c0.2-0.2-3-2.7-3-2.7s1.8,0.9,2.3,0.8s0.1-0.5,0.1-0.5
			s0.6,0.3,1.6,0.3c1.9,0.1,5.6,2.2,6.1,1.8c0.3-0.2-1.7-3.2-3.1-3.8c-1-0.5-4.2-1-4.5-1.2c-0.3-0.1,0.2-0.3,0.2-0.6
			c0-0.3-2,0.5-2.8,0.6c-0.8,0.2-2.6,1.4-3.3,1.1c-0.7-0.3,2.9-2.9,3-3.1c0.1-0.2-1.2-0.5-1.3-0.7c-0.1-0.2,4.4-2.1,4.4-2.3
			c0-0.1-1.1-0.6-1.9-0.8c-0.8-0.2-2.8,0-2.8,0s0-0.8,0-0.9c0-0.2-1.3,0.4-2,0.9c-0.7,0.5-1.9,2.3-2.1,2.5c-0.2,0.2-0.9-0.6-1.1-0.6
			s0.2,1.6,0.3,2.4s0.4,2.3,0.4,2.3s0,0-1.2-1.1c-1.2-1.1-2.9-1.6-2.9-1.6c-0.2,0.1,0.3,0.8,0.3,0.8s-2.1,0-3.4,0.4
			c-1.3,0.4-2.5,2.7-2.4,2.8c0.1,0.1,1.2-0.3,1.9-0.5c1.2-0.3,3.2,0,3.2,0s-0.9,0.5-1.7,0.6c-0.8,0.1-2.7,1.4-2.7,1.6
			c0,0.3,1.1,0.4,1.1,0.4s-1.7,1.5-2,2.6c-0.4,1.3-0.3,3.4-0.3,3.8s3.7-4,3.7-4s0.3,0.3,0.5,0.3c0.1,0,0.3-0.5,0.6-1.3
			c0.3-0.8,1.9-1.2,1.9-1.2s-1.2,1.9-1.9,2.8c-0.7,0.9-1.1,3.1-1.1,3.3c0,0.2,0.4-0.5,0.5-0.5c0.2,0,1.4,5.5,1.9,6.1
			c0.5,0.6,1.7-5.7,1.7-5.7l0.7,0c0,0,1.2-1.6,1-2.3c0,0-0.3-2.8,1.6-3.3C26.4,471.1,29.2,475.4,31.1,474.9z"/>
	</g>
	<g clip-path="url(#SVGID_2_)">
		<path fill="#987251" d="M30.5,522.5c0.6,0.4,1.4,0.6,2.4,0c0.7-0.4,0-11.4,0-11.4h-2.4C30.5,511.1,30.1,522.2,30.5,522.5z"/>
		<path fill="#1FCEAC" d="M39.2,511.1c0,0,4.6,5.1,5.4-2.7c0,0,2.2-7-2.7-8.4c0,0-5.7-14.5-14.3-3.2c0,0-5.6,3.3-4.1,5.8
			c0,0-3.8,3.1-1.6,5.2c0,0,4.1,5.4,6,3.2c0,0,3.8,3.8,6.8,0C34.6,511.1,35.7,514.1,39.2,511.1z"/>
	</g>
	<g clip-path="url(#SVGID_2_)">
		<path fill="#987251" d="M25.8,539.3c0.6,0.4,1.4,0.6,2.4,0c0.7-0.4,0-11.4,0-11.4h-2.4C25.8,527.9,25.4,539,25.8,539.3z"/>
		<path fill="#6CC399" d="M34.5,527.9c0,0,4.6,5.1,5.4-2.7c0,0,2.2-7-2.7-8.4c0,0-5.7-14.5-14.3-3.2c0,0-5.6,3.3-4.1,5.8
			c0,0-3.8,3.1-1.6,5.2c0,0,4.1,5.4,6,3.2c0,0,3.8,3.8,6.8,0C29.9,527.9,31,530.9,34.5,527.9z"/>
	</g>
	<g clip-path="url(#SVGID_2_)">
		<path id="palm1_157_" fill="#754532" d="M67.6,504.9c0,2.1-0.1,4.4-0.5,7.7c-0.5,3.7,0.4,8.6,0.5,12.2c0.1,3-1,16.5-1.4,21.4
			c-0.1,1.1-0.6,1.7-0.6,1.7h2.9c0,0,0,0-0.6-1.6c-0.3-0.7,1.2-18.1,1.3-19.6c0.2-3.9-0.7-10.2-0.9-11.5c-0.2-1.3,0.6-10.2,0.7-11.2
			L67.6,504.9z"/>
		<path id="palm1_156_" fill="#754532" d="M72.3,500.3c0.1,0.7-0.5,1.6-0.5,1.6l-0.7-0.9c0,0-0.7,2.7-0.9,2.7c0,0-1.6,2.4-2.5,2
			c-0.9-0.5-2.2-2.7-2.2-2.7s-0.7-1.3-0.7-2c0,0,1.3-3.2,3.1-3C69.6,498.1,72.3,500.3,72.3,500.3z"/>
		<path id="palm1_154_" fill="#6CC399" d="M72.9,503.4c0.2,0,0.5-2,0.8-2.1c0.3-0.1,1.3,2.9,1.7,3.8c0.4,0.9,4.5,4.5,4.6,4.5
			c0.2-0.1,0.4-4.6-0.1-5.8s-2.8-3.3-3-3.5c-0.2-0.2,0.3-0.4,0.6-0.5c0.3-0.2-3.5-3.1-3.5-3.1s2.1,1,2.7,0.9
			c0.5-0.1,0.1-0.6,0.1-0.6s0.7,0.3,1.9,0.4c2.2,0.1,6.6,2.5,7.2,2.1c0.3-0.2-2-3.7-3.7-4.5c-1.2-0.5-5-1.2-5.3-1.4s0.2-0.4,0.2-0.7
			s-2.4,0.5-3.4,0.7c-0.9,0.2-3,1.6-3.9,1.3c-0.9-0.4,3.4-3.4,3.5-3.6c0.2-0.2-1.4-0.6-1.5-0.9c-0.1-0.3,5.2-2.4,5.2-2.7
			c0-0.1-1.3-0.7-2.3-0.9c-0.9-0.3-3.2,0-3.2,0s0-0.9,0-1.1s-1.5,0.5-2.3,1.1c-0.8,0.6-2.2,2.7-2.4,2.9s-1.1-0.7-1.3-0.7
			s0.2,1.9,0.4,2.8s0.5,2.7,0.5,2.7s0,0-1.4-1.3c-1.4-1.3-3.4-1.9-3.4-1.9c-0.2,0.2,0.4,0.9,0.4,0.9s-2.5,0-4,0.4
			c-1.5,0.4-2.9,3.2-2.8,3.3c0.1,0.1,1.4-0.4,2.3-0.6c1.5-0.3,3.8,0,3.8,0s-1.1,0.6-2,0.7s-3.2,1.7-3.2,1.8c0.1,0.3,1.3,0.5,1.3,0.5
			s-2,1.8-2.4,3c-0.5,1.6-0.4,4-0.4,4.5s4.3-4.8,4.3-4.8s0.3,0.3,0.6,0.4c0.1,0,0.4-0.6,0.7-1.5c0.4-0.9,2.2-1.4,2.2-1.4
			s-1.4,2.2-2.2,3.3c-0.8,1.1-1.3,3.6-1.3,3.8s0.4-0.6,0.6-0.5c0.2,0,1.6,6.5,2.2,7.2c0.5,0.7,2-6.8,2-6.8l0.8,0
			c0,0,1.4-1.9,1.2-2.7c0,0-0.3-3.3,1.9-3.9C67.4,499,70.7,504,72.9,503.4z"/>
	</g>
	<path clip-path="url(#SVGID_2_)" fill="#F6EBD0" d="M86,560.6c0,0-34.7-1.4-60.5,9.6c-3.6,1.5-6.4,3.2-8.7,4.9l-0.8,23
		c5.7-8.3,8.8-16.6,20-20.3C68,567,88.3,572,88.3,572"/>
	<path clip-path="url(#SVGID_2_)" fill="#E1C51B" d="M8,759.3c0,0,18-37.4,22.3-38s273.9-30.9,273.9-30.9v68.6L8,759.3z"/>
	<path clip-path="url(#SVGID_2_)" fill="#FBFFEB" d="M304.2,684.9c-6.1-3.1-280.6,29.4-283.5,31.8c-0.9,0.8-2.5,4.8-4.1,9.9
		l0.4,28.6l13-29.4L303.9,695L304.2,684.9z"/>
	<polyline clip-path="url(#SVGID_2_)" fill="#C18978" points="187.4,755.2 192.9,738.8 117.8,747.9 115.8,755.1 	"/>
	<polygon clip-path="url(#SVGID_2_)" fill="#FBFFEB" points="184.9,755 198.7,703.9 207.9,703.9 194.4,755.1 	"/>
	<polygon clip-path="url(#SVGID_2_)" fill="#FBFFEB" points="120.5,755.1 134.2,710 122.4,710 105.9,755.1 	"/>
	<polygon clip-path="url(#SVGID_2_)" fill="#FBFFEB" points="122.1,741.7 303.6,719.7 304.2,728.8 119.1,750.9 	"/>
	<path clip-path="url(#SVGID_2_)" fill="#FBFFEB" d="M271.7,755c0,0,7.3-54.4,11.5-99.6c0.4-4.6,1.7-11.2-4.3-16.5
		c-15.2-13.4-126.6,3.4-143.3-3.4c-20-8.1-8.9-29.3-21-45.2c-17.5-22.8-16.1-39.4-16.3-40.3c-0.4-1.6-16.3-8-16.3-8
		s-5.7,18.2-2.8,24.3c2.8,6.1,13.8,20.9,18.5,27.1c6.5,8.5,2.5,44.4,24.7,54.3c29.3,13,136.3-6.1,144.8,2.4
		c4.5,4.5-11.6,104.8-11.6,104.8H271.7z"/>
	<polygon clip-path="url(#SVGID_2_)" fill="#987251" points="229.4,725.8 228.5,707.8 253.5,704 255.9,722.9 	"/>
	<polygon clip-path="url(#SVGID_2_)" fill="#CD996D" points="255.9,692.4 233.4,696 228.5,707.8 253.5,704 	"/>
	<polygon clip-path="url(#SVGID_2_)" fill="#846348" points="258.5,707 255.9,722.9 253.5,704 255.9,692.4 	"/>
	<path clip-path="url(#SVGID_2_)" fill="#754532" d="M247.3,723.7c0,0-3-8.6,1.2-9.3c3.8-0.7,3.8,8.9,3.8,8.9L247.3,723.7z"/>
	<path clip-path="url(#SVGID_2_)" fill="#754532" d="M239.4,724.7c0,0-2.9-8.5,1.3-9.2c3.8-0.6,3.8,8.5,3.8,8.5L239.4,724.7z"/>
	<path clip-path="url(#SVGID_2_)" fill="#754532" d="M237,713.2c0,0-1.3-3.8,0.7-4.1c2-0.3,1.7,3.5,1.7,3.5L237,713.2z"/>
	<path clip-path="url(#SVGID_2_)" fill="#754532" d="M242.5,712c0,0-1.4-4.2,0.7-4.2c1.8,0,2,3.7,2,3.7L242.5,712z"/>
	<path clip-path="url(#SVGID_2_)" fill="#754532" d="M247.9,711.1c0,0-1.4-4.2,0.7-4.2c1.8,0,1.8,3.8,1.8,3.8L247.9,711.1z"/>
	<path clip-path="url(#SVGID_2_)" fill="#754532" d="M231,714c0,0-1.1-4.1,0.9-4.1c1.8,0,1.5,3.6,1.5,3.6L231,714z"/>
	<path clip-path="url(#SVGID_2_)" fill="#754532" d="M231.4,725.6c0,0-2.9-8.5,1.3-9.1c3.8-0.6,3.8,8.5,3.8,8.5L231.4,725.6z"/>
	<polygon clip-path="url(#SVGID_2_)" fill="#F2E3D3" points="232.7,699.4 250.3,696.8 249.9,704 230.3,706.8 	"/>
	<polygon clip-path="url(#SVGID_2_)" fill="#1EABF0" points="233.5,699.7 249.2,697.6 248.9,703.3 231.4,705.8 	"/>
	<polyline clip-path="url(#SVGID_2_)" fill="#E4E3E2" points="92.9,755.1 91.1,729.8 97.3,717.8 101.7,742.3 97.2,755.1 92.9,755.1 
		91.1,729.8 57.6,729.8 58.9,755.1 	"/>
	<polygon clip-path="url(#SVGID_2_)" fill="#979383" points="65,714.1 57.6,729.8 91.1,729.8 99.2,714.1 	"/>
	<polygon clip-path="url(#SVGID_2_)" fill="#C0BEBB" points="104,747.6 102.9,752.8 99.7,749.2 96.9,734.3 94.5,717.5 96.9,715.1 
		102.9,715.4 	"/>
	<polygon clip-path="url(#SVGID_2_)" fill="#C8C6C5" points="94.6,755.1 94.5,717.5 100.8,717.8 102.9,752.8 100.9,755.1 	"/>
	<path clip-path="url(#SVGID_2_)" fill="#754532" d="M70.5,755.1c0.6-2.4,1.9-4.2,4.5-4.2c2.6,0,4,1.8,4.8,4.2L70.5,755.1z"/>
	<path clip-path="url(#SVGID_2_)" fill="#754532" d="M96.4,726.1c0,0-1.2-5.5,1.1-5.5c2.3,0,1.8,5.5,1.8,5.5H96.4z"/>
	<path clip-path="url(#SVGID_2_)" fill="#754532" d="M96.4,735.2c0,0-1.2-5.5,1.1-5.5c2.3,0,1.8,5.5,1.8,5.5H96.4z"/>
	<path clip-path="url(#SVGID_2_)" fill="#754532" d="M96.4,745.4c0,0-1.2-5.5,1.1-5.5c2.3,0,1.8,5.5,1.8,5.5H96.4z"/>
	<polygon clip-path="url(#SVGID_2_)" fill="#754532" points="98.6,715.2 98.6,698.7 100.6,698.7 100.6,715.3 	"/>
	<rect x="96.1" y="703.3" clip-path="url(#SVGID_2_)" fill="#754532" width="6.9" height="2.8"/>
	<rect x="70.7" y="735.2" clip-path="url(#SVGID_2_)" fill="#754532" width="6.9" height="7.4"/>
	<polygon clip-path="url(#SVGID_2_)" fill="#E4E3E2" points="31.7,755.1 31.7,738.9 58.1,739.9 58.9,755.1 	"/>
	<polygon clip-path="url(#SVGID_2_)" fill="#979383" points="36.6,729.8 57.6,729.8 58.1,739.9 31.7,738.9 	"/>
	<path clip-path="url(#SVGID_2_)" fill="#754532" d="M43.5,755.1c0.2-2.9,1-5.6,3.1-5.6c2,0,2.8,2.7,3,5.6L43.5,755.1z"/>
	<path id="palm1_153_" clip-path="url(#SVGID_2_)" fill="#754532" d="M54.9,755.1c-0.1-1.6-0.1-3.1,0-4.4c0.4-3,0.5-5,0.5-6.9
		l1.3-0.8c-0.1,0.9-0.8,8.8-0.6,10c0,0.4,0.1,1.1,0.3,2.1L54.9,755.1z"/>
	<path id="palm1_152_" clip-path="url(#SVGID_2_)" fill="#754532" d="M59.6,739.7c0.1,0.7-0.4,1.4-0.4,1.4l-0.6-0.8
		c0,0-0.6,2.4-0.8,2.4c0,0-1.4,2.2-2.2,1.7s-2-2.4-2-2.4s-0.6-1.1-0.7-1.7c0,0,1.2-2.9,2.8-2.7C57.2,737.7,59.6,739.7,59.6,739.7z"
		/>
	<path id="palm1_151_" clip-path="url(#SVGID_2_)" fill="#1FCEAC" d="M60.2,742.5c0.2,0,0.4-1.8,0.7-1.9c0.2-0.1,1.2,2.6,1.5,3.4
		c0.3,0.8,4,4,4.1,4c0.2-0.1,0.3-4.1-0.1-5.2s-2.5-3-2.7-3.1c-0.2-0.2,0.3-0.3,0.5-0.5c0.2-0.2-3.1-2.8-3.1-2.8s1.9,0.9,2.4,0.8
		c0.5-0.1,0.1-0.6,0.1-0.6s0.6,0.3,1.7,0.3c2,0.1,5.9,2.3,6.4,1.9c0.3-0.2-1.8-3.3-3.3-4c-1.1-0.5-4.5-1.1-4.7-1.2
		c-0.3-0.1,0.2-0.3,0.2-0.7s-2.2,0.5-3,0.7c-0.8,0.2-2.7,1.4-3.5,1.1s3-3.1,3.1-3.2c0.1-0.2-1.3-0.5-1.3-0.8
		c-0.1-0.2,4.7-2.2,4.6-2.4c0-0.1-1.2-0.6-2-0.8c-0.8-0.2-2.9,0-2.9,0s0-0.8,0-1c0-0.2-1.4,0.4-2.1,0.9c-0.7,0.5-2,2.4-2.2,2.6
		c-0.2,0.2-1-0.6-1.1-0.6c-0.1,0,0.2,1.7,0.3,2.5c0.1,0.8,0.4,2.4,0.4,2.4s0,0-1.3-1.1c-1.3-1.1-3-1.7-3-1.7
		c-0.2,0.1,0.3,0.8,0.3,0.8s-2.2,0-3.6,0.4s-2.6,2.9-2.5,3c0.1,0.1,1.2-0.4,2-0.5c1.3-0.3,3.4,0,3.4,0s-1,0.5-1.8,0.7
		c-0.8,0.1-2.9,1.5-2.9,1.6c0.1,0.3,1.2,0.5,1.2,0.5s-1.8,1.6-2.1,2.7c-0.4,1.4-0.3,3.5-0.3,4c0,0.5,3.9-4.3,3.9-4.3
		s0.3,0.3,0.5,0.3c0.1,0,0.3-0.5,0.7-1.4c0.3-0.8,2-1.3,2-1.3s-1.3,2-2,3s-1.2,3.2-1.2,3.4s0.4-0.5,0.6-0.5s1.5,5.8,2,6.4
		c0.5,0.6,1.8-6,1.8-6l0.7,0c0,0,1.2-1.7,1-2.4c0,0-0.3-2.9,1.7-3.5C55.2,738.5,58.1,743,60.2,742.5z"/>
	<path clip-path="url(#SVGID_2_)" fill="#4C2F17" d="M140.9,755.1"/>
	<path clip-path="url(#SVGID_2_)" fill="#4C2F17" d="M141.2,757.6"/>
	<polyline clip-path="url(#SVGID_2_)" fill="#4C2F17" points="140.9,755.1 140.9,753 144.8,751.1 156.7,751.1 162.1,751.8 
		161.5,755.1 	"/>
	<polygon clip-path="url(#SVGID_2_)" fill="#C18978" points="140.9,755.1 140.9,753 144.1,755.1 157.3,755.1 162.1,751.7 
		161.8,755.1 	"/>
	<polyline clip-path="url(#SVGID_2_)" fill="#987251" points="147.7,755.1 147.7,747.4 146.5,747.4 146.5,755.1 	"/>
	<polygon clip-path="url(#SVGID_2_)" fill="#987251" points="142,755.1 142,747.4 142.9,747.4 142.9,755.1 	"/>
	<polygon clip-path="url(#SVGID_2_)" fill="#987251" points="157.9,755.1 157.9,746.8 156.7,746.8 156.7,755.1 	"/>
	<rect x="160.3" y="746" clip-path="url(#SVGID_2_)" fill="#987251" width="1.2" height="8.5"/>
	<polygon clip-path="url(#SVGID_2_)" fill="#FAC89D" points="150.6,736 139.7,746.8 145.1,750.2 156.7,750.2 162.5,746.8 	"/>
	<polygon clip-path="url(#SVGID_2_)" fill="#FAC89D" points="150.5,733.4 146.1,737.7 148.3,739.1 153,739.1 155.3,737.7 	"/>
	<g clip-path="url(#SVGID_2_)">
		<path fill="#E9612C" d="M259.1,649.6c25.2,9.3,11.2,42.5-12.4,33.8C223.1,674.8,237.3,641.6,259.1,649.6z"/>
		<polygon fill="#E9612C" points="243.3,676.3 254.2,680.3 242.5,694.9 		"/>
	</g>
	<g clip-path="url(#SVGID_2_)">
		<path fill="#987251" d="M215.4,724c0.4,0.3,1,0.5,1.7,0c0.5-0.3,0-8.1,0-8.1h-1.7C215.4,716,215.1,723.8,215.4,724z"/>
		<path fill="#1FCEAC" d="M221.5,716c0,0,3.3,3.6,3.8-1.9c0,0,1.5-5-1.9-5.9c0,0-4-10.3-10.1-2.3c0,0-4,2.3-2.9,4.1
			c0,0-2.7,2.2-1.1,3.7c0,0,2.9,3.8,4.2,2.3c0,0,2.7,2.7,4.8,0C218.2,716,219,718.1,221.5,716z"/>
	</g>
	<path clip-path="url(#SVGID_2_)" fill="#987251" d="M247.2,755.1c-0.3-0.2,0.1-7.4,0.1-7.4h1.7c0,0,0.6,7.1,0.1,7.4H247.2z"/>
	<path clip-path="url(#SVGID_2_)" fill="#6CC399" d="M253.4,747.8c0,0,3.3,3.6,3.8-1.9c0,0,1.5-5-1.9-5.9c0,0-4-10.3-10.1-2.3
		c0,0-4,2.3-2.9,4.1c0,0-2.7,2.2-1.1,3.7c0,0,2.9,3.8,4.2,2.3c0,0,2.7,2.7,4.8,0C250.2,747.8,251,749.9,253.4,747.8z"/>
	<g clip-path="url(#SVGID_2_)">
		<polygon fill="#CD996D" points="129.7,714 138.1,706.8 174.7,703.1 170.1,709.9 		"/>
		<path fill="#F5E7A7" d="M171.3,727.7l-1.2-17.7l-5,0.6c0,0,0-0.9-1.3-2.2c-1.4-1.5-4.7-0.6-4.7-0.6s-1-3.3-3.7-3.7
			c-2.1-0.3-3.4,0.5-3.4,0.5l-0.1-1.9l-4.7,0.5v1.8c0,0-1.1-0.5-3,0.1c-2.4,0.8-3.3,4.1-3.3,4.1s-2.1-0.8-4.2,0.5
			c-1.9,1.1-1.5,3.6-1.5,3.6l-5.6,0.8v18L171.3,727.7z"/>
		<polygon fill="#F6E177" points="171.3,727.7 170.1,709.9 174.7,703.1 176.4,720.1 		"/>
		<path fill="#754532" d="M167.2,728c0,0-0.2-6.6-2.2-6.5c-2.2,0.1-0.9,6.9-0.9,6.9L167.2,728z"/>
		<path fill="#754532" d="M161.6,728.8c0,0-0.1-6.9-2.1-6.8c-2.2,0.1-1,7-1,7L161.6,728.8z"/>
		<path fill="#754532" d="M135.6,731.5c0,0,0-7-2.4-6.7c-2.2,0.2-0.9,7.1-0.9,7.1L135.6,731.5z"/>
		<path fill="#754532" d="M153.6,729.6c0,0-0.2-4-0.6-6.8c-0.2-1.3-2.1-4.2-3.3-4c-1.4,0.2-2.7,3-2.7,4.4c0,3.2,0.5,7,0.5,7
			L153.6,729.6z"/>
		<polygon fill="#754532" points="141.1,711.7 159.3,709.7 159.5,710.7 141.1,712.7 		"/>
	</g>
	<g clip-path="url(#SVGID_2_)">
		<g>
			<g>
				<g>
					<g>
						<path fill="#8B6255" d="M191,726.5l-1.7-13.4l1.5-5.2c0,0,1.4,13.3,1.2,13.6C191.8,721.9,191,726.5,191,726.5z"/>
						<path fill="#8B6255" d="M172.3,714.7c0,0,2-4.8,3.1-5.3c0.4-0.2,15.4-1.6,15.4-1.6l-1,5.2L172.3,714.7z"/>
						<polygon fill="#6CC399" points="189.8,713.1 191,726.5 173.3,727.9 172.3,714.7 						"/>
					</g>
				</g>
			</g>
			<path fill="#754532" d="M178,727.4c0,0,0.2-6.7-1.8-6.6c-2.2,0.1-1.3,6.8-1.3,6.8L178,727.4z"/>
			<path fill="#754532" d="M189.1,726.5c0,0,0-6.5-2-6.4c-2.2,0.1-1.1,6.6-1.1,6.6L189.1,726.5z"/>
			<path fill="#754532" d="M183.9,727c0,0,0-6.5-2-6.4c-2.2,0.1-1.1,6.6-1.1,6.6L183.9,727z"/>
		</g>
		<polygon fill="#C8C6C5" points="172.5,717.2 190,715.5 190.1,717.2 172.6,718.8 		"/>
	</g>
	<path clip-path="url(#SVGID_2_)" fill="#F4E8DF" d="M179.5,750.5l6-11.4l-0.1,9c-0.1,0.2-1,3.5-2.1,7.1h-3.4"/>
	<path clip-path="url(#SVGID_2_)" fill="#C18978" d="M162.9,750.8c0,0,4.8-9.3,5.9-9.7c0.4-0.1,16.7-2.1,16.7-2.1l-6,11.4
		L162.9,750.8z"/>
	<path clip-path="url(#SVGID_2_)" fill="#F4E8DF" d="M162.9,753.3"/>
	<path clip-path="url(#SVGID_2_)" fill="#F4E8DF" d="M163.7,766.6"/>
	<path clip-path="url(#SVGID_2_)" fill="#A35942" d="M182.1,755.1c-0.1-2.4,0-5.7,1.2-8c0.9-1.7,0.8,5.4,0.8,5.4l-0.8,2.6"/>
	<path clip-path="url(#SVGID_2_)" fill="#754532" d="M184.6,747c0,0-0.4-2.7,0.4-4.3c0.3-0.7,0.3,2.1,0.3,2.1L184.6,747z"/>
	<path clip-path="url(#SVGID_2_)" fill="#754532" d="M180.2,755.1c0-0.7,0.2-1.5,0.5-2.1c0.3-0.7,0.3,2.1,0.3,2.1"/>
	<g clip-path="url(#SVGID_2_)">
		<path fill="#987251" d="M153.2,617.5c0.3,0.2,0.8,0.4,1.4,0c0.4-0.2,0-6.4,0-6.4h-1.4C153.2,611.1,153,617.4,153.2,617.5z"/>
		<g>
			<path fill="#987251" d="M133.7,616.6c0.4,0.3,0.9,0.4,1.5,0c0.4-0.3,0-7.2,0-7.2h-1.5C133.7,609.4,133.4,616.4,133.7,616.6z"/>
			<path fill="#1FCEAC" d="M157.3,611c0,0,2.6,2.9,3-1.5c0,0,1.2-3.9-1.5-4.7c0,0-3.2-8.2-8.1-1.8c0,0-3.1,1.8-2.3,3.3
				c0,0-2.1,1.7-0.9,2.9c0,0,2.3,3,3.4,1.8c0,0,2.1,2.1,3.8,0C154.7,611,155.4,612.7,157.3,611z"/>
			<g>
				<g>
					<path fill="#0CAA8B" d="M146.9,608.4c0.3,0.2,0.8,0.4,1.4,0c0.4-0.2,0-6.4,0-6.4h-1.4C146.9,602,146.6,608.2,146.9,608.4z"/>
					<path fill="#0CAA8B" d="M151.7,602c0,0,2.6,2.9,3-1.5c0,0,1.2-3.9-1.5-4.7c0,0-3.2-8.2-8.1-1.8c0,0-3.1,1.8-2.3,3.3
						c0,0-2.1,1.7-0.9,2.9c0,0,2.3,3,3.4,1.8c0,0,2.1,2.1,3.8,0C149.2,602,149.8,603.6,151.7,602z"/>
				</g>
				<g>
					<path fill="#754532" d="M142.4,614.2c0.3,0.2,0.8,0.4,1.4,0c0.4-0.2,0-6.4,0-6.4h-1.4C142.4,607.8,142.2,614,142.4,614.2z"/>
					<path fill="#1FCEAC" d="M147.3,607.8c0,0,2.6,2.9,3-1.5c0,0,1.2-3.9-1.5-4.7c0,0-3.2-8.2-8.1-1.8c0,0-3.1,1.8-2.3,3.3
						c0,0-2.1,1.7-0.9,2.9c0,0,2.3,3,3.4,1.8c0,0,2.1,2.1,3.8,0C144.7,607.8,145.3,609.5,147.3,607.8z"/>
				</g>
				<path fill="#6CC399" d="M139.2,609.4c0,0,2.9,3.2,3.4-1.7c0,0,1.4-4.4-1.7-5.3c0,0-3.6-9.2-9-2c0,0-3.5,2.1-2.6,3.7
					c0,0-2.4,1.9-1,3.3c0,0,2.6,3.4,3.8,2c0,0,2.4,2.4,4.3,0C136.3,609.4,136.9,611.2,139.2,609.4z"/>
				<g>
					<path fill="#0CAA8B" d="M168.9,606.6c0.5,0.3,1.2,0.5,2,0c0.5-0.3,0-9.2,0-9.2h-2C168.9,597.3,168.6,606.3,168.9,606.6z"/>
					<path fill="#0CAA8B" d="M175.9,597.3c0,0,3.7,4.2,4.4-2.2c0,0,1.7-5.7-2.2-6.8c0,0-4.6-11.7-11.6-2.6c0,0-4.5,2.7-3.4,4.7
						c0,0-3.1,2.5-1.3,4.2c0,0,3.3,4.4,4.8,2.6c0,0,3.1,3.1,5.5,0C172.2,597.3,173.1,599.7,175.9,597.3z"/>
				</g>
				<g>
					<path fill="#754532" d="M162.5,615c0.5,0.3,1.2,0.5,2,0c0.5-0.3,0-9.2,0-9.2h-2C162.5,605.7,162.1,614.7,162.5,615z"/>
					<path fill="#1FCEAC" d="M169.5,605.7c0,0,3.7,4.2,4.4-2.2c0,0,1.7-5.7-2.2-6.8c0,0-4.6-11.7-11.6-2.6c0,0-4.5,2.7-3.4,4.7
						c0,0-3.1,2.5-1.3,4.2c0,0,3.3,4.4,4.8,2.6c0,0,3.1,3.1,5.5,0C165.8,605.7,166.6,608.1,169.5,605.7z"/>
				</g>
				<g>
					<path fill="#987251" d="M168.4,629.2c0.5,0.3,1.1,0.5,1.9,0c0.5-0.3,0-8.9,0-8.9h-1.9C168.4,620.3,168,629,168.4,629.2z"/>
					<path fill="#6CC399" d="M175.1,620.3c0,0,3.6,4,4.2-2.1c0,0,1.7-5.5-2.1-6.5c0,0-4.4-11.3-11.1-2.5c0,0-4.3,2.6-3.2,4.5
						c0,0-2.9,2.4-1.2,4.1c0,0,3.2,4.2,4.7,2.5c0,0,2.9,2.9,5.2,0C171.5,620.3,172.4,622.6,175.1,620.3z"/>
				</g>
				<g>
					<path fill="#987251" d="M146.8,628.8c0.5,0.3,1.1,0.5,2,0c0.5-0.3,0-9.2,0-9.2h-2C146.8,619.7,146.4,628.6,146.8,628.8z"/>
					<path fill="#0CAA8B" d="M153.7,619.7c0,0,3.7,4.1,4.3-2.2c0,0,1.7-5.6-2.2-6.7c0,0-4.6-11.7-11.5-2.6c0,0-4.5,2.6-3.3,4.7
						c0,0-3,2.5-1.3,4.2c0,0,3.3,4.3,4.8,2.6c0,0,3,3,5.4,0C150,619.7,150.9,622.1,153.7,619.7z"/>
				</g>
			</g>
			<g>
				<path id="palm1_150_" fill="#754532" d="M181.8,600.4c0,1.3-0.1,2.7-0.3,4.8c-0.3,2.3,0.3,5.3,0.3,7.6
					c0.1,1.9-0.6,10.2-0.9,13.3c-0.1,0.7-0.4,1.1-0.4,1.1h1.8c0,0,0,0-0.4-1c-0.2-0.5,0.8-11.2,0.8-12.2c0.1-2.4-0.4-6.3-0.5-7.1
					c-0.1-0.8,0.4-6.3,0.4-7L181.8,600.4z"/>
				<path id="palm1_149_" fill="#754532" d="M184.8,597.6c0.1,0.5-0.3,1-0.3,1l-0.4-0.6c0,0-0.4,1.7-0.5,1.7c0,0-1,1.5-1.5,1.2
					c-0.6-0.3-1.4-1.7-1.4-1.7s-0.4-0.8-0.5-1.2c0,0,0.8-2,1.9-1.9C183.1,596.2,184.8,597.6,184.8,597.6z"/>
				<path id="palm1_147_" fill="#6CC399" d="M185.2,599.5c0.1,0,0.3-1.2,0.5-1.3c0.2,0,0.8,1.8,1,2.4s2.8,2.8,2.9,2.8
					c0.2,0,0.2-2.9,0-3.6c-0.3-0.8-1.7-2.1-1.9-2.2c-0.1-0.1,0.2-0.2,0.4-0.3c0.2-0.1-2.2-1.9-2.2-1.9s1.3,0.6,1.7,0.6
					c0.3,0,0-0.4,0-0.4s0.4,0.2,1.2,0.2c1.4,0,4.1,1.6,4.5,1.3c0.2-0.1-1.2-2.3-2.3-2.8c-0.7-0.3-3.1-0.8-3.3-0.9
					c-0.2-0.1,0.1-0.2,0.1-0.5c0-0.2-1.5,0.3-2.1,0.5c-0.6,0.1-1.9,1-2.4,0.8c-0.5-0.2,2.1-2.1,2.2-2.3c0.1-0.1-0.9-0.4-0.9-0.5
					c0-0.2,3.3-1.5,3.2-1.7c0-0.1-0.8-0.4-1.4-0.6s-2,0-2,0s0-0.6,0-0.7s-0.9,0.3-1.4,0.7c-0.5,0.4-1.4,1.7-1.5,1.8
					c-0.1,0.1-0.7-0.4-0.8-0.4s0.1,1.2,0.2,1.7c0.1,0.6,0.3,1.7,0.3,1.7s0,0-0.9-0.8c-0.9-0.8-2.1-1.2-2.1-1.2
					c-0.1,0.1,0.2,0.6,0.2,0.6s-1.6,0-2.5,0.3c-0.9,0.3-1.8,2-1.7,2.1c0.1,0.1,0.9-0.2,1.4-0.4c0.9-0.2,2.4,0,2.4,0
					s-0.7,0.4-1.3,0.5s-2,1.1-2,1.1c0,0.2,0.8,0.3,0.8,0.3s-1.3,1.1-1.5,1.9c-0.3,1-0.2,2.5-0.2,2.8c0,0.4,2.7-3,2.7-3
					s0.2,0.2,0.4,0.2c0.1,0,0.2-0.4,0.5-0.9c0.2-0.6,1.4-0.9,1.4-0.9s-0.9,1.4-1.4,2.1c-0.5,0.7-0.8,2.2-0.8,2.4s0.3-0.4,0.4-0.3
					c0.1,0,1,4.1,1.4,4.5s1.2-4.2,1.2-4.2l0.5,0c0,0,0.9-1.2,0.7-1.7c0,0-0.2-2.1,1.1-2.4C181.7,596.7,183.8,599.9,185.2,599.5z"/>
			</g>
			<g>
				<path id="palm1_146_" fill="#754532" d="M192.9,596c0,1.3-0.1,2.7-0.3,4.8c-0.3,2.3,0.3,5.3,0.3,7.6c0.1,1.9-0.6,10.2-0.9,13.3
					c-0.1,0.7-0.4,1.1-0.4,1.1h1.8c0,0,0,0-0.4-1c-0.2-0.5,0.8-11.2,0.8-12.2c0.1-2.4-0.4-6.3-0.5-7.1c-0.1-0.8,0.4-6.3,0.4-7
					L192.9,596z"/>
				<path id="palm1_145_" fill="#754532" d="M195.8,593.2c0.1,0.5-0.3,1-0.3,1l-0.4-0.6c0,0-0.4,1.7-0.5,1.7c0,0-1,1.5-1.5,1.2
					c-0.6-0.3-1.4-1.7-1.4-1.7s-0.4-0.8-0.5-1.2c0,0,0.8-2,1.9-1.9S195.8,593.2,195.8,593.2z"/>
				<path id="palm1_144_" fill="#1FCEAC" d="M196.2,595.1c0.1,0,0.3-1.2,0.5-1.3c0.2,0,0.8,1.8,1,2.4s2.8,2.8,2.9,2.8
					c0.2,0,0.2-2.9,0-3.6c-0.3-0.8-1.7-2.1-1.9-2.2c-0.1-0.1,0.2-0.2,0.4-0.3c0.2-0.1-2.2-1.9-2.2-1.9s1.3,0.6,1.7,0.6s0-0.4,0-0.4
					s0.4,0.2,1.2,0.2c1.4,0,4.1,1.6,4.5,1.3c0.2-0.1-1.2-2.3-2.3-2.8c-0.7-0.3-3.1-0.8-3.3-0.9c-0.2-0.1,0.1-0.2,0.1-0.5
					c0-0.2-1.5,0.3-2.1,0.5s-1.9,1-2.4,0.8c-0.5-0.2,2.1-2.1,2.2-2.3c0.1-0.1-0.9-0.4-0.9-0.5s3.3-1.5,3.2-1.7
					c0-0.1-0.8-0.4-1.4-0.6s-2,0-2,0s0-0.6,0-0.7s-0.9,0.3-1.4,0.7c-0.5,0.4-1.4,1.7-1.5,1.8s-0.7-0.4-0.8-0.4
					c-0.1,0,0.1,1.2,0.2,1.7c0.1,0.6,0.3,1.7,0.3,1.7s0,0-0.9-0.8c-0.9-0.8-2.1-1.2-2.1-1.2c-0.1,0.1,0.2,0.6,0.2,0.6
					s-1.6,0-2.5,0.3s-1.8,2-1.7,2.1c0.1,0.1,0.9-0.2,1.4-0.4c0.9-0.2,2.4,0,2.4,0s-0.7,0.4-1.3,0.5c-0.6,0.1-2,1.1-2,1.1
					c0,0.2,0.8,0.3,0.8,0.3s-1.3,1.1-1.5,1.9c-0.3,1-0.2,2.5-0.2,2.8c0,0.4,2.7-3,2.7-3s0.2,0.2,0.4,0.2c0.1,0,0.2-0.4,0.5-0.9
					s1.4-0.9,1.4-0.9s-0.9,1.4-1.4,2.1c-0.5,0.7-0.8,2.2-0.8,2.4s0.3-0.4,0.4-0.3c0.1,0,1,4.1,1.4,4.5c0.3,0.4,1.2-4.2,1.2-4.2
					l0.5,0c0,0,0.9-1.2,0.7-1.7c0,0-0.2-2.1,1.1-2.4C192.8,592.3,194.8,595.5,196.2,595.1z"/>
			</g>
		</g>
	</g>
	<path id="palm1_143_" clip-path="url(#SVGID_2_)" fill="#754532" d="M75,755.1c-0.1-1.5-0.1-3,0-4.3c0.4-3,0.5-5,0.5-6.9l1.3-0.8
		c-0.1,0.9-0.8,8.8-0.6,10c0,0.3,0.1,1.1,0.2,2L75,755.1z"/>
	<path id="palm1_142_" clip-path="url(#SVGID_2_)" fill="#754532" d="M79.8,739.8c0.1,0.7-0.4,1.4-0.4,1.4l-0.6-0.8
		c0,0-0.6,2.4-0.8,2.4c0,0-1.4,2.2-2.2,1.7c-0.8-0.4-2-2.4-2-2.4s-0.6-1.1-0.7-1.7c0,0,1.2-2.9,2.8-2.7S79.8,739.8,79.8,739.8z"/>
	<path id="palm1_140_" clip-path="url(#SVGID_2_)" fill="#6CC399" d="M80.3,742.6c0.2,0,0.4-1.8,0.7-1.9c0.2-0.1,1.2,2.6,1.5,3.4
		c0.3,0.8,4,4,4.1,4c0.2-0.1,0.3-4.1-0.1-5.2c-0.4-1.1-2.5-3-2.7-3.1c-0.2-0.2,0.3-0.3,0.5-0.5c0.2-0.2-3.1-2.8-3.1-2.8
		s1.9,0.9,2.4,0.8c0.5-0.1,0.1-0.6,0.1-0.6s0.6,0.3,1.7,0.3c2,0.1,5.9,2.3,6.4,1.9c0.3-0.2-1.8-3.3-3.3-4c-1.1-0.5-4.5-1.1-4.7-1.2
		c-0.3-0.1,0.2-0.3,0.2-0.7c0-0.3-2.2,0.5-3,0.7c-0.8,0.2-2.7,1.4-3.5,1.1s3-3.1,3.1-3.2c0.1-0.2-1.3-0.5-1.3-0.8
		c-0.1-0.2,4.7-2.2,4.6-2.4c0-0.1-1.2-0.6-2-0.8s-2.9,0-2.9,0s0-0.8,0-1c0-0.2-1.4,0.4-2.1,0.9c-0.7,0.5-2,2.4-2.2,2.6
		c-0.2,0.2-1-0.6-1.1-0.6s0.2,1.7,0.3,2.5c0.1,0.8,0.4,2.4,0.4,2.4s0,0-1.3-1.1c-1.3-1.1-3-1.7-3-1.7c-0.2,0.1,0.3,0.8,0.3,0.8
		s-2.2,0-3.6,0.4c-1.3,0.4-2.6,2.9-2.5,3c0.1,0.1,1.2-0.4,2-0.5c1.3-0.3,3.4,0,3.4,0s-1,0.5-1.8,0.7s-2.9,1.5-2.9,1.6
		c0.1,0.3,1.2,0.5,1.2,0.5s-1.8,1.6-2.1,2.7c-0.4,1.4-0.3,3.5-0.3,4c0,0.5,3.9-4.3,3.9-4.3s0.3,0.3,0.5,0.3c0.1,0,0.3-0.5,0.7-1.4
		c0.3-0.8,2-1.3,2-1.3s-1.3,2-2,3s-1.2,3.2-1.2,3.4c0,0.2,0.4-0.5,0.6-0.5c0.2,0,1.5,5.8,2,6.4c0.5,0.6,1.8-6,1.8-6l0.7,0
		c0,0,1.2-1.7,1-2.4c0,0-0.3-2.9,1.7-3.5C75.4,738.6,78.3,743.2,80.3,742.6z"/>
	<g clip-path="url(#SVGID_2_)">
		<path id="palm1_139_" fill="#754532" d="M224.5,696.2c0,1.5-0.1,3.1-0.4,5.4c-0.3,2.6,0.3,6,0.4,8.6c0.1,2.1-0.7,11.6-1,15.1
			c-0.1,0.8-0.4,1.2-0.4,1.2h2c0,0,0,0-0.4-1.1c-0.2-0.5,0.9-12.7,0.9-13.9c0.1-2.7-0.5-7.2-0.6-8.1c-0.1-0.9,0.4-7.2,0.5-7.9
			L224.5,696.2z"/>
		<path id="palm1_138_" fill="#754532" d="M227.8,693c0.1,0.5-0.3,1.1-0.3,1.1l-0.5-0.6c0,0-0.5,1.9-0.6,1.9c0,0-1.1,1.7-1.8,1.4
			c-0.6-0.3-1.6-1.9-1.6-1.9s-0.5-0.9-0.5-1.4c0,0,0.9-2.3,2.2-2.1C225.9,691.4,227.8,693,227.8,693z"/>
		<path id="palm1_136_" fill="#6CC399" d="M228.3,695.2c0.1,0,0.3-1.4,0.5-1.5c0.2-0.1,0.9,2.1,1.2,2.7c0.2,0.6,3.1,3.2,3.2,3.1
			c0.2,0,0.2-3.3-0.1-4.1c-0.3-0.9-2-2.3-2.1-2.5c-0.1-0.1,0.2-0.2,0.4-0.4c0.2-0.1-2.5-2.2-2.5-2.2s1.5,0.7,1.9,0.7
			c0.4-0.1,0.1-0.4,0.1-0.4s0.5,0.2,1.3,0.2c1.5,0.1,4.7,1.8,5.1,1.5c0.2-0.2-1.4-2.6-2.6-3.2c-0.8-0.4-3.5-0.9-3.8-1
			c-0.2-0.1,0.2-0.2,0.2-0.5c0-0.3-1.7,0.4-2.4,0.5c-0.7,0.1-2.1,1.1-2.7,0.9c-0.6-0.2,2.4-2.4,2.5-2.6c0.1-0.1-1-0.4-1-0.6
			s3.7-1.7,3.6-1.9c0-0.1-0.9-0.5-1.6-0.7s-2.3,0-2.3,0s0-0.6,0-0.8s-1.1,0.3-1.6,0.7c-0.6,0.4-1.6,1.9-1.7,2
			c-0.1,0.2-0.8-0.5-0.9-0.5s0.2,1.3,0.3,2c0.1,0.6,0.3,1.9,0.3,1.9s0,0-1-0.9c-1-0.9-2.4-1.3-2.4-1.3c-0.1,0.1,0.2,0.6,0.2,0.6
			s-1.8,0-2.8,0.3c-1,0.3-2.1,2.3-2,2.3c0.1,0.1,1-0.3,1.6-0.4c1-0.2,2.7,0,2.7,0s-0.8,0.4-1.4,0.5c-0.7,0.1-2.3,1.2-2.3,1.3
			c0,0.2,0.9,0.4,0.9,0.4s-1.4,1.3-1.7,2.1c-0.3,1.1-0.3,2.8-0.3,3.2c0,0.4,3.1-3.4,3.1-3.4s0.2,0.2,0.4,0.3c0.1,0,0.2-0.4,0.5-1.1
			c0.3-0.7,1.5-1,1.5-1s-1,1.6-1.6,2.3c-0.6,0.8-0.9,2.5-0.9,2.7s0.3-0.4,0.4-0.4s1.2,4.6,1.5,5.1c0.4,0.5,1.4-4.8,1.4-4.8l0.6,0
			c0,0,1-1.4,0.8-1.9c0,0-0.2-2.3,1.3-2.8C224.4,692,226.7,695.6,228.3,695.2z"/>
	</g>
	<g clip-path="url(#SVGID_2_)">
		<path id="palm1_127_" fill="#754532" d="M285.6,89.7c0,1.5-0.1,3.1-0.4,5.4c-0.3,2.6,0.3,6,0.4,8.6c0.1,2.1-0.7,11.6-1,15.1
			c-0.1,0.8-0.4,1.2-0.4,1.2h2c0,0,0,0-0.4-1.1c-0.2-0.5,0.9-12.7,0.9-13.9c0.1-2.7-0.5-7.2-0.6-8.1c-0.1-0.9,0.4-7.2,0.5-7.9
			L285.6,89.7z"/>
		<path id="palm1_126_" fill="#754532" d="M289,86.4c0.1,0.5-0.3,1.1-0.3,1.1l-0.5-0.6c0,0-0.5,1.9-0.6,1.9c0,0-1.1,1.7-1.8,1.4
			c-0.6-0.3-1.6-1.9-1.6-1.9s-0.5-0.9-0.5-1.4c0,0,0.9-2.3,2.2-2.1C287.1,84.8,289,86.4,289,86.4z"/>
		<path id="palm1_124_" fill="#6CC399" d="M289.4,88.6c0.1,0,0.3-1.4,0.5-1.5c0.2-0.1,0.9,2.1,1.2,2.7c0.2,0.6,3.1,3.2,3.2,3.1
			c0.2,0,0.2-3.3-0.1-4.1s-2-2.3-2.1-2.5c-0.1-0.1,0.2-0.2,0.4-0.4s-2.5-2.2-2.5-2.2s1.5,0.7,1.9,0.7c0.4-0.1,0.1-0.4,0.1-0.4
			s0.5,0.2,1.3,0.2c1.5,0.1,4.7,1.8,5.1,1.5c0.2-0.2-1.4-2.6-2.6-3.2c-0.8-0.4-3.5-0.9-3.8-1c-0.2-0.1,0.2-0.2,0.2-0.5
			c0-0.3-1.7,0.4-2.4,0.5c-0.7,0.1-2.1,1.1-2.7,0.9c-0.6-0.2,2.4-2.4,2.5-2.6s-1-0.4-1-0.6c-0.1-0.2,3.7-1.7,3.6-1.9
			c0-0.1-0.9-0.5-1.6-0.7s-2.3,0-2.3,0s0-0.6,0-0.8s-1.1,0.3-1.6,0.7c-0.6,0.4-1.6,1.9-1.7,2c-0.1,0.2-0.8-0.5-0.9-0.5
			s0.2,1.3,0.3,2s0.3,1.9,0.3,1.9s0,0-1-0.9s-2.4-1.3-2.4-1.3c-0.1,0.1,0.2,0.6,0.2,0.6s-1.8,0-2.8,0.3c-1,0.3-2.1,2.3-2,2.3
			c0.1,0.1,1-0.3,1.6-0.4c1-0.2,2.7,0,2.7,0s-0.8,0.4-1.4,0.5c-0.7,0.1-2.3,1.2-2.3,1.3c0,0.2,0.9,0.4,0.9,0.4s-1.4,1.3-1.7,2.1
			c-0.3,1.1-0.3,2.8-0.3,3.2c0,0.4,3.1-3.4,3.1-3.4s0.2,0.2,0.4,0.3c0.1,0,0.2-0.4,0.5-1.1s1.5-1,1.5-1s-1,1.6-1.6,2.3
			c-0.6,0.8-0.9,2.5-0.9,2.7s0.3-0.4,0.4-0.4c0.1,0,1.2,4.6,1.5,5.1s1.4-4.8,1.4-4.8l0.6,0c0,0,1-1.4,0.8-1.9c0,0-0.2-2.3,1.3-2.8
			C285.5,85.4,287.8,89,289.4,88.6z"/>
	</g>
	<g clip-path="url(#SVGID_2_)">
		<path id="palm1_123_" fill="#754532" d="M286.6,111.7c0,1.5-0.1,3.1-0.4,5.4c-0.3,2.6,0.3,6,0.4,8.6c0.1,2.1-0.7,11.6-1,15.1
			c-0.1,0.8-0.4,1.2-0.4,1.2h2c0,0,0,0-0.4-1.1c-0.2-0.5,0.9-12.7,0.9-13.9c0.1-2.7-0.5-7.2-0.6-8.1s0.4-7.2,0.5-7.9L286.6,111.7z"
			/>
		<path id="palm1_122_" fill="#754532" d="M290,108.4c0.1,0.5-0.3,1.1-0.3,1.1l-0.5-0.6c0,0-0.5,1.9-0.6,1.9c0,0-1.1,1.7-1.8,1.4
			s-1.6-1.9-1.6-1.9s-0.5-0.9-0.5-1.4c0,0,0.9-2.3,2.2-2.1C288.1,106.8,290,108.4,290,108.4z"/>
		<path id="palm1_120_" fill="#1FCEAC" d="M290.4,110.6c0.1,0,0.3-1.4,0.5-1.5c0.2-0.1,0.9,2.1,1.2,2.7c0.2,0.6,3.1,3.2,3.2,3.1
			c0.2,0,0.2-3.3-0.1-4.1s-2-2.3-2.1-2.5c-0.1-0.1,0.2-0.2,0.4-0.4s-2.5-2.2-2.5-2.2s1.5,0.7,1.9,0.7c0.4-0.1,0.1-0.4,0.1-0.4
			s0.5,0.2,1.3,0.2c1.5,0.1,4.7,1.8,5.1,1.5c0.2-0.2-1.4-2.6-2.6-3.2c-0.8-0.4-3.5-0.9-3.8-1c-0.2-0.1,0.2-0.2,0.2-0.5
			s-1.7,0.4-2.4,0.5s-2.1,1.1-2.7,0.9c-0.6-0.2,2.4-2.4,2.5-2.6c0.1-0.1-1-0.4-1-0.6c-0.1-0.2,3.7-1.7,3.6-1.9
			c0-0.1-0.9-0.5-1.6-0.7s-2.3,0-2.3,0s0-0.6,0-0.8c0-0.1-1.1,0.3-1.6,0.7c-0.6,0.4-1.6,1.9-1.7,2c-0.1,0.2-0.8-0.5-0.9-0.5
			c-0.1,0,0.2,1.3,0.3,2c0.1,0.6,0.3,1.9,0.3,1.9s0,0-1-0.9c-1-0.9-2.4-1.3-2.4-1.3c-0.1,0.1,0.2,0.6,0.2,0.6s-1.8,0-2.8,0.3
			s-2.1,2.3-2,2.3c0.1,0.1,1-0.3,1.6-0.4c1-0.2,2.7,0,2.7,0s-0.8,0.4-1.4,0.5c-0.7,0.1-2.3,1.2-2.3,1.3c0,0.2,0.9,0.4,0.9,0.4
			s-1.4,1.3-1.7,2.1c-0.3,1.1-0.3,2.8-0.3,3.2s3.1-3.4,3.1-3.4s0.2,0.2,0.4,0.3c0.1,0,0.2-0.4,0.5-1.1s1.5-1,1.5-1s-1,1.6-1.6,2.3
			c-0.6,0.8-0.9,2.5-0.9,2.7s0.3-0.4,0.4-0.4c0.1,0,1.2,4.6,1.5,5.1c0.4,0.5,1.4-4.8,1.4-4.8l0.6,0c0,0,1-1.4,0.8-1.9
			c0,0-0.2-2.3,1.3-2.8C286.5,107.5,288.8,111,290.4,110.6z"/>
	</g>
	<g clip-path="url(#SVGID_2_)">
		<path id="palm1_119_" fill="#754532" d="M295.7,90.3c0,1.5-0.1,3.1-0.4,5.4c-0.3,2.6,0.3,6,0.4,8.6c0.1,2.1-0.7,11.6-1,15.1
			c-0.1,0.8-0.4,1.2-0.4,1.2h2c0,0,0,0-0.4-1.1c-0.2-0.5,0.9-12.7,0.9-13.9c0.1-2.7-0.5-7.2-0.6-8.1s0.4-7.2,0.5-7.9L295.7,90.3z"/>
		<path id="palm1_118_" fill="#754532" d="M299.1,87c0.1,0.5-0.3,1.1-0.3,1.1l-0.5-0.6c0,0-0.5,1.9-0.6,1.9c0,0-1.1,1.7-1.8,1.4
			c-0.6-0.3-1.6-1.9-1.6-1.9s-0.5-0.9-0.5-1.4c0,0,0.9-2.3,2.2-2.1C297.2,85.5,299.1,87,299.1,87z"/>
		<path id="palm1_116_" fill="#1FCEAC" d="M299.5,89.2c0.1,0,0.3-1.4,0.5-1.5s0.9,2.1,1.2,2.7c0.2,0.6,2.6,2.8,2.7,2.7V89
			c-0.3-0.9-1.5-1.9-1.7-2c-0.1-0.1,0.2-0.2,0.4-0.4s-2.5-2.2-2.5-2.2s1.5,0.7,1.9,0.7s0.1-0.4,0.1-0.4s0.9,0.5,1.8,0.4v-2.4
			c-0.8-0.4-1.5-0.3-1.7-0.4c-0.2-0.1,0.2-0.2,0.2-0.5c0-0.3-1.7,0.4-2.4,0.5c-0.7,0.1-2.1,1.1-2.7,0.9c-0.6-0.2,2.4-2.4,2.5-2.6
			c0.1-0.1-1-0.4-1-0.6c-0.1-0.2,3.7-1.7,3.6-1.9c0-0.1-0.9-0.5-1.6-0.7s-2.3,0-2.3,0s0-0.6,0-0.8s-1.1,0.3-1.6,0.7
			c-0.6,0.4-1.6,1.9-1.7,2c-0.1,0.2-0.8-0.5-0.9-0.5c-0.1,0,0.2,1.3,0.3,2c0.1,0.6,0.3,1.9,0.3,1.9s0,0-1-0.9
			c-1-0.9-2.4-1.3-2.4-1.3c-0.1,0.1,0.2,0.6,0.2,0.6s-1.8,0-2.8,0.3s-2.1,2.3-2,2.3c0.1,0.1,1-0.3,1.6-0.4c1-0.2,2.7,0,2.7,0
			s-0.8,0.4-1.4,0.5c-0.7,0.1-2.3,1.2-2.3,1.3c0,0.2,0.9,0.4,0.9,0.4s-1.4,1.3-1.7,2.1c-0.3,1.1-0.3,2.8-0.3,3.2
			c0,0.4,3.1-3.4,3.1-3.4s0.2,0.2,0.4,0.3c0.1,0,0.2-0.4,0.5-1.1c0.3-0.7,1.5-1,1.5-1s-1,1.6-1.6,2.3c-0.6,0.8-0.9,2.5-0.9,2.7
			s0.3-0.4,0.4-0.4c0.1,0,1.2,4.6,1.5,5.1s1.4-4.8,1.4-4.8l0.6,0c0,0,1-1.4,0.8-1.9c0,0-0.2-2.3,1.3-2.8
			C295.6,86.1,297.9,89.7,299.5,89.2z"/>
	</g>
	<g clip-path="url(#SVGID_2_)">
		<path id="palm1_115_" fill="#754532" d="M296.2,119.8c0,1.5-0.1,3.1-0.4,5.4c-0.3,2.6,0.3,6,0.4,8.6c0.1,2.1-0.7,11.6-1,15.1
			c-0.1,0.8-0.4,1.2-0.4,1.2h2c0,0,0,0-0.4-1.1c-0.2-0.5,0.9-12.7,0.9-13.9c0.1-2.7-0.5-7.2-0.6-8.1c-0.1-0.9,0.4-7.2,0.5-7.9
			L296.2,119.8z"/>
		<path id="palm1_114_" fill="#754532" d="M299.6,116.6c0.1,0.5-0.3,1.1-0.3,1.1l-0.5-0.6c0,0-0.5,1.9-0.6,1.9c0,0-1.1,1.7-1.8,1.4
			c-0.6-0.3-1.6-1.9-1.6-1.9s-0.5-0.9-0.5-1.4c0,0,0.9-2.3,2.2-2.1C297.7,115,299.6,116.6,299.6,116.6z"/>
		<path id="palm1_112_" fill="#6CC399" d="M300,118.8c0.1,0,0.3-1.4,0.5-1.5c0.2-0.1,0.9,2.1,1.2,2.7c0.2,0.6,2.3,2.3,2.2,2.3
			s0-4.7,0-4.7c-0.3-0.9-1-0.9-1.1-1.1s0.2-0.2,0.4-0.4c0.2-0.1-2.5-2.2-2.5-2.2s1.5,0.7,1.9,0.7c0.4-0.1,0.1-0.4,0.1-0.4
			s0.5,0.2,1.3,0.2l-0.1-2.2c-0.8-0.4-1-0.3-1.2-0.4s0.2-0.2,0.2-0.5c0-0.3-1.7,0.4-2.4,0.5s-2.1,1.1-2.7,0.9
			c-0.6-0.2,2.4-2.4,2.5-2.6s-1-0.4-1-0.6c-0.1-0.2,3.7-1.7,3.6-1.9c0-0.1-0.9-0.5-1.6-0.7c-0.7-0.2-2.3,0-2.3,0s0-0.6,0-0.8
			s-1.1,0.3-1.6,0.7c-0.6,0.4-1.6,1.9-1.7,2c-0.1,0.2-0.8-0.5-0.9-0.5s0.2,1.3,0.3,2s0.3,1.9,0.3,1.9s0,0-1-0.9s-2.4-1.3-2.4-1.3
			c-0.1,0.1,0.2,0.6,0.2,0.6s-1.8,0-2.8,0.3c-1,0.3-2.1,2.3-2,2.3c0.1,0.1,1-0.3,1.6-0.4c1-0.2,2.7,0,2.7,0s-0.8,0.4-1.4,0.5
			s-2.3,1.2-2.3,1.3c0,0.2,0.9,0.4,0.9,0.4s-1.4,1.3-1.7,2.1c-0.3,1.1-0.3,2.8-0.3,3.2c0,0.4,3.1-3.4,3.1-3.4s0.2,0.2,0.4,0.3
			c0.1,0,0.2-0.4,0.5-1.1c0.3-0.7,1.5-1,1.5-1s-1,1.6-1.6,2.3c-0.6,0.8-0.9,2.5-0.9,2.7s0.3-0.4,0.4-0.4c0.1,0,1.2,4.6,1.5,5.1
			c0.4,0.5,1.4-4.8,1.4-4.8l0.6,0c0,0,1-1.4,0.8-1.9c0,0-0.2-2.3,1.3-2.8C296.1,115.6,298.4,119.2,300,118.8z"/>
	</g>
	<path id="palm1_111_" clip-path="url(#SVGID_2_)" fill="#754532" d="M123.6,755.1c-0.1-2.2-0.6-5.1-0.3-7.3c0.3-2,0.3-3.3,0.3-4.6
		l0.9-0.5c-0.1,0.6-0.5,5.9-0.4,6.7s0.6,3.4,0.5,5.7L123.6,755.1z"/>
	<path id="palm1_110_" clip-path="url(#SVGID_2_)" fill="#754532" d="M126.5,740.6c0.1,0.4-0.3,0.9-0.3,0.9l-0.4-0.5
		c0,0-0.4,1.6-0.5,1.6c0,0-0.9,1.4-1.5,1.2c-0.5-0.3-1.3-1.6-1.3-1.6s-0.4-0.7-0.4-1.2c0,0,0.8-1.9,1.8-1.8
		C124.9,739.2,126.5,740.6,126.5,740.6z"/>
	<path id="palm1_108_" clip-path="url(#SVGID_2_)" fill="#6CC399" d="M126.8,742.4c0.1,0,0.3-1.2,0.4-1.2c0.2,0,0.8,1.7,1,2.3
		c0.2,0.5,2.6,2.7,2.7,2.7c0.1,0,0.2-2.7,0-3.5c-0.3-0.7-1.7-2-1.8-2.1c-0.1-0.1,0.2-0.2,0.3-0.3s-2.1-1.9-2.1-1.9s1.3,0.6,1.6,0.6
		c0.3,0,0-0.4,0-0.4s0.4,0.2,1.1,0.2c1.3,0,3.9,1.5,4.3,1.3c0.2-0.1-1.2-2.2-2.2-2.7c-0.7-0.3-3-0.7-3.2-0.8s0.1-0.2,0.1-0.4
		c0-0.2-1.4,0.3-2,0.4s-1.8,1-2.3,0.7s2-2,2.1-2.2c0.1-0.1-0.8-0.3-0.9-0.5c0-0.2,3.1-1.4,3.1-1.6c0-0.1-0.8-0.4-1.3-0.6
		c-0.6-0.2-1.9,0-1.9,0s0-0.5,0-0.7c0-0.1-0.9,0.3-1.4,0.6c-0.5,0.3-1.3,1.6-1.4,1.7s-0.7-0.4-0.7-0.4c-0.1,0,0.1,1.1,0.2,1.7
		s0.3,1.6,0.3,1.6s0,0-0.9-0.7s-2-1.1-2-1.1c-0.1,0.1,0.2,0.5,0.2,0.5s-1.5,0-2.4,0.3s-1.7,1.9-1.7,2c0.1,0.1,0.8-0.2,1.3-0.3
		c0.9-0.2,2.3,0,2.3,0s-0.7,0.3-1.2,0.4s-1.9,1-1.9,1.1c0,0.2,0.8,0.3,0.8,0.3s-1.2,1.1-1.4,1.8c-0.3,0.9-0.2,2.3-0.2,2.7
		c0,0.3,2.6-2.8,2.6-2.8s0.2,0.2,0.3,0.2c0.1,0,0.2-0.3,0.4-0.9c0.2-0.6,1.3-0.8,1.3-0.8s-0.9,1.3-1.3,2c-0.5,0.7-0.8,2.1-0.8,2.3
		c0,0.1,0.3-0.3,0.4-0.3c0.1,0,1,3.9,1.3,4.3c0.3,0.4,1.2-4,1.2-4l0.5,0c0,0,0.8-1.1,0.7-1.6c0,0-0.2-2,1.1-2.3
		C123.5,739.8,125.5,742.8,126.8,742.4z"/>
	<path id="palm1_107_" clip-path="url(#SVGID_2_)" fill="#754532" d="M127.4,755.1c0.2-2.9,0.9-9.9,0.8-11.7
		c-0.1-2.2-0.6-5.1-0.3-7.3c0.3-2,0.3-3.3,0.3-4.6l0.9-0.5c-0.1,0.6-0.5,5.9-0.4,6.7c0.1,0.8,0.6,4.5,0.5,6.8c0,0.9-1,10.1-0.9,10.6
		L127.4,755.1z"/>
	<path id="palm1_106_" clip-path="url(#SVGID_2_)" fill="#754532" d="M131.1,728.8c0.1,0.4-0.3,0.9-0.3,0.9l-0.4-0.5
		c0,0-0.4,1.6-0.5,1.6c0,0-0.9,1.4-1.5,1.2c-0.5-0.3-1.3-1.6-1.3-1.6s-0.4-0.7-0.4-1.2c0,0,0.8-1.9,1.8-1.8
		C129.5,727.5,131.1,728.8,131.1,728.8z"/>
	<path id="palm1_81_" clip-path="url(#SVGID_2_)" fill="#6CC399" d="M131.4,730.7c0.1,0,0.3-1.2,0.4-1.2c0.2,0,0.8,1.7,1,2.3
		s2.6,2.7,2.7,2.7c0.1,0,0.2-2.7,0-3.5c-0.3-0.7-1.7-2-1.8-2.1c-0.1-0.1,0.2-0.2,0.3-0.3c0.2-0.1-2.1-1.9-2.1-1.9s1.3,0.6,1.6,0.6
		c0.3,0,0-0.4,0-0.4s0.4,0.2,1.1,0.2c1.3,0,3.9,1.5,4.3,1.3c0.2-0.1-1.2-2.2-2.2-2.7c-0.7-0.3-3-0.7-3.2-0.8s0.1-0.2,0.1-0.4
		c0-0.2-1.4,0.3-2,0.4c-0.6,0.1-1.8,1-2.3,0.7c-0.5-0.2,2-2,2.1-2.2c0.1-0.1-0.8-0.3-0.9-0.5c0-0.2,3.1-1.4,3.1-1.6
		c0-0.1-0.8-0.4-1.3-0.6c-0.6-0.2-1.9,0-1.9,0s0-0.5,0-0.7s-0.9,0.3-1.4,0.6c-0.5,0.3-1.3,1.6-1.4,1.7c-0.1,0.1-0.7-0.4-0.7-0.4
		s0.1,1.1,0.2,1.7s0.3,1.6,0.3,1.6s0,0-0.9-0.7s-2-1.1-2-1.1c-0.1,0.1,0.2,0.5,0.2,0.5s-1.5,0-2.4,0.3c-0.9,0.3-1.7,1.9-1.7,2
		c0.1,0.1,0.8-0.2,1.3-0.3c0.9-0.2,2.3,0,2.3,0s-0.7,0.3-1.2,0.4s-1.9,1-1.9,1.1c0,0.2,0.8,0.3,0.8,0.3s-1.2,1.1-1.4,1.8
		c-0.3,0.9-0.2,2.3-0.2,2.7c0,0.3,2.6-2.8,2.6-2.8s0.2,0.2,0.3,0.2c0.1,0,0.2-0.3,0.4-0.9c0.2-0.6,1.3-0.8,1.3-0.8s-0.9,1.3-1.3,2
		c-0.5,0.7-0.8,2.1-0.8,2.3c0,0.1,0.3-0.3,0.4-0.3c0.1,0,1,3.9,1.3,4.3c0.3,0.4,1.2-4,1.2-4l0.5,0c0,0,0.8-1.1,0.7-1.6
		c0,0-0.2-2,1.1-2.3C128.2,728,130.1,731.1,131.4,730.7z"/>
	<path clip-path="url(#SVGID_2_)" fill="#E1C51B" d="M228.4,747.9l-1-2.9c0,0-5,0.3-7.2,1.8c0,0,1,1.3,1,1.9L228.4,747.9z"/>
	<path clip-path="url(#SVGID_2_)" fill="#E1C51B" d="M219.3,749.1c0,0-1-1.2-1.9-1.5l-2.3,1.5c0,0,0.9,0.4,1.3,1.2L219.3,749.1z"/>
	<path clip-path="url(#SVGID_2_)" fill="#E1C51B" d="M233.6,750.4c1.4-0.1,0.9,1.7,0,1.7C232.7,752.1,232.5,750.4,233.6,750.4z"/>
	<g clip-path="url(#SVGID_2_)">
		<path fill="#754532" d="M261.3,670.7c0,0-0.2,2.7,0,2.9c0.2,0.2,2,0.2,2.2,0c0.2-0.2,0.1-9.9,0-10.3c-0.1-0.2-1.8-0.4-2,0
			c-0.2,0.4-0.2,3.5-0.2,3.5s-17.6,0.2-17.9-0.1c-0.3-0.3,0.4-6.5,0-6.7s-2-0.2-2.2,0c-0.1,0.2-0.3,10.2-0.4,13
			c0,0.4,0.3,0.7,0.7,0.7h0.9c0.4,0,0.7-0.3,0.7-0.7v-2.7L261.3,670.7z"/>
		<path fill="#FAC89D" d="M246.6,661.1c3.6,0.1,3.1,4.7,0.4,4.7C243.2,665.8,243.6,661,246.6,661.1z"/>
		<path fill="#E4E3E2" d="M260.1,665.8h-10.9c0,0-0.2-2.9,2-2.9s7.4-0.1,8.4,0.2C260.9,663.5,260.1,665.8,260.1,665.8z"/>
	</g>
	<path clip-path="url(#SVGID_2_)" fill="#4D4B43" d="M225.7,732.4l8.7-0.9l-0.2-2c0.3-0.1,3.5,2.5,3.6,2.8c0,0.4-2.8,3.1-2.8,3.1
		l-0.3-1.9c0,0-8.7,0.9-8.7,0.7C225.9,734,225.5,732.9,225.7,732.4z"/>
	<path clip-path="url(#SVGID_2_)" fill="#4D4B43" d="M197.5,722.4l1.9-9l-2-0.4c0-0.3,3.5-2.8,3.8-2.7c0.3,0.1,2,3.8,2,3.8l-1.9-0.3
		c0,0-2,9-2.1,9.1C199.1,722.7,197.8,722.7,197.5,722.4z"/>
	<g clip-path="url(#SVGID_2_)">
		<g>
			<path fill="none" stroke="#E0C422" stroke-width="0.75" stroke-miterlimit="10" d="M263.7,754.8c0,0,0.3-1.4,0.7-3.9"/>
			<path fill="none" stroke="#E0C422" stroke-width="0.75" stroke-miterlimit="10" stroke-dasharray="7.9541,7.9541" d="M265.8,743
				c4.6-26.4,14.5-88.9,7.3-100.2c-5.5-8.8-124.1,8.2-147.5,0c-15.9-5.6-19.9-52.6-22.7-57.5c-2.7-4.9-13.3-17-13.2-22.4
				c0.1-5.5,5.5-14.8,4.4-18.1c-1.1-3.3-16.9-15.3-16.9-20.8c0-5.5,14.1-43,12.5-48.6c-1.6-5.6-18-24.2-15.3-30.2s60.6-70.1,64-71.2
				s20.7-3.8,22.4-8.2c1.7-4.4,26.8-71.7,48.2-84.9s15.4-1.6,20-7.7c4.6-6-0.7-58.4,8.2-79.2c2.2-5.1,5-10.3,7.2-14.3"/>
			<path fill="none" stroke="#E0C422" stroke-width="0.75" stroke-miterlimit="10" d="M246.7,176.3c1.2-2.1,2.1-3.4,2.1-3.4h-4"/>
			
				<line fill="none" stroke="#E0C422" stroke-width="0.75" stroke-miterlimit="10" stroke-dasharray="8.3134,8.3134" x1="236.4" y1="172.9" x2="207.3" y2="172.9"/>
			<line fill="none" stroke="#E0C422" stroke-width="0.75" stroke-miterlimit="10" x1="203.1" y1="172.9" x2="199.1" y2="172.9"/>
		</g>
	</g>
	<g clip-path="url(#SVGID_2_)">
		<g>
			<path fill="#4C4A43" d="M166.9,640.2H165v10h-2.3v-10h-1.9v-2h6.1V640.2z"/>
			<path fill="#4C4A43" d="M175.8,639c0.8,1.2,1.2,2.5,1.2,5.3c0,2.5-0.3,4-1.2,5.1c-0.5,0.7-1.4,1.1-2.4,1.1c-1.1,0-2-0.4-2.5-1.1
				c-0.8-1.2-1.2-2.5-1.2-5.2c0-2.6,0.3-4.1,1.2-5.2c0.5-0.7,1.4-1.1,2.4-1.1C174.4,637.9,175.3,638.3,175.8,639z M172.2,644.2
				c0,3.3,0.3,4.3,1.2,4.3c0.9,0,1.2-1,1.2-4.2c0-3.3-0.3-4.3-1.2-4.3C172.4,640,172.2,640.9,172.2,644.2z"/>
			<path fill="#4C4A43" d="M183.1,638.2c2.5,0,3.7,1.3,3.7,4.1c0,2.6-1.3,4-3.7,4h-0.3v3.9h-2.3v-12H183.1z M182.9,644.4
				c0.5,0,0.8-0.1,1-0.3c0.4-0.3,0.5-1,0.5-1.9c0-1.6-0.4-2.2-1.5-2.1V644.4z"/>
			<path fill="#4C4A43" d="M195.2,638.2v2h-2.7v2.9h2.7v1.9h-2.7v3.2h2.7v2h-5.1v-12H195.2z"/>
			<path fill="#4C4A43" d="M204.5,640.2h-1.9v10h-2.3v-10h-1.9v-2h6.1V640.2z"/>
			<path fill="#4C4A43" d="M212.8,638.2v2h-2.7v2.9h2.7v1.9h-2.7v3.2h2.7v2h-5.1v-12H212.8z"/>
		</g>
	</g>
	<g clip-path="url(#SVGID_2_)">
		<path fill="#4C4A43" d="M263.5,727.8l-0.3,1.9l9.9,1.5l-0.3,2.3l-9.9-1.5l-0.3,1.8l-2-0.3l0.9-6L263.5,727.8z"/>
		<path fill="#4C4A43" d="M263.7,718.7c1.3-0.7,2.7-0.8,5.4-0.4c2.5,0.4,3.9,0.9,4.9,1.9c0.6,0.6,0.9,1.6,0.7,2.6
			c-0.2,1.1-0.7,1.9-1.5,2.3c-1.3,0.7-2.7,0.8-5.3,0.4c-2.6-0.4-4-0.9-5-1.9c-0.6-0.6-0.9-1.6-0.7-2.6
			C262.4,719.9,262.9,719.2,263.7,718.7z M268.3,723.1c3.3,0.5,4.3,0.3,4.4-0.6c0.1-0.9-0.8-1.3-4-1.8c-3.3-0.5-4.3-0.4-4.5,0.6
			C264.1,722.2,265,722.7,268.3,723.1z"/>
		<path fill="#4C4A43" d="M264,711.4c0.4-2.4,1.9-3.4,4.6-3c2.6,0.4,3.8,1.8,3.4,4.2l0,0.2l3.9,0.6l-0.3,2.3l-11.9-1.8L264,711.4z
			 M270.1,712.6c0.1-0.5,0.1-0.8-0.1-1c-0.3-0.4-0.9-0.7-1.8-0.8c-1.5-0.2-2.2,0.1-2.3,1.2L270.1,712.6z"/>
		<path fill="#4C4A43" d="M265.7,699.5l2,0.3l-0.4,2.7l2.8,0.4l0.4-2.7l1.9,0.3l-0.4,2.7l3.2,0.5l0.4-2.7l2,0.3l-0.7,5l-11.9-1.8
			L265.7,699.5z"/>
		<path fill="#4C4A43" d="M269.1,690.6l-0.3,1.9l9.9,1.5l-0.3,2.3l-9.9-1.5l-0.3,1.8l-2-0.3l0.9-6L269.1,690.6z"/>
		<path fill="#4C4A43" d="M268.3,682l2,0.3l-0.4,2.7l2.8,0.4l0.4-2.7l1.9,0.3l-0.4,2.7l3.2,0.5l0.4-2.7l2,0.3l-0.7,5l-11.9-1.8
			L268.3,682z"/>
	</g>
	<g clip-path="url(#SVGID_2_)">
		<g>
			<g>
				<g>
					<path fill="#4C4A43" d="M141.8,170.8c-0.1-1.2-0.5-1.8-0.9-1.8c-0.8,0-1.2,1.3-1.2,4.5c0,3,0.3,4.1,1,4.1c0.6,0,0.9-0.6,1-2.2
						l2.1,0.8c-0.3,2.1-1.5,3.4-3.2,3.4c-1.2,0-2.2-0.6-2.7-1.7c-0.5-1.1-0.7-2.3-0.7-4.4c0-2.1,0.1-3.3,0.5-4.4
						c0.5-1.3,1.6-2.1,3-2.1c1.2,0,2.2,0.6,2.7,1.7c0.2,0.5,0.3,0.9,0.4,1.5L141.8,170.8z"/>
					<path fill="#4C4A43" d="M149.2,177.5l-0.4,1.9h-2.4l2.7-12.1h2.6l2.6,12.1H152l-0.3-1.9H149.2z M150.5,170.1l-1,5.5h1.8
						L150.5,170.1z"/>
					<path fill="#4C4A43" d="M160.3,167.3l1.9,7.6l1.9-7.6h2.6v12h-2.2V172l-1.5,5.9h-1.9l-1.4-5.9v7.3h-2.2v-12H160.3z"/>
					<path fill="#4C4A43" d="M173.1,179.3h-2.3v-12h2.3V179.3z"/>
					<path fill="#4C4A43" d="M179.5,167.3l2.1,7.3v-7.3h2.2v12h-2.4l-2.1-6.9v6.9H177v-12H179.5z"/>
					<path fill="#4C4A43" d="M193.4,168.1c0.8,1.2,1.2,2.5,1.2,5.3c0,2.5-0.3,4-1.2,5.1c-0.5,0.7-1.4,1.1-2.4,1.1
						c-1.1,0-2-0.4-2.5-1.1c-0.8-1.2-1.2-2.5-1.2-5.2c0-2.6,0.3-4.1,1.2-5.2c0.5-0.7,1.4-1.1,2.4-1.1
						C192,167,192.8,167.4,193.4,168.1z M189.7,173.3c0,3.3,0.3,4.3,1.2,4.3c0.9,0,1.2-1,1.2-4.2c0-3.3-0.3-4.3-1.2-4.3
						C190,169,189.7,170,189.7,173.3z"/>
					<path fill="#4C4A43" d="M206.3,167.3l0.9,8.2l1.2-8.2h2.3l-2.3,12H206l-2.2-12H206.3z"/>
					<path fill="#4C4A43" d="M216.3,179.3H214v-12h2.3V179.3z"/>
					<path fill="#4C4A43" d="M225.3,167.3v2h-2.7v2.9h2.7v1.9h-2.7v3.2h2.7v2h-5.1v-12H225.3z"/>
					<path fill="#4C4A43" d="M233.7,175.8c0,1.6-0.1,2.1-0.5,2.7c-0.5,0.7-1.4,1.2-2.4,1.2c-1,0-1.8-0.4-2.4-1l1.4-1.8
						c0.3,0.7,0.5,0.9,0.8,0.9c0.6,0,0.8-0.5,0.8-1.8v-8.6h2.3V175.8z"/>
					<path fill="#4C4A43" d="M243.3,168.1c0.8,1.2,1.2,2.5,1.2,5.3c0,2.5-0.3,4-1.2,5.1c-0.5,0.7-1.4,1.1-2.4,1.1
						c-1.1,0-2-0.4-2.5-1.1c-0.8-1.2-1.2-2.5-1.2-5.2c0-2.6,0.3-4.1,1.2-5.2c0.5-0.7,1.4-1.1,2.4-1.1
						C241.9,167,242.8,167.4,243.3,168.1z M239.6,173.3c0,3.3,0.3,4.3,1.2,4.3c0.9,0,1.2-1,1.2-4.2c0-3.3-0.3-4.3-1.2-4.3
						C239.9,169,239.6,170,239.6,173.3z"/>
				</g>
			</g>
		</g>
	</g>
	<g clip-path="url(#SVGID_2_)">
		<g>
			<g>
				<path fill="#9AD9ED" d="M48.2,64.6v2h-2.7v2.9h2.7v1.9h-2.7v3.2h2.7v2h-5.1v-12H48.2z"/>
				<path fill="#9AD9ED" d="M54.4,64.6v10h2.7v2H52v-12H54.4z"/>
				<path fill="#9AD9ED" d="M69.8,64.6c2.5,0,3.7,1.3,3.7,4.1c0,2.6-1.3,4-3.7,4h-0.3v3.9h-2.3v-12H69.8z M69.5,70.8
					c0.5,0,0.8-0.1,1-0.3c0.4-0.3,0.5-1,0.5-1.9c0-1.6-0.4-2.2-1.5-2.1V70.8z"/>
				<path fill="#9AD9ED" d="M78.3,74.7L78,76.6h-2.4l2.7-12.1h2.6l2.6,12.1h-2.5l-0.3-1.9H78.3z M79.6,67.3l-1,5.5h1.8L79.6,67.3z"
					/>
				<path fill="#9AD9ED" d="M90.7,68.1c-0.1-1.2-0.5-1.8-0.9-1.8c-0.8,0-1.2,1.3-1.2,4.5c0,3,0.3,4.1,1,4.1c0.6,0,0.9-0.6,1-2.2
					l2.1,0.8c-0.3,2.1-1.5,3.4-3.2,3.4c-1.2,0-2.2-0.6-2.7-1.7c-0.5-1.1-0.7-2.3-0.7-4.4c0-2.1,0.1-3.3,0.5-4.4
					c0.5-1.3,1.6-2.1,3-2.1c1.2,0,2.2,0.6,2.7,1.7c0.2,0.5,0.3,0.9,0.4,1.5L90.7,68.1z"/>
				<path fill="#9AD9ED" d="M98.4,76.6h-2.3v-12h2.3V76.6z M100,61.7l-2.2,2.2h-1.4l1.2-2.2H100z"/>
				<path fill="#9AD9ED" d="M107.6,64.6v2h-2.8v2.9h2.8v1.9h-2.8v5.2h-2.3v-12H107.6z"/>
				<path fill="#9AD9ED" d="M113.6,76.6h-2.3v-12h2.3V76.6z"/>
				<path fill="#9AD9ED" d="M121.7,68.1c-0.1-1.2-0.5-1.8-0.9-1.8c-0.8,0-1.2,1.3-1.2,4.5c0,3,0.3,4.1,1,4.1c0.6,0,0.9-0.6,1-2.2
					l2.1,0.8c-0.3,2.1-1.5,3.4-3.2,3.4c-1.2,0-2.2-0.6-2.7-1.7c-0.5-1.1-0.7-2.3-0.7-4.4c0-2.1,0.1-3.3,0.5-4.4
					c0.5-1.3,1.6-2.1,3-2.1c1.2,0,2.2,0.6,2.7,1.7c0.2,0.5,0.3,0.9,0.4,1.5L121.7,68.1z"/>
				<path fill="#9AD9ED" d="M132.8,65.4c0.8,1.2,1.2,2.5,1.2,5.3c0,2.5-0.3,4-1.2,5.1c-0.5,0.7-1.4,1.1-2.4,1.1
					c-1.1,0-2-0.4-2.5-1.1c-0.8-1.2-1.2-2.5-1.2-5.2c0-2.6,0.3-4.1,1.2-5.2c0.5-0.7,1.4-1.1,2.4-1.1
					C131.4,64.3,132.3,64.7,132.8,65.4z M129.1,70.6c0,3.3,0.3,4.3,1.2,4.3c0.9,0,1.2-1,1.2-4.2c0-3.3-0.3-4.3-1.2-4.3
					C129.4,66.3,129.1,67.3,129.1,70.6z"/>
			</g>
		</g>
	</g>
	<g clip-path="url(#SVGID_2_)">
		<g>
			<path fill="#4C4A43" d="M84.7,536.1l1.5,1.1l2.7-3.9l1.9,1.3l-6.9,9.8l-1.9-1.3l3.1-4.4l-1.5-1.1l-3.1,4.4l-1.9-1.3l6.9-9.8
				l1.9,1.3L84.7,536.1z"/>
			<path fill="#4C4A43" d="M98.4,540.1c0.2,1.4-0.2,2.8-1.6,5.2c-1.2,2.2-2.2,3.3-3.5,3.8c-0.8,0.4-1.8,0.3-2.7-0.2
				c-0.9-0.5-1.5-1.3-1.6-2.2c-0.2-1.4,0.2-2.8,1.6-5.1c1.3-2.3,2.3-3.4,3.6-3.9c0.8-0.4,1.8-0.3,2.7,0.2
				C97.7,538.4,98.3,539.2,98.4,540.1z M92.6,542.8c-1.6,2.9-1.9,3.9-1,4.3c0.8,0.5,1.5-0.3,3.1-3.1c1.6-2.9,1.9-3.9,1.1-4.4
				C95,539.2,94.3,539.9,92.6,542.8z"/>
			<path fill="#4C4A43" d="M105.3,542.7c2.4,1.1,3,2.7,2,4.8c-0.6,1.4-1.8,2.1-3.1,1.9l-0.3,5.9l-2.4-1.1l0.4-5.9l-2.3,5l-2.1-1
				l5.1-10.9L105.3,542.7z M103,547.2c1,0.5,1.7,0.2,2.2-0.8c0.5-1,0.2-1.7-0.8-2.1l-0.4-0.2l-1.4,2.9L103,547.2z"/>
			<path fill="#4C4A43" d="M109.6,557.6l-2.2-0.9l4.5-11.1l2.2,0.9L109.6,557.6z"/>
			<path fill="#4C4A43" d="M123,549.7l-6.5,8.4l2.8,1l-0.6,1.8l-5.6-2l6.5-8.4l-3-1l0.6-1.8L123,549.7z"/>
			<path fill="#4C4A43" d="M130.8,552.8c0.5,1.3,0.4,2.8-0.4,5.4c-0.7,2.4-1.4,3.7-2.5,4.6c-0.7,0.5-1.7,0.7-2.6,0.4
				c-1-0.3-1.8-0.9-2.1-1.8c-0.5-1.3-0.4-2.8,0.3-5.3c0.7-2.5,1.4-3.8,2.5-4.7c0.7-0.5,1.7-0.7,2.7-0.4
				C129.8,551.4,130.5,552,130.8,552.8z M125.8,556.8c-0.9,3.2-0.9,4.2,0,4.4c0.9,0.3,1.4-0.6,2.3-3.7c0.9-3.2,0.9-4.2,0-4.5
				C127.3,552.8,126.7,553.6,125.8,556.8z"/>
			<path fill="#4C4A43" d="M137.8,553.7l0.4,7.6l1.6-7.1l2.1,0.5l-2.6,11.7l-2.4-0.5l-0.6-7.2l-1.5,6.7l-2.1-0.5l2.6-11.7
				L137.8,553.7z"/>
			<path fill="#4C4A43" d="M150.6,558.2l-1.8-0.3l-1.7,9.9l-2.3-0.4l1.7-9.9l-1.8-0.3l0.3-2l6,1L150.6,558.2z"/>
			<path fill="#4C4A43" d="M159,557.4l-0.3,2l-2.7-0.3l-0.4,2.8l2.7,0.3l-0.2,1.9l-2.7-0.3L155,567l2.7,0.3l-0.3,2l-5-0.6l1.5-11.9
				L159,557.4z"/>
		</g>
	</g>
</g>
<g>
	<path fill="#FBFFEB" d="M248.6,540.3c0,0-0.6-3.3-4.2-2.5l-9,73.6c0,0,0.9,2.1,3.7,2.5L248.6,540.3z"/>
	<path fill="#FBFFEB" d="M299,570.4c0,0-0.7-3.3-4.2-2.4l-7.7,74c0,0,0.9,2.1,3.7,2.4L299,570.4z"/>
	<path fill="#1FCEAC" d="M316.7,589.6c-1.4-1.4-77.7-51-82.3-51.6c-1.6-0.2-8.1,13.8-6.1,14.8c4.4,2.3,81.3,50.4,82.2,50.4
		S318.4,591.3,316.7,589.6z"/>
	<path fill="#1FCEAC" d="M310.3,604.4c-0.9-1.7-78.5-50-83.2-50.7c-1.6-0.2-7.4,13.5-5.5,14.5c4.4,2.3,81.5,50,82.4,50
		S310.9,605.5,310.3,604.4z"/>
	<path fill="#E1C51B" d="M249,576.9l-15.7-9.6l-2,3.2c-0.6-0.2-3.2-8.1-2.8-8.6c0.3-0.6,8.3-0.9,8.3-0.9l-1.8,3.1
		c0,0,15.7,9.7,15.6,10C250.6,574.4,249.8,576.5,249,576.9z"/>
	<path fill="#E1C51B" d="M253.3,561.2l-16.4-10.1l-2,3.2c-0.7-0.3-3.4-8.2-3.1-8.8c0.3-0.6,8.5-0.8,8.5-0.8l-1.8,3.1
		c0,0,16.3,10.2,16.3,10.4C254.9,558.6,254.1,560.8,253.3,561.2z"/>
	<g>
		<path fill="#EDECE3" d="M261.9,558.6l-2.6,5.7l4.1-4.8l1.4,0.9l-2.8,5.7l4.1-4.8l1.4,0.9l-5.9,6.4l-1.5-0.9l2.8-5.9l-4.2,5
			l-1.5-0.9l3.4-8.1L261.9,558.6z"/>
		<path fill="#EDECE3" d="M272.6,565.5l-0.8,1.2l-1.6-1.1l-1.1,1.7l1.6,1.1l-0.8,1.2l-1.6-1.1l-1.3,2l1.6,1.1l-0.8,1.2l-3.1-2
			l4.6-7.3L272.6,565.5z"/>
		<path fill="#EDECE3" d="M276.7,568.1c0.9,0.6,1.4,1.2,1.4,2.1c0,0.9-0.3,1.8-1.1,3.1c-1.6,2.5-3.2,3.2-4.8,2.2l-1.8-1.1l4.6-7.3
			L276.7,568.1z M272.8,574.2c0.3,0.2,0.7,0.3,1,0.1c0.4-0.1,1-0.7,1.7-1.9c0.8-1.3,1.1-2,1-2.5c-0.1-0.3-0.3-0.6-0.6-0.8l-0.1-0.1
			l-3.2,5L272.8,574.2z"/>
		<path fill="#EDECE3" d="M283.3,572.3c0.9,0.6,1.4,1.2,1.4,2.1c0,0.9-0.3,1.8-1.1,3.1c-1.6,2.5-3.2,3.2-4.8,2.2l-1.8-1.1l4.6-7.3
			L283.3,572.3z M279.3,578.4c0.3,0.2,0.7,0.3,1,0.1c0.4-0.1,1-0.7,1.7-1.9c0.8-1.3,1.1-2,1-2.5c-0.1-0.3-0.3-0.6-0.6-0.8l-0.1-0.1
			l-3.2,5L279.3,578.4z"/>
		<path fill="#EDECE3" d="M285,583.6l-1.4-0.9l4.6-7.3l1.4,0.9L285,583.6z"/>
		<path fill="#EDECE3" d="M293.7,579l-1.6,5.2l2.8-4.4l1.3,0.8l-4.6,7.3l-1.5-0.9l1.4-5l-2.7,4.1l-1.3-0.8l4.6-7.3L293.7,579z"/>
		<path fill="#EDECE3" d="M301.2,587.9l-0.5,0.7c-0.9,1.4-1.4,2-2.1,2.4c-0.8,0.5-1.7,0.5-2.5,0c-0.7-0.5-1.2-1.3-1.1-2.1
			c0.1-0.8,0.5-1.8,1.2-3c0.9-1.3,1.7-2.2,2.5-2.6c0.7-0.4,1.6-0.3,2.3,0.2c1.1,0.7,1.4,1.7,0.9,2.8l-1.6-0.4c0.3-0.6,0.2-1-0.1-1.2
			c-0.6-0.4-1.3,0.2-2.5,2.1c-1.3,2-1.5,2.8-0.9,3.1c0.2,0.1,0.5,0.1,0.8-0.1c0.3-0.2,0.5-0.4,1.3-1.6l-0.8-0.5l0.7-1.2L301.2,587.9
			z"/>
		<path fill="#EDECE3" d="M302.9,594.2c-0.3,0.4-0.8,0.5-1.2,0.3c-0.4-0.3-0.5-0.8-0.3-1.2c0.3-0.4,0.8-0.5,1.2-0.3
			C303,593.2,303.1,593.8,302.9,594.2z M307.1,587.6l-3.4,5.1l-1.2-0.8l3.2-5.3L307.1,587.6z"/>
	</g>
	<g>
		<path fill="#EDECE3" d="M257.3,575.5l-3.7,6.1l1.7,1l-0.7,1.2l-3.1-1.9l4.5-7.4L257.3,575.5z"/>
		<path fill="#EDECE3" d="M259,585l-0.9,1l-1.4-0.9l6.2-6.4l1.6,1l-2.9,8.4l-1.5-0.9l0.5-1.2L259,585z M262.6,581l-2.6,3l1.1,0.7
			L262.6,581z"/>
		<path fill="#EDECE3" d="M273.9,585.5c1.5,0.9,1.8,2.2,0.7,3.9c-1,1.6-2.3,2-3.8,1.1l-0.2-0.1l-1.5,2.4l-1.4-0.9l4.5-7.4
			L273.9,585.5z M271.4,589.2c0.3,0.2,0.5,0.2,0.7,0.2c0.3-0.1,0.7-0.4,1-0.9c0.6-1,0.6-1.5-0.1-1.9L271.4,589.2z"/>
		<path fill="#EDECE3" d="M279.8,589.1l-3.7,6.1l1.7,1l-0.7,1.2l-3.1-1.9l4.5-7.4L279.8,589.1z"/>
		<path fill="#EDECE3" d="M281.5,598.7l-0.9,1l-1.4-0.9l6.2-6.4l1.6,1l-2.9,8.4l-1.5-0.9l0.5-1.3L281.5,598.7z M285,594.6l-2.6,3
			l1.1,0.7L285,594.6z"/>
		<path fill="#EDECE3" d="M291.3,596.1l-0.9,3.4l2.6-2.4l1.5,0.9l-4.4,3.4l-1.8,2.9l-1.4-0.9l1.8-2.9l1-5.5L291.3,596.1z"/>
		<path fill="#EDECE3" d="M293.6,606.1l-0.9,1l-1.4-0.9l6.2-6.4l1.6,1l-2.9,8.4l-1.5-0.9l0.5-1.2L293.6,606.1z M297.2,602l-2.6,3
			l1.1,0.7L297.2,602z"/>
	</g>
</g>
<g>
	<g>
		<g>
			<path fill="#C14C27" d="M31.8,643.9c-0.2,0.4-0.3,1-0.3,1.9c0,0.7,0,1.3,0,1.7c0,0.2-0.1,0.3-0.3,0.4c-0.2,0.1-0.5,0.2-0.8,0.2
				c-0.7,0-1.1-0.2-1.3-0.7c-0.2-0.6-0.4-1.2-0.5-1.8c-0.3-0.8-0.7-1.2-1.3-1.4c-0.1,0-0.2-0.1-0.3-0.1c-0.6,0-0.9,0.7-0.9,2.2v3.1
				c0,0.2,0.1,0.4,0.3,0.5c0.5,0.2,0.8,0.6,0.8,1c0,0.1,0,0.2-0.1,0.3c-0.1,0.3-0.4,0.5-0.7,0.6c-0.2,0.1-0.3,0.2-0.3,0.5v3.3
				c0,0.3,0.2,0.6,0.7,0.9c0.5,0.3,0.7,0.6,0.7,1c0,0.4-0.2,0.8-0.7,1.1c-0.4,0.3-1,0.4-1.6,0.4c-1,0-1.7-0.3-2.1-0.9
				c-0.4,0.6-1.1,0.9-2.1,0.9c-0.6,0-1.2-0.1-1.6-0.4c-0.5-0.3-0.7-0.6-0.7-1.1c0-0.4,0.2-0.7,0.7-1c0.5-0.3,0.7-0.6,0.7-0.9l0-3.3
				c0-0.2-0.1-0.4-0.3-0.5c-0.5-0.2-0.8-0.6-0.8-1c0-0.1,0.1-0.2,0.1-0.3c0.1-0.3,0.4-0.5,0.7-0.6c0.2-0.1,0.3-0.2,0.3-0.5v-3.1
				c0-1.5-0.3-2.2-0.9-2.2c-0.1,0-0.2,0-0.3,0.1c-0.6,0.2-1,0.6-1.3,1.4c-0.2,0.6-0.4,1.2-0.6,1.8c-0.2,0.4-0.6,0.7-1.3,0.7
				c-0.3,0-0.6-0.1-0.8-0.2c-0.2-0.1-0.3-0.2-0.3-0.4c0.1-0.4,0.1-1,0-1.7c-0.1-0.9-0.2-1.5-0.3-1.9c-0.1-0.2-0.1-0.3-0.1-0.5
				c0-0.7,0.5-1,1.6-0.9c0.2,0,0.4,0,0.5,0c0.2,0,0.6,0,1.2-0.1c0.6-0.1,1.3-0.1,2.1-0.1c1.1,0,1.9,0.1,2.5,0.4
				c0.4,0.3,0.7,0.7,1.1,1c0.4-0.3,0.7-0.6,1.1-1c0.5-0.3,1.4-0.4,2.5-0.4c0.8,0,1.5,0,2.1,0.1c0.6,0.1,1,0.1,1.2,0.1
				c0.2,0,0.3,0,0.5,0c1-0.1,1.6,0.2,1.6,0.9C32,643.6,31.9,643.8,31.8,643.9z"/>
			<path fill="#C14C27" d="M56.9,651c0,0.1,0,0.2-0.1,0.3c-0.1,0.3-0.4,0.5-0.7,0.6c-0.1,0.1-0.2,0.2-0.3,0.5
				c-0.6,2.2-1.7,4-3.4,5.3c-1.7,1.3-3.6,2-5.8,2c-2.2,0-4.1-0.7-5.8-2c-1.7-1.3-2.8-3.1-3.4-5.3c-0.1-0.3-0.2-0.4-0.3-0.5
				c-0.5-0.2-0.7-0.6-0.8-1c0-0.1,0.1-0.2,0.1-0.3c0.1-0.3,0.3-0.5,0.7-0.6c0.1-0.1,0.2-0.2,0.3-0.5c0.7-2.2,1.8-3.9,3.5-5.2
				c1.6-1.3,3.6-1.9,5.8-1.9c2.2,0,4.1,0.6,5.8,1.9c1.6,1.3,2.8,3,3.4,5.2c0.1,0.3,0.2,0.4,0.3,0.5C56.6,650.2,56.9,650.5,56.9,651z
				 M49.9,652.4c0-0.2-0.1-0.4-0.3-0.5c-0.5-0.2-0.7-0.6-0.8-1c0-0.1,0.1-0.2,0.1-0.3c0.1-0.3,0.3-0.5,0.7-0.6
				c0.2-0.1,0.3-0.2,0.3-0.5c0-1.1-0.3-2.2-0.8-3.3c-0.7-1.4-1.5-2.1-2.4-2.1c-0.9,0-1.7,0.7-2.4,2.1c-0.6,1.2-0.8,2.3-0.8,3.3
				c0,0.2,0.1,0.4,0.3,0.5c0.5,0.2,0.7,0.6,0.8,1c0,0.1-0.1,0.2-0.1,0.3c-0.1,0.3-0.3,0.5-0.7,0.6c-0.2,0.1-0.3,0.2-0.3,0.5
				c0,1.1,0.3,2.2,0.8,3.4c0.7,1.4,1.5,2.1,2.4,2.1c0.9,0,1.8-0.7,2.4-2.1C49.6,654.6,49.9,653.5,49.9,652.4z"/>
			<path fill="#C14C27" d="M83.7,651c0,0.1-0.1,0.2-0.1,0.3c-0.1,0.3-0.4,0.5-0.7,0.6c-0.2,0.1-0.3,0.2-0.3,0.5l-0.1,0.3
				c-0.4,1.9-1.3,3.4-2.7,4.6c-1.6,1.3-3.8,2-6.6,2c-2.3,0-4-0.3-5.1-1c-0.4,0.6-1.1,0.9-2.1,0.9c-0.6,0-1.2-0.1-1.6-0.4
				c-0.4-0.3-0.7-0.6-0.7-1.1c0-0.4,0.2-0.7,0.7-1c0.5-0.3,0.7-0.6,0.7-0.9v-3.3c0-0.2-0.1-0.4-0.3-0.5c-0.5-0.2-0.8-0.6-0.8-1
				c0-0.1,0.1-0.2,0.1-0.3c0.1-0.3,0.4-0.5,0.7-0.6c0.2-0.1,0.3-0.2,0.3-0.5v-3.3c0-0.3-0.2-0.6-0.7-0.9c-0.5-0.3-0.7-0.6-0.7-1
				c0-0.4,0.2-0.8,0.7-1.1c0.4-0.3,1-0.4,1.6-0.4c1,0,1.7,0.3,2.1,0.9c1.1-0.9,2.5-1.4,4.3-1.4c2.7,0,4.9,0.5,6.6,1.6
				c2,1.2,3.2,3,3.6,5.4v0.2c0,0.2,0.1,0.4,0.3,0.5C83.3,650.2,83.6,650.5,83.7,651z M76,652.4c0-0.2-0.1-0.4-0.3-0.5
				c-0.5-0.2-0.8-0.6-0.8-1c0-0.1,0.1-0.2,0.1-0.3c0.1-0.3,0.4-0.5,0.7-0.6c0.2-0.1,0.3-0.3,0.3-0.5l0-0.2c-0.1-0.5-0.3-1.2-0.5-1.8
				c-0.2-0.7-0.7-1.4-1.3-2.1c-0.7-0.8-1.4-1.2-2-1.2c-0.8,0-1.2,0.7-1.2,2.2v3.1c0,0.2,0.1,0.4,0.3,0.5c0.5,0.2,0.8,0.6,0.8,1
				c0,0.1-0.1,0.2-0.1,0.3c-0.1,0.3-0.4,0.5-0.7,0.6c-0.2,0.1-0.3,0.2-0.3,0.5v3.3c0,0.6,0.1,1.1,0.2,1.3c0.2,0.4,0.6,0.6,1.3,0.6
				c1.2,0,2.1-0.6,2.7-1.7c0.5-0.9,0.8-1.9,0.8-3.2V652.4z"/>
			<path fill="#C14C27" d="M110.4,651c0,0.1,0,0.2-0.1,0.3c-0.1,0.3-0.4,0.5-0.7,0.6c-0.1,0.1-0.2,0.2-0.3,0.5
				c-0.6,2.2-1.7,4-3.4,5.3c-1.7,1.3-3.6,2-5.8,2c-2.2,0-4.1-0.7-5.8-2c-1.7-1.3-2.8-3.1-3.4-5.3c-0.1-0.3-0.2-0.4-0.3-0.5
				c-0.5-0.2-0.7-0.6-0.8-1c0-0.1,0.1-0.2,0.1-0.3c0.1-0.3,0.3-0.5,0.7-0.6c0.1-0.1,0.2-0.2,0.3-0.5c0.7-2.2,1.8-3.9,3.5-5.2
				c1.6-1.3,3.6-1.9,5.8-1.9c2.2,0,4.1,0.6,5.8,1.9c1.6,1.3,2.8,3,3.4,5.2c0.1,0.3,0.2,0.4,0.3,0.5
				C110.1,650.2,110.3,650.5,110.4,651z M103.4,652.4c0-0.2-0.1-0.4-0.3-0.5c-0.5-0.2-0.7-0.6-0.8-1c0-0.1,0.1-0.2,0.1-0.3
				c0.1-0.3,0.3-0.5,0.7-0.6c0.2-0.1,0.3-0.2,0.3-0.5c0-1.1-0.3-2.2-0.8-3.3c-0.7-1.4-1.5-2.1-2.4-2.1c-0.9,0-1.7,0.7-2.4,2.1
				c-0.6,1.2-0.8,2.3-0.8,3.3c0,0.2,0.1,0.4,0.3,0.5c0.5,0.2,0.7,0.6,0.8,1c0,0.1-0.1,0.2-0.1,0.3c-0.1,0.3-0.3,0.5-0.7,0.6
				c-0.2,0.1-0.3,0.2-0.3,0.5c0,1.1,0.3,2.2,0.8,3.4c0.7,1.4,1.5,2.1,2.4,2.1c0.9,0,1.8-0.7,2.4-2.1
				C103.1,654.6,103.4,653.5,103.4,652.4z"/>
			<path fill="#C14C27" d="M130.3,653.5c0,1.8-0.8,3.3-2.2,4.4c-1.5,1.1-3.5,1.7-5.9,1.7c-4.6,0-6.9-1.4-6.9-4.2
				c0-0.8,0.2-1.4,0.6-1.8c0.4-0.4,0.8-0.5,1.3-0.5c0.6,0,1.2,0.2,1.6,0.7c0.3,0.4,0.5,0.8,0.5,1.2c0,0.4-0.1,0.8-0.3,1.2
				c-0.1,0.2-0.2,0.4-0.2,0.6c0,0.8,0.9,1.3,2.8,1.3c0.9,0,1.6-0.2,2.1-0.6c0.5-0.4,0.7-0.8,0.7-1.4c0-0.7-0.4-1.3-1.1-1.8
				c-0.4-0.3-1.3-0.8-2.7-1.5c-1.4-0.6-2.3-1.2-2.9-1.7c-0.9-0.9-1.4-2-1.4-3.3c0-2.2,1.1-3.8,3.4-4.7c1.2-0.4,2.6-0.7,4.2-0.7
				c3.9,0,5.9,1.3,5.9,3.9c0,0.5-0.2,1-0.6,1.4c-0.4,0.4-0.8,0.5-1.3,0.5c-0.7,0-1.3-0.3-1.8-0.9c-0.3-0.3-0.4-0.6-0.4-0.8
				c0-0.2,0.1-0.4,0.3-0.7c0.2-0.3,0.3-0.5,0.3-0.6c0-0.2-0.1-0.4-0.3-0.5c-0.5-0.4-1.1-0.6-1.6-0.6c-0.5,0-1,0.2-1.4,0.5
				c-0.4,0.3-0.6,0.7-0.6,1.2c0,0.6,0.3,1.1,0.9,1.5c0.4,0.3,1.5,0.8,3.2,1.4C129.1,649.6,130.3,651.2,130.3,653.5z"/>
			<path fill="#C14C27" d="M23.9,677.4c0,1.8-0.8,3.3-2.2,4.4c-1.5,1.1-3.5,1.7-5.9,1.7c-4.6,0-6.9-1.4-6.9-4.2
				c0-0.8,0.2-1.4,0.6-1.8c0.4-0.4,0.8-0.5,1.3-0.5c0.6,0,1.2,0.2,1.6,0.7c0.3,0.4,0.5,0.8,0.5,1.2c0,0.4-0.1,0.8-0.3,1.2
				c-0.1,0.2-0.2,0.4-0.2,0.6c0,0.8,0.9,1.3,2.8,1.3c0.9,0,1.6-0.2,2.1-0.6c0.5-0.4,0.7-0.8,0.7-1.4c0-0.7-0.4-1.3-1.1-1.8
				c-0.4-0.3-1.3-0.8-2.7-1.5c-1.4-0.6-2.3-1.2-2.9-1.7c-0.9-0.9-1.4-2-1.4-3.3c0-2.2,1.1-3.8,3.4-4.7c1.2-0.4,2.6-0.7,4.2-0.7
				c3.9,0,5.9,1.3,5.9,3.9c0,0.5-0.2,1-0.6,1.4c-0.4,0.4-0.8,0.5-1.3,0.5c-0.7,0-1.3-0.3-1.8-0.9c-0.3-0.3-0.4-0.6-0.4-0.8
				c0-0.2,0.1-0.4,0.3-0.7c0.2-0.3,0.3-0.5,0.3-0.6c0-0.2-0.1-0.4-0.3-0.5c-0.5-0.4-1.1-0.6-1.6-0.6c-0.5,0-1,0.2-1.4,0.5
				c-0.4,0.3-0.6,0.7-0.6,1.2c0,0.6,0.3,1.1,0.9,1.5c0.4,0.3,1.5,0.8,3.2,1.4C22.6,673.5,23.9,675.1,23.9,677.4z"/>
			<path fill="#C14C27" d="M45.6,681.5c0,0.4-0.2,0.8-0.7,1.1c-0.4,0.3-1,0.4-1.6,0.4c-1,0-1.7-0.3-2.1-0.9
				c-0.4,0.6-1.1,0.9-2.1,0.9c-0.6,0-1.2-0.1-1.6-0.4c-0.4-0.3-0.7-0.6-0.7-1.1c0-0.4,0.2-0.7,0.7-1c0.5-0.3,0.7-0.5,0.7-0.7
				c0-0.1,0-0.1-0.1-0.2l-0.7-1.9c-0.1-0.2-0.2-0.3-0.5-0.3h-3c-0.2,0-0.4,0.1-0.4,0.3l-0.8,1.9c0,0.1-0.1,0.2-0.1,0.2
				c0,0.2,0.2,0.4,0.7,0.7c0.5,0.3,0.7,0.6,0.7,1c0,0.4-0.2,0.8-0.7,1.1c-0.4,0.3-1,0.4-1.6,0.4h-0.2c-0.6,0-1.2-0.1-1.6-0.4
				c-0.4-0.3-0.7-0.6-0.7-1.1c0-0.4,0.2-0.8,0.6-1.1c0.5-0.3,0.8-0.6,0.8-0.8l1.2-3.1c0.1-0.2,0-0.4-0.1-0.6
				c-0.4-0.4-0.5-0.8-0.4-1.2c0.2-0.2,0.6-0.4,1.1-0.6c0.1,0,0.3-0.1,0.4-0.3l1.5-3.8c0-0.1,0.1-0.1,0.1-0.2c0-0.2-0.2-0.4-0.7-0.7
				c-0.5-0.3-0.7-0.6-0.7-1c0-0.4,0.2-0.8,0.7-1.1c0.4-0.3,1-0.4,1.6-0.4c1,0,1.7,0.3,2.1,0.9c0.4-0.6,1.1-0.9,2.1-0.9
				c0.6,0,1.2,0.1,1.6,0.4c0.5,0.3,0.7,0.7,0.7,1.1c0,0.4-0.2,0.7-0.7,1c-0.5,0.3-0.7,0.5-0.7,0.7c0,0.1,0,0.1,0,0.2l1.4,3.8
				c0.1,0.2,0.2,0.3,0.4,0.3c0.6,0,1,0.2,1.1,0.6c0.1,0.4,0,0.8-0.4,1.2c-0.2,0.2-0.2,0.3-0.1,0.6l1.2,3.1c0.1,0.2,0.4,0.5,0.8,0.8
				C45.4,680.7,45.6,681.1,45.6,681.5z M36.4,675l-0.7-1.8c-0.1-0.2-0.1-0.2-0.2,0l-0.7,1.8c0,0.1-0.1,0.2-0.1,0.3
				c0,0.1,0.1,0.2,0.2,0.2c0.5,0,0.9,0,1.4,0c0.1,0,0.2-0.1,0.2-0.2C36.5,675.3,36.5,675.2,36.4,675z"/>
			<path fill="#C14C27" d="M68.8,681.5c0,0.4-0.2,0.8-0.7,1.1c-0.5,0.3-1,0.4-1.6,0.4c-1,0-1.7-0.3-2.1-0.9
				c-0.4,0.6-1.1,0.9-2.1,0.9c-0.6,0-1.2-0.1-1.6-0.4c-0.4-0.3-0.7-0.6-0.7-1.1c0-0.4,0.3-0.7,0.8-1c0.5-0.3,0.8-0.5,0.8-0.6
				c0-0.1,0-0.2-0.1-0.3l-5.3-7.4c-0.2-0.2-0.2-0.2-0.2,0.1v1c0,0.2,0.1,0.4,0.3,0.5c0.5,0.2,0.8,0.6,0.8,1c0,0.1-0.1,0.2-0.1,0.4
				c-0.1,0.3-0.4,0.5-0.7,0.6c-0.2,0.1-0.3,0.3-0.3,0.5v3.3c0,0.3,0.2,0.6,0.7,0.9c0.5,0.3,0.7,0.6,0.7,1c0,0.4-0.2,0.8-0.7,1.1
				c-0.4,0.3-1,0.4-1.6,0.4h-0.2c-0.6,0-1.2-0.1-1.6-0.4c-0.4-0.3-0.7-0.6-0.7-1.1c0-0.4,0.2-0.7,0.7-1c0.5-0.3,0.7-0.6,0.7-0.9
				v-3.3c0-0.2-0.1-0.4-0.3-0.5c-0.5-0.2-0.8-0.5-0.8-1c0-0.1,0-0.2,0.1-0.3c0.1-0.3,0.4-0.5,0.7-0.6c0.2-0.1,0.3-0.2,0.3-0.5l0-3.3
				c0-0.3-0.2-0.6-0.7-0.9s-0.7-0.6-0.7-1c0-0.4,0.2-0.8,0.7-1.1c0.4-0.3,1-0.4,1.6-0.4c1,0,1.7,0.3,2.1,0.9
				c0.4-0.6,1.1-0.9,2.1-0.9c0.6,0,1.2,0.1,1.6,0.4c0.5,0.3,0.7,0.7,0.7,1.1c0,0.4-0.3,0.7-0.8,1c-0.5,0.3-0.8,0.5-0.8,0.6
				c0,0.1,0,0.2,0.1,0.3l5.3,7.3c0.1,0.1,0.1,0.1,0.2,0.1c0.1,0,0.1-0.1,0.1-0.2v-0.9c0-0.2-0.1-0.4-0.3-0.5c-0.5-0.2-0.8-0.6-0.8-1
				c0-0.1,0-0.2,0.1-0.3c0.1-0.3,0.4-0.5,0.7-0.6c0.2-0.1,0.3-0.2,0.3-0.5V670c0-0.3-0.2-0.6-0.7-0.9s-0.7-0.6-0.7-1
				c0-0.4,0.2-0.8,0.7-1.1c0.4-0.3,1-0.4,1.6-0.4h0.2c0.6,0,1.2,0.1,1.6,0.4c0.4,0.3,0.7,0.7,0.7,1.1c0,0.4-0.2,0.7-0.7,1
				s-0.7,0.6-0.7,0.9v3.3c0,0.2,0.1,0.4,0.3,0.5c0.5,0.2,0.8,0.6,0.8,1c0,0.1-0.1,0.2-0.1,0.3c-0.1,0.3-0.4,0.5-0.7,0.6
				c-0.2,0.1-0.3,0.2-0.3,0.5v3.3c0,0.3,0.2,0.6,0.7,0.9C68.5,680.8,68.8,681.1,68.8,681.5z"/>
			<path fill="#C14C27" d="M93.2,667.8c-0.2,0.4-0.3,1-0.3,1.9c0,0.7,0,1.3,0,1.7c0,0.2-0.1,0.3-0.3,0.4c-0.2,0.1-0.5,0.2-0.8,0.2
				c-0.7,0-1.1-0.2-1.3-0.7c-0.2-0.6-0.4-1.2-0.5-1.8c-0.3-0.8-0.7-1.2-1.3-1.4c-0.1,0-0.2-0.1-0.3-0.1c-0.6,0-0.9,0.7-0.9,2.2v3.1
				c0,0.2,0.1,0.4,0.3,0.5c0.5,0.2,0.8,0.6,0.8,1c0,0.1,0,0.2-0.1,0.3c-0.1,0.3-0.4,0.5-0.7,0.6c-0.2,0.1-0.3,0.2-0.3,0.5v3.3
				c0,0.3,0.2,0.6,0.7,0.9c0.5,0.3,0.7,0.6,0.7,1c0,0.4-0.2,0.8-0.7,1.1c-0.4,0.3-1,0.4-1.6,0.4c-1,0-1.7-0.3-2.1-0.9
				c-0.4,0.6-1.1,0.9-2.1,0.9c-0.6,0-1.2-0.1-1.6-0.4c-0.5-0.3-0.7-0.6-0.7-1.1c0-0.4,0.2-0.7,0.7-1c0.5-0.3,0.7-0.6,0.7-0.9l0-3.3
				c0-0.2-0.1-0.4-0.3-0.5c-0.5-0.2-0.8-0.6-0.8-1c0-0.1,0.1-0.2,0.1-0.3c0.1-0.3,0.4-0.5,0.7-0.6c0.2-0.1,0.3-0.2,0.3-0.5v-3.1
				c0-1.5-0.3-2.2-0.9-2.2c-0.1,0-0.2,0-0.3,0.1c-0.6,0.2-1,0.6-1.3,1.4c-0.2,0.6-0.4,1.2-0.6,1.8c-0.2,0.4-0.6,0.7-1.3,0.7
				c-0.3,0-0.6-0.1-0.8-0.2c-0.2-0.1-0.3-0.2-0.3-0.4c0.1-0.4,0.1-1,0-1.7c-0.1-0.9-0.2-1.5-0.3-1.9c-0.1-0.2-0.1-0.3-0.1-0.5
				c0-0.7,0.5-1,1.6-0.9c0.2,0,0.4,0,0.5,0c0.2,0,0.6,0,1.2-0.1c0.6-0.1,1.3-0.1,2.1-0.1c1.1,0,1.9,0.1,2.5,0.4
				c0.4,0.3,0.7,0.7,1.1,1c0.4-0.3,0.7-0.6,1.1-1c0.5-0.3,1.4-0.4,2.5-0.4c0.8,0,1.5,0,2.1,0.1c0.6,0.1,1,0.1,1.2,0.1
				c0.2,0,0.3,0,0.5,0c1-0.1,1.6,0.2,1.6,0.9C93.3,667.5,93.2,667.6,93.2,667.8z"/>
			<path fill="#C14C27" d="M118.2,674.8c0,0.1,0,0.2-0.1,0.3c-0.1,0.3-0.4,0.5-0.7,0.6c-0.1,0.1-0.2,0.2-0.3,0.5
				c-0.6,2.2-1.7,4-3.4,5.3c-1.7,1.3-3.6,2-5.8,2c-2.2,0-4.1-0.7-5.8-2c-1.7-1.3-2.8-3.1-3.4-5.3c-0.1-0.3-0.2-0.4-0.3-0.5
				c-0.5-0.2-0.7-0.6-0.8-1c0-0.1,0.1-0.2,0.1-0.3c0.1-0.3,0.3-0.5,0.7-0.6c0.1-0.1,0.2-0.2,0.3-0.5c0.7-2.2,1.8-3.9,3.5-5.2
				c1.6-1.3,3.6-1.9,5.8-1.9c2.2,0,4.1,0.6,5.8,1.9c1.6,1.3,2.8,3,3.4,5.2c0.1,0.3,0.2,0.4,0.3,0.5
				C117.9,674.1,118.2,674.4,118.2,674.8z M111.2,676.3c0-0.2-0.1-0.4-0.3-0.5c-0.5-0.2-0.7-0.6-0.8-1c0-0.1,0.1-0.2,0.1-0.3
				c0.1-0.3,0.3-0.5,0.7-0.6c0.2-0.1,0.3-0.2,0.3-0.5c0-1.1-0.3-2.2-0.8-3.3c-0.7-1.4-1.5-2.1-2.4-2.1c-0.9,0-1.7,0.7-2.4,2.1
				c-0.6,1.2-0.8,2.3-0.8,3.3c0,0.2,0.1,0.4,0.3,0.5c0.5,0.2,0.7,0.6,0.8,1c0,0.1-0.1,0.2-0.1,0.3c-0.1,0.3-0.3,0.5-0.7,0.6
				c-0.2,0.1-0.3,0.2-0.3,0.5c0,1.1,0.3,2.2,0.8,3.4c0.7,1.4,1.5,2.1,2.4,2.1c0.9,0,1.8-0.7,2.4-2.1
				C110.9,678.5,111.2,677.4,111.2,676.3z"/>
			<path fill="#C14C27" d="M138.2,677.4c0,1.8-0.8,3.3-2.2,4.4c-1.5,1.1-3.5,1.7-5.9,1.7c-4.6,0-6.9-1.4-6.9-4.2
				c0-0.8,0.2-1.4,0.6-1.8c0.4-0.4,0.8-0.5,1.3-0.5c0.6,0,1.2,0.2,1.6,0.7c0.3,0.4,0.5,0.8,0.5,1.2c0,0.4-0.1,0.8-0.3,1.2
				c-0.1,0.2-0.2,0.4-0.2,0.6c0,0.8,0.9,1.3,2.8,1.3c0.9,0,1.6-0.2,2.1-0.6c0.5-0.4,0.7-0.8,0.7-1.4c0-0.7-0.4-1.3-1.1-1.8
				c-0.4-0.3-1.3-0.8-2.7-1.5c-1.4-0.6-2.3-1.2-2.9-1.7c-0.9-0.9-1.4-2-1.4-3.3c0-2.2,1.1-3.8,3.4-4.7c1.2-0.4,2.6-0.7,4.2-0.7
				c3.9,0,5.9,1.3,5.9,3.9c0,0.5-0.2,1-0.6,1.4c-0.4,0.4-0.8,0.5-1.3,0.5c-0.7,0-1.3-0.3-1.8-0.9c-0.3-0.3-0.4-0.6-0.4-0.8
				c0-0.2,0.1-0.4,0.3-0.7c0.2-0.3,0.3-0.5,0.3-0.6c0-0.2-0.1-0.4-0.3-0.5c-0.5-0.4-1.1-0.6-1.6-0.6c-0.5,0-1,0.2-1.4,0.5
				c-0.4,0.3-0.6,0.7-0.6,1.2c0,0.6,0.3,1.1,0.9,1.5c0.4,0.3,1.5,0.8,3.2,1.4C136.9,673.5,138.2,675.1,138.2,677.4z"/>
		</g>
		<g>
			<g>
				<path fill="#EB622F" d="M32.6,643.2c-0.2,0.4-0.3,1-0.3,1.9c0,0.7,0,1.3,0,1.7c0,0.2-0.1,0.3-0.3,0.4c-0.2,0.1-0.5,0.2-0.8,0.2
					c-0.7,0-1.1-0.2-1.3-0.7c-0.2-0.6-0.4-1.2-0.5-1.8c-0.3-0.8-0.7-1.2-1.3-1.4c-0.1,0-0.2-0.1-0.3-0.1c-0.6,0-0.9,0.7-0.9,2.2v3.1
					c0,0.2,0.1,0.4,0.3,0.5c0.5,0.2,0.8,0.6,0.8,1c0,0.1,0,0.2-0.1,0.3c-0.1,0.3-0.4,0.5-0.7,0.6c-0.2,0.1-0.3,0.2-0.3,0.5v3.3
					c0,0.3,0.2,0.6,0.7,0.9c0.5,0.3,0.7,0.6,0.7,1c0,0.4-0.2,0.8-0.7,1.1c-0.4,0.3-1,0.4-1.6,0.4c-1,0-1.7-0.3-2.1-0.9
					c-0.4,0.6-1.1,0.9-2.1,0.9c-0.6,0-1.2-0.1-1.6-0.4c-0.5-0.3-0.7-0.6-0.7-1.1c0-0.4,0.2-0.7,0.7-1c0.5-0.3,0.7-0.6,0.7-0.9l0-3.3
					c0-0.2-0.1-0.4-0.3-0.5c-0.5-0.2-0.8-0.6-0.8-1c0-0.1,0.1-0.2,0.1-0.3c0.1-0.3,0.4-0.5,0.7-0.6c0.2-0.1,0.3-0.2,0.3-0.5v-3.1
					c0-1.5-0.3-2.2-0.9-2.2c-0.1,0-0.2,0-0.3,0.1c-0.6,0.2-1,0.6-1.3,1.4c-0.2,0.6-0.4,1.2-0.6,1.8c-0.2,0.4-0.6,0.7-1.3,0.7
					c-0.3,0-0.6-0.1-0.8-0.2c-0.2-0.1-0.3-0.2-0.3-0.4c0.1-0.4,0.1-1,0-1.7c-0.1-0.9-0.2-1.5-0.3-1.9c-0.1-0.2-0.1-0.3-0.1-0.5
					c0-0.7,0.5-1,1.6-0.9c0.2,0,0.4,0,0.5,0c0.2,0,0.6,0,1.2-0.1c0.6-0.1,1.3-0.1,2.1-0.1c1.1,0,1.9,0.1,2.5,0.4
					c0.4,0.3,0.7,0.7,1.1,1c0.4-0.3,0.7-0.6,1.1-1c0.5-0.3,1.4-0.4,2.5-0.4c0.8,0,1.5,0,2.1,0.1c0.6,0.1,1,0.1,1.2,0.1
					c0.2,0,0.3,0,0.5,0c1-0.1,1.6,0.2,1.6,0.9C32.7,642.9,32.6,643,32.6,643.2z"/>
				<path fill="#EB622F" d="M57.6,650.2c0,0.1,0,0.2-0.1,0.3c-0.1,0.3-0.4,0.5-0.7,0.6c-0.1,0.1-0.2,0.2-0.3,0.5
					c-0.6,2.2-1.7,4-3.4,5.3c-1.7,1.3-3.6,2-5.8,2c-2.2,0-4.1-0.7-5.8-2c-1.7-1.3-2.8-3.1-3.4-5.3c-0.1-0.3-0.2-0.4-0.3-0.5
					c-0.5-0.2-0.7-0.6-0.8-1c0-0.1,0.1-0.2,0.1-0.3c0.1-0.3,0.3-0.5,0.7-0.6c0.1-0.1,0.2-0.2,0.3-0.5c0.7-2.2,1.8-3.9,3.5-5.2
					c1.6-1.3,3.6-1.9,5.8-1.9c2.2,0,4.1,0.6,5.8,1.9c1.6,1.3,2.8,3,3.4,5.2c0.1,0.3,0.2,0.4,0.3,0.5
					C57.3,649.5,57.6,649.8,57.6,650.2z M50.6,651.7c0-0.2-0.1-0.4-0.3-0.5c-0.5-0.2-0.7-0.6-0.8-1c0-0.1,0.1-0.2,0.1-0.3
					c0.1-0.3,0.3-0.5,0.7-0.6c0.2-0.1,0.3-0.2,0.3-0.5c0-1.1-0.3-2.2-0.8-3.3c-0.7-1.4-1.5-2.1-2.4-2.1c-0.9,0-1.7,0.7-2.4,2.1
					c-0.6,1.2-0.8,2.3-0.8,3.3c0,0.2,0.1,0.4,0.3,0.5c0.5,0.2,0.7,0.6,0.8,1c0,0.1-0.1,0.2-0.1,0.3c-0.1,0.3-0.3,0.5-0.7,0.6
					c-0.2,0.1-0.3,0.2-0.3,0.5c0,1.1,0.3,2.2,0.8,3.4c0.7,1.4,1.5,2.1,2.4,2.1c0.9,0,1.8-0.7,2.4-2.1
					C50.3,653.9,50.6,652.8,50.6,651.7z"/>
				<path fill="#EB622F" d="M84.4,650.2c0,0.1-0.1,0.2-0.1,0.3c-0.1,0.3-0.4,0.5-0.7,0.6c-0.2,0.1-0.3,0.2-0.3,0.5l-0.1,0.3
					c-0.4,1.9-1.3,3.4-2.7,4.6c-1.6,1.3-3.8,2-6.6,2c-2.3,0-4-0.3-5.1-1c-0.4,0.6-1.1,0.9-2.1,0.9c-0.6,0-1.2-0.1-1.6-0.4
					c-0.4-0.3-0.7-0.6-0.7-1.1c0-0.4,0.2-0.7,0.7-1c0.5-0.3,0.7-0.6,0.7-0.9v-3.3c0-0.2-0.1-0.4-0.3-0.5c-0.5-0.2-0.8-0.6-0.8-1
					c0-0.1,0.1-0.2,0.1-0.3c0.1-0.3,0.4-0.5,0.7-0.6c0.2-0.1,0.3-0.2,0.3-0.5v-3.3c0-0.3-0.2-0.6-0.7-0.9s-0.7-0.6-0.7-1
					c0-0.4,0.2-0.8,0.7-1.1c0.4-0.3,1-0.4,1.6-0.4c1,0,1.7,0.3,2.1,0.9c1.1-0.9,2.5-1.4,4.3-1.4c2.7,0,4.9,0.5,6.6,1.6
					c2,1.2,3.2,3,3.6,5.4v0.2c0,0.2,0.1,0.4,0.3,0.5C84,649.5,84.3,649.8,84.4,650.2z M76.8,651.7c0-0.2-0.1-0.4-0.3-0.5
					c-0.5-0.2-0.8-0.6-0.8-1c0-0.1,0.1-0.2,0.1-0.3c0.1-0.3,0.4-0.5,0.7-0.6c0.2-0.1,0.3-0.3,0.3-0.5l0-0.2
					c-0.1-0.5-0.3-1.2-0.5-1.8c-0.2-0.7-0.7-1.4-1.3-2.1c-0.7-0.8-1.4-1.2-2-1.2c-0.8,0-1.2,0.7-1.2,2.2v3.1c0,0.2,0.1,0.4,0.3,0.5
					c0.5,0.2,0.8,0.6,0.8,1c0,0.1-0.1,0.2-0.1,0.3c-0.1,0.3-0.4,0.5-0.7,0.6c-0.2,0.1-0.3,0.2-0.3,0.5v3.3c0,0.6,0.1,1.1,0.2,1.3
					c0.2,0.4,0.6,0.6,1.3,0.6c1.2,0,2.1-0.6,2.7-1.7c0.5-0.9,0.8-1.9,0.8-3.2V651.7z"/>
				<path fill="#EB622F" d="M111.1,650.2c0,0.1,0,0.2-0.1,0.3c-0.1,0.3-0.4,0.5-0.7,0.6c-0.1,0.1-0.2,0.2-0.3,0.5
					c-0.6,2.2-1.7,4-3.4,5.3c-1.7,1.3-3.6,2-5.8,2c-2.2,0-4.1-0.7-5.8-2c-1.7-1.3-2.8-3.1-3.4-5.3c-0.1-0.3-0.2-0.4-0.3-0.5
					c-0.5-0.2-0.7-0.6-0.8-1c0-0.1,0.1-0.2,0.1-0.3c0.1-0.3,0.3-0.5,0.7-0.6c0.1-0.1,0.2-0.2,0.3-0.5c0.7-2.2,1.8-3.9,3.5-5.2
					c1.6-1.3,3.6-1.9,5.8-1.9c2.2,0,4.1,0.6,5.8,1.9c1.6,1.3,2.8,3,3.4,5.2c0.1,0.3,0.2,0.4,0.3,0.5
					C110.8,649.5,111.1,649.8,111.1,650.2z M104.1,651.7c0-0.2-0.1-0.4-0.3-0.5c-0.5-0.2-0.7-0.6-0.8-1c0-0.1,0.1-0.2,0.1-0.3
					c0.1-0.3,0.3-0.5,0.7-0.6c0.2-0.1,0.3-0.2,0.3-0.5c0-1.1-0.3-2.2-0.8-3.3c-0.7-1.4-1.5-2.1-2.4-2.1c-0.9,0-1.7,0.7-2.4,2.1
					c-0.6,1.2-0.8,2.3-0.8,3.3c0,0.2,0.1,0.4,0.3,0.5c0.5,0.2,0.7,0.6,0.8,1c0,0.1-0.1,0.2-0.1,0.3c-0.1,0.3-0.3,0.5-0.7,0.6
					c-0.2,0.1-0.3,0.2-0.3,0.5c0,1.1,0.3,2.2,0.8,3.4c0.7,1.4,1.5,2.1,2.4,2.1c0.9,0,1.8-0.7,2.4-2.1
					C103.8,653.9,104.1,652.8,104.1,651.7z"/>
				<path fill="#EB622F" d="M131.1,652.8c0,1.8-0.8,3.3-2.2,4.4c-1.5,1.1-3.5,1.7-5.9,1.7c-4.6,0-6.9-1.4-6.9-4.2
					c0-0.8,0.2-1.4,0.6-1.8c0.4-0.4,0.8-0.5,1.3-0.5c0.6,0,1.2,0.2,1.6,0.7c0.3,0.4,0.5,0.8,0.5,1.2c0,0.4-0.1,0.8-0.3,1.2
					c-0.1,0.2-0.2,0.4-0.2,0.6c0,0.8,0.9,1.3,2.8,1.3c0.9,0,1.6-0.2,2.1-0.6c0.5-0.4,0.7-0.8,0.7-1.4c0-0.7-0.4-1.3-1.1-1.8
					c-0.4-0.3-1.3-0.8-2.7-1.5c-1.4-0.6-2.3-1.2-2.9-1.7c-0.9-0.9-1.4-2-1.4-3.3c0-2.2,1.1-3.8,3.4-4.7c1.2-0.4,2.6-0.7,4.2-0.7
					c3.9,0,5.9,1.3,5.9,3.9c0,0.5-0.2,1-0.6,1.4c-0.4,0.4-0.8,0.5-1.3,0.5c-0.7,0-1.3-0.3-1.8-0.9c-0.3-0.3-0.4-0.6-0.4-0.8
					c0-0.2,0.1-0.4,0.3-0.7c0.2-0.3,0.3-0.5,0.3-0.6c0-0.2-0.1-0.4-0.3-0.5c-0.5-0.4-1.1-0.6-1.6-0.6c-0.5,0-1,0.2-1.4,0.5
					c-0.4,0.3-0.6,0.7-0.6,1.2c0,0.6,0.3,1.1,0.9,1.5c0.4,0.3,1.5,0.8,3.2,1.4C129.8,648.9,131.1,650.5,131.1,652.8z"/>
				<path fill="#EB622F" d="M24.6,676.6c0,1.8-0.8,3.3-2.2,4.4c-1.5,1.1-3.5,1.7-5.9,1.7c-4.6,0-6.9-1.4-6.9-4.2
					c0-0.8,0.2-1.4,0.6-1.8c0.4-0.4,0.8-0.5,1.3-0.5c0.6,0,1.2,0.2,1.6,0.7c0.3,0.4,0.5,0.8,0.5,1.2c0,0.4-0.1,0.8-0.3,1.2
					c-0.1,0.2-0.2,0.4-0.2,0.6c0,0.8,0.9,1.3,2.8,1.3c0.9,0,1.6-0.2,2.1-0.6c0.5-0.4,0.7-0.8,0.7-1.4c0-0.7-0.4-1.3-1.1-1.8
					c-0.4-0.3-1.3-0.8-2.7-1.5c-1.4-0.6-2.3-1.2-2.9-1.7c-0.9-0.9-1.4-2-1.4-3.3c0-2.2,1.1-3.8,3.4-4.7c1.2-0.4,2.6-0.7,4.2-0.7
					c3.9,0,5.9,1.3,5.9,3.9c0,0.5-0.2,1-0.6,1.4c-0.4,0.4-0.8,0.5-1.3,0.5c-0.7,0-1.3-0.3-1.8-0.9c-0.3-0.3-0.4-0.6-0.4-0.8
					c0-0.2,0.1-0.4,0.3-0.7c0.2-0.3,0.3-0.5,0.3-0.6c0-0.2-0.1-0.4-0.3-0.5c-0.5-0.4-1.1-0.6-1.6-0.6c-0.5,0-1,0.2-1.4,0.5
					c-0.4,0.3-0.6,0.7-0.6,1.2c0,0.6,0.3,1.1,0.9,1.5c0.4,0.3,1.5,0.8,3.2,1.4C23.3,672.8,24.6,674.4,24.6,676.6z"/>
				<path fill="#EB622F" d="M46.3,680.8c0,0.4-0.2,0.8-0.7,1.1c-0.4,0.3-1,0.4-1.6,0.4c-1,0-1.7-0.3-2.1-0.9
					c-0.4,0.6-1.1,0.9-2.1,0.9c-0.6,0-1.2-0.1-1.6-0.4c-0.4-0.3-0.7-0.6-0.7-1.1c0-0.4,0.2-0.7,0.7-1c0.5-0.3,0.7-0.5,0.7-0.7
					c0-0.1,0-0.1-0.1-0.2l-0.7-1.9c-0.1-0.2-0.2-0.3-0.5-0.3h-3c-0.2,0-0.4,0.1-0.4,0.3l-0.8,1.9c0,0.1-0.1,0.2-0.1,0.2
					c0,0.2,0.2,0.4,0.7,0.7c0.5,0.3,0.7,0.6,0.7,1c0,0.4-0.2,0.8-0.7,1.1c-0.4,0.3-1,0.4-1.6,0.4h-0.2c-0.6,0-1.2-0.1-1.6-0.4
					c-0.4-0.3-0.7-0.6-0.7-1.1c0-0.4,0.2-0.8,0.6-1.1c0.5-0.3,0.8-0.6,0.8-0.8l1.2-3.1c0.1-0.2,0-0.4-0.1-0.6
					c-0.4-0.4-0.5-0.8-0.4-1.2c0.2-0.2,0.6-0.4,1.1-0.6c0.1,0,0.3-0.1,0.4-0.3l1.5-3.8c0-0.1,0.1-0.1,0.1-0.2c0-0.2-0.2-0.4-0.7-0.7
					c-0.5-0.3-0.7-0.6-0.7-1c0-0.4,0.2-0.8,0.7-1.1c0.4-0.3,1-0.4,1.6-0.4c1,0,1.7,0.3,2.1,0.9c0.4-0.6,1.1-0.9,2.1-0.9
					c0.6,0,1.2,0.1,1.6,0.4s0.7,0.7,0.7,1.1c0,0.4-0.2,0.7-0.7,1c-0.5,0.3-0.7,0.5-0.7,0.7c0,0.1,0,0.1,0,0.2l1.4,3.8
					c0.1,0.2,0.2,0.3,0.4,0.3c0.6,0,1,0.2,1.1,0.6c0.1,0.4,0,0.8-0.4,1.2c-0.2,0.2-0.2,0.3-0.1,0.6l1.2,3.1c0.1,0.2,0.4,0.5,0.8,0.8
					C46.1,680,46.3,680.3,46.3,680.8z M37.1,674.3l-0.7-1.8c-0.1-0.2-0.1-0.2-0.2,0l-0.7,1.8c0,0.1-0.1,0.2-0.1,0.3
					c0,0.1,0.1,0.2,0.2,0.2c0.5,0,0.9,0,1.4,0c0.1,0,0.2-0.1,0.2-0.2C37.2,674.6,37.2,674.4,37.1,674.3z"/>
				<path fill="#EB622F" d="M69.5,680.8c0,0.4-0.2,0.8-0.7,1.1c-0.5,0.3-1,0.4-1.6,0.4c-1,0-1.7-0.3-2.1-0.9
					c-0.4,0.6-1.1,0.9-2.1,0.9c-0.6,0-1.2-0.1-1.6-0.4c-0.4-0.3-0.7-0.6-0.7-1.1c0-0.4,0.3-0.7,0.8-1c0.5-0.3,0.8-0.5,0.8-0.6
					c0-0.1,0-0.2-0.1-0.3l-5.3-7.4c-0.2-0.2-0.2-0.2-0.2,0.1v1c0,0.2,0.1,0.4,0.3,0.5c0.5,0.2,0.8,0.6,0.8,1c0,0.1-0.1,0.2-0.1,0.4
					c-0.1,0.3-0.4,0.5-0.7,0.6c-0.2,0.1-0.3,0.3-0.3,0.5v3.3c0,0.3,0.2,0.6,0.7,0.9c0.5,0.3,0.7,0.6,0.7,1c0,0.4-0.2,0.8-0.7,1.1
					c-0.4,0.3-1,0.4-1.6,0.4h-0.2c-0.6,0-1.2-0.1-1.6-0.4c-0.4-0.3-0.7-0.6-0.7-1.1c0-0.4,0.2-0.7,0.7-1c0.5-0.3,0.7-0.6,0.7-0.9
					v-3.3c0-0.2-0.1-0.4-0.3-0.5c-0.5-0.2-0.8-0.5-0.8-1c0-0.1,0-0.2,0.1-0.3c0.1-0.3,0.4-0.5,0.7-0.6c0.2-0.1,0.3-0.2,0.3-0.5
					l0-3.3c0-0.3-0.2-0.6-0.7-0.9c-0.5-0.3-0.7-0.6-0.7-1c0-0.4,0.2-0.8,0.7-1.1c0.4-0.3,1-0.4,1.6-0.4c1,0,1.7,0.3,2.1,0.9
					c0.4-0.6,1.1-0.9,2.1-0.9c0.6,0,1.2,0.1,1.6,0.4s0.7,0.7,0.7,1.1c0,0.4-0.3,0.7-0.8,1c-0.5,0.3-0.8,0.5-0.8,0.6
					c0,0.1,0,0.2,0.1,0.3l5.3,7.3c0.1,0.1,0.1,0.1,0.2,0.1c0.1,0,0.1-0.1,0.1-0.2v-0.9c0-0.2-0.1-0.4-0.3-0.5
					c-0.5-0.2-0.8-0.6-0.8-1c0-0.1,0-0.2,0.1-0.3c0.1-0.3,0.4-0.5,0.7-0.6c0.2-0.1,0.3-0.2,0.3-0.5v-3.3c0-0.3-0.2-0.6-0.7-0.9
					s-0.7-0.6-0.7-1c0-0.4,0.2-0.8,0.7-1.1c0.4-0.3,1-0.4,1.6-0.4h0.2c0.6,0,1.2,0.1,1.6,0.4c0.4,0.3,0.7,0.7,0.7,1.1
					c0,0.4-0.2,0.7-0.7,1S68,669,68,669.3v3.3c0,0.2,0.1,0.4,0.3,0.5c0.5,0.2,0.8,0.6,0.8,1c0,0.1-0.1,0.2-0.1,0.3
					c-0.1,0.3-0.4,0.5-0.7,0.6c-0.2,0.1-0.3,0.2-0.3,0.5v3.3c0,0.3,0.2,0.6,0.7,0.9C69.2,680,69.5,680.4,69.5,680.8z"/>
				<path fill="#EB622F" d="M93.9,667.1c-0.2,0.4-0.3,1-0.3,1.9c0,0.7,0,1.3,0,1.7c0,0.2-0.1,0.3-0.3,0.4c-0.2,0.1-0.5,0.2-0.8,0.2
					c-0.7,0-1.1-0.2-1.3-0.7c-0.2-0.6-0.4-1.2-0.5-1.8c-0.3-0.8-0.7-1.2-1.3-1.4c-0.1,0-0.2-0.1-0.3-0.1c-0.6,0-0.9,0.7-0.9,2.2v3.1
					c0,0.2,0.1,0.4,0.3,0.5c0.5,0.2,0.8,0.6,0.8,1c0,0.1,0,0.2-0.1,0.3c-0.1,0.3-0.4,0.5-0.7,0.6c-0.2,0.1-0.3,0.2-0.3,0.5v3.3
					c0,0.3,0.2,0.6,0.7,0.9c0.5,0.3,0.7,0.6,0.7,1c0,0.4-0.2,0.8-0.7,1.1c-0.4,0.3-1,0.4-1.6,0.4c-1,0-1.7-0.3-2.1-0.9
					c-0.4,0.6-1.1,0.9-2.1,0.9c-0.6,0-1.2-0.1-1.6-0.4c-0.5-0.3-0.7-0.6-0.7-1.1c0-0.4,0.2-0.7,0.7-1c0.5-0.3,0.7-0.6,0.7-0.9l0-3.3
					c0-0.2-0.1-0.4-0.3-0.5c-0.5-0.2-0.8-0.6-0.8-1c0-0.1,0.1-0.2,0.1-0.3c0.1-0.3,0.4-0.5,0.7-0.6c0.2-0.1,0.3-0.2,0.3-0.5v-3.1
					c0-1.5-0.3-2.2-0.9-2.2c-0.1,0-0.2,0-0.3,0.1c-0.6,0.2-1,0.6-1.3,1.4c-0.2,0.6-0.4,1.2-0.6,1.8c-0.2,0.4-0.6,0.7-1.3,0.7
					c-0.3,0-0.6-0.1-0.8-0.2c-0.2-0.1-0.3-0.2-0.3-0.4c0.1-0.4,0.1-1,0-1.7c-0.1-0.9-0.2-1.5-0.3-1.9c-0.1-0.2-0.1-0.3-0.1-0.5
					c0-0.7,0.5-1,1.6-0.9c0.2,0,0.4,0,0.5,0c0.2,0,0.6,0,1.2-0.1c0.6-0.1,1.3-0.1,2.1-0.1c1.1,0,1.9,0.1,2.5,0.4
					c0.4,0.3,0.7,0.7,1.1,1c0.4-0.3,0.7-0.6,1.1-1c0.5-0.3,1.4-0.4,2.5-0.4c0.8,0,1.5,0,2.1,0.1c0.6,0.1,1,0.1,1.2,0.1
					c0.2,0,0.3,0,0.5,0c1-0.1,1.6,0.2,1.6,0.9C94,666.7,94,666.9,93.9,667.1z"/>
				<path fill="#EB622F" d="M118.9,674.1c0,0.1,0,0.2-0.1,0.3c-0.1,0.3-0.4,0.5-0.7,0.6c-0.1,0.1-0.2,0.2-0.3,0.5
					c-0.6,2.2-1.7,4-3.4,5.3c-1.7,1.3-3.6,2-5.8,2c-2.2,0-4.1-0.7-5.8-2c-1.7-1.3-2.8-3.1-3.4-5.3c-0.1-0.3-0.2-0.4-0.3-0.5
					c-0.5-0.2-0.7-0.6-0.8-1c0-0.1,0.1-0.2,0.1-0.3c0.1-0.3,0.3-0.5,0.7-0.6c0.1-0.1,0.2-0.2,0.3-0.5c0.7-2.2,1.8-3.9,3.5-5.2
					c1.6-1.3,3.6-1.9,5.8-1.9c2.2,0,4.1,0.6,5.8,1.9c1.6,1.3,2.8,3,3.4,5.2c0.1,0.3,0.2,0.4,0.3,0.5
					C118.7,673.4,118.9,673.7,118.9,674.1z M111.9,675.6c0-0.2-0.1-0.4-0.3-0.5c-0.5-0.2-0.7-0.6-0.8-1c0-0.1,0.1-0.2,0.1-0.3
					c0.1-0.3,0.3-0.5,0.7-0.6c0.2-0.1,0.3-0.2,0.3-0.5c0-1.1-0.3-2.2-0.8-3.3c-0.7-1.4-1.5-2.1-2.4-2.1c-0.9,0-1.7,0.7-2.4,2.1
					c-0.6,1.2-0.8,2.3-0.8,3.3c0,0.2,0.1,0.4,0.3,0.5c0.5,0.2,0.7,0.6,0.8,1c0,0.1-0.1,0.2-0.1,0.3c-0.1,0.3-0.3,0.5-0.7,0.6
					c-0.2,0.1-0.3,0.2-0.3,0.5c0,1.1,0.3,2.2,0.8,3.4c0.7,1.4,1.5,2.1,2.4,2.1c0.9,0,1.8-0.7,2.4-2.1
					C111.6,677.8,111.9,676.6,111.9,675.6z"/>
				<path fill="#EB622F" d="M138.9,676.6c0,1.8-0.8,3.3-2.2,4.4c-1.5,1.1-3.5,1.7-5.9,1.7c-4.6,0-6.9-1.4-6.9-4.2
					c0-0.8,0.2-1.4,0.6-1.8c0.4-0.4,0.8-0.5,1.3-0.5c0.6,0,1.2,0.2,1.6,0.7c0.3,0.4,0.5,0.8,0.5,1.2c0,0.4-0.1,0.8-0.3,1.2
					c-0.1,0.2-0.2,0.4-0.2,0.6c0,0.8,0.9,1.3,2.8,1.3c0.9,0,1.6-0.2,2.1-0.6c0.5-0.4,0.7-0.8,0.7-1.4c0-0.7-0.4-1.3-1.1-1.8
					c-0.4-0.3-1.3-0.8-2.7-1.5c-1.4-0.6-2.3-1.2-2.9-1.7c-0.9-0.9-1.4-2-1.4-3.3c0-2.2,1.1-3.8,3.4-4.7c1.2-0.4,2.6-0.7,4.2-0.7
					c3.9,0,5.9,1.3,5.9,3.9c0,0.5-0.2,1-0.6,1.4c-0.4,0.4-0.8,0.5-1.3,0.5c-0.7,0-1.3-0.3-1.8-0.9c-0.3-0.3-0.4-0.6-0.4-0.8
					c0-0.2,0.1-0.4,0.3-0.7c0.2-0.3,0.3-0.5,0.3-0.6c0-0.2-0.1-0.4-0.3-0.5c-0.5-0.4-1.1-0.6-1.6-0.6c-0.5,0-1,0.2-1.4,0.5
					c-0.4,0.3-0.6,0.7-0.6,1.2c0,0.6,0.3,1.1,0.9,1.5c0.4,0.3,1.5,0.8,3.2,1.4C137.6,672.8,138.9,674.4,138.9,676.6z"/>
			</g>
		</g>
	</g>
	<g>
		<polygon fill="#DFC423" points="23.7,652.7 22.3,650.3 23.7,647.9 25.1,650.3 		"/>
		<polygon fill="#DFC423" points="41.2,652.7 39.8,650.3 41.2,647.9 42.7,650.3 		"/>
		<polygon fill="#DFC423" points="53.6,652.7 52.2,650.3 53.6,647.9 55,650.3 		"/>
		<polygon fill="#DFC423" points="85,676.6 83.6,674.2 85,671.8 86.4,674.2 		"/>
		<polygon fill="#DFC423" points="102.5,676.6 101.1,674.2 102.5,671.8 103.9,674.2 		"/>
		<polygon fill="#DFC423" points="114.9,676.6 113.5,674.2 114.9,671.8 116.3,674.2 		"/>
		<polygon fill="#DFC423" points="94.4,652.7 93,650.3 94.4,647.9 95.9,650.3 		"/>
		<polygon fill="#DFC423" points="106.8,652.7 105.4,650.3 106.8,647.9 108.3,650.3 		"/>
		<polygon fill="#DFC423" points="126.7,651.7 124,651.4 122.9,648.9 125.7,649.2 		"/>
		<polygon fill="#DFC423" points="134.3,675.6 131.5,675.3 130.5,672.7 133.2,673 		"/>
		<polygon fill="#DFC423" points="40.5,676.5 38.5,674.5 39.3,671.8 41.3,673.8 		"/>
		<polygon fill="#DFC423" points="62.7,676.1 60.1,675 60,672.2 62.5,673.3 		"/>
		<polygon fill="#DFC423" points="68.6,652.7 67.1,650.3 68.6,647.9 70,650.3 		"/>
		<polygon fill="#DFC423" points="80.2,652.7 78.7,650.3 80.2,647.9 81.6,650.3 		"/>
		<polygon fill="#CCAE30" points="131.5,675.3 132.4,674.2 134.3,675.6 		"/>
		<polygon fill="#E9CA27" points="130.5,672.7 132.4,674.2 133.2,673 		"/>
		<polygon fill="#CCAE30" points="124,651.4 124.8,650.3 126.7,651.7 		"/>
		<polygon fill="#E9CA27" points="122.9,648.9 124.8,650.3 125.7,649.2 		"/>
		<polygon fill="#E9CA27" points="114.9,671.8 114.9,674.2 116.3,674.2 		"/>
		<polygon fill="#CCAE30" points="113.5,674.2 114.9,676.6 114.9,674.2 		"/>
		<polygon fill="#E9CA27" points="102.5,671.8 102.5,674.2 103.9,674.2 		"/>
		<polygon fill="#CCAE30" points="101.1,674.2 102.5,676.6 102.5,674.2 		"/>
		<polygon fill="#E9CA27" points="85,671.8 85,674.2 86.4,674.2 		"/>
		<polygon fill="#CCAE30" points="83.6,674.2 85,676.6 85,674.2 		"/>
		<polygon fill="#E9CA27" points="80.2,647.9 80.2,650.3 81.6,650.3 		"/>
		<polygon fill="#CCAE30" points="78.7,650.3 80.2,652.7 80.2,650.3 		"/>
		<polygon fill="#E9CA27" points="68.6,647.9 68.6,650.3 70,650.3 		"/>
		<polygon fill="#CCAE30" points="67.1,650.3 68.6,652.7 68.6,650.3 		"/>
		<polygon fill="#E9CA27" points="53.6,647.9 53.6,650.3 55,650.3 		"/>
		<polygon fill="#CCAE30" points="52.2,650.3 53.6,652.7 53.6,650.3 		"/>
		<polygon fill="#E9CA27" points="41.2,647.9 41.2,650.3 42.7,650.3 		"/>
		<polygon fill="#CCAE30" points="39.8,650.3 41.2,652.7 41.2,650.3 		"/>
		<polygon fill="#E9CA27" points="23.7,647.9 23.7,650.3 25.1,650.3 		"/>
		<polygon fill="#CCAE30" points="22.3,650.3 23.7,652.7 23.7,650.3 		"/>
		<polygon fill="#E9CA27" points="94.4,647.9 94.4,650.3 95.9,650.3 		"/>
		<polygon fill="#CCAE30" points="93,650.3 94.4,652.7 94.4,650.3 		"/>
		<polygon fill="#E9CA27" points="106.8,647.9 106.8,650.3 108.3,650.3 		"/>
		<polygon fill="#CCAE30" points="105.4,650.3 106.8,652.7 106.8,650.3 		"/>
		<polygon fill="#E9CA27" points="39.3,671.8 39.9,674.2 41.3,673.8 		"/>
		<polygon fill="#CCAE30" points="38.5,674.5 40.5,676.5 39.9,674.2 		"/>
		<polygon fill="#CCAE30" points="60.1,675 61.3,674.2 62.7,676.1 		"/>
		<polygon fill="#E9CA27" points="60,672.2 61.3,674.2 62.5,673.3 		"/>
		<polygon fill="#DFC423" points="20,675.6 17.2,675.3 16.1,672.7 18.9,673 		"/>
		<polygon fill="#CCAE30" points="17.2,675.3 18,674.2 20,675.6 		"/>
		<polygon fill="#E9CA27" points="16.1,672.7 18,674.2 18.9,673 		"/>
	</g>
	<g>
		<path fill="#C14B28" d="M106.5,654.3l-0.8-1.3c0,2.9-1.8,4-1.8,4s2.4-0.7,3.6-3.3L106.5,654.3z"/>
		<path fill="#C14B28" d="M95.1,654.3l0.8-1.3c0,2.9,1.8,4,1.8,4s-2.4-0.7-3.6-3.3L95.1,654.3z"/>
		<path fill="#C14B28" d="M106.5,646.3l-0.8,1.3c0-2.9-1.8-4-1.8-4s2.4,0.7,3.6,3.3L106.5,646.3z"/>
		<path fill="#C14B28" d="M79.8,654.3l-0.9-1.3c0,2.9-2.3,4-2.3,4s3.4-0.4,4.7-3.4L79.8,654.3z"/>
		<path fill="#C14B28" d="M79.8,646.3l-0.9,1.1c-0.1-2.5-2.1-3.8-2.1-3.8s3.2,0.2,4.4,3.4L79.8,646.3z"/>
		<path fill="#C14B28" d="M95.1,646.3l0.8,1.3c0-2.9,1.8-4,1.8-4s-2.4,0.7-3.6,3.3L95.1,646.3z"/>
		<path fill="#C14B28" d="M53.1,654.3l-0.8-1.3c0,2.9-1.8,4-1.8,4s2.4-0.7,3.6-3.3L53.1,654.3z"/>
		<path fill="#C14B28" d="M41.6,654.3l0.8-1.3c0,2.9,1.8,4,1.8,4s-2.4-0.7-3.6-3.3L41.6,654.3z"/>
		<path fill="#C14B28" d="M53.1,646.3l-0.8,1.3c0-2.9-1.8-4-1.8-4s2.4,0.7,3.6,3.3L53.1,646.3z"/>
		<path fill="#C14B28" d="M41.6,646.3l0.8,1.3c0-2.9,1.8-4,1.8-4s-2.4,0.7-3.6,3.3L41.6,646.3z"/>
		<path fill="#C14B28" d="M114.4,678.1l-0.8-1.3c0,2.9-1.8,4-1.8,4s2.4-0.7,3.6-3.3L114.4,678.1z"/>
		<path fill="#C14B28" d="M135.7,676.8l-2,0c2.4,1.3,0.9,3.8,0.9,3.8s4.2-2.9,0.8-5.5L135.7,676.8z"/>
		<path fill="#C14B28" d="M128.5,671.7l2-0.1c-2.4-1.1-1.1-3.7-1.1-3.7s-4.4,2.3-0.5,5.5L128.5,671.7z"/>
		<path fill="#C14B28" d="M21.3,676.8l-2,0c2.4,1.3,0.9,3.8,0.9,3.8s4.2-2.9,0.8-5.5L21.3,676.8z"/>
		<path fill="#C14B28" d="M14.2,671.7l2-0.1c-2.4-1.1-1.1-3.7-1.1-3.7s-4.4,2.3-0.5,5.5L14.2,671.7z"/>
		<path fill="#C14B28" d="M102.9,678.1l0.8-1.3c0,2.9,1.8,4,1.8,4s-2.4-0.7-3.6-3.3L102.9,678.1z"/>
		<path fill="#C14B28" d="M114.4,670.2l-0.8,1.3c0-2.9-1.8-4-1.8-4s2.4,0.7,3.6,3.3L114.4,670.2z"/>
		<path fill="#C14B28" d="M102.9,670.2l0.8,1.3c0-2.9,1.8-4,1.8-4s-2.4,0.7-3.6,3.3L102.9,670.2z"/>
		<path fill="#C14B28" d="M22.3,652.3l0.5,2.3l-0.6,1.3c0.8,0,1.5-0.9,1.5-0.9s0.8,0.9,1.5,0.9l-0.5-1.3l0.5-2.1l-1.6,1.7
			L22.3,652.3z"/>
		<path fill="#C14B28" d="M25.3,648.3l-0.7-2.5l0.7-1.8c-0.8,0-1.5,0.9-1.5,0.9S23,644,22.3,644l0.7,1.8l-0.7,2.6l1.6-2.2
			L25.3,648.3z"/>
		<path fill="#C14B28" d="M67.1,652.3l0.5,2.3l-0.6,1.3c0.8,0,1.5-0.9,1.5-0.9s0.8,0.9,1.5,0.9l-0.5-1.3l0.5-2.1l-1.6,1.7
			L67.1,652.3z"/>
		<path fill="#C14B28" d="M70.1,648.3l-0.7-2.5l0.7-1.8c-0.8,0-1.5,0.9-1.5,0.9s-0.8-0.9-1.5-0.9l0.7,1.8l-0.7,2.6l1.6-2.2
			L70.1,648.3z"/>
		<path fill="#C14B28" d="M83.6,676.2l0.5,2.3l-0.6,1.3c0.8,0,1.5-0.9,1.5-0.9s0.8,0.9,1.5,0.9l-0.5-1.3l0.5-2.1l-1.6,1.7
			L83.6,676.2z"/>
		<path fill="#C14B28" d="M86.6,672.2l-0.7-2.5l0.7-1.8c-0.8,0-1.5,0.9-1.5,0.9s-0.8-0.9-1.5-0.9l0.7,1.8l-0.7,2.6l1.6-2.2
			L86.6,672.2z"/>
		<path fill="#C14B28" d="M128,652.9l-2,0c2.4,1.3,0.9,3.8,0.9,3.8s4.2-2.9,0.8-5.5L128,652.9z"/>
		<path fill="#C14B28" d="M120.9,647.8l2-0.1c-2.4-1.1-1.1-3.7-1.1-3.7s-4.4,2.3-0.5,5.5L120.9,647.8z"/>
		<polygon fill="#C14B28" points="62.1,676.9 64.8,679.5 65.3,679.3 63.6,675.3 63.4,677.1 		"/>
		<polygon fill="#C14B28" points="60.7,671.5 57.6,668.7 57.2,669 59.3,673 59.1,671.2 		"/>
		<polygon fill="#C14B28" points="40,676.8 41,678.8 42.1,679.5 42.4,678.3 41.9,675.7 41.2,677.3 		"/>
		<polygon fill="#C14B28" points="40.5,671.4 39.3,669.4 38.1,668.5 37.6,670.2 38.3,672.4 39,670.6 		"/>
	</g>
	<g>
		<path fill="#F39567" d="M67.1,666.9c-0.7,0-0.6,1,0,1S67.8,666.9,67.1,666.9z"/>
		<path fill="#F39567" d="M67.1,680.1c-0.7,0-0.6,1,0,1S67.8,680.1,67.1,680.1z"/>
		<path fill="#F39567" d="M55.5,673.6c-0.7,0-0.6,1,0,1S56.2,673.6,55.5,673.6z"/>
		<path fill="#F39567" d="M55.5,680.3c-0.7,0-0.6,1,0,1S56.2,680.3,55.5,680.3z"/>
		<path fill="#F39567" d="M44.2,680.3c-0.7,0-0.6,1,0,1C44.9,681.3,44.9,680.3,44.2,680.3z"/>
		<path fill="#F39567" d="M40.3,666.9c-0.7,0-0.6,1,0,1S41.1,666.9,40.3,666.9z"/>
		<path fill="#F39567" d="M38.5,649.8c-0.7,0-0.6,1,0,1S39.3,649.8,38.5,649.8z"/>
		<path fill="#F39567" d="M56.3,649.8c-0.7,0-0.6,1,0,1S57,649.8,56.3,649.8z"/>
		<path fill="#F39567" d="M51,649.8c-0.7,0-0.6,1,0,1S51.7,649.8,51,649.8z"/>
		<path fill="#F39567" d="M43.9,649.8c-0.7,0-0.6,1,0,1C44.6,650.8,44.7,649.8,43.9,649.8z"/>
		<path fill="#F39567" d="M91.9,649.8c-0.7,0-0.6,1,0,1S92.7,649.8,91.9,649.8z"/>
		<path fill="#F39567" d="M77.3,649.8c-0.7,0-0.6,1,0,1S78.1,649.8,77.3,649.8z"/>
		<path fill="#F39567" d="M83,649.8c-0.7,0-0.6,1,0,1S83.8,649.8,83,649.8z"/>
		<path fill="#F39567" d="M109.7,649.8c-0.7,0-0.6,1,0,1S110.4,649.8,109.7,649.8z"/>
		<path fill="#F39567" d="M104.4,649.8c-0.7,0-0.6,1,0,1S105.1,649.8,104.4,649.8z"/>
		<path fill="#F39567" d="M97.3,649.8c-0.7,0-0.6,1,0,1S98.1,649.8,97.3,649.8z"/>
		<path fill="#F39567" d="M99.8,673.7c-0.7,0-0.6,1,0,1S100.5,673.7,99.8,673.7z"/>
		<path fill="#F39567" d="M117.5,673.7c-0.7,0-0.6,1,0,1S118.3,673.7,117.5,673.7z"/>
		<path fill="#F39567" d="M112.2,673.7c-0.7,0-0.6,1,0,1S113,673.7,112.2,673.7z"/>
		<path fill="#F39567" d="M105.2,673.7c-0.7,0-0.6,1,0,1S105.9,673.7,105.2,673.7z"/>
		<path fill="#F39567" d="M39.6,680.3c-0.7,0-0.6,1,0,1S40.3,680.3,39.6,680.3z"/>
		<path fill="#F39567" d="M35.7,666.9c-0.7,0-0.6,1,0,1S36.4,666.9,35.7,666.9z"/>
		<path fill="#F39567" d="M32.7,680.3c-0.7,0-0.6,1,0,1S33.4,680.3,32.7,680.3z"/>
		<path fill="#F39567" d="M22.3,669.1c-0.7,0-0.6,1,0,1S23,669.1,22.3,669.1z"/>
		<path fill="#F39567" d="M16.7,642.9c-0.7,0-0.6,1,0,1S17.4,642.9,16.7,642.9z"/>
		<path fill="#F39567" d="M30.7,642.9c-0.7,0-0.6,1,0,1S31.4,642.9,30.7,642.9z"/>
		<path fill="#F39567" d="M26.3,656.5c-0.7,0-0.6,1,0,1C27,657.5,27.1,656.5,26.3,656.5z"/>
		<path fill="#F39567" d="M66.6,656.5c-0.7,0-0.6,1,0,1S67.3,656.5,66.6,656.5z"/>
		<path fill="#F39567" d="M66.6,642.9c-0.7,0-0.6,1,0,1S67.3,642.9,66.6,642.9z"/>
		<path fill="#F39567" d="M21.4,656.5c-0.7,0-0.6,1,0,1S22.2,656.5,21.4,656.5z"/>
		<path fill="#F39567" d="M77.9,666.9c-0.7,0-0.6,1,0,1C78.5,667.9,78.6,666.9,77.9,666.9z"/>
		<path fill="#F39567" d="M91.9,666.9c-0.7,0-0.6,1,0,1S92.6,666.9,91.9,666.9z"/>
		<path fill="#F39567" d="M87.5,680.5c-0.7,0-0.6,1,0,1S88.3,680.5,87.5,680.5z"/>
		<path fill="#F39567" d="M82.6,680.5c-0.7,0-0.6,1,0,1S83.4,680.5,82.6,680.5z"/>
		<path fill="#F39567" d="M62.7,680.3c-0.7,0-0.6,1,0,1S63.4,680.3,62.7,680.3z"/>
		<path fill="#F39567" d="M60,666.9c-0.7,0-0.6,1,0,1S60.7,666.9,60,666.9z"/>
		<path fill="#F39567" d="M11.7,678c-0.7,0-0.6,1,0,1C12.3,679,12.4,678,11.7,678z"/>
		<path fill="#F39567" d="M136.4,669.1c-0.7,0-0.6,1,0,1C137,670.1,137.1,669.1,136.4,669.1z"/>
		<path fill="#F39567" d="M125.8,678c-0.7,0-0.6,1,0,1S126.5,678,125.8,678z"/>
		<path fill="#F39567" d="M128.8,645.3c-0.7,0-0.6,1,0,1C129.5,646.3,129.6,645.3,128.8,645.3z"/>
		<path fill="#F39567" d="M118.3,654.1c-0.7,0-0.6,1,0,1S119,654.1,118.3,654.1z"/>
		<path fill="#F39567" d="M67.1,673.6c-0.7,0-0.6,1,0,1S67.8,673.6,67.1,673.6z"/>
		<path fill="#F39567" d="M55.5,666.9c-0.7,0-0.6,1,0,1S56.2,666.9,55.5,666.9z"/>
	</g>
	<line fill="none" stroke="#CD996D" stroke-miterlimit="10" x1="27.2" y1="691.7" x2="61.3" y2="691.7"/>
	<line fill="none" stroke="#CD996D" stroke-miterlimit="10" x1="86.7" y1="691.7" x2="118.9" y2="691.7"/>
	<g>
		<path fill="#3AA7DE" d="M65.8,688.5c1.2,0,1.9,0.5,1.9,1.5c0,0.8-0.4,1.2-1.1,1.4c0.9,0.2,1.2,0.7,1.2,1.6c0,1.2-0.8,1.9-2.2,1.9
			h-1.5v-6.4H65.8z M65.6,691.1c0.5,0,0.8-0.3,0.8-0.8c0-0.5-0.3-0.8-0.8-0.8h-0.3v1.6H65.6z M65.6,694c0.6,0,0.9-0.4,0.9-1
			c0-0.6-0.3-0.9-0.9-0.9h-0.3v1.9H65.6z"/>
		<path fill="#3AA7DE" d="M74.8,690.4c-0.1-0.6-0.2-1-0.5-1c-0.4,0-0.6,0.7-0.6,2.4c0,1.6,0.2,2.2,0.6,2.2c0.3,0,0.5-0.3,0.6-1.2
			l1.1,0.4c-0.1,1.1-0.8,1.8-1.7,1.8c-0.6,0-1.2-0.3-1.4-0.9c-0.3-0.6-0.4-1.2-0.4-2.4c0-1.1,0.1-1.8,0.3-2.3
			c0.2-0.7,0.9-1.1,1.6-1.1c0.7,0,1.2,0.3,1.4,0.9c0.1,0.2,0.2,0.5,0.2,0.8L74.8,690.4z"/>
		<path fill="#3AA7DE" d="M82.9,690.3c-0.1-0.6-0.3-0.8-0.6-0.8c-0.3,0-0.5,0.2-0.5,0.6s0.2,0.6,0.7,1l0.6,0.5c0.7,0.6,1,1.1,1,1.7
			c0,1.1-0.7,1.9-1.9,1.9c-1,0-1.6-0.6-1.8-1.6l1.2-0.3c0.1,0.5,0.3,0.8,0.7,0.8c0.3,0,0.6-0.3,0.6-0.6c0-0.3-0.2-0.6-0.7-1
			l-0.6-0.5c-0.2-0.2-0.4-0.4-0.6-0.7c-0.2-0.3-0.3-0.7-0.3-1.1c0-1.1,0.7-1.7,1.8-1.7c0.9,0,1.5,0.5,1.7,1.5L82.9,690.3z"/>
	</g>
</g>
<g>
	<path fill="#E1C51B" d="M97.4,318.7h30.8c1,0,1.7,1,1.4,1.9l-5.2,16.5c-0.2,0.6-0.8,1.1-1.4,1.1l-20,0c-0.6,0-1.2-0.4-1.4-1
		L96,320.7C95.7,319.7,96.4,318.7,97.4,318.7z"/>
	<path fill="#E9612C" d="M105.8,323.4l2.6,12.3c0,0.2,0.2,0.4,0.4,0.4h1.7c0.3,0,0.4-0.3,0.4-0.7l-2.5-12.3c0-0.2-0.2-0.4-0.4-0.4
		h-1.8C106,322.7,105.8,323,105.8,323.4z"/>
	<path fill="#E9612C" d="M119.8,323.4l-2.3,12.2c0,0.3-0.2,0.4-0.4,0.4h-1.3c-0.3,0-0.5-0.3-0.4-0.7l2-12.2c0-0.3,0.2-0.5,0.4-0.5
		h1.7C119.7,322.7,119.9,323.1,119.8,323.4z"/>
	<path fill="#E9612C" d="M99.8,323.4l4.8,12.4c0.1,0.2,0.3,0.4,0.5,0.3l2.1,0c0.3,0,0.3-0.2,0.2-0.5l-4.9-12.6
		c-0.1-0.2-0.3-0.4-0.5-0.3l-1.9,0C99.8,322.8,99.7,323.1,99.8,323.4z"/>
	<path fill="#E9612C" d="M126.2,323.4l-4.8,12.4c-0.1,0.2-0.3,0.4-0.5,0.3l-2.1,0c-0.3,0-0.3-0.2-0.2-0.5l4.9-12.6
		c0.1-0.2,0.3-0.4,0.5-0.3l1.9,0C126.2,322.8,126.3,323.1,126.2,323.4z"/>
	<path fill="#E9612C" d="M111.7,335.6l0-12.3c0-0.3,0.2-0.6,0.4-0.6h1.7c0.2,0,0.4,0.3,0.4,0.6v12.4c0,0.3-0.2,0.6-0.4,0.6l-1.7,0
		C111.9,336.2,111.7,335.9,111.7,335.6z"/>
	<g>
		<path fill="#FBFFEB" d="M122.5,320c1.8-0.2,2.3,2.5,0.3,2.7C120.7,322.9,120.5,320.2,122.5,320z"/>
		<path fill="#FBFFEB" d="M103.9,320c1.8-0.2,2.3,2.5,0.3,2.7C102.1,322.9,101.9,320.2,103.9,320z"/>
		<path fill="#FBFFEB" d="M103.7,320.3l6.7-12.8c0.1-0.3,0.5-0.3,0.7-0.2l0.5,0.3c0.2,0.1,0.3,0.4,0.2,0.7l-7.2,13.4l-0.8-0.8
			C103.7,320.8,103.6,320.5,103.7,320.3z"/>
		<path fill="#FBFFEB" d="M123,320.3l-6.7-12.8c-0.1-0.3-0.5-0.3-0.7-0.2l-0.5,0.3c-0.2,0.1-0.3,0.4-0.2,0.7l7.2,13.4l0.8-0.8
			C123.1,320.8,123.1,320.5,123,320.3z"/>
	</g>
</g>
</svg>
