<?xml version="1.0" encoding="utf-8"?>
<!-- Generator: Adobe Illustrator 19.2.1, SVG Export Plug-In . SVG Version: 6.00 Build 0)  -->
<svg version="1.1" id="Layer_1" xmlns="http://www.w3.org/2000/svg" xmlns:xlink="http://www.w3.org/1999/xlink" x="0px" y="0px"
	 width="293.8px" height="468.2px" viewBox="0 0 293.8 468.2" style="enable-background:new 0 0 293.8 468.2;" xml:space="preserve"
	>
<style type="text/css">
	.st0{fill:#1EABF0;}
	.st1{fill:#EDDDAF;}
	.st2{fill:none;stroke:#FBFFEB;stroke-width:4;stroke-linecap:round;stroke-miterlimit:10;}
	.st3{fill:none;stroke:#EB622F;stroke-linecap:round;stroke-linejoin:round;stroke-miterlimit:10;stroke-dasharray:3,6;}
	.st4{fill:#E9612C;}
	.st5{fill:#9AD9ED;}
	.st6{fill:#FBFFEB;}
	.st7{fill:#1FCEAC;}
	.st8{fill:#A7A292;}
	.st9{fill:none;stroke:#A7A292;stroke-width:0.5;stroke-miterlimit:10;}
	.st10{fill:#C14C27;}
	.st11{fill:#DFC423;}
	.st12{fill:#CCAE30;}
	.st13{fill:#E9CA27;}
	.st14{fill:#C14B28;}
	.st15{fill:#F39567;}
	.st16{fill:none;stroke:#CD996D;stroke-width:0.7206;stroke-miterlimit:10;}
	.st17{fill:#3AA7DE;}
</style>
<rect class="st0" width="293.8" height="468.2"/>
<path class="st1" d="M273.6,285.9c1.8-4.9,2.8-12.1-0.8-17c-3.6-4.9-9.9-12.9-9.9-16.8c0-3.9-6.7-13-9.6-15.6
	c-2.1-1.8-11.1-3.6-15-6c-3.9-2.4-29.8-13-31.4-16.9c-1.6-3.9,1.3-8.8-0.3-13.7c-1.6-4.9-5.4-9.3-3.9-15c1.6-5.7,3.9-6.7,3.6-10.4
	c-0.3-3.6-13-18.1-19.2-21.8c-6.2-3.6-14.9-10-16.6-20.5c-2.1-13.1,8.5-14.7,8.2-19.9c-0.3-5.2-4.8-4.5-5.6-6
	c-0.8-1.6,1.6-4.1-1.2-5.4c-2.9-1.3-12.5,12.9-25.8,9c-13.2-3.9-13.2,2.6-14.3-5.2c-1.1-7.8-1.6-30.1-7.5-34.2
	c-6-4.1-30.3-22.3-33.4-22.6c-3.1-0.3-4.7,2.9-7-0.8c-2.3-3.6-1.3-9.3-4.9-11.7c-3.6-2.3-10.4-4.4-10.9-7.3
	c-0.5-2.9,2.3-5.2,0.3-7.3c-2.1-2.1-28.3-10.1-27.3,8.3c1,18.9,14.7,23.9,9.6,36c-5.1,12.1-12.2,11.4-10.9,15.6
	c2,6.7-11.6,11.4-17.8,7.8s-6.5-18.4-3.5-18.4s9.2,0.3,13.8,4.9c0.7,0.7,9.2,0.8,11.5-5.7c0,0-24.9,0.1-43.8-4.8v153.3
	c14.1,6.7,27.6,12.9,38.9,21.5c17.6,13.4,15,20.9,18.1,23.8c3.1,2.9,8,10.1,9.6,13.2c1.6,3.1,0.8,6.7,3.4,10.4
	c2.6,3.6,7.8,15.3,11.1,19.7c3.4,4.4,5.2,6.5,6,14.5c0.8,8,6.5,38.1,10.1,46.1s3.4,9.1,3.9,15c0.5,6,9.5,46.8,37.3,53.7
	c17.8,4.4,11.9-6.5,17.4-6.5s21.8-5.4,23.1-10.6s3.1-8.3,6.7-9.9c3.6-1.6,15.6-6.2,16.6-9.9c1-3.6,1.3-11.4,8.8-14.3
	c7.5-2.9,51.6-5.2,62.5-48.5c0,0-0.2-11.5,0.4-14.3C280.2,287.7,271.9,290.4,273.6,285.9z"/>
<path class="st1" d="M147.4,12.8c0,0-2.9,11.8-2.2,13.8s5.2,8,5.2,11.1s-0.7,12.4,3.1,20s7.4,12,7.9,14.4c0.3,1.4,1.1,4.6,7.3,4.9
	s9.7,4.2,12.1,3.1c0.8-0.4-1.3-6.3-1.3-9.4s-1.8-10.3-4.9-14.1c-3.1-3.8-12.8-14.5-12.8-16.9s0.7-6.2-2.8-10.4s-8-5.5-8.6-9
	C149.6,16.9,150.3,13.1,147.4,12.8z"/>
<path class="st2" d="M202.6,353.7c0,0-6.2-2.3-6.7,0s0,25.1-1.3,26.4s-4.1,8-6,8.6s-11.4,3.4-12.7,4.9s-12.4,13.7-14.5,13.7
	s-13.6-0.2-16.6,0c-1.4,0.1-10.7,3.1-14.2,3.1c-3.8,0-22.1-14.2-22.1-16.6s-0.3-5.2-1.8-7.3c-1.6-2.1-3.9-14.5-4.4-17.4
	s-4.7-6-4.7-7.8s-2.1-9.3-2.9-11.7s1.6-8,0-10.9s-4.7-7.3-4.7-9.9s0.3-6.2,0-10.6s-2.6-7.3-2.6-10.6c0-3.4-1-9.9-5.4-14.8
	s-11.7-18.9-11.7-18.9l-1.5-1.8c0,0-3.1-8.2-8.5-22.2S49.8,204,49.8,204s-0.9-4.7-1.2-12.9s-6.4-20.7-7-28.1s1.4-29.3,7-38.4
	s5.5-27.2,5.5-27.2"/>
<path class="st3" d="M202.6,353.7c0,0-6.2-2.3-6.7,0s0,25.1-1.3,26.4s-4.1,8-6,8.6s-11.4,3.4-12.7,4.9s-12.4,13.7-14.5,13.7
	s-13.6-0.2-16.6,0c-1.4,0.1-9.6,3.1-13.1,3.1c-3.8,0-23.2-14.2-23.2-16.6s-0.3-5.2-1.8-7.3c-1.6-2.1-3.9-14.5-4.4-17.4
	s-4.7-6-4.7-7.8s-2.1-9.3-2.9-11.7s1.6-8,0-10.9s-4.7-7.3-4.7-9.9s0.3-6.2,0-10.6s-2.6-7.3-2.6-10.6c0-3.4-1-9.9-5.4-14.8
	s-11.7-18.9-11.7-18.9"/>
<g>
	<path class="st4" d="M232.7,296.7c29.1,16.7,4.9,54.8-22.4,39.1C183,320.1,207.4,282.1,232.7,296.7z"/>
	<polygon class="st4" points="207.6,326.2 220.2,333.5 202.7,349 	"/>
</g>
<g>
	<g>
		<g>
			<g>
				<path class="st5" d="M11.6,369.6v1.7H9.3v2.4h2.3v1.6H9.3v2.8h2.3v1.7H7.3v-10.2L11.6,369.6L11.6,369.6z"/>
				<path class="st5" d="M16.8,369.6v8.6h2.3v1.7h-4.3v-10.2L16.8,369.6L16.8,369.6z"/>
				<path class="st5" d="M30,369.6c2.1,0,3.1,1.2,3.1,3.4s-1.1,3.4-3.1,3.4h-0.2v3.3h-2v-10.2H30z M29.7,374.8
					c0.5,0,0.6-0.1,0.8-0.3c0.3-0.3,0.5-0.8,0.5-1.6c0-1.4-0.4-1.8-1.3-1.8V374.8z"/>
				<path class="st5" d="M37.3,378.2l-0.3,1.6h-2l2.3-10.3h2.2l2.2,10.3h-2.1l-0.3-1.6H37.3z M38.3,372l-0.8,4.7h1.5L38.3,372z"/>
				<path class="st5" d="M47.7,372.5c-0.1-1-0.4-1.5-0.8-1.5c-0.7,0-1,1.1-1,3.9c0,2.5,0.3,3.5,0.9,3.5c0.5,0,0.7-0.5,0.9-1.9
					l1.7,0.6c-0.2,1.8-1.3,2.9-2.7,2.9c-1,0-1.9-0.5-2.2-1.4c-0.5-0.9-0.5-1.9-0.5-3.8c0-1.8,0.1-2.9,0.4-3.7
					c0.4-1.1,1.4-1.8,2.5-1.8c1.1,0,1.9,0.5,2.2,1.4c0.2,0.4,0.3,0.7,0.3,1.3L47.7,372.5z"/>
				<path class="st5" d="M54.2,372.2v7.6h-1.9v-7.6H54.2z M55.6,369.6l-1.8,1.9h-1.2l1-1.9H55.6z"/>
				<path class="st5" d="M62,369.6v1.7h-2.4v2.4H62v1.6h-2.4v4.4h-2v-10.2H62z"/>
				<path class="st5" d="M67.1,379.8h-2v-10.2h2V379.8z"/>
				<path class="st5" d="M74,372.5c-0.1-1-0.4-1.5-0.8-1.5c-0.7,0-1,1.1-1,3.9c0,2.5,0.3,3.5,0.9,3.5c0.5,0,0.7-0.5,0.9-1.9l1.7,0.6
					c-0.2,1.8-1.3,2.9-2.7,2.9c-1,0-1.9-0.5-2.2-1.4c-0.4-0.9-0.5-1.9-0.5-3.8c0-1.8,0.1-2.9,0.5-3.7c0.4-1.1,1.3-1.8,2.5-1.8
					c1.1,0,1.9,0.5,2.2,1.4c0.2,0.4,0.3,0.7,0.3,1.3L74,372.5z"/>
				<path class="st5" d="M83.4,370.2c0.7,1,1,2.2,1,4.5c0,2.2-0.3,3.3-1,4.3c-0.5,0.6-1.2,1-2.1,1s-1.7-0.4-2.1-1
					c-0.7-1-1-2.2-1-4.4s0.3-3.4,1-4.4c0.4-0.6,1.2-1,2.1-1C82.3,369.3,83,369.6,83.4,370.2z M80.3,374.6c0,2.8,0.3,3.6,1.1,3.6
					c0.8,0,1-0.9,1-3.6c0-2.9-0.3-3.7-1.1-3.7C80.6,371,80.3,371.9,80.3,374.6z"/>
			</g>
		</g>
	</g>
</g>
<g>
	<g>
		<g>
			<g>
				<path class="st5" d="M215.3,96.9l1.6,6.5l1.6-6.5h2.2v10.2h-1.8v-6.2l-1.3,5H216l-1.3-5v6.2H213V96.9H215.3z"/>
				<path class="st5" d="M225.8,105.6l-0.3,1.6h-2l2.3-10.3h2.2l2.2,10.3h-2.1l-0.3-1.6H225.8z M226.9,99.3l-0.8,4.7h1.5L226.9,99.3
					z"/>
				<path class="st5" d="M235.6,96.9c2.2,0,3.3,1,3.3,3c0,1.3-0.6,2.2-1.7,2.5l1.9,4.7h-2.2l-1.8-4.7v4.7h-2V96.9H235.6z
					 M235.4,101.4c0.9,0,1.3-0.4,1.3-1.3s-0.4-1.3-1.3-1.3H235v2.7H235.4z"/>
				<path class="st5" d="M249.6,96.9c1.3,0,2.2,0.4,2.7,1.2c0.6,0.9,0.9,2.1,0.9,3.8c0,3.5-1.1,5.2-3.3,5.2h-2.5V96.9H249.6z
					 M249.5,105.6c0.4,0,0.9-0.2,1.1-0.5c0.4-0.5,0.5-1.4,0.5-3.1c0-1.8-0.2-2.7-0.5-3.1c-0.3-0.3-0.6-0.5-1.1-0.5h-0.2v7
					L249.5,105.6L249.5,105.6z"/>
				<path class="st5" d="M260.4,96.9v1.7h-2.3v2.4h2.3v1.6h-2.3v2.8h2.3v1.7h-4.3V96.9H260.4z"/>
				<path class="st5" d="M216.6,118.3c-0.1-1-0.4-1.5-0.8-1.5c-0.7,0-1,1.1-1,3.9c0,2.5,0.3,3.5,0.9,3.5c0.5,0,0.7-0.5,0.9-1.9
					l1.7,0.6c-0.2,1.8-1.3,2.9-2.7,2.9c-1,0-1.9-0.5-2.2-1.4c-0.4-0.9-0.5-1.9-0.5-3.8c0-1.8,0.1-2.9,0.4-3.7
					c0.4-1.1,1.4-1.8,2.5-1.8c1.1,0,1.9,0.5,2.2,1.4c0.2,0.4,0.3,0.7,0.3,1.3L216.6,118.3z"/>
				<path class="st5" d="M226,116c0.7,1,1,2.2,1,4.5c0,2.2-0.3,3.3-1,4.3c-0.4,0.6-1.2,1-2.1,1c-0.9,0-1.7-0.4-2.1-1
					c-0.7-1-1-2.2-1-4.4s0.3-3.4,1-4.4c0.4-0.6,1.2-1,2.1-1C224.9,115.1,225.6,115.4,226,116z M222.9,120.4c0,2.8,0.3,3.6,1.1,3.6
					c0.8,0,1-0.9,1-3.6c0-2.9-0.3-3.7-1.1-3.7C223.1,116.8,222.9,117.7,222.9,120.4z"/>
				<path class="st5" d="M232.6,115.3c2.2,0,3.3,1,3.3,3c0,1.3-0.6,2.2-1.7,2.5l1.9,4.7h-2.2l-1.8-4.7v4.7h-2v-10.2H232.6z
					 M232.4,119.7c0.9,0,1.4-0.4,1.4-1.3s-0.4-1.3-1.4-1.3h-0.4v2.7H232.4z"/>
				<path class="st5" d="M243.6,117H242v8.5h-2V117h-1.6v-1.7h5.1L243.6,117L243.6,117z"/>
				<path class="st5" d="M250.7,115.3v1.7h-2.3v2.4h2.3v1.6h-2.3v2.8h2.3v1.7h-4.3v-10.2L250.7,115.3L250.7,115.3z"/>
				<path class="st5" d="M258.8,115.3l-2.9,8.5h2.5v1.6h-5l2.9-8.5h-2.7v-1.6H258.8z"/>
			</g>
		</g>
	</g>
</g>
<g>
	<path class="st6" d="M156.9,419.5c-0.2-1.4-0.5-2.1-1.1-2.1c-1,0-1.3,1.5-1.3,5.3c0,3.5,0.3,4.8,1.2,4.8c0.7,0,1-0.7,1.2-2.5
		l2.4,0.9c-0.3,2.4-1.7,3.9-3.7,3.9c-1.4,0-2.5-0.7-3.1-1.9c-0.6-1.3-0.8-2.6-0.8-5.1c0-2.4,0.2-3.9,0.6-5.1
		c0.5-1.5,1.9-2.5,3.5-2.5c1.4,0,2.6,0.7,3.1,2c0.2,0.5,0.3,1,0.4,1.8L156.9,419.5z"/>
	<path class="st6" d="M163.4,427.2l-0.4,2.1h-2.7l3.1-14h3l3,14h-2.9l-0.4-2.1H163.4z M164.9,418.6l-1.1,6.3h2.1L164.9,418.6z"/>
	<path class="st6" d="M174.8,415.4c2.6,0,4.1,1.2,4.1,3.4c0,1.7-0.8,2.7-2.5,3c1.9,0.5,2.7,1.5,2.7,3.5c0,2.6-1.6,4-4.7,4h-3.3
		v-13.9H174.8z M174.4,421c1,0,1.8-0.7,1.8-1.8c0-1-0.7-1.7-1.8-1.7h-0.6v3.5H174.4z M174.4,427.2c1.2,0,1.9-0.8,1.9-2.1
		c0-1.3-0.7-2-1.9-2h-0.6v4.1H174.4z"/>
	<path class="st6" d="M187.7,416.4c1,1.3,1.3,2.9,1.3,6.1c0,2.9-0.4,4.6-1.3,5.9c-0.6,0.8-1.6,1.3-2.8,1.3s-2.3-0.5-2.9-1.3
		c-1-1.3-1.3-2.9-1.3-6c0-3,0.4-4.7,1.3-6c0.6-0.8,1.6-1.3,2.8-1.3C186.1,415.1,187.1,415.5,187.7,416.4z M183.5,422.4
		c0,3.8,0.3,4.9,1.4,4.9c1.1,0,1.4-1.2,1.4-4.9c0-3.9-0.3-5-1.4-5C183.8,417.4,183.5,418.6,183.5,422.4z"/>
	<path class="st6" d="M201,419.2c-0.1-1.2-0.6-1.8-1.3-1.8s-1.2,0.5-1.2,1.2s0.3,1.2,1.5,2.2l1.3,1.1c1.5,1.3,2.1,2.3,2.1,3.8
		c0,2.4-1.6,4-4,4c-2.1,0-3.5-1.3-3.9-3.5l2.5-0.6c0.2,1.2,0.7,1.8,1.5,1.8c0.7,0,1.2-0.6,1.2-1.3c0-0.7-0.4-1.3-1.5-2.2l-1.4-1.1
		c-0.5-0.4-0.9-0.9-1.4-1.5c-0.5-0.7-0.7-1.4-0.7-2.4c0-2.3,1.5-3.8,3.8-3.8c2,0,3.3,1.1,3.7,3.3L201,419.2z"/>
	<path class="st6" d="M207.6,427.2l-0.4,2.1h-2.7l3.1-14h3l3,14h-2.9l-0.4-2.1H207.6z M209.1,418.6l-1.1,6.3h2.1L209.1,418.6z"/>
	<path class="st6" d="M218.2,415.4l2.4,8.5v-8.5h2.5v13.9h-2.8l-2.5-7.9v7.9h-2.5v-13.9H218.2z"/>
	<path class="st6" d="M233.5,415.4V427h3.1v2.3h-5.9v-13.9H233.5z"/>
	<path class="st6" d="M246.2,415.4v10c0,1.5-0.2,2.3-0.9,3.1c-0.7,0.8-1.6,1.2-2.9,1.2c-1.2,0-2.2-0.4-2.9-1.2
		c-0.7-0.8-0.9-1.6-0.9-3.1v-10h2.7v10c0,0.8,0,1,0.2,1.3s0.6,0.6,1,0.6s0.8-0.2,0.9-0.6c0.1-0.2,0.2-0.5,0.2-1.3v-10H246.2z"/>
	<path class="st6" d="M253.4,419.5c-0.2-1.4-0.5-2.1-1.1-2.1c-1,0-1.3,1.5-1.3,5.3c0,3.5,0.3,4.8,1.2,4.8c0.7,0,1-0.7,1.2-2.5
		l2.4,0.9c-0.3,2.4-1.7,3.9-3.7,3.9c-1.4,0-2.5-0.7-3.1-1.9c-0.6-1.3-0.8-2.6-0.8-5.1c0-2.4,0.2-3.9,0.6-5.1
		c0.5-1.5,1.9-2.5,3.5-2.5c1.4,0,2.6,0.7,3.1,2c0.2,0.5,0.3,1,0.4,1.8L253.4,419.5z"/>
	<path class="st6" d="M259.9,427.2l-0.4,2.1h-2.7l3.1-14h3l3,14H263l-0.4-2.1H259.9z M261.4,418.6l-1.1,6.3h2.1L261.4,418.6z"/>
	<path class="st6" d="M272.4,419.2c-0.1-1.2-0.6-1.8-1.3-1.8c-0.7,0-1.2,0.5-1.2,1.2s0.3,1.2,1.5,2.2l1.3,1.1
		c1.5,1.3,2.1,2.3,2.1,3.8c0,2.4-1.6,4-4,4c-2.1,0-3.5-1.3-3.9-3.5l2.5-0.6c0.2,1.2,0.7,1.8,1.5,1.8c0.7,0,1.2-0.6,1.2-1.3
		c0-0.7-0.4-1.3-1.5-2.2l-1.4-1.1c-0.5-0.4-0.9-0.9-1.4-1.5c-0.5-0.7-0.7-1.4-0.7-2.4c0-2.3,1.5-3.8,3.8-3.8c2,0,3.3,1.1,3.7,3.3
		L272.4,419.2z"/>
</g>
<g>
	<path class="st6" d="M67.6,75.8v11.6h3.1v2.3h-5.9V75.8H67.6z"/>
	<path class="st6" d="M75.4,87.5L75,89.6h-2.7l3.1-14h3l3,14h-2.9l-0.4-2.1H75.4z M76.9,79l-1.1,6.3h2.1L76.9,79z"/>
	<path class="st6" d="M91.3,75.8c2.9,0,4.3,1.5,4.3,4.7c0,3.1-1.5,4.7-4.3,4.7H91v4.5h-2.7V75.8H91.3z M91,83c0.6,0,0.9-0.1,1.1-0.3
		c0.4-0.4,0.6-1.1,0.6-2.2c0-1.8-0.5-2.5-1.8-2.5v5H91z"/>
	<path class="st6" d="M99.2,87.5l-0.4,2.1h-2.7l3.1-14h3l3,14h-2.9l-0.4-2.1H99.2z M100.7,79l-1.1,6.3h2.1L100.7,79z"/>
	<path class="st6" d="M113.9,75.8L110,87.5h3.4v2.2h-6.9l3.8-11.7h-3.6v-2.2H113.9z"/>
</g>
<g>
	<path class="st7" d="M41.3,140.2c0,0,2.8,2.4,5.6,0l3,2.6c0,0-1.6,1.2-1.6,3.1c0,2.3,1.4,3.5,1.5,4.8c0,0.6-0.1,5.1-5.4,5.1
		c-0.7,0-1.9,0.2-3,1.2c0,0-0.9-0.9-2.1-1s-4.3-0.2-5.6-2.2s-0.9-3.8-0.5-4.4c0.4-0.6,1.1-2.1,1.1-3.2c0-1.7-1.6-3.4-1.6-3.4l3-2.6
		C35.6,140,37.5,142.4,41.3,140.2z"/>
	<g>
		<path class="st6" d="M38.2,147.6l-0.9,1l-0.9-0.9l2-2.1h1.4v7h-1.6V147.6z"/>
		<path class="st6" d="M41.5,150.8c0.2,0.3,0.4,0.5,0.8,0.5c0.5,0,1-0.7,1-1.9v-0.1c-0.2,0.5-0.6,0.8-1.2,0.8
			c-0.9,0-1.6-0.8-1.6-2.3c0-1.4,0.9-2.4,2.1-2.4c1.7,0,2.3,1.6,2.3,3.6c0,2.2-1,3.6-2.6,3.6c-0.6,0-1.2-0.3-1.6-0.7L41.5,150.8z
			 M42.7,146.8c-0.4,0-0.6,0.5-0.6,0.9c0,0.8,0.3,1,0.6,1s0.5-0.3,0.6-0.6C43.3,147.5,43.2,146.8,42.7,146.8z"/>
	</g>
</g>
<g>
	<path class="st7" d="M110.6,384.2c0,0,2.8,2.4,5.6,0l3,2.6c0,0-1.6,1.2-1.6,3.1c0,2.3,1.4,3.5,1.5,4.8c0,0.6-0.1,5.1-5.4,5.1
		c-0.7,0-1.9,0.2-3,1.2c0,0-0.9-0.9-2.1-1c-1.1-0.1-4.3-0.2-5.6-2.2c-1.3-2-0.9-3.8-0.5-4.4s1.1-2.1,1.1-3.2c0-1.7-1.6-3.4-1.6-3.4
		l3-2.6C104.9,384,106.8,386.5,110.6,384.2z"/>
	<g>
		<path class="st6" d="M107.5,391.6l-0.9,1l-0.9-0.9l2-2.1h1.4v7h-1.6V391.6z"/>
		<path class="st6" d="M110.8,394.8c0.2,0.3,0.4,0.5,0.8,0.5c0.5,0,1-0.7,1-1.9v-0.1c-0.2,0.5-0.6,0.8-1.2,0.8
			c-0.9,0-1.6-0.8-1.6-2.3c0-1.4,0.9-2.4,2.1-2.4c1.7,0,2.3,1.6,2.3,3.6c0,2.2-1,3.6-2.6,3.6c-0.6,0-1.2-0.3-1.6-0.7L110.8,394.8z
			 M112,390.9c-0.4,0-0.6,0.5-0.6,0.9c0,0.8,0.3,1,0.6,1c0.3,0,0.5-0.3,0.6-0.6C112.6,391.6,112.5,390.9,112,390.9z"/>
	</g>
</g>
<g>
	<path class="st8" d="M220.5,326.1l-5.1,3c-0.1,0.1-0.2,0.2-0.2,0.3v2.7c0,0.2,0.2,0.4,0.4,0.3l6.9-1.7l6.4,1.7
		c0.2,0,0.3-0.1,0.3-0.2l0.1-2.7c0-0.1-0.1-0.3-0.2-0.4l-4.4-3.1h-4.2V326.1z"/>
	<path class="st8" d="M230.9,315.1v-2.5c0,0-1.2-1.4-2.7,0v2.5H230.9z"/>
	<path class="st8" d="M217,315.1v-2.5c0,0-1.2-1.4-2.7,0l0.1,2.5H217z"/>
	<path class="st8" d="M234.6,317.1v-2.5c0,0-1.2-1.4-2.7,0v2.5H234.6z"/>
	<path class="st8" d="M213.2,317.1v-2.5c0,0-1.2-1.4-2.7,0v2.5H213.2z"/>
	<path class="st6" d="M222.8,297.6c6.2,0.2,2.9,34.9,0,34.9C219.5,332.5,217.4,297.4,222.8,297.6z"/>
	<path class="st6" d="M206.7,319c-0.1,0.4-0.1,1-0.1,1.4c0,0.3,0.3,0.6,0.6,0.5l12.3-1.9h6.3l11.2,1.9c0.4,0.1,0.7-0.2,0.7-0.6
		l-0.1-1.8c0-0.1-0.1-0.2-0.2-0.3l-14.7-8.6C222.7,309.7,206.9,318.4,206.7,319z"/>
	<path class="st9" d="M221.5,300.7c0,0,1.2-2.4,2.6,0"/>
</g>
<path class="st4" d="M139.8,416c9.2,0,7.2,12,0.9,12C134.4,428,131.2,416,139.8,416z"/>
<path class="st4" d="M72.1,263.8c-1.6,9.1-13.2,5-12-1.2C61.7,254.7,73.5,255.4,72.1,263.8z"/>
<path class="st4" d="M52.6,78.2c9.2,0,7.2,12,0.9,12S44.1,78.2,52.6,78.2z"/>
<path class="st6" d="M176.8,261.4H70.5c-1.7,0-3-1.4-3-3v-46.9c0-6.6,5.4-12,12-12h97.3c6.6,0,12,5.4,12,12v37.9
	C188.8,256,183.4,261.4,176.8,261.4z"/>
<g>
	<g>
		<g>
			<path class="st10" d="M92.6,211.3c-0.1,0.4-0.2,0.9-0.3,1.6c0,0.6,0,1.1,0,1.4c0,0.1-0.1,0.2-0.3,0.4c-0.2,0.1-0.4,0.1-0.6,0.1
				c-0.6,0-0.9-0.2-1.1-0.6c-0.1-0.5-0.3-1-0.4-1.5c-0.2-0.6-0.6-1-1.1-1.2c-0.1,0-0.1-0.1-0.3-0.1c-0.5,0-0.8,0.6-0.8,1.9v2.6
				c0,0.2,0.1,0.4,0.3,0.4c0.4,0.2,0.6,0.4,0.6,0.8c0,0.1,0,0.2-0.1,0.3c-0.1,0.2-0.3,0.4-0.6,0.5c-0.1,0.1-0.3,0.2-0.3,0.4v2.8
				c0,0.2,0.2,0.5,0.6,0.7c0.4,0.2,0.6,0.5,0.6,0.9s-0.2,0.6-0.6,0.9c-0.4,0.2-0.9,0.4-1.4,0.4c-0.9,0-1.4-0.2-1.8-0.7
				c-0.4,0.5-0.9,0.7-1.7,0.7c-0.5,0-1-0.1-1.4-0.4c-0.4-0.2-0.6-0.6-0.6-0.9c0-0.4,0.2-0.6,0.6-0.9c0.4-0.2,0.6-0.5,0.6-0.7v-2.8
				c0-0.2-0.1-0.4-0.3-0.4c-0.4-0.2-0.6-0.4-0.6-0.8c0-0.1,0.1-0.2,0.1-0.3c0.1-0.2,0.3-0.4,0.6-0.5c0.1-0.1,0.3-0.2,0.3-0.4v-2.6
				c0-1.2-0.3-1.9-0.8-1.9c-0.1,0-0.1,0-0.3,0.1c-0.5,0.1-0.9,0.5-1.1,1.2c-0.1,0.5-0.3,1-0.4,1.5c-0.1,0.4-0.5,0.6-1.1,0.6
				c-0.3,0-0.5-0.1-0.7-0.1c-0.2-0.1-0.3-0.2-0.3-0.4c0.1-0.4,0.1-0.8,0-1.4c-0.1-0.7-0.1-1.3-0.3-1.6c-0.1-0.1-0.1-0.3-0.1-0.4
				c0-0.6,0.4-0.9,1.3-0.8c0.1,0,0.3,0,0.4,0s0.5-0.1,1-0.1c0.5-0.1,1.1-0.1,1.7-0.1c0.9,0,1.7,0.1,2.1,0.4c0.3,0.3,0.6,0.6,0.9,0.8
				c0.3-0.3,0.6-0.5,0.9-0.8c0.4-0.2,1.2-0.4,2.1-0.4c0.6,0,1.2,0.1,1.7,0.1c0.5,0.1,0.9,0.1,1,0.1c0.1,0,0.3,0,0.4,0
				c0.9-0.1,1.3,0.1,1.3,0.8C92.7,211,92.7,211.1,92.6,211.3z"/>
			<path class="st10" d="M113.8,217.2c0,0.1,0,0.2-0.1,0.3c-0.1,0.2-0.3,0.4-0.6,0.5c-0.1,0.1-0.2,0.1-0.2,0.4
				c-0.5,1.9-1.4,3.3-2.9,4.5s-3.1,1.7-4.9,1.7s-3.5-0.6-4.9-1.7c-1.4-1.2-2.4-2.6-2.9-4.5c-0.1-0.2-0.1-0.4-0.2-0.4
				c-0.4-0.2-0.6-0.4-0.6-0.8c0-0.1,0.1-0.2,0.1-0.3c0.1-0.2,0.3-0.4,0.6-0.5c0.1-0.1,0.2-0.1,0.2-0.4c0.6-1.9,1.5-3.3,3-4.4
				c1.4-1.1,3-1.6,4.9-1.6s3.5,0.5,4.8,1.6c1.4,1.1,2.4,2.5,2.9,4.4c0.1,0.2,0.1,0.4,0.2,0.4C113.5,216.6,113.8,216.8,113.8,217.2z
				 M107.8,218.4c0-0.2-0.1-0.4-0.2-0.4c-0.4-0.2-0.6-0.4-0.6-0.8c0-0.1,0.1-0.2,0.1-0.3c0.1-0.2,0.3-0.4,0.6-0.5
				c0.1-0.1,0.2-0.2,0.2-0.4c0-0.9-0.2-1.8-0.7-2.8c-0.6-1.2-1.2-1.7-2-1.7s-1.4,0.6-2,1.7c-0.5,1-0.7,1.9-0.7,2.8
				c0,0.2,0.1,0.4,0.2,0.4c0.4,0.2,0.6,0.4,0.6,0.8c0,0.1-0.1,0.2-0.1,0.3c-0.1,0.2-0.3,0.4-0.6,0.5c-0.1,0.1-0.2,0.2-0.2,0.4
				c0,0.9,0.2,1.9,0.7,2.9c0.6,1.2,1.2,1.8,2.1,1.8c0.8,0,1.5-0.6,2-1.8C107.6,220.3,107.8,219.4,107.8,218.4z"/>
			<path class="st10" d="M136.3,217.2c0,0.1-0.1,0.2-0.1,0.3c-0.1,0.2-0.3,0.4-0.6,0.5c-0.1,0.1-0.2,0.2-0.3,0.4l-0.1,0.2
				c-0.4,1.6-1.1,2.9-2.2,3.8c-1.4,1.2-3.2,1.7-5.5,1.7c-1.9,0-3.4-0.3-4.3-0.8c-0.4,0.5-0.9,0.7-1.7,0.7c-0.6,0-1-0.1-1.4-0.4
				c-0.4-0.2-0.6-0.6-0.6-0.9c0-0.4,0.2-0.6,0.6-0.9c0.4-0.2,0.6-0.5,0.6-0.7v-2.8c0-0.2-0.1-0.4-0.2-0.4c-0.4-0.2-0.6-0.4-0.7-0.8
				c0-0.1,0.1-0.2,0.1-0.3c0.1-0.2,0.3-0.4,0.6-0.5c0.1-0.1,0.2-0.2,0.2-0.4v-2.8c0-0.2-0.2-0.5-0.6-0.7c-0.4-0.2-0.6-0.5-0.6-0.9
				c0-0.4,0.2-0.6,0.6-0.9c0.4-0.2,0.9-0.4,1.4-0.4c0.8,0,1.4,0.2,1.7,0.7c0.9-0.8,2.1-1.2,3.6-1.2c2.2,0,4.1,0.4,5.6,1.3
				c1.7,1,2.7,2.5,3,4.6v0.2c0,0.2,0.1,0.4,0.3,0.4C136,216.6,136.3,216.8,136.3,217.2z M129.9,218.4c0-0.1-0.1-0.3-0.3-0.4
				c-0.4-0.2-0.6-0.4-0.7-0.8c0-0.1,0.1-0.2,0.1-0.3c0.1-0.2,0.3-0.4,0.6-0.5c0.2-0.1,0.3-0.2,0.2-0.4v-0.2c-0.1-0.4-0.2-1-0.4-1.5
				c-0.2-0.5-0.6-1.2-1.1-1.7c-0.6-0.6-1.2-1-1.7-1c-0.6,0-1,0.6-1,1.9v2.6c0,0.2,0.1,0.4,0.3,0.4c0.4,0.2,0.6,0.4,0.6,0.8
				c0,0.1-0.1,0.2-0.1,0.3c-0.1,0.2-0.3,0.4-0.6,0.5c-0.1,0.1-0.3,0.2-0.3,0.4v2.8c0,0.6,0.1,0.9,0.1,1.2c0.1,0.3,0.6,0.4,1.1,0.4
				c1,0,1.7-0.5,2.3-1.4c0.4-0.7,0.6-1.7,0.7-2.7L129.9,218.4L129.9,218.4z"/>
			<path class="st10" d="M158.9,217.2c0,0.1,0,0.2-0.1,0.3c-0.1,0.2-0.3,0.4-0.6,0.5c-0.1,0.1-0.2,0.1-0.2,0.4
				c-0.5,1.9-1.4,3.3-2.9,4.5c-1.4,1.2-3.1,1.7-4.9,1.7s-3.5-0.6-4.9-1.7c-1.4-1.2-2.4-2.6-2.9-4.5c-0.1-0.2-0.1-0.4-0.2-0.4
				c-0.4-0.2-0.6-0.4-0.6-0.8c0-0.1,0.1-0.2,0.1-0.3c0.1-0.2,0.3-0.4,0.6-0.5c0.1-0.1,0.2-0.1,0.2-0.4c0.6-1.9,1.5-3.3,3-4.4
				c1.4-1.1,3-1.6,4.9-1.6s3.5,0.5,4.8,1.6s2.4,2.5,2.9,4.4c0.1,0.2,0.1,0.4,0.2,0.4C158.6,216.6,158.9,216.8,158.9,217.2z
				 M153,218.4c0-0.2-0.1-0.4-0.2-0.4c-0.4-0.2-0.6-0.4-0.6-0.8c0-0.1,0.1-0.2,0.1-0.3c0.1-0.2,0.3-0.4,0.6-0.5
				c0.1-0.1,0.2-0.2,0.2-0.4c0-0.9-0.2-1.8-0.7-2.8c-0.6-1.2-1.2-1.7-2-1.7s-1.4,0.6-2,1.7c-0.5,1-0.7,1.9-0.7,2.8
				c0,0.2,0.1,0.4,0.2,0.4c0.4,0.2,0.6,0.4,0.6,0.8c0,0.1-0.1,0.2-0.1,0.3c-0.1,0.2-0.3,0.4-0.6,0.5c-0.1,0.1-0.2,0.2-0.2,0.4
				c0,0.9,0.2,1.9,0.7,2.9c0.6,1.2,1.2,1.8,2.1,1.8c0.8,0,1.5-0.6,2-1.8C152.7,220.3,153,219.4,153,218.4z"/>
			<path class="st10" d="M175.7,219.4c0,1.5-0.6,2.7-1.9,3.7c-1.3,0.9-2.9,1.4-5,1.4c-3.9,0-5.8-1.2-5.8-3.6c0-0.6,0.1-1.2,0.5-1.5
				c0.3-0.3,0.6-0.4,1.2-0.4c0.5,0,1,0.2,1.3,0.6c0.3,0.3,0.4,0.6,0.4,1c0,0.4-0.1,0.6-0.3,1c-0.1,0.1-0.1,0.3-0.1,0.5
				c0,0.7,0.8,1.1,2.3,1.1c0.7,0,1.3-0.1,1.7-0.5c0.4-0.3,0.6-0.7,0.6-1.2c0-0.6-0.3-1.1-0.9-1.5c-0.4-0.3-1.2-0.7-2.3-1.2
				c-1.2-0.5-1.9-1-2.4-1.4c-0.8-0.7-1.2-1.7-1.2-2.8c0-1.9,0.9-3.2,2.9-4c1-0.4,2.2-0.6,3.6-0.6c3.3,0,5,1.1,5,3.2
				c0,0.4-0.1,0.9-0.4,1.2c-0.3,0.3-0.7,0.4-1.2,0.4c-0.6,0-1.1-0.2-1.5-0.7c-0.2-0.2-0.4-0.5-0.4-0.7c0-0.1,0.1-0.4,0.2-0.6
				c0.1-0.2,0.2-0.4,0.2-0.5c0-0.1-0.1-0.3-0.3-0.4c-0.4-0.4-0.9-0.5-1.3-0.4c-0.4,0-0.9,0.1-1.2,0.4c-0.4,0.3-0.5,0.6-0.5,1
				c0,0.5,0.2,0.9,0.7,1.2c0.4,0.2,1.2,0.6,2.7,1.2C174.6,216,175.7,217.4,175.7,219.4z"/>
			<path class="st10" d="M85.9,239.5c0,1.5-0.6,2.7-1.9,3.7c-1.2,0.9-2.9,1.4-5,1.4c-3.9,0-5.8-1.2-5.8-3.6c0-0.6,0.1-1.2,0.5-1.5
				c0.3-0.3,0.6-0.4,1.2-0.4c0.5,0,1,0.2,1.3,0.6c0.3,0.3,0.4,0.6,0.4,1c0,0.4-0.1,0.6-0.3,1c-0.1,0.1-0.1,0.3-0.1,0.5
				c0,0.7,0.8,1.1,2.3,1.1c0.7,0,1.3-0.1,1.7-0.5c0.4-0.3,0.6-0.7,0.6-1.2c0-0.6-0.3-1.1-0.9-1.5c-0.4-0.3-1.2-0.7-2.3-1.2
				c-1.2-0.5-1.9-1-2.4-1.4c-0.8-0.7-1.2-1.7-1.2-2.8c0-1.9,0.9-3.2,2.9-4c1-0.4,2.2-0.6,3.6-0.6c3.3,0,5,1.1,5,3.2
				c0,0.4-0.1,0.9-0.4,1.2c-0.3,0.3-0.7,0.4-1.2,0.4c-0.6,0-1.1-0.2-1.5-0.7c-0.2-0.2-0.4-0.5-0.4-0.7c0-0.1,0.1-0.4,0.2-0.6
				s0.2-0.4,0.2-0.5c0-0.1-0.1-0.3-0.3-0.4c-0.4-0.4-0.9-0.5-1.3-0.4c-0.4,0-0.9,0.1-1.2,0.4c-0.4,0.3-0.5,0.6-0.5,1
				c0,0.5,0.2,0.9,0.7,1.2c0.4,0.2,1.2,0.6,2.7,1.2C84.8,236.2,85.9,237.6,85.9,239.5z"/>
			<path class="st10" d="M104.2,243c0,0.4-0.2,0.6-0.6,0.9c-0.4,0.2-0.9,0.4-1.4,0.4c-0.8,0-1.4-0.2-1.8-0.7
				c-0.4,0.5-0.9,0.7-1.7,0.7c-0.6,0-1-0.1-1.4-0.4c-0.4-0.2-0.6-0.6-0.6-0.9c0-0.4,0.2-0.6,0.6-0.9c0.4-0.2,0.6-0.4,0.6-0.6
				c0-0.1,0-0.1-0.1-0.1l-0.6-1.6c-0.1-0.1-0.2-0.3-0.4-0.3h-2.5c-0.2,0-0.3,0.1-0.4,0.3l-0.6,1.6c0,0.1-0.1,0.1-0.1,0.2
				c0,0.1,0.2,0.4,0.6,0.6s0.6,0.5,0.6,0.9c0,0.4-0.2,0.6-0.6,0.9c-0.4,0.2-0.9,0.4-1.4,0.4h-0.1c-0.6,0-1-0.1-1.4-0.4
				c-0.4-0.2-0.6-0.6-0.6-0.9c0-0.4,0.1-0.6,0.5-0.9c0.4-0.3,0.6-0.5,0.7-0.7l1-2.6c0.1-0.1,0.1-0.4-0.1-0.4c-0.3-0.4-0.4-0.6-0.4-1
				c0.2-0.1,0.5-0.4,0.9-0.5c0.1,0,0.2-0.1,0.4-0.3l1.2-3.2c0-0.1,0.1-0.1,0.1-0.1c0-0.1-0.2-0.4-0.6-0.6c-0.4-0.2-0.6-0.5-0.6-0.8
				c0-0.4,0.2-0.6,0.6-0.9c0.4-0.2,0.9-0.4,1.4-0.4c0.9,0,1.4,0.2,1.8,0.7c0.4-0.5,0.9-0.7,1.7-0.7c0.5,0,1,0.1,1.4,0.4
				s0.6,0.6,0.6,0.9c0,0.3-0.2,0.6-0.6,0.8c-0.4,0.2-0.6,0.4-0.6,0.6c0,0.1,0,0.1,0,0.1l1.2,3.2c0.1,0.1,0.2,0.3,0.4,0.3
				c0.5,0,0.8,0.2,0.9,0.5c0.1,0.4,0,0.7-0.4,1c-0.1,0.1-0.1,0.3-0.1,0.4l1,2.6c0.1,0.2,0.3,0.4,0.7,0.7
				C104.1,242.3,104.2,242.6,104.2,243z M96.5,237.5l-0.6-1.5c-0.1-0.1-0.1-0.1-0.1,0l-0.6,1.5c0,0.1-0.1,0.2-0.1,0.3
				c0,0.1,0.1,0.1,0.1,0.1c0.4,0,0.8,0,1.2,0c0.1,0,0.1-0.1,0.1-0.1C96.5,237.7,96.5,237.6,96.5,237.5z"/>
			<path class="st10" d="M123.8,243c0,0.4-0.2,0.6-0.6,0.9s-0.9,0.4-1.4,0.4c-0.9,0-1.4-0.2-1.8-0.7c-0.4,0.5-0.9,0.7-1.7,0.7
				c-0.6,0-1-0.1-1.4-0.4c-0.4-0.2-0.6-0.6-0.6-0.9c0-0.4,0.2-0.6,0.6-0.9c0.4-0.2,0.6-0.4,0.6-0.5s0-0.1-0.1-0.2l-4.5-6.2
				c-0.1-0.2-0.2-0.1-0.2,0.1v0.9c0,0.2,0.1,0.4,0.2,0.4c0.4,0.2,0.6,0.4,0.7,0.8c0,0.1-0.1,0.2-0.1,0.3c-0.1,0.2-0.3,0.4-0.6,0.5
				c-0.1,0.1-0.2,0.2-0.2,0.4v2.8c0,0.2,0.2,0.5,0.6,0.7c0.4,0.2,0.6,0.5,0.6,0.9s-0.2,0.6-0.6,0.9s-0.9,0.4-1.4,0.4H112
				c-0.5,0-1-0.1-1.4-0.4c-0.4-0.2-0.6-0.6-0.6-0.9c0-0.4,0.2-0.6,0.6-0.9c0.4-0.2,0.6-0.5,0.6-0.7v-2.8c0-0.1-0.1-0.3-0.3-0.4
				c-0.4-0.1-0.6-0.4-0.6-0.8c0-0.1,0-0.2,0.1-0.3c0.1-0.2,0.3-0.4,0.6-0.5c0.1-0.1,0.3-0.2,0.3-0.4v-2.8c0-0.2-0.2-0.5-0.6-0.7
				c-0.4-0.2-0.6-0.5-0.6-0.9c0-0.4,0.2-0.6,0.6-0.9c0.4-0.2,0.9-0.4,1.4-0.4c0.9,0,1.4,0.2,1.8,0.7c0.4-0.5,0.9-0.7,1.7-0.7
				c0.5,0,1,0.1,1.4,0.4c0.4,0.2,0.6,0.6,0.6,0.9c0,0.3-0.2,0.6-0.6,0.9c-0.4,0.2-0.6,0.4-0.6,0.5s0,0.1,0.1,0.2l4.5,6.1
				c0.1,0.1,0.1,0.1,0.1,0.1c0.1,0,0.1-0.1,0.1-0.1v-0.8c0-0.2-0.1-0.4-0.3-0.4c-0.4-0.2-0.6-0.4-0.6-0.8c0-0.1,0-0.2,0.1-0.3
				c0.1-0.2,0.3-0.4,0.6-0.5c0.1-0.1,0.3-0.2,0.3-0.4v-2.8c0-0.2-0.2-0.5-0.6-0.7c-0.4-0.2-0.6-0.5-0.6-0.9c0-0.4,0.2-0.6,0.6-0.9
				c0.4-0.2,0.9-0.4,1.4-0.4h0.1c0.6,0,1,0.1,1.4,0.4c0.4,0.2,0.6,0.6,0.6,0.9c0,0.4-0.2,0.6-0.6,0.9c-0.4,0.2-0.6,0.5-0.6,0.7v2.8
				c0,0.2,0.1,0.4,0.2,0.4c0.4,0.2,0.6,0.4,0.7,0.8c0,0.1-0.1,0.2-0.1,0.3c-0.1,0.2-0.3,0.4-0.6,0.5c-0.1,0.1-0.3,0.2-0.3,0.4v2.8
				c0,0.2,0.2,0.5,0.6,0.7C123.6,242.3,123.8,242.6,123.8,243z"/>
			<path class="st10" d="M144.4,231.4c-0.1,0.4-0.2,0.9-0.3,1.6c0,0.6,0,1.1,0,1.4c0,0.1-0.1,0.2-0.3,0.4c-0.2,0.1-0.4,0.1-0.6,0.1
				c-0.6,0-0.9-0.2-1.1-0.6c-0.1-0.5-0.3-1-0.4-1.5c-0.3-0.6-0.6-1-1.1-1.2c-0.1,0-0.1-0.1-0.3-0.1c-0.5,0-0.8,0.6-0.8,1.9v2.6
				c0,0.2,0.1,0.4,0.3,0.4c0.4,0.2,0.6,0.4,0.6,0.8c0,0.1,0,0.2-0.1,0.3c-0.1,0.2-0.3,0.4-0.6,0.5c-0.1,0.1-0.3,0.2-0.3,0.4v2.8
				c0,0.2,0.2,0.5,0.6,0.7c0.4,0.2,0.6,0.5,0.6,0.9c0,0.4-0.2,0.6-0.6,0.9c-0.4,0.2-0.9,0.4-1.4,0.4c-0.9,0-1.4-0.2-1.8-0.7
				c-0.4,0.5-0.9,0.7-1.7,0.7c-0.5,0-1-0.1-1.4-0.4c-0.4-0.2-0.6-0.6-0.6-0.9c0-0.4,0.2-0.6,0.6-0.9c0.4-0.2,0.6-0.5,0.6-0.7v-2.8
				c0-0.2-0.1-0.4-0.3-0.4c-0.4-0.2-0.6-0.4-0.6-0.8c0-0.1,0.1-0.2,0.1-0.3c0.1-0.2,0.3-0.4,0.6-0.5c0.1-0.1,0.3-0.2,0.3-0.4v-2.6
				c0-1.2-0.3-1.9-0.8-1.9c-0.1,0-0.1,0-0.3,0.1c-0.5,0.1-0.9,0.5-1.1,1.2c-0.1,0.5-0.3,1-0.4,1.5c-0.1,0.4-0.5,0.6-1.1,0.6
				c-0.3,0-0.5-0.1-0.7-0.1s-0.3-0.2-0.3-0.4c0.1-0.4,0.1-0.8,0-1.4c-0.1-0.7-0.1-1.3-0.3-1.6c-0.1-0.1-0.1-0.3-0.1-0.4
				c0-0.6,0.4-0.9,1.3-0.8c0.1,0,0.3,0,0.4,0c0.1,0,0.5-0.1,1-0.1c0.5-0.1,1.1-0.1,1.7-0.1c0.9,0,1.7,0.1,2.1,0.4
				c0.3,0.3,0.6,0.6,0.9,0.8c0.3-0.3,0.6-0.5,0.9-0.8c0.4-0.2,1.2-0.4,2.1-0.4c0.6,0,1.2,0.1,1.7,0.1c0.5,0.1,0.9,0.1,1,0.1
				s0.3,0,0.4,0c0.9-0.1,1.3,0.1,1.3,0.8C144.5,231.1,144.5,231.3,144.4,231.4z"/>
			<path class="st10" d="M165.5,237.3c0,0.1,0,0.2-0.1,0.3c-0.1,0.2-0.3,0.4-0.6,0.5c-0.1,0.1-0.2,0.1-0.2,0.4
				c-0.5,1.9-1.4,3.3-2.9,4.5c-1.4,1.2-3.1,1.7-4.9,1.7c-1.8,0-3.5-0.6-4.9-1.7c-1.4-1.2-2.4-2.6-2.9-4.5c-0.1-0.2-0.1-0.4-0.2-0.4
				c-0.4-0.2-0.6-0.4-0.6-0.8c0-0.1,0.1-0.2,0.1-0.3c0.1-0.2,0.3-0.4,0.6-0.5c0.1-0.1,0.2-0.1,0.2-0.4c0.6-1.9,1.5-3.3,3-4.4
				c1.4-1.1,3-1.6,4.9-1.6c1.9,0,3.5,0.5,4.8,1.6c1.4,1.1,2.4,2.5,2.9,4.4c0.1,0.2,0.1,0.4,0.2,0.4
				C165.3,236.7,165.5,236.9,165.5,237.3z M159.6,238.5c0-0.2-0.1-0.4-0.2-0.4c-0.4-0.2-0.6-0.4-0.6-0.8c0-0.1,0.1-0.2,0.1-0.3
				c0.1-0.2,0.3-0.4,0.6-0.5c0.1-0.1,0.2-0.2,0.2-0.4c0-0.9-0.2-1.8-0.7-2.8c-0.6-1.2-1.2-1.7-2-1.7c-0.8,0-1.4,0.6-2,1.7
				c-0.5,1-0.7,1.9-0.7,2.8c0,0.2,0.1,0.4,0.2,0.4c0.4,0.2,0.6,0.4,0.6,0.8c0,0.1-0.1,0.2-0.1,0.3c-0.1,0.2-0.3,0.4-0.6,0.5
				c-0.1,0.1-0.2,0.2-0.2,0.4c0,0.9,0.2,1.9,0.7,2.9c0.6,1.2,1.2,1.8,2.1,1.8c0.8,0,1.5-0.6,2-1.8
				C159.4,240.4,159.6,239.5,159.6,238.5z"/>
			<path class="st10" d="M182.4,239.5c0,1.5-0.6,2.7-1.9,3.7c-1.2,0.9-2.9,1.4-5,1.4c-3.9,0-5.8-1.2-5.8-3.6c0-0.6,0.1-1.2,0.5-1.5
				c0.3-0.3,0.6-0.4,1.2-0.4s1,0.2,1.3,0.6c0.3,0.3,0.4,0.6,0.4,1c0,0.4-0.1,0.6-0.3,1c-0.1,0.1-0.1,0.3-0.1,0.5
				c0,0.7,0.8,1.1,2.3,1.1c0.7,0,1.3-0.1,1.7-0.5c0.4-0.3,0.6-0.7,0.6-1.2c0-0.6-0.3-1.1-0.9-1.5c-0.4-0.3-1.2-0.7-2.3-1.2
				c-1.2-0.5-1.9-1-2.4-1.4c-0.8-0.7-1.2-1.7-1.2-2.8c0-1.9,0.9-3.2,2.9-4c1-0.4,2.2-0.6,3.6-0.6c3.3,0,5,1.1,5,3.2
				c0,0.4-0.1,0.9-0.4,1.2c-0.3,0.3-0.7,0.4-1.2,0.4c-0.6,0-1.1-0.2-1.5-0.7c-0.2-0.2-0.4-0.5-0.4-0.7c0-0.1,0.1-0.4,0.2-0.6
				c0.1-0.2,0.2-0.4,0.2-0.5c0-0.1-0.1-0.3-0.3-0.4c-0.4-0.4-0.9-0.5-1.3-0.4c-0.4,0-0.9,0.1-1.2,0.4c-0.4,0.3-0.5,0.6-0.5,1
				c0,0.5,0.2,0.9,0.7,1.2c0.4,0.2,1.2,0.6,2.7,1.2C181.3,236.2,182.4,237.6,182.4,239.5z"/>
		</g>
		<g>
			<g>
				<path class="st4" d="M93.1,210.7c-0.1,0.4-0.2,0.9-0.3,1.6c0,0.6,0,1.1,0,1.4c0,0.1-0.1,0.2-0.3,0.4c-0.2,0.1-0.4,0.1-0.6,0.1
					c-0.6,0-0.9-0.2-1.1-0.6c-0.1-0.5-0.3-1-0.4-1.5c-0.2-0.6-0.6-1-1.1-1.2c-0.1,0-0.1-0.1-0.3-0.1c-0.5,0-0.8,0.6-0.8,1.9v2.6
					c0,0.2,0.1,0.4,0.3,0.4c0.4,0.2,0.6,0.4,0.6,0.8c0,0.1,0,0.2-0.1,0.3c-0.1,0.2-0.3,0.4-0.6,0.5c-0.1,0.1-0.3,0.2-0.3,0.4v2.8
					c0,0.2,0.2,0.5,0.6,0.7c0.4,0.2,0.6,0.5,0.6,0.9c0,0.4-0.2,0.6-0.6,0.9s-0.9,0.4-1.4,0.4c-0.9,0-1.4-0.2-1.8-0.7
					c-0.4,0.5-0.9,0.7-1.7,0.7c-0.5,0-1-0.1-1.4-0.4c-0.4-0.2-0.6-0.6-0.6-0.9c0-0.4,0.2-0.6,0.6-0.9c0.4-0.2,0.6-0.5,0.6-0.7v-2.8
					c0-0.2-0.1-0.4-0.3-0.4c-0.4-0.2-0.6-0.4-0.6-0.8c0-0.1,0.1-0.2,0.1-0.3c0.1-0.2,0.3-0.4,0.6-0.5c0.1-0.1,0.3-0.2,0.3-0.4v-2.6
					c0-1.2-0.3-1.9-0.8-1.9c-0.1,0-0.1,0-0.3,0.1c-0.5,0.1-0.9,0.5-1.1,1.2c-0.1,0.5-0.3,1-0.4,1.5c-0.1,0.4-0.5,0.6-1.1,0.6
					c-0.3,0-0.5-0.1-0.7-0.1c-0.2-0.1-0.3-0.2-0.3-0.4c0.1-0.4,0.1-0.8,0-1.4c-0.1-0.7-0.1-1.3-0.3-1.6c-0.1-0.1-0.1-0.3-0.1-0.4
					c0-0.6,0.4-0.9,1.3-0.8c0.1,0,0.3,0,0.4,0c0.1,0,0.5-0.1,1-0.1c0.5-0.1,1.1-0.1,1.7-0.1c0.9,0,1.7,0.1,2.1,0.4
					c0.3,0.3,0.6,0.6,0.9,0.8c0.3-0.3,0.6-0.5,0.9-0.8c0.4-0.2,1.2-0.4,2.1-0.4c0.6,0,1.2,0.1,1.7,0.1c0.5,0.1,0.9,0.1,1,0.1
					s0.3,0,0.4,0c0.9-0.1,1.3,0.1,1.3,0.8C93.2,210.4,93.2,210.6,93.1,210.7z"/>
				<path class="st4" d="M114.3,216.7c0,0.1,0,0.2-0.1,0.3c-0.1,0.2-0.3,0.4-0.6,0.5c-0.1,0.1-0.2,0.1-0.2,0.4
					c-0.5,1.9-1.4,3.3-2.9,4.5c-1.4,1.2-3.1,1.7-4.9,1.7c-1.8,0-3.5-0.6-4.9-1.7c-1.4-1.2-2.4-2.6-2.9-4.5c-0.1-0.2-0.1-0.4-0.2-0.4
					c-0.4-0.2-0.6-0.4-0.6-0.8c0-0.1,0.1-0.2,0.1-0.3c0.1-0.2,0.3-0.4,0.6-0.5c0.1-0.1,0.2-0.1,0.2-0.4c0.6-1.9,1.5-3.3,3-4.4
					c1.4-1.1,3-1.6,4.9-1.6s3.5,0.5,4.8,1.6c1.4,1.1,2.4,2.5,2.9,4.4c0.1,0.2,0.1,0.4,0.2,0.4C114,216,114.3,216.3,114.3,216.7z
					 M108.4,217.9c0-0.2-0.1-0.4-0.2-0.4c-0.4-0.2-0.6-0.4-0.6-0.8c0-0.1,0.1-0.2,0.1-0.3c0.1-0.2,0.3-0.4,0.6-0.5
					c0.1-0.1,0.2-0.2,0.2-0.4c0-0.9-0.2-1.8-0.7-2.8c-0.6-1.2-1.2-1.7-2-1.7s-1.4,0.6-2,1.7c-0.5,1-0.7,1.9-0.7,2.8
					c0,0.2,0.1,0.4,0.2,0.4c0.4,0.2,0.6,0.4,0.6,0.8c0,0.1-0.1,0.2-0.1,0.3c-0.1,0.2-0.3,0.4-0.6,0.5c-0.1,0.1-0.2,0.2-0.2,0.4
					c0,0.9,0.2,1.9,0.7,2.9c0.6,1.2,1.2,1.8,2.1,1.8c0.8,0,1.5-0.6,2-1.8C108.1,219.8,108.4,218.8,108.4,217.9z"/>
				<path class="st4" d="M136.9,216.7c0,0.1-0.1,0.2-0.1,0.3c-0.1,0.2-0.3,0.4-0.6,0.5c-0.1,0.1-0.2,0.2-0.3,0.4l-0.1,0.2
					c-0.4,1.6-1.1,2.9-2.2,3.8c-1.4,1.2-3.2,1.7-5.5,1.7c-1.9,0-3.4-0.3-4.3-0.8c-0.4,0.5-0.9,0.7-1.7,0.7c-0.6,0-1-0.1-1.4-0.4
					s-0.6-0.6-0.6-0.9c0-0.4,0.2-0.6,0.6-0.9c0.4-0.2,0.6-0.5,0.6-0.7v-2.8c0-0.2-0.1-0.4-0.2-0.4c-0.4-0.2-0.6-0.4-0.7-0.8
					c0-0.1,0.1-0.2,0.1-0.3c0.1-0.2,0.3-0.4,0.6-0.5c0.1-0.1,0.2-0.2,0.2-0.4v-2.8c0-0.2-0.2-0.5-0.6-0.7c-0.4-0.2-0.6-0.5-0.6-0.9
					s0.2-0.6,0.6-0.9c0.4-0.2,0.9-0.4,1.4-0.4c0.8,0,1.4,0.2,1.7,0.7c0.9-0.8,2.1-1.2,3.6-1.2c2.2,0,4.1,0.4,5.6,1.3
					c1.7,1,2.7,2.5,3,4.6v0.2c0,0.2,0.1,0.4,0.3,0.4C136.6,216,136.8,216.3,136.9,216.7z M130.4,217.9c0-0.1-0.1-0.3-0.3-0.4
					c-0.4-0.2-0.6-0.4-0.7-0.8c0-0.1,0.1-0.2,0.1-0.3c0.1-0.2,0.3-0.4,0.6-0.5c0.2-0.1,0.3-0.2,0.2-0.4v-0.2c-0.1-0.4-0.2-1-0.4-1.5
					c-0.2-0.5-0.6-1.2-1.1-1.7c-0.6-0.6-1.2-1-1.7-1c-0.6,0-1,0.6-1,1.9v2.6c0,0.2,0.1,0.4,0.3,0.4c0.4,0.2,0.6,0.4,0.6,0.8
					c0,0.1-0.1,0.2-0.1,0.3c-0.1,0.2-0.3,0.4-0.6,0.5c-0.1,0.1-0.3,0.2-0.3,0.4v2.8c0,0.6,0.1,0.9,0.1,1.2c0.1,0.3,0.6,0.4,1.1,0.4
					c1,0,1.7-0.5,2.3-1.4c0.4-0.7,0.6-1.7,0.7-2.7L130.4,217.9L130.4,217.9z"/>
				<path class="st4" d="M159.4,216.7c0,0.1,0,0.2-0.1,0.3c-0.1,0.2-0.3,0.4-0.6,0.5c-0.1,0.1-0.2,0.1-0.2,0.4
					c-0.5,1.9-1.4,3.3-2.9,4.5c-1.4,1.2-3.1,1.7-4.9,1.7s-3.5-0.6-4.9-1.7c-1.4-1.2-2.4-2.6-2.9-4.5c-0.1-0.2-0.1-0.4-0.2-0.4
					c-0.4-0.2-0.6-0.4-0.6-0.8c0-0.1,0.1-0.2,0.1-0.3c0.1-0.2,0.3-0.4,0.6-0.5c0.1-0.1,0.2-0.1,0.2-0.4c0.6-1.9,1.5-3.3,3-4.4
					c1.4-1.1,3-1.6,4.9-1.6c1.9,0,3.5,0.5,4.8,1.6s2.4,2.5,2.9,4.4c0.1,0.2,0.1,0.4,0.2,0.4C159.2,216,159.4,216.3,159.4,216.7z
					 M153.5,217.9c0-0.2-0.1-0.4-0.2-0.4c-0.4-0.2-0.6-0.4-0.6-0.8c0-0.1,0.1-0.2,0.1-0.3c0.1-0.2,0.3-0.4,0.6-0.5
					c0.1-0.1,0.2-0.2,0.2-0.4c0-0.9-0.2-1.8-0.7-2.8c-0.6-1.2-1.2-1.7-2-1.7c-0.8,0-1.4,0.6-2,1.7c-0.5,1-0.7,1.9-0.7,2.8
					c0,0.2,0.1,0.4,0.2,0.4c0.4,0.2,0.6,0.4,0.6,0.8c0,0.1-0.1,0.2-0.1,0.3c-0.1,0.2-0.3,0.4-0.6,0.5c-0.1,0.1-0.2,0.2-0.2,0.4
					c0,0.9,0.2,1.9,0.7,2.9c0.6,1.2,1.2,1.8,2.1,1.8c0.8,0,1.5-0.6,2-1.8C153.2,219.8,153.5,218.8,153.5,217.9z"/>
				<path class="st4" d="M176.2,218.8c0,1.5-0.6,2.7-1.9,3.7c-1.3,0.9-2.9,1.4-5,1.4c-3.9,0-5.8-1.2-5.8-3.6c0-0.6,0.1-1.2,0.5-1.5
					c0.3-0.3,0.6-0.4,1.2-0.4c0.5,0,1,0.2,1.3,0.6c0.3,0.3,0.4,0.6,0.4,1s-0.1,0.6-0.3,1c-0.1,0.1-0.1,0.3-0.1,0.5
					c0,0.7,0.8,1.1,2.3,1.1c0.7,0,1.3-0.1,1.7-0.5c0.4-0.3,0.6-0.7,0.6-1.2c0-0.6-0.3-1.1-0.9-1.5c-0.4-0.3-1.2-0.7-2.3-1.2
					c-1.2-0.5-1.9-1-2.4-1.4c-0.8-0.7-1.2-1.7-1.2-2.8c0-1.9,0.9-3.2,2.9-4c1-0.4,2.2-0.6,3.6-0.6c3.3,0,5,1.1,5,3.2
					c0,0.4-0.1,0.9-0.4,1.2c-0.3,0.3-0.7,0.4-1.2,0.4c-0.6,0-1.1-0.2-1.5-0.7c-0.2-0.2-0.4-0.5-0.4-0.7c0-0.1,0.1-0.4,0.2-0.6
					c0.1-0.2,0.2-0.4,0.2-0.5c0-0.1-0.1-0.3-0.3-0.4c-0.4-0.4-0.9-0.5-1.3-0.4c-0.4,0-0.9,0.1-1.2,0.4c-0.4,0.3-0.5,0.6-0.5,1
					c0,0.5,0.2,0.9,0.7,1.2c0.4,0.2,1.2,0.6,2.7,1.2C175.2,215.5,176.2,216.9,176.2,218.8z"/>
				<path class="st4" d="M86.4,239c0,1.5-0.6,2.7-1.9,3.7c-1.2,0.9-2.9,1.4-5,1.4c-3.9,0-5.8-1.2-5.8-3.6c0-0.6,0.1-1.2,0.5-1.5
					c0.3-0.3,0.6-0.4,1.2-0.4c0.5,0,1,0.2,1.3,0.6c0.3,0.3,0.4,0.6,0.4,1c0,0.4-0.1,0.6-0.3,1c-0.1,0.1-0.1,0.3-0.1,0.5
					c0,0.7,0.8,1.1,2.3,1.1c0.7,0,1.3-0.1,1.7-0.5c0.4-0.3,0.6-0.7,0.6-1.2c0-0.6-0.3-1.1-0.9-1.5c-0.4-0.3-1.2-0.7-2.3-1.2
					c-1.2-0.5-1.9-1-2.4-1.4c-0.8-0.7-1.2-1.7-1.2-2.8c0-1.9,0.9-3.2,2.9-4c1-0.4,2.2-0.6,3.6-0.6c3.3,0,5,1.1,5,3.2
					c0,0.4-0.1,0.9-0.4,1.2c-0.3,0.3-0.7,0.4-1.2,0.4c-0.6,0-1.1-0.2-1.5-0.7c-0.2-0.2-0.4-0.5-0.4-0.7c0-0.1,0.1-0.4,0.2-0.6
					s0.2-0.4,0.2-0.5c0-0.1-0.1-0.3-0.3-0.4c-0.4-0.4-0.9-0.5-1.3-0.4c-0.4,0-0.9,0.1-1.2,0.4c-0.4,0.3-0.5,0.6-0.5,1
					c0,0.5,0.2,0.9,0.7,1.2c0.4,0.2,1.2,0.6,2.7,1.2C85.4,235.6,86.4,237,86.4,239z"/>
				<path class="st4" d="M104.8,242.4c0,0.4-0.2,0.6-0.6,0.9s-0.9,0.4-1.4,0.4c-0.8,0-1.4-0.2-1.8-0.7c-0.4,0.5-0.9,0.7-1.7,0.7
					c-0.6,0-1-0.1-1.4-0.4s-0.6-0.6-0.6-0.9c0-0.4,0.2-0.6,0.6-0.9c0.4-0.2,0.6-0.4,0.6-0.6c0-0.1,0-0.1-0.1-0.1l-0.6-1.6
					c-0.1-0.1-0.2-0.3-0.4-0.3H95c-0.2,0-0.3,0.1-0.4,0.3l-0.6,1.6c0,0.1-0.1,0.1-0.1,0.2c0,0.1,0.2,0.4,0.6,0.6s0.6,0.5,0.6,0.9
					s-0.2,0.6-0.6,0.9c-0.4,0.2-0.9,0.4-1.4,0.4h-0.1c-0.6,0-1-0.1-1.4-0.4c-0.4-0.2-0.6-0.6-0.6-0.9c0-0.4,0.1-0.6,0.5-0.9
					c0.4-0.3,0.6-0.5,0.7-0.7l1-2.6c0.1-0.1,0.1-0.4-0.1-0.4c-0.3-0.4-0.4-0.6-0.4-1c0.2-0.1,0.5-0.4,0.9-0.5c0.1,0,0.2-0.1,0.4-0.3
					l1.2-3.2c0-0.1,0.1-0.1,0.1-0.1c0-0.1-0.2-0.4-0.6-0.6s-0.6-0.5-0.6-0.8c0-0.4,0.2-0.6,0.6-0.9c0.4-0.2,0.9-0.4,1.4-0.4
					c0.9,0,1.4,0.2,1.8,0.7c0.4-0.5,0.9-0.7,1.7-0.7c0.5,0,1,0.1,1.4,0.4c0.4,0.2,0.6,0.6,0.6,0.9c0,0.3-0.2,0.6-0.6,0.8
					s-0.6,0.4-0.6,0.6c0,0.1,0,0.1,0,0.1l1.2,3.2c0.1,0.1,0.2,0.3,0.4,0.3c0.5,0,0.8,0.2,0.9,0.5c0.1,0.4,0,0.7-0.4,1
					c-0.1,0.1-0.1,0.3-0.1,0.4l1.3,2.5c0.1,0.2,0.3,0.4,0.7,0.7C104.6,241.8,104.8,242.1,104.8,242.4z M97,237l-0.6-1.5
					c-0.1-0.1-0.1-0.1-0.1,0l-0.6,1.5c0,0.1-0.1,0.2-0.1,0.3c0,0.1,0.1,0.1,0.1,0.1c0.4,0,0.8,0,1.2,0c0.1,0,0.1-0.1,0.1-0.1
					C97,237.2,97,237.1,97,237z"/>
				<path class="st4" d="M124.3,242.4c0,0.4-0.2,0.6-0.6,0.9s-0.9,0.4-1.4,0.4c-0.9,0-1.4-0.2-1.8-0.7c-0.4,0.5-0.9,0.7-1.7,0.7
					c-0.6,0-1-0.1-1.4-0.4c-0.4-0.2-0.6-0.6-0.6-0.9c0-0.4,0.2-0.6,0.6-0.9c0.4-0.2,0.6-0.4,0.6-0.5s0-0.1-0.1-0.2l-4.5-6.2
					c-0.1-0.2-0.2-0.1-0.2,0.1v0.9c0,0.2,0.1,0.4,0.2,0.4c0.4,0.2,0.6,0.4,0.7,0.8c0,0.1-0.1,0.2-0.1,0.3c-0.1,0.2-0.3,0.4-0.6,0.5
					c-0.1,0.1-0.2,0.2-0.2,0.4v2.8c0,0.2,0.2,0.5,0.6,0.7c0.4,0.2,0.6,0.5,0.6,0.9c0,0.4-0.2,0.6-0.6,0.9s-0.9,0.4-1.4,0.4h-0.1
					c-0.5,0-1-0.1-1.4-0.4c-0.4-0.2-0.6-0.6-0.6-0.9c0-0.4,0.2-0.6,0.6-0.9c0.4-0.2,0.6-0.5,0.6-0.7V238c0-0.1-0.1-0.3-0.3-0.4
					c-0.4-0.1-0.6-0.4-0.6-0.8c0-0.1,0-0.2,0.1-0.3c0.1-0.2,0.3-0.4,0.6-0.5c0.1-0.1,0.3-0.2,0.3-0.4v-2.8c0-0.2-0.2-0.5-0.6-0.7
					c-0.4-0.2-0.6-0.5-0.6-0.9c0-0.4,0.2-0.6,0.6-0.9c0.4-0.2,0.9-0.4,1.4-0.4c0.9,0,1.4,0.2,1.8,0.7c0.4-0.5,0.9-0.7,1.7-0.7
					c0.5,0,1,0.1,1.4,0.4c0.4,0.2,0.6,0.6,0.6,0.9c0,0.3-0.2,0.6-0.6,0.9c-0.4,0.2-0.6,0.4-0.6,0.5s0,0.1,0.1,0.2l4.5,6.1
					c0.1,0.1,0.1,0.1,0.1,0.1c0.1,0,0.1-0.1,0.1-0.1V238c0-0.2-0.1-0.4-0.3-0.4c-0.4-0.2-0.6-0.4-0.6-0.8c0-0.1,0-0.2,0.1-0.3
					c0.1-0.2,0.3-0.4,0.6-0.5c0.1-0.1,0.3-0.2,0.3-0.4v-2.8c0-0.2-0.2-0.5-0.6-0.7c-0.4-0.2-0.6-0.5-0.6-0.9c0-0.4,0.2-0.6,0.6-0.9
					c0.4-0.2,0.9-0.4,1.4-0.4h0.1c0.6,0,1,0.1,1.4,0.4c0.4,0.2,0.6,0.6,0.6,0.9c0,0.4-0.2,0.6-0.6,0.9c-0.4,0.2-0.6,0.5-0.6,0.7v2.8
					c0,0.2,0.1,0.4,0.2,0.4c0.4,0.2,0.6,0.4,0.7,0.8c0,0.1-0.1,0.2-0.1,0.3c-0.1,0.2-0.3,0.4-0.6,0.5c-0.1,0.1-0.3,0.2-0.3,0.4v2.8
					c0,0.2,0.2,0.5,0.6,0.7C124.1,241.8,124.3,242.1,124.3,242.4z"/>
				<path class="st4" d="M144.9,230.9c-0.1,0.4-0.2,0.9-0.3,1.6c0,0.6,0,1.1,0,1.4c0,0.1-0.1,0.2-0.3,0.4c-0.2,0.1-0.4,0.1-0.6,0.1
					c-0.6,0-0.9-0.2-1.1-0.6c-0.1-0.5-0.3-1-0.4-1.5c-0.3-0.6-0.6-1-1.1-1.2c-0.1,0-0.1-0.1-0.3-0.1c-0.5,0-0.8,0.6-0.8,1.9v2.6
					c0,0.2,0.1,0.4,0.3,0.4c0.4,0.2,0.6,0.4,0.6,0.8c0,0.1,0,0.2-0.1,0.3c-0.1,0.2-0.3,0.4-0.6,0.5c-0.1,0.1-0.3,0.2-0.3,0.4v2.8
					c0,0.2,0.2,0.5,0.6,0.7c0.4,0.2,0.6,0.5,0.6,0.9c0,0.4-0.2,0.6-0.6,0.9c-0.4,0.2-0.9,0.4-1.4,0.4c-0.9,0-1.4-0.2-1.8-0.7
					c-0.4,0.5-0.9,0.7-1.7,0.7c-0.5,0-1-0.1-1.4-0.4c-0.4-0.2-0.6-0.6-0.6-0.9c0-0.4,0.2-0.6,0.6-0.9c0.4-0.2,0.6-0.5,0.6-0.7V238
					c0-0.2-0.1-0.4-0.3-0.4c-0.4-0.2-0.6-0.4-0.6-0.8c0-0.1,0.1-0.2,0.1-0.3c0.1-0.2,0.3-0.4,0.6-0.5c0.1-0.1,0.3-0.2,0.3-0.4V233
					c0-1.2-0.3-1.9-0.8-1.9c-0.1,0-0.1,0-0.3,0.1c-0.5,0.1-0.9,0.5-1.1,1.2c-0.1,0.5-0.3,1-0.4,1.5c-0.1,0.4-0.5,0.6-1.1,0.6
					c-0.3,0-0.5-0.1-0.7-0.1s-0.3-0.2-0.3-0.4c0.1-0.4,0.1-0.8,0-1.4c-0.1-0.7-0.1-1.3-0.3-1.6c-0.1-0.1-0.1-0.3-0.1-0.4
					c0-0.6,0.4-0.9,1.3-0.8c0.1,0,0.3,0,0.4,0c0.1,0,0.5-0.1,1-0.1s1.1-0.1,1.7-0.1c0.9,0,1.7,0.1,2.1,0.4c0.3,0.3,0.6,0.6,0.9,0.8
					c0.3-0.3,0.6-0.5,0.9-0.8c0.4-0.2,1.2-0.4,2.1-0.4c0.6,0,1.2,0.1,1.7,0.1c0.5,0.1,0.9,0.1,1,0.1c0.1,0,0.3,0,0.4,0
					c0.9-0.1,1.3,0.1,1.3,0.8C145,230.6,145,230.7,144.9,230.9z"/>
				<path class="st4" d="M166,236.8c0,0.1,0,0.2-0.1,0.3c-0.1,0.2-0.3,0.4-0.6,0.5c-0.1,0.1-0.2,0.1-0.2,0.4
					c-0.5,1.9-1.4,3.3-2.9,4.5c-1.4,1.2-3.1,1.7-4.9,1.7c-1.8,0-3.5-0.6-4.9-1.7c-1.4-1.2-2.4-2.6-2.9-4.5c-0.1-0.2-0.1-0.4-0.2-0.4
					c-0.4-0.2-0.6-0.4-0.6-0.8c0-0.1,0.1-0.2,0.1-0.3c0.1-0.2,0.3-0.4,0.6-0.5c0.1-0.1,0.2-0.1,0.2-0.4c0.6-1.9,1.5-3.3,3-4.4
					c1.4-1.1,3-1.6,4.9-1.6c1.9,0,3.5,0.5,4.8,1.6c1.4,1.1,2.4,2.5,2.9,4.4c0.1,0.2,0.1,0.4,0.2,0.4
					C165.8,236.2,166,236.4,166,236.8z M160.1,238c0-0.2-0.1-0.4-0.2-0.4c-0.4-0.2-0.6-0.4-0.6-0.8c0-0.1,0.1-0.2,0.1-0.3
					c0.1-0.2,0.3-0.4,0.6-0.5c0.1-0.1,0.2-0.2,0.2-0.4c0-0.9-0.2-1.8-0.7-2.8c-0.6-1.2-1.2-1.7-2-1.7c-0.8,0-1.4,0.6-2,1.7
					c-0.5,1-0.7,1.9-0.7,2.8c0,0.2,0.1,0.4,0.2,0.4c0.4,0.2,0.6,0.4,0.6,0.8c0,0.1-0.1,0.2-0.1,0.3c-0.1,0.2-0.3,0.4-0.6,0.5
					c-0.1,0.1-0.2,0.2-0.2,0.4c0,0.9,0.2,1.9,0.7,2.9c0.6,1.2,1.2,1.8,2.1,1.8c0.8,0,1.5-0.6,2-1.8C159.9,239.9,160.1,239,160.1,238
					z"/>
				<path class="st4" d="M182.9,239c0,1.5-0.6,2.7-1.9,3.7c-1.2,0.9-2.9,1.4-5,1.4c-3.9,0-5.8-1.2-5.8-3.6c0-0.6,0.1-1.2,0.5-1.5
					c0.3-0.3,0.6-0.4,1.2-0.4c0.5,0,1,0.2,1.3,0.6c0.3,0.3,0.4,0.6,0.4,1c0,0.4-0.1,0.6-0.3,1c-0.1,0.1-0.1,0.3-0.1,0.5
					c0,0.7,0.8,1.1,2.3,1.1c0.7,0,1.3-0.1,1.7-0.5c0.4-0.3,0.6-0.7,0.6-1.2c0-0.6-0.3-1.1-0.9-1.5c-0.4-0.3-1.2-0.7-2.3-1.2
					c-1.2-0.5-1.9-1-2.4-1.4c-0.8-0.7-1.2-1.7-1.2-2.8c0-1.9,0.9-3.2,2.9-4c1-0.4,2.2-0.6,3.6-0.6c3.3,0,5,1.1,5,3.2
					c0,0.4-0.1,0.9-0.4,1.2c-0.3,0.3-0.7,0.4-1.2,0.4c-0.6,0-1.1-0.2-1.5-0.7c-0.2-0.2-0.4-0.5-0.4-0.7c0-0.1,0.1-0.4,0.2-0.6
					c0.1-0.2,0.2-0.4,0.2-0.5c0-0.1-0.1-0.3-0.3-0.4c-0.4-0.4-0.9-0.5-1.3-0.4c-0.4,0-0.9,0.1-1.2,0.4c-0.4,0.3-0.5,0.6-0.5,1
					c0,0.5,0.2,0.9,0.7,1.2c0.4,0.2,1.2,0.6,2.7,1.2C181.8,235.6,182.9,237,182.9,239z"/>
			</g>
		</g>
	</g>
	<g>
		<polygon class="st11" points="85.7,218.7 84.4,216.7 85.7,214.7 86.9,216.7 		"/>
		<polygon class="st11" points="100.4,218.7 99.2,216.7 100.4,214.7 101.7,216.7 		"/>
		<polygon class="st11" points="110.9,218.7 109.7,216.7 110.9,214.7 112.1,216.7 		"/>
		<polygon class="st11" points="137.4,238.9 136.2,236.9 137.4,234.9 138.5,236.9 		"/>
		<polygon class="st11" points="152.2,238.9 150.9,236.9 152.2,234.9 153.4,236.9 		"/>
		<polygon class="st11" points="162.6,238.9 161.4,236.9 162.6,234.9 163.8,236.9 		"/>
		<polygon class="st11" points="145.3,218.7 144.2,216.7 145.3,214.7 146.5,216.7 		"/>
		<polygon class="st11" points="155.8,218.7 154.6,216.7 155.8,214.7 157,216.7 		"/>
		<polygon class="st11" points="172.6,217.9 170.3,217.7 169.4,215.5 171.7,215.8 		"/>
		<polygon class="st11" points="179,238.1 176.7,237.8 175.7,235.6 178.1,235.9 		"/>
		<polygon class="st11" points="99.9,238.8 98.2,237.2 98.8,234.9 100.5,236.6 		"/>
		<polygon class="st11" points="118.5,238.5 116.4,237.5 116.3,235.2 118.4,236.2 		"/>
		<polygon class="st11" points="123.6,218.7 122.3,216.7 123.6,214.7 124.7,216.7 		"/>
		<polygon class="st11" points="133.3,218.7 132.1,216.7 133.3,214.7 134.5,216.7 		"/>
		<polygon class="st12" points="176.7,237.8 177.4,236.9 179,238.1 		"/>
		<polygon class="st13" points="175.7,235.6 177.4,236.9 178.1,235.9 		"/>
		<polygon class="st12" points="170.3,217.7 171,216.7 172.6,217.9 		"/>
		<polygon class="st13" points="169.4,215.5 171,216.7 171.7,215.8 		"/>
		<polygon class="st13" points="162.6,234.9 162.6,236.9 163.8,236.9 		"/>
		<polygon class="st12" points="161.4,236.9 162.6,238.9 162.6,236.9 		"/>
		<polygon class="st13" points="152.2,234.9 152.2,236.9 153.4,236.9 		"/>
		<polygon class="st12" points="150.9,236.9 152.2,238.9 152.2,236.9 		"/>
		<polygon class="st13" points="137.4,234.9 137.4,236.9 138.5,236.9 		"/>
		<polygon class="st12" points="136.2,236.9 137.4,238.9 137.4,236.9 		"/>
		<polygon class="st13" points="133.3,214.7 133.3,216.7 134.5,216.7 		"/>
		<polygon class="st12" points="132.1,216.7 133.3,218.7 133.3,216.7 		"/>
		<polygon class="st13" points="123.6,214.7 123.6,216.7 124.7,216.7 		"/>
		<polygon class="st12" points="122.3,216.7 123.6,218.7 123.6,216.7 		"/>
		<polygon class="st13" points="110.9,214.7 110.9,216.7 112.1,216.7 		"/>
		<polygon class="st12" points="109.7,216.7 110.9,218.7 110.9,216.7 		"/>
		<polygon class="st13" points="100.4,214.7 100.4,216.7 101.7,216.7 		"/>
		<polygon class="st12" points="99.2,216.7 100.4,218.7 100.4,216.7 		"/>
		<polygon class="st13" points="85.7,214.7 85.7,216.7 86.9,216.7 		"/>
		<polygon class="st12" points="84.4,216.7 85.7,218.7 85.7,216.7 		"/>
		<polygon class="st13" points="145.3,214.7 145.3,216.7 146.5,216.7 		"/>
		<polygon class="st12" points="144.2,216.7 145.3,218.7 145.3,216.7 		"/>
		<polygon class="st13" points="155.8,214.7 155.8,216.7 157,216.7 		"/>
		<polygon class="st12" points="154.6,216.7 155.8,218.7 155.8,216.7 		"/>
		<polygon class="st13" points="98.8,234.9 99.3,236.9 100.5,236.6 		"/>
		<polygon class="st12" points="98.2,237.2 99.9,238.8 99.3,236.9 		"/>
		<polygon class="st12" points="116.4,237.5 117.4,236.9 118.5,238.5 		"/>
		<polygon class="st13" points="116.3,235.2 117.4,236.9 118.4,236.2 		"/>
		<polygon class="st11" points="82.5,238.1 80.2,237.8 79.3,235.6 81.6,235.9 		"/>
		<polygon class="st12" points="80.2,237.8 80.9,236.9 82.5,238.1 		"/>
		<polygon class="st13" points="79.3,235.6 80.9,236.9 81.6,235.9 		"/>
	</g>
	<g>
		<path class="st14" d="M155.6,220.1l-0.6-1.1c0,2.4-1.5,3.4-1.5,3.4s2-0.6,3.1-2.7L155.6,220.1z"/>
		<path class="st14" d="M145.9,220.1l0.6-1.1c0,2.4,1.5,3.4,1.5,3.4s-2-0.6-3.1-2.7L145.9,220.1z"/>
		<path class="st14" d="M155.6,213.4l-0.6,1.1c0-2.4-1.5-3.4-1.5-3.4s2,0.6,3.1,2.7L155.6,213.4z"/>
		<path class="st14" d="M133,220.1l-0.8-1.2c0,2.4-1.9,3.4-1.9,3.4s2.9-0.4,4-2.8L133,220.1z"/>
		<path class="st14" d="M133,213.4l-0.8,0.9c-0.1-2.1-1.8-3.2-1.8-3.2s2.7,0.1,3.7,2.8L133,213.4z"/>
		<path class="st14" d="M145.9,213.4l0.6,1.1c0-2.4,1.5-3.4,1.5-3.4s-2,0.6-3.1,2.7L145.9,213.4z"/>
		<path class="st14" d="M110.4,220.1l-0.6-1.1c0,2.4-1.5,3.4-1.5,3.4s2-0.6,3.1-2.7L110.4,220.1z"/>
		<path class="st14" d="M100.8,220.1l0.6-1.1c0,2.4,1.5,3.4,1.5,3.4s-2-0.6-3.1-2.7L100.8,220.1z"/>
		<path class="st14" d="M110.4,213.4l-0.6,1.1c0-2.4-1.5-3.4-1.5-3.4s2,0.6,3.1,2.7L110.4,213.4z"/>
		<path class="st14" d="M100.8,213.4l0.6,1.1c0-2.4,1.5-3.4,1.5-3.4s-2,0.6-3.1,2.7L100.8,213.4z"/>
		<path class="st14" d="M162.2,240.2l-0.6-1.1c0,2.4-1.5,3.4-1.5,3.4s2-0.6,3.1-2.7L162.2,240.2z"/>
		<path class="st14" d="M180.1,239.1h-1.7c2,1.1,0.8,3.2,0.8,3.2s3.5-2.4,0.6-4.7L180.1,239.1z"/>
		<path class="st14" d="M174.1,234.8l1.7-0.1c-2.1-0.9-0.9-3.2-0.9-3.2s-3.7,1.9-0.4,4.7L174.1,234.8z"/>
		<path class="st14" d="M83.6,239.1H82c2,1.1,0.8,3.2,0.8,3.2s3.5-2.4,0.6-4.7L83.6,239.1z"/>
		<path class="st14" d="M77.6,234.8l1.7-0.1c-2.1-0.9-0.9-3.2-0.9-3.2s-3.7,1.9-0.4,4.7L77.6,234.8z"/>
		<path class="st14" d="M152.5,240.2l0.6-1.1c0,2.4,1.5,3.4,1.5,3.4s-2-0.6-3.1-2.7L152.5,240.2z"/>
		<path class="st14" d="M162.2,233.5l-0.6,1.1c0-2.4-1.5-3.4-1.5-3.4s2,0.6,3.1,2.7L162.2,233.5z"/>
		<path class="st14" d="M152.5,233.5l0.6,1.1c0-2.4,1.5-3.4,1.5-3.4s-2,0.6-3.1,2.7L152.5,233.5z"/>
		<path class="st14" d="M84.5,218.4l0.4,1.9l-0.5,1.1c0.7,0,1.2-0.7,1.2-0.7s0.6,0.7,1.3,0.7l-0.4-1.2l0.4-1.7l-1.3,1.4L84.5,218.4z
			"/>
		<path class="st14" d="M87,215l-0.6-2.1l0.6-1.5c-0.7,0-1.2,0.7-1.2,0.7s-0.6-0.7-1.3-0.7l0.6,1.5l-0.6,2.2l1.3-1.9L87,215z"/>
		<path class="st14" d="M122.3,218.4l0.4,1.9l-0.4,1c0.7,0,1.2-0.7,1.2-0.7s0.6,0.7,1.3,0.7l-0.4-1.2l0.4-1.7l-1.3,1.4L122.3,218.4z
			"/>
		<path class="st14" d="M124.8,215l-0.6-2.1l0.6-1.5c-0.7,0-1.2,0.7-1.2,0.7s-0.6-0.7-1.3-0.7l0.6,1.5l-0.6,2.2l1.3-1.9L124.8,215z"
			/>
		<path class="st14" d="M136.2,238.5l0.4,1.9l-0.5,1.1c0.7,0,1.2-0.7,1.2-0.7s0.6,0.7,1.3,0.7l-0.4-1.2l0.4-1.7l-1.3,1.4
			L136.2,238.5z"/>
		<path class="st14" d="M138.8,235.2l-0.6-2.1l0.6-1.5c-0.7,0-1.2,0.7-1.2,0.7s-0.6-0.7-1.3-0.7l0.6,1.5l-0.6,2.2l1.3-1.9
			L138.8,235.2z"/>
		<path class="st14" d="M173.7,218.9h-1.7c2,1.1,0.8,3.2,0.8,3.2s3.5-2.4,0.6-4.7L173.7,218.9z"/>
		<path class="st14" d="M167.7,214.6l1.7-0.1c-2.1-0.9-0.9-3.2-0.9-3.2s-3.7,1.9-0.4,4.7L167.7,214.6z"/>
		<polygon class="st14" points="118.1,239.2 120.3,241.4 120.7,241.2 119.4,237.9 119.2,239.3 		"/>
		<polygon class="st14" points="116.9,234.6 114.3,232.3 113.9,232.5 115.7,235.9 115.6,234.3 		"/>
		<polygon class="st14" points="99.4,239.1 100.2,240.8 101.1,241.4 101.5,240.3 101,238.2 100.4,239.5 		"/>
		<polygon class="st14" points="99.9,234.6 98.8,232.8 97.8,232.1 97.4,233.5 97.9,235.4 98.6,233.8 		"/>
	</g>
	<g>
		<path class="st15" d="M122.3,230.7c-0.6,0-0.6,0.9,0,0.9C122.8,231.6,122.8,230.7,122.3,230.7z"/>
		<path class="st15" d="M122.3,241.8c-0.6,0-0.6,0.9,0,0.9C122.8,242.7,122.8,241.8,122.3,241.8z"/>
		<path class="st15" d="M112.5,236.4c-0.6,0-0.6,0.9,0,0.9S113.1,236.4,112.5,236.4z"/>
		<path class="st15" d="M112.5,242.1c-0.6,0-0.6,0.9,0,0.9S113.1,242.1,112.5,242.1z"/>
		<path class="st15" d="M102.9,242.1c-0.6,0-0.6,0.9,0,0.9S103.6,242.1,102.9,242.1z"/>
		<path class="st15" d="M99.7,230.7c-0.6,0-0.6,0.9,0,0.9C100.3,231.6,100.3,230.7,99.7,230.7z"/>
		<path class="st15" d="M98.2,216.3c-0.6,0-0.6,0.9,0,0.9S98.8,216.3,98.2,216.3z"/>
		<path class="st15" d="M113.2,216.3c-0.6,0-0.6,0.9,0,0.9S113.8,216.3,113.2,216.3z"/>
		<path class="st15" d="M108.7,216.3c-0.6,0-0.6,0.9,0,0.9S109.3,216.3,108.7,216.3z"/>
		<path class="st15" d="M102.7,216.3c-0.6,0-0.6,0.9,0,0.9S103.4,216.3,102.7,216.3z"/>
		<path class="st15" d="M143.2,216.3c-0.6,0-0.6,0.9,0,0.9C143.8,217.2,143.9,216.3,143.2,216.3z"/>
		<path class="st15" d="M130.9,216.3c-0.6,0-0.6,0.9,0,0.9C131.5,217.2,131.6,216.3,130.9,216.3z"/>
		<path class="st15" d="M135.7,216.3c-0.6,0-0.6,0.9,0,0.9C136.2,217.2,136.3,216.3,135.7,216.3z"/>
		<path class="st15" d="M158.2,216.3c-0.6,0-0.6,0.9,0,0.9C158.8,217.2,158.9,216.3,158.2,216.3z"/>
		<path class="st15" d="M153.7,216.3c-0.6,0-0.6,0.9,0,0.9S154.4,216.3,153.7,216.3z"/>
		<path class="st15" d="M147.8,216.3c-0.6,0-0.6,0.9,0,0.9S148.4,216.3,147.8,216.3z"/>
		<path class="st15" d="M149.9,236.4c-0.6,0-0.6,0.9,0,0.9C150.4,237.3,150.5,236.4,149.9,236.4z"/>
		<path class="st15" d="M164.8,236.4c-0.6,0-0.6,0.9,0,0.9C165.4,237.3,165.5,236.4,164.8,236.4z"/>
		<path class="st15" d="M160.4,236.4c-0.6,0-0.6,0.9,0,0.9S161,236.4,160.4,236.4z"/>
		<path class="st15" d="M154.4,236.4c-0.6,0-0.6,0.9,0,0.9S155,236.4,154.4,236.4z"/>
		<path class="st15" d="M99.1,242.1c-0.6,0-0.6,0.9,0,0.9C99.6,242.9,99.7,242.1,99.1,242.1z"/>
		<path class="st15" d="M95.8,230.7c-0.6,0-0.6,0.9,0,0.9S96.4,230.7,95.8,230.7z"/>
		<path class="st15" d="M93.2,242.1c-0.6,0-0.6,0.9,0,0.9S93.9,242.1,93.2,242.1z"/>
		<path class="st15" d="M84.4,232.5c-0.6,0-0.6,0.9,0,0.9S85.1,232.5,84.4,232.5z"/>
		<path class="st15" d="M79.7,210.5c-0.6,0-0.6,0.9,0,0.9C80.3,211.4,80.3,210.5,79.7,210.5z"/>
		<path class="st15" d="M91.6,210.5c-0.6,0-0.6,0.9,0,0.9S92.2,210.5,91.6,210.5z"/>
		<path class="st15" d="M87.9,222c-0.6,0-0.6,0.9,0,0.9C88.4,222.8,88.5,222,87.9,222z"/>
		<path class="st15" d="M121.8,222c-0.6,0-0.6,0.9,0,0.9C122.4,222.8,122.4,222,121.8,222z"/>
		<path class="st15" d="M121.8,210.5c-0.6,0-0.6,0.9,0,0.9C122.4,211.4,122.4,210.5,121.8,210.5z"/>
		<path class="st15" d="M83.7,222c-0.6,0-0.6,0.9,0,0.9C84.3,222.8,84.4,222,83.7,222z"/>
		<path class="st15" d="M131.3,230.7c-0.6,0-0.6,0.9,0,0.9C131.9,231.6,132,230.7,131.3,230.7z"/>
		<path class="st15" d="M143.2,230.7c-0.6,0-0.6,0.9,0,0.9C143.8,231.6,143.8,230.7,143.2,230.7z"/>
		<path class="st15" d="M139.5,242.2c-0.6,0-0.6,0.9,0,0.9C140.1,243.1,140.1,242.2,139.5,242.2z"/>
		<path class="st15" d="M135.4,242.2c-0.6,0-0.6,0.9,0,0.9C136,243.1,136,242.2,135.4,242.2z"/>
		<path class="st15" d="M118.5,242.1c-0.6,0-0.6,0.9,0,0.9C119.1,242.9,119.2,242.1,118.5,242.1z"/>
		<path class="st15" d="M116.3,230.7c-0.6,0-0.6,0.9,0,0.9C116.8,231.6,116.9,230.7,116.3,230.7z"/>
		<path class="st15" d="M75.5,240c-0.6,0-0.6,0.9,0,0.9S76.1,240,75.5,240z"/>
		<path class="st15" d="M180.7,232.5c-0.6,0-0.6,0.9,0,0.9C181.3,233.4,181.3,232.5,180.7,232.5z"/>
		<path class="st15" d="M171.8,240c-0.6,0-0.6,0.9,0,0.9C172.3,240.9,172.4,240,171.8,240z"/>
		<path class="st15" d="M174.4,212.4c-0.6,0-0.6,0.9,0,0.9C174.9,213.3,175,212.4,174.4,212.4z"/>
		<path class="st15" d="M165.4,219.9c-0.6,0-0.6,0.9,0,0.9C166,220.8,166.1,219.9,165.4,219.9z"/>
		<path class="st15" d="M122.3,236.4c-0.6,0-0.6,0.9,0,0.9C122.8,237.2,122.8,236.4,122.3,236.4z"/>
		<path class="st15" d="M112.5,230.7c-0.6,0-0.6,0.9,0,0.9S113.1,230.7,112.5,230.7z"/>
	</g>
	<line class="st16" x1="88.6" y1="251.6" x2="117.4" y2="251.6"/>
	<line class="st16" x1="138.8" y1="251.6" x2="166" y2="251.6"/>
	<g>
		<path class="st17" d="M121.2,249c1,0,1.6,0.4,1.6,1.3c0,0.6-0.3,1.1-0.9,1.2c0.7,0.2,1.1,0.6,1.1,1.4c0,1-0.6,1.6-1.8,1.6h-1.3
			V249L121.2,249L121.2,249z M121,251.1c0.4,0,0.7-0.3,0.7-0.6c0-0.4-0.3-0.6-0.7-0.6h-0.2v1.4L121,251.1L121,251.1z M121,253.6
			c0.5,0,0.7-0.3,0.7-0.8s-0.3-0.8-0.7-0.8h-0.2v1.6H121z"/>
		<path class="st17" d="M128.7,250.6c-0.1-0.5-0.2-0.8-0.4-0.8c-0.4,0-0.5,0.6-0.5,2c0,1.4,0.1,1.9,0.5,1.9c0.3,0,0.4-0.3,0.5-1
			l0.9,0.4c-0.1,0.9-0.6,1.5-1.4,1.5c-0.5,0-1-0.3-1.2-0.7c-0.2-0.5-0.3-1-0.3-2c0-0.9,0.1-1.5,0.2-1.9c0.2-0.6,0.7-0.9,1.4-0.9
			c0.6,0,1,0.3,1.2,0.8c0.1,0.2,0.1,0.4,0.1,0.7L128.7,250.6z"/>
		<path class="st17" d="M135.6,250.4c-0.1-0.5-0.2-0.7-0.5-0.7c-0.3,0-0.4,0.2-0.4,0.5c0,0.3,0.1,0.5,0.6,0.9l0.5,0.4
			c0.6,0.5,0.8,0.9,0.8,1.4c0,0.9-0.6,1.6-1.6,1.6c-0.9,0-1.4-0.5-1.5-1.4l0.9-0.2c0.1,0.4,0.3,0.7,0.6,0.7c0.3,0,0.5-0.2,0.5-0.5
			c0-0.3-0.1-0.5-0.6-0.9l-0.5-0.4c-0.2-0.1-0.4-0.4-0.5-0.6c-0.2-0.3-0.3-0.6-0.3-0.9c0-0.9,0.6-1.4,1.5-1.4c0.8,0,1.3,0.4,1.4,1.3
			L135.6,250.4z"/>
	</g>
</g>
</svg>
