<svg id="shuttle" xmlns="http://www.w3.org/2000/svg" viewBox="0 0 153.42 271.74"><defs><style>.cls-1{fill:#e2c51b;}.cls-2{fill:#a9a493;}.cls-3{fill:#ec612e;}.cls-4{fill:#4d4b43;}.cls-5{fill:#d4d0bf;}.cls-6{fill:#e5e1cf;}.cls-7{fill:#efede4;}</style></defs><title>space-shuttle</title><path class="cls-1" d="M53,144.17s-7.87,75-7.37,78.17,28.06,2.85,29.89.51-8.42-79.35-8.48-81S53,144.17,53,144.17Z"/><path class="cls-1" d="M82.27,139.51s-8,74.83-7.58,80,30.93,5.89,31.29,1c0.53-7.18-8.37-78.85-10.12-81.85S82.27,139.51,82.27,139.51Z"/><path class="cls-2" d="M52.32,41.51c0.07-4,5.5-14.25,7-14.25s6.25,11.31,6.25,14.25V124H54.07S52.22,47.51,52.32,41.51Z"/><path class="cls-3" d="M65.57,124s-11.72-2.87-11.5,0c0.95,12.13,0,13,0,13-3.48,2.13-3.33,9.67-3.33,9.67,11.49-2.33,18.33.17,18.33,0.17s1.67-5.92-2.58-9.92C66.49,136.92,65.57,136.51,65.57,124Z"/><path class="cls-4" d="M63.35,123.34s-1.33,10,0,10.33,3.42,2.33,8,0V123.34h-8Z"/><path class="cls-4" d="M66.65,121.13s-1.33,10,0,10.33,3.42,2.33,8,0V121.13h-8Z"/><path class="cls-4" d="M57.52,121.71s-1.33,10,0,10.33,3.42,2.33,8,0V121.71h-8Z"/><path class="cls-3" d="M61.52,113.51s-0.09-92.25.08-95.42C61.79,14.76,67.65.25,72.52,0S83,14.34,83.3,17.84s2.47,95.67,2.47,95.67H61.52Z"/><path class="cls-2" d="M81.52,36.51c0.17-4,5.5-14.25,7-14.25s6.25,10.81,6.25,14.25V119H83.27S81.44,38.32,81.52,36.51Z"/><path class="cls-3" d="M94.77,119s-11.73-2.87-11.5,0c1,12.38.16,12.33,0.16,12.33-3.91,2.38-3.67,10.4-3.5,10.33,9.23-3.33,18.33.17,18.33,0.17s1.37-6.42-2.88-10.42C95.39,131.42,94.77,131.51,94.77,119Z"/><path class="cls-5" d="M70.65,63.38C73.1,63.76,76,88,77.7,92.67,80.08,99.3,96,107.38,97.35,121.13c0,0-18.74,2.08-25.83,4.23C67.46,126.59,68.42,63,70.65,63.38Z"/><path class="cls-5" d="M56.15,94.79S33.77,113.92,36.9,125.17c0,0,20.58-3.46,22.83-1.83C60.5,123.9,56.15,94.79,56.15,94.79Z"/><path class="cls-6" d="M64.19,37.84c2.77,0,6.42,11.57,6.94,17.6a52.23,52.23,0,0,1,.27,7.32v62.6c-1.11.13-4.32,1.59-18.13-.1,0,0-.46-65.87-0.09-69.62S60.82,37.85,64.19,37.84Z"/><path class="cls-2" d="M59.15,110.44S49.26,123.31,48,126.57c-1,2.5,0,8.87.78,8.44C50.3,134.14,60,124.57,60,124.57Z"/><path class="cls-4" d="M56.35,53.42s4.71-9.44,8.42,1.83C65,55.95,61.6,49.73,56.35,53.42Z"/><path class="cls-2" d="M67.6,43.4s1.17,82.26,1.79,82.34c0.92,0.13,3.76-.91,4.12-0.91,0.62,0-1.15-57.45-1.16-59.57,0-1.9-1.29-14.44-3.29-21A1.52,1.52,0,0,0,67.6,43.4Z"/><path class="cls-4" d="M56.83,46.66S59.2,42,62,41.38c3.19-.66,4.73.93,5.68,8.82,0,0,2.39.25,2.7-.17,0.15-.21-2.1-12.32-5.85-12.44C61.33,37.5,56.83,46.66,56.83,46.66Z"/><path class="cls-6" d="M62.72,194.67s-13.58-19.37-25.08,2.5c0,0-5.5-7-12.5-2.5s-5,7.5-5,7.5-13.72-3.68-18.5,6c-5.37,10.88,4.13,20,4.13,20s-3.49,9.67,4.38,15c3.88,2.63,11.75,1.63,16.39.61,0,0-.77,4.91,4.74,6.29s10.38-1.9,10.38-1.9c7.5,5,22.15-.5,21.08-9,0,0,22.21-8.83,9.07-25.17C71.79,214,81.3,196.67,62.72,194.67Z"/><path class="cls-6" d="M85.68,185.38s11.31-24.65,25.69-6.21c0,0,8.42-6.3,16.28-1.18s6.18,9.53,6.18,9.53S146.2,185,151.57,196c6,12.37-4.63,22.75-4.63,22.75s3.92,11-4.91,17.06c-4.35,3-13.19,1.85-18.4.7,0,0,.87,5.58-5.32,7.15s-11.65-2.16-11.65-2.16c-8.42,5.69-24.87-.57-23.67-10.24,0,0-24.94-10-10.18-28.63C72.8,202.63,64.82,187.66,85.68,185.38Z"/><path class="cls-7" d="M58.46,223.22s12.65-16.87,23.36,2.18c0,0,5.12-6.09,11.65-2.18s4.66,6.53,4.66,6.53,12.78-3.2,17.24,5.22c5,9.47-3.84,17.41-3.84,17.41s3.25,8.42-4.08,13.06c-3.61,2.29-10.95,1.41-15.27.53,0,0,.72,4.27-4.41,5.48s-9.67-1.66-9.67-1.66c-7,4.35-20.64-.44-19.64-7.83,0,0-20.69-7.69-8.45-21.91C50,240.05,41.15,225,58.46,223.22Z"/><path class="cls-1" d="M79.3,118c-3.78-.31-3.74-6.45.15-6.29S84,118.33,79.3,118Z"/><polygon class="cls-7" points="77.7 116.55 78.84 116.54 79.38 115.16 79.92 116.55 81.18 116.55 81.1 116.39 79.5 113.44 79.95 112.51 79.75 112.41 79.37 113.17 79.06 112.61 78.86 112.73 79.22 113.43 78.03 115.97 77.7 116.55"/><path class="cls-1" d="M48,119.69c-3.78-.31-3.74-6.45.15-6.29S52.68,120.07,48,119.69Z"/><polygon class="cls-7" points="46.35 118.28 47.49 118.28 48.03 116.9 48.57 118.29 49.83 118.28 49.74 118.13 48.15 115.18 48.6 114.25 48.4 114.14 48.02 114.91 47.71 114.35 47.51 114.47 47.87 115.17 46.68 117.71 46.35 118.28"/><path class="cls-4" d="M69.93,68.09a1.29,1.29,0,1,1,0,2.54A1.27,1.27,0,0,1,69.93,68.09Z"/><path class="cls-4" d="M69.93,71.34a1.29,1.29,0,1,1,0,2.54A1.27,1.27,0,0,1,69.93,71.34Z"/><path class="cls-4" d="M69.93,74.78a1.29,1.29,0,1,1,0,2.54A1.27,1.27,0,0,1,69.93,74.78Z"/><path class="cls-4" d="M69.93,78.15a1.29,1.29,0,1,1,0,2.54A1.27,1.27,0,0,1,69.93,78.15Z"/><path class="cls-4" d="M69.93,64.9a1.29,1.29,0,1,1,0,2.54A1.27,1.27,0,0,1,69.93,64.9Z"/><path class="cls-4" d="M69.93,61.4a1.29,1.29,0,1,1,0,2.54A1.27,1.27,0,0,1,69.93,61.4Z"/></svg>