<svg id="Layer_1" data-name="Layer 1" xmlns="http://www.w3.org/2000/svg" viewBox="0 0 666.23 298.55"><defs><style>.cls-1{fill:#adb1b2;}.cls-2{fill:#fff;}.cls-3{fill:#5c5952;}.cls-4{fill:#c4c7c7;}.cls-5{fill:#ebeae2;}.cls-6{fill:#adb1b1;}.cls-7{fill:#d8d8d7;}</style></defs><title>whale-shark</title><path class="cls-1" d="M415.67,50.67S482.19-1.27,488.33,9.33c5.77,9.95-4,30.67,0,46s7.78,17.68,7.33,22S479,82,479,82Z" transform="translate(-6.1 -7.91)"/><path class="cls-1" d="M509.67,92s38.48-21.61,42.67-15.33c1.78,2.67,0,11.33,0,11.33s13.57,26.53,8.9,24.32-10.9.68-10.9,0.68Z" transform="translate(-6.1 -7.91)"/><path class="cls-1" d="M571.86,138.13S560.76,148,562.21,174l-48.55-8.21Z" transform="translate(-6.1 -7.91)"/><path class="cls-1" d="M460.33,174s-8,29.59,0,41.46S405,200.67,405,200.67Z" transform="translate(-6.1 -7.91)"/><path class="cls-2" d="M17.67,82s-19.33-1.33-8,23.33,34.67,46.67,48,56S149,201.33,213,208s142,14,187.33,0,81.33-32,104-38,86-30,86-30Z" transform="translate(-6.1 -7.91)"/><path class="cls-3" d="M27.67,84.67s-20.22-9.49-17,9.67,41.67,56,59,59.67,27,7.67,50-3.67Z" transform="translate(-6.1 -7.91)"/><path id="body" class="cls-4" d="M421.67,189.33c-3.33,22,75.47,48.35,118,68.67,48.57,23.21,88.67,42,80,48s-142.29-50.33-194-66.67C380.72,225.14,347,220.5,325,209.5c-14.91-7.44-16.67-22.17-64.67-32.17s-150-24.67-150-24.67c-24.67,1.33-35.06-3.42-49.33-14-10.1-7.49-56-61.33-32.67-80s86-14,112.67-18,76-12,111.33-15.33,92,4,128.67,10.67,203.75,84.05,203.75,84.05A358.48,358.48,0,0,1,630.33,68c28-26.3,42-36,42-36S651,96,629,122c0,0-1.33,24.24,4,43.79s14,49.54,14,49.54S613,192,595,165.79C583.8,149.48,584.33,144,579,144S423,180.66,421.67,189.33Z" transform="translate(-6.1 -7.91)"/><path class="cls-1" d="M365,55.33l225.33,75.33S463,99.33,365,55.33Z" transform="translate(-6.1 -7.91)"/><path class="cls-1" d="M405,108.67l210.74,26S480,134.67,405,108.67Z" transform="translate(-6.1 -7.91)"/><path class="cls-1" d="M289.67,45.49S390.33,54,393,170C393,170,419,58.32,289.67,45.49Z" transform="translate(-6.1 -7.91)"/><path class="cls-5" d="M122.39,135s17.06,6.67,18.62,11C141,146,119.31,155.93,122.39,135Z" transform="translate(-6.1 -7.91)"/><path class="cls-3" d="M133.6,137.91c4.59,3.32.69,13.09-5.41,7.27S130.23,135.47,133.6,137.91Z" transform="translate(-6.1 -7.91)"/><path class="cls-6" d="M122.39,135l19.75,11.14S140.94,129.61,122.39,135Z" transform="translate(-6.1 -7.91)"/><path class="cls-2" d="M392.49,74.55c9-2.33,13.67,9,3.33,11.33C385.23,88.28,385.62,76.33,392.49,74.55Z" transform="translate(-6.1 -7.91)"/><path class="cls-2" d="M403,116.69c9-2.33,13.67,9,3.33,11.33C395.8,130.41,396.18,118.47,403,116.69Z" transform="translate(-6.1 -7.91)"/><path class="cls-7" d="M496.44,146.52c7.37-1.91,11.2,7.37,2.73,9.28C490.49,157.76,490.81,148,496.44,146.52Z" transform="translate(-6.1 -7.91)"/><path class="cls-2" d="M416.13,159.81c9-2.33,13.67,9,3.33,11.33C408.87,173.54,409.26,161.59,416.13,159.81Z" transform="translate(-6.1 -7.91)"/><path class="cls-7" d="M448.78,144.42c6.87-2.33,10.43,9,2.54,11.33C443.24,158.15,443.54,146.21,448.78,144.42Z" transform="translate(-6.1 -7.91)"/><path class="cls-2" d="M466.6,125c9-2.33,13.67,9,3.33,11.33C459.35,138.72,459.73,126.78,466.6,125Z" transform="translate(-6.1 -7.91)"/><path class="cls-2" d="M515.07,134.73c7.36-1.91,11.17,7.36,2.72,9.26C509.14,145.95,509.45,136.19,515.07,134.73Z" transform="translate(-6.1 -7.91)"/><path class="cls-2" d="M547.44,136.78c4.09-1.06,6.22,4.09,1.52,5.16S544.32,137.59,547.44,136.78Z" transform="translate(-6.1 -7.91)"/><path class="cls-2" d="M86.89,123.24c4.09-1.06,6.22,4.09,1.52,5.16S83.76,124,86.89,123.24Z" transform="translate(-6.1 -7.91)"/><path class="cls-2" d="M83.1,83.61c3.27-1.73,6.11,1.64,2.32,3.51S80.6,84.93,83.1,83.61Z" transform="translate(-6.1 -7.91)"/><path class="cls-2" d="M58.68,119.48c2.32-1.32,4.46,1.48,1.77,2.89S56.91,120.48,58.68,119.48Z" transform="translate(-6.1 -7.91)"/><path class="cls-2" d="M99.69,109.26c4.57-2.59,8.78,2.91,3.48,5.7S96.2,111.24,99.69,109.26Z" transform="translate(-6.1 -7.91)"/><path class="cls-2" d="M123.87,111.51c4.09-1.06,6.22,4.09,1.52,5.16S120.74,112.32,123.87,111.51Z" transform="translate(-6.1 -7.91)"/><path class="cls-2" d="M125.26,84.15c4.73-2.92,9.41,3.85,3.92,7S121.64,86.38,125.26,84.15Z" transform="translate(-6.1 -7.91)"/><path class="cls-2" d="M132.23,58c4.57-2.59,8.78,2.91,3.48,5.7S128.74,60,132.23,58Z" transform="translate(-6.1 -7.91)"/><path class="cls-2" d="M114.48,47.78c2.92-1.54,2.94-3.89,1.62-5.27l-5.94.24C107.85,45.22,109.56,50.37,114.48,47.78Z" transform="translate(-6.1 -7.91)"/><path class="cls-2" d="M150.61,43c2.24-1.18,2.77-2.84,2.3-4.17L145.32,40C144.94,42.43,146.83,45,150.61,43Z" transform="translate(-6.1 -7.91)"/><path class="cls-2" d="M96.91,63c4.57-2.59,8.78,2.91,3.48,5.7S93.43,65,96.91,63Z" transform="translate(-6.1 -7.91)"/><path class="cls-2" d="M169.57,147.3c4.09-1.06,6.22,4.09,1.52,5.16S166.45,148.11,169.57,147.3Z" transform="translate(-6.1 -7.91)"/><path class="cls-2" d="M155.37,124.47c4.09-.7,6.22,2.71,1.52,3.41S152.24,125,155.37,124.47Z" transform="translate(-6.1 -7.91)"/><path class="cls-2" d="M166.35,102.25c4.09-1.06,6.22,4.09,1.52,5.16S163.23,103.06,166.35,102.25Z" transform="translate(-6.1 -7.91)"/><path class="cls-2" d="M137.85,98.77c4.09-1.06,6.22,4.09,1.52,5.16S134.73,99.58,137.85,98.77Z" transform="translate(-6.1 -7.91)"/><path class="cls-2" d="M176,126.62c4.09-1.06,6.22,4.09,1.52,5.16S172.88,127.43,176,126.62Z" transform="translate(-6.1 -7.91)"/><path class="cls-2" d="M25,77.64c4.09-1.06,6.22,4.09,1.52,5.16S21.86,78.45,25,77.64Z" transform="translate(-6.1 -7.91)"/><path class="cls-2" d="M42.14,60.93A2.34,2.34,0,1,1,45,64.6C42.19,66.93,40.34,62.52,42.14,60.93Z" transform="translate(-6.1 -7.91)"/><path class="cls-2" d="M26.17,61.4a2.49,2.49,0,1,1,3.06,3.91C26.22,67.78,24.25,63.09,26.17,61.4Z" transform="translate(-6.1 -7.91)"/><path class="cls-2" d="M61.19,70.8a1.87,1.87,0,1,1,2.29,2.93C61.22,75.59,59.75,72.07,61.19,70.8Z" transform="translate(-6.1 -7.91)"/><path class="cls-2" d="M60.71,105.27A1.87,1.87,0,1,1,63,108.2C60.74,110.05,59.27,106.54,60.71,105.27Z" transform="translate(-6.1 -7.91)"/><path class="cls-2" d="M69.38,102.59a1.87,1.87,0,1,1,2.29,2.93C69.41,107.37,67.94,103.86,69.38,102.59Z" transform="translate(-6.1 -7.91)"/><path class="cls-2" d="M63.71,137.89a2.06,2.06,0,0,0-.43,2.19l1.94,1.18a2.43,2.43,0,0,0,.78-0.45A1.87,1.87,0,1,0,63.71,137.89Z" transform="translate(-6.1 -7.91)"/><path class="cls-2" d="M92.77,148.41a1.87,1.87,0,1,1,2.29,2.93C92.81,153.19,91.34,149.68,92.77,148.41Z" transform="translate(-6.1 -7.91)"/><path class="cls-2" d="M112.69,105.11A1.87,1.87,0,1,1,115,108C112.73,109.89,111.26,106.38,112.69,105.11Z" transform="translate(-6.1 -7.91)"/><path class="cls-2" d="M114.82,72.79a1.87,1.87,0,1,1,2.29,2.93C114.85,77.57,113.38,74.06,114.82,72.79Z" transform="translate(-6.1 -7.91)"/><path class="cls-2" d="M30.92,93.25a1.87,1.87,0,1,1,2.29,2.93C31,98,29.49,94.52,30.92,93.25Z" transform="translate(-6.1 -7.91)"/><path class="cls-2" d="M41.32,108.14A2.2,2.2,0,1,1,44,111.59C41.36,113.78,39.63,109.64,41.32,108.14Z" transform="translate(-6.1 -7.91)"/><path class="cls-7" d="M94.58,136a1.72,1.72,0,1,1,2.12,2.7C94.61,140.4,93.26,137.16,94.58,136Z" transform="translate(-6.1 -7.91)"/><path class="cls-7" d="M109,143.63a1.72,1.72,0,1,1,2.12,2.7C109,148,107.67,144.8,109,143.63Z" transform="translate(-6.1 -7.91)"/><path class="cls-7" d="M144.09,149.81a1.72,1.72,0,1,1,2.12,2.7C144.12,154.22,142.76,151,144.09,149.81Z" transform="translate(-6.1 -7.91)"/><path class="cls-7" d="M447.43,197.07a1.72,1.72,0,1,1,2.12,2.7C447.46,201.48,446.11,198.24,447.43,197.07Z" transform="translate(-6.1 -7.91)"/><path class="cls-7" d="M534.76,162.86a1.72,1.72,0,1,1,2.12,2.7C534.79,167.28,533.43,164,534.76,162.86Z" transform="translate(-6.1 -7.91)"/><path class="cls-7" d="M558.49,154.5a1.72,1.72,0,1,1,2.12,2.7C558.53,158.92,557.17,155.67,558.49,154.5Z" transform="translate(-6.1 -7.91)"/><path class="cls-2" d="M75.8,136a1.72,1.72,0,1,1,2.12,2.7C75.83,140.4,74.48,137.16,75.8,136Z" transform="translate(-6.1 -7.91)"/><path class="cls-2" d="M142.38,136a1.72,1.72,0,1,1,2.12,2.7C142.41,140.4,141.05,137.16,142.38,136Z" transform="translate(-6.1 -7.91)"/><path class="cls-2" d="M89.9,100a1.72,1.72,0,1,1,2.12,2.7C89.93,104.4,88.57,101.16,89.9,100Z" transform="translate(-6.1 -7.91)"/><path class="cls-2" d="M187.51,112.73a1.72,1.72,0,1,1,2.12,2.7C187.54,117.14,186.19,113.9,187.51,112.73Z" transform="translate(-6.1 -7.91)"/><path class="cls-2" d="M444.15,207.06a1.72,1.72,0,1,1,2.12,2.7C444.18,211.47,442.83,208.23,444.15,207.06Z" transform="translate(-6.1 -7.91)"/><path class="cls-2" d="M555.28,165.92a1.72,1.72,0,1,1,2.12,2.7C555.31,170.33,554,167.09,555.28,165.92Z" transform="translate(-6.1 -7.91)"/><path class="cls-2" d="M112,128.9c2.66-2.17,6,1,2.88,3.4S109.93,130.55,112,128.9Z" transform="translate(-6.1 -7.91)"/><path class="cls-2" d="M189.67,161.71a3.19,3.19,0,1,1,3.92,5C189.73,169.87,187.22,163.88,189.67,161.71Z" transform="translate(-6.1 -7.91)"/><path class="cls-2" d="M217.55,145.86a3.19,3.19,0,1,1,3.92,5C217.61,154,215.1,148,217.55,145.86Z" transform="translate(-6.1 -7.91)"/><path class="cls-2" d="M248.23,171.87a3.19,3.19,0,1,1,3.92,5C248.29,180,245.78,174,248.23,171.87Z" transform="translate(-6.1 -7.91)"/><path class="cls-2" d="M273.21,168.48a3.19,3.19,0,1,1,3.92,5C273.27,176.65,270.76,170.65,273.21,168.48Z" transform="translate(-6.1 -7.91)"/><path class="cls-2" d="M204.65,126.23a3.19,3.19,0,1,1,3.92,5C204.71,134.39,202.2,128.4,204.65,126.23Z" transform="translate(-6.1 -7.91)"/><path class="cls-2" d="M196,44.6a3.19,3.19,0,1,1,3.92,5C196,52.77,193.54,46.77,196,44.6Z" transform="translate(-6.1 -7.91)"/><path class="cls-2" d="M187.66,81.2c4.09-1.06,6.22,4.09,1.52,5.16S184.54,82,187.66,81.2Z" transform="translate(-6.1 -7.91)"/><path class="cls-2" d="M347.46,167.42c4.09-1.06,6.22,4.09,1.52,5.16S344.34,168.23,347.46,167.42Z" transform="translate(-6.1 -7.91)"/><path class="cls-2" d="M344.25,116.73c4.09-1.06,6.22,4.09,1.52,5.16S341.12,117.54,344.25,116.73Z" transform="translate(-6.1 -7.91)"/><path class="cls-2" d="M302.2,61.62c4.09-1.06,6.22,4.09,1.52,5.16S299.08,62.43,302.2,61.62Z" transform="translate(-6.1 -7.91)"/><path class="cls-2" d="M294.18,111.51c4.09-1.06,6.22,4.09,1.52,5.16S291.06,112.32,294.18,111.51Z" transform="translate(-6.1 -7.91)"/><path class="cls-2" d="M321.95,39.13c4.09-1.06,6.22,4.09,1.52,5.16S318.82,39.94,321.95,39.13Z" transform="translate(-6.1 -7.91)"/><path class="cls-2" d="M266.14,129c6-1.54,9,6,2.21,7.5C261.34,138,261.59,130.13,266.14,129Z" transform="translate(-6.1 -7.91)"/><path class="cls-2" d="M245.48,92.49c6-1.54,9,6,2.21,7.5C240.68,101.58,240.93,93.67,245.48,92.49Z" transform="translate(-6.1 -7.91)"/><path class="cls-2" d="M171.42,65.7c-5.77-2.14-4-10.06,2.48-7.42C180.55,61,175.82,67.33,171.42,65.7Z" transform="translate(-6.1 -7.91)"/><path class="cls-2" d="M202.53,93.56c-5.77-2.14-4-10.06,2.48-7.42C211.67,88.85,206.94,95.19,202.53,93.56Z" transform="translate(-6.1 -7.91)"/><path class="cls-2" d="M224.68,90.27c6-1.54,9,6,2.21,7.5C219.88,99.35,220.13,91.44,224.68,90.27Z" transform="translate(-6.1 -7.91)"/><path class="cls-2" d="M253.68,145.64c6-1.54,9,6,2.21,7.5C248.88,154.73,249.13,146.82,253.68,145.64Z" transform="translate(-6.1 -7.91)"/><path class="cls-2" d="M233,109.18c6-1.54,9,6,2.21,7.5C228.22,118.27,228.47,110.36,233,109.18Z" transform="translate(-6.1 -7.91)"/><path class="cls-2" d="M249.62,59.49c6,1.73,3.43,11.13-3.31,8.9C239.4,66.11,245,58.16,249.62,59.49Z" transform="translate(-6.1 -7.91)"/><path class="cls-2" d="M307.12,95.87c6,1.73,3.43,11.13-3.31,8.9C296.9,102.49,302.54,94.54,307.12,95.87Z" transform="translate(-6.1 -7.91)"/><path class="cls-2" d="M299.8,130.12c6,1.73,3.43,11.13-3.31,8.9C289.59,136.74,295.22,128.79,299.8,130.12Z" transform="translate(-6.1 -7.91)"/><path class="cls-2" d="M214,63.93c-5.77-2.14-4-10.06,2.48-7.42C223.08,59.23,218.36,65.57,214,63.93Z" transform="translate(-6.1 -7.91)"/><path class="cls-2" d="M270.62,64.83c-7.32-2.06-3.45-14.13,4.74-11.46C283.75,56.11,276.2,66.4,270.62,64.83Z" transform="translate(-6.1 -7.91)"/><path class="cls-2" d="M316.87,83.9c-7.32-2.06-3.45-14.13,4.74-11.46C330,75.17,322.45,85.47,316.87,83.9Z" transform="translate(-6.1 -7.91)"/><path class="cls-2" d="M320.62,121.19c-7.32-2.06-3.45-14.13,4.74-11.46C333.75,112.47,326.2,122.76,320.62,121.19Z" transform="translate(-6.1 -7.91)"/><path class="cls-2" d="M318.87,161.23c-7.32-2.06-3.45-14.13,4.74-11.46C332,152.51,324.45,162.81,318.87,161.23Z" transform="translate(-6.1 -7.91)"/><path class="cls-2" d="M358,154.06c-8.8-3.09-5.7-15.69,4.19-11.84C372.35,146.16,364.74,156.42,358,154.06Z" transform="translate(-6.1 -7.91)"/><path class="cls-2" d="M359.56,129.38c-8.8-3.09-5.7-15.69,4.19-11.84C373.88,121.48,366.27,131.74,359.56,129.38Z" transform="translate(-6.1 -7.91)"/><path class="cls-2" d="M372.31,190.63c-8.8-3.09-5.7-15.69,4.19-11.84C386.64,182.74,379,193,372.31,190.63Z" transform="translate(-6.1 -7.91)"/><path class="cls-2" d="M258.45,45.15c-8.8-3.09-5.7-15.69,4.19-11.84C272.78,37.25,265.16,47.51,258.45,45.15Z" transform="translate(-6.1 -7.91)"/><path class="cls-7" d="M74.43,110.37c3.73-2.12,7.17,2.38,2.84,4.65S71.59,112,74.43,110.37Z" transform="translate(-6.1 -7.91)"/><path class="cls-7" d="M44.66,90.23c3.21-1.82,6.17,2,2.44,4S42.21,91.62,44.66,90.23Z" transform="translate(-6.1 -7.91)"/><path class="cls-7" d="M45.84,120.53a2.5,2.5,0,0,0-.82.76q1.42,1.79,2.81,3.45a5,5,0,0,0,.46-0.2C52,122.57,49,118.71,45.84,120.53Z" transform="translate(-6.1 -7.91)"/><path class="cls-7" d="M62.71,87.29c2.3-1.3,4.41,1.46,1.75,2.86S61,88.29,62.71,87.29Z" transform="translate(-6.1 -7.91)"/><path class="cls-7" d="M91.76,49.07c2.3-1.3,4.41,1.46,1.75,2.86S90,50.06,91.76,49.07Z" transform="translate(-6.1 -7.91)"/><path class="cls-7" d="M134.59,74.84c2.3-1.3,4.41,1.46,1.75,2.86S132.83,75.83,134.59,74.84Z" transform="translate(-6.1 -7.91)"/><path class="cls-7" d="M167,45c2.3-1.3,4.41,1.46,1.75,2.86S165.22,46,167,45Z" transform="translate(-6.1 -7.91)"/><path class="cls-7" d="M135,49.07c2.3-1.3,4.41,1.46,1.75,2.86S133.22,50.06,135,49.07Z" transform="translate(-6.1 -7.91)"/><path class="cls-7" d="M155.32,59.28c2.3-1.3,4.41,1.46,1.75,2.86S153.57,60.27,155.32,59.28Z" transform="translate(-6.1 -7.91)"/><path class="cls-7" d="M44,76.62c2.3-1.3,4.41,1.46,1.75,2.86S42.24,77.61,44,76.62Z" transform="translate(-6.1 -7.91)"/><path class="cls-7" d="M54.62,54.55c2.3-1.3,4.41,1.46,1.75,2.86S52.87,55.54,54.62,54.55Z" transform="translate(-6.1 -7.91)"/><path class="cls-7" d="M59.11,48.16c2.3-1.3,4.41,1.46,1.75,2.86S57.36,49.16,59.11,48.16Z" transform="translate(-6.1 -7.91)"/><path class="cls-7" d="M75.08,70.62c2.3-1.3,4.41,1.46,1.75,2.86S73.32,71.61,75.08,70.62Z" transform="translate(-6.1 -7.91)"/><path class="cls-7" d="M190.08,38.27c2.92-1.54,2.95-3.9,1.62-5.27l-6.45.95C183.77,36.55,185.59,40.64,190.08,38.27Z" transform="translate(-6.1 -7.91)"/><path class="cls-7" d="M232.4,30.18c4.57-2.59,8.78,2.91,3.48,5.7S228.91,32.16,232.4,30.18Z" transform="translate(-6.1 -7.91)"/><path class="cls-7" d="M107.85,88.35c4.46-3,9.21,4.53,4,7.74S104.45,90.64,107.85,88.35Z" transform="translate(-6.1 -7.91)"/><path class="cls-7" d="M151.65,84.14c4.57-2.59,8.78,2.91,3.48,5.7S148.17,86.11,151.65,84.14Z" transform="translate(-6.1 -7.91)"/><path class="cls-7" d="M141.07,120.71c4.09-1.06,6.22,4.09,1.52,5.16S137.95,121.52,141.07,120.71Z" transform="translate(-6.1 -7.91)"/><path class="cls-7" d="M71.63,50.47a3.19,3.19,0,1,1,3.92,5C71.69,58.64,69.18,52.64,71.63,50.47Z" transform="translate(-6.1 -7.91)"/><path class="cls-7" d="M200,140.23a3.19,3.19,0,1,1,3.92,5C200.07,148.4,197.56,142.4,200,140.23Z" transform="translate(-6.1 -7.91)"/><path class="cls-7" d="M228.59,165.1a3.19,3.19,0,1,1,3.92,5C228.65,173.26,226.14,167.26,228.59,165.1Z" transform="translate(-6.1 -7.91)"/><path class="cls-7" d="M167,76.82c4.09-1.06,6.22,4.09,1.52,5.16S163.9,77.63,167,76.82Z" transform="translate(-6.1 -7.91)"/><path class="cls-7" d="M291,155.54c4.09-1.06,6.22,4.09,1.52,5.16S287.84,156.35,291,155.54Z" transform="translate(-6.1 -7.91)"/><path class="cls-7" d="M435.9,198.57c4.09-1.06,6.22,4.09,1.52,5.16S432.78,199.38,435.9,198.57Z" transform="translate(-6.1 -7.91)"/><path class="cls-7" d="M545.22,163.48c4.09-1.06,6.22,4.09,1.52,5.16S542.1,164.29,545.22,163.48Z" transform="translate(-6.1 -7.91)"/><path class="cls-7" d="M275.5,98.87c6-1.54,9,6,2.21,7.5C270.7,108,271,100,275.5,98.87Z" transform="translate(-6.1 -7.91)"/><path class="cls-7" d="M249,80.1c6-1.54,9,6,2.21,7.5C244.2,89.18,244.45,81.28,249,80.1Z" transform="translate(-6.1 -7.91)"/><path class="cls-7" d="M282.62,74.31c6-1.54,9,6,2.21,7.5C277.82,83.39,278.08,75.48,282.62,74.31Z" transform="translate(-6.1 -7.91)"/><path class="cls-7" d="M335.64,132.62c6,1.73,3.43,11.13-3.31,8.9C325.43,139.25,331.06,131.3,335.64,132.62Z" transform="translate(-6.1 -7.91)"/><path class="cls-7" d="M462.61,24.49c6,1.73,3.43,11.13-3.31,8.9C452.4,31.12,458,23.17,462.61,24.49Z" transform="translate(-6.1 -7.91)"/><path class="cls-7" d="M339,178c6,1.73,3.43,11.13-3.31,8.9C328.81,184.63,334.44,176.68,339,178Z" transform="translate(-6.1 -7.91)"/><path class="cls-7" d="M363.11,206.74c6,1.73,3.43,11.13-3.31,8.9C352.89,213.36,358.52,205.41,363.11,206.74Z" transform="translate(-6.1 -7.91)"/><path class="cls-7" d="M410.52,211.43c6,1.73,3.43,11.13-3.31,8.9C400.31,218.06,405.94,210.11,410.52,211.43Z" transform="translate(-6.1 -7.91)"/><path class="cls-7" d="M446.92,229.39c6,1.73,3.43,11.13-3.31,8.9C436.7,236,442.33,228.06,446.92,229.39Z" transform="translate(-6.1 -7.91)"/><path class="cls-7" d="M606,143.9c6,1.73,3.43,11.13-3.31,8.9C595.81,150.52,601.45,142.57,606,143.9Z" transform="translate(-6.1 -7.91)"/><path class="cls-7" d="M633,165.79c-0.42-1.53-.79-3.09-1.13-4.66a5.56,5.56,0,0,0-.63-0.23c-4.58-1.32-10.22,6.62-3.31,8.9a4.79,4.79,0,0,0,5.74-1.58Z" transform="translate(-6.1 -7.91)"/><path class="cls-7" d="M627.61,93.33c3.69,1.06,2.11,6.83-2,5.47S624.8,92.52,627.61,93.33Z" transform="translate(-6.1 -7.91)"/><path class="cls-7" d="M593.54,108.53A3,3,0,0,0,597,104q-1.94,2.39-3.6,4.5Z" transform="translate(-6.1 -7.91)"/><path class="cls-7" d="M636.2,191.71c6,1.73,3.43,11.13-3.31,8.9C626,198.33,631.61,190.38,636.2,191.71Z" transform="translate(-6.1 -7.91)"/><path class="cls-7" d="M485.83,245c6,1.73,3.43,11.13-3.31,8.9C475.62,251.62,481.25,243.68,485.83,245Z" transform="translate(-6.1 -7.91)"/><path class="cls-7" d="M232.79,54.35c-5.77-2.14-4-10.06,2.48-7.42C241.93,49.64,237.2,56,232.79,54.35Z" transform="translate(-6.1 -7.91)"/><path class="cls-7" d="M352.41,106.31c-8.8-3.09-5.7-15.69,4.19-11.84C366.74,98.42,359.13,108.67,352.41,106.31Z" transform="translate(-6.1 -7.91)"/><path class="cls-7" d="M212.22,107c6-1.54,9,6,2.21,7.5C207.42,116,207.67,108.13,212.22,107Z" transform="translate(-6.1 -7.91)"/><path class="cls-2" d="M263,115.56c6-1.54,9,6,2.21,7.5C258.24,124.64,258.49,116.74,263,115.56Z" transform="translate(-6.1 -7.91)"/><path class="cls-2" d="M370.82,66.76c4.09-1.06,6.22,4.09,1.52,5.16S367.69,67.57,370.82,66.76Z" transform="translate(-6.1 -7.91)"/><path class="cls-2" d="M400.73,57.51c4.09-1.06,6.22,4.09,1.52,5.16S397.6,58.32,400.73,57.51Z" transform="translate(-6.1 -7.91)"/><path class="cls-2" d="M405.73,148.59c4.09-1.06,6.22,4.09,1.52,5.16S402.6,149.4,405.73,148.59Z" transform="translate(-6.1 -7.91)"/><path class="cls-2" d="M527.47,87.48c4.09-1.06,6.22,4.09,1.52,5.16S524.34,88.29,527.47,87.48Z" transform="translate(-6.1 -7.91)"/><path class="cls-2" d="M549.09,81.64c2.48-.64,3.77,2.48.92,3.13S547.2,82.13,549.09,81.64Z" transform="translate(-6.1 -7.91)"/><path class="cls-2" d="M467.77,60.23c4.09-1.06,6.22,4.09,1.52,5.16S464.65,61,467.77,60.23Z" transform="translate(-6.1 -7.91)"/><path class="cls-2" d="M575.52,135.55c4.09-1.06,6.22,4.09,1.52,5.16S572.4,136.36,575.52,135.55Z" transform="translate(-6.1 -7.91)"/><path class="cls-7" d="M478.52,36.46c4.09-1.06,6.22,4.09,1.52,5.16S475.39,37.27,478.52,36.46Z" transform="translate(-6.1 -7.91)"/><path class="cls-2" d="M478.52,21.92c4.09-1.06,6.22,4.09,1.52,5.16S475.39,22.73,478.52,21.92Z" transform="translate(-6.1 -7.91)"/><path class="cls-2" d="M383.67,204c4.09-1.06,6.22,4.09,1.52,5.16S380.54,204.82,383.67,204Z" transform="translate(-6.1 -7.91)"/><path class="cls-2" d="M432,218.1c4.09-1.06,6.22,4.09,1.52,5.16S428.92,218.91,432,218.1Z" transform="translate(-6.1 -7.91)"/><path class="cls-2" d="M461.78,236.05c4.09-1.06,6.22,4.09,1.52,5.16S458.66,236.86,461.78,236.05Z" transform="translate(-6.1 -7.91)"/><path class="cls-2" d="M508.69,254.38c4.09-1.06,6.22,4.09,1.52,5.16S505.57,255.19,508.69,254.38Z" transform="translate(-6.1 -7.91)"/><path class="cls-2" d="M528.69,265.88c4.09-1.06,6.22,4.09,1.52,5.16S525.56,266.69,528.69,265.88Z" transform="translate(-6.1 -7.91)"/><path class="cls-2" d="M570.6,117.48c4.09-1.06,6.22,4.09,1.52,5.16S567.47,118.29,570.6,117.48Z" transform="translate(-6.1 -7.91)"/><path class="cls-2" d="M453.54,96.45c9-2,13.67,7.65,3.33,9.64C446.29,108.12,446.67,98,453.54,96.45Z" transform="translate(-6.1 -7.91)"/><path class="cls-2" d="M502.42,107.37c6.55-2,10,7.56,2.43,9.52C497.14,118.89,497.42,108.86,502.42,107.37Z" transform="translate(-6.1 -7.91)"/><path class="cls-2" d="M541.62,118.8c3.8-1.1,5.77,4.25,1.41,5.35S538.72,119.64,541.62,118.8Z" transform="translate(-6.1 -7.91)"/><path class="cls-2" d="M442.4,64.14c8.14-2.33,12.36,9,3,11.33C435.84,77.86,436.19,65.92,442.4,64.14Z" transform="translate(-6.1 -7.91)"/><path class="cls-2" d="M490.38,84.54c7.63-2,11.58,7.63,2.82,9.6C484.24,96.17,484.57,86.05,490.38,84.54Z" transform="translate(-6.1 -7.91)"/><path class="cls-2" d="M536.33,103.55c6.24-1.46,9.47,5.64,2.31,7.11C531.31,112.15,531.57,104.66,536.33,103.55Z" transform="translate(-6.1 -7.91)"/><path class="cls-7" d="M422.31,140.55c7.37-1.91,11.2,7.37,2.73,9.28C416.36,151.79,416.68,142,422.31,140.55Z" transform="translate(-6.1 -7.91)"/><path class="cls-7" d="M598.63,121.92c7.37-1.91,11.2,7.37,2.73,9.28C592.69,133.17,593,123.38,598.63,121.92Z" transform="translate(-6.1 -7.91)"/><path class="cls-2" d="M470.21,151.43c7.37-1.91,11.2,7.37,2.73,9.28C464.26,162.67,464.58,152.89,470.21,151.43Z" transform="translate(-6.1 -7.91)"/><path class="cls-7" d="M493.63,130.93c5.55-1.95,8.43,7.51,2.06,9.46C489.16,142.38,489.4,132.41,493.63,130.93Z" transform="translate(-6.1 -7.91)"/><path class="cls-7" d="M531.38,134.64c6.29-2.33,9.55,9,2.33,11.3C526.31,148.32,526.58,136.42,531.38,134.64Z" transform="translate(-6.1 -7.91)"/><path class="cls-7" d="M404.22,184.67c4.09-1.06,6.22,4.09,1.52,5.16S401.09,185.48,404.22,184.67Z" transform="translate(-6.1 -7.91)"/><path class="cls-7" d="M346.06,52.76c4.09-1.06,6.22,4.09,1.52,5.16S342.94,53.57,346.06,52.76Z" transform="translate(-6.1 -7.91)"/><path class="cls-7" d="M357.33,42.37c4.09-1.06,6.22,4.09,1.52,5.16S354.21,43.18,357.33,42.37Z" transform="translate(-6.1 -7.91)"/><path class="cls-7" d="M297.4,34.07c4.09-1.06,6.22,4.09,1.52,5.16S294.27,34.88,297.4,34.07Z" transform="translate(-6.1 -7.91)"/><path class="cls-7" d="M447.58,167.42c4.09-1.06,6.22,4.09,1.52,5.16S444.45,168.23,447.58,167.42Z" transform="translate(-6.1 -7.91)"/><path class="cls-7" d="M541,91.12c2.69-.7,4.08,2.69,1,3.38S539,91.65,541,91.12Z" transform="translate(-6.1 -7.91)"/><path class="cls-7" d="M558.7,277.5c4.09-1.06,6.22,4.09,1.52,5.16S555.58,278.31,558.7,277.5Z" transform="translate(-6.1 -7.91)"/><path class="cls-7" d="M394.16,100.56c4.09-1.06,6.22,4.09,1.52,5.16S391,101.37,394.16,100.56Z" transform="translate(-6.1 -7.91)"/><path class="cls-2" d="M516.13,150.56c4.09-1.06,6.22,4.09,1.52,5.16S513,151.37,516.13,150.56Z" transform="translate(-6.1 -7.91)"/><path class="cls-7" d="M644.33,75.93c4.09-1.06,6.22,4.09,1.52,5.16S641.2,76.74,644.33,75.93Z" transform="translate(-6.1 -7.91)"/><path class="cls-7" d="M561.24,136.78c4.09-1.06,6.22,4.09,1.52,5.16S558.11,137.59,561.24,136.78Z" transform="translate(-6.1 -7.91)"/><path class="cls-7" d="M556.94,122.11c4.09-1.06,6.22,4.09,1.52,5.16S553.81,122.92,556.94,122.11Z" transform="translate(-6.1 -7.91)"/><path class="cls-7" d="M439.34,122.41c9-2.88,13.67,11.11,3.33,14C432.08,139.35,432.47,124.61,439.34,122.41Z" transform="translate(-6.1 -7.91)"/><path class="cls-7" d="M428.5,89.7c8.19-2.64,12.43,10.18,3,12.82C421.9,105.22,422.25,91.71,428.5,89.7Z" transform="translate(-6.1 -7.91)"/><path class="cls-7" d="M478,103c6.05-2.33,9.19,9,2.24,11.33C473.17,116.72,473.43,104.78,478,103Z" transform="translate(-6.1 -7.91)"/><path class="cls-7" d="M520.66,113c5.65-1.69,8.57,6.52,2.09,8.21C516.11,123,516.36,114.33,520.66,113Z" transform="translate(-6.1 -7.91)"/><path class="cls-7" d="M465.9,77.92c5.74-1.49,8.72,5.74,2.13,7.23C461.27,86.68,461.52,79.06,465.9,77.92Z" transform="translate(-6.1 -7.91)"/><path class="cls-7" d="M447.18,44.07c5.74-1.49,8.72,5.74,2.13,7.23C442.56,52.82,442.8,45.21,447.18,44.07Z" transform="translate(-6.1 -7.91)"/><path class="cls-7" d="M511.61,93.56c5.37-1.71,8.15,6.59,2,8.3C507.29,103.62,507.52,94.87,511.61,93.56Z" transform="translate(-6.1 -7.91)"/><path class="cls-7" d="M553,110c4.84-1.25,7.35,4.84,1.79,6.09S549.27,111,553,110Z" transform="translate(-6.1 -7.91)"/><path class="cls-7" d="M420.59,57.69c9-2.33,13.67,9,3.33,11.33C413.34,71.41,413.72,59.47,420.59,57.69Z" transform="translate(-6.1 -7.91)"/><path class="cls-2" d="M376.72,42c9-2.33,13.67,9,3.33,11.33C369.46,55.74,369.85,43.8,376.72,42Z" transform="translate(-6.1 -7.91)"/><path class="cls-2" d="M407.8,90c4.79-1.24,7.27,4.79,1.77,6S404.14,90.93,407.8,90Z" transform="translate(-6.1 -7.91)"/><path class="cls-2" d="M610.83,106.85c4.79-1.24,10.4,7.52,4.9,8.76S607.18,107.8,610.83,106.85Z" transform="translate(-6.1 -7.91)"/><path class="cls-2" d="M608,161.18c3.91-1,5.94,3.91,1.45,4.92S605,162,608,161.18Z" transform="translate(-6.1 -7.91)"/><path class="cls-2" d="M606.59,176.91a2.8,2.8,0,0,0-1.74,1.36q1.59,1.8,3.23,3.55C612.5,180.78,610.48,175.9,606.59,176.91Z" transform="translate(-6.1 -7.91)"/><path class="cls-2" d="M624.17,136.05c2.62-.68,4,2.62,1,3.29S622.17,136.57,624.17,136.05Z" transform="translate(-6.1 -7.91)"/><path class="cls-2" d="M618.36,179.53c4.79-1.24,7.27,4.79,1.77,6S614.7,180.48,618.36,179.53Z" transform="translate(-6.1 -7.91)"/><path class="cls-2" d="M628.51,79c4.79-1.24,7.27,4.79,1.77,6S624.86,79.92,628.51,79Z" transform="translate(-6.1 -7.91)"/><path class="cls-2" d="M642.72,63.11c4.92-1.11,3.44-6-.36-6.18l-4,3.66C638.37,62.28,639.7,63.79,642.72,63.11Z" transform="translate(-6.1 -7.91)"/><path class="cls-2" d="M655.24,48.49c4.79-1.24,7.27,4.79,1.77,6S651.59,49.43,655.24,48.49Z" transform="translate(-6.1 -7.91)"/></svg>